/* XPM */
static char *_bee3f6e947c4da1cbb6bf9b96bb2b17yldplbS203KRRxIu[] = {
/* columns rows colors chars-per-pixel */
"68 68 44 1 ",
"  c #090B0B",
". c #0E0E13",
"X c #151515",
"o c #131318",
"O c #16181E",
"+ c #181818",
"@ c #1E1E1E",
"# c gray13",
"$ c #272727",
"% c #21242E",
"& c #2A2A2A",
"* c #272A34",
"= c #2B313B",
"- c #313131",
"; c #343434",
": c gray23",
"> c #3F3F3F",
", c #313442",
"< c #000069",
"1 c #464646",
"2 c gray29",
"3 c #515151",
"4 c #555555",
"5 c #5D5D5D",
"6 c gray38",
"7 c DimGray",
"8 c #717171",
"9 c #797979",
"0 c gray49",
"q c none",
"w c none",
"e c #868686",
"r c gray56",
"t c #979797",
"y c gray61",
"u c #A5A5A5",
"i c #AEAEAE",
"p c #B7B7B7",
"a c #C1C1C1",
"s c #C5C5C5",
"d c gray81",
"f c gray85",
"g c #E2E2E2",
"h c #FBFBFB",
/* pixels */
"qqqqqqqqqqqqqqqqqqwwwwwwwwwwwwwwwwwwwwwwwwwwwwwwwwwwwwwwwwwwqqqqqqqq",
"qqqqqqqqqqqqqqqqqqwwwwwwwwwwwwwwwwwwwwwwwwwwwwwwwwwwwwwwwwwwqqqqqqqq",
"qqqqqqqqqqqqqqqqqqwwwwwwwwwwwwwwwwwwwwwwwwwwwwwwwwwwwwwwwwwwwwwwwwww",
"qqqqqqqqqqqqwwqqwwwwwwwwwwwwwwwwwwwwwwwwwwwwwwwwwwwwwwwwwwwwwwwwwwww",
"qqqqqqqqqqqqwwwwwwwwwwwwwwwwwwwwwwwwwwwwwwwwwwwwwwwwwwwwwwwwwwwwwwww",
"qqqqqqqqqqqqwwwwwwwwwwwwwwwwwww58i083wwwwwwwwwwwwwwwwwwwwwwwwwwwwwww",
"qqqqqqqqqqqqwwwwwwwwwwwwwwwww-sssfsfhi3wwwwwwwwwwwwwwwwwwwwwwwwwwwww",
"qqqqqqqqqqqqwwwwwwwwwwwwwwww$4pfhhshhhswwwwwwwwwwwwwwwwwwwwwwwwwwwww",
"qqqqqqqqqqqqwwwwwwwwwwwwwwww$:eisssshfs8wwwwwwwwwwwwwwwwwwwwwwwwwwww",
"qqqqqqqqqqqqwwwwwwwwwwwwwwww $49hissssi7wwwwwwwwwwwwwwwwwwwwwwwwwwww",
"qqqqqqqqqwwwwwwwwwwwwwwwwwww@.@-:40ee73$wwwwwwwwwwwwwwwwwwwwwwwwwwww",
"qqqqqqqqqwwwwwwwwwwwwwwwwwwwX....X$-@.X$wwwwwwwwwwwwwwwwwwwwwwwwwwww",
"qqqqqqqqqwwwwwwwwwwwwwwwwww$..X@@:2t1$$1wwwwwwwwwwwwwwwwwwwwwwwwwwww",
"wwwwwwwwwwwwwwwwwwwwwwwwww-e@.$-:14f94305wwwwwwwwwwwwwwwwwwwwwwwwwww",
"wwwwwwwwwwwwwwwwwwwwwww579.5t@:7:@$-:e9g7wwwwwwwwwwwwwwwwwwwwwwwwwww",
"wwwwwwwwwwwwwwwwwwwwwtghhp$$4f34939ttehp8wwwwwwwwwwwwwwwwwwwwwwwwwww",
"wwwwwwwwwwwwwwwwwwwwtghhgu31$ys471$:ehgighwwwwwwwwwwwwwwwwwwwwwwwwww",
"wwwwwwwwwwwwwwwwwww1gfhgfu>3>$:X.@ .$X74shhwwwwwwwwwwwwwwwwwwwwwwwww",
"wwwwwwwwwwwwwwwwwww:gfffst-643$X.@.+&$;6sghywwwwwwwwwwwwwwwwwwwwwwww",
"wwwwwwwwwwwwwwwwwww77uueer3rr041113;7y66adsiwwwwwwwwwwwwwwwwwwwwwwww",
"wwwwwwwwwwwwwwwwwww1446th06trrrr6660ti83eashwwwwwwwwwwwwwwwwwwwwwwww",
"wwwwwwwwwwwwwwwwwww-17pfh::giutrrr9upe837asf1wwwwwwwwwwwwwwwwwwwwwww",
"wwwwwwwwwwwwwwwwwwwX:ufhh72ehgityyyyie82088y9wwwwwwwwwwwwwwwwwwwwwww",
"wwwwwwwwwwwwwwwwwwww.9uhgu1>igfairrey12eriy1-wwwwwwwwwwwwwwwwwwwwwww",
"wwwwwwwwwwwwwwwwwwww.8y781$$&>1113$17X7e8tstwwwwwwwwwwwwwwwwwwwwwwww",
"wwwwwwwwwwwwwwwwwwwww81>8hhpii>@$-.:$X@-1ysiwwwwwwwwwwwwwwwwwwwwwwww",
"wwwwwwwwwwwwwwwwwwwww@:0sghhgfii5.@$XXXXX-:ewwwwwwwwwwwwwwwwwwwwwwww",
"wwwwwwwwwwwwwwwwwwwww :79etyyyy8X .X..X@.afg1wwwwwwwwwwwwwwwwwwwwwww",
"wwwwwwwwwwwwwwwwwwww..XX@-:::::$    ..  7hgftwwwwwwwwwwwwwwwwwwwwwww",
"wwwwwwwwwwwwwwwwwwww...XXX@@@@@@X@@X.. X7ye8-wwwwwwwwwwwwwwwwwwwwwww",
"wwwwwwwwwwwwwwwwwwww ..XX$$@@@@@X.X .. @3::$wwwwwwwwwwwwwwwwwwwwwwww",
"wwwwwwwwwwwwwwwwwwwww..+@@$:4$@$34:@  .XX@wwwwwwwwwwwwwwwwwwwwwwwwww",
"wwwwwwwwwwwwwwwwwwwww$-&@++:333387-@@@@wwwwwwwwwwwwwwwwwwwwwwwwwwwww",
"wwwwwwwwwwwwwwwwwwww-792+$+o&:1>:@$@@$-wwwwwwwwwwwwwwwwwwwwwwwwwwwww",
"wwwwwwwwwwwwwwwwwww=313&@+$oO$1>$&:--@&wwwwwwwwwwwwwwwwwwwwwwwwwwwww",
"wwwwwwwwwwwwwwwwwwww>-:X$4&$oo&-$:122-$-wwwwwwwwwwwwwwwwwwwwwwwwwwww",
"wwwwwwwwwwwwwwwwwwww..X$883&:o&$:21771$1wwwwwwwwwwwwwwwwwwwwwwwwwwww",
"wwwwwwwwwwwwwwwwwwww..$6674;>o@O>115te>>wwwwwwwwwwwwwwwwwwwwwwwwwwww",
"wwwwwwwwwwwwwwwwwwww.:78r763>#o@:::5rga8=wwwwwwwwwwwwwwwwwwwwwwwwwww",
"qqqqqqqqqwwwwwwwwwww.:78r774:#.X@-:1esgt7wwwwwwwwwwwwwwwwwwwwwwwwwww",
"qqqqqqqqqwwwwwwwwwww.4esga84&ww.@$::5tgf0<wwwwwwwwwwwwwwwwwwwwwwwwww",
"qqqqqqqqqwwwwwwwwwwwX3eshg97$www.@$:2rphu=wwwwwwwwwwwwwwwwwwwwwwwwww",
"qqqqqqqqqwwwwwwwwwwwX1eshgi8$wwww.@-1eugg0wwwwwwwwwwwwwwwwwwwwwwwwww",
"qqqqqqqqqwwwwwwwwwwwo1eshgf8-wwww.X@:etdgp%wwwwwwwwwwwwwwwwwwwwwwwww",
"qqqqqqqqqwwwwwwwwwwww:tgghf0wwwwww.X-8yifg6wwwwwwwwwwwwwwwwwwwwwwwww",
"qqqqqqqqqwwwwwwwwwwww3e7ytd7wwwwwww.@3ey0u8wwwwwwwwwwwwwwwwwwwwwwwww",
"qqqqqqqqqwwwwwwwwwww@:$X.@18wwwwwwww.$o.Opawwwwwwwwwwwwwwwwwwwwwwwww",
"qqqqqqqqqwwwwwwwwwww...++..-wwwwwwwww..ottptwwwwwwwwwwwwwwwwwwwwwwww",
"qqqqqqqqqwwwwwwwwww<30tfr$.wwwwwwwwww.X.0854wwwwwwwwwwwwwwwwwwwwwwww",
"qqqqqqqqqwwwwwwwwwwr::$16r&wwwwwwwwww.@$-:3@wwwwwwwwwwwwwwwwwwwwwwww",
"qqqqqqqqqwwwwwwwwwwX@-$-11&wwwwwwwwwwX@@@$-,wwwwwwwwwwwwwwwwwwwwwwww",
"qqqqqqqqqwwwwwwwwwwX@@$-11$wwwwwwwwwwX@@@$::wwwwwwwwwwwwwwwwwwwwwwww",
"qqqqqqqqqwwwwwwwwwwX@@@-11+wwwwwwwwww.@@@$-:wwwwwwwwwwwwwwwwwwwwwwww",
"qqqqqqqqqwwwwwwwwwwX+@@-11owwwwwwwwww.@@@$--wwwwwwwwwwwwwwwwwwwwwwww",
"qqqqqqqqqwwwwwwwwwwoX@$::-wwwwwwwwwww.X@@$--wwwwwwwwwwwwwwwwwwwwwwww",
"qqqqqqqqqwwwwwwwwwwwX@$::-wwwwwwwwwww.X@@$-*wwwwwwwwwwwwwwwwwwwwwwww",
"qqqqqqqqqwwwwwwwwwww.@$1:$wwwwwwwwwwww.@@$-wwwwwwwwwwwwwwwwwwwwwwwww",
"qqqqqqqqqwwwwwwwwwww.@$1:$wwwwwwwwwwww.@@$-wwwwwwwwwwwwwwwwwwwwwwwww",
"qqqqqqqqqwwwwwwwwwww.$:3-wwwwwwwwwwwwwwX@-3wwwwwwwwwwwwwwwwwwwwwwwww",
"qqqqqqqqqwwwwwwwwwww.:35-wwwwwwwwwwwwwwX$:ewwwwwwwwwwwwwwwwwwwwwwwww",
"qqqqqqqqqwwwwwwwwwww-7ee%wwwwwwwwwwwwwwX$3yfwwwwwwwwwwwwwwwwwwwwwwww",
"qqqqqqqqqwwwwwwwwwww3egswwwwwwwwwwwwwwwX@:tdgwwwwwwwwwwwwwwwwwwwwwww",
"qqqqqqqqqwwwwwwwwwww$74:$wwwwwwwwwwwwwwX$:10sfgwwwwwwwwwwwwwwwwwwwww",
"qqqqqqqqqwwwwwwwwwww9dg07wwwwwwwwwwwwww  . X:59e8wwwwwwwwwwwwwwwwwww",
"qqqqqqqqqwwwwwwwwwwwudgs7%wwwwwwwwwwwwwwwww      wwwwwwwwwwwwwwwwwww",
"qqqqqqqqqwwwwwwwwww$epggd$wwwwwwwwwwwwwwwwwwwwwwwwwwwwwwwwwwwwwwwwww",
"qqqqqqqqqwwwwwwwwww .$471$wwwwwwwwwwwwwwwwwwwwwwwwwwwwwwwwwwwwwwwwww",
"qqqqqqqqqwwwwwwwwwwww   wwwwwwwwwwwwwwwwwwwwwwwwwwwwwwwwwwwwwwwwwwww"
};
