/* XPM */
static char *e8f097df5d914c70ffb788711b70678aHjwXr514KDTKFuHP[] = {
/* columns rows colors chars-per-pixel */
"68 68 39 1 ",
"  c #090B0B",
". c #0E0E13",
"X c #151515",
"o c #16181E",
"O c #181818",
"+ c #1E1E1E",
"@ c gray13",
"# c #272727",
"$ c #2A2A2A",
"% c #272A34",
"& c #313131",
"* c #343434",
"= c gray23",
"- c #3F3F3F",
"; c #000069",
": c #464646",
"> c #515151",
", c #555555",
"< c #5D5D5D",
"1 c gray38",
"2 c DimGray",
"3 c #717171",
"4 c #797979",
"5 c gray49",
"6 c none",
"7 c none",
"8 c #868686",
"9 c gray56",
"0 c #979797",
"q c gray61",
"w c #A5A5A5",
"e c #AEAEAE",
"r c #B7B7B7",
"t c #C1C1C1",
"y c #C5C5C5",
"u c gray81",
"i c gray85",
"p c #E2E2E2",
"a c #FBFBFB",
/* pixels */
"66666666666666666677777777777777777777777777777777777777777766666666",
"66666666666666666677777777777777777777777777777777777777777766666666",
"66666666666666666677777777777777777777777777777777777777777777777777",
"66666666666677667777777777777777777777777777777777777777777777777777",
"66666666666677777777777777777777777777777777777777777777777777777777",
"6666666666667777777777777777777:rpppu0777777777777777777777777777777",
"666666666666777777777777777777&epapaaaae7777777777777777777777777777",
"66666666666677777777777777777#=9ypppaaap3777777777777777777777777777",
"66666666666677777777777777777.&20euppaap3777777777777777777777777777",
"66666666666677777777777777777#.+&:i9qyeq:777777777777777777777777777",
"66666666677777777777777777777+X...+=#++X.777777777777777777777777777",
"6666666667777777777777777777&X+#+&<wq>#.+777777777777777777777777777",
"666666666777777777777777777>q,#>,<2303::&777777777777777777777777777",
"777777777777777777777777777+45&<3=#&#303y777777777777777777777777777",
"777777777777777777777779eeq+&002w93q9450w777777777777777777777777777",
"777777777777777777777=upppp2+2yq23&#5qeu7777777777777777777777777777",
"77777777777777777777+eypppp3.#>+.+. &&3q,777777777777777777777777777",
"77777777777777777777:qrpppp3.+++....#X&=9w77777777777777777777777777",
"777777777777777777774wepppp3&9&#...X+.#+:i77777777777777777777777777",
"777777777777777777772wepppp2&py4&##.. ..9y57777777777777777777777777",
"77777777777777777777,qeppy3#<upp9>:+   +r9<7777777777777777777777777",
"77777777777777777777,q45qe=.49uppe9.X  #=.#+777777777777777777777777",
"777777777777777777777#<wpp>&<:4ppi,     ..&X777777777777777777777777",
"777777777777777777777#wyye2,,39ee3   X+& :=7777777777777777777777777",
"777777777777777777777+0e128eurq953X ++++:u97777777777777777777777777",
"777777777777777777777X3eyiue0432>>:....X4ee7777777777777777777777777",
"777777777777777777777 :9q092<>::::&.   :9yq7777777777777777777777777",
"7777777777777777777777 =22,==&:>2:X.   +0rq7777777777777777777777777",
"77777777777777777777....&=&=#:,:=&+++.X=,23:777777777777777777777777",
"7777777777777777777.....#+++##++++++++XX#=:7777777777777777777777777",
"77777777777777777777...X+++######++++X77.++7777777777777777777777777",
"77777777777777777777 .XO.O+O&&3&2:#+O+777777777777777777777777777777",
"77777777777777777777.X8XOXOX$&:=<<O&X&777777777777777777777777777777",
"77777777777777777777.8q3=.OXO+OO$#O$O=777777777777777777777777777777",
"777777777777777777773q0=$#.O&###O-&++=777777777777777777777777777777",
"7777777777777777777389,*8>$.#**$#:=:++,77777777777777777777777777777",
"7777777777777777777;83-wu3,$.$##*=>,&+w77777777777777777777777777777",
"7777777777777777777;=-qup33<OX#$:::2>#277777777777777777777777777777",
"77777777777777777777=2qupt33=X$*=:=,4,*77777777777777777777777777777",
"66666666677777777777:9yiap03-XX#&==:43,o7777777777777777777777777777",
"66666666677777777777=9ruapuy- .X#==:>99>7777777777777777777777777777",
"66666666677777777777#4euaiuy77 .+&===qpyo777777777777777777777777777",
"66666666677777777777+2wuaiiw777.X+&=>wap>777777777777777777777777777",
"66666666677777777777X2wuaui07777.X+=5epaeo77777777777777777777777777",
"66666666677777777777.2aapuu<77777.X=9weap>77777777777777777777777777",
"666666666777777777772pwquur7777777.#>9wiaq77777777777777777777777777",
"66666666677777777777==#++#577777777.#<0euw77777777777777777777777777",
"66666666677777777777+#+X++&777777777.&<>...7777777777777777777777777",
"66666666677777777777;>50i9&&777777777X+.=rt7777777777777777777777777",
"666666666777777777779&=:>,9&777777777.X=,0r7777777777777777777777777",
"66666666677777777777#&=:,,=777777777.X++&=>7777777777777777777777777",
"6666666667777777777.+&=>,,=777777777.X+++&:7777777777777777777777777",
"6666666667777777777.+&=>,>=777777777.X+#+&:7777777777777777777777777",
"6666666667777777777.+&=>,>7777777777.X+#+&:7777777777777777777777777",
"6666666667777777777X+&:>>=77777777777.+++&:7777777777777777777777777",
"6666666667777777777XX$:,>&77777777777.X++&=7777777777777777777777777",
"6666666667777777777O.@:,>7777777777777.+#&=7777777777777777777777777",
"66666666677777777777.@><=7777777777777.+#==7777777777777777777777777",
"66666666677777777777X*,2%77777777777777X#=37777777777777777777777777",
"66666666677777777777#,44&77777777777777X#>q7777777777777777777777777",
"66666666677777777777*9rq&77777777777777.:4ep777777777777777777777777",
"6666666667777777777.>550&77777777777777.#&4up77777777777777777777777",
"6666666667777777777%=42:%77777777777777X==:9yip777777777777777777777",
"6666666667777777777&9ip9%77777777777777   .+>9ey97777777777777777777",
"6666666667777777777%eupy%777777777777777777   .. 7777777777777777777",
"6666666667777777777&9yppr7777777777777777777777777777777777777777777",
"6666666667777777777 .&23:7777777777777777777777777777777777777777777",
"666666666777777777777   77777777777777777777777777777777777777777777"
};
