/* XPM */
static char *result[] = {
/* columns rows colors chars-per-pixel */
"68 68 42 1 ",
"  c #090B0B",
". c #0E0E13",
"X c #151515",
"o c #131318",
"O c #181818",
"+ c #1E1E1E",
"@ c #1B1E24",
"# c gray13",
"$ c #272727",
"% c #21242E",
"& c #2A2A2A",
"* c #272A34",
"= c #313131",
"- c #343434",
"; c gray23",
": c #3F3F3F",
"> c #010051",
", c #464646",
"< c gray29",
"1 c #515151",
"2 c #555555",
"3 c #5D5D5D",
"4 c gray38",
"5 c DimGray",
"6 c #717171",
"7 c #797979",
"8 c gray49",
"9 c none",
"0 c none",
"q c #868686",
"w c gray56",
"e c #979797",
"r c gray61",
"t c #A5A5A5",
"y c #AEAEAE",
"u c #B7B7B7",
"i c #C1C1C1",
"p c #C5C5C5",
"a c gray81",
"s c gray85",
"d c #E2E2E2",
"f c #FBFBFB",
/* pixels */
"99999999999999999999999999999000000000000999999999999999999999999999",
"99999999999999999990000000000000000000000000000009999999999999999999",
"000000000000000009000000000000028ydd6;000000000009999999999999999999",
"00000000000000000900000000000$tsdddffde00000000000999999999999999999",
"00000000000000000900000000000;duffddfff70000000000999999999999999999",
"0000000000000000090000000000.$;<2577775;0000000000999999999999999999",
"0000000000000000090000000000.....=7$+XX=0000000000999999999999999999",
"0000000000000000090000000000.XX$,5d7<,,e0000000000999999999999999999",
"0000000000000000090000000000 +365=<ypur;0000000000999999999999999999",
"000000000000000009000000000,$+85=6a7wdtw7000000000999999999999999999",
"000000000000000009000000000=5,,r77uddyudd100000000999999999999999999",
"000000000000000009000000000.<yr67=$ysdds3000000000999999999999999999",
"0000000000000000090000000000.5.X+..$.+y50000000000999999999999999999",
"0000000000000000090000007i81=+#.$..$.;,5day8000000000000000000000000",
"0000000000000000090000,pfae1<3<#$&&$<85w1udfd70000000000000000000000",
"000000000000000000000=rfay62<555332355pd48affd7000000000000000000000",
"0000000000000000000005ffpr25rrrq858wraddw1pdffd000000000000000000000",
"00000000000000000000$7fdy6<8iddddddddfffd1wdddd500000000000000000000",
"00000000000000000000;wddw#-eadddddddffffd65sdfdr00000000000000000000",
"00000000000000000000<35,=.=yiiffsdffddddp6&;7fda00000000000000000000",
"0000000000000000000XX;ys8=X+,47wry3yuuuur2&8rt<600000000000000000000",
"00000000000000000000.+....XX;=+$..X+$rrr6=-8ddp<00000000000000000000",
"00000000000000000000.....  ..X..X+X+X+;e<-;5ddfw00000000000000000000",
"0000000000000000000 +.... . .....XX+X.XX;=-<sdfw00000000000000000000",
"00000000000000000000==++XX..... ....+<X.<<wuustw00000000000000000000",
"0000000000000000000X=$$.     .......dddfffffdddu00000000000000000000",
"0000000000000000000 ...+X++X.X++....raarrdduuur600000000000000000000",
"00000000000000000000...000.XXX;<....=rr6587653<$00000000000000000000",
"0000000000000000000000000+X++;53$....;,3$;<,+++000000000000000000000",
"0000000000000000000000000=+,+=<,$$+$=$+++++.000000000000000000000000",
"000000000000000000000000$+=:+=2,$$$==$++$$+X000000000000000000000000",
"000000000000000000000000+<5=3;&&$;,;=;$+;<,-000000000000000000000000",
"000000000000000000000000$<5-++.+$;<<,=++,87-000000000000000000000000",
"000000000000000000000000=,5=++++$=<<,OO+$uy,000000000000000000000000",
"000000000000000000000000==5=+,=+$=,,$+$;$ty0000000000000000000000000",
"000000000000000000000000 .+$:53$+=,,$$=<=;,0000000000000000000000000",
"000000000000000000000000 X$$,e5;+$=$$$;7;,50000000000000000000000000",
"000000000000000000000000 X$$,yq<=+XX$$3e2<50000000000000000000000000",
"0000000000000000000000000X+;5yt2,$.+$$6et760000000000000000000000000",
"0000000000000000000000000.+,6iy51=>+=;6qt750000000999999999999999999",
"0000000000000000090000000.+3eiy61=0+;,5qt6<0000000999999999999999999",
"0000000000000000090000000.+3yfte3=0+;,56r6<0000000999999999999999999",
"0000000000000000090000000.;qyfae3*0+;,2363=0000000999999999999999999",
"0000000000000000090000000$2wffae500X=;<25,$0000000999999999999999999",
"0000000000000000090000000&3rffar600X$;,22;+0000000999999999999999999",
"0000000000000000090000000&3yffae500X+=,<<&+0000000999999999999999999",
"0000000000000000090000000&isffpe400.$=;,,$O0000000999999999999999999",
"0000000000000000090000000.qyded,,00.$$,<,$X0000000999999999999999999",
"0000000000000000090000000<2;=2&#O00.+$<<,%o0000000999999999999999999",
"0000000000000000090000000.+.  .$X00 X2yiX.00000000999999999999999999",
"0000000000000000090000000..XX+$+X00X<wwwy.00000000999999999999999999",
"0000000000000000090000000...$===+00+;557w200000000999999999999999999",
"00000000000000000900000000..==$$@00+$;<68300000000999999999999999999",
"00000000000000000900000000..+$$$.00++;5yt200000000999999999999999999",
"000000000000000009000000000X+$$+.00+$;5tr%00000000999999999999999999",
"000000000000000009000000000.+$$+.00X$;5tw000000000999999999999999999",
"0000000000000000090000000000.+$+000X$;5t3000000000999999999999999999",
"0000000000000000090000000000X++=000.+;rw,000000000999999999999999999",
"000000000000000009000000000XX$;;000.$;rw$000000000999999999999999999",
"000000000000000009000000000X$;;+0000=<tw0000000000999999999999999999",
"000000000000000009000000000X=;,+0000=3y60000000000999999999999999999",
"00000000000000000900000000.$=;5$0000;7iw0000000000999999999999999999",
"00000000000000000900000000.;7ru000002tiu0000000000999999999999999999",
"00000000000000000900000000 ,ry600000,2up0000000000999999999999999999",
"000000000000000009000000000 .. 00000X7ds0000000000999999999999999999",
"000000000000000009000000000000000000+edda000000000999999999999999999",
"000000000000000009000000000000000000+rsdde00000000999999999999999999",
"000000000000000009000000000000000000 $373$00000000999999999999999999"
};
