/* XPM */
static char *result[] = {
/* columns rows colors chars-per-pixel */
"68 68 40 1 ",
"  c #090B0B",
". c #0E0E13",
"X c #151515",
"o c #131318",
"O c #16181E",
"+ c #181818",
"@ c #1E1E1E",
"# c #1B1E24",
"$ c gray13",
"% c #272727",
"& c #21242E",
"* c #2A2A2A",
"= c #313131",
"- c #343434",
"; c gray23",
": c #3F3F3F",
"> c #464646",
", c gray29",
"< c #515151",
"1 c #555555",
"2 c #5D5D5D",
"3 c gray38",
"4 c DimGray",
"5 c #717171",
"6 c #797979",
"7 c gray49",
"8 c none",
"9 c none",
"0 c gray56",
"q c #979797",
"w c gray61",
"e c #A5A5A5",
"r c #AEAEAE",
"t c #B7B7B7",
"y c #C1C1C1",
"u c #C5C5C5",
"i c gray81",
"p c gray85",
"a c #E2E2E2",
"s c #FBFBFB",
/* pixels */
"88888888888888888888888888888999999999999888888888888888888888888888",
"88888888888888888889999999999999999999999999999998888888888888888888",
"999999999999999998899999999999917rrw5;999999999998888888888888888888",
"9999999999999999988999999999990paasssaq99999999998888888888888888888",
"99999999999999999889999999999;arpsaassa59999999998888888888888888888",
"9999999999999999988999999999.%;,1566664;9999999998888888888888888888",
"9999999999999999988999999999o....;p=@XX=9999999998888888888888888888",
"9999999999999999988999999999.X%;26au,-,09999999998888888888888888888",
"999999999999999998899999999o @442;,rutw;o999999998888888888888888888",
"999999999999999998899999999%%@74;6i70ae06&99999998888888888888888888",
"999999999999999998899999999=4>>w67uaaruaa399999998888888888888888888",
"999999999999999998899999999.,rw56=%raaai1&99999998888888888888888888",
"9999999999999999988999999999.4>X%..%%@r4&999999998888888888888888888",
"9999999999999999988999996i02=@=;%..%;;>2ipy0999999999999999999999999",
"9999999999999999988999,iaat<,::@@@@@@=,0>tpaa59999999999999999999999",
"999999999999999999999;eaay5122241,,,24rr-0yaaa6999999999999999999999",
"9999999999999999999994raa0127q0066wwwrrt7-rpaaa999999999999999999999",
"99999999999999999999%6uaa7<5qtttiiiaaaiit=5paaa199999999999999999999",
"99999999999999999999>0uar*=7taaaaataaaaap5-uaaaq99999999999999999999",
"999999999999999999992157>%@5iaapatttaaaar4@;5aai99999999999999999999",
"9999999999999999999@X;6r09@X;,,12>,,40000<:0we4499999999999999999999",
"99999999999999999999@XX.....%;@@@...@5ww5=<0aau499999999999999999999",
"99999999999999999999>..O#11,;>=%%O@XXX%25*<0aaa099999999999999999999",
"99999999999999999999=X...%%%;;,1OXOXXX.X$==7taae99999999999999999999",
"99999999999999999999;;%@.X. X..  ....,=X$5qutpw099999999999999999999",
"9999999999999999999.%@@@.      .....1aapraaaaaai99999999999999999999",
"99999999999999999999....X.XX@@@%X ..@iiu4parrtq099999999999999999999",
"99999999999999999999...999X$XX;,% .  6wq256542,=99999999999999999999",
"99999999999999999999999999X$@;42%@ ..%>1=%,>@@9999999999999999999999",
"99999999999999999999999999+$@=,>%@%@=%@@@@@.999999999999999999999999",
"99999999999999999999999999%X@=1>%@%$%%@@@%@X999999999999999999999999",
"9999999999999999999999999>@@2;**%@=%%%%%;>==999999999999999999999999",
"999999999999999999999999X;2=$;*%%;;;-*% ;,,9999999999999999999999999",
"999999999999999999999999@;4@ .@%;:,,>;XX%0w9999999999999999999999999",
"999999999999999999999999%;>%@X.$->>>>==@=iu9999999999999999999999999",
"999999999999999999999999==>==%X.=>>>;=;%=ru9999999999999999999999999",
"999999999999999999999999.X%>>=+.$=>>=;>2%%,9999999999999999999999999",
"9999999999999999999999999#%>,>%X.$==%,ep,>59999999999999999999999999",
"9999999999999999999999999@@:,,=@XX%@%7ias059999999999999999999999999",
"9999999999999999999999999@@:,,;%@XX@=7assu59999998888888888888888888",
"9999999999999999988999999@@-1,>;%@9@,0pssr49999998888888888888888888",
"9999999999999999988999999X@=1<>;%@9=40asuw49999998888888888888888888",
"9999999999999999988999999X@%<<>=%@9;47usrq>9999998888888888888888888",
"9999999999999999988999999X@%<1;%%@9%17tiw6>9999998888888888888888888",
"9999999999999999988999999X@@:1;%%@9@,7tsw4>9999998888888888888888888",
"9999999999999999988999999.@@-<=%@@9X,7rpq499999998888888888888888888",
"99999999999999999889999999X@=1=%@99.,7tr0499999998888888888888888888",
"99999999999999999889999999X%=,==@99.%o.;<>99999998888888888888888888",
"99999999999999999889999999X@=,==@99..,ryXo99999998888888888888888888",
"99999999999999999889999999..X@@X999.;%%-r@99999998888888888888888888",
"9999999999999999988999999.o@$$+@999XX@@@+@99999998888888888888888888",
"9999999999999999988999999.o$Xo+$999.XX+$%@99999998888888888888888888",
"9999999999999999988999999.X@@$%$999.X@$%%@99999998888888888888888888",
"9999999999999999988999999.X@@$%$999.X@$%@X99999998888888888888888888",
"9999999999999999988999999.X@@%%$9999X@@$@999999998888888888888888888",
"99999999999999999889999999XX@%%@9999.@@@@999999998888888888888888888",
"99999999999999999889999999.X@%$X9999.@%=X999999998888888888888888888",
"99999999999999999889999999.X@$$99999@%=>9999999998888888888888888888",
"999999999999999998899999999X@@@99999.@;29999999998888888888888888888",
"999999999999999998899999999X@@@99999 @;50999999998888888888888888888",
"999999999999999998899999999X@;=999999%;wp999999998888888888888888888",
"999999999999999998899999999@1w2999999=1ia799999998888888888888888888",
"99999999999999999889999999 4w0>99999.%0ai199999998888888888888888888",
"999999999999999998899999999rpq;99999 X0e6.99999998888888888888888888",
"999999999999999998899999990iar=999999 .. 999999998888888888888888888",
"9999999999999999988999999;rpai;9999999999999999998888888888888888888",
"9999999999999999988999999@0upe99999999999999999998888888888888888888",
"9999999999999999988999999 .%=X99999999999999999998888888888888888888"
};
