/* XPM */
static char *result[] = {
/* columns rows colors chars-per-pixel */
"68 68 44 1 ",
"  c #090B0B",
". c #0E0E13",
"X c #151515",
"o c #131318",
"O c #16181E",
"+ c #181818",
"@ c #1E1E1E",
"# c #1B1E24",
"$ c gray13",
"% c #272727",
"& c #21242E",
"* c #2A2A2A",
"= c #272A34",
"- c #2B313B",
"; c #313131",
": c #343434",
"> c gray23",
", c #3F3F3F",
"< c #000051",
"1 c #464646",
"2 c gray29",
"3 c #515151",
"4 c #555555",
"5 c #5D5D5D",
"6 c gray38",
"7 c DimGray",
"8 c #717171",
"9 c #797979",
"0 c gray49",
"q c none",
"w c none",
"e c #868686",
"r c gray56",
"t c #979797",
"y c gray61",
"u c #A5A5A5",
"i c #AEAEAE",
"p c #B7B7B7",
"a c #C1C1C1",
"s c #C5C5C5",
"d c gray81",
"f c gray85",
"g c #E2E2E2",
"h c #FBFBFB",
/* pixels */
"wwwwwwwwwwwwwwwwwqqqqqqqqwwwwwwqqqqqqqqqqqqqqqqqqqqqqqqqqqqqqqqqqqqq",
"qqqqqqqqqqqqqqqqqqqqqqqqqqqqqq>tsdddi6qqqqqqqqqqqqqqqqqqqqqqqqqqqqqq",
"qqqqqqqqqqqqqqqqqqqqqqqqqqqqq>ufdfhhfddqqqqqqqqqqqqqqqqqqqqqqqqqqqqq",
"wwwwwwwwwwwwwwwwwqqqqqqqqqqqq2hiddfhhfd6qqqqqqqqqqqqqqqqqqqqqqqqqqqq",
"wwwwwwwwwwwwwwwwwqqqqqqqqqqqoX%1>266911%qqqqqqqqqqqqqqqqqqqqqqqqqqqq",
"wwwwwwwwwwwwwwwwwqqqqqqqqqqq.....>0%.@@5qqqqqqqqqqqqqqqqqqqqqqqqqqqq",
"wwwwwwwwwwwwwwwwwqqqqqqqqqqq.@>%>5gt533rqqqqqqqqqqqqqqqqqqqqqqqqqqqq",
"wwwwwwwwwwwwwwwwwqqqqqqqqqqq %6574>ygpy2qqqqqqqqqqqqqqqqqqqqqqqqqqqq",
"wwwwwwwwwwwwwwwwwqqqqqqqqqqX>@641ygrriri6qqqqqqqqqqqqqqqqqqqqqqqqqqq",
"wwwwwwwwwwwwwwwwwqqqqqqqqqq;944y86uggghht3qqqqqqqqqqqqqqqqqqqqqqqqqq",
"wwwwwwwwwwwwwwwwwqqqqqqqqqq&;p025@;yihgi0qqqqqqqqqqqqqqqqqqqqqqqqqqq",
"wwwwwwwwwwwwwwwwwqqqqqqqqqqXX4>.@ @;@@r0>qqqqqqqqqqqqqqqqqqqqqqqqqqq",
"wwwwwwwwwwwwwwwwwqqqqqq;tf43;@%;@..%;;11tggd6qqqqqqqqqqqqqqqqqqqqqqq",
"wwwwwwwwwwwwwwwwwqqqqq2shdy2>2$%**%2072p4eghhpqqqqqqqqqqqqqqqqqqqqqq",
"wwwwwwwwwwwwwwwwwqqqq>yhhp02577554577sape5pfhhiqqwwwwwwwwwwwwwwwwwww",
"wwwwwwwwwwwwwwwwwqqqq6ihfr35iye070rydghfp1yaghgqqwwwwwwwwwwwwwwwwwww",
"wwwwwwwwwwwwwwwwwqqq%9pfg828spagggggghhhp19adfh9qwwwwwwwwwwwwwwwwwww",
"wwwwwwwwwwwwwwwwwqqq;rpuy2:rsdgggggggghhp15pppguqwwwwwwwwwwwwwwwwwww",
"wwwwwwwwwwwwwwwwwqqq12661,%ppggggufgggghr3.;1rppqwwwwwwwwwwwwwwwwwww",
"wwwwwwwwwwwwwwwwwqqXX6gi8@@;11248886iiair>Orpg61qwwwwwwwwwwwwwwwwwww",
"wwwwwwwwwwwwwwwwwqq.@1622@@;>%>@.@@.ryyy3%%9pgs2qwwwwwwwwwwwwwwwwwww",
"wwwwwwwwwwwwwwwwwq .@.......@..X@X@X%>651O>9pad9qwwwwwwwwwwwwwwwwwww",
"wwwwwwwwwwwwwwwwwqq .....      .XXX@.XX@*%*27tiiqwwwwwwwwwwwwwwwwwww",
"wwwwwwwwwwwwwwwwwq.X@X.... ... ..X..;..X33yffy75qwwwwwwwwwwwwwwwwwww",
"wwwwwwwwwwwwwwwwwqqX@@..  ...X  ...tggudggggggg6qwwwwwwwwwwwwwwwwwww",
"wwwwwwwwwwwwwwwwwqq.....X   .@%. ..8gfd>ggsssyr4qwwwwwwwwwwwwwwwwwww",
"wwwwwwwwwwwwwwwwwqqq...qq.X@XX>..  @yuy;0096522qqwwwwwwwwwwwwwwwwwww",
"wwwwwwwwwwwwwwwwwqqqqqqq.;X;XX>2.   >26>22>@qqqqqwwwwwwwwwwwwwwwwwww",
"wwwwwwwwwwwwwwwwwqqqqqqq .@1@>75%X@%;%%@@@@qqqqqqwwwwwwwwwwwwwwwwwww",
"wwwwwwwwwwwwwwwwwqqqqqqq>@;@@;21%%%;;%@@%%@1qqqqqwwwwwwwwwwwwwwwwwww",
"wwwwwwwwwwwwwwwwwqqqqqqq;>6%@;41%%%;11>@>111qqqqqwwwwwwwwwwwwwwwwwww",
"wwwwwwwwwwwwwwwwwqqqqqqq@29%5>**%;>;>1X >211qqqqqwwwwwwwwwwwwwwwwwww",
"wwwwwwwwwwwwwwwwwqqqqqqq%2>%@X.@;>221%  10rqqqqqqwwwwwwwwwwwwwwwwwww",
"wwwwwwwwwwwwwwwwwqqqqqqq>2>%1@@@%;11>.  %iiqqqqqqwwwwwwwwwwwwwwwwwww",
"wwwwwwwwwwwwwwwwwqqqqqqq;;>%11>X%;11%%%1;itqqqqqqwwwwwwwwwwwwwwwwwww",
"wwwwwwwwwwwwwwwwwqqqqqqq .@%144%@;>>%%;2%;4qqqqqqwwwwwwwwwwwwwwwwwww",
"wwwwwwwwwwwwwwwwwqqqqqqq X@@>45>@@;@%%>9>15qqqqqqwwwwwwwwwwwwwwwwwww",
"wwwwwwwwwwwwwwwwwqqqqqqq X@%>251%@.@%%5r246qqqqqqwwwwwwwwwwwwwwwwwww",
"wwwwwwwwwwwwwwwwwqqqqqqqqX@%>221:%.@%;8r806qqqqqqwwwwwwwwwwwwwwwwwww",
"wwwwwwwwwwwwwwwwwqqqqqqqq.@;39311&.@%>69095qqqqqqwwwwwwwwwwwwwwwwwww",
"wwwwwwwwwwwwwwwwwqqqqqqqq.@>69811&q@%>58861qqqqqqqqqqqqqqqqqqqqqqqqq",
"wwwwwwwwwwwwwwwwwqqqqqqqq.*>9u051&q@;>26641qqqqqqqqqqqqqqqqqqqqqqqqq",
"wwwwwwwwwwwwwwwwwqqqqqqqq *4est9:&qX;;1551=qqqqqqqqqqqqqqqqqqqqqqqqq",
"wwwwwwwwwwwwwwwwwqqqqqqqqX;8rfu9:&qX%;1221%qqqqqqqqqqqqqqqqqqqqqqqqq",
"wwwwwwwwwwwwwwwwwqqqqqqqq.,8thur:#q.@;>12;%qqqqqqqqqqqqqqqqqqqqqqqqq",
"wwwwwwwwwwwwwwwwwqqqqqqqq.,9uhuu&#q.@;>11;%qqqqqqqqqqqqqqqqqqqqqqqqq",
"wwwwwwwwwwwwwwwwwqqqqqqqq.3targ0&qq.@%>21;%qqqqqqqqqqqqqqqqqqqqqqqqq",
"wwwwwwwwwwwwwwwwwqqqqqqqq@8989se&qq.@;2XX%oqqqqqqqqqqqqqqqqqqqqqqqqq",
"wwwwwwwwwwwwwwwwwqqqqqqqqX.X4+oXXqq..X%35X<qqqqqqqqqqqqqqqqqqqqqqqqq",
"wwwwwwwwwwwwwwwwwqqqqqqqqq%>03%oXqq.X@3;;,qqqqqqqqqqqqqqqqqqqqqqqqqq",
"wwwwwwwwwwwwwwwwwqqqqqqqqq.,t0053qq.X@@;@@qqqqqqqqqqqqqqqqqqqqqqqqqq",
"wwwwwwwwwwwwwwwwwqqqqqqqqq>8tt094qq..X@@@Xqqqqqqqqqqqqqqqqqqqqqqqqqq",
"wwwwwwwwwwwwwwwwwqqqqqqqqq>ttyut9qqq.XX@Xoqqqqqqqqqqqqqqqqqqqqqqqqqq",
"wwwwwwwwwwwwwwwwwqqqqqqqqq>etyut9qqq.XX%Xoqqqqqqqqqqqqqqqqqqqqqqqqqq",
"wwwwwwwwwwwwwwwwwqqqqqqqqq%8tyie7qqq.X@%%qqqqqqqqqqqqqqqqqqqqqqqqqqq",
"wwwwwwwwwwwwwwwwwqqqqqqqqq%3tti04qqqXX%%%qqqqqqqqqqqqqqqqqqqqqqqqqqq",
"wwwwwwwwwwwwwwwwwqqqqqqqqq%*ttu03qqq.@;,%qqqqqqqqqqqqqqqqqqqqqqqqqqq",
"wwwwwwwwwwwwwwwwwqqqqqqqqqq%eti9,qqq.%>5>#qqqqqqqqqqqqqqqqqqqqqqqqqq",
"wwwwwwwwwwwwwwwwwqqqqqqqqqq%9ti8:qqqq%>e5;qqqqqqqqqqqqqqqqqqqqqqqqqq",
"wwwwwwwwwwwwwwwwwqqqqqqqqqq%5tp7-qqqq;1pp>qqqqqqqqqqqqqqqqqqqqqqqqqq",
"wwwwwwwwwwwwwwwwwqqqqqqqqqq%5ts5=qqq.;9gd1qqqqqqqqqqqqqqqqqqqqqqqqqq",
"wwwwwwwwwwwwwwwwwqqqqqqqqqq.9gg7qqqq @0p0.qqqqqqqqqqqqqqqqqqqqqqqqqq",
"wwwwwwwwwwwwwwwwwqqqqqqqqqq%00upqqqqq XX.qqqqqqqqqqqqqqqqqqqqqqqqqqq",
"wwwwwwwwwwwwwwwwwqqqqqqqqqq.9t6;qqqqqqqqqqqqqqqqqqqqqqqqqqqqqqqqqqqq",
"wwwwwwwwwwwwwwwwwqqqqqqqqqq1sgi6qqqqqqqqqqqqqqqqqqqqqqqqqqqqqqqqqqqq",
"wwwwwwwwwwwwwwwwwqqqqqqqqqqufgu4qqqqqqqqqqqqqqqqqqqqqqqqqqqqqqqqqqqq",
"wwwwwwwwwwwwwwwwwqqqqqqqqq8sggs;qqqqqqqqqqqqqqqqqqqqqqqqqqqqqqqqqqqq",
"wwwwwwwwwwwwwwwwwqqqqqqqqq;tsdyqqqqqqqqqqqqqqqqqqqqqqqqqqqqqqqqqqqqq"
};
