/* XPM */
static char *_4eaa7c1c410448aa27dfbadade6f8b5p0RVjH38Hl2pB00I[] = {
/* columns rows colors chars-per-pixel */
"68 68 40 1 ",
"  c gray2",
". c #090B0B",
"X c #0E0E13",
"o c #151515",
"O c #131318",
"+ c #181818",
"@ c #1E1E1E",
"# c gray13",
"$ c #272727",
"% c #2A2A2A",
"& c #313131",
"* c #343434",
"= c gray23",
"- c #3F3F3F",
"; c #464646",
": c gray29",
"> c #515151",
", c #555555",
"< c #5D5D5D",
"1 c #515871",
"2 c gray38",
"3 c DimGray",
"4 c #717171",
"5 c #797979",
"6 c gray49",
"7 c none",
"8 c none",
"9 c #868686",
"0 c gray56",
"q c #979797",
"w c gray61",
"e c #A5A5A5",
"r c #AEAEAE",
"t c #B7B7B7",
"y c #C1C1C1",
"u c #C5C5C5",
"i c gray81",
"p c gray85",
"a c #E2E2E2",
"s c #FBFBFB",
/* pixels */
"77777777777777777788888888888888888888888888888888888888888877777777",
"77777777777777777788888888888888888888888888888888888888888877777777",
"77777777777777777788888888888888888888888888888888888888888888888888",
"7777777777777777778888888888882rraur0;888888888888888888888888888888",
"77777777777777777788888888888tasssaaai0#8888888888888888888888888888",
"77777777777777777788888888884iwssaasst0;8888888888888888888888888888",
"7777777777777777778888888888qe=;2;===&$#.888888888888888888888888888",
"7777777777777777778888888888euewu$#oo<5X.888888888888888888888888888",
"7777777777777777778888888888weaw4w,:4et#.888888888888888888888888888",
"7777777777777777778888888882iwqw2qq0tt:oX888888888888888888888888888",
"777777777777777777888888888aaaaaw0te2<e2$888888888888888888888888888",
"77777777777777777788888888:wwuaaaaaiiit,oO88888888888888888888888888",
"7777777777777777778888888888&$=4uaapqw$X$O88888888888888888888888888",
"88888888888877888888888888;=####$40$Xo.XX#88888888888888888888888888",
"88888888888888888888882ssaa>>5;###=#oXo#X888888888888888888888888888",
"888888888888888888888tssssu4:pa093###&@XX#88888888888888888888888888",
"88888888888888888888<assaar6:raay04>-;>o@%+8888888888888888888888888",
"88888888888888888888waaaaaw3:wriae044>4$+>%8888888888888888888888888",
"88888888888888888888wpssapw3=5ryyeee06q,$@%+888888888888888888888888",
"888888888888888888885issaiw5*0rrrtttrre0&#=*888888888888888888888888",
"888888888888888888882iaau2&#$5eqwwqq6246-#$&X88888888888888888888888",
"88888888888888888888:q220qwo-3req:==&=,&oXXoX88888888888888888888888",
"88888888888888888888882aaar$,<9e4:;;=;$#####$88888888888888888888888",
"8888888888888888888888qsaat-:>454,:==&#XXXXo#o#X8XXXXXXXo+ 888888888",
"8888888888888888888888waaau=;:;,4<=$$##$$####o#o#oX.....Xo 888888888",
"88888888888888888888880222pssstr0:oXXXXX####oXX.XXX.XXXXX  888888888",
"8888888888888888888888oX0aaassssaauwo&qaq=XXXX$...X..XXXX88888888888",
"88888888888888888888888X5wpuaaaaaaaaXippa0XXXo#X...X.888888888888888",
"8888888888888888888888;=:<<250qttti,Xerrt&..XXXoo#X88888888888888888",
"88888888888888888888880<&=:;=::&;2<=#<24&..8888888888888888888888888",
"888888888888888888888888&;&#$@@@@@@###2&oX88888888888888888888888888",
"888888888888888888888888;;::=;;=$#&&#o,&$#88888888888888888888888888",
"888888888888888888888888,:$oX;,:$####o=$$888888888888888888888888888",
"888888888888888888888888w4X..4w0&o$##oXX#X88888888888888888888888888",
"88888888888888888888888,w0X.#taa0X#$##X.#X88888888888888888888888888",
"88888888888888888888888;6&X2ipaaqX##$#.X#X88888888888888888888888888",
"888888888888888888888888#X;aaaaa0XX##X.X#888888888888888888888888888",
"888888888888888888888888.;0pat&##2###XooX888888888888888888888888888",
"8888888888888888888888888;5rpa02=<<XXX##8888888888888888888888888888",
"7777777777777777778888888.;qtpaayew#XXoX8888888888888888888888888888",
"77777777777777777788888888&2wupasie:XXX88888888888888888888888888888",
"77777777777777777788888888#;6eupaap6XXX88888888888888888888888888888",
"777777777777777777888888888$,0eupsp0&X888888888888888888888888888888",
"7777777777777777778888888888=2qtissy:.888888888888888888888888888888",
"7777777777777777778888888888&;5wupsp48888888888888888888888888888888",
"7777777777777777778888888888;&,0riaa08888888888888888888888888888888",
"777777777777777777888888888;;==5wuuau=888888888888888888888888888888",
"77777777777777777788888888X;;;&:46rti;888888888888888888888888888888",
"77777777777777777788888888$=;:=....,0r188888888888888888888888888888",
"7777777777777777778888888a0&#$#$==>695>88888888888888888888888888888",
"777777777777777777888888rue:=$$;5eyr5<o88888888888888888888888888888",
"777777777777777777888888ww6;&$#8uuuq2&X88888888888888888888888888888",
"77777777777777777788888804:&$$X4tty02=888888888888888888888888888888",
"77777777777777777788888<04&$$X82wrr00;888888888888888888888888888888",
"7777777777777777778888844:&$X88;0wr00;888888888888888888888888888888",
"777777777777777777888884,=$$X88;0wr02$888888888888888888888888888888",
"777777777777777777888884;$$X888850w5,#888888888888888888888888888888",
"7777777777777777778888w4=$X8888826w5,#888888888888888888888888888888",
"777777777777777777888rr5=#888888=505<#888888888888888888888888888888",
"777777777777777777882wu0:X88888884002X888888888888888888888888888888",
"777777777777777777880,:25888888885qq4o888888888888888888888888888888",
"77777777777777777788,420ut88888882wr0$888888888888888888888888888888",
"7777777777777777778.XX&5usiw888885upu<888888888888888888888888888888",
"77777777777777777788888X<rsir8888qiasp888888888888888888888888888888",
"777777777777777777888888.o$=&X888$0rass88888888888888888888888888888",
"777777777777777777888888888888888840wiiut6:#888888888888888888888888",
"7777777777777777778888888888888888:;==&#....888888888888888888888888",
"7777777777777777778888888888888888X....88888888888888888888888888888"
};
