/* XPM */
static char *result[] = {
/* columns rows colors chars-per-pixel */
"68 68 39 1 ",
"  c #090B0B",
". c #0E0E13",
"X c #151515",
"o c #131318",
"O c #16181E",
"+ c #181818",
"@ c #1E1E1E",
"# c gray13",
"$ c #272727",
"% c #2A2A2A",
"& c #313131",
"* c #343434",
"= c gray23",
"- c #3F3F3F",
"; c #464646",
": c gray29",
"> c #515151",
", c #555555",
"< c #5D5D5D",
"1 c gray38",
"2 c DimGray",
"3 c #717171",
"4 c #797979",
"5 c gray49",
"6 c none",
"7 c none",
"8 c #868686",
"9 c gray56",
"0 c #979797",
"q c gray61",
"w c #A5A5A5",
"e c #AEAEAE",
"r c #B7B7B7",
"t c #C1C1C1",
"y c #C5C5C5",
"u c gray81",
"i c gray85",
"p c #E2E2E2",
"a c #FBFBFB",
/* pixels */
"66666666666666666677777777777777777777777777777777777777777776666666",
"666666666666666666777777777777735e93<7777777777777777777777776666666",
"666666666666666666777777777779paaapppu477777777777777777777777777777",
"66666666666666666677777777777iyaappaay0;7777777777777777777777777777",
"66666666666666666677777777774r;20432<,;$.777777777777777777777777777",
"6666666666666666667777777777ei23q@@@.;:..777777777777777777777777777",
"6666666666666666667777777777wype59=;,qr$ 777777777777777777777777777",
"6666666666666666667777777777y99q29r9qu4@.777777777777777777777777777",
"666666666666666666777777777upppu00yu4;4:+777777777777777777777777777",
"66666666666666666677777777,yyppppirpruy4@o77777777777777777777777777",
"666666666666666666777777777&;=39ipppre:.$#77777777777777777777777777",
"666666666666666666777777777:#X .=9y:.&...$77777777777777777777777777",
"666666666666666666777770ppp>29:@.X$@X..X.777777777777777777777777777",
"777777777777777777777<aaapp0%q99<:*#X&@o.777777777777777777777777777",
"777777777777777777777paaapu3@4ppr92-*:2##.77777777777777777777777777",
"777777777777777777774paappe3.;rupw92:;2%$$.7777777777777777777777777",
"777777777777777777774ippppw3X=ettwq9950;#:#7777777777777777777777777",
"77777777777777777777<uaappw2$*ruweeew002&=,.777777777777777777777777",
"77777777777777777777;yappw:@#$y00q0qq295$@;X777777777777777777777777",
"777777777777777777777yw4<5w$X-2ew2&==&::=##.777777777777777777777777",
"7777777777777777777777:wppy<$,<8w:==&&=@@@@@77777777777777 777777777",
"77777777777777777777775yppy3-=-34:;=&&@.....XX@X77.......@@777777777",
"77777777777777777777774uppy5=;=:42=&@$@@$@@X@.XXXX     ... 777777777",
"77777777777777777777772q935rryyr94$XX...X@XXX.. ...   ......77777777",
"77777777777777777777777.Xppppppppprw,.:yu3@.. $@    7...777777777777",
"77777777777777777777777 &yyppppppppp,&uiip$.@@$.   ..777777777777777",
"7777777777777777777777&=@,2490qq9wuu$&wwe9  .X..X@X77777777777777777",
"7777777777777777777777y,;<=::==43;;:&&,3<@  777777777777777777777777",
"77777777777777777777777$&;=$@$&$@&;=@@:;@.77777777777777777777777777",
"777777777777777777777777&;:=$&&$@@@@@@:;$$77777777777777777777777777",
"7777777777777777777777773:&$@;:;$$@@@X@X&&77777777777777777777777777",
"777777777777777777777777w9X  244$@$@@@..@@77777777777777777777777777",
"77777777777777777777777,qq.. rpp:.$$@X. @@77777777777777777777777777",
"77777777777777777777777:9=..@rpp: @@$@. @@77777777777777777777777777",
"77777777777777777777777@&..4pppp5.@@@..X@&77777777777777777777777777",
"777777777777777777777777  2ipq::&@@@@.X@.777777777777777777777777777",
"777777777777777777777777 .qyiw=$$&.@XX@@.777777777777777777777777777",
"7777777777777777777777777@5eyu93::@.X@@@7777777777777777777777777777",
"7777777777777777777777777@2qruyaw5&..@@.7777777777777777777777777777",
"66666666666666666677777777:9wyypt9=..X@.7777777777777777777777777777",
"66666666666666666677777777=30trai0;..X@77777777777777777777777777777",
"66666666666666666677777777$<5rraa0:....77777777777777777777777777777",
"666666666666666666777777777;3qtaaw<....77777777777777777777777777777",
"666666666666666666777777777$29tpaw,X..777777777777777777777777777777",
"6666666666666666667777777777:5eryy2@..777777777777777777777777777777",
"6666666666666666667777777777&39trpi@.7777777777777777777777777777777",
"6666666666666666667777777777729qwy3@ 7777777777777777777777777777777",
"666666666666666666777777777;:O#,4>=@.7777777777777777777777777777777",
"666666666666666666777777770,:;..O<wp@7777777777777777777777777777777",
"66666666666666666677777779w9:&O20uww37777777777777777777777777777777",
"666666666666666666777777995<=<aai9ww37777777777777777777777777777777",
"66666666666666666677777704:&$>45850977777777777777777777777777777777",
"66666666666666666677777e9:&@@2wrrq8:77777777777777777777777777777777",
"66666666666666666677777e9:&@@2wyyqq>77777777777777777777777777777777",
"6666666666666666667777pe2&$@ =0erqq177777777777777777777777777777777",
"666666666666666666777qu0;$X7773qeq9177777777777777777777777777777777",
"666666666666666666775:23;@7777:9qq9177777777777777777777777777777777",
"6666666666666666667@;<:&&.7777@20q9377777777777777777777777777777777",
"66666666666666666677.&59q:77777;9q0377777777777777777777777777777777",
"6666666666666666667777=wyq=777774ww977777777777777777777777777777777",
"6666666666666666667777.9yyq777773wrq$7777777777777777777777777777777",
"66666666666666666677777@2qw47777<rpu37777777777777777777777777777777",
"666666666666666666777777 @&@7777,yppq7777777777777777777777777777777",
"6666666666666666667777777777777779ypr7777777777777777777777777777777",
"6666666666666666667777777777777775epaa777777777777777777777777777777",
"66666666666666666677777777777777$15yppai7777777777777777777777777777",
"66666666666666666677777777777777 .@>9errq;77777777777777777777777777",
"66666666666666666677777777777777777  .... 77777777777777777777777777"
};
