/* XPM */
static char *result[] = {
/* columns rows colors chars-per-pixel */
"68 68 39 1 ",
"  c #090B0B",
". c #0E0E13",
"X c #151515",
"o c #131318",
"O c #181818",
"+ c #1E1E1E",
"@ c #1B1E24",
"# c gray13",
"$ c #272727",
"% c #2A2A2A",
"& c #313131",
"* c #343434",
"= c gray23",
"- c #3F3F3F",
"; c #464646",
": c gray29",
"> c #515151",
", c #555555",
"< c #5D5D5D",
"1 c gray38",
"2 c DimGray",
"3 c #717171",
"4 c #797979",
"5 c gray49",
"6 c none",
"7 c none",
"8 c #868686",
"9 c gray56",
"0 c #979797",
"q c gray61",
"w c #A5A5A5",
"e c #AEAEAE",
"r c #B7B7B7",
"t c #C1C1C1",
"y c #C5C5C5",
"u c gray81",
"i c gray85",
"p c #E2E2E2",
"a c #FBFBFB",
/* pixels */
"66666666666666666666666666677777777777766666666666666666666666666666",
"666666666666666666677777777777715e93<7777777777777777777777777766666",
"666666666666666666677777777775pppppppu9X7777777777777777777777777777",
"66666666666666666677777777777iuypppaay0;7777777777777777777777777777",
"66666666666666666677777777774r<;w431<,;&#777777777777777777777777777",
"6666666666666666667777777777eu53q&++.&>. 777777777777777777777777777",
"6666666666666666667777777777qrpi4w=;=0r; 777777777777777777777777777",
"6666666666666666667777777777y05w14r99y0&#777777777777777777777777777",
"666666666666666666777777777yppppw9ruq,<3#777777777777777777777777777",
"66666666666666666677777777>rrupppiwieuy0=@77777777777777777777777777",
"666666666666666666777777777&;=>9rppprw4.+O77777777777777777777777777",
"666666666666666666777777777>&$ .$5rq.$... 77777777777777777777777777",
"666666666666666666777773uppq;35$..+$.X.X.777777777777777777777777777",
"7777777777777777777777paaapp;&qu9&+XX.XX.777777777777777777777777777",
"777777777777777777777ypaaapw=.ept82-#X&+..77777777777777777777777777",
"777777777777777777777ipaapi0=.4tpwe3>-;<X&77777777777777777777777777",
"777777777777777777777rppppu0;.,tupww33>3,:.7777777777777777777777777",
"777777777777777777777waappuq<.*rttwwwq50,%+7777777777777777777777777",
"7777777777777777777770aappw>.#$tq009q5<9;%= 777777777777777777777777",
"7777777777777777777773uw4>1q$X-2ew<&=&&;+OX+.77777777777777777777777",
"7777777777777777777777+>wupr=$,<8w=+$+&$...X.7.X.7........+.77777777",
"777777777777777777777775ippe3-:>34=&$++XXX+XX+..+X....   .. 77777777",
"777777777777777777777779uppr9=;=:,,&$++++++XX+......  .  ... 7777777",
"77777777777777777777777qr019eyuie05...X.+1$....$. .  7....7777777777",
"77777777777777777777777;..rppppppppppp.4ppp9.++X      77777777777777",
"777777777777777777777777 .eueuppuipppp.qrrr,  &...X.. 77777777777777",
"7777777777777777777777==$.;1334599999, 4995. ...77777777777777777777",
"7777777777777777777777u9==1=$=>>>>,>>+.+$$.  77777777777777777777777",
"77777777777777777777777=$;>=$$&$+++&$+$=+$77777777777777777777777777",
"777777777777777777777777&;>>&$&$+++++X++$+77777777777777777777777777",
"777777777777777777777777e0=$+;>;&+$$+X++$;77777777777777777777777777",
"777777777777777777777777wr+  <53=X$+++X +;77777777777777777777777777",
"77777777777777777777777>qq.. 0uu;X$$+XX.7>$7777777777777777777777777",
"77777777777777777777777>9,...ruu=X++$+.X7&X7777777777777777777777777",
"77777777777777777777777+&....uuu+.O+O.X+.++7777777777777777777777777",
"777777777777777777777777  .;9,;>+.OO..X+.777777777777777777777777777",
"7777777777777777777777777&0ey3&$+.O.oX+++777777777777777777777777777",
"77777777777777777777777779qqt9>=$.oo+++&&777777777777777777777777777",
"777777777777777777777777>9qwr93>&.X$$++&&.77777777777777777777777777",
"666666666666666666777777>990w411&.X$$$$=&.77777777777777777777777777",
"666666666666666666777777>59993<,+.+$&&&=&X77777777777777777777777777",
"666666666666666666777777;59q51,>..+$&1;==X77777777777777777777777777",
"666666666666666666777777;58eq<>=.7+&4yw91X77777777777777777777777777",
"666666666666666666777777;59r0,>=77+;0yyw0$77777777777777777777777777",
"666666666666666666777777&8wr9>;=77.=0yyq0$77777777777777777777777777",
"666666666666666666777777&9rr<;=.777=0rurw>77777777777777777777777777",
"666666666666666666777777&394>==.777=qipppq=7777777777777777777777777",
"6666666666666666667777777>32>>+77X+5ee>. ..7777777777777777777777777",
"6666666666666666667777777..<wp+77+=0,$+.. 77777777777777777777777777",
"666666666666666666777777..<uww37X+;1;$$+.777777777777777777777777777",
"6666666666666666667777775yi9ww37++&=$++ 7777777777777777777777777777",
"666666666666666666777773yr8509.X+$$$+X777777777777777777777777777777",
"666666666666666666777770wq9q8:7X++++.7777777777777777777777777777777",
"666666666666666666777775094,;..++$+.77777777777777777777777777777777",
"666666666666666666777775094,;..++$+.77777777777777777777777777777777",
"666666666666666666777771951>=..+++ 777777777777777777777777777777777",
"66666666666666666677777;441,&.X$+77777777777777777777777777777777777",
"66666666666666666677777&33<;..X+.77777777777777777777777777777777777",
"66666666666666666677777713<;...+.77777777777777777777777777777777777",
"666666666666666666777777441=..X+X.7777777777777777777777777777777777",
"666666666666666666777777904>  .+$<1777777777777777777777777777777777",
"666666666666666666777777erq1777.<eye<7777777777777777777777777777777",
"666666666666666666777771ypuq77777+=;+7777777777777777777777777777777",
"6666666666666666667777779ypr7777777  7777777777777777777777777777777",
"6666666666666666667777775epaa777777777777777777777777777777777777777",
"66666666666666666677777$15yppai7777777777777777777777777777777777777",
"66666666666666666677777 .+>9errq;77777777777777777777777777777777777",
"66666666666666666677777777  .... 77777777777777777777777777777777777"
};
