/* XPM */
static char *result[] = {
/* columns rows colors chars-per-pixel */
"68 68 40 1 ",
"  c black",
". c gray2",
"X c #090B0B",
"o c #0E0E13",
"O c #151515",
"+ c #131318",
"@ c #181818",
"# c #1E1E1E",
"$ c gray13",
"% c #272727",
"& c #2A2A2A",
"* c #313131",
"= c #343434",
"- c gray23",
"; c #3F3F3F",
": c #464646",
"> c gray29",
", c #515151",
"< c #555555",
"1 c #5D5D5D",
"2 c gray38",
"3 c DimGray",
"4 c #717171",
"5 c #797979",
"6 c gray49",
"7 c none",
"8 c none",
"9 c #868686",
"0 c gray56",
"q c #979797",
"w c gray61",
"e c #A5A5A5",
"r c #AEAEAE",
"t c #B7B7B7",
"y c #C1C1C1",
"u c #C5C5C5",
"i c gray81",
"p c gray85",
"a c #E2E2E2",
"s c #FBFBFB",
/* pixels */
"77777777777778888888888888888888888888888888888888888888888888777777",
"777777777777788888888888888888,wuairw,888888888888888888888888777777",
"77777777777778888888888888888tasssaaapw%8888888888888888888888888888",
"77777777777778888888888888888irssaasstq,8888888888888888888888888888",
"77777777777778888888888888880u<*2:--2<%#o888888888888888888888888888",
"7777777777777888888888888888eitei4#Oo*5%X888888888888888888888888888",
"7777777777777888888888888888weii1w4:,qt1X888888888888888888888888888",
"7777777777777888888888888888iu0t55w0wu2%o888888888888888888888888888",
"777777777777788888888888888aaaaau0wt5<6wo888888888888888888888888888",
"77777777777778888888888888-wetaaaaiupuu0#888888888888888888888888888",
"7777777777777888888888888888%#*:0aaaw01oO#88888888888888888888888888",
"77777777777778888888888888,,:,%Xo:05XOoXo#88888888888888888888888888",
"77777777777778888888888waaaa2*5-*OO#OOOXX888888888888888888888888888",
"8888888888888888888888asssaa2o5y93;$O*##O888888888888888888888888888",
"888888888888888888888wasssau2o*aar4,;:,-O888888888888888888888888888",
"888888888888888888888tasaaae2ooiaee44,4;%$88888888888888888888888888",
"888888888888888888888wpassae2#=yyeeew6q1-*88888888888888888888888888",
"8888888888888888888882uassar2$%twtqww021<=o8888888888888888888888888",
"888888888888888888888:taaat:#O;3re0652:2:O*8888888888888888888888888",
"8888888888888888888888ew2<550%<19e5%##%-Ooo8888888888888888888888888",
"88888888888888888888888*0pauw;>,45,###%%OooOoo88o8888888888.88888888",
"888888888888888888888884taaue-:>35:%%#%OoOOooOOoOOoXooooXooO88888888",
"88888888888888888888888<rpaie:2530::%#OO###OoOOoooooXXXXXXX 88888888",
"888888888888888888888888q0:2taaaur61ooooo#*oooooXXoooXXooooX.8888888",
"888888888888888888888888oo-uaaaaaaaaaa0O6aau*oo#oXXXXXX8888888888888",
"8888888888888888888888888o%qeueiauuaaa2*rttt%X##oXXooo88888888888888",
"8888888888888888888888,-*#*,,<22456000*#0002XXOoo8888888888888888888",
"8888888888888888888888at--:*,,:**::,,,#-*:*oXX8888888888888888888888",
"888888888888888888888888%:,:***%#O#*%O:-*%88888888888888888888888888",
"888888888888888888888888<<,,-**%######%*%#88888888888888888888888888",
"888888888888888888888888q6,,:-:-%####O##%888888888888888888888888888",
"888888888888888888888888ru-Oo*,:*##%#O#oO,88888888888888888888888888",
"888888888888888888888888et#oX,00,O###OOXO:88888888888888888888888888",
"88888888888888888888888<wqoooqii2o#%##OoOO88888888888888888888888888",
"88888888888888888888888:6*ooowii-X##%#o#OO%8888888888888888888888888",
"888888888888888888888888#Xooouii-oO##oO#oOo8888888888888888888888888",
"888888888888888888888888XX#5t,#%Oo###oO#o888888888888888888888888888",
"8888888888888888888888888,ert5**#o##O##%o888888888888888888888888888",
"888888888888888888888888:0wyw0<-%oO%%##%#888888888888888888888888888",
"777777777777788888888888,0etq622*oO%%####888888888888888888888888888",
"777777777777788888888888,0qe052<#oO%*%#%%888888888888888888888888888",
"777777777777788888888888,6e052<,Oo#%*%#*%888888888888888888888888888",
"777777777777788888888888:4q521,,oo#%*-*-%888888888888888888888888888",
"777777777777788888888888:4q22<::oo#%:1,*O888888888888888888888888888",
"777777777777788888888888-3921,,-8o#:qr0<O888888888888888888888888888",
"777777777777788888888888*692<::O88#:wr06#888888888888888888888888888",
"777777777777788888888888*962,-:O88#:wr04#888888888888888888888888888",
"7777777777777888888888881052,--888#2uaaew888888888888888888888888888",
"7777777777777888888888aa-&=%@$@888@;50-%*o88888888888888888888888888",
"777777777777788888888papw&#@++o888X++:<<,888888888888888888888888888",
"77777777777778888888rrw04-%-#o888882ppr0,888888888888888888888888888",
"77777777777778888884051:*%%%oX88888uiprq,888888888888888888888888888",
"777777777777788888861:*%##o88888888euue02o88888888888888888888888888",
"777777777777788888q2-%%#O88888888880rtw04O88888888888888888888888888",
"77777777777778888u6:*%OX888888888885wrw04O88888888888888888888888888",
"7777777777777888ue1*%o8888888888888:0ww04O88888888888888888888888888",
"777777777777788qeq:*o8888888888888882qw02X88888888888888888888888888",
"77777777777778:0ttq%8888888888888888:0wq2888888888888888888888888888",
"77777777777778o5ruw,888888888888888885ww6888888888888888888888888888",
"777777777777788-rue6888888888888888885erq#88888888888888888888888888",
"777777777777788Oesur588888888888888882tpt,88888888888888888888888888",
"777777777777788X:wsse88888888888888882iaar88888888888888888888888888",
"7777777777777888X#,65%888888888888888,04*Oo8888888888888888888888888",
"777777777777788888XooX88888888888888882,5ww8888888888888888888888888",
"7777777777777888888888888888888888888600wuai888888888888888888888888",
"7777777777777888888888888888888888888-<14quaap8888888888888888888888",
"7777777777777888888888888888888888888XXXoO:5ere288888888888888888888",
"7777777777777888888888888888888888888888888XoooXX8888888888888888888"
};
