/* XPM */
static char *result[] = {
/* columns rows colors chars-per-pixel */
"68 68 40 1 ",
"  c #090B0B",
". c #0E0E13",
"X c #151515",
"o c #131318",
"O c #181818",
"+ c #1E1E1E",
"@ c gray13",
"# c #272727",
"$ c #2A2A2A",
"% c #313131",
"& c #343434",
"* c gray23",
"= c #3F3F3F",
"- c #010051",
"; c #464646",
": c gray29",
"> c #43495D",
", c #515151",
"< c #555555",
"1 c #5D5D5D",
"2 c gray38",
"3 c DimGray",
"4 c #717171",
"5 c #797979",
"6 c gray49",
"7 c none",
"8 c none",
"9 c #868686",
"0 c gray56",
"q c #979797",
"w c gray61",
"e c #A5A5A5",
"r c #AEAEAE",
"t c #B7B7B7",
"y c #C1C1C1",
"u c #C5C5C5",
"i c gray81",
"p c gray85",
"a c #E2E2E2",
"s c #FBFBFB",
/* pixels */
"77777777777777777777777777788888888888877777777777777777777777777777",
"77777777777777777778888888888888888888888888888888877777777777777777",
"77777777777777777778888888888888*21%88888888888888888888888888888888",
"777777777777777777888888888888isssaapw;88888888888888888888888888888",
"77777777777777777788888888888assuupsrq5*8888888888888888888888888888",
"77777777777777777788888888888iar429e92#%8888888888888888888888888888",
"7777777777777777778888888888waaaaptw5:#X.888888888888888888888888888",
"7777777777777777778888888888tpaaauw94w1# 888888888888888888888888888",
"7777777777777777778888888888eissairw6:+#.888888888888888888888888888",
"7777777777777777778888888889asssaaapru2%.888888888888888888888888888",
"777777777777777777888888888iaaaaaaueqt51.888888888888888888888888888",
"777777777777777777888888888*::;*%##%#*+#%888888888888888888888888888",
"77777777777777777788888888888     .+*.+.+.88888888888888888888888888",
"88888888888888888888888<;9auwqeuuiaarai5+888888888888888888888888888",
"8888888888888888888888t92asssaaaaaarraaae%88888888888888888888888888",
"888888888888888888888wp9uippeqqawearaaair9X8888888888888888888888888",
"888888888888888888888w99uiipiuaa6eiwruutw9;8888888888888888888888888",
"88888888888888888888841wtpiiuuua4ru95qew941.888888888888888888888888",
"888888888888888888888<<erwrpuwqr1ee52499641%888888888888888888888888",
"888888888888888888888::ewwwurquw1ww<%259641:888888888888888888888888",
"888888888888888888888;:<44244421<wq,+;<66521+88888888888888888888888",
"8888888888888888888888+%*******;4e9=% .#%%%+888888888888888888888888",
"88888888888888888888888%*;:<2221594=#X #*%#+.88888888888888888888888",
"88888888888888888888888%;1569999994;&#.X::*##.8888888888888888888888",
"88888888888888888888888%*<<12222222<%@@+*12<;88888888888888888888888",
"88888888888888888888888X+X#%****%%%++$@X+;;#.#8888888888888888888888",
"88888888888888888888888=+@##$$$##+++oXXXX.   .8888888888888888888888",
"8888888888888888888888>3rrtppar1<;:&#@O+......8888888888888888888888",
"8888888888888888888888:269qyyi5@<411;*$%;  .#.8888888888888888888888",
"88888888888888888888888O#%%%%*#*9q0091%:5. 8888888888888888888888888",
"88888888888888888888888OO@@@@@&=0ree04*25.88888888888888888888888888",
"88888888888888888888888-$$%:;36eyutrw6;24.88888888888888888888888888",
"88888888888888888888888.;;149wtpaittw5=#++88888888888888888888888888",
"88888888888888888888888.&,0qerupapt1:@o  *88888888888888888888888888",
"88888888888888888888888%@=3ert943*#....  *88888888888888888888888888",
"88888888888888888888888%  O+=::%#o.      <88888888888888888888888888",
"888888888888888888888888X.....          8:88888888888888888888888888",
"888888888888888888888888X  .  *rrrq96*+..888888888888888888888888888",
"8888888888888888888888888 .  .3upputw62X.888888888888888888888888888",
"7777777777777777778888888 #  #0paite91;# 888888888888888888888888888",
"77777777777777777788888888####iaaite91#.8888888888888888888888888888",
"77777777777777777788888888####iaaitq41#.8888888888888888888888888888",
"777777777777777777888888888#%<uaaueq4*.88888888888888888888888888888",
"7777777777777777778888888888#9ppirq5;+.88888888888888888888888888888",
"7777777777777777778888888888.uppuw6<#.888888888888888888888888888888",
"77777777777777777788888888888uppr92%X.888888888888888888888888888888",
"77777777777777777788888888889ppiw5;+...88888888888888888888888888888",
"7777777777777777778888888888upauq1#.+. 88888888888888888888888888888",
"7777777777777777778888888888460e4*....888888888888888888888888888888",
"777777777777777777888888888%XXX*:+..+X888888888888888888888888888888",
"777777777777777777888888888w5XXX+1%%#X.88888888888888888888888888888",
"77777777777777777788888888paate1*:%##+.88888888888888888888888888888",
"7777777777777777778888888aaaaiq;,#%#++.88888888888888888888888888888",
"7777777777777777778888888aaaaw2X8###++.88888888888888888888888888888",
"777777777777777777888888rpape4%.8+++#+X88888888888888888888888888888",
"777777777777777777888888iuat6;.888++#+X88888888888888888888888888888",
"777777777777777777888888ruiq:+ 888.#%#X88888888888888888888888888888",
"777777777777777777888888uar4%.88888#%#+.8888888888888888888888888888",
"777777777777777777888888upq;.8888888%%#X888..88888888888888888888888",
"77777777777777777788888tau4#88888888**%#X..X. 8888888888888888888888",
"77777777777777777788888pae:.88888888+%%+..X. 88888888888888888888888",
"7777777777777777778888wai9#8888888888%%+.. 8888888888888888888888888",
"77777777777777777788886ue4+8888888888###. 88888888888888888888888888",
"7777777777777777778888ww5**#888888888 .. 888888888888888888888888888",
"7777777777777777778881wq2;26##88888888888888888888888888888888888888",
"777777777777777777888<65<::1455:888888888888888888888888888888888888",
"777777777777777777888X+#+XXXX+X. 88888888888888888888888888888888888",
"7777777777777777778888    888888888888888888888888888888888888888888"
};
