/* XPM */
static char *result[] = {
/* columns rows colors chars-per-pixel */
"68 68 39 1 ",
"  c #090B0B",
". c #0E0E13",
"X c #151515",
"o c #131318",
"O c #181818",
"+ c #1E1E1E",
"@ c gray13",
"# c #272727",
"$ c #2A2A2A",
"% c #313131",
"& c #343434",
"* c gray23",
"= c #3F3F3F",
"- c #010051",
"; c #464646",
": c gray29",
"> c #515151",
", c #555555",
"< c #5D5D5D",
"1 c gray38",
"2 c DimGray",
"3 c #717171",
"4 c #797979",
"5 c gray49",
"6 c none",
"7 c none",
"8 c #868686",
"9 c gray56",
"0 c #979797",
"q c gray61",
"w c #A5A5A5",
"e c #AEAEAE",
"r c #B7B7B7",
"t c #C1C1C1",
"y c #C5C5C5",
"u c gray81",
"i c gray85",
"p c #E2E2E2",
"a c #FBFBFB",
/* pixels */
"66666666666666666666666666677777777777766666666666666666666666666666",
"66666666666666666667777777777777777777777777777777766666666666666666",
"66666666666666666667777777777777777777777777777777777777777777777777",
"66666666666777777777777777777777777777777777777777777777777777777777",
"6666666666677777777777777777777:30q3:7777777777777777777777777777777",
"666666666667777777777777777777paaappar8X7777777777777777777777777777",
"66666666666777777777777777777ppyqqiuw84;7777777777777777777777777777",
"66666666666777777777777777777ppww0ew8:#*.777777777777777777777777777",
"6666666666677777777777777777rpppppr054@. 777777777777777777777777777",
"6666666666677777777777777777wuppprq880;*.777777777777777777777777777",
"6666666666677777777777777777wypaaaue8<X%.777777777777777777777777777",
"666666666667777777777777777eppppaaapep5*.777777777777777777777777777",
"666666666667777777777777777euiippyq04q:,X777777777777777777777777777",
"777777777777777777777777777@%#@@@@@@@#@@%.77777777777777777777777777",
"77777777777777777777777777777 .X%;:<:#..X.77777777777777777777777777",
"777777777777777777777777:2uuyypaapppap0*.777777777777777777777777777",
"77777777777777777777777y8raaappipp8aaauq@777777777777777777777777777",
"7777777777777777777777q080erypwqp4ppapyq2777777777777777777777777777",
"77777777777777777777774wreyeup8ep>qyuyuy4#77777777777777777777777777",
"77777777777777777777772wryruqq5ri:38ww8u4;77777777777777777777777777",
"7777777777777777777777:qqey84q3ry&<38q0842#7777777777777777777777777",
"7777777777777777777777*00rrweq3rr<#240q053*7777777777777777777777777",
"77777777777777777777777%*;;::;;wrq%#%2585<%7777777777777777777777777",
"777777777777777777777777**;;;;2qq8;. X%%@@X 777777777777777777777777",
"777777777777777777777777%*;:,238842$X.*;**%.777777777777777777777777",
"777777777777777777777777@;244588842%@O%2442#.....7777777777777777777",
"7777777777777777777777777*;;;:::::::@@@,44<%XX 777777777777777777777",
"777777777777777777777777X+#%****%%%#%%X#%@  %@;X77777777777777777777",
"777777777777777777777777+@##$$$##+++oXoXo   .X#X77777777777777777777",
"777777777777777777777772eeriipe<,==&&$OX...%@.@777777777777777777777",
"7777777777777777777777:1580ttu4@,3<<;*$#%77X..7777777777777777777777",
"77777777777777777777777O#%%%%*#*80998<%&*O77777777777777777777777777",
"77777777777777777777777OO@@@@@&=9eww93*$$O77777777777777777777777777",
"77777777777777777777777-$$%:;25wtyreq5;%$O77777777777777777777777777",
"777777777777777777777777;;<38qripurrq4=@X 77777777777777777777777777",
"777777777777777777777777&>90weyipir<:@o  %77777777777777777777777777",
"777777777777777777777777O;2werrte<&..... >X7777777777777777777777777",
"777777777777777777777777  .+:<<<&X.    .%4:7777777777777777777777777",
"777777777777777777777777.             X*% <7777777777777777777777777",
"666666666667777777777778r,*          X;*%.77777777777777777777777777",
"66666666666777777777777pape%# .    X%%**%#77777777777777777777777777",
"66666666666777777777777aapp0*#@.  #%%**%%@77777777777777777777777777",
"66666666666777777777770aappr<#@.  #%%%%%#@.7777777777777777777777777",
"6666666666677777777777iappyw4%..77#%%%%##@.7777777777777777777777777",
"6666666666677777777777ppppr8<#.777#@%###@@.7777777777777777777777777",
"6666666666677777777777aapuq2*..7777@####@@.7777777777777777777777777",
"666666666667777777777qappe5;@.77777@####@@.7777777777777777777777777",
"666666666667777777777papy0,#.7777777@####@X 777777777777777777777777",
"666666666667777777777pppy0,#.77777777@####@.777777777777777777777777",
"666666666667777777777ppuw2*.777777777@#%%@X@777777777777777777777777",
"66666666666777777777%@#;;3;77777777777@@@..@ 77777777777777777777777",
"66666666666777777777i0*@#*:777777777774035,X777777777777777777777777",
"666666666667777777ypppp0;7777777777777uauw3@777777777777777777777777",
"666666666667777777aappe3% 77777777777qupy0<X777777777777777777777777",
"66666666666777777paape4*.7777777777770qyw5:.777777777777777777777777",
"66666666666777777yppr5;.777777777777728082*.777777777777777777777777",
"6666666666677777qppy8:X77777777777777%243:#.777777777777777777777777",
"6666666666677777upiq,# 777777777777777,2<;@ 777777777777777777777777",
"6666666666677777upr3#.7777777777777777;<<;@7777777777777777777777777",
"6666666666677778pp8*.77777777777777777722;@7777777777777777777777777",
"666666666667777ipr<.777777777777777777744,#7777777777777777777777777",
"66666666666777epp0@777777777777777777774q3*7777777777777777777777777",
"66666666666777wry3.777777777777777777778r82%777777777777777777777777",
"6666666666677qyr:%777777777777777777777%42;,8qwe8@777777777777777777",
"6666666666677erq*.777777777777777777777*22;;<2<*X 777777777777777777",
"666666666667#242@.@77777777777777777777#,<;%@.. 77777777777777777777",
"666666666667 .....@::7777777777777777777@@X. 77777777777777777777777",
"6666666666677777   ...777777777777777777   7777777777777777777777777"
};
