/* XPM */
static char *result[] = {
/* columns rows colors chars-per-pixel */
"64 64 15 1 ",
"  c #13230B",
". c #17330F",
"X c #332B13",
"o c #373F27",
"O c #43331B",
"+ c #4F3B23",
"@ c #533F2F",
"# c #3F472B",
"$ c #5B472B",
"% c #474F33",
"& c #53573B",
"* c #5B6347",
"= c #676B4F",
"- c none",
"; c gray75",
/* pixels */
"----------------------------------------------------------------",
"----------------------------------------------------------------",
"----------------------------------------------------------------",
"----------------------------------------------------------------",
"----------------------------------------------------------------",
"----------------------------------------------------------------",
"----------------------------------------------------------------",
"----------------------------------------------------------------",
"----------------------------------------------------------------",
"----------------------------------------------------------------",
"----------------------------------------------------------------",
"----------------------------------------------------------------",
"----------------------------------------------------------------",
"----------------------------------------------------------------",
"----------------------------------------------------------------",
"----------------------------------------------------------------",
"----------------------------------------------------------------",
"----------------------------------------------------------------",
"----------------------------------------------------------------",
"----------------------------------------------------------------",
"----------------------------------------------------------------",
"----------------------------------------------------------------",
"----------------------------------------------------------------",
"----------------------------------------------------------------",
"----------------------------------------------------------------",
"----------------------------------------------------------------",
"----------------------------------------------------------------",
"----------------------------------------------------------------",
"----------------------------------------------------------------",
"----------------------------------------------------------------",
"----------------------------------------------------------------",
"----------------------------------------------------------------",
"----------------------------------------------------------------",
"----------------------------------------------------------------",
"----------------------------------------------------------------",
"----------------------------------------------------------------",
"----------------------------------------------------------------",
"----------------------------------------------------------------",
"----------------------------------------------------------------",
"----------------------------------------------------------------",
"----------------------------------------------------------------",
"----------------------------------------------------------------",
"----------------------------------------------------------------",
"----------------------------------------------------------------",
"----------------------------------------------------------------",
"----------------------------------------------------------------",
"----------------------------------------------------------------",
"----------------------------------------------------------------",
"--------------------&ooooooooooooooooooooooo--------------------",
"-------------------&#oooooooooooooooooooooooo-------------------",
"------------------&###########################------------------",
"------------------o..........................X------------------",
"------------------o............;*............X------------------",
"------------------XXXXXXXXXXXXX=&XXXXXXXXXXX  ------------------",
"------------------o...........X%%X...........X------------------",
"------------------o...........XXXX...........X------------------",
"------------------o......+@+.@.@.@.@.+$+.....X------------------",
"------------------o......$+$.$$$.$$$.$.$.....X------------------",
"------------------o......$.$.$.$.$.$.+$+.....X------------------",
"------------------o..........................X------------------",
"------------------o......O+..++OO.+.O.++.....X------------------",
"------------------o..........................X------------------",
"------------------o..........................X------------------",
"------------------XXXXXXXXXXXXXXXXXXXXXXXXXXXX------------------"
};
