/* XPM */
static char *result[] = {
/* columns rows colors chars-per-pixel */
"147 76 54 1 ",
"  c #1F170B",
". c #1B1B1B",
"X c #2B230F",
"o c #332B13",
"O c #3F2F17",
"+ c #232323",
"@ c #272727",
"# c #2F2F2F",
"$ c #373737",
"% c gray23",
"& c #4B371B",
"* c #533F1F",
"= c #5F4323",
"- c #6B4727",
"; c #774F2B",
": c #7F532F",
"> c #434343",
", c gray28",
"< c gray31",
"1 c gray34",
"2 c #5B5B5B",
"3 c gray39",
"4 c gray42",
"5 c #6F6F6F",
"6 c #777777",
"7 c gray50",
"8 c #875733",
"9 c #8F5F37",
"0 c #9B633B",
"q c #A36B3F",
"w c #AB6F43",
"e c #B37347",
"r c #BF7B4B",
"t c #CB7F4F",
"y c #CF8353",
"u c #D78B5B",
"i c #DF9363",
"p c #E79B6B",
"a c #EFA373",
"s c #F7AB7B",
"d c none",
"f c #838383",
"g c #939393",
"h c #979797",
"j c #A7A7A7",
"k c gray67",
"l c gray75",
"z c #FFB383",
"x c #FFBB93",
"c c #FFBF9B",
"v c #FFC79B",
"b c #FFCFB3",
"n c #FFD7BB",
"m c LightGray",
/* pixels */
"ddddddddddddddddddddddddddddddddddddddddddddddddddddddddddddddddddddddddddddddddddddddddddddddddddddddddddddddddddddddddddddddddddddddddddddddddddd",
"ddddddddddddddddddddddddddddddddddddddddddddddddddddddddddddddddddddddddddddddddddddddddddddddddddddddddddddddddddddddddddddddddddddddddddddddddddd",
"ddddddddddddddddddddddddddddddddddddddddddddddddddddddddddddddddddddddddddddddddddddddddddddddddddddddddddddddddddddddddddddddddddddddddddddddddddd",
"ddddddddddddddddddddddddddddddddddddddddddddddddddddddddddddddddddddddddddddddddddddddddddddddddddddddddddddddddddddddddddddddddddddddddddddddddddd",
"ddddddddddddddddddddddddddddddddddddddddddddddddddddddddddddddddddddddddddddddddddddddddddddddddddddddddddddddddddddddddddddddddddddddddddddddddddd",
"ddddddddddddddddddddddddddddddddddddddddddddddddddddddddddddddddddddddddddddddddddddddddddddddddddddddddddddddddddddddddddddddddddddddddddddddddddd",
"ddddddddddddddddddddddddddddddddddddddddddddddddddddddddddddddddddddddddddddddddddddddddddddddddddddddddddddddddddddddddddddddddddddddddddddddddddd",
"ddddddddddddddddddddddddddddddddddddddddddddddddddddddddddddddddddddddddddddddddddddddddddddddddddddddddddddddddddddddddddddddddddddddddddddddddddd",
"ddddddddddddddddddddddddddddddddddddddddddddddddddddddddddddddddddddddddddddddddddddddddddddddddddddddddddddddddddddddddddddddddddddddddddddddddddd",
"ddddddddddddddddddddddddddddddddddddddddddddddddddddddddddddddddddddddddddddddddddddddddddddddddddddddddddddddddddddddddddddddddddddddddddddddddddd",
"ddddddddddddddddddddddddddddddddddddddddddddddddddddddddddddddddddddddddddddddddddddddddddddddddddddddddddddddddddddddddddddddddddddddddddddddddddd",
"ddddddddddddddddddddddddddddddddddddddddddddddddddddddddddddddddddddddddddddddddddddddddddddddddddddddddddddddddddddddddddddddddddddddddddddddddddd",
"ddddddddddddddddddddddddddddddddddddddddddddddddddddddddddddddddddddddddddddddddddddddddddddddddddddddddddddddddddddddddddddddddddddddddddddddddddd",
"ddddddddddddddddddddddddddddddddddddddddddddddddddddddddddddddddddddddddddddddddddddddddddddddddddddddddddddddddddddddddddddddddddddddddddddddddddd",
"ddddddddddddddddddddddddddddddddddddddddddddddddddddddddddddddddddddddddddddddddddddddddddddddddddddddddddddddddddddddddddddddddddddddddddddddddddd",
"ddddddddddddddddddddddddddddddddddddddddddddddddddddddddddddddddddddddddddddddddddddddddddddddddddddddddddddddddddddddddddddddddddddddddddddddddddd",
"ddddddddddddddddddddddddddddddddddddddddddddddddddddddddddddddddddddddddddddddddddddddddddddddddddddddddddddddddddddddddddddddddddddddddddddddddddd",
"ddddddddddddddddddddddddddddddddddddddddddddddddddddddddddddddddddddddddddddddddddddddddddddddddddddddddddddddddddddddddddddddddddddddddddddddddddd",
"ddddddddddddddddddddddddddddddddddddddddddddddddddddddddddddddddddddddddddddddddddddddddddddddddddddddddddddddddddddddddddddddddddddddddddddddddddd",
"ddddddddddddddddddddddddddddddddddddddddddddddddddddddddddddddddddddddddddddddddddddddddddddddddddddddddddddddddddddddddddddddddddddddddddddddddddd",
"ddddddddddddddddddddddddddddddddddddddddddddddddddddddddddddddddddddddddddddddddddddddddddddddddddddddddddddddddddddddddddddddddddddddddddddddddddd",
"ddddddddddddddddddddddddddddddddddddddddddddddddddddddddddddddddddddddddddddddddddddddddddddddddddddddddddddddddddddddddddddddddddddddddddddddddddd",
"ddddddddddddddddddddddddddddddddddddddddddddddddddddddddddddddddddddddddddddddddddddddddddddddddddddddddddddddddddddddddddddddddddddddddddddddddddd",
"ddddddddddddddddddddddddddddddddddddddddddddddddddddddddddddddddddddddddddddddddddddddddddddddddddddddddddddddddddddddddddddddddddddddddddddddddddd",
"ddddddddddddddddddddddddddddddddddddddddddddddddddddddddddddddddddddddddddddddddddddddddddd4h3ddddddddddddddddddddddddddddddddddddddddddddddddddddd",
"dddddddddddddddddddddddddddddddddddddddddddddddddddddddddddddddddddddd133556ffffhhjj7ddd447k2>ddddddddddddddddddddddddddddddddddddddddddddddddddddd",
"dddddddddddddddddddddddddddddddddddddddddddddddddddddddddddddddddd33332,,><2246114fklh2257g2>dddddddddddddddddddddddddddddddddddddddddddddddddddddd",
"dddddddddddddddddddddddddddddddddddddddddddddddddddddddddddddddddrryr8;;;8tiiiit4<+#fm5,252>#dddddddddddddddddddddddddddddddddddddddddddddddddddddd",
"dddddddddddddddddddddddddddddddddddddddddddddddddddddddddddddd9eee9q9etttiaxssaaitq-<gj%,2>@ddddddddddddddddddddddddddddddddddddddddddddddddddddddd",
"dddddddddddddddddddddddddddddddddddddddddddddddddddddddddddd9:9qeee9ewtyiasxxxxasitqO2h>$%2>ddddddddddddddddddddddddddddddddddddddddddddddddddddddd",
"ddddddddddddddddddddddddddddddddddddddddddddddddddddddddddd99q999qqwtriuaaxxxxxxsaay-O55#$>5ddddddddddddddddddddddddddddddddddddddddddddddddddddddd",
"dddddddddddddddddddddddddddddddddddddddddddddddddddddddddd;:q9:eq9wtyaasxssxxxxxxxxaq&27%#,17dddddddddddddddddddddddddddddddddddddddddddddddddddddd",
"ddddddddddddddddddddddddddddddddddddddddddddddddddddddddd=;9::qweetipasxxxxxccxvxxxxa-%5%%%,5hddddddddddddddddddddddddddddddddddddddddddddddddddddd",
"dddddddddddddddddddddddddddddddddddddddddddddddddddddddd-99:;9twweypaasssssxxxxxvxxxsq&2,+,,15hdddddddddddddddddddddddddddddddddddddddddddddddddddd",
"dddddddddddddddddddddddddddddddddddddddddddddddddddddd:-::::9ewttyiaasssxxxsxxxxxvxxxi;,2@&1,17dddddddddddddddddddddddddddddddddddddddddddddddddddd",
"dddddddddddddddddddddddddddddddddddddddddddddddddddddO:9::9qewttyyiaissxxsxsxxxxxvvxxiq%4$O&3>4dddddddddddddddddddddddddddddddddddddddddddddddddddd",
"ddddddddddddddddddddddddddddddddddddddddddddddddddd;o-99:ewwtttiiyuasasxssxxxxxsxvxxvpu&2>oO&,ddddddddddddddddddddddddddddddddddddddddddddddddddddd",
"ddddddddddddddddddddddddddddddddddddddddddddddddddO*8;999wtteiiyaayixassssxxxxxxxxvvvxu-<<oOo<9dddddddddddddddddddddddddddddddddddddddddddddddddddd",
"ddddddddddddddddddddddddddddddddddddddddddddddddd-O;9:99qetyyiiyiaiisxssssvxxxxxxxvxvna9%3oo%;etddddddddddddddddddddddddddddddddddddddddddddddddddd",
"dddddddddddddddddddddddddddddddddddddddddddddddd**9:99eeqtyyyipitauypxssascxxcxxvxxxvvxi&1@.%wyptdddddddddddddddddddddddddddddddddddddddddddddddddd",
"dddddddddddddddddddddddddddddddddddddddddddddd8O:9:88ewwwyiyypaiuiappsxssaxxxvxxxxszxvvi-,.%0ibxpyddddddddddddddddddddddddddddddddddddddddddddddddd",
"dddddddddddddddddddddddddddddddddddddddddddde**-898eeqwwyiiyriaiiiaaaaxxaxxxxvxszxxasvva:,%$ibcxpptdddddddddddddddddddddddddddddddddddddddddddddddd",
"dddddddddddddddddddddddddddddddddddddddddddeO*;::9qqwtteyiyiyyaiyaaaxxsxaxxxxxxxsxxxpscc9>$ybcxaaaatddddddddddddddddddddddddddddddddddddddddddddddd",
"dddddddddddddddddddddddddddddddddddddddddd:O::::9wqttyyyyyityaiaispipxxxsxxxsxsxxssspravq-qxxssapaai9wddddddddddddddddddddddddddddddddddddddddddddd",
"ddddddddddddddddddddddddddddddddddddddddd*O*;9;9te9eyyyyiyytiuiiasspiaxxaxxxsxsxsspsseyxeqiiuuiiiiiyt8ddddddddddddddddddddddddddddddddddddddddddddd",
"ddddddddddddddddddddddddddddddddddddddddO-;;9999qtwyyryyietiiiyiaaxapixxaxxaxxaxxsppsieiieqqeeqeeq99w8ddddddddddddddddddddddddddddddddddddddddddddd",
"dddddddddddddddddddddddddddddddddddddeOO*:::qq8q8etetyyyuteicaeppuasiiixsaxssspsssappaierteycxxxcxitw8ddddddddddddddddddddddddddddddddddddddddddddd",
"ddddddddddddddddddddddddddddddddddddOXO*;::898-w8wtwytyeuyeaaawisuusaaipspssasisssspuaxaueyeuxxxxaiyt8ddddddddddddddddddddddddddddddddddddddddddddd",
"ddddddddddddddddddddddddddddddddddd@ O*99:89888qqwttqwiyyeraaiyuxuraaaaiaapspiapsppaaipxpaitqyxpaautqdddddddddddddddddddddddddddddddddddddddddddddd",
"dddddddddddddddddddddddddddddddddd@X**-ee;9q88qqreeyqqaiy0yaxryiairiiaappapsppaasizxspaaaaautqaxiiyqqdddddddddddddddddddddddddddddddddddddddddddddd",
"dddddddddddddddddddddddddddddddddo *;::998qw88wqtewrwqiiruypxyraaiwiaiixuaaaasaaaasssxxaaiiiiyixiyq9ddddddddddddddddddddddddddddddddddddddddddddddd",
"ddddddddddddddddddddddddddddddddo *;:9:9q9ee9erqteeut8euttyiaryaityiiuipaaxspaspasxsssxsssssaspiiye99dddddddddddddddddddddddddddddddddddddddddddddd",
"dddddddddddddddddddddddddddddd- o*;9:8qqwqtw9wiqtytpt8eiiyruuuayeaiyyatisaaxaaxaaxsasxxssszzzzsaiyyyt9ddddddddddddddddddddddddddddddddddddddddddddd",
"dddddddddddddddddddddddddddddO O;;-99ew9qeqeq0ieiyyttqeairrryxaryaiyriiiaaaasasaxxaxcxxxxxvvvvzspytyyt;dddddddddddddddddddddddddddddddddddddddddddd",
"ddddddddddddddddddddddddddddXoO:::-:9eqwqeq8eqyyueqyyeeuieyryxieppyyyiiipaapaasaaxxxxsxxzzzvvvxzaytttte9qdddddddddddddddddddddddddddddddddddddddddd",
"dddddddddddddddddddddddddd;@$*;;-:8;9q9wwweqeeeii00ieetuyyeriaeyiiiyiyaaassaaaxxsxxssxxxzzzxvxxxaywtttte:dddddddddddddddddddddddddddddddddddddddddd",
"ddddddddddddddddddddddddd-O$,;:-:q:8q9ww98wqte0yy0eiqyiyreyruryiiyyuiuaassasxapxxxxxxxxxzszxxxxxpywttwtq9&ddddddddddddddddddddddddddddddddddddddddd",
"ddddddddddddddddddddddd:OO**;::=9r-qtqwrq99-wy0yi0tt9eyeyu0yirtuyyaiiaaaaaxasaaxxxcxxsxasszxxxxsatewtewq9:Odddddddddddddddddddddddddddddddddddddddd",
"ddddddddddddddddddddd8oO***-9-;-:t-t9ettwt8:qeqtwtttt0eiieeeryiiyiauaaaaaxaxxaaapxxsxsaaaszxxxzaiw9wwqeq99Odddddddddddddddddddddddddddddddddddddddd",
"dddddddddddddddddddd*oO****;:;-:989r8wyteq9qeteq8etteqyeyyqyiyyiytaaiaaaxaaxaaxpaxapxxaaaaazzzait99eq9999:Odddddddddddddddddddddddddddddddddddddddd",
"dddddddddddddddddd8*oOOO*-:::-:8wqqwwwuiy9wwqetweqttqqqyy90iiyrreaauiaiiaaiaaaaaaauaaaapuiuaaiyye;999::::=Xdddddddddddddddddddddddddddddddddddddddd",
"dddddddddddddddddO O*,$$*-::--e:8tw8tyiiqtw8wewq-wr999eye0tiiyeetiiaiiiuiiiaaauaatiauiiiiyyyyee9;;:8-*--=Oddddddddddddddddddddddddddddddddddddddddd",
"dddddddddddddddOoX*O****&-:-*:q88wt9tiietqqewetw9ueq:wtywwwyyyyyyeiuyyiayraauuuuttiiyytetewqq9-=---;***&Odddddddddddddddddddddddddddddddddddddddddd",
"dddddddddddddd oo@$$OO**;;:q*8q8wte0eiywtwwwyeqqtewq89weweeyyyyeqwtwteeiyeauiuiitytttwqqq9::--****;**&Oo0dddddddddddddddddddddddddddddddddddddddddd",
"dddddddddddd*oOOOOOOOO*;;:89:eqqrttw9a98ye99yt8tq9w9wwwt9eeteeq9w9qqwteetyyiytytttwwwe8;--&********&OOddddddddddddddddddddddddddddddddddddddddddddd",
"dddddddddddOooOOX$****-;::988t8qetyt:p8;wwqquer90:qww9wqwqet99q9q88wqwtrtrrrttteww99::-**&OOOO;;ddddddddddddddddddddddddddddddddddddddddddddddddddd",
"ddddddddddOooOoOOO&*--8:-8999e9wtwty0i;wqiwqttwt9;ww98qww8eq--;8:-89qettwwwwwweq98:--**$OO0dddddddddddddddddddddddddddddddddddddddddddddddddddddddd",
"ddddddddd: o$OOOO***:::=:9-qe9weyw8ytuwqwi98ywqw9q89;9qq88:--*;--:999qqqqqq0888:-***O$edddddddddddddddddddddddddddddddddddddddddddddddddddddddddddd",
"ddddddddO O*O*****--:9-=:9&qrq9wiw9eeae9y99rrqtq::-::--::-*O**---::::99q899:---**O*O*dddddddddddddddddddddddddddddddddddddddddddddddddddddddddddddd",
"dddddddOXXO*O****;*-:9:::8-wtw9qaqwqqpe8t:-uqetq;-------&*OoO&***--;-------&O*OOOO9dddddddddddddddddddddddddddddddddddddddddddddddddddddddddddddddd",
"ddddddo@ $******-:*&:-:;988wewwteqrety:9tqwqqee:---*OOOOOOOOOOOOO**OOO$$O$OOO*O8ddddddddddddddddddddddddddddddddddddddddddddddddddddddddddddddddddd",
"dddddX$ o***;;**:::&O-e8:9;qwqtteweiy;9tett9899-*OOOOXXOOOOOOoooOOOOOOO$O$**edddddddddddddddddddddddddddddddddddddddddddddddddddddddddddddddddddddd",
"ddddo* *O-----::**:*&:9e9qe;qqreteei99eqtyw8:9-**@@@o oOOoO$OOOoOO$$O$*;8dddddddddddddddddddddddddddddddddddddddddddddddddddddddddddddddddddddddddd",
"dddoo O***:::*99&:----q9;et-:wt9yyttq9qwyrq99=*OX@@@o@oo*dddddddddddddddddddddddddddddddddddddddddddddddddddddddddddddddddddddddddddddddddddddddddd",
"ddo*XO****-;::9-&;99;:qr-ww8:qrtwyyw0w8eyte;:-&XX @oo*ddddddddddddddddddddddddddddddddddddddddddddddddddddddddddddddddddddddddddddddddddddddddddddd",
"O @@$$-:9:q:&:::--:eeqqwwt8qqqtyttew9wtqtr9;:*X@+@+*ddddddddddddddddddddddddddddddddddddddddddddddddddddddddddddddddddddddddddddddddddddddddddddddd"
};
