/* XPM */
static char *result[] = {
/* columns rows colors chars-per-pixel */
"147 76 57 1 ",
"  c black",
". c #170F07",
"X c #1F170B",
"o c #1B1B1B",
"O c #2B230F",
"+ c #332B13",
"@ c #3F2F17",
"# c #232323",
"$ c #272727",
"% c #2F2F2F",
"& c #373737",
"* c gray23",
"= c #4B371B",
"- c #533F1F",
"; c #5F4323",
": c #6B4727",
"> c #774F2B",
", c #7F532F",
"< c #434343",
"1 c gray28",
"2 c gray31",
"3 c gray34",
"4 c #5B5B5B",
"5 c gray39",
"6 c gray42",
"7 c #6F6F6F",
"8 c #777777",
"9 c gray50",
"0 c #875733",
"q c #8F5F37",
"w c #9B633B",
"e c #A36B3F",
"r c #AB6F43",
"t c #B37347",
"y c #BF7B4B",
"u c #CB7F4F",
"i c #CF8353",
"p c #D78B5B",
"a c #DF9363",
"s c #E79B6B",
"d c #EFA373",
"f c #F7AB7B",
"g c none",
"h c #838383",
"j c #8B8B8B",
"k c #939393",
"l c #979797",
"z c #9F9F9F",
"x c gray67",
"c c #FFB383",
"v c #FFBB93",
"b c #FFBF9B",
"n c #FFC79B",
"m c #FFCFB3",
"M c #FFD7BB",
"N c #CBCBCB",
"B c #DFDFDF",
/* pixels */
"ggggggggggggggggggggggggggggggggggggggggggggggggggggggggggggggggggggggggggggggggggggggggggggggggggggggggggggggggggggggggggggggggggggggggggggggggggg",
"ggggggggggggggggggggggggggggggggggggggggggggggggggggggggggggggggggggggggggggggggggggggggggggggggggggggggggggggggggggggggggggggggggggggggggggggggggg",
"ggggggggggggggggggggggggggggggggggggggggggggggggggggggggggggggggggggggggggggggggggggggggggggggggggggggggggggggggggggggggggggggggggggggggggggggggggg",
"ggggggggggggggggggggggggggggggggggggggggggggggggggggggggggggggggggggggggggggggggggggggggggggggggggggggggggggggggggggggggggggggggggggggggggggggggggg",
"ggggggggggggggggggggggggggggggggggggggggggggggggggggggggggggggggggggggggggggggggggggggggggggggggggggggggggggggggggggggggggggggggggggggggggggggggggg",
"ggggggggggggggggggggggggggggggggggggggggggggggggggggggggggggggggggggggggggggggggggggggggggggggggggggggggggggggggggggggggggggggggggggggggggggggggggg",
"ggggggggggggggggggggggggggggggggggggggggggggggggggggggggggggggggggggggggggggggggggggggggggggggggggggggggggggggggggggggggggggggggggggggggggggggggggg",
"ggggggggggggggggggggggggggggggggggggggggggggggggggggggggggggggggggggggggggggggggggggggggggggggggggggggggggggggggggggggggggggggggggggggggggggggggggg",
"ggggggggggggggggggggggggggggggggggggggggggggggggggggggggggggggggggggggggggggggggggggggggggggggggggggggggggggggggggggggggggggggggggggggggggggggggggg",
"ggggggggggggggggggggggggggggggggggggggggggggggggggggggggggggggggggggggggggggggggggggggggggggggggggggggggggggggggggggggggggggggggggggggggggggggggggg",
"ggggggggggggggggggggggggggggggggggggggggggggggggggggggggggggggggggggggggggggggggggggggggggggggggggggggggggggggggggggggggggggggggggggggggggggggggggg",
"ggggggggggggggggggggggggggggggggggggggggggggggggggggggggggggggggggggggggggggggggggggggggggggggggggggggggggggggggggggggggggggggggggggggggggggggggggg",
"ggggggggggggggggggggggggggggggggggggggggggggggggggggggggggggggggggggggggggggggggggggggggggggggggggggggggggggggggggggggggggggggggggggggggggggggggggg",
"ggggggggggggggggggggggggggggggggggggggggggggggggggggggggggggggggggggggggggggggggggggggggggggggggggggggggggggggggggggggggggggggggggggggggggggggggggg",
"ggggggggggggggggggggggggggggggggggggggggggggggggggggggggggggggggggggggggggggggggggggggggggggggggggggggggggggggggggggggggggggggggggggggggggggggggggg",
"ggggggggggggggggggggggggggggggggggggggggggggggggggggggggggggggggggggggggggggggggggggggggggggggggggggggggggggggggggggggggggggggggggggggggggggggggggg",
"ggggggggggggggggggggggggggggggggggggggggggggggggggggggggggggggggggggggggggggggggggggggggggggggggggggggggggggggggggggggggggggggggggggggggggggggggggg",
"ggggggggggggggggggggggggggggggggggggggggggggggggggggggggggggggggggggggggggggggggggggggggggggggggggggggggggggggggggggggggggggggggggggggggggggggggggg",
"ggggggggggggggggggggggggggggggggggggggggggggggggggggggggggggggggggggggggggggggggggggggggggggggggggggggggggggggggggggggggggggggggggggggggggggggggggg",
"ggggggggggggggggggggggggggggggggggggggggggggggggggggggggggggggggggggggggggggggggggggggggggggggggggggggggggggggggggggggggggggggggggggggggggggggggggg",
"ggggggggggggggggggggggggggggggggggggggggggggggggggggggggggggggggggggggggggggggggggggggggggggggggggggggggggggggggggggggggggggggggggggggggggggggggggg",
"ggggggggggggggggggggggggggggggggggggggggggggggggggggggggggggggggggggggggggggggggggggggggggggggggggggggggggggggggggggggggggggggggggggggggggggggggggg",
"ggggggggggggggggggggggggggggggggggggggggggggggggggggggggggggggggggggggggggggggggggggggggggggggggggggggggggggggggggggggggggggggggggggggggggggggggggg",
"ggggggggggggggggggggggggggggggggggggggggggggggggggggggggggggggggggggggggggggggggggggggggggggggggggggggggggggggggggggggggggggggggggggggggggggggggggg",
"ggggggggggggggggggggggggggggggggggggggggggggggggggggggggggggggggggggggggggggggggggggggggggggggggggggggggggggggggggggggggggggggggggggggggggggggggggg",
"ggggggggggggggggggggggggggggggggggggggggggggggggggggggggggggggggggggggggggggggggggggggggggggggggggggggggggggggggggggggggggggggggggggggggggggggggggg",
"ggggggggggggggggggggggggggggggggggggggggggggggggggggggggggggggggggggggggggggggggggggggggggggggggggggggggggggggggggggggggggggggggggggggggggggggggggg",
"ggggggggggggggggggggggggggggggggggggggggggggggggggggggggggggggggggggggggggggggggggggggggggggggggggggggggggggggggggggggggggggggggggggggggggggggggggg",
"ggggggggggggggggggggggggggggggggggggggggggggggggggggggggggggggggggggggggggggggggggggggggggggggggggggggggggggggggggggggggggggggggggggggggggggggggggg",
"ggggggggggggggggggggggggggggggggggggggggggggggggggggggggggggggggggggggggggggggggggggggggggggggggggggggggggggggggggggggggggggggggggggggggggggggggggg",
"ggggggggggggggggggggggggggggggggggggggggggggggggggggggggggggggggggggggggggggggggggggggggggggggggggggggggggggggggggggggggggggggggggggggggggggggggggg",
"ggggggggggggggggggggggggggggggggggggggggggggggggggggggggggggggggggggggggggggggggggggggggggggggggggggggggggggggggggggggggggggggggggggggggggggggggggg",
"ggggggggggggggggggggggggggggggggggggggggggggggggggggggggggggggggggggggggggggggggggggggggggggggggggggggggggggggggggggggggggggggggggggggggggggggggggg",
"ggggggggggggggggggggggggggggggggggggggggggggggggggggggggggggggggggggggggggggggggggggggggggggggggggggggggggggggggggggggggggggggggggggggggggggggggggg",
"ggggggggggggggggggggggggggggggggggggggggggggggggggggggggggggggggggggggggggggggggggggggggggggggggggggggggggggggggggggggggggggggggggggggggggggggggggg",
"ggggggggggggggggggggggggggggggggggggggggggggg5ggggggggggggggggggggggggggggggggggggggggggggggggggggggggggggggggggggggggggggggggggggggggggggggggggggg",
"ggggggggggggggggggggggggggggggggggggggggggggg9ggggggggggggggggggggggggggggggggggggggggggggggggggggggggggggggggggggggggggggggggggggggggggggggggggggg",
"gggggggggggggggggggggggggggggggggggggggggggg*B5gggggggggggggggggggggggggggggggggggggggggggggggggggggggggggggggggggggggggggggggggggggggggggggggggggg",
"ggggggggggggggggggggggggggggggggggggggggggg$;x8gggggggggggggggggggggggggggggggggggggggggggggggggggggggggggggggggggggggggggggggggggggggggggggggggggg",
"gggggggggggggggggggggggggggggggggggggggg*g$-,hl5ggggggggggggggggggggggggggggggggggggggggggggggggggggggggggggggggggggggggggggggggggggggggggggggggggg",
"ggggggggggggggggggggggggggggggggggggggg* $+=58h8ggggggggggggggggggggggggggggggggggggggggggggggggggggggggggggggggggggggggggggggggggggggggggggggggggg",
"ggggggggggggggggggggggggggggggggggggg3378hll98775gggggggggggggggggggggggggggggggggggggggggggggggggggggggggggggggggggggggggggggggggggggggggggggggggg",
"ggggggggggggggggggggggggggggggggggg5<11158789jjjj8ggggggggggggggggggggggggggggggggggggggggggggggggggggggggggggggggggggggggggggggggggggggggggggggggg",
"gggggggggggggggggggggggggggggggggg5<###%%15422457jlxNkggggggggggggggggggggggggggggggggggggggggggggggggggggggggggggggggggggggggggggggggggggggggggggg",
"ggggggggggggggggggggggggggggggggg5<%   o%%121<<<2358zNggggggggggggggggggggggggggggggggggggggggggggggggggggggggggggggggggggggggggggggggggggggggggggg",
"ggggggggggggggggggggggggggggggggtpaarq>;o%#1<*&**<259x9gggggggggggggggggggggggggggggggggggggggggggggggggggggggggggggggggggggggggggggggggggggggggggg",
"ggggggggggggggggggggggggggggggtpadddddie:o%o1&@@%%*16l9gggggggggggggggggggggggggggggggggggggggggggggggggggggggggggggggggggggggggggggggggggggggggggg",
"ggggggggggggggggggggggggggggtpuiassddffdp,o%o%&@=@%*476baaagggggggggggggggggggggggggggggggggggggggggggggggggggggggggggggggggggggggggggggggggggggggg",
"gggggggggggggggggggggggggggtuuaapasdfffcdpqo%o%@=-=@<34nnnvvaaggggggggggggggggggggggggggggggggggggggggggggggggggggggggggggggggggggggggggggggggggggg",
"ggggggggggggggggggggggggggtuuaaaaaasdffcvvdr*oo%@=--=2<mmnnnmbvapgggggggggggggggggggggggggggggggggggggggggggggggggggggggggggggggggggggggggggggggggg",
"gggggggggggggggggggggggggtuuiaassaasdfcvvnvdyo o$@;:-4wnnbnnnnvvvdpgggggggggggggggggggggggggggggggggggggggggggggggggggggggggggggggggggggggggggggggg",
"ggggggggggggggggggggggggtuuiaaasssssfffvvnnnda# o+=:=1ybbbbbnbvvbnbspgggggggggggggggggggggggggggggggggggggggggggggggggggggggggggggggggggggggggggggg",
"gggggggggggggggggggggggttuuiiaadsddffffcvnMMMbao #@=@*pvbvvbvvfffvvnviugggggggggggggggggggggggggggggggggggggggggggggggggggggggggggggggggggggggggggg",
"ggggggggggggggggggggggequuiiiaaddffffvvvdvnMMmvwo OO&wsvvvffdaasdfvnbaiuggggggggggggggggggggggggggggggggggggggggggggggggggggggggggggggggggggggggggg",
"ggggggggggggggggggggge,truuuiaasddaafvvnvsfvMMndwoO&1yddaatuddvvbbnvfaiiggggggggggggggggggggggggggggggggggggggggggggggggggggggggggggggggggggggggggg",
"ggggggggggggggggggggq-quuuutipaspaiiadvvvdpfvnnnaoO1yaapttdvvbbbbbvvdiiurgggggggggggggggggggggggggggggggggggggggggggggggggggggggggggggggggggggggggg",
"ggggggggggggggggggge-,qturriiaaasffpttiacvspvvbmmpapaaittdffvvnnnvvdpter0gggggggggggggggggggggggggggggggggggggggggggggggggggggggggggggggggggggggggg",
"ggggggggggggggggggg:,qqtuuriaaasiisbsiewifbppvvvvbbbvsdasssfvnnbbvddue00+gggggggggggggggggggggggggggggggggggggggggggggggggggggggggggggggggggggggggg",
"gggggggggggggggggg:,qqeruttuiiaaasiipsptwiyyfsadvvnnnnnbvvvvfvvvvffvsiyq=gggggggggggggggggggggggggggggggggggggggggggggggggggggggggggggggggggggggggg",
"ggggggggggggggggg,-,qqerturuiiasasitupsprrpaaasvvnnnMMMnbbbbvvvvvcvnbdmfiaggggggggggggggggggggggggggggggggggggggggggggggggggggggggggggggggggggggggg",
"gggggggggggggggg-->qqqqqruutipppssiteurwuyuasffvnnnnMMMnnbvnnnvvvvvvvfvdddsaggggggggggggggggggggggggggggggggggggggggggggggggggggggggggggggggggggggg",
"ggggggggggggggg>=,>qeteteriutippssie>wyuuuadfffvvvvnMMMmnbbnnnnvnnnvvvvfvvvvbgggggggggggggggggggggggggggggggggggggggggggggggggggggggggggggggggggggg",
"ggggggggggggggw-:,,qtrrtrriuyipasuutwuupssdfddddfvvnMMMMnnnnnnnnnnnnvvvvvvvvbbggggggggggggggggggggggggggggggggggggggggggggggggggggggggggggggggggggg",
"gggggggggggggg-=,,0eerttrtttiuaauuutupasddfddccvvvnMMMMMMnbbnnbnnnnnnvvvvvvvbnvgggggggggggggggggggggggggggggggggggggggggggggggggggggggggggggggggggg",
"ggggggggggggg@@>,,0eeertiiitiaaapuuupaddddddccvbbbnMMMMMMnbbbbbbbbbbbbbbbvvvvnvdggggggggggggggggggggggggggggggggggggggggggggggggggggggggggggggggggg",
"gggggggggggg>@:,q>qreeetttiiiaapiuuaadddddffvvbbbnnMMMMnvvvbbbbbvffffvvvccvvcccdggggggggggggggggggggggggggggggggggggggggggggggggggggggggggggggggggg",
"gggggggggggw&->qqqeeeqetiutiiiapiipadddffffvvvvbbvnnnnnvfffvvvvdfdassssfddssdddaggggggggggggggggggggggggggggggggggggggggggggggggggggggggggggggggggg",
"gggggggggg,@-,qqqqeeqerrtuiiiuappppaddfcccvvvvvvvvvbbvffdddddddpauuittiaaaappaurggggggggggggggggggggggggggggggggggggggggggggggggggggggggggggggggggg",
"ggggggggg>@-->qeeeeqrrretiiuaaaapaaaddcccbbbbbvvvvvvfddaaaaaaaaureq0qertttuiiuq=ggggggggggggggggggggggggggggggggggggggggggggggggggggggggggggggggggg",
"gggggggt:@,>:>qerrqqrtttuiaaaaassaddfccvvvbvvvvvvvdddpauuiiittee,>:;:0q00eyiuq@gggggggggggggggggggggggggggggggggggggggggggggggggggggggggggggggggggg",
"ggggggt>@-,0,0etuuqquttiipappssdddfcccvvvvvvvvcvcdppauittteeq0::;===->::,euuq@-gggggggggggggggggggggggggggggggggggggggggggggggggggggggggggggggggggg",
"gggggq,@-,eqqqerutqrutiauaaiadddddfcccvvvvvvvcsdddauutteee00:==@@@@&&=@,qee:+-ggggggggggggggggggggggggggggggggggggggggggggggggggggggggggggggggggggg",
"gggg---->qqreerrreruutupuuuppdddccffccvvvvvvccsdppauitre,:::=@O$$$$$$+@----XXgggggggggggggggggggggggggggggggggggggggggggggggggggggggggggggggggggggg",
"gg>--:>,qeqtrrttreiiiuaaaaaaaasdcccccvvvvvvccccddiutrrre,-@@@$OXXXX$$$+@&&$.ggggggggggggggggggggggggggggggggggggggggggggggggggggggggggggggggggggggg",
"g::-,,0qrqrtretttuiiiiiaaaapddsdcvvvvvvccccccddaaiteq0,q0:@$$$+XXXO$$+++@@X.ggggggggggggggggggggggggggggggggggggggggggggggggggggggggggggggggggggggg",
">q,:,qqwqwrutruuiiittuuuuadsdfdaccffffvccccsadaiiuut,:=---&++++$XXXXO$$$$+.+ggggggggggggggggggggggggggggggggggggggggggggggggggggggggggggggggggggggg"
};
