/* XPM */
static char *result[] = {
/* columns rows colors chars-per-pixel */
"147 76 39 1 ",
"  c #1F170B",
". c #2B230F",
"X c #332B13",
"o c #3F2F17",
"O c #272727",
"+ c #4B371B",
"@ c #533F1F",
"# c #5F4323",
"$ c #6B4727",
"% c #774F2B",
"& c #7F532F",
"* c #875733",
"= c #8F5F37",
"- c #9B633B",
"; c #A36B3F",
": c #AB6F43",
"> c #B37347",
", c #BF7B4B",
"< c #CB7F4F",
"1 c #CF8353",
"2 c #D78B5B",
"3 c #DF9363",
"4 c #E79B6B",
"5 c #EFA373",
"6 c #F7AB7B",
"7 c none",
"8 c #FFB383",
"9 c #FFBB93",
"0 c #FFBF9B",
"q c #FFC79B",
"w c #FFCFB3",
"e c #FFD3BB",
"r c #FFD7BB",
"t c #FFDBC7",
"y c #FFE3D3",
"u c #FFEBDB",
"i c #FFEBDF",
"p c #E7E7E7",
"a c #EFEFEF",
/* pixels */
"777777777777777777777777777777777777777777777777777777777777777777777777777777777777777777777777777777777777777777777777777777777777777777777777777",
"777777777777777777777777777777777777777777777777777777777777777777777777777777777777777777777777777777777777777777777777777777777777777777777777777",
"777777777777777777777777777777777777777777777777777777777777777777777777777777777777777777777777777777777777777777777777777777777777777777777777777",
"777777777777777777777777777777777777777777777777777777777777777777777777777777777777777777777777777777777777777777777777777777777777777777777777777",
"777777777777777777777777777777777777777777777777777777777777777777777777777777777777777777777777777777777777777777777777777777777777777777777777777",
"777777777777777777777777777777777777777777777777777777777777777777777777777777777777777777777777777777777777777777777777777777777777777777777777777",
"777777777777777777777777777777777777777777777777777777777777777777777777777777777777777777777777777777777777777777777777777777777777777777777777777",
"777777777777777777777777777777777777777777777777777777777777777777777777777777777777777777777777777777777777777777777777777777777777777777777777777",
"777777777777777777777777777777777777777777777777777777777777777777777777777777777777777777777777777777777777777777777777777777777777777777777777777",
"777777777777777777777777777777777777777777777777777777777777777777777777777777777777777777777777777777777777777777777777777777777777777777777777777",
"777777777777777777777777777777777777777777777777777777777777777777777777777777777777777777777777777777777777777777777777777777777777777777777777777",
"777777777777777777777777777777777777777777777777777777777777777777777777777777777777777777777777777777777777777777777777777777777777777777777777777",
"777777777777777777777777777777777777777777777777777777777777777777777777777777777777777777777777777777777777777777777777777777777777777777777777777",
"777777777777777777777777777777777777777777777777777777777777777777777777777777777777777777777777777777777777777777777777777777777777777777777777777",
"777777777777777777777777777777777777777777777777777777777777777777777777777777777777777777777777777777777777777777777777777777777777777777777777777",
"777777777777777777777777777777777777777777777777777777777777777777777777777777777777777777777777777777777777777777777777777777777777777777777777777",
"777777777777777777777777777777777777777777777777777777777777777777777777777777777777777777777777777777777777777777777777777777777777777777777777777",
"777777777777777777777777777777777777777777777777777777777777777777777777777777777777777777777777777777777777777777777777777777777777777777777777777",
"777777777777777777777777777777777777777777777777777777777777777777777777777777777777777777777777777777777777777777777777777777777777777777777777777",
"777777777777777777777777777777777777777777777777777777777777777777777777777777777777777777777777777777777777777777777777777777777777777777777777777",
"777777777777777777777777777777777777777777777777777777777777777777777777777777777777777777777777777777777777777777777777777777777777777777777777777",
"777777777777777777777777777777777777777777777777777777777777777777777777777777777777777777777777777777777777777777777777777777777777777777777777777",
"777777777777777777777777777777777777777777777777777777777777777777777777777777777777777777777777777777777777777777777777777777777777777777777777777",
"777777777777777777777777777777777777777777777777777777777777777777777777777777777777777777777777777777777777777777777777777777777777777777777777777",
"777777777777777777777777777777777777777777777777777777777777777777777777777777777777777777777777777777777777777777777777777777777777777777777777777",
"777777777777777777777777777777777777777777777777777777777777777777777777777777777777777777777777777777777777777777777777777777777777777777777777777",
"777777777777777777777777777777777777777777777777777777777777777777777777777777777777777777777777777777777777777777777777777777777777777777777777777",
"777777777777777777777777777777777777777777777777777777777777777777777777777777777777777777777777777777777777777777777777777777777777777777777777777",
"777777777777777777777777777777777777777777777777777777777777777777777777777777777777777777777777777777777777777777777777777777777777777777777777777",
"777777777777777777777777777777777777777777777777777777777777777777777777777777777777777777777777777777777777777777777777777777777777777777777777777",
"777777777777777777777777777777777777777777777777777777777777777777777777777777777777777777777777777777777777777777777777777777777777777777777777777",
"777777777777777777777777777777777777777777777777777777777777777777777777777777777777777777777777777777777777777777777777777777777777777777777777777",
"777777777777777777777777777777777777777777777777777777777777777777777777777777777777777777777777777777777777777777777777777777777777777777777777777",
"777777777777777777777777777777777777777777777777777777777777777777777777777777777777777777777777777777777777777777777777777777777777777777777777777",
"777777777777777777777777777777777777777777777777777777777777777777777777777777777777++++%7777777777777777777777777777777777777777777777777777777777",
"7777777777777777777777777777777777777777777777777777777777777777777=*%%-77777777777+@@o+++-77777777777777777777777777777777777777777777777777777777",
"777777777777777777777777777777777777777777777777777777777777777777%%$$@+@@%77777777@@@$%&%$++=77777777777777777777777777777777777777777777777777777",
"777777777777777777777777777777777777777777777777777777777777777777%$&%$@@@@@&777777X@$*===&&&$$+-77777777777777777777777777777777777777777777777777",
"777777777777777777777777777777777777777777777777777777777777777777$@&*&&$@@@@@77777X@$*&&&&=&&$#@@$#%7777777777777777777777777777777777777777777777",
"777777777777777777777777777777777777777777777777777777777777777777$@$*====&$@@@+&777X@@**===:>>>>11>-&&-7777777777777777777777777777777777777777777",
"777777777777777777777777777777777777777777777777777777777777777777$+@**====&&&$$@@$77X+%%*=;>1333323>--%&777777777777777777777777777777777777777777",
"7777777777777777777777777777777777777777777777777777777777777777777.+@***==&&====$$@##X+@$*;>1333223,>::-&77777777777777777777777777777777777777777",
"77777777777777777777777777777777777777777777777777777777777777777777.o$**=====-:::=&*==@+#@=>,2435532,,,--&7777777777777777777777777777777777777777",
"777777777777777777777777777777777777777777777777777777777777777777777.+$**===::>,,>:&*:=#++$->13355652331,&&777777777777777777777777777777777777777",
"7777777777777777777777777777777777777777777777777777777777777777777777o.$**=;>>,<<,>:**==#++*-,35566554433,&&77777777777777777777777777777777777777",
"777777777777777777777777777777777777777777777777777777777777777777777777+%%*->,11<<,>:=*==&@@*:135666654434>=%-==#:77777777777777777777777777777777",
"7777777777777777777777777777777777777777777777777777777777777777777777777+@&->,1111<,>:;=:**$@=,3456889888841>:w05,@=777777777777777777777777777777",
"77777777777777777777777777777777777777777777777777777777777777777777777777X@*->,111<,>,,>>=--$$:1356899999986411q95:@#77777777777777777777777777777",
"777777777777777777777777777777777777777777777777777777777777777777777777777.@*->,1,121,1<,>-:=%*-,358999999998644q961@#7777777777777777777777777777",
"7777777777777777777777777777777777777777777777777777777777777777777777777777X@&->,1133,211,,>>>-=-1589999989998663q9q5@#777777777777777777777777777",
"77777777777777777777777777777777777777777777777777777777777777777777777777777.@*->,12332211332111;-3698666688999881q9q9:=77777777777777777777777777",
"777777777777777777777777777777777777777777777777777777777777777777777777777777.#&-><122233543445541,124455666999988439qq,=7777777777777777777777777",
"7777777777777777777777777777777777777777777777777777777777777777777777777777777X@*->11233344455554441,:,135566899qqq05596,7777777777777777777777777",
"77777777777777777777777777777777777777777777777777777777777777777777777777777777+#&->>1333455555566665553355890qryyrwqq943:777777777777777777777777",
"777777777777777777777777777777777777777777777777777777777777777777777777777777777.%&-,1345555565699999009666699qeuupur0qq42;77777777777777777777777",
"7777777777777777777777777777777777777777777777777777777777777777777777777777777777@$*>1244555556900q00qr099689qqeuppapwrwe9,;7777777777777777777777",
"77777777777777777777777777777777777777777777777777777777777777777777777777777777777#*-,24445555699qrwwwwtrq0999qeeuppputrre9,,>77777777777777777777",
"777777777777777777777777777777777777777777777777777777777777777777777777777777777777@*>2244555699qeeetyyeeeq99q9qqeyuppueqqeq33*&777777777777777777",
"7777777777777777777777777777777777777777777777777777777777777777777777777777777777777#-,244455699qreeyyyyyeeqqqwqqeeeyyuyr9qq965:=77777777777777777",
"7777777777777777777777777777777777777777777777777777777777777777777777777777777777777@*>24435690qeeeyuuiuuyyeewweqeee9ryueq8999665,7777777777777777",
"77777777777777777777777777777777777777777777777777777777777777777777777777777777777777#;22444569qreeyyuiiiiuyeeweqew9qqeyyq869996591:77777777777777",
"77777777777777777777777777777777777777777777777777777777777777777777777777777777777777+*>2444590wteeyuuiiiiiuyeqerqee9were9r8q999595,-7777777777777",
"777777777777777777777777777777777777777777777777777777777777777777777777777777777777777#;,244590qeeyyuiiiiiiuuyqeqwqrwwweeerq9966964,,*777777777777",
"777777777777777777777777777777777777777777777777777777777777777777777777777777777777777+*;,44569qweyuuuuuiiiyuuyeeqweqqqeqerq9898q6345,:77777777777",
"7777777777777777777777777777777777777777777777777777777777777777777777777777777777777777#*>24569qqetyyuuuuuuyuuuyeeeqqeeqe9qeq8696952641=*777777777",
"7777777777777777777777777777777777777777777777777777777777777777777777777777777777777777+*>144699qwtyyuuyuuuyuyuuyeeqqeq9q9te998699556534=@77777777",
"777777777777777777777777777777777777777%&=****@$$7777777777777777777777777777777777777777@;335699qeetyuuyuuyyuyyuute9e9qe9eeqeq998966452>1:@7777777",
"7777777777777777777777777777777777777&=;,2332,;;=*@@7777777777777777777777777777777777777@=34569qqwetyyuyuyyuuyyuyyteqee9reqeeq9566q9533511*=777777",
"777777777777777777777777777777777777%>143666333,;;;=*@#7777777777777777777777777777777777@=154699qqeetyyyuuyyuyyuyyyyreqwqqwet9q8898q55641:,=777777",
"77777777777777777777777777777777777$=1621232111333,,;;=*@77777777777777777777777777777777@*145589qqwettyyyyyuyuyyuuyttq9q9rtee9wq8895q95343,:#77777",
"7777777777777777777777777777777777@*:42,<1232;11111,<>>:=*%777777777777777777777777777777@*>35699qqweettyuuyyuuuyuuutqeqq9tee9eee6569q966443:=#7777",
"7777777777777777777777777777777777+*,,>>>::::*>>><<<123311:*@7777777777777777777777777777@=1356999qeeeettuyyyyuyyuuyterewwweweeerq49qqq655241,&.777",
"7777777777777777777777777777777777o$;;;;;===%#*,;>>225664322>*&77777777777777777777777777#=1456999qweeeetyyyyuyyyyuttueteqeweeqeeqq86999q531,,>&+77",
"7777777777777777777777777777777777o+******&#%#*>,-::125554432>=%%777777777777777777777777@:2559899qqeeeeetytyytytytyquqttweqqeeqrteq69q99963,::=&o7",
"77777777777777777777777777777777777.o@@@@@@+$+&>,;;:>,134554311;=%*777777777777777777777&@13566999qqeeeeetttyyyyytytet9tteqqeewqette8998999q31::=.7",
"777777777777777777777777777777777777O oooooo+.%;,;;::>,112344311>:*#7777777777777777777#*$13568999qqweeeqeetytytyyttetqteeqteqeeeete89qqq9q4621>=@."
};
