/* XPM */
static char *_83a69c3d91e49c983a295e101661f3fAH78V0Qi72k64nxi[] = {
/* columns rows colors chars-per-pixel */
"100 100 21 1 ",
"  c #1F170B",
". c #430000",
"X c #4F0000",
"o c #5B0000",
"O c #670000",
"+ c #730000",
"@ c #7F0000",
"# c #675333",
"$ c #8B0000",
"% c #9B0000",
"& c #A70000",
"* c #B30000",
"= c #BF0000",
"- c #CB0000",
"; c #D70000",
": c #E30000",
"> c #EF0000",
", c red",
"< c #FF1F1F",
"1 c #FF3F3F",
"2 c black",
/* pixels */
"2222222222222222222222222222222222222222222222222222222222222222222222222222222222222222222222222222",
"2222222222222222222222222222222222222222222222222222222222222222222222222222222222222222222222222222",
"2222222222222222222222222222222222222222222222222222222222222222222222222222222222222222222222222222",
"2222222222222222222222222222222222222222222222222222222222222222222222222222222222222222222222222222",
"2222222222222222222222222222222222222222222222222222222222222222222222222222222222222222222222222222",
"2222222222222222222222222222222222222222222222222222222222222222222222222222222222222222222222222222",
"2222222222222222222222222222222222222222222222222222222222222222222222222222222222222222222222222222",
"2222222222222222222222222222222222222222222222222222222222222222222222222222222222222222222222222222",
"2222222222222222222222222222222222222222222222222222222222222222222222222222222222222222222222222222",
"2222222222222222222222222222222222222222222222222222222222222222222222222222222222222222222222222222",
"2222222222222222222222222222222222222222222222222222222222222222222222222222222222222222222222222222",
"2222222222222222222222222222222222222222222222222222222222222222222222222222222222222222222222222222",
"2222222222222222222222222222222222222222222222222222222222222222222222222222222222222222222222222222",
"2222222222222222222222222222222222222222222222222222222222222222222222222222222222222222222222222222",
"2222222222222222222222222222222222222222222222222222222222222222222222222222222222222222222222222222",
"2222222222222222222222222222222222222222222222222222222222222222222222222222222222222222222222222222",
"2222222222222222222222222222222222222222222222222222222222222222222222222222222222222222222222222222",
"2222222222222222222222222222222222222222222222222222222222222222222222222222222222222222222222222222",
"2222222222222222222222222222222222222222222222222222222222222222222222222222222222222222222222222222",
"2222222222222222222222222222222222222222222222222222222222222222222222222222222222222222222222222222",
"2222222222222222222222222222222222222222222222222222222222222222222222222222222222222222222222222222",
"2222222222222222222222222222222222222222222222222222222222222222222222222222222222222222222222222222",
"2222222222222222222222222222222222222222222222222222222222222222222222222222222222222222222222222222",
"2222222222222222222222222222222222222222222222222222222222222222222222222222222222222222222222222222",
"2222222222222222222222222222222222222222222222222222222222222222222222222222222222222222222222222222",
"2222222222222222222222222222222222222222222222222222222222222222222222222222222222222222222222222222",
"2222222222222222222222222222222222222222222222222222222222222222222222222222222222222222222222222222",
"2222222222222222222222222222222222222222222222222222222222222222222222222222222222222222222222222222",
"2222222222222222222222222222222222222222222222222222222222222222222222222222222222222222222222222222",
"2222222222222222222222222222222222222222222222222222222222222222222222222222222222222222222222222222",
"2222222222222222222222222222222222222222222222222222222222222222222222222222222222222222222222222222",
"2222222222222222222222222222222222222222222222222222222222222222222222222222222222222222222222222222",
"2222222222222222222222222222222222222222222222222222222222222222222222222222222222222222222222222222",
"2222222222222222222222222222222222222222222222222222222222222222222222222222222222222222222222222222",
"2222222222222222222222222222222222222222222222222222222222222222222222222222222222222222222222222222",
"222222222222222222222222222222222222222222222222222OO2O+O2222222222222222222222222222222222222222222",
"22222222222222222222222222222222222222222222@@22222@O2+%@2222222222222222222222222222222222222222222",
"2222222222222222222222222222222222222222222+%%@222X222++O2222222222222222222222222222222222222222222",
"222222222222222222222222222222222222222@%22@%&%%%+@222222+222222222222222222222222222222222222222222",
"222222222222222222222222222222222222222@%@22O%&%%@%@O2O++@&%+222222222222222222222222222222222222222",
"2222222222222222222222222222222222222222%@2*#**:::**$*%+@=:=%222222222222222222222222222222222222222",
"222222222222222222222222222222222222.222%$=$%*:,,,,:**$%%-::%222222222222222222222222222222222222222",
"222222222222222222222222222222222222222***%*&,:,,,,,:::O@*->+222222222222222222222222222222222222222",
"222222222222222222222222222222222222222*-**--:::,,,>-:;-&%>@&222222222222222222222222222222222222222",
"22222222222222222222222222222222222222+*=%=-:=:::,:>:-&::%%:&+22222222222222222222222222222222222222",
"222222222222222222222222222222222222222O,=$::=--:1:---*O=&%%=@22222222222222222222222222222222222222",
"22222222222222222222222222222222222222O=%@%*-==::,1,:*&.:=:%%%X2222222222222222222222222222222222222",
"222222222222222222222222222222222222@%%$%=***===:<<,,:*&-=:$%@22222222222222222222222222222222222222",
"222222222222222222222222222222222222%$$***=:*===:<,,::--:=**$@@2222222222222222222222222222222222222",
"222222222222222222222222222222222222%&*=---****=>,<,;:::-----*=&222222222222222222222222222222222222",
"222222222222222222222222222222222222+@>:;;=*--*%-;,;%=::--;;;>*@222222222222222222222222222222222222",
"2222222222222222222222222222222222222*,,>:->@=-@::;-=:%->-:>,,*%+22222222222222222222222222222222222",
"2222222222222222222222222222222222222*,>*->>X*=*-%&,:=O%-*-:>,*+222222222222222222222222222222222222",
"22222222222222222222222222222222222222=:-;-*%%*&-=@*=;;%*=;-;=&&222222222222222222222222222222222222",
"2222222222222222222222222222222222222O*-***&%$+,;%@=;*=@$$**-+22222222222222222222222222222222222222",
"222222222222222222222222222222222222OO$-*=&*@@@:-,@*@$$@@*=-*+22222222222222222222222222222222222222",
"2222222222222222222222222222222222222O+$$*=@+++-%@*%@$o@:=**$+22222222222222222222222222222222222222",
"22222222222222222222222222222222222222OOo;:@+++$+%*$$$ ++++o+222222222222222222222222222222222222222",
"222222222222222222222222222222222222X22222+@@O@++++++++++@222222222222222222222222222222222222222222",
"222222222222222222222222222222222222222222O++2OO@@+OO22@@%@@2222222222222222222222222222222222222222",
"2222222222222222222222222222222222222222222OO2O+%%@OX22@%%%@2O22222222222222222222222222222222222222",
"22222222222222222222222222222222222222O+222222@%%@2222@%%&222222222222222222222222222222222222222222",
"22222222222222222222222222222222222222XO222+@22@@222+22@@2222222222222222222222222222222222222222222",
"2222222222222222222222222222222222222222222O+%%22222222222222222222222222222222222222222222222222222",
"2222222222222222222222222222222222222222222O@&%222O2222222222222222222222222222222222222222222222222",
"2222222222222222222222222222222222222222222222222222222222222222222222222222222222222222222222222222",
"2222222222222222222222222222222222222222222222222222222222222222222222222222222222222222222222222222",
"2222222222222222222222222222222222222222222222222222222222222222222222222222222222222222222222222222",
"2222222222222222222222222222222222222222222222222222222222222222222222222222222222222222222222222222",
"2222222222222222222222222222222222222222222222222222222222222222222222222222222222222222222222222222",
"2222222222222222222222222222222222222222222222222222222222222222222222222222222222222222222222222222",
"2222222222222222222222222222222222222222222222222222222222222222222222222222222222222222222222222222",
"2222222222222222222222222222222222222222222222222222222222222222222222222222222222222222222222222222",
"2222222222222222222222222222222222222222222222222222222222222222222222222222222222222222222222222222",
"2222222222222222222222222222222222222222222222222222222222222222222222222222222222222222222222222222",
"2222222222222222222222222222222222222222222222222222222222222222222222222222222222222222222222222222",
"2222222222222222222222222222222222222222222222222222222222222222222222222222222222222222222222222222",
"2222222222222222222222222222222222222222222222222222222222222222222222222222222222222222222222222222",
"2222222222222222222222222222222222222222222222222222222222222222222222222222222222222222222222222222",
"2222222222222222222222222222222222222222222222222222222222222222222222222222222222222222222222222222",
"2222222222222222222222222222222222222222222222222222222222222222222222222222222222222222222222222222",
"2222222222222222222222222222222222222222222222222222222222222222222222222222222222222222222222222222",
"2222222222222222222222222222222222222222222222222222222222222222222222222222222222222222222222222222",
"2222222222222222222222222222222222222222222222222222222222222222222222222222222222222222222222222222",
"2222222222222222222222222222222222222222222222222222222222222222222222222222222222222222222222222222",
"2222222222222222222222222222222222222222222222222222222222222222222222222222222222222222222222222222",
"2222222222222222222222222222222222222222222222222222222222222222222222222222222222222222222222222222",
"2222222222222222222222222222222222222222222222222222222222222222222222222222222222222222222222222222",
"2222222222222222222222222222222222222222222222222222222222222222222222222222222222222222222222222222",
"2222222222222222222222222222222222222222222222222222222222222222222222222222222222222222222222222222",
"2222222222222222222222222222222222222222222222222222222222222222222222222222222222222222222222222222",
"2222222222222222222222222222222222222222222222222222222222222222222222222222222222222222222222222222",
"2222222222222222222222222222222222222222222222222222222222222222222222222222222222222222222222222222",
"2222222222222222222222222222222222222222222222222222222222222222222222222222222222222222222222222222",
"2222222222222222222222222222222222222222222222222222222222222222222222222222222222222222222222222222",
"2222222222222222222222222222222222222222222222222222222222222222222222222222222222222222222222222222",
"2222222222222222222222222222222222222222222222222222222222222222222222222222222222222222222222222222",
"2222222222222222222222222222222222222222222222222222222222222222222222222222222222222222222222222222",
"2222222222222222222222222222222222222222222222222222222222222222222222222222222222222222222222222222",
"2222222222222222222222222222222222222222222222222222222222222222222222222222222222222222222222222222"
};
