/* XPM */
static char *result[] = {
/* columns rows colors chars-per-pixel */
"100 100 41 1 ",
"  c #070707",
". c #131313",
"X c #3F2B1B",
"o c #430000",
"O c #4F0000",
"+ c #5B0000",
"@ c #5B0707",
"# c #670000",
"$ c #730000",
"% c #7F0000",
"& c #771717",
"* c #533F2F",
"= c #67533F",
"- c #8B0000",
"; c #9B0000",
": c #A70000",
"> c #B30000",
", c #BF0000",
"< c #9F3700",
"1 c #CB0000",
"2 c #D70000",
"3 c #E30000",
"4 c #EF0000",
"5 c red",
"6 c #FF3F3F",
"7 c #9B5B13",
"8 c #AF4300",
"9 c #B74700",
"0 c #C34F00",
"q c #CB5707",
"w c #D75F0B",
"e c #DF670F",
"r c #EB6F0F",
"t c #F37317",
"y c #FF7F1B",
"u c #C39B2F",
"i c #FF8F3B",
"p c #D78B5B",
"a c #D7BB43",
"s c #FFFF73",
"d c black",
/* pixels */
"dddddddddddddddddddddddddddddddddddddddddddddddddddddddddddddddddddddddddddddddddddddddddddddddddddd",
"dddddddddddddddddddddddddddddddddddddddddddddddddddddddddddddddddddddddddddddddddddddddddddddddddddd",
"dddddddddddddddddddddddddddddddddddddddddddddddddddddddddddddddddddddddddddddddddddddddddddddddddddd",
"dddddddddddddddddddddddddddddddddddddddddddddddddddddddddddddddddddddddddddddddddddddddddddddddddddd",
"dddddddddddddddddddddddddddddddddddddddddddddddddddddddddddddddddddddddddddddddddddddddddddddddddddd",
"dddddddddddddddddddddddddddddddddddddddddddddddddddddddddddddddddddddddddddddddddddddddddddddddddddd",
"dddddddddddddddddddddddddddddddddddddddddddddddddddddddddddddddddddddddddddddddddddddddddddddddddddd",
"dddddddddddddddddddddddddddddddddddddddddddddddddddddddddddddddddddddddddddddddddddddddddddddddddddd",
"dddddddddddddddddddddddddddddddddddddddddddddddddddddddddddddddddddddddddddddddddddddddddddddddddddd",
"dddddddddddddddddddddddddddddddddddddddddddddddddddddddddddddddddddddddddddddddddddddddddddddddddddd",
"dddddddddddddddddddddddddddddddddddddddddddddddddddddddddddddddddddddddddddddddddddddddddddddddddddd",
"dddddddddddddddddddddddddddddddddddddddddddddddddddddddddddddddddddddddddddddddddddddddddddddddddddd",
"dddddddddddddddddddddddddddddddddddddddddddddddddddddddddddddddddddddddddddddddddddddddddddddddddddd",
"dddddddddddddddddddddddddddddddddddddddddddddddddddddddddddddddddddddddddddddddddddddddddddddddddddd",
"dddddddddddddddddddddddddddddddddddddddddddddddddddddddddddddddddddddddddddddddddddddddddddddddddddd",
"dddddddddddddddddddddddddddddddddddddddddddddddddddddddddddddddddddddddddddddddddddddddddddddddddddd",
"dddddddddddddddddddddddddddddddddddddddddddddddddddddddddddddddddddddddddddddddddddddddddddddddddddd",
"dddddddddddddddddddddddddddddddddddddddddddddddddddddddddddddddddddddddddddddddddddddddddddddddddddd",
"dddddddddddddddddddddddddddddddddddddddddddddddddddddddddddddddddddddddddddddddddddddddddddddddddddd",
"dddddddddddddddddddddddddddddddddddddddddddddddddddddddddddddddddddddddddddddddddddddddddddddddddddd",
"dddddddddddddddddddddddddddddddddddddddddddddddddddddddddddddddddddddddddddddddddddddddddddddddddddd",
"dddddddddddddddddddddddddddddddddddddddddddddddddddddddddddddddddddddddddddddddddddddddddddddddddddd",
"dddddddddddddddddddddddddddddddddddddddddddddddddddddddddddddddddddddddddddddddddddddddddddddddddddd",
"dddddddddddddddddddddddddddddddddddddddddddddddddddddddddddddddddddddddddddddddddddddddddddddddddddd",
"dddddddddddddddddddddddddddddddddddddddddddddddddddddddddddddddddddddddddddddddddddddddddddddddddddd",
"dddddddddddddddddddddddddddddddddddddddddddddddddddddddddddddddddddddddddddddddddddddddddddddddddddd",
"dddddddddddddddddddddddddddddddddddddddddddddddddddddddddddddddddddddddddddddddddddddddddddddddddddd",
"dddddddddddddddddddddddddddddddddddddddddddddddddddddddddddddddddddddddddddddddddddddddddddddddddddd",
"dddddddddddddddddddddddddddddddddddddddddddddddddddddddddddddddddddddddddddddddddddddddddddddddddddd",
"dddddddddddddddddddddddddddddddddddddddddddddddddddddddddddddddddddddddddddddddddddddddddddddddddddd",
"dddddddddddddddddddddddddddddddddddddddddddddddddddddddddddddddddddddddddddddddddddddddddddddddddddd",
"dddddddddddddddddddddddddddddddddddddddddddddddddddddddddddddddddddddddddddddddddddddddddddddddddddd",
"dddddddddddddddddddddddddddddddddddddddddddddddddddddddddddddddddddddddddddddddddddddddddddddddddddd",
"dddddddddddddddddddddddddddddddddddddddddddddddddddddddddddddddddddddddddddddddddddddddddddddddddddd",
"ddddddddddddddddddddddddddddddddddddddddddddddddddd##d#$#ddddddddddddddddddddddddddddddddddddddddddd",
"ddddddddddddddddddddddddddddddddddddddddddddddddd%%%##$;%#dddddddddddddddddddddddddddddddddddddddddd",
"ddddddddddddddddddddddddddddddddddddddddddddddd:::Oq%#$$#%dddddddddddddddddddddddddddddddddddddddddd",
"dddddddddddddddddddddddddddddddddddddddddddd:>%,,2%Oqr$$$#dddddddddddddddddddddddddddddddddddddddddd",
"dddddddddddddddddddddddddddddddddddddddddddd22,33,77usa;,,,,$$%:dddddddddddddddddddddddddddddddddddd",
"dddddddddddddddddddddddddddddddddddddddddd4:2;:4:;---,2;;,,,333,,ddddddddddddddddddddddddddddddddddd",
"ddddddddddddddddddddddddddddddddddddddddd;>15>;;4>----25r,3333333;dddddddddddddddddddddddddddddddddd",
"dddddddddddddddddddddddddddddddddddddddd->;23;,4%130w30e-,;:111::$dddddddddddddddddddddddddddddddddd",
"dddddddddddddddddddddddddddddddddddd111d-,;:;;:,;258<%%33qe3:;;%%ddddddddddddddddddddddddddddddddddd",
"ddddddddddddddddddddddddddddddddddd1-12552>;32>,2255>->>X9>-;;$#dddddddddddddddddddddddddddddddddddd",
"dddddddddddddddddddddddddddddddddd%;-:::;>%>2324>233>;>309;;;;#$;,dddddddddddddddddddddddddddddddddd",
"dddddddddddddddddddddddddddddddd%%>2;23,,>%>24,>35>>:-->1;,,;:%$%;;ddddddddddddddddddddddddddddddddd",
"ddddddddddddddddddddddddddddddd%d%53,>;;2%111;124>,,82,,,,%-o;;;:;%ddddddddddddddddddddddddddddddddd",
"ddddddddddddddddddddddddd-%:dd>3>264;2,25>2;>,5565,,>1,363>%%;,:1:;ddddddddddddddddddddddddddddddddd",
"dddddddddddddddddddddd-%441>3d>>:2,;;,4%4%25;:,,4655352,,;%>,;&::;dddddddddddddddddddddddddddddddddd",
"ddddddddddddddddddddd11411%>;;;:,514:;>;>1;;;>2,,411>9qw>>tite0:%#dddddddddddddddddddddddddddddddddd",
"dddddddddddddddddddddd----;;:3;,44>,4>4;41,->3>563>$-,5>->2699*%;$dddddddddddddddddddddddddddddddddd",
"dddddddddddddddddddddddddd-;25>;;:;:515;,;4>>1>1,%;%-2,;>1,3%;43$;dddddddddddddddddddddddddddddddddd",
"dddddddddddddddddddddddddd;;>---4;,>2,2>,%>31;;%>;%-1,:;,:8>%@13,;$ddddddddddddddddddddddddddddddddd",
"dddddddddddddddddddddddddddd;;;----$26,;>145;:3;,:$;::;>8qeq9;%;:,%ddddddddddddddddddddddddddddddddd",
"ddddddddddddddddddddddddddddddd;$+++-$;>%;23523>;$+;,,80eyiit=#$%;$ddddddddddddddddddddddddddddddddd",
"ddddddddddddddddddddddddddddddddddd%++%+%%,->->2;-$$;2:180q03>9$$%$ddddddddddddddddddddddddddddddddd",
"ddddddddddddddddddddddddddddddddddddO%++$O%+$+--$-$$;2:---;;>;%##$dddddddddddddddddddddddddddddddddd",
"ddddddddddddddddddddddddddddddddddddd1%OOoo;$%+$+%%$->++++++%;-ddddddddddddddddddddddddddddddddddddd",
"dddddddddddddddddddddddddddddddddddddddddd%ooO$o$---$;;,1389qetupddddddddddddddddddddddddddddddddddd",
"ddddddddddddddddddddddddddddddddddddddddddd,ooo$%%>%%$$$$$88++3;%d#ddddddddddddddddddddddddddddddddd",
"ddddddddddddddddddddddddddddddddddddddddddddddd#$;;###... $ww3:ddddddddddddddddddddddddddddddddddddd",
"ddddddddddddddddddddddddddddddddddddddddddddddd#%:;dddddd$dd%%dddddddddddddddddddddddddddddddddddddd",
"dddddddddddddddddddddddddddddddddddddddddddddddddddddddddddddddddddddddddddddddddddddddddddddddddddd",
"ddddddddddddddddddddddddddddddddddddddddddddddddddddddd#dddddddddddddddddddddddddddddddddddddddddddd",
"dddddddddddddddddddddddddddddddddddddddddddddddddddddddddddddddddddddddddddddddddddddddddddddddddddd",
"dddddddddddddddddddddddddddddddddddddddddddddddddddddddddddddddddddddddddddddddddddddddddddddddddddd",
"dddddddddddddddddddddddddddddddddddddddddddddddddddddddddddddddddddddddddddddddddddddddddddddddddddd",
"dddddddddddddddddddddddddddddddddddddddddddddddddddddddddddddddddddddddddddddddddddddddddddddddddddd",
"dddddddddddddddddddddddddddddddddddddddddddddddddddddddddddddddddddddddddddddddddddddddddddddddddddd",
"dddddddddddddddddddddddddddddddddddddddddddddddddddddddddddddddddddddddddddddddddddddddddddddddddddd",
"dddddddddddddddddddddddddddddddddddddddddddddddddddddddddddddddddddddddddddddddddddddddddddddddddddd",
"dddddddddddddddddddddddddddddddddddddddddddddddddddddddddddddddddddddddddddddddddddddddddddddddddddd",
"dddddddddddddddddddddddddddddddddddddddddddddddddddddddddddddddddddddddddddddddddddddddddddddddddddd",
"dddddddddddddddddddddddddddddddddddddddddddddddddddddddddddddddddddddddddddddddddddddddddddddddddddd",
"dddddddddddddddddddddddddddddddddddddddddddddddddddddddddddddddddddddddddddddddddddddddddddddddddddd",
"dddddddddddddddddddddddddddddddddddddddddddddddddddddddddddddddddddddddddddddddddddddddddddddddddddd",
"dddddddddddddddddddddddddddddddddddddddddddddddddddddddddddddddddddddddddddddddddddddddddddddddddddd",
"dddddddddddddddddddddddddddddddddddddddddddddddddddddddddddddddddddddddddddddddddddddddddddddddddddd",
"dddddddddddddddddddddddddddddddddddddddddddddddddddddddddddddddddddddddddddddddddddddddddddddddddddd",
"dddddddddddddddddddddddddddddddddddddddddddddddddddddddddddddddddddddddddddddddddddddddddddddddddddd",
"dddddddddddddddddddddddddddddddddddddddddddddddddddddddddddddddddddddddddddddddddddddddddddddddddddd",
"dddddddddddddddddddddddddddddddddddddddddddddddddddddddddddddddddddddddddddddddddddddddddddddddddddd",
"dddddddddddddddddddddddddddddddddddddddddddddddddddddddddddddddddddddddddddddddddddddddddddddddddddd",
"dddddddddddddddddddddddddddddddddddddddddddddddddddddddddddddddddddddddddddddddddddddddddddddddddddd",
"dddddddddddddddddddddddddddddddddddddddddddddddddddddddddddddddddddddddddddddddddddddddddddddddddddd",
"dddddddddddddddddddddddddddddddddddddddddddddddddddddddddddddddddddddddddddddddddddddddddddddddddddd",
"dddddddddddddddddddddddddddddddddddddddddddddddddddddddddddddddddddddddddddddddddddddddddddddddddddd",
"dddddddddddddddddddddddddddddddddddddddddddddddddddddddddddddddddddddddddddddddddddddddddddddddddddd",
"dddddddddddddddddddddddddddddddddddddddddddddddddddddddddddddddddddddddddddddddddddddddddddddddddddd",
"dddddddddddddddddddddddddddddddddddddddddddddddddddddddddddddddddddddddddddddddddddddddddddddddddddd",
"dddddddddddddddddddddddddddddddddddddddddddddddddddddddddddddddddddddddddddddddddddddddddddddddddddd",
"dddddddddddddddddddddddddddddddddddddddddddddddddddddddddddddddddddddddddddddddddddddddddddddddddddd",
"dddddddddddddddddddddddddddddddddddddddddddddddddddddddddddddddddddddddddddddddddddddddddddddddddddd",
"dddddddddddddddddddddddddddddddddddddddddddddddddddddddddddddddddddddddddddddddddddddddddddddddddddd",
"dddddddddddddddddddddddddddddddddddddddddddddddddddddddddddddddddddddddddddddddddddddddddddddddddddd",
"dddddddddddddddddddddddddddddddddddddddddddddddddddddddddddddddddddddddddddddddddddddddddddddddddddd",
"dddddddddddddddddddddddddddddddddddddddddddddddddddddddddddddddddddddddddddddddddddddddddddddddddddd",
"dddddddddddddddddddddddddddddddddddddddddddddddddddddddddddddddddddddddddddddddddddddddddddddddddddd",
"dddddddddddddddddddddddddddddddddddddddddddddddddddddddddddddddddddddddddddddddddddddddddddddddddddd",
"dddddddddddddddddddddddddddddddddddddddddddddddddddddddddddddddddddddddddddddddddddddddddddddddddddd"
};
