/* XPM */
static char *result[] = {
/* columns rows colors chars-per-pixel */
"100 100 41 1 ",
"  c #070707",
". c #131313",
"X c #3F2B1B",
"o c #430000",
"O c #4F0000",
"+ c #5B0000",
"@ c #5B0707",
"# c #670000",
"$ c #730000",
"% c #7F0000",
"& c #771717",
"* c #533F2F",
"= c #67533F",
"- c #8B0000",
"; c #9B0000",
": c #A70000",
"> c #B30000",
", c #BF0000",
"< c #9F3700",
"1 c #CB0000",
"2 c #D70000",
"3 c #E30000",
"4 c #EF0000",
"5 c red",
"6 c #FF3F3F",
"7 c #9B5B13",
"8 c #AF4300",
"9 c #B74700",
"0 c #C34F00",
"q c #CB5707",
"w c #D75F0B",
"e c #DF670F",
"r c #EB6F0F",
"t c #F37317",
"y c #FF7F1B",
"u c #C39B2F",
"i c #FF8F3B",
"p c #D78B5B",
"a c #D7BB43",
"s c #FFFF73",
"d c black",
/* pixels */
"dddddddddddddddddddddddddddddddddddddddddddddddddddddddddddddddddddddddddddddddddddddddddddddddddddd",
"dddddddddddddddddddddddddddddddddddddddddddddddddddddddddddddddddddddddddddddddddddddddddddddddddddd",
"dddddddddddddddddddddddddddddddddddddddddddddddddddddddddddddddddddddddddddddddddddddddddddddddddddd",
"dddddddddddddddddddddddddddddddddddddddddddddddddddddddddddddddddddddddddddddddddddddddddddddddddddd",
"dddddddddddddddddddddddddddddddddddddddddddddddddddddddddddddddddddddddddddddddddddddddddddddddddddd",
"dddddddddddddddddddddddddddddddddddddddddddddddddddddddddddddddddddddddddddddddddddddddddddddddddddd",
"dddddddddddddddddddddddddddddddddddddddddddddddddddddddddddddddddddddddddddddddddddddddddddddddddddd",
"dddddddddddddddddddddddddddddddddddddddddddddddddddddddddddddddddddddddddddddddddddddddddddddddddddd",
"dddddddddddddddddddddddddddddddddddddddddddddddddddddddddddddddddddddddddddddddddddddddddddddddddddd",
"dddddddddddddddddddddddddddddddddddddddddddddddddddddddddddddddddddddddddddddddddddddddddddddddddddd",
"dddddddddddddddddddddddddddddddddddddddddddddddddddddddddddddddddddddddddddddddddddddddddddddddddddd",
"dddddddddddddddddddddddddddddddddddddddddddddddddddddddddddddddddddddddddddddddddddddddddddddddddddd",
"dddddddddddddddddddddddddddddddddddddddddddddddddddddddddddddddddddddddddddddddddddddddddddddddddddd",
"dddddddddddddddddddddddddddddddddddddddddddddddddddddddddddddddddddddddddddddddddddddddddddddddddddd",
"dddddddddddddddddddddddddddddddddddddddddddddddddddddddddddddddddddddddddddddddddddddddddddddddddddd",
"dddddddddddddddddddddddddddddddddddddddddddddddddddddddddddddddddddddddddddddddddddddddddddddddddddd",
"dddddddddddddddddddddddddddddddddddddddddddddddddddddddddddddddddddddddddddddddddddddddddddddddddddd",
"dddddddddddddddddddddddddddddddddddddddddddddddddddddddddddddddddddddddddddddddddddddddddddddddddddd",
"dddddddddddddddddddddddddddddddddddddddddddddddddddddddddddddddddddddddddddddddddddddddddddddddddddd",
"dddddddddddddddddddddddddddddddddddddddddddddddddddddddddddddddddddddddddddddddddddddddddddddddddddd",
"dddddddddddddddddddddddddddddddddddddddddddddddddddddddddddddddddddddddddddddddddddddddddddddddddddd",
"dddddddddddddddddddddddddddddddddddddddddddddddddddddddddddddddddddddddddddddddddddddddddddddddddddd",
"dddddddddddddddddddddddddddddddddddddddddddddddddddddddddddddddddddddddddddddddddddddddddddddddddddd",
"dddddddddddddddddddddddddddddddddddddddddddddddddddddddddddddddddddddddddddddddddddddddddddddddddddd",
"dddddddddddddddddddddddddddddddddddddddddddddddddddddddddddddddddddddddddddddddddddddddddddddddddddd",
"dddddddddddddddddddddddddddddddddddddddddddddddddddddddddddddddddddddddddddddddddddddddddddddddddddd",
"dddddddddddddddddddddddddddddddddddddddddddddddddddddddddddddddddddddddddddddddddddddddddddddddddddd",
"dddddddddddddddddddddddddddddddddddddddddddddddddddddddddddddddddddddddddddddddddddddddddddddddddddd",
"dddddddddddddddddddddddddddddddddddddddddddddddddddddddddddddddddddddddddddddddddddddddddddddddddddd",
"dddddddddddddddddddddddddddddddddddddddddddddddddddddddddddddddddddddddddddddddddddddddddddddddddddd",
"dddddddddddddddddddddddddddddddddddddddddddddddddddddddddddddddddddddddddddddddddddddddddddddddddddd",
"dddddddddddddddddddddddddddddddddddddddddddddddddddddddddddddddddddddddddddddddddddddddddddddddddddd",
"dddddddddddddddddddddddddddddddddddddddddddddddddddddddddddddddddddddddddddddddddddddddddddddddddddd",
"dddddddddddddddddddddddddddddddddddddddddddddddddddddddddddddddddddddddddddddddddddddddddddddddddddd",
"ddddddddddddddddddddddddddddddddddddddddddd#$#d##ddddddddddddddddddddddddddddddddddddddddddddddddddd",
"dddddddddddddddddddddddddddddddddddddddddd#%;$##%%%ddddddddddddddddddddddddddddddddddddddddddddddddd",
"dddddddddddddddddddddddddddddddddddddddddd%#$$#%qO:::ddddddddddddddddddddddddddddddddddddddddddddddd",
"dddddddddddddddddddddddddddddddddddddddddd#$$$rqO%2,,%>:dddddddddddddddddddddddddddddddddddddddddddd",
"dddddddddddddddddddddddddddddddddddd:%$$,,,,;asu77,33,22dddddddddddddddddddddddddddddddddddddddddddd",
"ddddddddddddddddddddddddddddddddddd,,333,,,;;2,---;:4:;2:4dddddddddddddddddddddddddddddddddddddddddd",
"dddddddddddddddddddddddddddddddddd;3333333,r52---->4;;>51>;ddddddddddddddddddddddddddddddddddddddddd",
"dddddddddddddddddddddddddddddddddd$::111:;,-e03w031%4,;32;>-dddddddddddddddddddddddddddddddddddddddd",
"ddddddddddddddddddddddddddddddddddd%%;;:3eq33%%<852;,:;;:;,-d111dddddddddddddddddddddddddddddddddddd",
"dddddddddddddddddddddddddddddddddddd#$;;->9X>>->5522,>23;>25521-1ddddddddddddddddddddddddddddddddddd",
"dddddddddddddddddddddddddddddddddd,;$#;;;;903>;>332>4232>%>;:::-;%dddddddddddddddddddddddddddddddddd",
"ddddddddddddddddddddddddddddddddd;;%$%:;,,;1>--:>>53>,42>%>,,32;2>%%dddddddddddddddddddddddddddddddd",
"ddddddddddddddddddddddddddddddddd%;:;;;o-%,,,,28,,>421;111%2;;>,35%d%ddddddddddddddddddddddddddddddd",
"ddddddddddddddddddddddddddddddddd;:1:,;%%>363,1>,,5655,>;2>52,2;462>3>dd:%-ddddddddddddddddddddddddd",
"dddddddddddddddddddddddddddddddddd;::&;,>%;,,2535564,,:;52%4%4,;;,2:>>d3>144%-dddddddddddddddddddddd",
"dddddddddddddddddddddddddddddddddd#%:0etit>>wq9>114,,2>;;;1>;>;:415,:;;;>%11411ddddddddddddddddddddd",
"dddddddddddddddddddddddddddddddddd$;%*9962>->5,-$>365>3>-,14;4>4,>44,;3:;;----dddddddddddddddddddddd",
"dddddddddddddddddddddddddddddddddd;$34;%3,1>;,2-%;%,1>1>>4;,;515:;:;;>52;-dddddddddddddddddddddddddd",
"ddddddddddddddddddddddddddddddddd$;,31@%>8:,;:,1-%;>%;;13>%,>2,2>,;4--->;;dddddddddddddddddddddddddd",
"ddddddddddddddddddddddddddddddddd%,:;%;9qeq8>;::;$:,;3:;541>;,62$----;;;dddddddddddddddddddddddddddd",
"ddddddddddddddddddddddddddddddddd$;%$#=tiiye08,,;+$;>32532;%>;$-+++$;ddddddddddddddddddddddddddddddd",
"ddddddddddddddddddddddddddddddddd$%$$9>30q081:2;$$-;2>->-,%%+%++%ddddddddddddddddddddddddddddddddddd",
"dddddddddddddddddddddddddddddddddd$##%;>;;---:2;$$-$--+$+%O$++%Odddddddddddddddddddddddddddddddddddd",
"ddddddddddddddddddddddddddddddddddddd-;%++++++>-$%%+$+%$;ooOO%1ddddddddddddddddddddddddddddddddddddd",
"dddddddddddddddddddddddddddddddddddputeq9831,;;$---$o$Ooo%dddddddddddddddddddddddddddddddddddddddddd",
"ddddddddddddddddddddddddddddddddd#d%;3++88$$$$$%%>%%$ooo,ddddddddddddddddddddddddddddddddddddddddddd",
"ddddddddddddddddddddddddddddddddddddd:3ww$ ...###;;$#ddddddddddddddddddddddddddddddddddddddddddddddd",
"dddddddddddddddddddddddddddddddddddddd%%dd$dddddd;:%#ddddddddddddddddddddddddddddddddddddddddddddddd",
"dddddddddddddddddddddddddddddddddddddddddddddddddddddddddddddddddddddddddddddddddddddddddddddddddddd",
"dddddddddddddddddddddddddddddddddddddddddddd#ddddddddddddddddddddddddddddddddddddddddddddddddddddddd",
"dddddddddddddddddddddddddddddddddddddddddddddddddddddddddddddddddddddddddddddddddddddddddddddddddddd",
"dddddddddddddddddddddddddddddddddddddddddddddddddddddddddddddddddddddddddddddddddddddddddddddddddddd",
"dddddddddddddddddddddddddddddddddddddddddddddddddddddddddddddddddddddddddddddddddddddddddddddddddddd",
"dddddddddddddddddddddddddddddddddddddddddddddddddddddddddddddddddddddddddddddddddddddddddddddddddddd",
"dddddddddddddddddddddddddddddddddddddddddddddddddddddddddddddddddddddddddddddddddddddddddddddddddddd",
"dddddddddddddddddddddddddddddddddddddddddddddddddddddddddddddddddddddddddddddddddddddddddddddddddddd",
"dddddddddddddddddddddddddddddddddddddddddddddddddddddddddddddddddddddddddddddddddddddddddddddddddddd",
"dddddddddddddddddddddddddddddddddddddddddddddddddddddddddddddddddddddddddddddddddddddddddddddddddddd",
"dddddddddddddddddddddddddddddddddddddddddddddddddddddddddddddddddddddddddddddddddddddddddddddddddddd",
"dddddddddddddddddddddddddddddddddddddddddddddddddddddddddddddddddddddddddddddddddddddddddddddddddddd",
"dddddddddddddddddddddddddddddddddddddddddddddddddddddddddddddddddddddddddddddddddddddddddddddddddddd",
"dddddddddddddddddddddddddddddddddddddddddddddddddddddddddddddddddddddddddddddddddddddddddddddddddddd",
"dddddddddddddddddddddddddddddddddddddddddddddddddddddddddddddddddddddddddddddddddddddddddddddddddddd",
"dddddddddddddddddddddddddddddddddddddddddddddddddddddddddddddddddddddddddddddddddddddddddddddddddddd",
"dddddddddddddddddddddddddddddddddddddddddddddddddddddddddddddddddddddddddddddddddddddddddddddddddddd",
"dddddddddddddddddddddddddddddddddddddddddddddddddddddddddddddddddddddddddddddddddddddddddddddddddddd",
"dddddddddddddddddddddddddddddddddddddddddddddddddddddddddddddddddddddddddddddddddddddddddddddddddddd",
"dddddddddddddddddddddddddddddddddddddddddddddddddddddddddddddddddddddddddddddddddddddddddddddddddddd",
"dddddddddddddddddddddddddddddddddddddddddddddddddddddddddddddddddddddddddddddddddddddddddddddddddddd",
"dddddddddddddddddddddddddddddddddddddddddddddddddddddddddddddddddddddddddddddddddddddddddddddddddddd",
"dddddddddddddddddddddddddddddddddddddddddddddddddddddddddddddddddddddddddddddddddddddddddddddddddddd",
"dddddddddddddddddddddddddddddddddddddddddddddddddddddddddddddddddddddddddddddddddddddddddddddddddddd",
"dddddddddddddddddddddddddddddddddddddddddddddddddddddddddddddddddddddddddddddddddddddddddddddddddddd",
"dddddddddddddddddddddddddddddddddddddddddddddddddddddddddddddddddddddddddddddddddddddddddddddddddddd",
"dddddddddddddddddddddddddddddddddddddddddddddddddddddddddddddddddddddddddddddddddddddddddddddddddddd",
"dddddddddddddddddddddddddddddddddddddddddddddddddddddddddddddddddddddddddddddddddddddddddddddddddddd",
"dddddddddddddddddddddddddddddddddddddddddddddddddddddddddddddddddddddddddddddddddddddddddddddddddddd",
"dddddddddddddddddddddddddddddddddddddddddddddddddddddddddddddddddddddddddddddddddddddddddddddddddddd",
"dddddddddddddddddddddddddddddddddddddddddddddddddddddddddddddddddddddddddddddddddddddddddddddddddddd",
"dddddddddddddddddddddddddddddddddddddddddddddddddddddddddddddddddddddddddddddddddddddddddddddddddddd",
"dddddddddddddddddddddddddddddddddddddddddddddddddddddddddddddddddddddddddddddddddddddddddddddddddddd",
"dddddddddddddddddddddddddddddddddddddddddddddddddddddddddddddddddddddddddddddddddddddddddddddddddddd",
"dddddddddddddddddddddddddddddddddddddddddddddddddddddddddddddddddddddddddddddddddddddddddddddddddddd",
"dddddddddddddddddddddddddddddddddddddddddddddddddddddddddddddddddddddddddddddddddddddddddddddddddddd",
"dddddddddddddddddddddddddddddddddddddddddddddddddddddddddddddddddddddddddddddddddddddddddddddddddddd",
"dddddddddddddddddddddddddddddddddddddddddddddddddddddddddddddddddddddddddddddddddddddddddddddddddddd"
};
