/* XPM */
static char *result[] = {
/* columns rows colors chars-per-pixel */
"100 100 20 1 ",
"  c #1F170B",
". c #4F0000",
"X c #5B0000",
"o c #670000",
"O c #730000",
"+ c #7F0000",
"@ c #675333",
"# c #8B0000",
"$ c #9B0000",
"% c #A70000",
"& c #B30000",
"* c #BF0000",
"= c #CB0000",
"- c #D70000",
"; c #E30000",
": c #EF0000",
"> c red",
", c #FF1F1F",
"< c #FF3F3F",
"1 c black",
/* pixels */
"1111111111111111111111111111111111111111111111111111111111111111111111111111111111111111111111111111",
"1111111111111111111111111111111111111111111111111111111111111111111111111111111111111111111111111111",
"1111111111111111111111111111111111111111111111111111111111111111111111111111111111111111111111111111",
"1111111111111111111111111111111111111111111111111111111111111111111111111111111111111111111111111111",
"1111111111111111111111111111111111111111111111111111111111111111111111111111111111111111111111111111",
"1111111111111111111111111111111111111111111111111111111111111111111111111111111111111111111111111111",
"1111111111111111111111111111111111111111111111111111111111111111111111111111111111111111111111111111",
"1111111111111111111111111111111111111111111111111111111111111111111111111111111111111111111111111111",
"1111111111111111111111111111111111111111111111111111111111111111111111111111111111111111111111111111",
"1111111111111111111111111111111111111111111111111111111111111111111111111111111111111111111111111111",
"1111111111111111111111111111111111111111111111111111111111111111111111111111111111111111111111111111",
"1111111111111111111111111111111111111111111111111111111111111111111111111111111111111111111111111111",
"1111111111111111111111111111111111111111111111111111111111111111111111111111111111111111111111111111",
"1111111111111111111111111111111111111111111111111111111111111111111111111111111111111111111111111111",
"1111111111111111111111111111111111111111111111111111111111111111111111111111111111111111111111111111",
"1111111111111111111111111111111111111111111111111111111111111111111111111111111111111111111111111111",
"1111111111111111111111111111111111111111111111111111111111111111111111111111111111111111111111111111",
"1111111111111111111111111111111111111111111111111111111111111111111111111111111111111111111111111111",
"1111111111111111111111111111111111111111111111111111111111111111111111111111111111111111111111111111",
"1111111111111111111111111111111111111111111111111111111111111111111111111111111111111111111111111111",
"1111111111111111111111111111111111111111111111111111111111111111111111111111111111111111111111111111",
"1111111111111111111111111111111111111111111111111111111111111111111111111111111111111111111111111111",
"1111111111111111111111111111111111111111111111111111111111111111111111111111111111111111111111111111",
"1111111111111111111111111111111111111111111111111111111111111111111111111111111111111111111111111111",
"1111111111111111111111111111111111111111111111111111111111111111111111111111111111111111111111111111",
"1111111111111111111111111111111111111111111111111111111111111111111111111111111111111111111111111111",
"1111111111111111111111111111111111111111111111111111111111111111111111111111111111111111111111111111",
"1111111111111111111111111111111111111111111111111111111111111111111111111111111111111111111111111111",
"1111111111111111111111111111111111111111111111111111111111111111111111111111111111111111111111111111",
"1111111111111111111111111111111111111111111111111111111111111111111111111111111111111111111111111111",
"1111111111111111111111111111111111111111111111111111111111111111111111111111111111111111111111111111",
"1111111111111111111111111111111111111111111111111111111111111111111111111111111111111111111111111111",
"1111111111111111111111111111111111111111111111111111111111111111111111111111111111111111111111111111",
"1111111111111111111111111111111111111111111111111111111111111111111111111111111111111111111111111111",
"1111111111111111111111111111111111111111111111111111111111111111111111111111111111111111111111111111",
"1111111111111111111111111111111111111111111111111111111111111111111111111111111111111111111111111111",
"1111111111111111111111111111111111111111111111111111111111111111111111111111111111111111111111111111",
"1111111111111111111111111111111111111111111111111111111111111111111111111111111111111111111111111111",
"1111111111111111111111111111111111111111111111111111111111111111111111111111111111111111111111111111",
"111111111111111111111111111111111111111111111++111oo111111111111111111111111111111111111111111111111",
"11111111111111111111111111111111111111111111O$$+$O+o111111111111111111111111111111111111111111111111",
"11111111111111111111111111111111111111111111+$%$$.$+o1oO11111111111111111111111111111111111111111111",
"1111111111111111111111111111111111111111$+11@o$%$;&&#&o+%$O11111111111111111111111111111111111111111",
"1111111111111111111111111111111111111111$#*#&&;>>>>;&&+*;*$11111111111111111111111111111111111111111",
"111111111111111111111111111111111111111&&&$&%$$>>>>>;;o=;;$11111111111111111111111111111111111111111",
"111111111111111111111111111111111111111&=&&$=;>;>>>:=;+O=:O+%111111111111111111111111111111111111111",
"11111111111111111111111111111111111111O&*=$==*;;;>;:;=%;;$$;%O.1111111111111111111111111111111111111",
"111111111111111111111111111111111111111o>*#*;;&=;=;<;==*;%$$*+11111111111111111111111111111111111111",
"11111111111111111111111111111111111111o*$$$&=;*&;><>;;**=*;$$$+1111111111111111111111111111111111111",
"11111111111111111111111111111111111111+$$*+&&&&%>>,,;***&*;#$+*%111111111111111111111111111111111111",
"11111111111111111111111111111111111111$###&*;&**;>>,****&*#++1&+111111111111111111111111111111111111",
"11111111111111111111111111111111111111$%&==&&&;;->,-$&&&&==&*%&$O11111111111111111111111111111111111",
"11111111111111111111111111111111111111OO+:-*&==;$-=-==.===-:&+&O111111111111111111111111111111111111",
"1111111111111111111111111111111111111&>>:;==:+*o*>%;=+*&+=>>&$%%111111111111111111111111111111111111",
"1111111111111111111111111111111111111&>::&:=:&$-;*+$>&&$*&:>&O11111111111111111111111111111111111111",
"11111111111111111111111111111111111111*;=-&&$$-*-&+*-%#$#-&*%%11111111111111111111111111111111111111",
"1111111111111111111111111111111111111ooo#&&%&#+&#*&$=;O+$*&&=O11111111111111111111111111111111111111",
"111111111111111111111111111111111111111oO*%*+O##+$+>+O+O+&&=&O11111111111111111111111111111111111111",
"111111111111111111111111111111111111111#o&*+OOX +#&$O+O++*&&#O11111111111111111111111111111111111111",
"11111111111111111111111111111111111111.oX-;++O+##O&OO$+$++OXO111111111111111111111111111111111111111",
"111111111111111111111111111111111111111111O++o1O+OOoO+$$$+1o1111111111111111111111111111111111111111",
"111111111111111111111111111111111111111oO1oOO1o+++Oo+$$%11111111111111111111111111111111111111111111",
"111111111111111111111111111111111111111.o11oO+oO$$+o.++111111111111111111111111111111111111111111111",
"11111111111111111111111111111111111111111111oO$$$+11111111111111111111111111111111111111111111111111",
"111111111111111111111111111111111111111111111+%$+111111111111111111111111111111111111111111111111111",
"1111111111111111111111111111111111111111111111111111111111111111111111111111111111111111111111111111",
"1111111111111111111111111111111111111111111111111111111111111111111111111111111111111111111111111111",
"1111111111111111111111111111111111111111111111111111111111111111111111111111111111111111111111111111",
"1111111111111111111111111111111111111111111111111111111111111111111111111111111111111111111111111111",
"1111111111111111111111111111111111111111111111111111111111111111111111111111111111111111111111111111",
"1111111111111111111111111111111111111111111111111111111111111111111111111111111111111111111111111111",
"1111111111111111111111111111111111111111111111111111111111111111111111111111111111111111111111111111",
"1111111111111111111111111111111111111111111111111111111111111111111111111111111111111111111111111111",
"1111111111111111111111111111111111111111111111111111111111111111111111111111111111111111111111111111",
"1111111111111111111111111111111111111111111111111111111111111111111111111111111111111111111111111111",
"1111111111111111111111111111111111111111111111111111111111111111111111111111111111111111111111111111",
"1111111111111111111111111111111111111111111111111111111111111111111111111111111111111111111111111111",
"1111111111111111111111111111111111111111111111111111111111111111111111111111111111111111111111111111",
"1111111111111111111111111111111111111111111111111111111111111111111111111111111111111111111111111111",
"1111111111111111111111111111111111111111111111111111111111111111111111111111111111111111111111111111",
"1111111111111111111111111111111111111111111111111111111111111111111111111111111111111111111111111111",
"1111111111111111111111111111111111111111111111111111111111111111111111111111111111111111111111111111",
"1111111111111111111111111111111111111111111111111111111111111111111111111111111111111111111111111111",
"1111111111111111111111111111111111111111111111111111111111111111111111111111111111111111111111111111",
"1111111111111111111111111111111111111111111111111111111111111111111111111111111111111111111111111111",
"1111111111111111111111111111111111111111111111111111111111111111111111111111111111111111111111111111",
"1111111111111111111111111111111111111111111111111111111111111111111111111111111111111111111111111111",
"1111111111111111111111111111111111111111111111111111111111111111111111111111111111111111111111111111",
"1111111111111111111111111111111111111111111111111111111111111111111111111111111111111111111111111111",
"1111111111111111111111111111111111111111111111111111111111111111111111111111111111111111111111111111",
"1111111111111111111111111111111111111111111111111111111111111111111111111111111111111111111111111111",
"1111111111111111111111111111111111111111111111111111111111111111111111111111111111111111111111111111",
"1111111111111111111111111111111111111111111111111111111111111111111111111111111111111111111111111111",
"1111111111111111111111111111111111111111111111111111111111111111111111111111111111111111111111111111",
"1111111111111111111111111111111111111111111111111111111111111111111111111111111111111111111111111111",
"1111111111111111111111111111111111111111111111111111111111111111111111111111111111111111111111111111",
"1111111111111111111111111111111111111111111111111111111111111111111111111111111111111111111111111111",
"1111111111111111111111111111111111111111111111111111111111111111111111111111111111111111111111111111",
"1111111111111111111111111111111111111111111111111111111111111111111111111111111111111111111111111111",
"1111111111111111111111111111111111111111111111111111111111111111111111111111111111111111111111111111"
};
