/* XPM */
static char *result[] = {
/* columns rows colors chars-per-pixel */
"125 125 34 1 ",
"  c black",
". c #170F07",
"X c #1F170B",
"o c #1B1B1B",
"O c #430000",
"+ c #470000",
"@ c #4F0000",
"# c #530707",
"$ c #5B0000",
"% c #5B0707",
"& c #5F0707",
"* c #670000",
"= c #670B0B",
"- c #6B0F0F",
"; c #730000",
": c #7F0000",
"> c #731313",
", c #771717",
"< c #7F1B1B",
"1 c #8B0000",
"2 c #9B0000",
"3 c #831F1F",
"4 c #A70000",
"5 c #B30000",
"6 c #BF0000",
"7 c #8B2323",
"8 c #8F2B2B",
"9 c #972F2F",
"0 c #CB0000",
"q c #D70000",
"w c #E30000",
"e c #EF0000",
"r c red",
"t c black",
/* pixels */
"ttttttttttttttttttttttttttttttttttttttttttttttttttttttttttttttttttttttttttttttttttttttttttttttttttttttttttttttttttttttttttttt",
"tttttttttttttttttttttttttttttttttttttttttttttttttttttttO++$**::::::***OOOtttttttttttttttttttttttttttttttttttttttttttttttttttt",
"tttttttttttttttttttttttttttttttttttttttttttttttttttttO$*12444446641:;;1;$OOtttttttttttttttttttttttttttttttttttttttttttttttttt",
"tttttttttttttttttttttttttttttttttttttttttttttttttttO$*122466666654211124541*Otttttttttttttttttttttttttttttttttttttttttttttttt",
"ttttttttttttttttttttttttttttttttttttOOOttttttttttO@*;24545555555424444456651*Ottttttttttttttttttttttttttttttttttttttttttttttt",
"ttttttttttttttttttttttttttttttttOOOttttttttttOOO$$;1565421244442112456656654;OO$$$$$ttttttttttttttttttttttttttttttttttttttttt",
"ttttttttttttttttttttttttttttOOOOOOOOOttttO@$*;:122456542145065445260006666541;++@@@$$$ttttttttttttttttttttttttttttttttttttttt",
"tttttttttttttttttttttttttOtOOOOOOOOOttt@$*:14560005q0456666qq06666qqqq0666542::;*@;::2$$ttttttttttttttttttttttttttttttttttttt",
"tttttttttttttttttttttttttttttOOtttttt@@$;150wwweeqq055660qwqq06660qqwq0000654::1;$*::11$$tttttttttttttttttttttttttttttttttttt",
"ttttttttttttttttttttttttttO@$****@OO@O*:15qerrree0q54456qww06606550qq00000000062**@;:241$tOOOtttttttttttttttttttttttttttttttt",
"ttttttttttttttttttttttttO@**;:;;*O$*;15500werreew6564440qqq00542:15wq0060qwwww041***;221$$OOOOOttOttttttttttttttttttttttttttt",
"ttttttttttttttttttttttO$;:441;**$$;1250qweeeeeeq650054450064221:225555550qwwwwq641;*:22:@$OOOOOOtOOOOtttttttttttttttttttttttt",
"tttttttttttttttttttttO;114521;$t*;12550qweew00q5456064222211112554121::1456qwww652**;:11:1OOttOOOOOOOtttttttttttttttttttttttt",
"ttttttttttttttttttttO:122541;*t$;125540qqwwe005224455224444556654:1;;;;;114555605:;*;141:2222:;OOttOOOtOttttttttttttttttttttt",
"ttttttttttttttttttt$:222221;*$$*;142:250qqwe64225456666545456666442654222115555052;;:1421:::221;$OtOtOttOtttttttttttttttttttt",
"ttttttttttttttttttO;142111;*$$$*;:1:;14qw00q525560qweeewq00qwwwwq645006442224455542:11441;;::25:;;&$tOOtttttttttttttttttttttt",
"tttttttttttttttttt*:4411;;*$t$$*;:*$;15wq0602560wrreeewqeweeereewq6450064:1224445552:24412222142211::;&OOOttttttttttttttttttt",
"tttttttttttttttttO;:421;**$$$$$**$O@$:5qew0646qwreeew66qweerrrreewq6656655456644424554405546555550225211;OOtttttttttttttttttt",
"tttttttttttttttttO;:11;**$$$$$*;*+O+$:40wq6460eeeew06655weerrrrrreewq060qqqqqq0654424555566514551122124041=Ottttttttttttttttt",
"tttttttttttttttttO*;;*t$$$$$$O*:*@@+$;2606456rrew04:::50weerrrrrrrrrewwqeeeeewwq052444455565544511:;*200002=OtOOOtttttttttttt",
"tttttttttttttttttO@$$$$O$$$$$@*:1**@@;144446qrew041:146wrerrrrrerrrrreeerrreeeeqq64:24444560006654111;40w041OttOOOttttttttttt",
"ttttttttttttttttttO@t+O$$**O@@*121:*$*:126560wqq644500qwerrrerrrerrrreeerreeee06q064:2224460qqqq054541125q01OOttOOttttttttttt",
"tttttttttttttttttOO+tO@$*;;*$$*:121;$*:256566qq0550qweeeeeeeeeeerreeewweeeeqq04446q5426645550qwqq05665111662;Ottttttttttttttt",
"tttttttttttttOOttO$$++@;::::$@$11:;*$*:46545666600qeerrreeerreeeeeqwwwwweeer064424566126664550qqwq0006411122;OOtttttttttttttt",
"ttttttttttttOOOtO&**$@*:111;@O:22:*$$*:4q42444450qwerrererrrreewwwwwwqwwwwwwq05411221*124455450qqq0qq05;&;12:$OOOtttttttttttt",
"ttttttttttttOtOO,;:**$;1221;$;452;@@*::641:211;20qqwrrrrrrrwqqqqqqqq00000000qq064111:;@;1226425500qqqq5:+&:11&OOOOttttttttttt",
"tttttttttttOtOtO::1;;*:24411:4652;@*12144:::::1400qerrrrrreq0q0600006600000056006541:;+@$:245555000qqq51;$121&OOOOttttttttttt",
"tttttttttttOOtt<112:;:14541246652;$:252412:;*;1506qrrrrreeq06224555544500q000656006551;$@*145655650qwq05:;152;OtOOOtttttttttt",
"tttttttttttOOtO1:211::2542246004:;:2541221:;@:*400qreeeewq052:111442:146000q00425600052:;:166665560qwwq614542;$OtOOtttttttttt",
"tttttttttttOOtO:::;1:224222450q41:255242::;1:21450qeeeewq052;*;122421:456000w04:146060551::150664500weq05442111*ttOtttttttttt",
"ttttttttttttOO111;;:12244245666425006224*::1211450qwewwq6641;$:22445555554600041:15600055:;;25601456qwww0421564;$tOOttttttttt",
"ttttttttttOtOO111;;:24455560qq6550weq52222111:25060qwqq0052;$*:2460qqqq652260641*:150qw051::146664440qwew5214664;tOOOtttttttt",
"ttttttttttOtOO:::;;:2566606qew00qwew0624452:*156066qweq0651:;:;26qwwereq65555461:;12500q051:;460654450qw065245qw1;OtOOttttttt",
"ttttttttttttO*11:::146660q0ewwqweeew05456641:246qqwerrw0q62222240wreerrq00655424:;122500004::25666224250qq0544564;@tOOttttttt",
"ttttttttttttO:11:::24606q6qew0wrreew024600412450qerrreq665444456qeewqewq065422242221:1466651::50q4142125qww051111;@tOOttttttt",
"tttttttttttO1122::12466qq0qewwerrwew6246qq42456qerrrrw6544445660q000qq0665544212442:*:146651126062;14:$16wwq51O;;$+ttOttttttt",
"tttttttttttO12221122406qqqwwerrreeew6246qq6560werrrrw052446600000556065554421111242:;$;14554446541*14;O*40wq51$**@Otttttttttt",
"tttttttttttO:2222242400060wwerrreeew54560qq6qweeerrew6545560wqq65225442111::;;;;1221:**;442455442:@;2O@@16ww61O**$OttOttttttt",
"tttttttttttO;1242244506660wweerrrewq64460qwwwereeereq006556qee042::12211;::;142*:244:*:$452565241;@*;O@@:5qw041;*$$tttttttttt",
"tttttttttOt$*:254544566560wwwerrrew064266qeeeereeeeewqq0560qrq52:;15224421221141*1664:$1644665221;@+*$@;:50q0411::;Ottttttttt",
"tttttttttOt+*:255424555446weerrreew054466qeeerrrerewqqq060wqrq52:142144222564111*14642:;4446665521;$$$$O*40051:214:OtOttttttt",
"tttttttttOO+$:245424654425werrrreww054606qweerrrerewq00060wqw042:21:1421126q04;::162422:14466666542*;$;*$1551$*;441$OtOOttttt",
"tttttttttOOtO:224222565412qerrrewq0066000qweeerrrrewq0005600004422222211245066221442::42144660066655:O;;;;121@$:65:$OtOOttttt",
"tttttttttOOtO;1242224665120errrew60660q0qqweeerrrrewqq065666654454455421455544441222::4426456qq66q662+$;*$11:@O:66:$OttOOtttt",
"ttttttttttOtt*:122122465116werrew50q060q0qqeeerrrewqq0055600q04555606544545521244211:;1246426qq066061+$*;$:2:*O;16:$OOttOtttt",
"ttttttttttOOt$**:;*:1254125werrew006544566qweerrrwwq0065500q0455600q65245652145551:2;11126645qqq0q06:$$;$@:22;O$:6:$OOO*ttttt",
"ttttttttttOOt+$$@**;;242245qerrewq064212566qqwerewqq00556600655560q06545655445665:42124112454qqqwqq5:*@$$*;121O$:01$OOO**tttt",
"tttttttttttOtt+$*::;;1222450errewqqw5:@:25560qweewq066556566554556005425545456664421160125660qqqwww5:*$@@*121:O$;4:$tOO**tttt",
"ttttttttttttttt$;221*;121450weeew0004;@*:4456qweewq0606552244144450q6442442466642:;140612556qqqqweq51:*$*;11;*O@*:;$tOO**tttt",
"ttttttttttttOttO:221**;242460eeww0601*$$*2425qweewq00qq62:1411:2446006454224664252*15q625600qqq0qq0211:**::**OO@$*$@OOOO*tttt",
"ttttttttttttttt*421:***;:1150wwww0062;O$*12450wwewq06qq64421:;:1244566654456656662:400650qqqqqqq0052241;;51**OO@*:$@tOtOOOttt",
"ttttttttttttttt*241:**;**::1500qq0642:O$*;1450qwwqq060q6652:*:;:12244455225455564140q060qwwqqqq06421451;:5:*$OO$;:*O@@tOOOttt",
"tttttttttttt$tt$:442***$*::2456600652:*$*;:25555600640q0664::1:1112224421124226660qwwq0qeeeqqqq65421454:;::*$OO*11$O@@tOOOttt",
"tttttttttttt$$tt:441;*:;*;:22455566651;O**:242;1245260qqq66422:;:::::1412112250qqerrqqqerreqqq6524214544;;;*@OO*1:*O@@@OOOttt",
"tttttttttttt;$tt*:2::*::;*:11454555652:*$:;222;1*112460qqqq06621:**;;:1212240qeewqwwq0wrrrewqq6524224544:11;*OO*1;$$@@@OOtttt",
"tttttttttttt1;$t@*1421:1:*::1462245242:*+$*;;::2:**;146qqqqqq5211::112421450qwerreq000wrrrewq665442245444542;O*;;;*$$@;@ttttt",
"ttttttttttt$1;$$tO;252:1:*;:1456222:22:*@+O$*;52:*+O;146600eq641::*:2521:260000qqq050qrrrreq0005542256546655;;11:;;$*;:@ttttt",
"tttttttttt$;11;;$O*:241;***:1224552:22:*@+@OO*;1;*@$$:144466054:;**11111;125555565qqqerrreq00065642500646665;:111;;;;::@ttttt",
"ttttttttt$$11$$$$OO$*:2:;**;22211122:22:*$@+O@*;1**@$:1224444451;;$;24441*1444465qwerrrrew606060624566645066;;;::;;::11@ttttt",
"tttttttt$$$1;t$t$$O@@*:41;;;122:;:11142:;***@O$*;;;*$;;:224455521;;:14666522156qeeqwwerreq555506525666566q05;O*;;::1121@ttttt",
"tttttttt$t$1$$$tt$+O++:452:;:11:;;:::1:11:::;**;:::;*$@;:114450642246000q06550qwweeewwweq646065544566666qeq5;O$;;:11221@@tttt",
"ttttttt$$t$;$tttOO*1*+*:141:::::****;:::::1221::22:;***;*;:1450q6545560660655600qeeerewq654254424566000qweq5;O$;::11241@ttttt",
"ttttttt$;$$;$OOOO$$:;++@*:2::1;;**$$****:1244422221:**:::::12455654455560q66555qwrreewqq06424446666600qwww04;O@;1:;1241@ttttt",
"ttttttt$;t$OO$$;;$*;;*++@*;:11::;*@++**@*:2444444421:::222422124444445000606654qeeewq60006544560q06000qweq62*O@:1:;122:tttttt",
"ttttttt$$tO$$;1221;*;;**@@$$*:1*:;*@O*;;@*124444554222224454422111224566665560qqqqq0524566qq0q0q006qq0qq066;$@*11:;111;t$tttt",
"ttttt1t$$O$$:2552;$**::::;@+OOOO*::*+$;;O$;1245560655554445665444421:26606450qeeeq6444456qqee066660weqq6541*@@;221111:$*$tttt",
"ttttttttOO$;26651;$@*:4442:*****:21*$O*;;@;112456000qq0666560666666655666666qwwwq055554566qq644446qwqqq6521$+;142111;@*$$tttt",
"ttttttttO$;14441;$@O$;256q42;;::2511*@$1;$:1::2256q0qwwqq066660qqwqq056606656000666665442:6621126qwwqq652;*O*;221:;;@t*$2tttt",
"tttttttO;:12441:$$$$;24560052::1242:$@$11;12:;:12256660000654456666666wq642246644565521;2242;:150qwq0652;$O$;121;;;*@t@::tttt",
"tttttOtO;22442;;$$$$$2444566521:245;*@O;12241*O*::222254444422221:::25664211122:24442:;;11;**:26qqq0652;*O@;122;;*@@tt$2$tttt",
"ttttOOtO:444421;::$O;:444456q6542241;*@;2462:$OO*;::112244421::;;;*;;:1:22222:$*;122;*$+;;**;156006521;$@+@;121;*@@@t*::$tttt",
"ttttOOt$1462221;;;*112442246qww04:22:;O$:4662:$OO$****:1222:**$@;::$$*;;:2221$;::2:*$$$;;:***1566651:*OOO@@;11;*@OOt*$$$ttttt",
"ttttO$t$1042121:;:254444444560qq62:121;$:245521;@@+OO@$*;::11:;;122:O++$:121:25562*;:$*11;**:156654:;;$@@+@$;;*@OOO@@$$$ttttt",
"tttt$$$$151:124222550000440056664442:2;;:2244542:;;$@@++@$$:112222:@@$$;::426qw02111;:11::::1456541;;;;;;*$+@@@OOtOOtt$tttttt",
"ttt$$$$$12::24604450qwqqq00521::12421::::::12254221;$$$$$@@$;111::*$*:1244460005214214554112455541:*1:122:;*@O+OOOOtO$$$$$ttt",
"tt*$$tO$$:::20442450eeeeeq52111111:111::;$$;::11111:;;;$@@$;1225554225600000qeq054125666555555421:***;;244:1*+OO###OO$$t$$$tt",
"tt$OOtO@$*::2211:250eeeq52;11442::2222111@@@$;:::;:;$$$*:;$:2550qqqqqqweewweeewq055466666555421:;*@+O$;12421;$OO#$;OOOtt$$$$t",
"tO$OtOO$@$**;;*;;140qq56421125422221222111*$$;;:::;$@@@*:::$:250weerrrrrrrrreeeq0666666655421:;**@+OO+$;14221;$+O$$$OOttt$$$t",
"tOOtOOOtO@@$***;:240044421:1464124444421:11*$$;::2:*$@@*:;***:25qwrrrrrrrreeere6qq665444241:;**:;*OOOO+$:2212:;$O$;;$OOtt$$tt",
"tO*OOO@O$OOO$**;254442462:14411*24544221:21;$@@*;144::;$*11;*:126qerrrrrewwqwreqq052:::152:*$**11*OO$OO@;112221;@$;:;OOttt$tt",
"tO**O*;**@@O;;;;2542246061221;**1421:111:12;*@@*:1::14::1442:::160qeeeewq0qweewq052:*$*;15:*@$*12:$O$$**$;12555:$$;1;OOttttt*",
"tOO**1:;;$O*;:;;;12465006651:**:21;**;:12242*;*1242:;::11:121456q0qqwwqq666qwrq64:;@@*;1;1:*O$:241$O*$O*::;25551*O*::*Ott$tt*",
"ttO*;:11:**;:;***246660wq641:**11;$$$$;1:111::246q61O$*******:24550qqq0654266421:@$@O;11:::;;*1552*O*;*O*:2;2551*O$;:;OOt$ttt",
"tOO$1111:$*:::;:256526qw0652;$;::;;;;$111;:22256ww04:*O@$*@@$*::24456644245422::;***;;1;12:;;12452;O;1:*1:12124:$OO*;;OOttttt",
"$OO$:111;@@;212225524qeq5521;$$;::141;;125554460www64:$O@$*$;;***;:252;:124542121::;*;1221:;1245651@;1:1:**1212;@O+$*;OOttttt",
"$O$$11::*O*;122452226ww052:2:;;;:;145;$:40005440wwww04;*O@@;1:1::1222:*@;;;::::224:$$1222:;:1146062*1;*:*+;:1:1;@@@$$$OO$tttt",
"$O$*111;**::221252120qw051;:2:::;:154:$;40005216qwwwq61::;**:22422225;OO$*$$*:222:*@O;;:241:4:40052*;;*;***:;;:;@$$@@$tO$tttt",
"@O**:11;::*12::*:22456055:;;2::1:::22;$1506542:560qww04222:*:12221::*$@OO@*;1242:**:$;1406256450651*$O*:1:;:;*;;$*;*@@tO$tttt",
"@$**;11;::$*:;@$@;2504522::::11222221;15005444545546q0642:::$*;::;*******::2242:1::*:1550645605645;:*O;1421;@$$$$;1;$@OO$tttt",
"*****11;:*@$;$@$:1400556541;;122422::240q05424664@:256652*@@OOO@$OO***:::124422221242005605605654621;*:1552:$;;$$;11;@tOttttt",
"@O$**:11:$@$;@@;12506566544:;112422:250qq652156q4;;:4654:;@OOOOOOOOOO$*:244441*::*122565555441446054:441564:1;;$$:41;+OOttttt",
"tOO**;:1;$*$*$*1226652665142:1212211250q042:160q5;@11221::*OOOOOO$$$$;:124554:*@@@$;12442214:25560644621564122;$*1421@Otttttt",
"ttOO**;1**:$$$;2225224664;142212111122554:;:26q0511222::::::$$@@@@:$;:12222521;*;;@;:22221:12406554462;1454241;$;1521@Otttttt",
"ttOOO*;1;:1;O;;2212442141*21222:::125521::*126q64221::*$;::::::;11::*;::;::221;;::22122212224600041661:14444:$:$;141:@Otttttt",
"$$$OO@11;:2:*;:122455:;2:*:2:24:;2255521:***26651:::$$@@$:1255421::******:;11:;;::26544444446qq052141;:12442:$1;;:11;OOOttttt",
"$$OOOO:1::21:::4224562;::;*:22422::112242:*;1441;$@$;;;*$:2466521:>12211;1111::;;:15q665455600064:11*;;12441;;211121*OOO$tttt",
"$$tOOO$;*;;222214256552:::*24565444444402:;;241;@*$$$;:::*244542::1555544222214222260q6544460064:*@@*:*:2541;;22151:*Ot$ttttt",
"$$$OOt$@@@;;246442246652111;22444446665421;1122;@**O+$*;;::1221:#:5550555444222422:245541124544:*@@$;*$;1451;142111*OttOttttt",
"@@tOOtt@;*;;;:2404445644222:;:1242224442:*$;:2;$*;;$**$OO@$*;*$$##1455505555442412:::11:;:122:;*@@***$$;122112421;*OOt$+ttttt",
"t@@@OtO$*1;;$**:24606555442:*;*;:45552:*$O@*;*$$;1;*:2*OOOOOOOOOOO=112240425521122:****;;121;;*$@;12*$*:11214551:;@Ot$$tttttt",
"t*@t@@O@*11$@@@*:24244442211:*$:1242:**$@OOO*O$:12$*16*OOOOOOOOOOOO%::12425421;*:;*++++;1;;**;;11251+$;:1211454:;$O+$$*tttttt",
"tt;@@@@@*:51$OO@;:1:1112211:*@@**::21::*OOOOO*124:$*:1*OOO++$::*OOOO*::;2:244<<;@@$$$$@;;$$;:1125541*;;::111541;$@Ot**ttttttt",
"ttt;@@OO$:44:@OO@*;::::;;;::*$O@$$*;**$@OOOO$2251***;*$OOOO+$***$OO+$$$$:14<787<-@*1;;;$;;:112225521;::;;:1241;$OO+$$tttttttt",
"tttt;;OO$*:4:;*OO@@*****$$***;$$*;1;;@@OOOO$;14421;::*+OOOOO+$$$+OO+$$*$*24>>7897-:15111112455422421;;;;;;:1:*@OO+$*ttttttttt",
"tttt;;@OOO*1141;$@OOOO**$$@$::;;;11;*@$OOO$;14q64221;$+OOOOOO$*OOOO++OO$$::=12<2>522245555555554221*@$$@$*;*$OOO+$**ttttttttt",
"ttttt;@OOO$*::1:$$@OOO$;*$$@;12222:;*$;1:::146qq6421*$OOOOOOO@***@@O+OO++****2><<20525005555555442;OOOOO@@@@OOOt$$*tttttttttt",
"tttttt@tOOO$***$**$$@OO*:;$O@;:2242:$*;:11146qwq521;$+OOOOOO@@*1;**O$$O++$$$;:><<14254454122555541*OOOO+@OOOOOt+$$ttttttttttt",
"ttttttt@tOOO$$$*:;***$$$*;;$O++**::;*;111:15qq641:*$+O$$$OOO+@*;;::O1*+$+$;$;$:1112212442421456521OOOOOOOOOOO##O+tttttttttttt",
"ttttttttttOOO@$$*:1:1*$@O$$*$O+$*****:1111224441*$O+O$***$OOOO@***;**:**$**$$+&&&2<7<<<7<>2025561*OOOOOttttOOtOtttttttttttttt",
"tttttttttttOOO@$$**::1*$OOO$$$+**::14566542111:*+O+O$****$$$OOOO@@$*;$******+$$*=257542<<4q65041*OOOOOtttttttOttttttttttttttt",
"ttttttttttttOOOO@$$$***$@OOOOO+$*:244455541****$++OO$$$$***$$OOOOOO+$@$***;$$*$;;12542144204::5$OOtO$$ttttttttttttttttttttttt",
"tttttttttttttOOOOOOOO$O@OOOOOOO+$*;:11111;*$+++OOOOOOO$$$$$$OOOO+O+**++;*;1$***;::121::::=;*$$;OO@OOOtttttttttttttttttttttttt",
"ttttttttttttt$$$OOOOOOO$$O$OOOOOOO$$$$$$$+OOOOOOOOtOOOOOOOOOOOO+++**$++$$;;$$$*******$++++++++$OO**;;tttttttttttttttttttttttt",
"tttttttttttt$$$$OOOOOOOO$;$$$$OOOOOOOOOOOOOOOOOOOtOOtOtOOOtttO+$=*;;11;$$:$+$$$$***$*-<<-**$$OOOOO##ttttttttttttttttttttttttt",
"ttttttttttto@%OOOOOOO****$;;;;$$$$O*OOOOOOOOOOOOtOOOOOOOOttttt+$=,=*:12;$:$++++++$++$=,<=*$$+OOOOtOtttttttttttttttttttttttttt",
"ttttttttttto@@%&:::::::::***;;;$$$OOOOOOOOOOOttOOOO;$$OOOtOtt+t+&,=***21;$O+++++++++$$==&$+++O.OttOtttttttttttttttttttttttttt",
"ttttttttttt  .%%&**:::::$***:2*OtttttttOOOttOOOO$$;$OOOtOOO-=6t.X&==*+***1O.++++++++$$==*&$+++O.;2Otttttttttttttttttttttttttt",
"ttttttttttttO--:124666642::222OOttttttttttttOO$$;;$OtOOOOOtX$=t..$&&$++$$*......+++$$==,==$$++OO2OOttttttttttttttt0:ttttttttt",
"ttttttttttto#&,>:250wweeeeee52ottttttttttttttOOOOOOtttOOOttt..tt...XXXXXOO....++$$$**,<<<,*$$+O+OOtttttttttttttttt:$tt0tttttt",
"ttttttttttto@%=-,>26qqwweeew5+XttttttttttttttttttttttttttttttttttttXXXXXXXtt..@@@@@@%%---%@@@+O.ttttttttttttttttttttttttttttt",
"ttttttttttto@@&&-,16qqqwwwww5OXtttttttttttttttt@ttttttttttttttttt1ttttttttttt.......XXXXXX.....tttttttttttttttttttttttttttttt",
"ttttttttttto@@%&=<>6qqq00065@1Xtttttttt:O$ttttttttttttttttttttttttttttttttttttttttttttttttttttttttttttttttttttttttttttttttttt",
"tttttttttttoO%&&=<36qq06651:O$Xtttttttt::ttttttttttttttttttt@ttttt@ttttttttttttttttttttttttttttttttttttttt:ttttttttt:tttttttt",
"ttttttttttttoo%%%-,<<42<2;*%oottttttttttttttttttttttttttttttttttttttttttttttttttttttttttttttttttttttttttttttttttttttttttttttt",
"ttttttttttttttoXoOO@%@@#@Ooottttttttttttttttttttttttttttttttttttttttttttttttttttttttttttttttttttttttttttttttttttttttttttttttt"
};
