/* XPM */
static char *result[] = {
/* columns rows colors chars-per-pixel */
"118 118 56 1 ",
"  c black",
". c #0B0B0B",
"X c #170F07",
"o c #1F170B",
"O c #131313",
"+ c #1B1B1B",
"@ c #2B230F",
"# c #332B13",
"$ c #3F2F17",
"% c #2F2F2F",
"& c #373737",
"* c #430000",
"= c #470000",
"- c #4F0000",
"; c #530707",
": c #5B0000",
"> c #5B0707",
", c #5F0707",
"< c #670000",
"1 c #670B0B",
"2 c #6B0F0F",
"3 c #730000",
"4 c #7F0000",
"5 c #731313",
"6 c #771717",
"7 c #7F1B1B",
"8 c #4B371B",
"9 c #533F1F",
"0 c #5F4323",
"q c #6B4727",
"w c #774F2B",
"e c #8B0000",
"r c #9B0000",
"t c #831F1F",
"y c #A70000",
"u c #B30000",
"i c #BF0000",
"p c #872300",
"a c #932F00",
"s c #9F3700",
"d c #A73F00",
"f c #8B2323",
"g c #8F2B2B",
"h c #972F2F",
"j c #9B3333",
"k c #CB0000",
"l c #D70000",
"z c #E30000",
"x c #EF0000",
"c c red",
"v c #FF1F1F",
"b c #AF4300",
"n c #B74700",
"m c #875733",
"M c #B34F4F",
"N c black",
/* pixels */
"NNNNNNNNNNNNNNNNNNNNNNNNNNNNNNNNNNNNNNNNNNNNNNNNNNNNNNNNNNNNNNNNNNNNNNNNNNNNNNNNNNNNNNNNNNNNNNNNNNNNNNNNNNNNNNNNNNNNNN",
"NNNNNNNNNNNNNNNNNNNNNNNNNNNNNNNNNNNNNNNNNNNNNNNNNNNNNNNNNNN O+%&++O. NNNNNNNNNNNNNNNNNNNNNNNNNNNNNNNNNNNNNNNNNNNNNNNNN",
"NNNNNNNNNNNNNNNNNNNNNNNNNNNNNNNNNNNNNNNNNNNNNNNNNNNNNNNNNN O+++O.      NNNNNNNNNNNNNNNNNNNNNNNNNNNNNNNNNNNNNNNNNNNNNNN",
"NNNNNNNNNNNNNNNNNNNNNNNNNNNNNNNNNNNNNNNNNNNNNNNNNNNNNNNN<<eeeeeeee<<.   NNNNNNNNNNNNNNNNNNNNNNNNNNNNNNNNNNNNNNNNNNNNNN",
"NNNNNNNNNNNNNNNNNNNNNNNNNNNNNNNNNNNNNNNNNNNNNNNNNNNN<eeyeeeee411euuye<<. NNNNNNNNNNNNNNNNNNNNNNNNNNNNNNNNNNNNNNNNNNNNN",
"NNNNNNNNNNNNNNNNNNNNNNNNNNNNNNNNNNNNNNNNNNN-NNNNNN:4ruliye444433ruiiuee<. NNNNNNNNNNNNNNNNNNNNNNNNNNNNNNNNNNNNNNNNNNNN",
"NNNNNNNNNNNNNNNNNNNNNNNNNNNNNNNNNNNNNNNNNNNNNNNNN:4yilirr444pp44eyuiiuur3. NNNNNNNNNNNNNNNNNNNNNNNNNNNNNNNNNNNNNNNNNNN",
"NNNNNNNNNNNNNNNNNNNNNNNNNNNNNNNNNNNN------NNNNNN:<eyiiyreprrrryyuupuuiuue3::**NNNNNNNNNNNNNNNNNNNNNNNNNNNNNNNNNNNNNNNN",
"NNNNNNNNNNNNNNNNNNNNNNNNNNNNNNNNNN--euuee--NN**:<peruyeeppuuiikkkkkkuuuuyre3<::*NNNNNNNNNNNNNNNNNNNNNNNNNNNNNNNNNNNNNN",
"NNNNNNNNNNNNNNNNNNNNNNNNNNNNNNNNNNe-NNNNNNNN*<34eeryr44pauikzzxccccxzzzliiyree3:*NNNNNNNNNNNNNNNNNNNNNNNNNNNNNNNNNNNNN",
"NNNNNNNNNNNNNNNNNNNNNNNNNNNNNNNN-NNN*:<<<-::errpperre:<apukkzzzzzzzzzzzczzliuur4:*NNNNNNNNNNNNNNNNNNNNNNNNNNNNNNNNNNNN",
"NNNNNNNNNNNNNNNNNNNNNNNNNNNNNNN-NN4yre443<4rupyyreuuyyukllllkiiiiiiiiikzzzczkiue<:NNNNNNNNNNNNNNNNNNNNNNNNNNNNNNNNNNNN",
"NNNNNNNNNNNNNNNNNNNNNNNNNNNNNNNNNyurrrraerukkuiuuukkkkklllllkirrrrryuuuiklzllkur3:NNNNNNNNNNNNNNNNNNNNNNNNNNNNNNNNNNNN",
"NNNNNNNNNNNNNNNNNNNNNNNNNNNNNNNN4uryaaryuikkkakklzzzzzllllxzlkuyrerrryyukkkiuuur3:NNN******NNNNNNNNNNNNNNNNNNNNNNNNNNN",
"NNNNNNNNNNNNNNNNNNNNNNNNNNNNNNN*e4eaaruuikkiulllxxxxxzllllzxllkiyyrerryikkip4ere<:--:<3333:**NNNNNNNNNNNNNNNNNNNNNNNNN",
"NNNNNNNNNNNNNNNNNNNNNNNNNNN****=::<aeyuuupspklzxccccxzlklllzlllkiiyyyuikkkkup<**:p<<4ruuye43:*NNNNNNNNNNNNNNNNNNNNNNNN",
"NNNNNNNNNNNNNNNNNNNNNNNNN**<<<::--:4ruuypsailzxccccxzxxzlkiklllllkikkkkkkkpur<:3psp3ruikiiir3:-*ppNNNNNNNNNNNNNNNNNNNN",
"NNNNNNNNNNNNNNNNNNNNNNNN*44443<:**<eryrepapilxcccxzzzxxxlkkiikllllllllkkkkkur3rrrpspryyyyyyye4<::*pdNNNNNNNNNNNNNNNNNN",
"NNNNNNNNNNNNNNNNNNNNNNN*4urrr<:=*:3erreerpyklxcccxlkkklllkkkkklzxxxxxxllllkue<3ruypp4eee4errrryee3*pdNNNNNNNNNNNNNNNNN",
"NNNNNNNNNNNNNNNNNNNNNNN6uuyr3:***<34e4eryikllxccxziuuikkkkkklzxxcccccxzxxzkuy4::4ue<<ee<<:34rykiur3:pdNNNNNNNNNNNNNNNN",
"NNNNNNNNNNNNNNNNNNNNNN*5kly4<=***<<<<:eraiallxxxzuyerryukklzxccccccccxlxxxzziy4:<re44e443<:p4rilkuy3*pdNNNNNNNNNNNNNNN",
"NNNNNNNNNNNNNNNNNNNNNN*riur<:***<4<:--eraklzzlzliy4ryikklkzlxcccccccxxxxxxzzzlue4eeeprrrr33<<pyklkur3*pNNNNNNNNNNNNNNN",
"NNNNNNNNNNNNNNNNNNNNNN*4yy4:::<<p<<:<4rrklxzzlkue4rykllklikzlkkllxxxzlkllllllzziyeeeeruiir43<ppykllpe3*pNNNNNNNNNNNNNN",
"NNNNNNNNNNNNNNNNNNNNNN*<e<:<3pp3<*:3ryuukzxzlkir44ykzlzzlkukiikklzlzzllkkkiiklzzirre3rukliue33erukkipe*pNNNNNNNNNNNNNN",
"NNNNNNNNNNNNNNNNNNNNNNN=:<4epaasp:4euuuykzxxlky4erilzzliiyryikllzzzxxxllllkiiklzzkkueeyizlkue<3prukkpe<*NNNNNNNNNNNNNN",
"NNNNNNNNNNNNNNNNNNNNNNN=*3prpaayryuuuiurilzzlkierizxxxzlkyyiklzzxxzxccxxxzkiuuizlxzkuryulzkky4<<eyikue<*NNNNNpNNNNNNNN",
"NNNNNNNNNNNNNNNNNNNNda*:<eapaasikiiikkurullzllkuuzxccxzkuruxzxccccccccccxxlkiyukzxcxkuuikzzlie<:3eyuu4<*NNdaNNNNNNNNNN",
"NNNNNNNNNNNNNNNNNNNda#*<epaeyuikkiyikkueukllkzzkkzxcxzlirykzzxccccccccxxzlkiyrylcccczkikkzzlkr3<<eryr3:*NNppNNNaNNNNNN",
"NNNNNNNNNNNNNNNNNNda#o:erarrauikkiiikurukkkkkzkkklzxzkuueyrkzxccccccccxzlkureerkccccczkkkllzkprp<3eee3:*NNNNNNNNNNNNNN",
"NNNNNNNNNNNNNNNNNNa#o*eryyraaukkllkiiyiklklkklziikllkuuuyuiklxxccccccxzlkiyeereykzcccxkkkklkkkisp3<4e3:*NNNNNNNNNNNNNN",
"NNNNNNNNNNNNNNNNNdao*<ruurearuklzxzkkklkkkkkkzkryukkiuyuikklkzxxxxxxxxxxlkuyrryuiukxcxzkkiurikkisp:ee4<**NNNNNNNNNNNNN",
"NNNNNNNNNNNNNNNNNd#*:eyuye3erukzxxkiklzzkkzzzxiyeyuuyuukzxxzlkllzxcccccxxkiyyyyuuuiilxzkkiyeukzkye3rre3***NNNNNNNNNNNN",
"NNNNNNNNNNNNNNNNNao:<arur:<4aukzcziukzxzzzxxxzueerrryuklxccxzlzzxcccccccxlkuuyyuuuyuikzlkiyrrizzkaryur4****NNNNNNNNNNN",
"NNNNNNNNNNNNNNNNNp=<erur4<<3rukzxkuukzxxxxxxxzueereruikzxcccxzzxcccccccxxxkkkiiuyikkiklxlkureykxxkuuiue<***NNNNNNNNNNN",
"NNNNNNNNNNNNNNNNN#:e$uye<<<<rukzziuukkzzxxxxxzueyr4rukkxxccccxxxccccccxxxxxxzlkiyikkkixzlluurukzxziukur<***N*NNNNNNNNN",
"NNNNNNNNNNNNNNNNNo:e$ur3-:<<ruklziuuuukkzzzzxzkuurerizllzxccxzzxcccccxxxccccxxlkrizkkukkkkiuuuilzxiuukue:*N**NNNNNNNNN",
"NNNNNNNNNNNNNNNNN*:errr<*::3rukkliurreruukkzxxzkiyerizkklzxxzlxxcccccxxccccccxzkyizzkukkkliuuyiklzkpuiup<*****NNNNNNNN",
"NNNNNNNNNNNNNNNNN*:eu$r<*-<4aukkkiir<34eyulzxxzlkueukziyikkkklzxxccccccccccccxxkulxzkukklzluyryilliruiup<*****NNNNNNNN",
"NNNNNNNNNNNNNNN4N*:rurr3*:3eayikkiir<::<eilzxxzkkuyulxiyereruklzxxxccxccxcccxxzkklxzkuiklzlureryiuyeuure<*<-**NNNNNNNN",
"NNNNNNNNNNNNNNN4N*:euur4-<4ruyuikiiye:::eukzxxzuiirilxkueeeryiklzxxxcccccxxzzlkklxcxzkkkzxlur33eyre3rurp:*33;*NNNNNNNN",
"NNNNNNNNNNNNNNNN@*:eyuy4<4eruaruuiiue<:<4yizxxzuuueilzzkuryyyuiklzzxxxcccccxlklzccccxlkkzxlue:*3r4<<rre<*-43-**NNNNNNN",
"NNNNNNNNNNNNN4N*@*:4rur34rreuureeyuie<344eukzxlyuueiklxzkiiiiyuikllzzxxcccxzllzcccccxlkxzxlu4**<3<444r4<*<e4:*oNNNNNNN",
"NNNNNNNNNNNNNNN*@*:3ere<eureyureeeyir4rr33yilliruuruikzxzlzzliyuuikklzxxxzzlzzxcccccxllcxxky3*-<<344<*3**eue<*@NNNNNNN",
"NNNNNNNNNNNNNNN3$o-:4ee<err4ruyeeeruyeur4<riiuyryuyyuilxxcccxliuiklkiikzzzxxxzxcccccxlzcxzky3--<:44e<**:<ekr<*pNNNNNNN",
"NNNNNNNNNNNNNNN3p@*-<43<4ee4riur4eeryiuue<euuyeerukiyukxcccccxlkzxxzkkukxccccxxcccccxlzcxzku4::=-4r4:*:44rur<*pNNNNNNN",
"NNNNNNNNNNNNNN$3e$o*:3<:<344rkuye44eeyiur4erre3<eykkkkzccccccxllxcxzkiuykxcxccxccccxzkxcxlkue43<:3y4<-*4eyuy3<psNNNNNN",
"NNNNNNNNNNNNNN$*up@*:<<:-:<4rkiue<<<3ruuye444<::3riklzxcccccxzlzxcxzkiuykzxzcxlxcccxzkxxzkkr3<e434e4<<-3eiky3-adNNNNNN",
"NNNNNNNNNNNNNN$$*epo*<<:-*:4rkkur3:*:4yuur44::*:4rukklzxxcccxlkzxxxzkiuilzxccxklxcxzlkzzlkir4eur444re4:*4ukr<;snNNNNNN",
"NNNNNNNNNNNNNN$0#pp@-3<:**:3rikiy4:**3ruiuee<-:3eyuikkkkkxcccxzkzxxzkurkzcccxlkkkxzlkkkkkkir4ukueeyuye:*<uue<oasNNNNNN",
"NNNNNNNNNNNNNN$dw9dp-33<**:3ruikue:**<eukur443<eruuurryukzxccccccccxxzzzxccczkuuikkiiuikkzkuuklurruiue**3uu3-@psNNNNNN",
"NNNNNNNNNNNNNN$0mnda*4r3=*-<eyuuye<**-eyuiuyreeruuuye<3rukzxcccccccccxxxzxccluyyyreeeryuklikklkueuiiyp**4ur<*pdNNNNNNN",
"NNNNNNNNNNNNNNN0mbds*3r43--:3errre3**-3eyuuyrryyuiuyr44ruukzxxccxxzzzzlklzczieerr4<:34erkkkzlkurrukir3:*4rr:opsNNNNNNN",
"NNNNNNNNNNNNNNN$wdds@3ee43--:<4eee4<*:<3eeeeeryukkiuyrrrryuikklzzxxzlkiikzzir<4ur4*:<<4ruklzlur3rikirp:<4ee*@pNNNNNNNN",
"NNNNNNNNNNNNNN$8qdsa$3err43<-:<3erre3-<<<3334eeikkkiuuyreryyyuikkllllkiiiiiu4<ruu3:<34rruklkuureukkupa33ey3opsNNNNNNNN",
"NNNNNNNNNNNNNN$qsbsp@:4ryr43-*:<erkur4<<<:*=<4ruikkkiiuuruuuurrryukklkkkkkir4eyre3<ereeruiuyrrryikkusp34er4osNNNNNNNNN",
"NNNNNNNNNNNNNN0snaap1*<44e4<:=*-3rilir344<**:4ruiiikkkkiuikkiuuuiikkzzzzzkueryrrrrryye4eeee4errukkupp@eruee*NNNNNNNNNN",
"NNNNNNNNNNNNN0sbsp11***:<:<::****4uklirere<*:3eyuiiiilllkklzzlkkklxxxxxxkuruureyuuuuye<3<<33eruuisep@4yuue**NNNNNNNNNN",
"NNNNNNNNNNNNNsnp11**:<333<:--====:rikuiurue<:<34ruillkklllzzxzzzzzxxxxxkuiilliyrrrrr<<:::<4eryuupp<*4ruzye*NNNNNNNNNNN",
"NNNNeNNNNNNN0np1<<*3eryyre3<:-:<<3euklkliiue444ereilzlllllklzzzxzcccccxzzzzliye44<ee:::<<eryyyyre<:34ykur**NNNNNNNNNNN",
"NNNNNNNNNNNNsa13eeryuikiure<<<3eeeruilxclikuyrryuikllzxxxzluuuiikzxccccxxzlur3-:3ryr<<<3eryuyre4<:34eyye3*3NNNNNNNNNNN",
"NNNNNNNNNNNNp1<eriikkkkiuyyyrrryyryikkzxxlkuuuuikikllxxxxxli44errkkxxxxxxzkur<eeyuuyeeeyuiree<**-334ee4**eNNNNNNNNNNNN",
"NNNNNNNNNNNN1*<ryikkauuyiiiiiuyyyrrukkkkllkureruuuiilzxxxxllurrukklzzxlllllkikuuuuururerkzke:**-3r4333**e:NNNNNNNNNNNN",
"NNNNNNNNNNNN*:eyikkkurayiliiiuyyuiuuiikkkkkuyrrreruyilllzzlkiuuukzlzcxxxxzzzzxzllkuyureykxzie<--ele33**e:NNNNNNNNNNNNN",
"NNNNNNNNNNN*:<ruklsar4eyliyee4euklluiuukkkiiyrryrryyyikklllkiuyyykzccccccccccccxxkryyreeulzzie3:rue33*u3NNNNNNNNNNNNNN",
"NNNNNNNNNNN:<euiksdae34ykirreeryikllkuuuuuuiyyryyrrrruikllzlkueeeukzxxccccccccxzzkiureeeykzzzir<er333**:NNNNNNNNNNNNNN",
"NNNNNeNNNNN<3rulkddp4<eyiyyuuyyryklllkurrrriiuuuyee4erukllxzliuyyyykzzzzxxccxxzkilliye4eeykzxzu4<3ee4:*=NNNNNNNNNNNNNN",
"NNNNeiNNNNN4eyudlspe<ryuuuyyiir4euklllkuyerukiuure434ryuiklxliiiiuyukkklzzzzzlkiuyuuyre444ukzxky43er3e3:=NNNNNNNNNNNNN",
"NNN4u::NNNN44eudiae4yikiillkkuyr4rukllkiuuruikkiiyeeeerryiklliuiiiiuuuikklkizzxzlkkuerrrryyikzkkyeee4eue:=N::NNNNNNNNN",
"NNN<zr:ppppf:3ylie4ykxzklzzzuyyyyrrikikkkiyuiiikiuuuuuuuuuuikiiikkkiuyyuiykkklzzzzkkkkiryiuuukuyye3:3euue:*N:r:NNNNNNN",
"NNN<asadsph2:<rlue4uxziilcclirryuyuukkkklkkkkuuuiklllllllkkiiiikllllireeuiklllllkkkzzzluyiiiiyree4<::3eru4:N:rr:NNNNNN",
"NNNpasdspfN4N:eurerixlrulcxluikkkkuikukzzzzzluuuuillzxxxllkiillzlllkuyeuikllllkiiiklzzkyrruiiyee4e4<::3ere3-N:i:NNNNNN",
"NNNNpss::N:4N-eur3yixirylcxlklxkkuuikkklzxzzlkreyuuullllllkiikllllkiuruklllkyyuuuuukllir4eerureeerre3::4rue:N:riNNNNNN",
"NNNNpasr:-:4::4yreukzieilczlllkkyrrkkkkklzzzckureerrruikkkkiiiiuuruuuuklllkukkkkllliiiiur444eeeeyuuye<-3rie:N:ri:NNNNN",
"NNNNNppz:<-::<4yrruily3ilxlkzlkkirukkkkuuikzzlkrryre33rukkkkure4ruuuyukllluuklxxxkkiuiiuur<<:<4eukkur<*:eue:N*:r:NNNNN",
"NNNNN:4ik-<<4eryyrryyu4illllkiklkiklzlkirukzxzluruur4eeyikkkkurrukur4yklluyrkllxzzliuiiuuye3<:<rikkiy4**:r4:N*:r*N*NNN",
"NNNNN::4r<*3ryiiir3ruyeiklllkkkkkklxxxlkuilxxxzkyyiiyyyrukkkkkuukiy44eukuyyyklkzzzzzllkiyuur434rkkkku4:**e3-***:*N*NNN",
"NNNNNN:4**<eriikireryreyikzkkkkzkkzxxxxkilzxcxxluuikkkkkkiikkkklkue<3euuyyyukklzxxxzzzzkiiiur4erizkkue<-*::*:*N:*N*NNN",
"NNNNNN:*<3<eyilzireyuyeruklkkkkkklzxxxzlkzxcccxluuikkklkllllllllkye3:euuye4yuizzzzzzzzzlkkkir3<erkkkurp*-::33*NN*N*NNN",
"NNNNNN:4r<4ryizzurryiiyeyklzlkkkklxxxzlkzxccccxluuuyyyuillllllzlkur4<4yuyrruukzxzzzzllkklzlir<<:4ykkkyp*:44er3*N*NNNNN",
"NNNNNN2ru<erukzzieriklurykkkiuyukklllkkklxxxxzlkuureeeerryukkkzlkur33eyuuruuilzzzllkkkllkzzur3<3<eikkue::eeere*NNN*NNN",
"NNNNNN>yu3ruilzzlueilxkuekkkuyruikkkkkkillkkiikuuue33<34eeruuukiiuy43ryiiruiikxzzizzxzkuilzuerrrr<ykkur<*eeeee*N*NNNNN",
"NNNNMN>ru3rukkzxxliulxllikkkyeyuikkkkkuyuyryyeryaue3<<<<:<eyuuuyyyye3rizliiiiilxzzzccxkuukluyruyr:rikkp3:34ee**NNNNNNN",
"NNNNNN-ru<rikijxxxlyklllllkkuyryuukkkure3<eryeyupyeeeeee4<4ruur44eyy3rikxlkuiiiklkzcxzkuykluuuuky:eukka3::3e3*NNNNNNNN",
"NNNNNN-4r<eikiagxxcliikllzlkuyyreriuur43<34rrryuureerrrye<4eyy4**4ererikcxluiiiyikkzzkiuyiiyuiilpreukkp<**34:*NNNNNNNN",
"NNNNNN=<4:3ylksafzzziyiilzxllkiiurrre3<44eryrerryyryukye3<4ere<**<443ruilcliiiiuyikkkiuuyuuruilip<eukke:*:e4:NNNNNNNNN",
"NNNNNNN==-<ekkupuiikiueyiillliiuu4eeeerrrrye4eryyuuikue<::4ee4:*-<4ee4ruikxkiiuuuikkiuuyuur4yllye<rukkp:*444*N:NNNNNNN",
"NNNNNNNN3-<euiiye3uikue3eryuuuuiiyyyeryyrre44eyukkzire3:-:34e4:*:<ere34erukkiuuyryuiuuyuiueyyrr3:4ruuy3:*3e*NNNNNNNNNN",
"NNNNNN3NN-<4ruiuyerakue<<3e4<3eiikliiuuye44peryuyuure3<*-:<3444:<4erre<<4eyiiiureryyuuuiuuyyre::<eyyr<::*::NNN:NNNNNNN",
"NNNNNN33N-<<eyiiuuuklup<-:<3e<4riklllkiuyrpyye44eyre4<<:<<:<<443<eryyre444rkkiuuyyuuuikuyyr<e3<<4ryree434-NNNN:NNNNNNN",
"NNNNNN33N:<4rruzkkukiap<<-4eureeyikzzliiyyuuuye4ruy4<<<<33<:<3333eyuuuree4eykkiiuuuiklkuee4ere4<3eeruur44*NNN::NNNNNNN",
"NNNNNN33N<rryuukzzziiur44<euulureuiiiuapyuklzkuuuku4<<<3eee<:<:::epuikiyreerulliiiklzliryyryure<:ruuiire3N:NN:NNNNNNNN",
"NNNNNNN3N*4uiuuilxczkuruperuilzlllliyyyuilzxxxklkir43<:<erre<<<3<3paikkiuyrryikukkzzzllkkiiuiue<eiiiure43N:N:NNNNNNNNN",
"NNNNNNNNNN<riuupikxxzkurupruazccczlkiuillzcxxxxzup43<::<4erre:<3<4epukkkkiurrriiikklllkkkkkkkueerizue433N:NNNNNNNNNNNN",
"NNNNNNNNNN*4ruyspukkkauureeyuklzxxzlllxxxxxzzczup3:<:-*:<4ryue:<<3eerpikkkuuyuuuuyyyyyyuiikkkueruuue3:-NNNNNNNNNNNNNNN",
"NNNNNNNN3N**344psprukuuyrppryuuikkllxzxzzzkkzkue4:-*-***:<eyyr<:<<<3eeyuuiiyikkkureeeeeryikkiypeere3==-**NNNNNNNNNNNNN",
"NNNNNNNNN3N**<44pp<eryrrree4rrrryuiiiiiiuyeryre44:-******:3rree<<-**:<eryuikkkkkur4<34eyukkiuep3e3*=:::*NNNNNNNNNNNNNN",
"NNNNNNNNNN-N**<<<*-<<er4eeee4444eryyrrrrr444444433-==:****:errpre<:**:<4pyuikkkuye34eruikkkurp:=**-::4*NNNNNNNNNNNNNNN",
"NNNNNNNNN-3N***====-***:<<<<43334eee3<<:ee3:-:e333<=33-****3ruuuap3<*:<<4rrukkkkureeruikkipr4<**-:-=**NNNNNNNNNNNNNNNN",
"NNNNNNNNN3e3-******=:-**-::**e444eeyyuuuiy4==:<:**<3e3-*N***eiuuuae3<::<:<3euuiiurrrryuuuye<**-::3**NNNNNNNNNNNNNNNNNN",
"NNNNNNNNN-yie--******-:<4*****e43<34euerre3***::<34er3-*NN***eyyrre3<<::3-**3erree444eeep4*---:3**NNNNN:NNNNNNNNNNNNNN",
"NNNNNNNNNN-yieO-******=::-<4443::=***4e4<***=-34eerre3**NNN***<3p43<:::3r3:**:<:::::*33*:-**::*NNNNNN::NNNNNNNNNNNNNNN",
"NNNNNNNNNNN--33O--********-<43:=*=NNN--**=NNN=:3euye3:*NNNNN****-::***=:4re3:::***:3343-=*****NNNNNNNNNNNNNNNNNNNNNNNN",
"NNNNNNNNNNNNOO...O--*************NNNNNNNNNN==3erre33**NNNNNNNN*********-3eeeerreeeeeee3-*****NNN:NNNNNNNNNNNNNNNNNNNNN",
"NNNNNNNNNNNNNO.OOOO-<43**********NNNNNNNNNNNN==*****NNNNNNNNNNNNNN*****=:3eeruiiurree3:=*****NNNNNNNNNNNNNNNNNNNNNNNNN",
"NNNNNNNNNNNN----44<yiuee4444*NNNNNNNNNNNNNNNNNNNNNNNNNNNNNNNNNN*N*33****=:3eeerureee3:*****@@NNNNNNNNNNNNNNNNNNNNNNNNN",
"NNNNNNNNNNNN34rukzcvvvxir4<::NNNNNNNNNNNNNNNNNNNNNNNNNNNNNNNNN*>*33<*****=-:33333333*********NNNNNNNNNNNNNNNNNNNNNNNNN",
"NNNNNNNNNNN>257lllxxxxlkiy<::NNNNNNNNNNNNNNNNNNNNNNNNNNNNNNNN*>22eerueo***********-,,1221,==*XNNNNNNNNNNNNNNNNNNNNNNNN",
"NNNNNNNNNN+->2fykilxzkzliye<<oNNNNNNNNNNNNNNNNNNNNNNNNNNNNNNN*>262<erueoooXX******---,1,;-***XNNNNNNNNNNNNNNNk4NNNNNNN",
"NNNNNNNNNN+-->,5eyizzkkkkiye4oNNNNNNNNNNNNN-NNNNNNNN-NNNNNNN*N*>22<:<ere<<XXXXX****-;,1,;;-**X*NN*NNNNNNNNNNN4:NNNNNNN",
"NNNNNNNNNN  X>>,<<4ee4e4eyr* oNNNNNNNNNNNNNNNNNNNNNe-NNNNN22iNo@>22<*:<<e<XXXXX***=-;,11;;-***X3r*NNNNNNNNNNNNNNNNNNNN",
"NNNNNNNNNNN*224eryiiiiiiurre*NNNNNNNNNNNNNNNNNNNNNiNNNNNNNo>2Noo>>>>----<ooXXXX***->,>21,;;***Xr**NNNNNNNNNNNNNNNNNNNN",
"NNNNNNNNNN+;,654rukzzxxlir<<-+NNNNNNNNNNNNNNNNNNNNNNNNNNNNNooNNooo@@@@@o@ooXXX***->,11521,;-**X**NNNNNNNNNNNNNNNNNNNNN",
"NNNNNNNNNN+->1265rillzzxir4<=oNNNNNNNNNNNNNNNNNNNNNNNNNNNNNNNNNNNNoooooooNNXX******;;>>>;*****XNNNNNNNNNNNNNNNNNNNNNNN",
"NNNNNNNNNN+--,,26eilllzzzire*oNNNNNNNNNN:NNNNN-NNNNNNNNNNNNNNNNNeNNNNNNNNNNNXXXXXXXooooooXXXXXNNNNNNNNNNNNNNNNNNNNNNNN",
"NNNNNNNNNN+-->,175illlkkkiu-eoNNNNNNNN4*NNNNNNNNNNNNNNNNNNNNNNNNNNNNNNNNNNNNNNNNNNNNNNNNNNNNNNNNNNNNNNNNNNNNNNNNNNNNNN",
"NNNNNNNNNN+*>,,17tillkiiue4*:oNNNNNNNN44NNNNNNNNNNNNNNNNNNN-NNNNN-NNNNNNNNNNNNNNNNNNNNNNNNNNNNNNNNNNNNNNN4NNNNNNNNN4NN",
"NNNNNNNNNNN++>>>2677yr7r3<>++NNNNNNNNNNNNNNNNNNNNNNNNNNNNNNNNNNNNNNNNNNNNNNNNNNNNNNNNNNNNNNNNNNNNNNNNNNNNNNNNNNNNNNNNN",
"NNNNNNNNNNNNN+o+**->--;-*++NNNNNNNNNNNNNNNNNNNNNNNNNNNNNNNNNNNNNNNNNNNNNNNNNNNNNNNNNNNNNNNNNNNNNNNNNNNNNNNNNNNNNNNNNNN"
};
