/* XPM */
static char *result[] = {
/* columns rows colors chars-per-pixel */
"135 131 41 1 ",
"  c #070707",
". c #0B0B0B",
"X c #170F07",
"o c #1F170B",
"O c #1B1B1B",
"+ c #2B230F",
"@ c #332B13",
"# c #430000",
"$ c #470000",
"% c #4F0000",
"& c #530707",
"* c #5B0000",
"= c #5B0707",
"- c #5F0707",
"; c #670000",
": c #670B0B",
"> c #6B0F0F",
", c #730000",
"< c #7F0000",
"1 c #731313",
"2 c #771717",
"3 c #7F1B1B",
"4 c #8B0000",
"5 c #9B0000",
"6 c #831F1F",
"7 c #A70000",
"8 c #B30000",
"9 c #BF0000",
"0 c #872300",
"q c #8B2323",
"w c #8F2B2B",
"e c #972F2F",
"r c #9B3333",
"t c #A33B3B",
"y c #A73F3F",
"u c #CB0000",
"i c #D70000",
"p c #E30000",
"a c #EF0000",
"s c red",
"d c black",
/* pixels */
"dddddddddddddddddddddddddddddddddddddddddddddddddddddddddd##;;;;#####dddddddddddddddddddddddddddddddddddddddddddddddddddddddddddddddddd",
"dddddddddddddddddddddddddddddddddddddddddddddd#;;###ddd##;<<<<;;;;;########dddddddddddddddddddddddddddddddddddddddddddddddddddddddddddd",
"dddddddddddddddddddddddddddddddddddddddddddd#;;##dddd##;;;;##dd#$%%;;;;;*;;,###dddddddddddddddddddddddddddddddddddddddddddddddddddddddd",
"ddddddddddddddddddddddddddddddddddddddddddd####ddd###;;;##ddd##,44<<<<,;*#*;;#dddddddd#dd#####ddddddddddddddddddddddddddddddddddddddddd",
"ddddddddddddddddddddddddddddddddddddddddddddddddd#d;###ddddd#;<<<<<44454<;**,;##ddddddddddddddddddddddddddddddddddddddddddddddddddddddd",
"dddddddddddddddddddddddddddddddddddddddddddddddd##d##dddd###$%;;;;,4788754;#*;*########ddddddd####ddddddddddddddddddddddddddddddddddddd",
"dddddddddddddddddddddddddddddddddddddddddddddddddd##dddd#d####$%%%;<5775554<*;*############dddd######dddddddddddddddddddddddddddddddddd",
"dddddddddddddddddddddddddddddddddddddddddd############d#dddddd#####;,4444444;%*#dd###########dddd#*,;##dddddddddddddddddddddddddddddddd",
"dddddddddddddddddddddddddddddddddddddd#######################$****#*%;;;;;,4<;%$###ddddd###########%*;##ddddddddddddddddddddddddddddddd",
"ddddddddddddddddddddddddddddddddddd####*$##**;;;;;**#$$**;;;**;;,,,;*#%%%*;;<<;;;;;###ddddddd###dddd#*;*#dddddddddddddddddddddddddddddd",
"dddddddddddddddddddddddddddddddddd###,;**$*;<<444<<;;<<<454<54<<4574<*##%%%*;,<;444,;;####ddddd##dddd%;;#dddddddddddddddddddddddddddddd",
"ddddddddddddddddddddddddddddddddd##,,,,;;;,<5775577,,<<<5<<,,;;<<444<,*####%4444<<444<;;###########dd#;;;#ddddddddddddddddddddddddddddd",
"ddddddddddddddddddddddddddddddd##*,5,,;,<<45875754<;;<4<<,;*%#**;<44<<<**%%*;444,;,<44<;%##**d##ddd##d%;;#d####dddddddddddddddddddddddd",
"dddddddddddddddddddddddddd###dd##*<,,,,<54457444<;*;;,,,;;*%$###*;<<<,*****%**;;;**;<44<;#####*d##ddd##%%##dd#d##dddddddddddddddddddddd",
"dddddddddddddddddddddddd########$***;;<7555778887<;,,,,,<,**%###*,;%**#**%%######%**;;<;*%#######d##ddd###%#dd#dd#ddddddddddddddddddddd",
"dddddddddddddddddddddd###,4,;*%#$d$#**,<<455577754<<<45554<<,,**;4,%%**###%###%$$%%%*****%#$$###d#####d#d#*##d#####d#dddddddddddddddddd",
"ddddddddddddddddddddd##%;<4;***$d##,***;;574<<4545557777755544;,<<,;***********%######%**%%%#%#########d##%;;*;;*#%###ddddddddddddddddd",
"dddddddddddddddddddd##%;;4*#%<;%d%#**%**,7<;*<4555789999877554<<444<<<<<<<<<,****;*%%%%%%%*;;%###$$#$##d###;;,;**;;*%##dddddddddddddddd",
"dddddddddddddddddddd#%%;;#d#%4;%%%#%dd#*;;;%*<557789uuuu98777555555557777755<<<<<<<,;;*$%%;<,;%##%***%#####;<,;*$*;;%##dddddddddddddddd",
"dddddddddddddddddddd#%*,;#d#%,;**%dddd%***#*,<555789uuuuuu9987777777899988874<4557754<,;;;<<<,;##$%*,,;%###;;*##dd##d###ddddddddddddddd",
"ddddddddddddddddddd#$$$%##*%;;<%%#dd##%%%#$*,<444579uuuuuuuuu9987789uuu98775<<458888874<<<<444,;%$#%;,,%##$$;%d#####d####dddddddddddddd",
"ddddddddddddddddddd#$#d#d##%;;;*##d##$$%#d$*,<<,<579uuuuiiiiiuuuu9uuuu87754<<<457888998444,474<,*%$##%*$$%%%*%#####ddd####ddddddddddddd",
"ddddddddddddddddddd###d#d#;454;%d#*%##dd$$%*,<,,<578uuuiiiiiiiiiiuuuu975<<<,,44455558877784,444<;%%###$$$%;,,,;%#$$#ddd####dddddddddddd",
"ddddddddddddddddddd##dd###,744;#*;**#dd#%*;;<<,;<5779uiiiiiiiiiiiiuuu875<,;;;;,;,,,,455585544444,;%#$%$$$%;<<44,$%%%#dd####dddddddddddd",
"ddddddddddddddddddd##dd###<4<;****###d#%*;,<44<<457789uuiiiiiiiuuuuu9875<,;*;;;;*%*;;,,<4<,<4594<;##%%%$##*,<<444,;*%#dd###dddddddddddd",
"ddddddddddddddddddd##dd###;,;%**%%#$#$%*;,44444457777789uuiiiuu999998875<,<,;***%%%%%%;;,,;;<454,*#$%%*%###*,445544<,%##d###ddddddddddd",
"ddddddddddddddddddd##ddd##*;**;;*##%#%d*;4554455777555578uuuuu877777555<,,<4,;*****%%%%;<;;,<445,*%$%%;;%##%;,4555554,*$####ddddddddddd",
"dddddddddddddddddddd#d%dd%*%%#**##******;455<4557754<,<578999875554<<<,,;;,,;<,;;;;;*$#*;;;<<<44<;%%#%;;%###%;<4555554,%##d#ddddddddddd",
"ddddddddddddddddddddddd%d%%%##*%#*;,,***;4544457754,,,<45777754<<<<<,;;*%%*;<77<;;,<,;$###;;<,<<<;%%#%;,;%###%,<4555754;%#d#ddddddddddd",
"dddddddddddddddddddddd%%%%%##%%#*;<<<;**;<4,445775<,,,,,577754<<<<<<,;*%$$$$;,,,;;;<7;*%$#$*;,<;,;#%#%;<,;####*,4455775,%###ddddddddddd",
"ddddddddddddddd%ddddd%%%%%##d%%**,45<***;,,;<4555<,;%*;<57754<<<<4554<;,$$##$##%%%*;;,*%%%$%%<4,,;%%#%;<<;#####*,455775,%###ddddddddddd",
"dddddddddddddd%ddd%%%%d%%#dd%***,<55<;**;;;*,455<,;***,<5554<<<455555<*%*******%#%%*;<,;******<;<;*%#%*<<<#d####;445555,%%##d#ddddddddd",
"ddddddddddddd%ddd%d%%d%%;dd%%**;<444<,**;;**,<4<,;*$**,<554<<<45755<,*$*<<<<,,**%#%%*44444<,<,*#;;;*##%;<;##d###%,<4554,%%#####dddddddd",
"ddddddddddddd%d%%d%%%d%;%$#%$*;,<<<<<,****$*,<<,,*$$$*,<554<<45775<;%$#*,<,,,,<**%###*44444474*#%;*%##%;<;##d####*,<444,%%####d#ddddddd",
"dddddddddddd%d%d%d%*%%%%$d%%*;,<<<<<,;*$$$**,<,;;*$$$*,<554<<5775<*$$$%%*********%###%%,444444;##%%%##%*<*####dd#%;<,<,;%%######ddddddd",
"dddddddddddd%%d%d%,,*#%$##**<5<444<<,;%%%%*;<<,;*%$$$;,<45545775<,%#***####**###%%$###$%;<44,4<;#$%$###%;%d#d###d#*,<<,*%%######ddddddd",
"dddddddddddd%*%#d%<5;;%$##;,7<44554<<;%%%*;,<<,;****;,,<<455755<<<,;;,;;;,;,*###########%*;,*44;##$d###%%$$d$dd##%%,<<,;**%#d#dd##ddddd",
"dddddddddddd%,<#d%,4,%*$##,744458854<;**;**,<<,;*;,,,,,,,<455<,;;<<,4<<<5885,;$###########%#%<4<*######$$#$#$dd%##%;,<,,;;%#d#dd###dddd",
"dddddddddddd%;,%d%*;;;;%$*<<44589984<,;;;*,<<<,,;;,<<<,,,,<<,;***;;;*$,588854*$$$############*44*#########$d%ddd%d%%;,,<<;%##ddd###dddd",
"ddddddddddddd%,**%%#;,,;%,,,458899854<,;*;,<<<,;;,<44<;*,,,;*%###$$$$#,<454<;#####ddd##dd#####;4*##$$#####$ddddd%%%%%*;44<*%##dd####ddd",
"ddddddddddddd%%**%d%;44,;,<<458999854<4;*,<<<,,,,<554,**;,,;$###d#$d$#%;,,,*########dd##ddd###**%##$$######dddddd%d%%%;45<;%%#ddd###ddd",
"dddddddddddddd%%%%dd;45<,,<<458999854<<%;,<4<,*,,<55<,$**;;*#######d#$$$%%%###dd#d##ddd#dddd##%%##%#$#######ddddd%d%%%;<54,**##dd###ddd",
"ddddddddddddddd%%%dd$<54<<,<45899984<<<*;,<55,;,<<54<,*$#**%##$dd#d##d##########ddd#ddd#ddddd####%**%#######ddddd%%%%%;<75<,*##dd###ddd",
"ddddddddddddddd%d%dd$;45<,,<45899854<<,;;;<55,,,<<<<<,,*$%%$$$d#dddddd###########dd###dd#ddddd###*;;*%####d#ddddd%d%%%*,54<,**#ddd##ddd",
"dddddddddddd%dd%d%%%%;45<,,<4899985<;;;;*;<75<<<<<<<<<,*$#$$%%##dddddd##d#dd#ddd##dd###ddddddd##*;;,;*####dd#dd%dd%%%%#;<<,4;*#ddd##ddd",
"ddddddddddddd%dd#%%%%<44<;;<4899985<*;;**,4554<<<<<<44<,**%*%%$ddddddd##d#ddddddddddd##dddddddd#*;,<,*#%%#dd#d%%dd##%%%*;;,<,*##dd##ddd",
"ddddddddddddd%dd%%%%%<<<<;;,4899985<,;;**<4555<<455555<,;*;<;%ddddddd#####dddddddddddd#dddddddd#*,<<,*#***%d,;d%dd##%%%%%*;,<,##dd##ddd",
"ddddddddddddd%dd%#%%%,,<,;;;<589985<<,;**,<57754577775<<,,,<;#ddddddd######ddddddddddd#d#dddddd#*,<<<*#;;;%*;d#%%d##%;;%%%*,4,%##d##ddd",
"ddddddddd%dd%%%d#%d#%;;,,;;;,489984<4<;**;,578555777754<,,<5;#dddddd##;,,###dddddddddd####ddddd#;<<<,*#;,,**;<#%%d%%*,,;##*,<,*##dd#ddd",
"ddddddddd%dd%%%d#%%%%**;,;**;<58854<4<;**,<577777777755<,,<5,#dddddd#%,4,$dddddddddddd##d#dd#d#*,4<<,*#;<<,;;<<;%%%%,44,##%*,,*##dddddd",
"ddddddddd%%d%%%%d#%%%%$*;*%%*,4554<<<,;**<<4577778877554,<47<##dddd##%444,$$d##dddddddd#d#dd##%,<<<,;*;<<<,;;444,***,54,%##*;;*###d#ddd",
"dddddddddd%d%%*%d%#d*%$%*%%%%;<44<<<,;%%*<<<457789987754<<45<%#dddd##%4454,;%d#dddddddddd#dd#%*,<<<,;%;<4<;$,4554;#*<55,%#*#;*%##dd##dd",
"ddddddddddddd%*,%%%%$d#$%$#%%*;<<<<,;*%#%,<<<5779uu97775<<454;##ddd###4475<5;##ddddddddd##dd#*;,<<<,*;,4<<;;<57754;;455,%#*#####ddd##dd",
"dddddddddd%%d%*;;;*%ddd#d$##%%;,<<<,;%%#%;<<<45789u98775<<455,##d#d###,4444<;###dddddddd#ddd#*,<<<<,*;<44,;,4789754,454,%#*d####ddd###d",
"ddddddddddddd%%;44,%%dddddd##%*;<<<,;%%$%;<<<<45789987754<475,###ddd##%;*,5,%###ddddddddddd#$*,<<4<;;,<4<;;<57998754554,%#*d####ddd###d",
"dddddddddddddd%;<<<%%d#ddddd#%%;<44,<;*$%*,<4<<4577887755<455<####d######%*%$#ddddddd#ddddd#*;,4<<,,,,<<,*,45799875554,;%#%#####dddd##d",
"dddddddddddddd%%,44;%%;#dddd$%%;<54,<,;$%%;<<4<<4557777754455<*##ddd#d#######ddddddd#ddddd##*,<4<,,;;,,,;;<4579987555<,%$$#d#d###ddd##d",
"dddddddddddd%dd%;,,,;%;5#dd$$***;<<,;;*#$%*,4444555555555<<554;%#ddd#d##########dddddddddd#*;<4<<,;;;;;;,<55557877554<,%%$$%%d###dddd#d",
"dddddddddddddddd%**;%%*<###d$*****,;***#d%%;,<455554<<<<<<<554,%%dddd##d#dddddddddddddddd##*,<<<<;;;;;*;<57755775554<,,,,*$#%d####ddddd",
"dddddddddd%dd%%d%%$%%%d<##d$*;;*******%###%%*,<5554<,,,,,;;<55<*%%dddd####ddddddddddddddd##*;,<<,;;****;45775444444<,;;,5,%##%####dd#dd",
"dddddddddd%dd%%dddd#%%%;###*;,,;***,;*$##dd#%*,<<<<,;;***%*;455,*%ddddd########dddddddddd####,<<,;*%#%;,47774<,,,,4<;#%;,,*$#%####d##dd",
"ddddddddddd%dd%%ddd###%%;#d*;<<;;*%;<*$##dd##$*;,,,;**$$$$$*<45<;;%dddddd###ddddddddddddddd#*,,,;*%#%*;<57974;**;<4<*##*,,,*##dd##d##dd",
"dddddddddddddd%%%d##d#%%###*,<<,;*%*<*%$#dddX###%%%%%#####$%;<<<,;%%ddddddd####ddddddddddd#*;,;#%%%%*;,45754,*$#*<54,$#%,4<;###dd###ddd",
"ddddddddddddddd%%%d###dd#;#*;<<4;*$$;**$$#dddd###dd##ddd#d$#%;;;*#*%%ddd##%########dddddd##%;<*%%%*;;<457774;$#%*<54,%$%;44,###dd###ddd",
"dddddddddddddddd#######dd###;<4<,***$**$$#ddddd##ddd#ddd#$d%%#%%%%;;;%%%%%;%#####ddddddd###%%;%%*;,44458977<;%##%,<<,*%#;44,###dd####d#",
"ddddddddd#dddddd####d###d#d#;<4<<,;*#*$$d$dddddd###d#dddd$dd%##%%%%;;;*##%**###ddddddd#####$#$#;,455778u975,*$##%,<4<;*%;44,%##dddd####",
"ddddddddd#ddddd#d###dd#####%;<4<<<,%##$$$$#ddddddd####ddd#%%%%##$d%#;,;*%%;;;%###########$**#*,45789999u985,*$##*,454<;%*,,;$###ddd####",
"dddddddddddd#dd#d####dd##d#%,<5555<;%#$$d$#$ddddddd#*##ddd%%*;*##dd$%;,%%%;,<;*%########*;,,,4789uiau877997<;%$%,<5775<*%*;*$###d#d###d",
"ddddddddd#d##ddd#dd########%;445774,*$#$d##$**$dddd#,,###d$%;;;;%#dd#%%%#%;444,;*%%%###*,<5558iiiaaau8<<587<;%$*,<5875<;%$%$$d####d###d",
"ddddddddddd##ddddd##d###$###*,<4554<;%#$dd#$*,*$###%<4%%d##%;,,,*#ddddddd%;<444<;;%%%%;,577988uaiiuui74,<55,*#%,<47887<;%##$ddd#$#d###d",
"ddddddddddd##dddd#ddd###%%#%%,4544<<,*%$ddd$****$$$%;<,*%#d#%;;,;##ddddd$%*;<44<,;;;;;<49i877777799iu7<*,4,;%%,<<57787<;%#ddddd#$$####d",
"dddddddddddddd##d*d###$%%**%*,44444<,;%##ddd$*******%*;;*%%##;;;%%#dddddd#%*;;;;,<<4544775<45445479975;,;;**;,<<457875,%$##dddd#%;#;%#d",
"dddddddddddd#dd#d#####$%*,,*,<4444<,,*%%##dd$$*;4;**%;*,,,,,,;;%%%ddddddddd%#%dd;;,<4<<<<;;;,,<587575,,;****,<4<457774;%##dddd##*;;**%d",
"ddddddddddddd##%%%%##d$*,<<,<45444<,*%%%#d##d$$*;;;;,<4444444<;#%%dddd$dd###%%##*;;;;;;;;;;,,<5555,47<,;***,<4<455575<*%##dddd##;;;*;;#",
"dddddddddddd#%;;;*%#d#%,444<44444<<,****%%d$$##$***;<444444444,*%$dddddd%%*;***;;;;;;*$#$*;,<<<<,;,5<,;*;;,<<<<455454,%###dddd##<4;*;;#",
"dddddddddd#d%;;;*%####,<44<44444<<<<,,***;%##%%%$$%;,444544554<;%##ddd##%*;4<;,<<4;;;%###**,,,;***;;;***;,<<<<<<<444<;%##dddd##;<<;;;*#",
"ddddddddd##%*;*%%#d#d%,44,,<444<<<<<<,,********%#$%;,444544444<;%%%##dd**;;<<,44<;;;##%%%%%%%$$$$$**$#%;,<<<<,,;<45<,;%#dd%ddd%;<4<;;%#",
"ddddddddd##%%%%###d##%,<,;;<444<<<<<<,,,*******%%%%*,4444444<,,;;;;*%%%***;;;,,;*##%*;;;*%%##########$*,<<,,,,;,,44<,*##ddddd#$<<5<;%$#",
"dddddd#d#dX######d###;,,;*,<<<<,,,<<<,,****%%*%#$$#%;<4444<,;%;;;,<,;;;*%%%%%%%%%%*;;,,;;%###########$*,,,,;;*,444,,;%#dddd%#$;,<<,*$##",
"ddddd###dddddX####d#,4<,**,44<,***,<<,****d*dd%%%%###;,,,,*%%%%%;,<<<<,,;;;**;;;;;,,,<,;;%####$%;;%$$%;,,;*%*,554<,;%##dd##$$%*;;<;###d",
"dddd###ddddddX#####,444,;;<4<,,*%**,,,******%dd%%######**%%%##%%%;,<<<<<<,,,<<<44<<<<<;;;%%####;;<*%$%*;;%%*,5754,,*%###dd$#$$$;*d###dd",
"dddd##d#ddddd#####;444<;;,<<,**%%********%d%%###########%%$######%*;;;;,<<<4444445<,,;;%%**%####%*%$$$%%*;;,58854,;%%####dd$$$ddd######",
"dddd##d#dd##d##d##,44<;;,,<,*%%%%%%%****%%#%dd##dd#################%%**;;<<<<444<<,;********%####%%%%%%;45458874<,;%#dd#ddd##dddddd#d##",
"dddd##d##ddd##dd#;,<,;#%;<<,*%%%%%%%%**%%%*##dd##dd#################%%;;;;;<<<<4,;;;*********##%%%##%%*,<55885<;;*%%#dd#ddd##dddddd##d#",
"ddd###d###dddddd#,,,*##%,<4<,;%#*;%%%*;*%ddddd#d##dd###############%%,;,,;;,;,;;*******;;;**%%%%%%%##;<<44554,*%%%%#d#%$#ddd###ddddd##d",
"ddd#dd###d#ddd#d#***##%,<555<;%%*%%#dddd##ddddddd####%%############%*;;;,,;;;;****;;;;;;,,*****%%%##%*,5555,*#%%%%####%%$ddd###dddddd#d",
"ddd#d#d##dd#ddd##$$$##;<5555<,%####dddddd#ddddddd###*;<<,;#############;;;;;;*%%*;;;;;,,,,;;*;**%%####,47<;%#$%%%#dd##%;*#d###d#ddddddd",
"ddd#d##d#dd#dd#######*,<5555<,########dddd#dddd#dd##;4754<,;%$#######%%*;;;;****;;;,,,,,,,,;;;;*%$##**,,,*######d#d$#$%,<,%###d#*dddddd",
"ddddd##d#dd##d######*;<5555<,*###dddd####dddddd##dd#%;<444;;;$######%%%*;;,,,,,;;,,<444<,<<,,,;%##%**<**###d##ddd##%%%%,7<*$$####ddd##d",
"ddddd#d###d#########*;<554<,*#####ddddd###ddddd##dd####*;;*%$$$%%%#%%***;<<4444<<<<<<444444<<,*%%#%***%######dddd#d#*%%,<<*%$##d#dddd#d",
"dd#dd#d#####d######*;;,<<,;%###dddd##ddd###dddd###############%**%%%%***;<445544444457777544<;#%%**%%#####d##ddd##$%%*;,<<;###dd#d#dddd",
"ddddd#d##d#####%%%*;;;;<,*%####dddd####dd##dd#d#########*%%#######%%****;<444555555788888854,*%%;,,*%%###dd#dddd#d#$%,,,,,*%#ddd#d##ddd",
"dddddd######%%**%%*;;;%**###dddddddddd##dd#d##d####d##%%%**%#$####%%%***;,444557788888888744;%%%,44,*%##dd##d###d#$%*,,,*%%ddddd#d###dd",
"ddd#dd##d###;,5,%%*;;;*%###dddddddddd#d##ddd##d#####dd%%*;,*%%%%##%###%%;;,,,4457777778854,;%#%*,<4<,*####d##d####$*;;,;%##ddddddd###dd",
"ddd#d###d##;4,<,%%*;;;*%##ddddddddddd#d##dd#####%%%#dd#%#,,,;;;*%%%#%%%%*;;;;,,<44444444<;*%#%*,,,,,,%########d#$$$;;*,;%##ddddd#####dd",
"ddd##d#####;4,<;%%$;4;*%#dd#dddddddddd#d##d#####*;*%%#d#*,,,,,,,,;*****,,,****;;,,,,;;;;*%%%%**,,***%####**%$#$$#$*,;%**%#dd#ddd###d##d",
"#dd##dd%##%;,,,*%#$;,;*%#ddd#dddddddddd###d#####;<;*%##%;,<444<<,,,,<<<<<<,*%%%%%*;*%%%%%%%******%%###$$%;,*%#$$$$;,;%%%%#dd#dd##d#d##d",
"dddd#ddd##%;;;*%$#%;<;*%#ddd#ddddddddd####d#####;<,;%#*;,<44444,,,,,,,<4<,*%%###%%%%###%%**,***%%%#$$$$$%,,*%$$$$%;,;*%%###ddd##d#####d",
"#dddddddd#%;;*%%###*<;*%#dd##ddd#ddd###d#######%;4<;;;,,<45444<,*******,,*%%###########%%%***%%##$**;,**,<,%#$$$%;,<;*%%#d#d###dd#####d",
"#d#ddddd##%;;%%%*##*;<**%#dd#ddd##dd###d#######%;4,,,,<4445554<,*%%%%%%%%%####$%%*%%;;%%%%*%%####$;,,;*;,<;##$%*;<<<**;%dd#d###ddd###dd",
"dd##ddd####;*%%;*%##*;***%#dddddd###d##dd#d####%;;;,,<44457544<,*%%%%#########$%;*%%%%%%%#########***$%;4<;%$%;<<5<;;,;*#dd##%#Xd##d#dd",
"ddd#d#d####%%%%;;*%##*;;;*##dd#dddddddd$$*d####%**;,<44445444<,,;%%%$#######################d##d#$###%,44<*#%;<55<,;,;*%#dd##*#Xd###dd#",
"ddddd#d##d#%%%$;,,;%##*;**#######ddd#%:--;*####%%%*,<444444<<,,,,%%%%###d##ddd###d##d######dd#d#####;<754,*%;<<<<,,;%%$$dd#d#;%Xdd##dd#",
"dd#dd###dd###$#*44,*%#%*#########;445,<0<%-######%%;,4444<<<,,,,,;%%%###dd#ddddddddd###dd#d#######*,45554,,;;,,,;;<*#$#ddd#dd%**dd#ddd#",
"dd##dd#ddd####d#,54;%%%%######*;47888554<-###$#d#%%*,<<<<,,,;;;,,,;%%####d###dddddddddddd#######**,45754<,;;;***;<;%$$#ddd#dd%;,Xd#dd#d",
"ddd#dd#ddd####d#;4,,*%%$%#%%#*,<7885885,,-###$d##%%*,,,,,;*%%%%*;,,*%#####d####dddddddd#######%%;,45754,;*$%%**;,<;%$##dd##dd;;;X##d#d#",
"ddd##d#dd#d$#dd##*;*%%%#%;;;#;<5887,<55,-%#######%*;,,,,;*%%##$%*;,;%####;,>##;;,;2########%%%%*<45574<,*#$$$$$;,<;*%#####d#%;;%dddd###",
"ddd##d#####$#ddd##$%%%%$%*<;*,<7884,<555<*#####%*;,,;;,;*%%###$%%*,*%##=;<44q3<;434%d##d$$%%%*;;,4554<,*$$$$##%;<<;;*#d####*;,,$ dd###d",
"dddddd#####*#Xddd#d#$$$$%%,;;44587<%-5488<#**;%*;,<,;;;*%%###d#%%%*%%##=<3<,434<4q2%%#d##%%****;<4544<;*$$$#d$*;,<;*##d##;,;,,;#dd###dd",
"dddd#dd###d,;#ddd##d##$$;;26<<;%;;<,;;444<***,%;,<,;;*%%####dd##%%%%##X#&,;4<79u87uu5,#%%**,,;;,<<<<4<;#$$#dd$%*;;*##dd#;,,,,;%$dd##ddd",
"ddddd#dd###;,*####$##$#->:<<<42<,,*,,<,;;***;;%*;;*%%%%####dd#####$$###X#&,,,5755999uuu7774;,<<<,,,<,<;*%$$d$$%%**$#dd*;;<,,;%%d###dddd",
"ddddd#dddd#$,*$$$*;*$#&225542424,,*,,<,;******%%%%%####%%#######d#$$#### #;*;,<7upuqqrrq3344<<<,,,,,<<;**$$$##$$###dd#;,;*,,%#d###ddd#d",
"dddddd#dddd#d$***;4,*&&>2454342<,*;,,,;;;%%%%%##d#####*;*%#########%#$####%%%-<7u5416qtq1:333<<4<,,4<<;*%$#######ddd$;,;*,,*$#ddddddd#d",
"ddd#dd##dddd#d%$$***#&&>;<443q2,>*,,;*%;;%##%##d$#d#%;,,;%$########$%$####%%%&,78<&%-,1>13q311qq344<<;*%###ddddddd##*,;;;;%#ddddddddddd",
"dddd#dd#dd######d###d#&&>;;2q42<;;,,;%%;;##*;ddd$d%%;,<,*%###d####d##$;####%##,4<-&##%:*;4eeqqeee3872*##d##dd##ddddd*%%%%%%ddddddddd#dd",
"dddddddddd##d##d#d##d###$**26w2*;<,;,*%;,*;*#dd$%%%;,<<;$###ddd###dd##%**%%###%,,&&#%:-::48q873ee7844<dd##d#$*#d#ddd#dX#%%#d#d#dddd##dd",
"ddddddddddd#ddd#####d###$%%:6r:;;;%%*%*;;;*#%$%%%%;,<<,%##d##ddd####d#$%*%*%%#%*XXX%#%*;;<885<<4q17,%%%dddd$**#ddddddd X##dd#d#dddd##dd",
"dddddddd#dd##ddd#####$#$$%%2wr:***%%***<;*##&%%%%;,,<<,%d#####dd#d######%*%<%*;%%##%%%*;;;<4,;,;,;*%%*%#%#$-**#ddddd#####dd####dddddddd",
"dddddddd##dd##dddd##&=>263344;;;;;;;$$**%#;*%;;**;,,,;%dd##############%#*;<;;,;%#%%%%%%%%%%%%%%%####%%#%*-**#dd########ddd####d#dddddd",
"ddddddddd##d#######%%%,44www7,<,,;;%%#####&%%;;**%*;*%dd#d########dd##*:%;;;;,;;%%#%%%%%%%%%:2q3:***%##--;**#ddd######dddd#dddd##dddddd",
"ddddddddddddd##ddd#%&-19seyye444>45,;X####;@#%%*;%%%#d#ddddd##ddd#ddd#*:1:;,<<,;;%#*%%***%%%;1::-*%%##%44;*#dd#d##ddddddddddddddddddddd",
"dddddddddddd#dd##d#%%#$=8wyye54>145<;X####%%%%%*%%##ddddddddddddd#dd#d#*::;;;,<,%##%%%%%%%%%*::-*%%%##;4<;#dd##dddddddddddddddddddddddd",
"dddddddddddddddddd#######etee45>><4<;,dd#####%%;%#d##ddddddd#dd###>>9do+*::;#*;;4%X######%%%*-:-:*%%%#&,<%%***d1q%ddddddddddddddddddddd",
"dddddddddddddddddd##-:::w999999878745<d###########dddddd d##dd###do=>doo****%%%%;oXXXXX###%*:::::*%%%##**#%;;;1q:%dddddddu<dddddddddddd",
"dddddddddddddddddd#&=:#26eeee<799ap85###########ddddddd###dd#####d.ooddooo+++++o+oXXX%%%%*:::1111::*%#X##%%###-%%-;%%%ddd<*ddd;dddddddd",
"dddddddddddddddddd#%%=-126wew6764up8,,######dddddddddddddd##%%%#d##;;,,,;%*******##########&&===&#####%*%#####%,,,*dddddddddddddddddddd",
"dddddddddddddddddd#%%%&-16weww,w38p8,odddddddddddddddddd%#%%#dddddd##;;;;********;*##*****************;,<44<,;**dddd##d#du<dddddduddddd",
"dddddddddddddddddd#%%%&-16wewqwww295,oddddd%%d%#ddddd#dddddddd###ddd##%%**;;;;;;;;;;;;;;;;;;;;;;;;;;<<;;%%dddddddddddddd<*ddddddddddddd",
"dddddddddddddddddd##%=-#26wewqq3w15,oodddd%;%%<<,%dddddddddddddddO%ddddddd########*********%%%####%%%###dddddddd<ddd&3r3&d<dddddddddddd",
"ddddddddddddddddddd##%%&-:6w6262=%$##ddddddd,,,dddddddddddddddddddddddddddddddd*%ddd%***%d*ddddddddddd&555555&dd&dd&d::&dd&&ddddddddddd",
"ddddddddddddddddddddd#oo##%=%%&%###dddddddd%,55%d,dddddddddddddddddddddddd;;dddddd*dddddddd,dd,,ddd&&,,<<,;&ddddddddddddddddddddddddddd"
};
