/* XPM */
static char *result[] = {
/* columns rows colors chars-per-pixel */
"70 70 86 1 ",
"  c #000001",
". c #070707",
"X c #170F07",
"o c #1F170B",
"O c #2B230F",
"+ c #332B13",
"@ c #3F2F17",
"# c #3F2B1B",
"$ c #373F27",
"% c #430000",
"& c #4F0000",
"* c #5B0000",
"= c #670000",
"- c #6B0F0F",
"; c #730000",
": c #7F0000",
"> c #43331B",
", c #4B371B",
"< c #533F1F",
"1 c #473323",
"2 c #4F3B23",
"3 c #533F2F",
"4 c #5F4323",
"5 c #5B472B",
"6 c #574333",
"7 c #5F4B37",
"8 c #6B4727",
"9 c #774F2B",
"0 c #7F532F",
"q c #675333",
"w c #67533F",
"e c #775F3F",
"r c #6F5743",
"t c #775F4B",
"y c #7B634F",
"u c #8B0000",
"i c #9B0000",
"p c #A70000",
"a c #B30000",
"s c #BF0000",
"d c #9F3700",
"f c #A73F00",
"g c #CB0000",
"h c #D70000",
"j c #E30000",
"k c #EF0000",
"l c red",
"z c #FF1F1F",
"x c #FF3F3F",
"c c #AF4300",
"v c #B74700",
"b c #AF7B1F",
"n c #875733",
"m c #8F5F37",
"M c #9B633B",
"N c #A36B3F",
"B c #C34F00",
"V c #CB5707",
"C c #D75F0B",
"Z c #DF670F",
"A c #EB6F0F",
"S c #F37317",
"D c #FF7F1B",
"F c #836B4B",
"G c #836B57",
"H c #8F7753",
"J c #8B735B",
"K c #AB6F43",
"L c #B37347",
"P c #937B63",
"I c #9B7F6B",
"U c #CB7F4F",
"Y c #FF8F3B",
"T c #9F8363",
"R c #9F876F",
"E c #A78F77",
"W c #AF977F",
"Q c #CF8353",
"! c #FFA35B",
"~ c #F7AB7B",
"^ c #FFB37B",
"/ c #EBDB57",
"( c none",
") c #B79F87",
"_ c #BFA78F",
"` c #FFB383",
/* pixels */
"((((((((((((((((((((((((((((((((((((((((((((((((((((((((((((((((((((((",
"((((((((((((((((((((((((((((((((((((((((((((((((((((((((((((((((((((((",
"((((((((((((((((((((((((((((((((((((((((((((((((((((((((((((((((((((((",
"((((((((((((((((((((((((((((((((((((((((((((((((((((((((((((((((((((((",
"((((((((((((((((((((((((((((((((((((((((((((((((((((((((((((((((((((((",
"((((((((((((((((((((((((((((((((((((((((((((((((((((((((((((((((((((((",
"((((((((((((((((((((((((((((((((((((((((((((((((((((((((((((((((((((((",
"((((((((((((((((((((((((((((((((((((((((((((((((((((((((((((((((((((((",
"((((((((((((((((((((((((((((((((((((((((((((((((((((((((((((((((((((((",
"((((((((((((((((((((((((((((((((((((((((((((((((((((((((((((((((((((((",
"((((((((((((((((((((((((((((((((((((((((((((((((((((((((((((((((((((((",
"((((((((((((((((((((((((((((((((((((((((((((((((((((((((((((((((((((((",
"((((((((((((((((((((((((((((((((((((((((((((((((((((((((((((((((((((((",
"((((((((((((((((((((((((((((((((((((((((((((((((((((((((((((((((((((((",
"((((((((((((((((((((((((((((((((((((((((((((((((((((((((((((((((((((((",
"((((((((((((((((((((((((((((((((((((((((((((((((((((((((((((((((((((((",
"((((((((((((((((((((((((((((((((((((((((((((((((((((((((((((((((((((((",
"((((((((((((((((((((((((((((((((((((((((((((((((((((((((((((((((((((((",
"(((((((((((((((((((((((((((((((((((((i:a::::((((((((((((((((((((((((((",
"(((((((((((((((((((((((((((((((((((::sBAYYZvc&;(((((((((((((((((((((((",
"(((((((((((((((((((((((((((((((((uugAY!^UEW_WWRIH(((((((((((((((((((((",
"((((((((((((((((((((((((((((((((uBBAA^^URW___)WEEHF(((((((((((((((((((",
"((((((((((((((((((((((((((((((:uagBBBALREWWWWWWWEEIe<(((((((((((((((((",
"(((((((((((((((((((((((((((((u::gzgv:hMREEEEEEEEEEEIe<((((((((((((((((",
"(((((((((((((((((((((((((((psajvgVZCCD!lLERRRRRRRRRRHy4(((((((((((((((",
"(((((((((((((((((((((;;;((ukajajjaapCB==NRIIIIIIIIIHJe0,444(((((((((((",
"((((((((((((((((((((;psuuu-;sjap:aahlZZDMJJJPPPPPPPJGt0$449(((((((((((",
"(((((((((((((((((ai;pppiu;aahsap:aBZV:GF009nGGGGGGytt091,(((((((((((((",
"((:(((:(:(a:(((::iiisjssa;;;==:tTEIIHHPyq<44890rrrrr094,,(((((((((((((",
":((((((((((aa::iasgsjsihjhhhllhtPPPW_)RPyy<<444444<48884,,((((((((((((",
"(((((:((::(((iaa:::alghlBCCsuuuiwtGPPRRPyy<@@<<44rrr7<<,,,8(((((((((((",
"(((((((((((((((((ii:pa:klau;;ui::6wrrrtr55<@+@5qFMNLm8,,85F8((((((((((",
"(((((((((((((((((hgsiiiajuu;uauu:jj5@@@@@@@oOoq2O#nLQQK8LFe8((((((((((",
"((((((((((((((((((gggsika:c;;aacjhua*@ooooo o5q..uaau,OX8X5(((((((((((",
"(((((((((((((((((((pagisu:u;;sa:ipkiVZ2@OOo o5eX.sjbsu<TqX5(((((((((((",
"((((((((((((((((((((((as:aa;;;;:aiipkakq22  >FTqXsx/b<FOFX5(((((((((((",
"((((((((((((((((((((((iah::uuskauukkak$seeqqqFTTTTHT58q.Oq,<((((((((((",
"((((((((((((((((((((((a:gas;;;;;upCSgle2sh#eeeeFHHFe<O8..4,<((((((((((",
"((((((((((((((((((((((((=iiiajzspaaphvh552ho<8eeFe5<. ,..,@<((((((((((",
"((((((((((((((((((((((((=giaiuaap;jaavSZhCChio#qe5+  237>4r(((((((((((",
"(((((((((((((((((((((((((=gsi;;p;cBDCCc5iki>aooooo o2<854rF(((((((((((",
"((((((((((((((((((((((((((===:i=sssssvCa5:h:afBf**  O@M~ m~(((((((((((",
"(((((((((((((((((((((((((((((=gu=%is=vBZBkkdi:++juoooXjg;(((((((((((((",
"(((((((((((((((((((((((((((((akgu=%i==:iiiiv:fCfuXoooXg;((((((((((((((",
"((((((((((((((((((((((((((((((au=(===vCBiia@+,+oXoooXX.(((((((((((((((",
"(((((((((((((((((((((((((((((((((((=u;::::@@+,oXoo  X.`(((((((((((((((",
"((((((((((((((((((((((((((((((((((((((((,,+@+,@`X     wr((((((((((((((",
"((((((((((((((((((((((((((((((((((((((((,,oO,,,a I  r  I((((((((((((((",
"(((((((((((((((((((((((((((((((((((((((((@,#,#+4;`N I  `,(((((((((((((",
"((((((((((((((((((((((((((((((((((((((((((@@,@#,3aa;`N a,(((((((((((((",
"((((((((((((((((((((((((((((((((((((((((((((@@+##337ra;6@(((((((((((((",
"(((((((((((((((((((((((((((((((((((((((((((((@@@##33676@@(((((((((((((",
"(((((((((((((((((((((((((((((((((((((((((((((((@@@@@@@#@@(((((((((((((",
"((((((((((((((((((((((((((((((((((((((((((((((((@@@@@@@@((((((((((((((",
"((((((((((((((((((((((((((((((((((((((((((((((((((((((((((((((((((((((",
"((((((((((((((((((((((((((((((((((((((((((((((((((((((((((((((((((((((",
"((((((((((((((((((((((((((((((((((((((((((((((((((((((((((((((((((((((",
"((((((((((((((((((((((((((((((((((((((((((((((((((((((((((((((((((((((",
"((((((((((((((((((((((((((((((((((((((((((((((((((((((((((((((((((((((",
"((((((((((((((((((((((((((((((((((((((((((((((((((((((((((((((((((((((",
"((((((((((((((((((((((((((((((((((((((((((((((((((((((((((((((((((((((",
"((((((((((((((((((((((((((((((((((((((((((((((((((((((((((((((((((((((",
"((((((((((((((((((((((((((((((((((((((((((((((((((((((((((((((((((((((",
"((((((((((((((((((((((((((((((((((((((((((((((((((((((((((((((((((((((",
"((((((((((((((((((((((((((((((((((((((((((((((((((((((((((((((((((((((",
"((((((((((((((((((((((((((((((((((((((((((((((((((((((((((((((((((((((",
"((((((((((((((((((((((((((((((((((((((((((((((((((((((((((((((((((((((",
"((((((((((((((((((((((((((((((((((((((((((((((((((((((((((((((((((((((",
"((((((((((((((((((((((((((((((((((((((((((((((((((((((((((((((((((((((",
"(((((((((((((((((((((((((((((((((((((((((((((((((((((((((((((((((((((("
};
