/* XPM */
static char *result[] = {
/* columns rows colors chars-per-pixel */
"70 70 72 1 ",
"  c #000001",
". c #070707",
"X c #170F07",
"o c #1F170B",
"O c #131313",
"+ c #13230B",
"@ c #2B230F",
"# c #332B13",
"$ c #3F2F17",
"% c #3F2B1B",
"& c #373F27",
"* c #430000",
"= c #470000",
"- c #4F0000",
"; c #530707",
": c #5B0000",
"> c #5B0707",
", c #670000",
"< c #670B0B",
"1 c #730000",
"2 c #7F0000",
"3 c #771717",
"4 c #43331B",
"5 c #4B371B",
"6 c #533F1F",
"7 c #4F3B23",
"8 c #4F3B2B",
"9 c #533F2F",
"0 c #5B472B",
"q c #474F33",
"w c #574333",
"e c #5F4B37",
"r c #6B4727",
"t c #675333",
"y c #67533F",
"u c #775F3F",
"i c #6F5743",
"p c #775F4B",
"a c #7B634F",
"s c #8B0000",
"d c #9B0000",
"f c #A70000",
"g c #B30000",
"h c #BF0000",
"j c #9F3700",
"k c #CB0000",
"l c #D70000",
"z c #E30000",
"x c #EF0000",
"c c red",
"v c #FF3F3F",
"b c #AF4300",
"n c #B74700",
"m c #875733",
"M c #A36B3F",
"N c #C34F00",
"B c #CB5707",
"V c #D75F0B",
"C c #DF670F",
"Z c #EB6F0F",
"A c #F37317",
"S c #FF7F1B",
"D c #836B57",
"F c #8B735B",
"G c #937B63",
"H c #9B7F6B",
"J c #FF8F3B",
"K c #AF977F",
"L c #D78B5B",
"P c #F7AB7B",
"I c #FFB37B",
"U c none",
/* pixels */
"UUUUUUUUUUUUUUUUUUUUUUUUUUUUUUUUUUUUUUUUUUUUUUUUUUUUUUUUUUUUUUUUUUUUUU",
"UUUUUUUUUUUUUUUUUUUUUUUUUUUUUUUUUUUUUUUUUUUUUUUUUUUUUUUUUUUUUUUUUUUUUU",
"UUUUUUUUUUUUUUUUUUUUUUUUUUUUUUUUUUUUUUUUUUUUUUUUUUUUUUUUUUUUUUUUUUUUUU",
"UUUUUUUUUUUUUUUUUUUUUUUUUUUUUUUUUUUUUUUUUUUUUUUUUUUUUUUUUUUUUUUUUUUUUU",
"UUUUUUUUUUUUUUUUUUUUUUUUUUUUUUUUUUUUUUUUUUUUUUUUUUUUUUUUUUUUUUUUUUUUUU",
"UUUUUUUUUUUUUUUUUUUUUUUUUUUUUUUUUUUUUUUUUUUUUUUUUUUUUUUUUUUUUUUUUUUUUU",
"UUUUUUUUUUUUUUUUUUUUUUUUUUUUUUUUUUUUUUUUUUUUUUUUUUUUUUUUUUUUUUUUUUUUUU",
"UUUUUUUUUUUUUUUUUUUUUUUUUUUUUUUUUUUUUUUUUUUUUUUUUUUUUUUUUUUUUUUUUUUUUU",
"UUUUUUUUUUUUUUUUUUUUUUUUUUUUUUUUUUUUUUUUUUUUUUUUUUUUUUUUUUUUUUUUUUUUUU",
"UUUUUUUUUUUUUUUUUUUUUUUUUUUUUUUUUUUUUUUUUUUUUUUUUUUUUUUUUUUUUUUUUUUUUU",
"UUUUUUUUUUUUUUUUUUUUUUUUUUUUUUUUUUUUUUUUUUUUUUUUUUUUUUUUUUUUUUUUUUUUUU",
"UUUUUUUUUUUUUUUUUUUUUUUUUUUUUUUUUUUUUUUUUUUUUUUUUUUUUUUUUUUUUUUUUUUUUU",
"UUUUUUUUUUUUUUUUUUUUUUUUUUUUUUUUUUUUUUUUUUUUUUUUUUUUUUUUUUUUUUUUUUUUUU",
"UUUUUUUUUUUUUUUUUUUUUUUUUUUUUUUUUUUUUUUUUUUUUUUUUUUUUUUUUUUUUUUUUUUUUU",
"UUUUUUUUUUUUUUUUUUUUUUUUUUUUUUUUUUUUUUUUUUUUUUUUUUUUUUUUUUUUUUUUUUUUUU",
"UUUUUUUUUUUUUUUUUUUUUUUUUUUUUUUUUUUUUUUUUUUUUUUUUUUUUUUUUUUUUUUUUUUUUU",
"UUUUUUUUUUUUUUUUUUUUUUUUUUUUUUUUUUUUUUUUUUUUUUUUUUUUUUUUUUUUUUUUUUUUUU",
"UUUUUUUUUUUUUUUUUUUUUUUUUUUUUUUUUUUUUUUUUUUUUUUUUUUUUUUUUUUUUUUUUUUUUU",
"UUUUUUUUUUUUUUUUUUUUUUUUUUUUUUUUUUUUUUUUUUUUUUUUUUUUUUUUUUUUUUUUUUUUUU",
"UUUUUUUUUUUUUUUUUUUUUUUUUUUUUUUUUUUUUUUUUUUUUUUUUUUUUUUUUUUUUUUUUUUUUU",
"UUUUUUUUUUUUUUUUUUUUUUUUUUUUUUUUUUUUUUUUUUUUUUUUUUUUUUUUUUUUUUUUUUUUUU",
"UUUUUUUUUUUUUUUUUUUUUUUUUUUUUUUUUUUUUUUUUUUUUUUUUUUUUUUUUUUUUUUUUUUUUU",
"UUUUUUUUUUUUUUUUUUUUUUUUUUUUUUUUUBbdfUUUUUUUUUUUUUUUUUUUUUUUUUUUUUUUUU",
"UUUUUUUUUUUUUUUUUUUUUUUUUUUttFHZB22fffffUUUUUUUUUUUUUUUUUUUUUUUUUUUUUU",
"UUUUUUUUUUUUUUUUUUUUUUUUU7tuuHIJCbdldq2gffUUUUUUUUUUUUUUUUUUUUUUUUUUUU",
"UUUUUUUUUUUUUUUUUUUUUUU70tuuHclhssshdz2llfxUUUUUUUUUUUUUUUUUUUUUUUUUUU",
"UUUUUUUUUUUUUUUUUUUUUU77ttuNZclssssdfxfdlkgdUUUUUUUUUUUUUUUUUUUUUUUUUU",
"UUUUUUUUUUUUUUUUwwUUU77800mNsCNzVNzgxddgcldgsUUUUUUUUUUUUUUUUUUUUUUUUU",
"UUUUUUUUUUUUUUUU49wUU7870zZJZz22jbck2xhdzfdhshfsUUUUUUUUUUUUUUUUUUUUUU",
"UUUUUUUUUUUUUUUU4eiaaFpe$sgn%ggsgcczdhfdddgfdfffssUUUUUUUUUUUUUUUUUUUU",
"UUUUUUUUUUUUUUUUU4iDHKGae96nNzgdgzvlhgglzg2ghhzhddsUUUUUUUUUUUUUUUUUUU",
"UUUUUUUUUUUUUUUUUU4yaGFDy9$6kgssfgcgxldzlkk2lddghlgUUUUUUUUUUUUUUUUUUU",
"UUUUUUUUUUUUUUUUUUUwypppe922ZllbghgzghdxkdlgclhldzlkkUUUUUUUUUUUUUUUUU",
"UUUUUUUUUUUUUUUUUUUwwew922g&vhkgdhcxhfddgcl2x2xhdxkdlgUUUUUUUUUUUUUUUU",
"UUUUUUUUUUUUUUUUUUU5o@3dhg2dhlczzcvvccxhdddkgdgdfddgclUs11UUUUUUUUUUUU",
"UUUUUUUUUUUUUUUUUU5e 3ZIZVVBZVBngkxxhhhfdshkxdxgxxhdzfdkccsUUUUUUUUUUU",
"UUUUUUUUUUUUUUUUUU5r @9ZVvlgBnch21ghhlfgggxdhdckchfdddsckkhs1sslUUUUUU",
"UUUUUUUUUUUUUUUUUU@ai @-2zhkgdhgk,hdvlgzgzg2hglhlfgg2zkkgg2lhkUlU2UUUU",
"UUUUUUUUUUUUUUUUUUUaFe>>2gbfhdfl22d2ckgkkcxkgdhvlgzg22fUUgllUUUUUUUUU2",
"UUUUUUUUUUUUUUUUUUaHaFp>2bCNbgdhk*22g2dddccd2gdc2U22UUUUUUUUU22UUUUUUU",
"UUUUUUUUUUUUUUUUUUppyyay9SISCNbffdfdhdzffzldgs2g2dgUUUU2d2UUUUUUUUUUUU",
"UUUUUUUUUUUUUUUUUU$999ngzNSNbkfhhdxfdgclckh22<22-2UUUUUUUUUUUUUUUUUUUU",
"UUUUUUUUUUUUUUUUUUU   2dgddsssfldzlg33gxc33=<>22UUUUUUUUUUUUUUUUUUUUUU",
"UUUUUUUUUUUUUUUUUUU$  sd2::::::gslz3k;333<*g>>UUUUUUUUUUUUUUUUUUUUUUUU",
"UUUUUUUUUUUUUUUUUUUULzZANnbzkhxklss>1>>-**>>2UUUUUUUUUUUUUUUUUUUUUUUUU",
"UUUUUUUUUUUUUUUUUUUUUUz::bbkzdhgkkg2#w3>l33UUUUUUUUUUUUUUUUUUUUUUUUUUU",
"UUUUUUUUUUUUUUUUUUUUUUUzVVx.OOO2gg2Xo+wUUUUUUUUUUUUUUUUUUUUUUUUUUUUUUU",
"UUUUUUUUUUUUUUUUUUUUUUUUway.OOOOOOXXo+wUUUUUUUUUUUUUUUUUUUUUUUUUUUUUUU",
"UUUUUUUUUUUUUUUUUUUUUUU4yaw.@###@XXXo+wUUUUUUUUUUUUUUUUUUUUUUUUUUUUUUU",
"UUUUUUUUUUUUUUUUUUUUUPMwywo.@##@XXXX+wUUUUUUUUUUUUUUUUUUUUUUUUUUUUUUUU",
"UUUUUUUUUUUUUUUUUUUUUXwwp#o.@@@XXXX+wUUUUUUUUUUUUUUUUUUUUUUUUUUUUUUUUU",
"UUUUUUUUUUUUUUUUUUUUUUw9woXX.XXX++wUUUUUUUUUUUUUUUUUUUUUUUUUUUUUUUUUUU",
"UUUUUUUUUUUUUUUUUUUUUU99X... +4UUUUUUUUUUUUUUUUUUUUUUUUUUUUUUUUUUUUUUU",
"UUUUUUUUUUUUUUUUUUUUUUU499wwUUUUUUUUUUUUUUUUUUUUUUUUUUUUUUUUUUUUUUUUUU",
"UUUUUUUUUUUUUUUUUUUUUUUUUUUUUUUUUUUUUUUUUUUUUUUUUUUUUUUUUUUUUUUUUUUUUU",
"UUUUUUUUUUUUUUUUUUUUUUUUUUUUUUUUUUUUUUUUUUUUUUUUUUUUUUUUUUUUUUUUUUUUUU",
"UUUUUUUUUUUUUUUUUUUUUUUUUUUUUUUUUUUUUUUUUUUUUUUUUUUUUUUUUUUUUUUUUUUUUU",
"UUUUUUUUUUUUUUUUUUUUUUUUUUUUUUUUUUUUUUUUUUUUUUUUUUUUUUUUUUUUUUUUUUUUUU",
"UUUUUUUUUUUUUUUUUUUUUUUUUUUUUUUUUUUUUUUUUUUUUUUUUUUUUUUUUUUUUUUUUUUUUU",
"UUUUUUUUUUUUUUUUUUUUUUUUUUUUUUUUUUUUUUUUUUUUUUUUUUUUUUUUUUUUUUUUUUUUUU",
"UUUUUUUUUUUUUUUUUUUUUUUUUUUUUUUUUUUUUUUUUUUUUUUUUUUUUUUUUUUUUUUUUUUUUU",
"UUUUUUUUUUUUUUUUUUUUUUUUUUUUUUUUUUUUUUUUUUUUUUUUUUUUUUUUUUUUUUUUUUUUUU",
"UUUUUUUUUUUUUUUUUUUUUUUUUUUUUUUUUUUUUUUUUUUUUUUUUUUUUUUUUUUUUUUUUUUUUU",
"UUUUUUUUUUUUUUUUUUUUUUUUUUUUUUUUUUUUUUUUUUUUUUUUUUUUUUUUUUUUUUUUUUUUUU",
"UUUUUUUUUUUUUUUUUUUUUUUUUUUUUUUUUUUUUUUUUUUUUUUUUUUUUUUUUUUUUUUUUUUUUU",
"UUUUUUUUUUUUUUUUUUUUUUUUUUUUUUUUUUUUUUUUUUUUUUUUUUUUUUUUUUUUUUUUUUUUUU",
"UUUUUUUUUUUUUUUUUUUUUUUUUUUUUUUUUUUUUUUUUUUUUUUUUUUUUUUUUUUUUUUUUUUUUU",
"UUUUUUUUUUUUUUUUUUUUUUUUUUUUUUUUUUUUUUUUUUUUUUUUUUUUUUUUUUUUUUUUUUUUUU",
"UUUUUUUUUUUUUUUUUUUUUUUUUUUUUUUUUUUUUUUUUUUUUUUUUUUUUUUUUUUUUUUUUUUUUU",
"UUUUUUUUUUUUUUUUUUUUUUUUUUUUUUUUUUUUUUUUUUUUUUUUUUUUUUUUUUUUUUUUUUUUUU"
};
