/* XPM */
static char *result[] = {
/* columns rows colors chars-per-pixel */
"70 70 72 1 ",
"  c #000001",
". c #070707",
"X c #170F07",
"o c #1F170B",
"O c #131313",
"+ c #13230B",
"@ c #2B230F",
"# c #332B13",
"$ c #3F2F17",
"% c #3F2B1B",
"& c #373F27",
"* c #430000",
"= c #470000",
"- c #4F0000",
"; c #530707",
": c #5B0000",
"> c #5B0707",
", c #670000",
"< c #670B0B",
"1 c #730000",
"2 c #7F0000",
"3 c #771717",
"4 c #43331B",
"5 c #4B371B",
"6 c #533F1F",
"7 c #4F3B23",
"8 c #4F3B2B",
"9 c #533F2F",
"0 c #5B472B",
"q c #474F33",
"w c #574333",
"e c #5F4B37",
"r c #6B4727",
"t c #675333",
"y c #67533F",
"u c #775F3F",
"i c #6F5743",
"p c #775F4B",
"a c #7B634F",
"s c #8B0000",
"d c #9B0000",
"f c #A70000",
"g c #B30000",
"h c #BF0000",
"j c #9F3700",
"k c #CB0000",
"l c #D70000",
"z c #E30000",
"x c #EF0000",
"c c red",
"v c #FF3F3F",
"b c #AF4300",
"n c #B74700",
"m c #875733",
"M c #A36B3F",
"N c #C34F00",
"B c #CB5707",
"V c #D75F0B",
"C c #DF670F",
"Z c #EB6F0F",
"A c #F37317",
"S c #FF7F1B",
"D c #836B57",
"F c #8B735B",
"G c #937B63",
"H c #9B7F6B",
"J c #FF8F3B",
"K c #AF977F",
"L c #D78B5B",
"P c #F7AB7B",
"I c #FFB37B",
"U c none",
/* pixels */
"UUUUUUUUUUUUUUUUUUUUUUUUUUUUUUUUUUUUUUUUUUUUUUUUUUUUUUUUUUUUUUUUUUUUUU",
"UUUUUUUUUUUUUUUUUUUUUUUUUUUUUUUUUUUUUUUUUUUUUUUUUUUUUUUUUUUUUUUUUUUUUU",
"UUUUUUUUUUUUUUUUUUUUUUUUUUUUUUUUUUUUUUUUUUUUUUUUUUUUUUUUUUUUUUUUUUUUUU",
"UUUUUUUUUUUUUUUUUUUUUUUUUUUUUUUUUUUUUUUUUUUUUUUUUUUUUUUUUUUUUUUUUUUUUU",
"UUUUUUUUUUUUUUUUUUUUUUUUUUUUUUUUUUUUUUUUUUUUUUUUUUUUUUUUUUUUUUUUUUUUUU",
"UUUUUUUUUUUUUUUUUUUUUUUUUUUUUUUUUUUUUUUUUUUUUUUUUUUUUUUUUUUUUUUUUUUUUU",
"UUUUUUUUUUUUUUUUUUUUUUUUUUUUUUUUUUUUUUUUUUUUUUUUUUUUUUUUUUUUUUUUUUUUUU",
"UUUUUUUUUUUUUUUUUUUUUUUUUUUUUUUUUUUUUUUUUUUUUUUUUUUUUUUUUUUUUUUUUUUUUU",
"UUUUUUUUUUUUUUUUUUUUUUUUUUUUUUUUUUUUUUUUUUUUUUUUUUUUUUUUUUUUUUUUUUUUUU",
"UUUUUUUUUUUUUUUUUUUUUUUUUUUUUUUUUUUUUUUUUUUUUUUUUUUUUUUUUUUUUUUUUUUUUU",
"UUUUUUUUUUUUUUUUUUUUUUUUUUUUUUUUUUUUUUUUUUUUUUUUUUUUUUUUUUUUUUUUUUUUUU",
"UUUUUUUUUUUUUUUUUUUUUUUUUUUUUUUUUUUUUUUUUUUUUUUUUUUUUUUUUUUUUUUUUUUUUU",
"UUUUUUUUUUUUUUUUUUUUUUUUUUUUUUUUUUUUUUUUUUUUUUUUUUUUUUUUUUUUUUUUUUUUUU",
"UUUUUUUUUUUUUUUUUUUUUUUUUUUUUUUUUUUUUUUUUUUUUUUUUUUUUUUUUUUUUUUUUUUUUU",
"UUUUUUUUUUUUUUUUUUUUUUUUUUUUUUUUUUUUUUUUUUUUUUUUUUUUUUUUUUUUUUUUUUUUUU",
"UUUUUUUUUUUUUUUUUUUUUUUUUUUUUUUUUUUUUUUUUUUUUUUUUUUUUUUUUUUUUUUUUUUUUU",
"UUUUUUUUUUUUUUUUUUUUUUUUUUUUUUUUUUUUUUUUUUUUUUUUUUUUUUUUUUUUUUUUUUUUUU",
"UUUUUUUUUUUUUUUUUUUUUUUUUUUUUUUUUUUUUUUUUUUUUUUUUUUUUUUUUUUUUUUUUUUUUU",
"UUUUUUUUUUUUUUUUUUUUUUUUUUUUUUUUUUUUUUUUUUUUUUUUUUUUUUUUUUUUUUUUUUUUUU",
"UUUUUUUUUUUUUUUUUUUUUUUUUUUUUUUUUUUUUUUUUUUUUUUUUUUUUUUUUUUUUUUUUUUUUU",
"UUUUUUUUUUUUUUUUUUUUUUUUUUUUUUUUUUUUUUUUUUUUUUUUUUUUUUUUUUUUUUUUUUUUUU",
"UUUUUUUUUUUUUUUUUUUUUUUUUUUUUUUUUUUUUUUUUUUUUUUUUUUUUUUUUUUUUUUUUUUUUU",
"UUUUUUUUUUUUUUUUUUUUUUUUUUUUUUUUUfdbBUUUUUUUUUUUUUUUUUUUUUUUUUUUUUUUUU",
"UUUUUUUUUUUUUUUUUUUUUUUUUUUUUUfffff22BZHFttUUUUUUUUUUUUUUUUUUUUUUUUUUU",
"UUUUUUUUUUUUUUUUUUUUUUUUUUUUffg2qdldbCJIHuut7UUUUUUUUUUUUUUUUUUUUUUUUU",
"UUUUUUUUUUUUUUUUUUUUUUUUUUUxfll2zdhssshlcHuut07UUUUUUUUUUUUUUUUUUUUUUU",
"UUUUUUUUUUUUUUUUUUUUUUUUUUdgkldfxfdsssslcZNutt77UUUUUUUUUUUUUUUUUUUUUU",
"UUUUUUUUUUUUUUUUUUUUUUUUUsgdlcgddxgzNVzNCsNm00877UUUwwUUUUUUUUUUUUUUUU",
"UUUUUUUUUUUUUUUUUUUUUUsfhshdfzdhx2kcbj22zZJZz0787UUw94UUUUUUUUUUUUUUUU",
"UUUUUUUUUUUUUUUUUUUUssfffdfgdddfhdzccgsgg%ngs$epFaaie4UUUUUUUUUUUUUUUU",
"UUUUUUUUUUUUUUUUUUUsddhzhhg2gzlgghlvzgdgzNn69eaGKHDi4UUUUUUUUUUUUUUUUU",
"UUUUUUUUUUUUUUUUUUUglhgddl2kklzdlxgcgfssgk6$9yDFGay4UUUUUUUUUUUUUUUUUU",
"UUUUUUUUUUUUUUUUUkklzdlhlcgldkxdhgzghgbllZ229epppywUUUUUUUUUUUUUUUUUUU",
"UUUUUUUUUUUUUUUUgldkxdhx2x2lcgddfhxchdgkhv&g229wewwUUUUUUUUUUUUUUUUUUU",
"UUUUUUUUUUUU11sUlcgddfdgdgkdddhxccvvczzclhd2ghd3@o5UUUUUUUUUUUUUUUUUUU",
"UUUUUUUUUUUscckdfzdhxxgxdxkhsdfhhhxxkgnBVZBVVZIZ3 e5UUUUUUUUUUUUUUUUUU",
"UUUUUUlss1shkkcsdddfhckcdhdxgggflhhg12hcnBglvVZ9@ r5UUUUUUUUUUUUUUUUUU",
"UUUU2UlUkhl2ggkkz2ggflhlgh2gzgzglvdh,kghdgkhz2-@ ia@UUUUUUUUUUUUUUUUUU",
"2UUUUUUUUUllgUUf22gzglvhdgkxckkgkc2d22lfdhfbg2>>eFaUUUUUUUUUUUUUUUUUUU",
"UUUUUUU22UUUUUUUUU22U2cdg2dccddd2g22*khdgbNCb2>pFaHaUUUUUUUUUUUUUUUUUU",
"UUUUUUUUUUUU2d2UUUUgd2g2sgdlzffzdhdfdffbNCSIS9yayyppUUUUUUUUUUUUUUUUUU",
"UUUUUUUUUUUUUUUUUUUU2-22<22hkclcgdfxdhhfkbNSNzgn999$UUUUUUUUUUUUUUUUUU",
"UUUUUUUUUUUUUUUUUUUUUU22><=33cxg33glzdlfsssddgd2   UUUUUUUUUUUUUUUUUUU",
"UUUUUUUUUUUUUUUUUUUUUUUU>>g*<333;k3zlsg::::::2ds  $UUUUUUUUUUUUUUUUUUU",
"UUUUUUUUUUUUUUUUUUUUUUUUU2>>**->>1>sslkxhkzbnNAZzLUUUUUUUUUUUUUUUUUUUU",
"UUUUUUUUUUUUUUUUUUUUUUUUUUU33l>3w#2gkkghdzkbb::zUUUUUUUUUUUUUUUUUUUUUU",
"UUUUUUUUUUUUUUUUUUUUUUUUUUUUUUUw+oX2gg2OOO.xVVzUUUUUUUUUUUUUUUUUUUUUUU",
"UUUUUUUUUUUUUUUUUUUUUUUUUUUUUUUw+oXXOOOOOO.yawUUUUUUUUUUUUUUUUUUUUUUUU",
"UUUUUUUUUUUUUUUUUUUUUUUUUUUUUUUw+oXXX@###@.way4UUUUUUUUUUUUUUUUUUUUUUU",
"UUUUUUUUUUUUUUUUUUUUUUUUUUUUUUUUw+XXXX@##@.owywMPUUUUUUUUUUUUUUUUUUUUU",
"UUUUUUUUUUUUUUUUUUUUUUUUUUUUUUUUUw+XXXX@@@.o#pwwXUUUUUUUUUUUUUUUUUUUUU",
"UUUUUUUUUUUUUUUUUUUUUUUUUUUUUUUUUUUw++XXX.XXow9wUUUUUUUUUUUUUUUUUUUUUU",
"UUUUUUUUUUUUUUUUUUUUUUUUUUUUUUUUUUUUUUU4+ ...X99UUUUUUUUUUUUUUUUUUUUUU",
"UUUUUUUUUUUUUUUUUUUUUUUUUUUUUUUUUUUUUUUUUUww994UUUUUUUUUUUUUUUUUUUUUUU",
"UUUUUUUUUUUUUUUUUUUUUUUUUUUUUUUUUUUUUUUUUUUUUUUUUUUUUUUUUUUUUUUUUUUUUU",
"UUUUUUUUUUUUUUUUUUUUUUUUUUUUUUUUUUUUUUUUUUUUUUUUUUUUUUUUUUUUUUUUUUUUUU",
"UUUUUUUUUUUUUUUUUUUUUUUUUUUUUUUUUUUUUUUUUUUUUUUUUUUUUUUUUUUUUUUUUUUUUU",
"UUUUUUUUUUUUUUUUUUUUUUUUUUUUUUUUUUUUUUUUUUUUUUUUUUUUUUUUUUUUUUUUUUUUUU",
"UUUUUUUUUUUUUUUUUUUUUUUUUUUUUUUUUUUUUUUUUUUUUUUUUUUUUUUUUUUUUUUUUUUUUU",
"UUUUUUUUUUUUUUUUUUUUUUUUUUUUUUUUUUUUUUUUUUUUUUUUUUUUUUUUUUUUUUUUUUUUUU",
"UUUUUUUUUUUUUUUUUUUUUUUUUUUUUUUUUUUUUUUUUUUUUUUUUUUUUUUUUUUUUUUUUUUUUU",
"UUUUUUUUUUUUUUUUUUUUUUUUUUUUUUUUUUUUUUUUUUUUUUUUUUUUUUUUUUUUUUUUUUUUUU",
"UUUUUUUUUUUUUUUUUUUUUUUUUUUUUUUUUUUUUUUUUUUUUUUUUUUUUUUUUUUUUUUUUUUUUU",
"UUUUUUUUUUUUUUUUUUUUUUUUUUUUUUUUUUUUUUUUUUUUUUUUUUUUUUUUUUUUUUUUUUUUUU",
"UUUUUUUUUUUUUUUUUUUUUUUUUUUUUUUUUUUUUUUUUUUUUUUUUUUUUUUUUUUUUUUUUUUUUU",
"UUUUUUUUUUUUUUUUUUUUUUUUUUUUUUUUUUUUUUUUUUUUUUUUUUUUUUUUUUUUUUUUUUUUUU",
"UUUUUUUUUUUUUUUUUUUUUUUUUUUUUUUUUUUUUUUUUUUUUUUUUUUUUUUUUUUUUUUUUUUUUU",
"UUUUUUUUUUUUUUUUUUUUUUUUUUUUUUUUUUUUUUUUUUUUUUUUUUUUUUUUUUUUUUUUUUUUUU",
"UUUUUUUUUUUUUUUUUUUUUUUUUUUUUUUUUUUUUUUUUUUUUUUUUUUUUUUUUUUUUUUUUUUUUU",
"UUUUUUUUUUUUUUUUUUUUUUUUUUUUUUUUUUUUUUUUUUUUUUUUUUUUUUUUUUUUUUUUUUUUUU"
};
