/* XPM */
static char *result[] = {
/* columns rows colors chars-per-pixel */
"70 70 84 1 ",
"  c #000001",
". c #170F07",
"X c #1F170B",
"o c #2B230F",
"O c #332B13",
"+ c #3F2F17",
"@ c #3F2B1B",
"# c #373F27",
"$ c #430000",
"% c #4F0000",
"& c #5B0000",
"* c #670000",
"= c #6B0F0F",
"- c #730000",
"; c #7F0000",
": c #7F1B1B",
"> c #4B371B",
", c #533F1F",
"< c #473323",
"1 c #4F3B23",
"2 c #533F2F",
"3 c #5F4323",
"4 c #5B472B",
"5 c #574333",
"6 c #5F4B37",
"7 c #6B4727",
"8 c #774F2B",
"9 c #7F532F",
"0 c #675333",
"q c #67533F",
"w c #775F3F",
"e c #6F5743",
"r c #775F4B",
"t c #7B634F",
"y c #8B0000",
"u c #9B0000",
"i c #A70000",
"p c #B30000",
"a c #BF0000",
"s c #872300",
"d c #932F00",
"f c #9F3700",
"g c #A73F00",
"h c #A73F3F",
"j c #CB0000",
"k c #D70000",
"l c #E30000",
"z c #EF0000",
"x c red",
"c c #FF1F1F",
"v c #FF3F3F",
"b c #AF4300",
"n c #B74700",
"m c #AF7B1F",
"M c #8F5F37",
"N c #9B633B",
"B c #C34F00",
"V c #CB5707",
"C c #D75F0B",
"Z c #DF670F",
"A c #EB6F0F",
"S c #F37317",
"D c #B34F4F",
"F c #BB5757",
"G c #BF5B5B",
"H c #836B4B",
"J c #836B57",
"K c #8F7753",
"L c #8B735B",
"P c #937B63",
"I c #9B7F6B",
"U c #FF8F3B",
"Y c #9F876F",
"T c #A78F77",
"R c #AF977F",
"E c #FFA35B",
"W c #F7AB7B",
"Q c #FFB37B",
"! c #EBDB57",
"~ c none",
"^ c #B79F87",
"/ c #BFA78F",
"( c #FFB383",
") c #FFCFB3",
/* pixels */
"~~~~~~~~~~~~~~~~~~~~~~~~~~~~~~~~~~~~~~~~~~~~~~~~~~~~~~~~~~~~~~~~~~~~~~",
"~~~~~~~~~~~~~~~~~~~~~~~~~~~~~~~~~~~~~~~~~~~~~~~~~~~~~~~~~~~~~~~~~~~~~~",
"~~~~~~~~~~~~~~~~~~~~~~~~~~~~~~~~~~~~~~~~~~~~~~~~~~~~~~~~~~~~~~~~~~~~~~",
"~~~~~~~~~~~~~~~~~~~~~~~~~~~~~~~~~~~~~~~~~~~~~~~~~~~~~~~~~~~~~~~~~~~~~~",
"~~~~~~~~~~~~~~~~~~~~~~~~~~~~~~~~~~~~~~~~~~~~~~~~~~~~~~~~~~~~~~~~~~~~~~",
"~~~~~~~~~~~~~~~~~~~~~~~~~~~~~~~~~~~~~~~~~~~~~~~~~~~~~~~~~~~~~~~~~~~~~~",
"~~~~~~~~~~~~~~~~~~~~~~~~~~~~~~~~~~~~~~~~~~~~~~~~~~~~~~~~~~~~~~~~~~~~~~",
"~~~~~~~~~~~~~~~~~~~~~~~~~~~~~~~~~~~~~~~~~~~~~~~~~~~~~~~~~~~~~~~~~~~~~~",
"~~~~~~~~~~~~~~~~~~~~~~~~~~~~~~~~~~~~~~~~~~~~~~~~~~~~~~~~~~~~~~~~~~~~~~",
"~~~~~~~~~~~~~~~~~~~~~~~~~~~~~~~~~~~~~~~~~~~~~~~~~~~~~~~~~~~~~~~~~~~~~~",
"~~~~~~~~~~~~~~~~~~~~~~~~~~~~~~~~~~~~~~~~~~~~~~~~~~~~~~~~~~~~~~~~~~~~~~",
"~~~~~~~~~~~~~~~~~~~~~~~~~~~~~~~~~~~~~~~~~~~~~~~~~~~~~~~~~~~~~~~~~~~~~~",
"~~~~~~~~~~~~~~~~~~~~~~~~~~~~~~~~~~~~~~~~~~~~~~~~~~~~~~~~~~~~~~~~~~~~~~",
"~~~~~~~~~~~~~~~~~~~~~~~~~~~~~~~~~~~~~~~~~~~~~~~~~~~~~~~~~~~~~~~~~~~~~~",
"~~~~~~~~~~~~~~~~~~~~~~~~~~~~~~~~~~~~~~~~~~~~~~~~~~~~~~~~~~~~~~~~~~~~~~",
"~~~~~~~~~~~~~~~~~~~~~~~~~~~~~~~~~~~~~~~~~~~~~~~~~~~~~~~~~~~~~~~~~~~~~~",
"~~~~~~~~~~~~~~~~~~~~~~~~~~~~~~~~~~~~~~~~~~~~~~~~~~~~~~~~~~~~~~~~~~~~~~",
"~~~~~~~~~~~~~~~~~~~~~~~~~~~~~~~~~~~~~~~~~~~~~~~~~~~~~~~~~~~~~~~~~~~~~~",
"~~~~~~~~~~~~~~~~~~~~~~~~~~~~~~~~~~~~~~~~~~~~~~~~~~~~~~~~~~~~~~~~~~~~~~",
"~~~~~~~~~~~~~~~~~~~~~~~~~~~~~~~~~~~~~~~~~~~~~~~~~~~~~~~~~~~~~~~~~~~~~~",
"~~~~~~~~~~~~~~~~~~~~~~~~~~~~~~~~~~~~~~~~~~~~~~~~~~~~~~~~~~~~~~~~~~~~~~",
"~~~~~~~~~~~~~~~u~s;;;dfBffpj~~~~~~~~~~~~~~~~~~~~~~~~~~~~~~~~~~~~~~~~~~",
"~~~~~~~~~~~~~~~wHKPUQQUSfVfyizu~~~~~~~~~~~~~~~~~~~~~~~~~~~~~~~~~~~~~~~",
"~~~~~~~~~~~~HIYR//////EQEZVb;;pk~~~~~~~~~~~~~~~~~~~~~~~~~~~~~~~~~~~~~~",
"~~~~~~~~~~HIIIT^^^^^^R/RKnf;;ukul~~~~~~~~~~~~~~~~~~~~~~~~~~~~~~~~~~~~~",
"~~~~~~~~0JLPYT^^/////^^TY;BByyauziuk~~~~~~~~~~~~~~~~~~~~~~~~~~~~~~~~~~",
"~~~~~~~6wHJIIITTRR^^^//^GEUUACBuiuupxk~~uu~~~~~~~~~~~~~~~~~~~~~~~~~~~~",
"~~~~~~30wwHKPPIIIPPIITYGDCACBlpzzauliuauliuj~~~~~~~~~~~~~~~~~~~~~~~~~~",
"~~~~~~560wwHKKKPIIPFDGDfSBbfbxj;aiuuupiuuup;i;~~~~~~~~~~~~~~~~~~~~~~~~",
"~~~~~#55560wHHttITTF;gbyfbfypxauuppklp;p;lpuu~;~~~~~~~~~~~~~~~~~~~~~~~",
"~~~~~+#55600eeeT)Th;gSBn;yuuplvyakulkjj;api;yjap~~~~~~~~~~~~~~~~~~~~~~",
"~~~~.O225552rJP/^Tp;;g;pu;yyipxpzauzjukpauupi;i;y;i~~~~a~~~~a~~~~~~~~~",
"~~~~.+OOO#+#qrITIJhh4;;pj;pbpaplpuiuupxkuuajjjzu;yj;~~~~~~~~~~~~~~~~~~",
"~~~~.+OOOO+#2qtJJ0h0ti;nlp;jpujxjpjzauliuuuuajkuuuajkp;~~;~~~~~~~~~~~~",
"~~~~.qq,>+O   <<< ;484kZkpzxllxxxjxaiuuup;pi;uu;pi;;;~;l~~~;l~~~~~~~~~",
"~~~.9tPM8>+     @nVp;;;pj;pjjjpjlkakipp;lpkjxp;;;j;;;;ppu~~;;;~~;~~~~~",
"~~~..  388+     nUAVVnb;;pp;xa;-pakplp;;iualajapalajapu;;ppp~~~~;~~~~;",
"~~~~~  +3H8O    @bpn;zi;uu;apj*aux;p;;ppaalauuu;ya;uu;;~;~;p~;;;~~~;~~",
"~~~~~ ++30H+O1+66:;uavp;pjpik;;u;p;uuupaui%*-upy%*-up~~~~~~~~~~~~~~~~~",
"~~~~~O,,++,0000Hw6:BAaayczjpuaj$;;auliiu;;i%%;;;~%%;~~~~~~~~~~~~~~~~~~",
"~~~~Xoo,+,,3oo>XXypy3a**pjpuiiiuiuupxk$%;xku$%;~~~~~~~~~~~~~~~~~~~~~~~",
"~~~~X,O8+yy+;;X+;;+-al;OO;u=jiaauziukpziukpyy~~~~~~~~~~~~~~~~~~~~~~~~~",
"~~~~X8+WNyam!mVn;uz**a;Auupayyikulkpjylkpjy~~~~~~~~~~~~~~~~~~~~~~~~~~~",
"~~~~~WN~~~yyz*;pp;;u;oyy&&yy&&&pykly~~i;y~~~~~~~~~~~~~~~~~~~~~~~~~~~~~",
"~~~~~~~~~~~~a*&plCpuOO~&&y&&yyjkyyy~~~~~~~~~~~~~~~~~~~~~~~~~~~~~~~~~~~",
"~~~~~~~~~~~~pnCp;pXXXX&&;;y~~yy~~~~~~~~~~~~~~~~~~~~~~~~~~~~~~~~~~~~~~~",
"~~~~~~~~~~~~93&;;pykpyy~~y~~~~~~~~~~~~~~~~~~~~~~~~~~~~~~~~~~~~~~~~~~~~",
"~~~~~~~~~e~I9Cn;;;pXXX~~~~~~~~~~~~~~~~~~~~~~~~~~~~~~~~~~~~~~~~~~~~~~~~",
"~~~~~~~~~I~(y3>>>XXXX~~~~~~~~~~~~~~~~~~~~~~~~~~~~~~~~~~~~~~~~~~~~~~~~~",
"~~~~~~~~~(3y3>OO>XX~~~~~~~~~~~~~~~~~~~~~~~~~~~~~~~~~~~~~~~~~~~~~~~~~~~",
"~~~~~~~~39y7>+OOXX~~~~~~~~~~~~~~~~~~~~~~~~~~~~~~~~~~~~~~~~~~~~~~~~~~~~",
"~~~~~~~~~XO++OXXX~~~~~~~~~~~~~~~~~~~~~~~~~~~~~~~~~~~~~~~~~~~~~~~~~~~~~",
"~~~~~~~~~XoOo..~~~~~~~~~~~~~~~~~~~~~~~~~~~~~~~~~~~~~~~~~~~~~~~~~~~~~~~",
"~~~~~~~~~~XX..~~~~~~~~~~~~~~~~~~~~~~~~~~~~~~~~~~~~~~~~~~~~~~~~~~~~~~~~",
"~~~~~~~~~~~~~~~~~~~~~~~~~~~~~~~~~~~~~~~~~~~~~~~~~~~~~~~~~~~~~~~~~~~~~~",
"~~~~~~~~~~~~~~~~~~~~~~~~~~~~~~~~~~~~~~~~~~~~~~~~~~~~~~~~~~~~~~~~~~~~~~",
"~~~~~~~~~~~~~~~~~~~~~~~~~~~~~~~~~~~~~~~~~~~~~~~~~~~~~~~~~~~~~~~~~~~~~~",
"~~~~~~~~~~~~~~~~~~~~~~~~~~~~~~~~~~~~~~~~~~~~~~~~~~~~~~~~~~~~~~~~~~~~~~",
"~~~~~~~~~~~~~~~~~~~~~~~~~~~~~~~~~~~~~~~~~~~~~~~~~~~~~~~~~~~~~~~~~~~~~~",
"~~~~~~~~~~~~~~~~~~~~~~~~~~~~~~~~~~~~~~~~~~~~~~~~~~~~~~~~~~~~~~~~~~~~~~",
"~~~~~~~~~~~~~~~~~~~~~~~~~~~~~~~~~~~~~~~~~~~~~~~~~~~~~~~~~~~~~~~~~~~~~~",
"~~~~~~~~~~~~~~~~~~~~~~~~~~~~~~~~~~~~~~~~~~~~~~~~~~~~~~~~~~~~~~~~~~~~~~",
"~~~~~~~~~~~~~~~~~~~~~~~~~~~~~~~~~~~~~~~~~~~~~~~~~~~~~~~~~~~~~~~~~~~~~~",
"~~~~~~~~~~~~~~~~~~~~~~~~~~~~~~~~~~~~~~~~~~~~~~~~~~~~~~~~~~~~~~~~~~~~~~",
"~~~~~~~~~~~~~~~~~~~~~~~~~~~~~~~~~~~~~~~~~~~~~~~~~~~~~~~~~~~~~~~~~~~~~~",
"~~~~~~~~~~~~~~~~~~~~~~~~~~~~~~~~~~~~~~~~~~~~~~~~~~~~~~~~~~~~~~~~~~~~~~",
"~~~~~~~~~~~~~~~~~~~~~~~~~~~~~~~~~~~~~~~~~~~~~~~~~~~~~~~~~~~~~~~~~~~~~~",
"~~~~~~~~~~~~~~~~~~~~~~~~~~~~~~~~~~~~~~~~~~~~~~~~~~~~~~~~~~~~~~~~~~~~~~",
"~~~~~~~~~~~~~~~~~~~~~~~~~~~~~~~~~~~~~~~~~~~~~~~~~~~~~~~~~~~~~~~~~~~~~~",
"~~~~~~~~~~~~~~~~~~~~~~~~~~~~~~~~~~~~~~~~~~~~~~~~~~~~~~~~~~~~~~~~~~~~~~"
};
