/* XPM */
static char *result[] = {
/* columns rows colors chars-per-pixel */
"70 70 107 2 ",
"   c #000001",
".  c #070707",
"X  c #0B0B0B",
"o  c #170F07",
"O  c #1F170B",
"+  c #131313",
"@  c #1B1B1B",
"#  c #2B230F",
"$  c #332B13",
"%  c #3F2F17",
"&  c #2F2F2F",
"*  c #373F27",
"=  c #373737",
"-  c #430000",
";  c #470000",
":  c #4F0000",
">  c #530707",
",  c #5B0000",
"<  c #670000",
"1  c #670B0B",
"2  c #730000",
"3  c #7F0000",
"4  c #771717",
"5  c #4B371B",
"6  c #533F1F",
"7  c #4F3B23",
"8  c #533F2F",
"9  c #5F4323",
"0  c #5B472B",
"q  c #574333",
"w  c #5F4B37",
"e  c #6B4727",
"r  c #774F2B",
"t  c #675333",
"y  c #67533F",
"u  c #775F3F",
"i  c #6F5743",
"p  c #775F4B",
"a  c #7B634F",
"s  c #8B0000",
"d  c #9B0000",
"f  c #A70000",
"g  c #B30000",
"h  c #BF0000",
"j  c #872300",
"k  c #932F00",
"l  c #9F3700",
"z  c #8B2323",
"x  c #972F2F",
"c  c #A33B3B",
"v  c #A73F3F",
"b  c #CB0000",
"n  c #D70000",
"m  c #E30000",
"M  c #EF0000",
"N  c red",
"B  c #FF1F1F",
"V  c #FF3F3F",
"C  c #B74700",
"Z  c #875733",
"A  c #9B633B",
"S  c #C34F00",
"D  c #CB5707",
"F  c #D75F0B",
"G  c #DF670F",
"H  c #EB6F0F",
"J  c #F37317",
"K  c #FF7F1B",
"L  c #AF4747",
"P  c #B34F4F",
"I  c #BB5757",
"U  c #BF5B5B",
"Y  c #8F7753",
"T  c #8B735B",
"R  c #937B63",
"E  c #9B7F6B",
"W  c #FF5F5F",
"Q  c #FF7B7B",
"!  c #C39B2F",
"~  c #FF8F3B",
"^  c #9F8363",
"/  c #9F876F",
"(  c #A78F77",
")  c #AF977F",
"_  c #D78B5B",
"`  c #FFA35B",
"'  c #EFA373",
"]  c #F7AB7B",
"[  c #FFB37B",
"{  c none",
"}  c #B79F87",
"|  c #BFA78F",
" . c #DF8787",
".. c #E78F8F",
"X. c #FFBB93",
"o. c #F7ABAB",
"O. c #FFB7B7",
"+. c #FFBBBB",
"@. c #FFC79B",
"#. c #FFCFB3",
"$. c #FFD7BB",
"%. c #FFDBC7",
"&. c #FFE3D3",
"*. c #FFEBDB",
"=. c #FFEBDF",
"-. c #FFFFD7",
";. c white",
/* pixels */
"{ { { { { { { { { { { { { { { { { { { { { { { { { { { { { { { { { { { { { { { { { { { { { { { { { { { { { { { { { { { { { { { { { { { { { { ",
"{ { { { { { { { { { { { { { { { { { { { { { { { { { { { { { { { { { { { { { { { { { { { { { { { { { { { { { { { { { { { { { { { { { { { { { ",
"{ { { { { { { { { { { { { { { { { { { { { { { { { { { { { { { { { { { { { { { { { { { { { { { { { { { { { { { { { { { { { { { { { { { { { { ",
"{ { { { { { { { { { { { { { { { { { { { { { { { { { { { { { { { { { { { { { { { { { { { { { { { { { { { { { { { { { { { { { { { { { { { { { ",
"{ { { { { { { { { { { { { { { { { { { { { { { { { { { { { { { { + @ & = @ + X 3 { { { { { { { { { { { { { { { { { { { { { { { { { { { { { { ",
"{ { { { { { { { { { { { { { { { { { { { { { { { { { { { { < < s s s s s s < < X d d { { { { { { { { { { { { { { { { { { { { { { { { { { { { ",
"{ { { { { { { { { { { { { { { { { { { { { { { { { { < s s s s s s 3 1 1 g g f s < X b { { { { { { { { { { { { { { { { { { { { { { { { { { { ",
"{ { { { { { { { { { { { { { { { { { { { { { { { { 3 d g n f s 3 3 3 2 2 g h h g s < X { { { { { { { { { { { { { { { { { { { { { { { { { { { ",
"{ { { { { { { { { { { { { { { { { { { { { { { { , f h n h d 3 3 j j 3 3 f g h h g d 2 m { { { { { { { { { { { { { { { { { { { { { { { { { { ",
"{ { { { { { { { { { { { { { { { { { { { { - , < j d g f s j j g h h b b b b b g g g f s 2 < , - { { { { { { { { { { { { { { { { { { { { { { ",
"{ { { { { { { { { { { { { { { { { { { { - 2 3 s s f d 3 3 k g h m m M N N N M m m n h f d s s , - { { { { { { { { { { { { { { { { { { { { { ",
"{ { { { { { { { { { { { { { { { < < , , s d j j s d s , < j g b m m m m m m m m m N m n h g g 3 , - { { { { { { { { { { { { { { { { { { { { ",
"{ { { { { { { { { { { { { g d d k s g b b h g g g b b b b n n n b h d d d d f g g h b m n n b d 2 , { { { { { { { { { { { { { { { { { { { { ",
"{ { { { { { { { { { { { s 3 k d f g b b b b b n m m m m n n n M n b g f s d d d f g R Y h u g d 2 , { { { { { { { { { { { { { { { { { { { { ",
"{ { { { { { { { { - - - , , d g g h b h g n n M M M M m n n n n n n b h f d s d f h ` | | 3 / s < , : , < 2 , - { { { { { { { { { { { { { { ",
"{ { { { { { { { 3 3 2 < - - f g g g l j b m M N N N M m n n n n n n n R Y f u f h b b ` G } ( - , j < 3 d g 3 2 - { { { { { { { { { { { { { ",
"{ { { { { { 3 g d d < , - , f d s j j h n N N N M m m M M n b n h | } J | | n / b b R b g G } d d j l d f f f f 3 < { { { { { { { { { { { { ",
"{ { { { { 4 g g f 2 , - - < d s s d f b f N N N M b b b n n b n b b ) m J J } ( n n n b g ( ( Y g f j 3 s s d d d f s s - { { { { { { { { { ",
"{ { { { { d h g d , - - < 3 3 s d f b n g N N M m g g h b b b b n L M R b N G } m g U b g G ` , 3 g s < s s 2 3 f b h g 2 , { { { { { { { { ",
"{ { { { { 3 f f 3 , , < j < : s d k n m d m n h f d f h b n b / ( M M M M M ( ( Y M M B m m n s 3 s s j d d 2 < j f b n g d 2 { { { { { { { ",
"{ { { { { < s < , 2 j j < - p d ^ h T g m b g s 3 f l n n n _ H M M M | M M E E J g J M n n w q f s s s d g 3 2 j j f b n j s - { { { { { { ",
"{ { { { { ; , < 3 j k k j , p y T R ( m n h d 3 3 b h n d N V V G V n B B B ~ M M M M h h q q m h d d 2 d g g s 2 s d g b h j - { { { { { { ",
"{ { { { k , < s k k k l b h q p p a T E n f 3 s g n K b h B B K K K K K K V V G M V u t q g b q * b b s F f b g < 2 j d b b j < - { { { { { ",
"{ { { { $ < s j k f g h b h b p d i i p a b g g m h M J K K K ~ V B ~ K  .~ K K B B t w h h f % % M F ~ q q 8 m m < , 2 f g g < - { { { { { ",
"{ { { $ O s d k d k g h b h b g a g w 6 9 m g B M M K K ~ ` ` W ` ` ` @.` Q Q ~ K J ` ` n n h h N N ~ [ 5 5 #   3 3 b < d f d , - { { { { { ",
"{ { O - < g g d s d g b m M g d g b b b b b g M M K K ` ` Q *.+.%.*.*.@.@.[ [ ` ~ K J n J n b c N N F ~ $.  0 m . $ Y 3 s s s , - { { { { { ",
"{ { - , s g f s 2 d g b M M b n b b b b b v M M K B K ~ @.+.*.*.*.$.;.*.@.@.[ [ ~ K ` [ J m K M c g b F [ $.    t 5 # l , s s < - { { { { { ",
"{ { , < k g d , < k g b N m n m m b m m m M M h B K K @.&.-.*.$.$.*.;.;.*.*.$.[ ` [ [ @.J M n M M g h n ~ [ K u # # b f 2 d d 2 - - { { { { ",
"{ - < s d d 3 < < d g b M   m M m m M M M z g n K ` @.@.$.$.;.;.;.;.;.;.;.*.*.$.$.$.@.` ` N B x M M f h F G J #     m b d f g 3 - - - { { { ",
"{ - s % g 2 : , < d g b q * m M M M M M M M m M ` [ Q $.*.*.;.;.;.;.;.;.-.;.;.*.$.@.` ` V B B z M h b h b J J J   o M M g g h s < - - { { { ",
"{ - s d d < - , , d g b % % g b b m m m h M m M ` ` $.$.*.;.;.;.;.;.;.;.;.-.;.$.@.[ ` K B V B V M I m b g b # g   m n m h g g g s , - { { { ",
"{ - s g % < - : < k g b b h s d g g b m h h b M M [ ` *.*.;.;.;.;.;.;.;.;.;.-.$.[ [ Q K V J G G B M m b g b h g f h b n b j g g j < - - { { ",
"{ - s g g 3 : < 3 g f g b h 2 3 s f n m M n b M V [ @.@.*.*.*.;.;.;.;.;.;.;.;.$.@.` ` K B M D F M F M b g J     d f h n h d g g j < - - { { ",
"{ - s f g 3 < 3 s g k d g h , ,   s b m M m x b B W [ @.@.*.*.;.;.;.;.;.;.;.*.$.@.K ` ` G M h f M H N m b [ * g 2 2 s f s 2 d d j , - 2 > { ",
"{ - 3 d g 2 3 d d g g d s f < q * 3 h m M x x M B ' [ @.@.$.*.*.*.;.*.;.;.;.*.$.@.` ` ` G M m b N K F M n J % g , - 2 d < < d s < - : 2 : { ",
"{ - 2 s d < s g d f g d s s < % % ` g b m c f B J X.[ [ @.@.@.$.$.$.$.;.;.;.=.@.` @.H ~ G n n M F K H M n G n g - - < 2 3 3 3 3 < - < 3 , { ",
"{ - - < 3 < 3 s s d h g 3 s 3 d d 2 f 0 n h b J ~ ~ B ..O.` ` @.@.@.$.;.$.*.*.@.@.~ K G M n h N ` @.K M n n b - - < 2 3 3 3 3 < - < 3 , - { ",
"{ { - , 2 , < 2 3 d b g s 3 h g g s s g r v B B M M V B ` ` ` ` ` [ $.;.$.@.*.*.` ~ K G n n M H $.[ K F n m b - : < < 3 3 < 2 - - s s < - { ",
"{ { - , < , : , < d b h s < f h g d s d d b z h n M B M N W W Q Q Q $.$.$.o.[ @.K H G M M H K q [ ` H F b M b , , ; : d 3 , , 3 3 d d < - { ",
"{ { # : 2 , - - , d h b f 3 d g g f 3 3 3 , , b n B B $ G J J J J J ~ #.` ` ` ~ @.G m g F F H K K F F m b M b 3 2 < , f 3 < - 3 s f f 2 < { ",
"{ { { : 2 < - - , d g h g s 2 d g h s s < h h h h n n $ ~ M N V M V J ] [ ..J G G m M M N F F q * M m b b b h <   3 2 s 3 < : 2 s h f 2 : { ",
"{ { { - 3 2 ; - : s f g   s < s g b d 3 3 < s S S w t 7 ` m N N M M B J ~ W n n c n A M M m b % % b b h g h J q * g s f g f , - < g s < O { ",
"{ { { - 2 3 2 : : 2 s q * s : $ $ g V f d s d F w f t 7 $ $ % % m M n M ! V g z P v g M M n g f f d s s d f C % % g d g h g - - 2 g 2 : { { ",
"{ { { % 2 d d 3 2 : , % % d : $ $ f g f d f S w u 5 d b 3 h M h n M M M M b c M M M M N m h s d d 3 < 2 3 s b n b g s h h f - - 3 g < - { { ",
"{ { { { { d f d 3 : - , s d : < < < 9 2 3 % S w % O F g x h n c h M M M M n M n h h h h g 3 <     h , 2 3 d n b g d d b h d , - 3 d , O { { ",
"{ { { { { 3 3 s 3 , ; - 2 d 3 < < < - ; < d O O F F S # # d g g g d d M M M b n b b b h   3 s   2 . < d s s g g d s g b g j 2 2 s f O { { { ",
"{ { { { { 2 2 < , : ; ; - , d 2 3 # - - , d g h h g b b b % h b h g g g h b b m m m m g s 2 D   ] d d f s 3 s d d f h b g l 2 3 s d O { { { ",
"{ { { { { f d s 2 , : , < - g h g $ $ < , 2 3 d g g g b % n ] % M m m q q M M M M b g h n D Z     2 d < < , 3 d d g b g j j s d g s - { { { ",
"{ { { { { { { { 4 g g f 2 - n b n h g s 3 3 s d d d d g g % g b A m m M N N N N M m m m D Z 6 6 Z < 6 , , , d f g g j < - 3 g m f s { { { { ",
"{ { { { { { { { - 3 g d d < < 2 3 3 s d f b b b h h h g d d g g b b b q n b M N N N N m C Z e g # 6 , 3 g s s f f d s , 2 3 b g d - { { { { ",
"{ { { { { { { { { - 3 3 3 2 , 2 s d s s d f b n q b b b h g g S S b b b b b m M M M M n n 6     s < 6 g f j s , 2 3 f b h g 2 , { { { { { { ",
"{ { { { { { { { { { { { - - - < s f d s j j h n N N N F H ~ ~ H F S S h b n n n n n n b b e e g d 2 d d j l f s d d d f s s - { { { { { { { ",
"{ { { { { { { { { { { { { { - - k - g g g l j b q * N N N H H F F F n n n n b h f f f h b b b g j < - , j < g f f f 3 < , , { { { { { { { { ",
"{ { { { { { { { { { { { { { 3 - - - g g h b h g % % M M M M m n n n m n n b h f d s d f h b h j 3 s s < , : 2 s 3 2 - { { { { { { { { { { { ",
"{ { { { { { { { { { { { { { { < < < d f g b b b b b n m m m m n n n M n b g f s d d d f g b b h g g d 2 , { - 2 , - { { { { { { { { { { { { ",
"{ { { { { { { { { { { { { { { { { < < k s g b b h g g g b b b b n n n b h d d d d f g g h b m n n b d 2 , { { { { { { { { { { { { { { { { { ",
"{ { { { { { { { { { { { { { { { { { < < < , , s d j j s d s , < j g b m m m m m m m m m N m n h g g 3 , - { { { { { { { { { { { { { { { { { ",
"{ { { { { { { { { { { { { { { { { { { { { { { - 2 3 s s f d 3 3 k g h m m M N N N M m m n h f d s s , - { { { { { { { { { { { { { { { { { { ",
"{ { { { { { { { { { { { { { { { { { { { { { { { - , < j d g f s j j g h h b b b b b g g g f s 2 < , - { { { { { { { { { { { { { { { { { { { ",
"{ { { { { { { { { { { { { { { { { { { { { { { { { { { , f h n h d 3 3 j j 3 3 f g h h g d 2 { { { { { { { { { { { { { { { { { { { { { { { { ",
"{ { { { { { { { { { { { { { { { { { { { { { { { { { { { 3 d g n f s 3 3 3 2 2 g h h g s < X { { { { { { { { { { { { { { { { { { { { { { { { ",
"{ { { { { { { { { { { { { { { { { { { { { { { { { { { { { < s s s s s s 3 1 1 g g f s < X { { { { { { { { { { { { { { { { { { { { { { { { { ",
"{ { { { { { { { { { { { { { { { { { { { { { { { { { { { { { { { < < s s s s s s < < X { { { { { { { { { { { { { { { { { { { { { { { { { { { ",
"{ { { { { { { { { { { { { { { { { { { { { { { { { { { { { { { { { { { + @ & = @ + { { { { { { { { { { { { { { { { { { { { { { { { { { { { { ",
"{ { { { { { { { { { { { { { { { { { { { { { { { { { { { { { { { { { { { { { { { { { { { { { { { { { { { { { { { { { { { { { { { { { { { { { ",
"{ { { { { { { { { { { { { { { { { { { { { { { { { { { { { { { { { { { { { { { { { { { { { { { { { { { { { { { { { { { { { { { { { { { { { { ",
"{ { { { { { { { { { { { { { { { { { { { { { { { { { { { { { { { { { { { { { { { { { { { { { { { { { { { { { { { { { { { { { { { { { { { { { ",
"{ { { { { { { { { { { { { { { { { { { { { { { { { { { { { { { { { { { { { { { { { { { { { { { { { { { { { { { { { { { { { { { { { { { { { { ",
"{ { { { { { { { { { { { { { { { { { { { { { { { { { { { { { { { { { { { { { { { { { { { { { { { { { { { { { { { { { { { { { { { { { { { { { ",
"{ { { { { { { { { { { { { { { { { { { { { { { { { { { { { { { { { { { { { { { { { { { { { { { { { { { { { { { { { { { { { { { { { { { { { { "
};
