/* XPM */
static char *result[] = {
/* columns rows colors chars-per-pixel */
"70 70 92 1 ",
"  c #000001",
". c #070707",
"X c #170F07",
"o c #1F170B",
"O c #131313",
"+ c #1B1B1B",
"@ c #2B230F",
"# c #332B13",
"$ c #3F2F17",
"% c #373F27",
"& c #430000",
"* c #4F0000",
"= c #5B0000",
"- c #670000",
"; c #730000",
": c #7F0000",
"> c #7F1B1B",
", c #43331B",
"< c #4B371B",
"1 c #533F1F",
"2 c #732B00",
"3 c #4F3B23",
"4 c #533F2F",
"5 c #5F4323",
"6 c #5B472B",
"7 c #574333",
"8 c #5F4B37",
"9 c #6B4727",
"0 c #774F2B",
"q c #7F532F",
"w c #675333",
"e c #67533F",
"r c #775F3F",
"t c #6F5743",
"y c #775F4B",
"u c #676B4F",
"i c #7B634F",
"p c #8B0000",
"a c #9B0000",
"s c #A70000",
"d c #B30000",
"f c #BF0000",
"g c #932F00",
"h c #9F3700",
"j c #A73F00",
"k c #9B3333",
"l c #CB0000",
"z c #D70000",
"x c #E30000",
"c c #EF0000",
"v c red",
"b c #FF3F3F",
"n c #9B5B13",
"m c #AF4300",
"M c #B74700",
"N c #875733",
"B c #8F5F37",
"V c #9B633B",
"C c #C34F00",
"Z c #CB5707",
"A c #D75F0B",
"S c #DF670F",
"D c #EB6F0F",
"F c #F37317",
"G c #FF7F1B",
"H c #836B57",
"J c #8F7753",
"K c #8B735B",
"L c #B37347",
"P c #937B63",
"I c #9B7F6B",
"U c #FF5F5F",
"Y c #C39B2F",
"T c #FF8F3B",
"R c #9F8363",
"E c #9F876F",
"W c #A78F77",
"Q c #AF977F",
"! c #D7BB43",
"~ c #FFA35B",
"^ c #F7AB7B",
"/ c #EBDB57",
"( c none",
") c #B79F87",
"_ c #BFA78F",
"` c gray70",
"' c #B7B7B7",
"] c gray75",
"[ c #FF9B9B",
"{ c #FFC79B",
"} c #FFFF8F",
"| c #FFFFD7",
/* pixels */
"((((((((((((((((((((((((((((((((((((((((((((((((((((((((((((((((((((((",
"(((((((((((((((((((((((((((((((((((:((((((((((((((((((((((((((((((((((",
"((((((((((((((((((((((((((((((((((((((((((((((((((((((((((((((((((((((",
"(((((((((((((((((((((((((((((((((:(:((((((((((((((((((((((((((((((((((",
"(((((((((((((((((((((((((((((((((:((((((((((((((((((((((((((((((((((((",
"(((((((((((((((((((((((((((((((((((d((((((((((((((((((((((((((((((((((",
"((((((((((((((((((((((((((((((((((d:((((((((((((((((((((((((((((((((((",
"((((((((((((((((((((((((((((((((((d(((((((((((((((((((((((((((((((((((",
"((((((((((((((((((((((((((((((((da:((((:((((((((((((((((((((((((((((((",
"((((((((((((((((((((((((((((((((xd:((f(:((((((((((((((((((((((((((((((",
"(((((((((((((((((((((((((((((((:xda:(:(:((((((((((((((((((((((((((((((",
"((((((((((((((((((((((((((((((:dd:d::al:((((((((((((((((((((((((((((((",
"((((((((((((((((((((((((((((((:za:fxvfm::(((((((((((((((((((((((((((((",
"((((((((((((((((((((((((((((((lla:alzxC=:(((((((((((((((((((((((((((((",
"((((((((((((((((((((((((((((aasc::s:x:j:((((((((((((((((((((((((((((((",
"(((((((((((((((((((((((((((dzfa:xl:s::x:::((((((((((((((((((((((((((((",
"(((((((((((((((((((((((((((afcd-xdhh:hdg::::((((((((((((((((((((((((((",
"((((((((((((((((((((((((((((:pdxcvv::::(za:(((((((((((((((((((((((((((",
"(((((((((((((((((((((((((((((:llcvnn:(xa:a=(:(((((((((((((((((((((((((",
"((((((((((((((((((((((((7e(s(plcxAYYAM:d:xa:lp((((((((((((((((((((((((",
"((((((((((((((((((((((((78:spglcZD!!FFg*adzdv:((((((((((((((((((((((((",
"((((((((((((((((((((((((<eyxs:CcS!!}TAjM&asvxl(-((((((((((((((((((((((",
"((((((((((((((((((((((((<8izp:cS~~/|~FCGdGsAMaff-(((((((((((((((((((((",
"((((((((((((((((((((((((#<8yKllST{|{GRG~G_lDluAf-(((((((((((((((((((((",
"((((((((((((((((((((((xd##5tiK:CTGGQQ__~GQQdQQJf((((((((((((((((((((((",
"((((((((((((((((((((((:::#<tyiiEWE)___))_)WRJJt5((((((((((((((((((((((",
"(((((((((((((((((((((xdxx#+<00tti)_)Q)Q_'_QEJtt1#(((((((((((((((((((((",
"((((((((((((((((((((pzvc:d#+#<5<#WPHIQ_]]`_Pt51#@o((((((((((((((((((((",
"(((((((((((((((((((((xvvx(:++####0teHE_!!QRq551XX.((((((((((((((((((((",
"((((((((((((((((((xddmxzpd=w##++<7e695555BV05##.  O(((((((((((((((((((",
"((((((((((((((((((a>ldzxaZfN76#47iw0$$$$#@5V9##X   (((((((((((((((((((",
"((((((((((((((((((fd:ascaZS=9747eiR1$@@$$#@@59#o   (((((((((((((((((((",
"(((((((((((((((((((::daascdl:0yyyJ_1@:c:*@@@@51XX  (((((((((((((((((((",
"(((((((((((((((((((((afccdcxd9qqrJQJ5c/c:@#@66,9@ X(((((((((((((((((((",
"((((((((((((((((((((ppsfvlv$$lxd0rrrrrJJr1@@@@@  #o(((((((((((((((((((",
"((((((((((((((((((((pddszMz@$z5$,366663,@<<@ @ ::3 (  ((((((((((((((((",
"(((((((((((((((((((((dxdzAflzza@@oXX  o@99   6.l:9    ((((((((((((((((",
"(((((((((((((((((((((fxxfmZaa$d@@@o. @$98    w#J@@   (((((((((((((((((",
"(((((((((((((((((((((-ff:dd:::da:@XX$1N09%#  r<@@X  ((((((((((((((((((",
"(((((((((((((((((((((a:-aaf$$ha:hm-$5N05N$$%r#@  (((((((((((((((((((((",
"((((((((((((((((((((((a:::aaa::ddd:-xU[V^N%##@  X(((((((((((((((((((((",
"(((((((((((((((((((((((pdM;adk<dddfxcvU[[Ub2@@  ((((((((((((((((((((((",
"((((((((((((((((((((((((d:MA=::9fflxccvUUUvc^2  ((((((((((((((((((((((",
"((((((((((((((((((((((((fxx d:kNBLllxccvvccc   (((((((((((((((((((((((",
"((((((((((((((((((((((((-ff =-$9Nffllxxcclf;;  (((((((((((((((((((((((",
"(((((((((((((((((((((((((:-a@$<<9#^fllxxlfcA;*((((((((((((((((((((((((",
"(((((((((((((((((((((((((((( <1191BB;fllf^;p*(((((((((((((((((((((((((",
"((((((((((((((((((((((((((((- 11099d^;fffB*(((((((((((((((((((((((((((",
"((((((((((((((((((((((((((((( $11<99d;f^;f((((((((((((((((((((((((((((",
"(((((((((((((((((((((((((((((($$$119N; d;.((((((((((((((((((((((((((((",
"(((((((((((((((((((((((((((((((  $9190NN0 ((((((((((((((((((((((((((((",
"((((((((((((((((((((((((((((((((  <99911#(((((((((((((((((((((((((((((",
"(((((((((((((((((((((((((((((((((  <<<<@#(((((((((((((((((((((((((((((",
"(((((((((((((((((((((((((((((((((((     ((((((((((((((((((((((((((((((",
"((((((((((((((((((((((((((((((((((((((((((((((((((((((((((((((((((((((",
"((((((((((((((((((((((((((((((((((((((((((((((((((((((((((((((((((((((",
"((((((((((((((((((((((((((((((((((((((((((((((((((((((((((((((((((((((",
"((((((((((((((((((((((((((((((((((((((((((((((((((((((((((((((((((((((",
"((((((((((((((((((((((((((((((((((((((((((((((((((((((((((((((((((((((",
"((((((((((((((((((((((((((((((((((((((((((((((((((((((((((((((((((((((",
"((((((((((((((((((((((((((((((((((((((((((((((((((((((((((((((((((((((",
"((((((((((((((((((((((((((((((((((((((((((((((((((((((((((((((((((((((",
"((((((((((((((((((((((((((((((((((((((((((((((((((((((((((((((((((((((",
"((((((((((((((((((((((((((((((((((((((((((((((((((((((((((((((((((((((",
"((((((((((((((((((((((((((((((((((((((((((((((((((((((((((((((((((((((",
"((((((((((((((((((((((((((((((((((((((((((((((((((((((((((((((((((((((",
"((((((((((((((((((((((((((((((((((((((((((((((((((((((((((((((((((((((",
"((((((((((((((((((((((((((((((((((((((((((((((((((((((((((((((((((((((",
"((((((((((((((((((((((((((((((((((((((((((((((((((((((((((((((((((((((",
"(((((((((((((((((((((((((((((((((((((((((((((((((((((((((((((((((((((("
};
