/* XPM */
static char *result[] = {
/* columns rows colors chars-per-pixel */
"103 103 5 1 ",
"  c #430000",
". c #4F0000",
"X c #5B0000",
"o c #670000",
"O c none",
/* pixels */
"OOOOOOOOOOOOOOOOOOOOOOOOOOOOOOOOOOOOOOOOOOOOOOOOOOOOOOOOOOOOOOOOOOOOOOOOOOOOOOOOOOOOOOOOOOOOOOOOOOOOOOO",
"OOOOOOOOOOOOOOOOOOOOOOOOOOOOOOOOOOOOOOOOOOOOOOOOOOOOOOOOOOOOOOOOOOOOOOOOOOOOOOOOOOOOOOOOOOOOOOOOOOOOOOO",
"OOOOOOOOOOOOOOOOOOOOOOOOOOOOOOOOOOOOOOOOOOOOOOOOOOOOOOOOOOOOOOOOOOOOOOOOOOOOOOOOOOOOOOOOOOOOOOOOOOOOOOO",
"OOOOOOOOOOOOOOOOOOOOOOOOOOOOOOOOOOOOOOOOOOOOOOOOOOOOOOOOOOOOOOOOOOOOOOOOOOOOOOOOOOOOOOOOOOOOOOOOOOOOOOO",
"OOOOOOOOOOOOOOOOOOOOOOOOOOOOOOOOOOOOOOOOOO OOOOOOOOOOOOOOOOOOOOOOOOOOOOOOOOOOOOOOOOOOOOOOOOOOOOOOOOOOOO",
"OOOOOOOOOOOOOOOOOOOOOOOOOOOOOOOOOOOOOOOOOO  OOOOOOOOOOOOOOOOOOOOOOOOOOOOOOOOOOOOOOOOOOOOOOOOOOOOOOOOOOO",
"OOOOOOOOOOOOOOOOOOOOOOOOOOOOOOOOOOOOOOOOOO  OOOOOOOOOOOOOOOOOOOOOOOOOOOOOOOOOOOOOOOOOOOOOOOOOOOOOOOOOOO",
"OOOOOOOOOOOOOOOOOOOO OOOOOOOOOOOOOOOOOOOOOOX OOOOOOOOOOOOOOOOOOOOOOOOOOOOOOOOOOOOOOOOOOOOOOOOOOOOOOOOOO",
"OOOOOOOOOOOOOOOOOOOOOOOOOOOOOOOOOOOOOOOOOOXX OOOOOOOOOOOOOOOOOOOOOOOOOOOOOOOOOOOOOOOOOOOOOOOOOOOOOOOOOO",
"OOOOOOOOOOOOOOOOOOOO OOOOOOOOOOOOOOOOOOOOOOOOO   OOOOOOOOOOOOOOOOOOOOOOOOOOOOOOOOOOOOOOOOOOOOOOOOOOOOOO",
"OOOOOOOOOOOOOOOOOOOOOOOOOO OOOOOOOOOOOOOOOOOOOO  OOOOO  OOOOOOOOOOOOOOOOOOOOOOOOOOOOOOOOOOOOOOOOOOOOOOO",
"OOOOOOOOOOOOOOOOO   OOOOOOOOOOOOOOOOOOOOOOOOOOOOO OOOOO  OOOOOOOOOOOOOOOOOOOOOOOOOOOOOOOOOOOOOOOOOOOOOO",
"OOOOOOOOOOOOOOOOOO XOOOOOOOOOOOOOOOOOOOOOOOOOOOO  OO OO  OO    OOOOOOOOOOOOOOOOOOOOOOOOOOOOOOOOOOOOOOOO",
"OOOOOOOOOOOOOO  OOOO OO  OO  OOOOOOOOO   OOOOOOOOO  OOOOO  ...X.   OOOOOOOOOOOOOOOOOOOOOOOOOOOOOOOOOOOO",
"OOOOOOOOOOOOOO   O XX O  OOOOOO   OOOOOOOOOOO         OOOOOO .XXXXX OOOOOOOOOOOOOOOOOOOOOOOOOOOOOOOOOOO",
"OOOOOOOOOOOOOO  O .o. O  OOOO  o.  OOOOOOOOOOO  OO   OOO  OO  .XXXX  OOOOOO OOOOOOOOOOOOOOOOOOOOOOOOOOO",
"OOOOOOOOOOOOOOOOOO .OOOOOOO  Xo. OOOOOOOO OOOOOOOOOOOOOOOOO    .    OOOOOOOOOOOOOOOOOOOOOOOOOOOOOOOOOOO",
"OOOOOOOOOOOOOOOOOO .OO OOOO  .. OOO    OO OOOOOOOOOOOOO           OOOOO  OOOOOOOOOOOOOOOOOOOOOOOOOOOOOO",
"OOOOOOOO OOOOOOOO   O OO  ..  O    .Xo.  OOOOOOOOOOOOOOO    OOO  OO   OOOOOOOOOOOOOOOOOOOOOOOOOOOOOOOOO",
"OOOOOOOOOOOOOOOO  O OOOO.XoX OO ...oooX  OOOO  OOOOOOOOOOOO  OOO OO   OOOOOOOOOOOOOOOOOOOOOOOOOOOOOOOOO",
"OOOOOOOOOOOOOOOOO  O   O .....    OXoo. OOOOOO  OO OOOOOOOOO   OOOOOOOOOO  OOOOOO  OOOOOOOOOOOOOOOOOOOO",
"OOOOOOOO OOOOOOOO  O . OO .XX. OO  .XX   OOO OOOOOOOOOOOOOOOOO OOOOOOO OOOOOOOO OOOOO  OOOOOOOOOOOOOOOO",
"OOOOOOOOOOOOO OOOOOO.X OO.Xoo. OO     OOOOOOOOOOOOOOOOOOOOOO O O OOOOOOOOOOOOOOOOOOOO   OOOOOOOOOOOOOOO",
"OOOOOOOOOOOOOOOOOOOOX. O XooX  OOOOOOOOOOOOOOOO  OOOOOOOOOOOOOOOOOO  OOOOOOOOOOOOOOOO .X. OOOOOOOOOOOOO",
"OOOOOOOOOOOOOOOOOOOO. OOOXoXX OOOO OOOOOOOOOOO  OOOOOOOOOOOOOOOOOOOO OOOOOOOOOOOOOOOOO.X. OOOOOOOOOOOOO",
"OOOOOOOOOOOOO OOOOO   O  XXX O  OO OOOOOO OOOOOOOOOOOOOOOOOOOOOOOOOOO OOOOOOOOOOOOOOOO  . OOOOOOOOOOOOO",
"OOOOOOOOOOO  OOOOOO OOOO .X O  OO OOOO  OOOOOOOOOOOOOOOOOOOOOOOOOOOOOOOOOOOOOOOOOOOOOOO . OOOOOOOOOOOOO",
"OOOOOOO  OOOOOOOOOOO       OOOOOO    OOOOOOOOOOOOOOOOOOOOOOOOOOOOOOOOOOO OOOOOOOOOOOOOOO   OOOOOOOOOOOO",
"OOOOOOO  OOOO OOOOOO    O  OOOOO    OOOOOOOOOOOOOOOOOOOOOOOOOOOOOOOOOOOOOOOOOOOOOO OOOOOOOOOOOOOOOOOOOO",
"OOOOOO   OOOOOOOOOOO  OOOOOOOOOO    OOOOOOOOOOOOOOOOOOOOOOOOOOOOOOOOOOOOOOOOOOOOOOOOOOOOOOO OOOOOOOOOOO",
"OOOOO XX OO  OOOOOOO OO OOOOOOOOOOOOOOOOOOOOOOOOOOOOOOOOOOOOOOOOOOOOOOOOOOOOOOOOOOOOO OOOOOOOO OOOOOOOO",
"OOOOO XX OO  OO OOOOOOO OOOOOOO   OOOOOOOOOOOOOOOOOOOOOOOOOOOOOOOOOOOOOOOOOOOOOOOO OOOOOOOOOOOOOOOOOOOO",
"OOOO  XX OO OOOOOOOOOOOOOOOO  O  OOOOOOOOOOOOOOOOOOOOOOOOOOOOOOOOOOOOOOOOOOOOOOOOO OOOOOOO OOOOOOOOOOOO",
"OO O  ..   OO OOOOO OOOOOOOO  O OOOOOOOOOOOOOOOOOOOOOOOOOOOOOOOOOOOOOOOOOOOOOOOOOOO     OO  OOOOOOOOOOO",
"OOOO .XXX  OOOOO OO OOO  OOOOOOOOOOOOOOOOOOOOOOOOOOOOOOOOOOOOOOOOOOOOOOOOOOOOOOOOOOOOO X OOOOOOOOOOOOOO",
"OOOOO XoX  OOOOOOOOOOO  OOOOOOOOOOOOOOOOOOOOOOOOOOOOOOOOOOOOOOOOOOOOOOOOOOOOO OOOOOOOOO  O OO OOOOOOOOO",
"OOOOO .XX OOOOO O OOOO  OOOOOOO OOOOOOOOOOOOOOOOOOOOOOOOOOOOOOOOOOOOOOOOOOOOOOOOOOOOOOO  OO OO  OOOOOOO",
"OOOOOO    OO O OOOOOOOOO OOOOOOOOOOOOOOOOOOOOOOOOOOOOOOOOOOOOOOOOOOOOOOOOOOOOOOOOOOOOOOO OOOO   OOOOOOO",
"OOOOOO  O OOOOOOOOOO OO OOOOOOOOOOOOOOOOOOOOOOOOOOOOOOOOOOOOOOOOOOOOOOOOOOOOOOOOOOOOOOOOOOOOOO   OOOOOO",
"OOOOO OOOOOOO  OOOO  O  OOOO OOOOOOOOOOOOOOOOOOOOOOOOOOOOOOOOOOOOOOOOOOOOOOOOOOOOOOOOOOOOOOOOO XX OOOOO",
"OOOOO OOOO OO  OOOO O   OOO OOOOOOOOOOOOOOOOOOOOOOOOOOOOOOOOOOOOOOOOOOOOOOOOOOOOOOOOOOOOO  OOO XX OOOOO",
"  OO OOOO   OOOOO  O  O OOOOOOOOOOOOOOOOOOOOOOOOOOOOOOOOOOOOOOOOOOOOOOOOOOOOOOOOOOOOOOOOOOOOOO XX  OOOO",
" OO   OOO   OOOOO  O O  OOOOOOOOOOOOOOOOOOOOOOOOOOOOOOOOOOOOOOOOOOOOOOOOOOOOOOOOOOOOOOOOOOOO   ..  O OO",
"OOO   OOO O OOO O  OOO OOO OOOOOOOOOOOOOOOOOOOOOOOOOOOOOOOOOOOOOOOOOOOOOOOOOOOOOOOOOOOOOOOOO  XXX. OOOO",
"OOO   OOO  OOO   .  OOOOOOOOOOOOOOOOOOOOOOOOOOOOOOOOOOOOOOOOOOOOOOOOOOOOOOOOOOOOOOOOOOOOOOOOO XoX OOOOO",
"OOO   OOOO  OO  ..  OOOOOO OOOOOOOOOOOOOOOOOOOOOOOOOOOOOOOOOOOOOOOOOOOOOOOOOOOOOOOOOOOOOOOOOOOXX. OOOOO",
"OOOO   OOOOOOO  .X. OOOOOOOOOOOOOOOOOOOOOOOOOOOOOOOOOOOOOOOOOOOOOOOOOOOOOOOOOOOOOOOOOOOOO OOOO   OOOOOO",
"OOOOO OOOOO  OO  XX. OOOOOOOOOOOOOOOOOOOOOOOOOOOOOOOOOOOOOOOOOOOOOOOOOOOOOOOOOOOOOOOOOOOOO OOOO  OOOOOO",
"OOOOOOOOOO    OO XX. OO OOOOOOOOOOOOOOOOOOOOOOOOOOOOOOOOOOOOOOOOOOOOOOOOOOOOOOOOOOOOOOOOOO  OOOOO OOOOO",
"OOOOOOOOOO .. OO .X. O  OOOOOOOOOOOOOOOOOOOOOOOOOOOOOOOOOOOOOOOOOOOOOOOOOOOOOOOOOOOOOOOOOO   OOOO OOOOO",
"OOOOOOOOOO .X ....X.OO  OOOOOOOOOOOOOOOOOOOOOOOOOOOOOOOOOOOOOOOOOOOOOOOOOOOOOOOOOOOOOOOOOOOO  OOOO OO  ",
"OOOOOOOOO  .XXXX....OOOOOOOOOOOOOOOOOOOOOOOOOOOOOOOOOOOOOOOOOOOOOOOOOOOOOOOOOOOOOO OOOOOOOOO  OOO   OO ",
"OOOOOOOOO  .XXXX..XX OOO OOOOOOOOOOOOOOOOOOOOOOOOOOOOOOOOOOOOOOOOOOOOOOOOOOOOOOOO  OOOOO  OO  OOO   OOO",
"OOOOOOOOO  .X.....XX   OOOOOOOOOOOOOOOOOOOOOOOOOOOOOOOOOOOOOOOOOOOOOOOOOOOOOOO OOOOOOOOO  OO  OOO   OOO",
"OOOO .  O    X.     O   OOOOOOOOOOOOOOOOOOOOOOOOOOOOOOOOOOOOOOOOOOOOOOOOOOOOOOOO  OOOOOO OOO OOOO   OOO",
"OOOO.X.  O    .  OO OO  OOOOOOOOOOOOOOOOOOOOOOOOOOOOOOOOOOOOOOOOOOOOOOOOOOOOOOOO  OOOOOOOOOOOOOO   OOOO",
"OOOO.XX     . X.  OO OOOOOO OOOOOOOOOOOOOOOOOOOOOOOOOOOOOOOOOOOOOOOOOOOOOOOOO O . OOOOOOO OOOOOOO OOOOO",
"OOO .XX O  XX X. OOO OOOOOOOOOOOOOOOOOOOOOOOOOOOOOOOOOOOOOOOOOOOOOOOOOOOOOOOOOO .OOOOOOOO OOOOOOOOOOOOO",
"OOOO.XX O  .X O . OOOO OOOOOOOOOOOOOOOOOOOOOOOOOOOOOOOOOOOOOOOOOOOOOOOOOOOOOOO   OOOOOOO  OOOOOOOOOOOOO",
"OOOO .. OO .  O   OOOOOOOOOOOOOOOOOOOOOOOOOOOOOOOOOOOOOOOOOOOOOOOOOOOOOOOOOOOOO OOOO   O  OO OOOOOOOOOO",
"OOOO .. O OO OOOO  OOOOOOOOOOOOOOOOOOOOOOOOOOOOOOOOOOOOOOOOOOOOOOOOOOOOOOOOOOOOOOOOO . O  OO  OOOOOOOOO",
"OOOOO .. OOOOOOOOO O  OOOOOOOOOOOOOOOOOOOOOOOOOOOOOOOOOOOOOOOOOOOOOOOOOOOOOOOOOOOOOO  OO      OOOOOOOOO",
"OOOOO  X OOOO OOOO   .O OOOOOOOOOOOOOOOOOOOOOOOOOOOOOOOOOOOOOOOOOOOOOOOOOOOOOOOOOOO  OOO  .   OOOOOOOOO",
"OO OOO .   OOOOOOO  .X OOOOOOOOOOOOOOOOOOOOOOOOOOOOOOOOOOOOOOOOOOOOOOOOOOOOOOOOO O   OOO .X.  O  . OOOO",
"OOOOOOO    OOO  OOOO    OO OOOOOOOOOOOOOOOOOOOOOOOOOOOOOOOOOOOOOOOOOOOOOOOOOOO OOO . OO  XX. O  .X.OOOO",
"OOO OOO    OOOO   OOOO  OO OOOOOOOOOOOOOOOOOOOOOOOOOOOOOOOOOOOOOOOOOOOOOOOOOOOOOOO XX  O XX.    XX.OOOO",
"OOOOOOOO   OOOO    OOOOOOOOO OOOOOOOOOOOOOOOOOOOOOOOOOOOOOOOOOOOOOOOOOOOOOOOOOOOOO X.  O XX.  O XX. OOO",
"OOOO OOO ..     .XOOOOOOOOOOOOOOOOOOOOOOOOOOOOOOOOOOOOOOOOOOOOOOOOOOOOOOOOOOOOOO O  . OO ..   O XX.OOOO",
"OOOO  OOO . O   .. OOOOOOOOOOOOOOOOOOOOOOOOOOOOOOOOOOOOOOOOOOOOOOOOOOOOOOOOOOOOOOOO OOOO ..  OO .. OOOO",
"OOOO  O   .  OO  . OOOOOOOOOOOOOOOOOOOOOOOOOOOOOOOOOOOOOOOOOOOOOOOOOOOOOOOOOO OOOOOOOOO .. OO O .. OOOO",
"OOOO .       OOO  OO OOO  OOOOOOOOOOOOOOOOOOOOOOOOOOOOOOOOOOOOOOOOOOOOOOOO.   OOOO OOOO X  OOO .. OOOOO",
"OOOOO.XX OOOOOOOOOOOO OO   OOOOOOOOOOOOOOOOOOOOOOOOOOOOOOOOOOOOOOOOOOOOOO X.  OOOOOOOO  . OOO  X  OOOOO",
"OOOOO .X. OOOOOOOOOOO OO OOOOOOOOOOOOOOOOOOOOOOOOOOOOOOOOOOOOOOOOOOOO OO    OOOO  OOOO   OOO   . OOO OO",
"OOOOO  ..  OOO OOOOOOOO   OO OOOOOOOOOOOOOOOOOOOOOOOOOOOOOOOOOOOOOOOO OO  OOOOO  OOOO    OOO    OOOOOOO",
"OOOOOO     OOO  O   OOOO . OO     OOOOOOOOOOOOOOOOOOOOOOOOOOOOOOOOO OOOOOOOOO    OOOO   OOOO    OOO OOO",
"OOOOOO  O  OOOO OO   OOO .  O      OOOOOOOOOOOOOOOOOOOOOOOOOOOOOOOOOOOOOOOOOOOX.     .. OOO    OOOOOOOO",
"OOOOOOOOOOOOOOO OOOOOOO O X   .X.    O OOOOOOOOOOOOOOOOOOOOOOOOOOOOOOOOOOOOOO ..   O . OOO  .. OOO OOOO",
"O OOOO O  OO  OOOOOOOOOOO    ..XXXX. OOOOOOOOOOOOOOOOOOOOOOOOOOOOOOOOOOOOOOOO .  OO  .   O  . OOO  OOOO",
"OO  OO  O      OOOOOOO   OOOO          OOOOOOOOOOOOOOOOOOOOOOOOOOOOOOOOOOOO OO  OOO       . OOOOOOOOOOO",
"OOO OO  OO  O  OOOOOOO    OOO.X .  OOO  OOOOOOOOOO  OOOOOOOOOOOOOOOOOOOOOO OOOOOOOOOOOO XX.OOOOOOOOOOOO",
"OOOOO O     OO OOOOOOOO   OOO . X.  OOO    OOOOOOO  O   OOOOOOOOOOOOOOO OO OOOOOOOOOOO .X. OOOOOOOOOOOO",
"OOOOOOOO      O  OOOOOOOOO OOOO             OOOOOOOOO    O OOOOOOOO OO   OOOOOOOO OOO  ..  OOOOOOOOOOOO",
"OOOOOOOOOOOO   O  OOOOOOOOOOOOO    .    OOOOOOOOO   OOOOOOOOOO     OO . OOOO   O  OOO     OOOOOOOOOOOOO",
"OOOOOOOOOOOOOO   OO  OOOOOOOOOO XXXX.  OO  OOOOOO   OOOOOOOOO   .  O  . OOO   OOOOOOO  O  OOOOOOOOOOOOO",
"OOOOOOOOOOOOOOOO   OO   OOOOOOO XXXXX. OOOOOOOOOOOOOOOOOOOOO   .X.   X O OOOOOOOOOOOOOOOOOOOOOOOOOOOOOO",
"OOOOOOOOOOOOOOOOOOOOOOOO  OOOOOO   .X...  OOOOOOOOOOOOOO  O .XXXX..    OOOOOOOOOOO  OO  OOOOOOOOOOOOOOO",
"OOOOOOOOOOOOOOOOOOOOOOOOOOO OOOOOOOO    OO  OOOOOOOOOOO    O       OOOO   OOOOOOO      OOOOOOOOOOOOOOOO",
"OOOOOOOOOOOOOOOOOOOOOOOOOOOOOOOOOOOOOOOOOO  OOOOOOOOOOOOOOOOO  .XX.OOO    OOOOOOO  O  OOOOOOOOOOOOOOOOO",
"OOOOOOOOOOOOOOOOOOOOOOOOOOOOOOOOOOOOOOOOOOO OOOOOOOOOOOOOOOO  .XX. OOO   OOOOOOOO OOOOOOOOOOOOOOOOOOOOO",
"OOOOOOOOOOOOOOOOOOOOOOOOOOOOOOOOOOOOOOOOOOOOOOOOOOOOOOOOOOOOOO   OOOO OOOOOOOOOOOOOOOOOOOOOOOOOOOOOOOOO",
"OOOOOOOOOOOOOOOOOOOOOOOOOOOOOOOOOOOOOOOOOOOOOOOOOOOOOOOOOOOOOOOOOOOOOOOOOOOOOOOOOOOOOOOOOOOOOOOOOOOOOOO",
"OOOOOOOOOOOOOOOOOOOOOOOOOOOOOOOOOOOOOOO   OO  OOOOOOOOOOO    O   .XXOOOOOOOOOOOOOOOOOOOOOOOOOOOOOOOOOOO",
"OOOOOOOOOOOOOOOOOOOOOOOOOOOOOOOOOOOOOOOOOOOO  OOOOOOOOOOOOOOOOO OOOOOOOOOOOOOOOOOOOOOOOOOOOOOOOOOOOOOOO",
"OOOOOOOOOOOOOOOOOOOOOOOOOOOOOOOOOOOOOOOOOOOOO OOOOOOOOOOOOOOOOOOOOOOOOOOOOOOOOOOOOOOOOOOOOOOOOOOOOOOOOO",
"OOOOOOOOOOOOOOOOOOOOOOOOOOOOOOOOOOOOOOOOOOOOOOOOOOOOOOOOOOOOOOOOOOOOOOOOOOOOOOOOOOOOOOOOOOOOOOOOOOOOOOO",
"OOOOOOOOOOOOOOOOOOOOOOOOOOOOOOOOOOOOOOOOOOOOOOOOOOOOOOOOOOOOOOOOOOOOOOOOOOOOOOOOOOOOOOOOOOOOOOOOOOOOOOO",
"OOOOOOOOOOOOOOOOOOOOOOOOOOOOOOOOOOOOOOOOOOOOOOOOOOOOOOOOOOOOOOOOOOOOOOOOOOOOOOOOOOOOOOOOOOOOOOOOOOOOOOO",
"OOOOOOOOOOOOOOOOOOOOOOOOOOOOOOOOOOOOOOOOOOOOOOOOOOOOOOOOOOOOOOOOOOOOOOOOOOOOOOOOOOOOOOOOOOOOOOOOOOOOOOO",
"OOOOOOOOOOOOOOOOOOOOOOOOOOOOOOOOOOOOOOOOOOOOOOOOOOOOOOOOOOOOOOOOOOOOOOOOOOOOOOOOOOOOOOOOOOOOOOOOOOOOOOO",
"OOOOOOOOOOOOOOOOOOOOOOOOOOOOOOOOOOOOOOOOOOOOOOOOOOOOOOOOOOOOOOOOOOOOOOOOOOOOOOOOOOOOOOOOOOOOOOOOOOOOOOO",
"OOOOOOOOOOOOOOOOOOOOOOOOOOOOOOOOOOOOOOOOOOOOOOOOOOOOOOOOOOOOOOOOOOOOOOOOOOOOOOOOOOOOOOOOOOOOOOOOOOOOOOO",
"OOOOOOOOOOOOOOOOOOOOOOOOOOOOOOOOOOOOOOOOOOOOOOOOOOOOOOOOOOOOOOOOOOOOOOOOOOOOOOOOOOOOOOOOOOOOOOOOOOOOOOO",
"OOOOOOOOOOOOOOOOOOOOOOOOOOOOOOOOOOOOOOOOOOOOOOOOOOOOOOOOOOOOOOOOOOOOOOOOOOOOOOOOOOOOOOOOOOOOOOOOOOOOOOO"
};
