/* XPM */
static char *result[] = {
/* columns rows colors chars-per-pixel */
"88 88 16 1 ",
"  c #430000",
". c #470000",
"X c #4F0000",
"o c #5B0000",
"O c #670000",
"+ c #730000",
"@ c #7F0000",
"# c #8B0000",
"$ c #9B0000",
"% c #A70000",
"& c #B30000",
"* c #BF0000",
"= c #CB0000",
"- c #D70000",
"; c #EF0000",
": c none",
/* pixels */
"::::::::::::::::::::::::::::::::::::::::::::::::::::::::::::::::::::::::::::::::::::::::",
"::::::::::::::::::::::::::::::::::::::::::::::::::::::::::::::::::::::::::::::::::::::::",
"::::::::::::::::::::::::::::::::::::::::::::::::::::::::::::::::::::::::::::::::::::::::",
"::::::::::::::::::::::::::::::::::::::::::::::::::::::::::::::::::::::::::::::::::::::::",
"::::::::::::::::::::::::::::::::::::::::::::::::::::::::::::::::::::::::::::::::::::::::",
"::::::::::::::::::::::::::::::::::::::::::::::::::::::::::::::::::::::::::::::::::::::::",
"::::::::::::::::::::::::::::::::::::::::::::::::::::::::::::::::::::::::::::::::::::::::",
":::::::::::::::::::::::::::::::::: OOO    ::::::::::::::::::::::::::::::::::::::::::::::",
":::::::::::::::::::::::: OO ::: OOO ::.XOOOOOO   :::::::::::::::::::::::::::::::::::::::",
"::::::::::::::::::::::::   ::  OO ::  ##@@+O oO ::::: :    :::::::::::::::::::::::::::::",
":::::::::::::::::::::::::::    ::  .XOOO#%&%#OoOo     :::::   ::::::::::::::::::::::::::",
"::::::::::::::::::::::::::::: ::::   .XX@$%$$#oOo        :::    ::::::::::::::::::::::::",
"::::::::::::::::::::                .ooooXOOO+@OX  ::::       Xo  ::::::::::::::::::::::",
"::::::::::::::::::   o  oOOOOo .oOOooO++OoXXoO@@OOO  :::::  ::: Oo::::::::::::::::::::::",
"::::::::::::::::: +++OO+$%%$%++@@@@+OO@##@o   ###@@##OO       ::OO :::::::::::::::::::::",
":::::::::::::::: o$+O+@#&%$$#OO#@+OX oO@#@@oXXO##+O@#@O  o: ::  XO :   :::::::::::::::::",
"::::::::::::  :: o+++@##%##@OOO++Oo.  oO@@ooooooOOoO@#@    o  :: X  : : ::::::::::::::::",
":::::::::  +#OoX.: o+@#$$%%$#@@$$#@++oO#XXo  X  X.XXoooX .  :   :  o :   : :::::::::::::",
"::::::::: X@#ooo: +ooO$%@@##$$%%%$$##O@@Ooooooooo    XoXX X      : XOoOo   :::::::::::::",
":::::::: XO :X#OXXX: oOOo@$%%*===&%%$$$$$$%%%$@@@@@+Oo.XO+OX Xoo    @+O.oOX ::::::::::::",
":::::::: o+ :X+OoX::Xoo +@$$%*====*&%%%%%&**&&#@#$%$#+OO@@+O .o+OX  Oo :: :  :::::::::::",
"::::::: .:   OOO    .X:.+@@@$*===---===*==&%$#@@#%&&*&##+%#@oX  o.XXoX   ::   ::::::::::",
":::::::  :  O$#O: X ::.X+@+@$&==-------===%$@@+##$$$&%%&####OX  ..XO++O . ::   :::::::::",
":::::::  :  @@Oooo   XO+##@#$%&==-----===*%$+OOOOoXOO+@@+#$*@O XX. o@@##+oX::  :::::::::",
":::::::  :  OOXoXX. Xo+####$%%%&*=--==***&%$+@OooXXXXOO+O@#$+o.XoX  +##$#@+    :::::::::",
":::::::: X:XoX o  oooo#$@#$%%#@@$&**&%$$@@++O+O@+OOOo oOO@@#@OX OO  XO@$$$$+X ::::::::::",
"::::::::::XXX  o o++oo#$##$%$++@#%%%$#@@@+OoXo@%%OO@+.  O@+@@OX O+X  X+#$$%#O ::::::::::",
":::::::::XXXX XXoO@@oo@###$%$++++%%$#@@@@+oX..O++OO@%oX .O+@+OX O@O   o##$%$+  :::::::::",
"::::X::XX:X :Xoo+@$@ooOO+#$@+oo+@$$@@@$$$$oXooooo XoO+Ooooo@@OX o@@    O#$$$+X : :::::::",
":::X::XXXXX::Xoo@##@ooOo+@#+O.o+@$#@@#%$@+.o@@++oX Xo###@@+oOOo XOO :  X+#$#+X    ::::::",
"::X:XX:oXXX:XoO+@@@+o..o+@+Oo..+@$#@$%$@..XXooooooX  X+####O XX Xoo   : X@++OX    ::::::",
"::XX::X+oX. o@$@##@+XXXo@@+oX..+@$$$%%@+ oo   o  XX  .X@#+#@ ..  XX::  : +@+oX    ::::::",
"::X+@:X#+o. +###&&#@oooo@@+oO++++@#$@+O@+#@@&&+O.       XX@#o    . ..::  O+++OX: :  ::::",
"::XO+:XOOOXo@##$**#@OOo+@@+OO@@+++@+OooOOo+$&&#o..        o#o      .X::X:XO+@OX ::  ::::",
":::XXoXXO#++@#$&**$##O+@@+++@$#oo++.  : :.XO++      :  ::  oX ..    ::::XXXO#@OX ::  :::",
"::::XXX:O$@+@#$&**$#@X+@@+o+@$@.oOO     : ..XX  : : :: ::  X   .    ::::XXXO@#+o  :  :::",
"::::::X:.#$++#$&*&#@+OO@$++@@@@+oXX..:::::        :  ::::::  oOo   :::::XXXo+#@oo :: :::",
"::X:::XXX#$++#&**&@OOOO@$@@@@@@+o .XX ::::   : ::  :  ::::: oO+O   : ::::XX O@+Oo :: :::",
":::X: XXX##OO#&**&@oOo+#$#@@@@#@+oXXX.::::   :::::::: ::::::oO@+ X : :X:: XXoO++o :: :::",
":::X:X XX+@OO@$&*&@@Oo+@%%$$%%%@@++O :::::    ::::::: ::::::o+@@ OOXO: X: XOXXo#+X : :::",
"X:XXX X XO+OO+#&*&@#OoO+%&$$%%%#@+@O :::: O+  :::::::   ::::O@@+ O+oO@ X:Xo+O o@+o : :::",
"XXXXX: XX.ooXo+#$#@@Oo@@$%%%&%%$#@#@  ::  ##+.:  :::::  :  X@@+OO@@+O##+oo+#+  OOo   :::",
":XXXo:X:o.XXXXO@#@@+XX@@#$%&*&%$#@#@X ::  ###+X: :::::: : Xo@@+OO@@O+#$#Oo@$+ oOoX :  ::",
":X:XoOOX:: . XXO@@+OX O@@#$&**&%$@#$+ :   +###O  :::::::: o+@@+o@#+O#%&%$+##+ o   ::  ::",
":::XX##XX:::: Xo@@+OX.O@@@#%&*&%$@#$+  :: XO+$X  ::::::::.o+@#OO@#OO$%*&%#$#+ o   ::  ::",
"::::X+#OXO ::.XX@$+@O.XO@#@#$%%%%##$@o ::      ::::: ::: o+@@+OO++O@$%*&%$$+X.  :  :: ::",
"::X::O++OO$::.ooO@+Oo Xo###$$$$$$@@$#O ::        ::::::: O@#@+OOOO@$$$%%%$#+X..X:  :::::",
":X:XXXXXX:@ :oOOooooX  Xo+@$$@+++OO$$@XX::   ::::::::::  O+@+OoooO$%$####@+O++X X   : ::",
":X:XX:: XXO  O++oo+O. ::Xo+@@+OooXo#$$oX:::      ::::::   +@+OX O+%%#@+++@OXO+o X     ::",
"::::X::  XX :O@@OoO@. :: .o++Oo....@#$OO::::  :::::::::::o++Oo XO@%*#OoO@@o o++  :    ::",
":::::XX  ::O O@@Oo.Oo. :::  :  :::.XOOo XX:: X     ::::  O@oXXOO#$%%O. o@#+.X##   :  :::",
":::::     :  O@#+oo.o. :::: :: ::.:X XXXOOXXXO    :::::  XOXoO##$&%%OX X+@+X ##   :     ",
"::::::  :    O@#@@X ... :::::  :: XXX .: OOoXOOX       .o o+$%***=&$o. o+$#OX++.  ::   :",
"::::::   : : +@$$$OX... ::::: o ::XoOo :.X+XXO@Oo      O++#%*=;=%%*%OX.+@%%@ooO.  :   ::",
"::::::: :    o+@$$@O .: o+o  X@XX  O++o ::::XO###OOXXO+%%&&=--=-#+$$o X@#&&@O  :XX.   ::",
":::::: ::  X X+###@+X.::ooo..XO+o :XOOO ::::Xo@##+OOO@#-&%%%%*-=@o#+XX+@$%&@O :::X..  ::",
"::::::   .X+++@###++XX :..o#OoXo++++OOXX:::::: X:OO@#@@OO++@&%%$+Ooo+@##$%%OX ::: oOoo: ",
"::::::X  .o@@@#$##+oXX: :..OOO+#####@OXX::.:  XX oOOOOOOO+@$$$#%+Ooo@#@$$%$oX ::: OOoO  ",
"::::::XXX@@#@###@@@+ooOX XX..O+####$#@X ::  oO@O+@#OO  oo++OooOOoo+@@@@@##@X :::  @@OO  ",
"::::::::X@@XX###@@@@+oooooo .O+######@XX  :oOO@+#@OO XXXXX....o.XO@@@++@#@+X :X::X@#OO  ",
"::::::::XXXXX@##@@@@++oooooXXo+####@++OOoXXooOO++o XoOOXX       o+@+++O+#@+X ::: .@$OX  ",
"::::::::::XX@X@+oo@@ooo:::XXX  +++oXXXO+@@++OOoOOOO+++OX   .OO..O+Ooo+$#@OX XX .XoO@  ::",
":::::::::::XXX@@Xo++ooooX::X    oXX  XXO@@@@++@@@#@@@OOXX   O@X.oOXX+$%#+oX  XXX..XX: ::",
":::::::::::::X:XXXXoooX X: ::           XXoO@@@##@@OoooooX   XXXXO$#&&%@+X : :XXXXX:::::",
"::::::::::::::XXXXXXXXXXX:: :            XOOOO@@@+OOoooooo  XX Xo+$$&$@OoX :::XX::::::::",
"::::::::::::::::XXX:X: XXX::   X        XoOO+OOOoooOOOO+ooooXX X+$$$o XXX  X::XX::::::::",
"::::::::::::::::XXXXX:XX::X:  o@@O         OOOOoXoOOO+++OoOoXX  +#@O .XX :XXXXXX::::::::",
":::::::::::::::::XXXX XX::XX: X@##OO.    XXoO++++O+@##@@@++O  oooo    :: XXX::::::::::::",
":::::::::::::::::X::XX :::: :   oOo...XXXXoo@@###@@@@####@+oX ooX    :::XX::::::::::::::",
"::::::::::::::::::XX X  : :      XX     Xooo@##$$$$%&&&&$+oXO+oX  XX:::XX:::::::::::::::",
":::::::::::::::::::XXXX   :  : XXoo .   XXoo+##$$%&&&&&%#OXX+#+o XXX: XX::::::::::::::::",
":::::::::::::::::::XXXXX  :   XXXO+XOX    XXO++##%%%%&&#+X X+@@+  XXXX :::::::::::::::::",
":::::::::::::::::::: XXXX  oOX:XXXXOOXXXooo++oooO+++OOOXXXoo+ooX  ::::::::::::::::::::::",
":::::::::::::::::::::XXXXXXXXXXXXXXOXXX++@@@@+XXXXooXXXXXooooX  ::::::::::::::::::::::::",
":::::::::::::::::::::::::OXOOOXOOOOXXXXoooo+oX        XXooXX X::::::::::::::::::::::::::",
":::::::::::::::::::::::::OOXXOXXOXXOOXXXXXXXXXXXXXoXOXXXoX XX:::::::::::::::::::::::::::",
"::::::::::::::::::::::::::OOOOOOOOO:::OO+++++++XXXXXOO#####X::::::::::::::::::::::::::::",
"::::::::::::::::::::::::::::::OO:::::::XXOOOOOO+++++++O+++::::::::::::::::::::::::::::::",
":::::::::::::::::::::::::::::::::::::::::::::::::XXXOO::::::::::::::::::::::::::::::::::",
"::::::::::::::::::::::::::::::::::::::::::::::::::::::::::::::::::::::::::::::::::::::::",
"::::::::::::::::::::::::::::::::::::::::::::::::::::::::::::::::::::::::::::::::::::::::",
"::::::::::::::::::::::::::::::::::::::::::::::::::::::::::::::::::::::::::::::::::::::::",
"::::::::::::::::::::::::::::::::::::::::::::::::::::::::::::::::::::::::::::::::::::::::",
"::::::::::::::::::::::::::::::::::::::::::::::::::::::::::::::::::::::::::::::::::::::::",
"::::::::::::::::::::::::::::::::::::::::::::::::::::::::::::::::::::::::::::::::::::::::",
"::::::::::::::::::::::::::::::::::::::::::::::::::::::::::::::::::::::::::::::::::::::::",
"::::::::::::::::::::::::::::::::::::::::::::::::::::::::::::::::::::::::::::::::::::::::",
"::::::::::::::::::::::::::::::::::::::::::::::::::::::::::::::::::::::::::::::::::::::::"
};
