/* XPM */
static char *result[] = {
/* columns rows colors chars-per-pixel */
"70 70 71 1 ",
"  c #000001",
". c #070707",
"X c #170F07",
"o c #1F170B",
"O c #1B1B1B",
"+ c #2B230F",
"@ c #332B13",
"# c #3F2F17",
"$ c #3F2B1B",
"% c #373F27",
"& c #5B0000",
"* c #670000",
"= c #670B0B",
"- c #730000",
"; c #7F0000",
": c #43331B",
"> c #4B371B",
", c #533F1F",
"< c #732B00",
"1 c #5F4323",
"2 c #5B472B",
"3 c #574333",
"4 c #5F4B37",
"5 c #6B4727",
"6 c #774F2B",
"7 c #675333",
"8 c #67533F",
"9 c #775F3F",
"0 c #6F5743",
"q c #775F4B",
"w c #7B634F",
"e c #8B0000",
"r c #9B0000",
"t c #A70000",
"y c #B30000",
"u c #BF0000",
"i c #9B3333",
"p c #CB0000",
"a c #D70000",
"s c #E30000",
"d c #EF0000",
"f c red",
"g c #9B5B13",
"h c #AF4300",
"j c #B74700",
"k c #875733",
"l c #8F5F37",
"z c #9B633B",
"x c #A36B3F",
"c c #C34F00",
"v c #CB5707",
"b c #D75F0B",
"n c #DF670F",
"m c #EB6F0F",
"M c #F37317",
"N c #836B4B",
"B c #8F7753",
"V c #8B735B",
"C c #9B7F6B",
"Z c #FF8F3B",
"A c #9F8363",
"S c #9F876F",
"D c #AF977F",
"F c #D7BB43",
"G c #FFA35B",
"H c #F7AB7B",
"J c #EBDB57",
"K c none",
"L c #B79F87",
"P c #BFA78F",
"I c #FFCFB3",
/* pixels */
"KKKKKKKKKKKKKKKKKKKKKKKKKKKKKKKKKKKKKKKKKKKKKKKKKKKKKKKKKKKKKKKKKKKKKK",
"KKKKKKKKKKKKKKKKKKKKKKKKKKKKKKKKKKKKKKKKKKKKKKKKKKKKKKKKKKKKKKKKKKKKKK",
"KKKKKKKKKKKKKKKKKKKKKKKKKKKKKKKKKKKKKKKKKKKKKKKKKKKKKKKKKKKKKKKKKKKKKK",
"KKKKKKKKKKKKKKKKKKKKKKKKKKKKKKKKKKK;KKKKKKKKKKKKKKKKKKKKKKKKKKKKKKKKKK",
"KKKKKKKKKKKKKKKKKKKKKKKKKKKKK;KKKKKKKKKKKKKKKKKKKKKKKKKKKKKKKKKKKKKKKK",
"KKKKKKKKKKKKKKKKKKKKKKKKKKKKKKKKKK;K;KKKKKKKKKKKKKKKKKKKKKKKKKKKKKKKKK",
"KKKKKKKKKKKKKKKKKKKKKKKKKKKKKKKKKKKKKKKKKKKKKKKKKKKKKKKKKKKKKKKKKKKKKK",
"KKKKKKKKKKKKKKKKKKKKKKKKKKKKKKKKKKKKKKKKKKKKKKKKKKKKKKKKKKKKKKKKKKKKKK",
"KKKKKKKKKKKKKKKKKKKKKKKKKKKKK;KKKK;KKKKKKKKKKKKKKKKKKKKKKKKKKKKKKKKKKK",
"KKKKKKKKKKKKKKKKKKKKKKKKKKKKKKKKK;KK;KKKKKKKKKKKKKKKKKKKKKKKKKKKKKKKKK",
"KKKKKKKKKKKKKKKKKKKKKKKKKKKKKKKKKKKKKKKKKKKKKKKKKKKKKKKKKKKKKKKKKKKKKK",
"KKKKKKKKKKKKKKKKKKKKKKKKKKKKKKKKKK;K;KKKKKKKKKKKKKKKKKKKKKKKKKKKKKKKKK",
"KKKKKKKKKKKKKKKKKKKKKKKKKKKKKKKKKK;;;KKKKKKKKKKKKKKKKKKKKKKKKKKKKKKKKK",
"KKKKKKKKKKKKKKKKKKKKKKKKKKKKyKKKK;K;yKK;KKKKKKKKKKKKKKKKKKKKKKKKKKKKKK",
"KKKKKKKKKKKKKKKKKKKKKKKKKKKKyKKKKKKy;KK;KKKKKKKKKKKKKKKKKKKKKKKKKKKKKK",
"KKKKKKKKKKKKKKKKKKKKKKKKKKKr;KKKKeuy;KKK;KKKKKKKKKKKKKKKKKKKKKKKKKKKKK",
"KKKKKKKKKKKKKKKKKKKKKKKKKKKK;KKue;r;yKy;KKKKKKKKKKKKKKKKKKKKKKKKKKKKKK",
"KKKKKKKKKKKKKKKKKKKKKKKKKKKyr;KK;yy;;Ks;KKKKKKKKKKKKKKKKKKKKKKKKKKKKKK",
"KKKKKKKKKKKKKKKKKKKKKKKKKKK;y;Krtserr;s;;KKKKKKKKKKKKKKKKKKKKKKKKKKKKK",
"KKKKKKKKKKKKKKKKKKKKKKKKKar;usfuhhufsyyy;;KKKKKKKKKKKKKKKKKKKKKKKKKKKK",
"KKKKKKKKKKKKKKKKKKKKKKKKppr;rpasccsaprys;a;KKKKKKKKKKKKKKKKKKKKKKKKKKK",
"KKKKKKKKKKKKKKKKKKKKKKKtpurrttdvMMvdttrrKa;KKKKKKKKKKKKKKKKKKKKKKKKKKK",
"KKKKKKKKKKKKKKKKKKKKKKKyyr;tjspbFFbpspt;a;KKKKKKKKKKKKKKKKKKKKKKKKKKKK",
"KKKKKKKKKKKKKKKKKKKKKKKK;ytpbdbMJJMbdtvta;KKKKKKKKKKKKKKKKKKKKKKKKKKKK",
"KKKKKKKKKKKKKKKKKKKK38Kr;utaMdMZJJZMdnvtu;raaKKKKKKKKKKKKKKKKKKKKKKKKK",
"KKKKKKKKKKKKKKKKKKKK348r;vttdfMGJJGMnGntpjrvKaKKKKKKKKKKKKKKKKKKKKKKKK",
"KKKKKKKKKKKKKKKKKKKK88q8dMutddnGGGASDSZnzzamvaKKKKKKKKKKKKKKKKKKKKKKKK",
"KKKKKKKKKKKKKKKKKKKKK43qqVttddAGGLLLLLLSSSzvpKaKKKKKKKKKKKKKKKKKKKKKKK",
"KKKKKKKKKKKKKKKKKKKKK84q0wVCNNAASLLPLLPLDSSa7%aKKKKKKKKKKKKKKKKKKKKKKK",
"KKKKKKKKKKKKKKKKKKKKKKO400qw00lBASLPPPPPAAN72,%KKKKKKKKKKKKKKKKKKKKKKK",
"KKKKKKKKKKKKKKKKKKKKKKKO@4,11>>7BSPDDDDDBN71,,%KKKKKKKKKKKKKKKKKKKKKKK",
"KKKKKKKKKKKKKKKKKKKKKKKtOO@@@OO,BBN7,,7kBlkk9,@@KKKKKKKKKKKKKKKKKKKKKK",
"KKKKKKKKKKKKKKKKKKKKKKKt$OO@@@O17,####o+@##@@,%@KKKKKKKKKKKKKKKKKKKKKK",
"KKKKKKKKKKKKKKKKKKKKKKKK$$-aOO,,>&-->>@X,:..XX@:@KKKKKKKKKKKKKKKKKKKKK",
"KKKKKKKKKKKKKKKKKKKKKKK@t7e-,,N>><gJuu#,7oX--XX@:KKK3@KKKKKKKKKKKKKKKK",
"KKKKKKKKKKKKKKKKKKKKKKt;;gcy;1D1>;us==11oXX---oX@33:@@KKKKKKKKKKKKKKKK",
"KKKKKKKKKKKKKKKKKKKKKK+;uh;*11xBNNN7kB,.Xo@uJg-oo@@@3KKKKKKKKKKKKKKKKK",
"KKKKKKKKKKKKKKKKKKKKKK+o;;*,,,11,oXX>1+.X+,=su-o@@@3KKKKKKKKKKKKKKKKKK",
"KKKKKKKKKKKKKKKKKKKKKKytXy##@@#o.XX@79#.X.1@,,o@@@KKKKKKKKKKKKKKKKKKKK",
"KKKKKKKKKKKKKKKKKKKKKK@Xys*@XXXX.X@,9BAN7#ko.Xo#KKKKKKKKKKKKKKKKKKKKKK",
"KKKKKKKKKKKKKKKKKKKKKK@t;*e#XXXXX 171kk171N,@  XKKKKKKKKKKKKKKKKKKKKKK",
"KKKKKKKKKKKKKKKKKKKKKKyXt*XXX.XXXX+X zH ok@%,   KKKKKKKKKKKKKKKKKKKKKK",
"KKKKKKKKKKKKKKKKKKKKKKKyy;.@ XXX.X.X    XHz@@.XKKKKKKKKKKKKKKKKKKKKKKK",
"KKKKKKKKKKKKKKKKKKKKKKKK  +X XXXX.X  .....X@XXKKKKKKKKKKKKKKKKKKKKKKKK",
"KKKKKKKKKKKKKKKKKKKKKKKKKK;; X.....   .  .....KKKKKKKKKKKKKKKKKKKKKKKK",
"KKKKKKKKKKKKKKKKKKKKKKKKKKapi@,..H-   .. ...KKKKKKKKKKKKKKKKKKKKKKKKKK",
"KKKKKKKKKKKKKKKKKKKKKKKKKK s;;,,@y-       seKKKKKKKKKKKKKKKKKKKKKKKKKK",
"KKKKKKKKKKKKKKKKKKKKKKKKKK &y;i,,@.I-     uKKKKKKKKKKKKKKKKKKKKKKKKKKK",
"KKKKKKKKKKKKKKKKKKKKKKKKKKK &*#>,,@l-H- H-.KKKKKKKKKKKKKKKKKKKKKKKKKKK",
"KKKKKKKKKKKKKKKKKKKKKKKKKKKK+#>*-1k@@y- y- KKKKKKKKKKKKKKKKKKKKKKKKKKK",
"KKKKKKKKKKKKKKKKKKKKKKKKKKKKKK>,-6-1-kkkk,,KKKKKKKKKKKKKKKKKKKKKKKKKKK",
"KKKKKKKKKKKKKKKKKKKKKKKKKKKKKKK#,-ey-,,,,,KKKKKKKKKKKKKKKKKKKKKKKKKKKK",
"KKKKKKKKKKKKKKKKKKKKKKKKKKKKKKKK#####555>+KKKKKKKKKKKKKKKKKKKKKKKKKKKK",
"KKKKKKKKKKKKKKKKKKKKKKKKKKKKKKKKK        KKKKKKKKKKKKKKKKKKKKKKKKKKKKK",
"KKKKKKKKKKKKKKKKKKKKKKKKKKKKKKKKKKKKKKKKKKKKKKKKKKKKKKKKKKKKKKKKKKKKKK",
"KKKKKKKKKKKKKKKKKKKKKKKKKKKKKKKKKKKKKKKKKKKKKKKKKKKKKKKKKKKKKKKKKKKKKK",
"KKKKKKKKKKKKKKKKKKKKKKKKKKKKKKKKKKKKKKKKKKKKKKKKKKKKKKKKKKKKKKKKKKKKKK",
"KKKKKKKKKKKKKKKKKKKKKKKKKKKKKKKKKKKKKKKKKKKKKKKKKKKKKKKKKKKKKKKKKKKKKK",
"KKKKKKKKKKKKKKKKKKKKKKKKKKKKKKKKKKKKKKKKKKKKKKKKKKKKKKKKKKKKKKKKKKKKKK",
"KKKKKKKKKKKKKKKKKKKKKKKKKKKKKKKKKKKKKKKKKKKKKKKKKKKKKKKKKKKKKKKKKKKKKK",
"KKKKKKKKKKKKKKKKKKKKKKKKKKKKKKKKKKKKKKKKKKKKKKKKKKKKKKKKKKKKKKKKKKKKKK",
"KKKKKKKKKKKKKKKKKKKKKKKKKKKKKKKKKKKKKKKKKKKKKKKKKKKKKKKKKKKKKKKKKKKKKK",
"KKKKKKKKKKKKKKKKKKKKKKKKKKKKKKKKKKKKKKKKKKKKKKKKKKKKKKKKKKKKKKKKKKKKKK",
"KKKKKKKKKKKKKKKKKKKKKKKKKKKKKKKKKKKKKKKKKKKKKKKKKKKKKKKKKKKKKKKKKKKKKK",
"KKKKKKKKKKKKKKKKKKKKKKKKKKKKKKKKKKKKKKKKKKKKKKKKKKKKKKKKKKKKKKKKKKKKKK",
"KKKKKKKKKKKKKKKKKKKKKKKKKKKKKKKKKKKKKKKKKKKKKKKKKKKKKKKKKKKKKKKKKKKKKK",
"KKKKKKKKKKKKKKKKKKKKKKKKKKKKKKKKKKKKKKKKKKKKKKKKKKKKKKKKKKKKKKKKKKKKKK",
"KKKKKKKKKKKKKKKKKKKKKKKKKKKKKKKKKKKKKKKKKKKKKKKKKKKKKKKKKKKKKKKKKKKKKK",
"KKKKKKKKKKKKKKKKKKKKKKKKKKKKKKKKKKKKKKKKKKKKKKKKKKKKKKKKKKKKKKKKKKKKKK",
"KKKKKKKKKKKKKKKKKKKKKKKKKKKKKKKKKKKKKKKKKKKKKKKKKKKKKKKKKKKKKKKKKKKKKK"
};
