/* XPM */
static char *result[] = {
/* columns rows colors chars-per-pixel */
"70 70 94 2 ",
"   c #000001",
".  c #070707",
"X  c #170F07",
"o  c #1F170B",
"O  c #1B1B1B",
"+  c #17330F",
"@  c #2B230F",
"#  c #332B13",
"$  c #3F2F17",
"%  c #3F2B1B",
"&  c #373F27",
"*  c #430000",
"=  c #4F0000",
"-  c #5B0000",
";  c #5F0707",
":  c #670000",
">  c #670B0B",
",  c #6B0F0F",
"<  c #730000",
"1  c #7F0000",
"2  c #7F1B1B",
"3  c #43331B",
"4  c #4B371B",
"5  c #533F1F",
"6  c #473323",
"7  c #4F3B23",
"8  c #533F2F",
"9  c #5F4323",
"0  c #5B472B",
"q  c #474F33",
"w  c #574333",
"e  c #5F4B37",
"r  c #6B4727",
"t  c #774F2B",
"y  c #7F532F",
"u  c #675333",
"i  c #67533F",
"p  c #775F3F",
"a  c #6F5743",
"s  c #775F4B",
"d  c #5B6347",
"f  c #7B634F",
"g  c #7B7F63",
"h  c #8B0000",
"j  c #9B0000",
"k  c #A70000",
"l  c #B30000",
"z  c #BF0000",
"x  c #872300",
"c  c #932F00",
"v  c #9F3700",
"b  c #8F2B2B",
"n  c #972F2F",
"m  c #9B3333",
"M  c #CB0000",
"N  c #D70000",
"B  c #E30000",
"V  c #EF0000",
"C  c red",
"Z  c #FF3F3F",
"A  c #874307",
"S  c #9B5B13",
"D  c #AF4300",
"F  c #B74700",
"G  c #AF7B1F",
"H  c #875733",
"J  c #9B633B",
"K  c #CB5707",
"L  c #D75F0B",
"P  c #DF670F",
"I  c #F37317",
"U  c #FF7F1B",
"Y  c #836B4B",
"T  c #836B57",
"R  c #8F7753",
"E  c #8B735B",
"W  c #937B63",
"Q  c #9B7F6B",
"!  c #FF5F5F",
"~  c #FF7B7B",
"^  c #9F8363",
"/  c #9F876F",
"(  c #A78F77",
")  c #AF977F",
"_  c #FFA35B",
"`  c #F7AB7B",
"'  c #EBDB57",
"]  c #FFFF73",
"[  c none",
"{  c #9F9F9F",
"}  c #B79F87",
"|  c #BFA78F",
" . c #B7B7B7",
".. c #FFBBBB",
/* pixels */
"[ [ [ [ [ [ [ [ [ [ [ [ [ [ [ [ [ [ [ [ [ [ [ [ [ [ [ [ [ [ [ [ [ [ [ [ [ [ [ [ [ [ [ [ [ [ [ [ [ [ [ [ [ [ [ [ [ [ [ [ [ [ [ [ [ [ [ [ [ [ ",
"[ [ [ [ [ [ [ [ [ [ [ [ [ [ [ [ [ [ [ [ [ [ [ [ [ [ [ [ [ [ [ [ [ [ [ [ [ [ [ [ [ [ [ [ [ [ [ [ [ [ [ [ [ [ [ [ [ [ [ [ [ [ [ [ [ [ [ [ [ [ ",
"[ [ [ [ [ [ [ [ [ [ [ [ [ [ [ [ [ [ [ [ [ [ [ [ [ [ [ [ [ [ [ [ [ [ [ [ [ [ [ [ [ [ [ [ [ [ [ [ [ [ [ [ [ [ [ [ [ [ [ [ [ [ [ [ [ [ [ [ [ [ ",
"[ [ [ [ [ [ [ [ [ [ [ [ [ [ [ [ [ [ [ [ [ [ [ [ [ [ [ [ [ [ [ [ [ [ [ [ [ [ [ [ [ [ [ [ [ [ [ [ [ [ [ [ [ [ [ [ [ [ [ [ [ [ [ [ [ [ [ [ [ [ ",
"[ [ [ [ [ [ [ [ [ [ [ [ [ [ [ [ [ [ [ [ [ [ [ [ [ [ [ [ [ [ [ [ [ [ [ [ [ [ [ [ [ [ [ [ [ [ [ [ [ [ [ [ [ [ [ [ [ [ [ [ [ [ [ [ [ [ [ [ [ [ ",
"[ [ [ [ [ [ [ [ [ [ [ [ [ [ [ [ [ [ [ [ [ [ [ [ [ [ [ [ [ [ [ [ [ [ [ [ [ [ [ [ [ [ [ [ [ [ [ [ [ [ [ [ [ [ [ [ [ [ [ [ [ [ [ [ [ [ [ [ [ [ ",
"[ [ [ [ [ [ [ [ [ [ [ [ [ [ [ [ [ [ [ [ [ [ [ [ [ [ [ [ [ [ [ [ 1 B 1 [ [ [ [ [ [ [ [ [ [ [ [ [ [ [ [ [ [ [ [ [ [ [ [ [ [ [ [ [ [ [ [ [ [ [ ",
"[ [ [ [ [ [ [ [ [ [ [ [ [ [ [ [ [ [ [ [ [ [ [ [ [ [ [ [ [ [ [ 1 l l l [ [ [ [ [ [ [ [ [ [ [ [ [ [ [ [ [ [ [ [ [ [ [ [ [ [ [ [ [ [ [ [ [ [ [ ",
"[ [ [ [ [ [ [ [ [ [ [ [ [ [ [ [ [ [ [ [ [ [ [ [ [ [ [ [ [ [ [ 1 l l l 1 1 1 M [ [ [ [ [ [ [ [ [ [ [ [ [ [ [ [ [ [ [ [ [ [ [ [ [ [ [ [ [ [ [ ",
"[ [ [ [ [ [ [ [ [ [ [ [ [ [ [ [ [ [ [ [ [ [ [ [ [ [ [ [ [ [ [ 1 1 l 1 [ 1 k l l : [ [ [ [ [ [ [ [ [ [ [ [ [ [ [ [ [ [ [ [ [ [ [ [ [ [ [ [ [ ",
"[ [ [ [ [ [ [ [ [ [ [ [ [ [ [ [ [ [ [ [ [ [ [ [ [ [ l l l [ l B M 1 l 1 1 1 1 1 l 1 [ [ [ [ [ [ [ [ [ [ [ [ [ [ [ [ [ [ [ [ [ [ [ [ [ [ [ [ ",
"[ [ [ [ [ [ [ [ [ [ [ [ [ [ [ [ [ [ [ [ [ [ [ [ [ l l M l l l B l k l 1 1 j 1 : l 1 [ [ [ [ [ [ [ [ [ [ [ [ [ [ [ [ [ [ [ [ [ [ [ [ [ [ [ [ ",
"[ [ [ [ [ [ [ [ [ [ [ [ [ [ [ [ [ [ [ [ [ [ [ [ l l M M M l l l l l 1 1 l j h : 1 ( [ [ ( [ [ [ [ [ [ [ [ [ [ [ [ [ [ [ [ [ [ [ [ [ [ [ [ [ ",
"[ [ [ [ [ [ [ [ [ [ [ [ [ [ [ [ [ [ [ [ l l N [ l N N N M N N N N l 1 l 1 z j : 1 l [ 1 [ [ [ [ [ [ [ [ [ [ [ [ [ [ [ [ [ [ [ [ [ [ [ [ [ [ ",
"[ [ [ [ [ [ [ [ [ [ [ [ [ [ [ [ [ [ [ h l l N N w e N B B C B B C C l l 1 h ( 1 | | ( ( ( / [ ( [ [ [ [ [ [ [ [ [ [ [ [ [ [ [ [ [ [ [ [ [ [ ",
"[ [ [ [ [ [ [ [ [ [ [ [ [ [ [ [ [ [ : j l l N N 4 i s B N C B B C z j 1 j j j 1 | 1 | } } } ( Q Q [ [ [ [ [ [ [ [ [ [ [ [ [ [ [ [ [ [ [ [ [ ",
"[ [ [ [ [ [ [ [ [ [ [ [ [ [ [ [ [ [ < j M z N 1 4 e f N C C B B B N N N l z C B } } } } [ } ) ( / [ [ [ [ [ [ [ [ [ [ [ [ [ [ [ [ [ [ [ [ [ ",
"[ [ [ [ [ [ [ [ [ [ [ [ [ [ [ [ [ [ 1 j z N N c # 4 e T E C C C C C M N l B N M j ) ) M ) ) ) ( ( [ [ [ [ [ [ [ [ [ [ [ [ [ [ [ [ [ [ [ [ [ ",
"[ [ [ [ [ [ [ [ [ [ [ [ [ [ [ [ [ : j z l B N 1 1 # 9 a T ^ / ( ) C C B B B V k Y R ^ z M ^ ^ ^ W [ 1 [ [ [ [ [ [ [ [ [ [ [ [ [ [ [ [ [ [ [ ",
"[ [ [ [ [ [ [ [ [ [ [ [ [ [ [ [ [ * k l l D N c d # 4 i s E ^ / ( ) Z C C Z B B B B 1 j l l [ [ 1 [ [ [ [ [ [ [ [ [ [ [ [ [ [ [ [ [ [ [ [ [ ",
"[ [ [ [ [ [ [ [ [ [ [ [ [ [ [ [ [ [ , h h 1 9 9 4 4 O 3 e T W R R R Z ! ~ ! ! Z C C B B B [ [ Q [ [ [ [ [ [ [ [ [ [ [ [ [ [ [ [ [ [ [ [ [ [ ",
"[ [ [ [ [ [ [ [ [ [ [ [ [ [ [ [ = - ; , 1 9 # $ 5 N # O 3 i f } Q p y ~ ~ ~ ! ! Z Z C C C B B [ T [ 1 [ [ [ [ [ [ [ [ [ [ [ [ [ [ [ [ [ [ [ ",
"[ [ [ [ [ [ [ [ [ [ [ [ [ [ [ * = 1 : , 1 4 o o 4 X # O O 8 e a a 9 5 ~ y p ! B Z B p p C C C T s J : [ [ [ [ [ [ [ [ [ [ [ [ [ [ [ [ [ [ [ ",
"[ [ [ [ [ [ [ [ [ [ [ [ [ [ 1 1 1 B B j 9 # X o # X $ O # 3 8 w # o @ z 9 9 u p Y R / / / T s s H 5 : 1 [ 1 [ [ [ [ [ [ [ [ [ [ [ [ [ [ [ [ ",
"[ [ [ [ [ [ [ [ [ [ [ [ [ 1 l B 1 M l M 4   : o @ z 4 4 O # # # O X X X 3 3 u p R  .{ g R R s t t 5 B 1 1 [ [ [ [ [ [ [ [ [ [ [ [ [ [ [ [ [ ",
"[ [ [ [ [ [ [ [ [ [ [ [ B l l l 1 1 h M < : x : : l : $ % O O O O @ @ X @ 7 p R t 9 $ @ @ o o $ 9 u & 1 [ [ [ [ [ [ [ [ [ [ [ [ [ [ [ [ [ [ ",
"[ [ [ [ [ [ [ [ [ [ [ [ [ l l l 1 1 1 1 l l 1 1 N B x : # O O O % @ @ X X w R p 9 @ @ h 1 = X X X + 5 1 1 [ [ [ [ [ [ [ [ [ [ [ [ [ [ [ [ [ ",
"[ [ [ [ [ [ [ [ [ [ [ [ [ [ 1 1 < 1 A 1 1 1 l B C X X L _ $ 4 6 % $ $ 5 o t R u @ : l G ] G = X X X + q 1 [ [ [ [ [ [ [ [ [ [ [ [ [ [ [ [ [ ",
"[ [ [ [ [ [ [ [ [ [ [ [ [ [ < h < , S G 1 4   M < M c < X X X [ [ 9 9 [ # t T t $ : S ' ] h o 5 # o + X X 1 [ [ [ [ [ [ [ [ [ [ [ [ [ [ [ [ ",
"[ [ [ [ [ [ [ [ [ [ [ [ [ [ < k < n n S z h z C N l c 1 c X X @ @ $ $ $ 9 p s p w $ X X @ @ 5 # X o 3 X 7 k [ [ 1 [ [ [ [ [ [ [ [ [ [ [ [ [ ",
"[ [ [ [ [ [ [ [ [ [ [ [ [ [ [ 1 < 2 n A , z 1 k C N l l S : : # 4 5 9 9 9 5 0 u u Y W W s w $ X X o 7 7 N k z [ [ [ [ [ [ [ [ [ [ [ [ [ [ [ ",
"[ [ [ [ [ [ [ [ [ [ [ [ [ [ k k j z l F A , z l N N j j 1 U c b m 9 5 5 $ # # # 4 5 r r 3 3 w $ o o X C C k z [ [ [ [ [ [ [ [ [ [ [ [ [ [ [ ",
"[ [ [ [ [ [ [ [ [ [ [ [ [ 1 B B 1 j z > , k k N k j l l z z D P v b ; $ @ X o X @ # # # @ @ @ 7 7 7 @ C N N N z [ [ [ [ [ [ [ [ [ [ [ [ [ [ ",
"[ [ [ [ [ [ [ [ [ [ [ [ [ 1 M M l h h < , k k j N B   : N C C < < < # @ X X X .         # 5 u t Y u # C C N N z [ [ [ [ [ [ [ [ [ [ [ [ [ [ ",
"[ [ [ [ [ [ [ [ [ [ [ [ [ [ 1 1 : j 1 , k k j N B   : z N C C < @ @ @ X X X X         # 5 Y R 9 ^ u $ X C C N z z [ [ [ [ [ [ [ [ [ [ [ [ [ ",
"[ [ [ [ [ [ [ [ [ [ [ [ [ [ [ l : h j - , M k j l @ # z N C C C h < D j   X X       # 5 u u 5 5 9 7 7   N C N z z [ [ [ [ [ [ [ [ [ [ [ [ [ ",
"[ [ [ [ [ [ [ [ [ [ [ [ [ [ 1 B : 1 j M < < , j 1   @ 1 N N C C l M M F P j #     # # @ @ @ J @ J `   V V N N k [ [ [ [ [ [ [ [ [ [ [ [ [ [ ",
"[ [ [ [ [ [ [ [ [ [ [ [ [ [ 1 : h 1 1 M C < z l j j z 1 6 N N N 4 M M V Z ! ~ ....~ 1               j V V V N k [ [ [ [ [ [ [ [ [ [ [ [ [ [ ",
"[ [ [ [ [ [ [ [ [ [ [ [ [ [ [ : B l k < - - h z M B z 1 6 z K I F j M M Z ! ! ~ ~ ~ ~ ! Z C 1 9 9 1 1 V N N N k [ [ [ [ [ [ [ [ [ [ [ [ [ [ ",
"[ [ [ [ [ [ [ [ [ [ [ [ [ [ [ 1 B M 1 - - - < 1 X h h . j 1 j 1 1 l M V V Z Z ! ! ! ! Z N C C N V N N N N l k [ [ [ [ [ [ [ [ [ [ [ [ [ [ [ ",
"[ [ [ [ [ [ [ [ [ [ [ [ [ [ [ [ 1 1 1 - h < 1 j j X X . j . j l l B l z M V Z Z Z Z N M M M C C B N V B l k [ [ [ [ [ [ [ [ [ [ [ [ [ [ [ [ ",
"[ [ [ [ [ [ [ [ [ [ [ [ [ [ [ [ 1 B l - h h h z 1 N z z o X X o l 1 1 l j V V V C C z k z N V N N N K 1 l z [ [ [ [ [ [ [ [ [ [ [ [ [ [ [ [ ",
"[ [ [ [ [ [ [ [ [ [ [ [ [ [ [ [ [ [ - - < h < M j F M k # X X @ .         V V V C C N = ` M 1 k N l 1 1 j z [ [ [ [ [ [ [ [ [ [ [ [ [ [ [ [ ",
"[ [ [ [ [ [ [ [ [ [ [ [ [ [ [ [ [ [ [ [ < h h j j 1 z k # @ X o X . X X l V V V V V V : = M k ` l l B B l z [ [ [ [ [ [ [ [ [ [ [ [ [ [ [ [ ",
"[ [ [ [ [ [ [ [ [ [ [ [ [ [ [ [ [ [ [ [ < 1 h j z 1 l k M @ @ @ @ o o o k M z V V V j < = 4 0 Y 5 l z z z [ 1 [ [ [ [ [ [ [ [ [ [ [ [ [ [ [ ",
"[ [ [ [ [ [ [ [ [ [ [ [ [ [ [ [ [ [ [ [ [ [ 1 z N z j 1 k 1 l l j $ $ $ @ M M j 1 M j j 1 # # u X z z z j [ [ [ [ [ [ [ [ [ [ [ [ [ [ [ [ [ ",
"[ [ [ [ [ [ [ [ [ [ [ [ [ [ [ [ [ [ [ [ [ [ < < z j j j j k 1 B 1 l 1 K 4 $ N j 1 z j l # # # 7   z j z 1 [ [ [ [ [ [ [ [ [ [ [ [ [ [ [ [ [ ",
"[ [ [ [ [ [ [ [ [ [ [ [ [ [ [ [ [ [ [ [ [ [ - h h M - B l j M B 1 j l B N M j 1 1 l 1 .   @ @     z z z [ [ [ [ [ [ [ [ [ [ [ [ [ [ [ [ [ [ ",
"[ [ [ [ [ [ [ [ [ [ [ [ [ [ [ [ [ [ [ [ [ [ - h l l N k 1 j j 1 h z l z C B z 1 l j 1   . .     z j [ 1 [ [ [ [ [ [ [ [ [ [ [ [ [ [ [ [ [ [ ",
"[ [ [ [ [ [ [ [ [ [ [ [ [ [ [ [ [ [ [ [ [ [ [ h h l M l N 1 h j h j z M M < l 1 l 1 @ @ @     z 1 [ [ [ [ [ [ [ [ [ [ [ [ [ [ [ [ [ [ [ [ [ ",
"[ [ [ [ [ [ [ [ [ [ [ [ [ [ [ [ [ [ [ [ [ [ [ [ 1 1 l l N M h h l 1 j M M < j l j 1 z z z z z z [ [ 1 [ [ [ [ [ [ [ [ [ [ [ [ [ [ [ [ [ [ [ ",
"[ [ [ [ [ [ [ [ [ [ [ [ [ [ [ [ [ [ [ [ [ [ [ [ [ [ 1 : : h h M M B k M M < 1 < < < < < z [ < [ j j [ [ [ [ [ [ [ [ [ [ [ [ [ [ [ [ [ [ [ [ ",
"[ [ [ [ [ [ [ [ [ [ [ [ [ [ [ [ [ [ [ [ [ [ [ [ [ [ [ [ 1 1 1 h h h k < < < < < [ l 1 < < < z [ [ [ [ [ [ [ [ [ [ [ [ [ [ [ [ [ [ [ [ [ [ [ ",
"[ [ [ [ [ [ [ [ [ [ [ [ [ [ [ [ [ [ [ [ [ [ [ [ [ [ [ [ [ [ [ [ 1 1 1 [ [ [ [ [ [ [ [ [ [ [ [ [ [ [ [ [ [ [ [ [ [ [ [ [ [ [ [ [ [ [ [ [ [ [ ",
"[ [ [ [ [ [ [ [ [ [ [ [ [ [ [ [ [ [ [ [ [ [ [ [ [ [ [ [ [ [ [ [ [ [ [ [ [ [ [ [ [ [ [ [ [ [ [ [ [ [ [ [ [ [ [ [ [ [ [ [ [ [ [ [ [ [ [ [ [ [ ",
"[ [ [ [ [ [ [ [ [ [ [ [ [ [ [ [ [ [ [ [ [ [ [ [ [ [ [ [ [ [ [ [ [ [ [ [ [ [ [ [ [ [ [ [ [ [ [ [ [ [ [ [ [ [ [ [ [ [ [ [ [ [ [ [ [ [ [ [ [ [ ",
"[ [ [ [ [ [ [ [ [ [ [ [ [ [ [ [ [ [ [ [ [ [ [ [ [ [ [ [ [ [ [ [ [ [ [ [ [ [ [ [ [ [ [ [ [ [ [ [ [ [ [ [ [ [ [ [ [ [ [ [ [ [ [ [ [ [ [ [ [ [ ",
"[ [ [ [ [ [ [ [ [ [ [ [ [ [ [ [ [ [ [ [ [ [ [ [ [ [ [ [ [ [ [ [ [ [ [ [ [ [ [ [ [ [ [ [ [ [ [ [ [ [ [ [ [ [ [ [ [ [ [ [ [ [ [ [ [ [ [ [ [ [ ",
"[ [ [ [ [ [ [ [ [ [ [ [ [ [ [ [ [ [ [ [ [ [ [ [ [ [ [ [ [ [ [ [ [ [ [ [ [ [ [ [ [ [ [ [ [ [ [ [ [ [ [ [ [ [ [ [ [ [ [ [ [ [ [ [ [ [ [ [ [ [ ",
"[ [ [ [ [ [ [ [ [ [ [ [ [ [ [ [ [ [ [ [ [ [ [ [ [ [ [ [ [ [ [ [ [ [ [ [ [ [ [ [ [ [ [ [ [ [ [ [ [ [ [ [ [ [ [ [ [ [ [ [ [ [ [ [ [ [ [ [ [ [ ",
"[ [ [ [ [ [ [ [ [ [ [ [ [ [ [ [ [ [ [ [ [ [ [ [ [ [ [ [ [ [ [ [ [ [ [ [ [ [ [ [ [ [ [ [ [ [ [ [ [ [ [ [ [ [ [ [ [ [ [ [ [ [ [ [ [ [ [ [ [ [ ",
"[ [ [ [ [ [ [ [ [ [ [ [ [ [ [ [ [ [ [ [ [ [ [ [ [ [ [ [ [ [ [ [ [ [ [ [ [ [ [ [ [ [ [ [ [ [ [ [ [ [ [ [ [ [ [ [ [ [ [ [ [ [ [ [ [ [ [ [ [ [ ",
"[ [ [ [ [ [ [ [ [ [ [ [ [ [ [ [ [ [ [ [ [ [ [ [ [ [ [ [ [ [ [ [ [ [ [ [ [ [ [ [ [ [ [ [ [ [ [ [ [ [ [ [ [ [ [ [ [ [ [ [ [ [ [ [ [ [ [ [ [ [ ",
"[ [ [ [ [ [ [ [ [ [ [ [ [ [ [ [ [ [ [ [ [ [ [ [ [ [ [ [ [ [ [ [ [ [ [ [ [ [ [ [ [ [ [ [ [ [ [ [ [ [ [ [ [ [ [ [ [ [ [ [ [ [ [ [ [ [ [ [ [ [ ",
"[ [ [ [ [ [ [ [ [ [ [ [ [ [ [ [ [ [ [ [ [ [ [ [ [ [ [ [ [ [ [ [ [ [ [ [ [ [ [ [ [ [ [ [ [ [ [ [ [ [ [ [ [ [ [ [ [ [ [ [ [ [ [ [ [ [ [ [ [ [ ",
"[ [ [ [ [ [ [ [ [ [ [ [ [ [ [ [ [ [ [ [ [ [ [ [ [ [ [ [ [ [ [ [ [ [ [ [ [ [ [ [ [ [ [ [ [ [ [ [ [ [ [ [ [ [ [ [ [ [ [ [ [ [ [ [ [ [ [ [ [ [ ",
"[ [ [ [ [ [ [ [ [ [ [ [ [ [ [ [ [ [ [ [ [ [ [ [ [ [ [ [ [ [ [ [ [ [ [ [ [ [ [ [ [ [ [ [ [ [ [ [ [ [ [ [ [ [ [ [ [ [ [ [ [ [ [ [ [ [ [ [ [ [ ",
"[ [ [ [ [ [ [ [ [ [ [ [ [ [ [ [ [ [ [ [ [ [ [ [ [ [ [ [ [ [ [ [ [ [ [ [ [ [ [ [ [ [ [ [ [ [ [ [ [ [ [ [ [ [ [ [ [ [ [ [ [ [ [ [ [ [ [ [ [ [ ",
"[ [ [ [ [ [ [ [ [ [ [ [ [ [ [ [ [ [ [ [ [ [ [ [ [ [ [ [ [ [ [ [ [ [ [ [ [ [ [ [ [ [ [ [ [ [ [ [ [ [ [ [ [ [ [ [ [ [ [ [ [ [ [ [ [ [ [ [ [ [ ",
"[ [ [ [ [ [ [ [ [ [ [ [ [ [ [ [ [ [ [ [ [ [ [ [ [ [ [ [ [ [ [ [ [ [ [ [ [ [ [ [ [ [ [ [ [ [ [ [ [ [ [ [ [ [ [ [ [ [ [ [ [ [ [ [ [ [ [ [ [ [ "
};
