/* XPM */
static char *a86b559bc4db41478bf03f4dc78f3fa7u7TqHz7wJP5SPifd[] = {
/* columns rows colors chars-per-pixel */
"70 70 79 1 ",
"  c #000001",
". c #170F07",
"X c #1F170B",
"o c #2B230F",
"O c #332B13",
"+ c #3F2F17",
"@ c #430000",
"# c #5B0000",
"$ c #670000",
"% c #670B0B",
"& c #730000",
"* c #7F0000",
"= c #4B371B",
"- c #533F1F",
"; c #732B00",
": c #533F2F",
"> c #5F4323",
", c #5B472B",
"< c #574333",
"1 c #5F4B37",
"2 c #6B4727",
"3 c #774F2B",
"4 c #7F532F",
"5 c #67533F",
"6 c gray28",
"7 c #6F5743",
"8 c #775F4B",
"9 c #7B634F",
"0 c #8B0000",
"q c #9B0000",
"w c #A70000",
"e c #B30000",
"r c #BF0000",
"t c #872300",
"y c #932F00",
"u c #A73F00",
"i c #CB0000",
"p c #D70000",
"a c #E30000",
"s c #EF0000",
"d c red",
"f c #FF1F1F",
"g c #874307",
"h c #9B5B13",
"j c #AF4300",
"k c #B74700",
"l c #875733",
"z c #8F5F37",
"x c #9B633B",
"c c #A36B3F",
"v c #C34F00",
"b c #CB5707",
"n c #D75F0B",
"m c #DF670F",
"M c #EB6F0F",
"N c #F37317",
"B c #FF7F1B",
"V c #836B4B",
"C c #836B57",
"Z c #8F7753",
"A c #8B735B",
"S c #AB6F43",
"D c #B37347",
"F c #937B63",
"G c #9B7F6B",
"H c #FF8F3B",
"J c #9F8363",
"K c #9F876F",
"L c #A78F77",
"P c #AF977F",
"I c #CF8353",
"U c #D7BB43",
"Y c #FFA35B",
"T c #F7AB7B",
"R c #EBDB57",
"E c none",
"W c #B79F87",
"Q c #BFA78F",
"! c #FFCFB3",
/* pixels */
"EEEEEEEEEEEEEEEEEEEEEEEEEEEEEEEEEEEEEEEEEEEEEEEEEEEEEEEEEEEEEEEEEEEEEE",
"EEEEEEEEEEEEEEEEEEEEEEEEEEEEEEEEEEEEEEEEEEEEEEEEEEEEEEEEEEEEEEEEEEEEEE",
"EEEEEEEEEEEEEEEEEEEEEEEEEEEEEEEEEEEEEEEEEEEEEEEEEEEEEEEEEEEEEEEEEEEEEE",
"EEEEEEEEEEEEEEEEEEEEEEEEEEEEEEEEEEEEEEEEEEEEEEEEEEEEEEEEEEEEEEEEEEEEEE",
"EEEEEEEEEEEEEEEEEEEEEEEEEEEEEEEEEEEEEEEEEEEEEEEEEEEEEEEEEEEEEEEEEEEEEE",
"EEEEEEEEEEEEEEEEEEEEEEEEEEEEEEEEEEEEEEEEEEEEEEEEEEEEEEEEEEEEEEEEEEEEEE",
"EEEEEEEEEEEEEEEEEEEEEEEEEEEEEEEEEEEEEEEEEEEEEEEEEEEEEEEEEEEEEEEEEEEEEE",
"EEEEEEEEEEEEEEEEEEEEEEEEEEEEEEEEEEEEEEEEEEEEEEEEEEEEEEEEEEEEEEEEEEEEEE",
"EEEEEEEEEEEEEEEEEEEEEEEEEEEEEEEEEEaEEEEEEEEEEEEEEEEEEEEEEEEEEEEEEEEEEE",
"EEEEEEEEEEEEEEEEEEEEEEEEEEEEEEEEEEeEaEEEEEEEEEEEEEEEEEEEEEEEEEEEEEEEEE",
"EEEEEEEEEEEEEEEEEEEEEEEEEEEEEEEEEEmEEEEEEEEEEEEEEEEEEEEEEEEEEEEEEEEEEE",
"EEEEEEEEEEEEEEEEEEEEEEEEEEEEEEEEqem0E$EEEEEEEEEEEEEEEEEEEEEEEEEEEEEEEE",
"EEEEEEEEEEEEEEEEEEEEEEEEEEEEEEEqujbb$$EEEEEEEEEEEEEEEEEEEEEEEEEEEEEEEE",
"EEEEEEEEEEEEEEEEEEEEEEEEEEEEEqqE*uvue**EEEEEEEEEEEEEEEEEEEEEEEEEEEEEEE",
"EEEEEEEEEEEEEEEEEEEEEEEEEEEEEqqErqueae*EeEEEEEEEEEEEEEEEEEEEEEEEEEEEEE",
"EEEEEEEEEEEEEEEEEEEEEEEEEEEEqv*r*qraaea*aEEEEEEEEEEEEEEEEEEEEEEEEEEEEE",
"EEEEEEEEEEEEEEEEEEEEEEEEEEEE*rerqqjjrdaea*EEEEEEEEEEEEEEEEEEEEEEEEEEEE",
"EEEEEEEEEEEEEEEEEEEEEEEEEE**erradajvrpiqne*EEEEEEEEEEEEEEEEEEEEEEEEEEE",
"EEEEEEEEEEEEEEEEEEEEEEEEE**weeqipbvNaswwvm*EEEEEEEEEEEEEEEEEEEEEEEEEEE",
"EEEEEEEEEEEEEEEEEEEEEEEEEE*w*qwwsnNUbsaiqv0EEEEEEEEEEEEEEEEEEEEEEEEEEE",
"EEEEEEEEEEEEEEEEEEEEEEEEEEErwwkasNURnisww*0*EEEEEEEEEEEEEEEEEEEEEEEEEE",
"EEEEEEEEEEEEEEEEEEEEEEEEpEwbwinsdHRRNnskiwe*0EEEEEEEEEEEEEEEEEEEEEEEEE",
"EEEEEEEEEEEEEEEEEEEEEEEEiqvNwpNsfNYYNNbnpwrvqiEEEEEEEEEEEEEEEEEEEEEEEE",
"EEEEEEEEEEEEEEEEEEEEEEwiknkbwwHdfMBBMNmNwvikNiEEEEEEEEEEEEEEEEEEEEEEEE",
"EEEEEEEEEEEEEEEEEEEEEEeinvewrwYsmmMMmmmUwvrpvNiEEEEEEEEEEEEEEEEEEEEEEE",
"EEEEEEEEEEEEEEEEEEEEEEqiNwdwwFHnBQQQQBNRFwpdwkiEEEEEEEEEEEEEEEEEEEEEEE",
"EEEEEEEEEEEEE5EEEEEEEEqqsr-rKPWQQQQQQQQWP4rdpbqEEEEEEEEE5EEEEEEEEEEEEE",
"EEEEEEEEEEEEE<55EEEEEre*wdrAKLPWQQQQQQWPLKArnN*eEEEEEE55<EEEEEEEEEEEEE",
"EEEEEEEEEEEEEE<5778AJFACCNaCGKLPWWWWWWPLKGCnNCCAFJA8775<EEEEEEEEEEEEEE",
"EEEEEEEEEEEEEEE27889AGLFC7m8CAGKLPPPPLKGAC877CFLGA98872EEEEEEEEEEEEEEE",
"EEEEEEEEEEEEEEEEE87778979=1158CAFGJJGFAC8511=97987778EEEEEEEEEEEEEEEEE",
"EEEEEEEEEEEEEEEEEE971tyytt:<17899CCCC99871<:ttyyt179EEEEEEEEEEEEEEEEEE",
"EEEEEEEEEEEEEEEEEEEEEOOO&0+--<1578888751<--+0&OOOEEEEEEEEEEEEEEEEEEEEE",
"EEEEEEEEEEEEEEEEEEEEEEw-0&X4>>>>222222>>>>4Xw0-j*EEEEEEEEEEEEEEEEEEEEE",
"EEEEEEEEEEEEEEEEEEEEE*vvveXz33443222234433zXekbw*EEEEEEEEEEEEEEEEEEEEE",
"EEEEEEEEEEEEEEEEEEEEEErm*$XxllzllllllllzllxX#wj0EEEEEEEEEEEEEEEEEEEEEE",
"EEEEEEEEEEEEEEEEEEEEEE*m$XOxDDxxxxxxxxxxDDxOX#b*EEEEEEEEEEEEEEEEEEEEEE",
"EEEEEEEEEEEEEEEEEEEEEEEeO-xooo=>>llll>>=ooox-Om*EEEEEEEEEEEEEEEEEEEEEE",
"EEEEEEEEEEEEEEEEEEEEE*$a$=x#g;....++....;g#x=$a*EEEEEEEEEEEEEEEEEEEEEE",
"EEEEEEEEEEEEEEEEEEEEEE*$0Ol#;hRr.oS2o.rRh;#lO0eEEEEEEEEEEEEEEEEEEEEEEE",
"EEEEEEEEEEEEEEEEEEEEEEE$O+V&*ra%2zoO=z%ar*&V+O$EEEEEEEEEEEEEEEEEEEEEEE",
"EEEEEEEEEEEEEEEEEEEEEEE*OOzZczz24O OO=4zzcZzOO*EEEEEEEEEEEEEEEEEEEEEEE",
"EEEEEEEEEEEEEEEEEEEEEEEEOo3++=+o,oo2o,o+=++3oOEEEEEEEEEEEEEEEEEEEEEEEE",
"EEEEEEEEEEEEEEEEEEEEEEEEi*l>=Oo+>2zc2>+oO=>lwaEEEEEEEEEEEEEEEEEEEEEEEE",
"EEEEEEEEEEEEEEEEEEEEEEEEei@..oO>>>3>3>>Oo.@qb0EEEEEEEEEEEEEEEEEEEEEEEE",
"EEEEEEEEEEEEEEEEEEEEEEEE&aaawO+>clclclz+OwaarEEEEEEEEEEEEEEEEEEEEEEEEE",
"EEEEEEEEEEEEEEEEEEEEEEEEE#evnx2kxT  Txk2xnv**EEEEEEEEEEEEEEEEEEEEEEEEE",
"EEEEEEEEEEEEEEEEEEEEEEEEEE#$2=kn      nb=2XXEEEEEEEEEEEEEEEEEEEEEEEEEE",
"EEEEEEEEEEEEEEEEEEEEEEEEEEEX-$&!      !&$-XEEEEEEEEEEEEEEEEEEEEEEEEEEE",
"EEEEEEEEEEEEEEEEEEEEEEEEEEEXX3&I&T&&T&I&3XXEEEEEEEEEEEEEEEEEEEEEEEEEEE",
"EEEEEEEEEEEEEEEEEEEEEEEEEEEXO6-&0e&&e0&-6OXEEEEEEEEEEEEEEEEEEEEEEEEEEE",
"EEEEEEEEEEEEEEEEEEEEEEEEEEEEXO>-->>>>-->OXEEEEEEEEEEEEEEEEEEEEEEEEEEEE",
"EEEEEEEEEEEEEEEEEEEEEEEEEEEEEXO>3lzzl3>OXEEEEEEEEEEEEEEEEEEEEEEEEEEEEE",
"EEEEEEEEEEEEEEEEEEEEEEEEEEEEEEE>>>>>>>>EEEEEEEEEEEEEEEEEEEEEEEEEEEEEEE",
"EEEEEEEEEEEEEEEEEEEEEEEEEEEEEEEEEEEEEEEEEEEEEEEEEEEEEEEEEEEEEEEEEEEEEE",
"EEEEEEEEEEEEEEEEEEEEEEEEEEEEEEEEEEEEEEEEEEEEEEEEEEEEEEEEEEEEEEEEEEEEEE",
"EEEEEEEEEEEEEEEEEEEEEEEEEEEEEEEEEEEEEEEEEEEEEEEEEEEEEEEEEEEEEEEEEEEEEE",
"EEEEEEEEEEEEEEEEEEEEEEEEEEEEEEEEEEEEEEEEEEEEEEEEEEEEEEEEEEEEEEEEEEEEEE",
"EEEEEEEEEEEEEEEEEEEEEEEEEEEEEEEEEEEEEEEEEEEEEEEEEEEEEEEEEEEEEEEEEEEEEE",
"EEEEEEEEEEEEEEEEEEEEEEEEEEEEEEEEEEEEEEEEEEEEEEEEEEEEEEEEEEEEEEEEEEEEEE",
"EEEEEEEEEEEEEEEEEEEEEEEEEEEEEEEEEEEEEEEEEEEEEEEEEEEEEEEEEEEEEEEEEEEEEE",
"EEEEEEEEEEEEEEEEEEEEEEEEEEEEEEEEEEEEEEEEEEEEEEEEEEEEEEEEEEEEEEEEEEEEEE",
"EEEEEEEEEEEEEEEEEEEEEEEEEEEEEEEEEEEEEEEEEEEEEEEEEEEEEEEEEEEEEEEEEEEEEE",
"EEEEEEEEEEEEEEEEEEEEEEEEEEEEEEEEEEEEEEEEEEEEEEEEEEEEEEEEEEEEEEEEEEEEEE",
"EEEEEEEEEEEEEEEEEEEEEEEEEEEEEEEEEEEEEEEEEEEEEEEEEEEEEEEEEEEEEEEEEEEEEE",
"EEEEEEEEEEEEEEEEEEEEEEEEEEEEEEEEEEEEEEEEEEEEEEEEEEEEEEEEEEEEEEEEEEEEEE",
"EEEEEEEEEEEEEEEEEEEEEEEEEEEEEEEEEEEEEEEEEEEEEEEEEEEEEEEEEEEEEEEEEEEEEE",
"EEEEEEEEEEEEEEEEEEEEEEEEEEEEEEEEEEEEEEEEEEEEEEEEEEEEEEEEEEEEEEEEEEEEEE",
"EEEEEEEEEEEEEEEEEEEEEEEEEEEEEEEEEEEEEEEEEEEEEEEEEEEEEEEEEEEEEEEEEEEEEE",
"EEEEEEEEEEEEEEEEEEEEEEEEEEEEEEEEEEEEEEEEEEEEEEEEEEEEEEEEEEEEEEEEEEEEEE"
};
