/* XPM */
static char *result[] = {
/* columns rows colors chars-per-pixel */
"70 70 77 1 ",
"  c #000001",
". c #170F07",
"X c #1F170B",
"o c #2B230F",
"O c #332B13",
"+ c #3F2F17",
"@ c #430000",
"# c #5B0000",
"$ c #670000",
"% c #670B0B",
"& c #730000",
"* c #7F0000",
"= c #4B371B",
"- c #533F1F",
"; c #732B00",
": c #4F3B23",
"> c #533F2F",
", c #5F4323",
"< c #5B472B",
"1 c #574333",
"2 c #5F4B37",
"3 c #6B4727",
"4 c #774F2B",
"5 c #7F532F",
"6 c #67533F",
"7 c #775F3F",
"8 c gray28",
"9 c #6F5743",
"0 c #775F4B",
"q c #7B634F",
"w c #8B0000",
"e c #9B0000",
"r c #A70000",
"t c #B30000",
"y c #BF0000",
"u c #872300",
"i c #932F00",
"p c #9F3700",
"a c #CB0000",
"s c #D70000",
"d c #E30000",
"f c #EF0000",
"g c red",
"h c #874307",
"j c #9B5B13",
"k c #AF4300",
"l c #B74700",
"z c #875733",
"x c #8F5F37",
"c c #9B633B",
"v c #A36B3F",
"b c #C34F00",
"n c #CB5707",
"m c #D75F0B",
"M c #DF670F",
"N c #F37317",
"B c #FF7F1B",
"V c #836B4B",
"C c #836B57",
"Z c #8F7753",
"A c #8B735B",
"S c #AB6F43",
"D c #937B63",
"F c #9B7F6B",
"G c #FF8F3B",
"H c #9F8363",
"J c #9F876F",
"K c #A78F77",
"L c #AF977F",
"P c #CF8353",
"I c #FFA35B",
"U c #F7AB7B",
"Y c #EBDB57",
"T c none",
"R c #B79F87",
"E c #BFA78F",
"W c #FFCFB3",
/* pixels */
"TTTTTTTTTTTTTTTTTTTTTTTTTTTTTTTTTTTTTTTTTTTTTTTTTTTTTTTTTTTTTTTTTTTTTT",
"TTTTTTTTTTTTTTTTTTTTTTTTTTTTTTTTTTTTTTTTTTTTTTTTTTTTTTTTTTTTTTTTTTTTTT",
"TTTTTTTTTTTTTTTTTTTTTTTTTTTTTTTTTTTTTTTTTTTTTTTTTTTTTTTTTTTTTTTTTTTTTT",
"TTTTTTTTTTTTTTTTTTTTTTTTTTTTTTTTTTTTTTTTTTTTTTTTTTTTTTTTTTTTTTTTTTTTTT",
"TTTTTTTTTTTTTTTTTTTTTTTTTTTTTTTTTTTTTTTTTTTTTTTTTTTTTTTTTTTTTTTTTTTTTT",
"TTTTTTTTTTTTTTTTTTTTTTTTTTTTTTTTTTTTTTTTTTTTTTTTTTTTTTTTTTTTTTTTTTTTTT",
"TTTTTTTTTTTTTTTTTTTTTTTTTTTTTTTTTTTTTTTTTTTTTTTTTTTTTTTTTTTTTTTTTTTTTT",
"TTTTTTTTTTTTTTTTTTTTTTTTTTTTTTTTTTTyTTTTTTTTTTTTTTTTTTTTTTTTTTTTTTTTTT",
"TTTTTTTTTTTTTTTTTTTTTTTTTTTTTTTTTTTyTTTTTTTTTTTTTTTTTTTTTTTTTTTTTTTTTT",
"TTTTTTTTTTTTTTTTTTTTTTTTTTTTTTTTTyytTTTTTTTTTTTTTTTTTTTTTTTTTTTTTTTTTT",
"TTTTTTTTTTTTTTTTTTTTTTTTTTTTTTTTdytTTTTTTTTTTTTTTTTTTTTTTTTTTTTTTTTTTT",
"TTTTTTTTTTTTTTTTTTTTTTTTTTTTTTaayyyTTTTTTTTTTTTTTTTTTTTTTTTTTTTTTTTTTT",
"TTTTTTTTTTTTTTTTTTTTTTTTTTTTTT*eytnTTTTTTTTTTTTTTTTTTTTTTTTTTTTTTTTTTT",
"TTTTTTTTTTTTTTTTTTTTTTTTTTTTTt*wltM*TTTTTTTTTTTTTTTTTTTTTTTTTTTTTTTTTT",
"TTTTTTTTTTTTTTTTTTTTTTTTTTTTTee*nlMntdTTTTTTTTTTTTTTTTTTTTTTTTTTTTTTTT",
"TTTTTTTTTTTTTTTTTTTTTTTTTTTTT*t*mlnMeyttTTTTTTTTTTTTTTTTTTTTTTTTTTTTTT",
"TTTTTTTTTTTTTTTTTTTTTTTTTTTsebyblyddygyttTTTTTTTTTTTTTTTTTTTTTTTTTTTTT",
"TTTTTTTTTTTTTTTTTTTTTTTTTTasN*bMbdbddsaetdTTTTTTTTTTTTTTTTTTTTTTTTTTTT",
"TTTTTTTTTTTTTTTTTTTTTTTTTrsneerbfnNmdfyreyTTTTTTTTTTTTTTTTTTTTTTTTTTTT",
"TTTTTTTTTTTTTTTTTTTTTTTTTttN*rldamINmadbrnT*TTTTTTTTTTTTTTTTTTTTTTTTTT",
"TTTTTTTTTTTTTTTTTTTTTTTTTT*tramfmNYINmfbaNt*TTTTTTTTTTTTTTTTTTTTTTTTTT",
"TTTTTTTTTTTTTTTTTTTTTTTTse*yrsNfNGYYGNflsrMeesTTTTTTTTTTTTTTTTTTTTTTTT",
"TTTTTTTTTTTTTTTTTTTTTTTaae*nrrGgNIYYINnmrrateaTTTTTTTTTTTTTTTTTTTTTTTT",
"TTTTTTTTTTTTTTTTTTTTTTray*tNyrGfMIIIIMMBryya*yaTTTTTTTTTTTTTTTTTTTTTTT",
"TTTTTTTTTTTTTTTTTTTTTTtalrgnrDbmBEEEEBNIDnbsrlaTTTTTTTTTTTTTTTTTTTTTTT",
"TTTTTTTTTTTTTTTTTTTTTTeemy-yJLREEEEEEEERLbnbsmeeTTTTTTTTTTTTTTTTTTTTTT",
"TTTTTTTTTTTTT9qTTTTTTyt*NgyAJKLREEEEEERLKJAmsN*tyTTTTTTq9TTTTTTTTTTTTT",
"TTTTTTTTTTTTT19qFDAC00qCCxyAJKLREEEEEERLKJAmxCCq00CADFq91TTTTTTTTTTTTT",
"TTTTTTTTTTTTTT19qqCq0962290CFJKLRRRRRRLKJFC0922690qCqq91TTTTTTTTTTTTTT",
"TTTTTTTTTTTTTTT1269909622=90CAFJKLLLLKJFAC09=2269099621TTTTTTTTTTTTTTT",
"TTTTTTTTTTTTTTTTT222ipkpuu2260CADFHHFDAC0622uupkpi222TTTTTTTTTTTTTTTTT",
"TTTTTTTTTTTTTTTTTTTT>OOO&&>1290qqCCCCqq0921>&&OOO>TTTTTTTTTTTTTTTTTTTT",
"TTTTTTTTTTTTTTTTTTTTTTr-w&+::>1122222211>::+rw-k**TTTTTTTTTTTTTTTTTTTT",
"TTTTTTTTTTTTTTTTTTTTT**jbtX3====------====3Xtlny*TTTTTTTTTTTTTTTTTTTTT",
"TTTTTTTTTTTTTTTTTTTTT*yk*$X5::,,------,,:,5X#rar*TTTTTTTTTTTTTTTTTTTTT",
"TTTTTTTTTTTTTTTTTTTTTT**$#Xz,,3,,,,,,,,3,3zX##**TTTTTTTTTTTTTTTTTTTTTT",
"TTTTTTTTTTTTTTTTTTTTTTTt#XOzz544444444445zzOX#tTTTTTTTTTTTTTTTTTTTTTTT",
"TTTTTTTTTTTTTTTTTTTTTT*d$-zooo=,,zzzz,,=oooz-$d*TTTTTTTTTTTTTTTTTTTTTT",
"TTTTTTTTTTTTTTTTTTTTTT*$wO4#h;....oo....;h#4Owt*TTTTTTTTTTTTTTTTTTTTTT",
"TTTTTTTTTTTTTTTTTTTTTTT$y+<#;jYy.oS3o.yYj;#<+O$TTTTTTTTTTTTTTTTTTTTTTT",
"TTTTTTTTTTTTTTTTTTTTTTT*yOV&*yd%3xoO=x%dy*&VOO*TTTTTTTTTTTTTTTTTTTTTTT",
"TTTTTTTTTTTTTTTTTTTTTTT**o7Zvxx35O OO=5xxvZ7oOTTTTTTTTTTTTTTTTTTTTTTTT",
"TTTTTTTTTTTTTTTTTTTTTTT*&o3=+=+O<oo3o<O+=+=3oOTTTTTTTTTTTTTTTTTTTTTTTT",
"TTTTTTTTTTTTTTTTTTTTTTT*a*3=OOo+,3xv3,+oOO=3rdTTTTTTTTTTTTTTTTTTTTTTTT",
"TTTTTTTTTTTTTTTTTTTTTTTTta@ooOO,,,4,4,,OOo@enwTTTTTTTTTTTTTTTTTTTTTTTT",
"TTTTTTTTTTTTTTTTTTTTTTTT&de&.O+,vzvzvzx+O.edy*TTTTTTTTTTTTTTTTTTTTTTTT",
"TTTTTTTTTTTTTTTTTTTTTTTTT#tbmc3laU  Ual3cmb**TTTTTTTTTTTTTTTTTTTTTTTTT",
"TTTTTTTTTTTTTTTTTTTTTTTTTT#$3=ll      ln=3XXTTTTTTTTTTTTTTTTTTTTTTTTTT",
"TTTTTTTTTTTTTTTTTTTTTTTTTTTX-$&W      W&$-XTTTTTTTTTTTTTTTTTTTTTTTTTTT",
"TTTTTTTTTTTTTTTTTTTTTTTTTTTXX4&P&U&&U&P&4XXTTTTTTTTTTTTTTTTTTTTTTTTTTT",
"TTTTTTTTTTTTTTTTTTTTTTTTTTTTO8-&wt&&tw&-8OTTTTTTTTTTTTTTTTTTTTTTTTTTTT",
"TTTTTTTTTTTTTTTTTTTTTTTTTTTTTO,--,,,,--,OTTTTTTTTTTTTTTTTTTTTTTTTTTTTT",
"TTTTTTTTTTTTTTTTTTTTTTTTTTTTTTO=4zxxz4=OTTTTTTTTTTTTTTTTTTTTTTTTTTTTTT",
"TTTTTTTTTTTTTTTTTTTTTTTTTTTTTTTOOOOOOOOTTTTTTTTTTTTTTTTTTTTTTTTTTTTTTT",
"TTTTTTTTTTTTTTTTTTTTTTTTTTTTTTTTTTTTTTTTTTTTTTTTTTTTTTTTTTTTTTTTTTTTTT",
"TTTTTTTTTTTTTTTTTTTTTTTTTTTTTTTTTTTTTTTTTTTTTTTTTTTTTTTTTTTTTTTTTTTTTT",
"TTTTTTTTTTTTTTTTTTTTTTTTTTTTTTTTTTTTTTTTTTTTTTTTTTTTTTTTTTTTTTTTTTTTTT",
"TTTTTTTTTTTTTTTTTTTTTTTTTTTTTTTTTTTTTTTTTTTTTTTTTTTTTTTTTTTTTTTTTTTTTT",
"TTTTTTTTTTTTTTTTTTTTTTTTTTTTTTTTTTTTTTTTTTTTTTTTTTTTTTTTTTTTTTTTTTTTTT",
"TTTTTTTTTTTTTTTTTTTTTTTTTTTTTTTTTTTTTTTTTTTTTTTTTTTTTTTTTTTTTTTTTTTTTT",
"TTTTTTTTTTTTTTTTTTTTTTTTTTTTTTTTTTTTTTTTTTTTTTTTTTTTTTTTTTTTTTTTTTTTTT",
"TTTTTTTTTTTTTTTTTTTTTTTTTTTTTTTTTTTTTTTTTTTTTTTTTTTTTTTTTTTTTTTTTTTTTT",
"TTTTTTTTTTTTTTTTTTTTTTTTTTTTTTTTTTTTTTTTTTTTTTTTTTTTTTTTTTTTTTTTTTTTTT",
"TTTTTTTTTTTTTTTTTTTTTTTTTTTTTTTTTTTTTTTTTTTTTTTTTTTTTTTTTTTTTTTTTTTTTT",
"TTTTTTTTTTTTTTTTTTTTTTTTTTTTTTTTTTTTTTTTTTTTTTTTTTTTTTTTTTTTTTTTTTTTTT",
"TTTTTTTTTTTTTTTTTTTTTTTTTTTTTTTTTTTTTTTTTTTTTTTTTTTTTTTTTTTTTTTTTTTTTT",
"TTTTTTTTTTTTTTTTTTTTTTTTTTTTTTTTTTTTTTTTTTTTTTTTTTTTTTTTTTTTTTTTTTTTTT",
"TTTTTTTTTTTTTTTTTTTTTTTTTTTTTTTTTTTTTTTTTTTTTTTTTTTTTTTTTTTTTTTTTTTTTT",
"TTTTTTTTTTTTTTTTTTTTTTTTTTTTTTTTTTTTTTTTTTTTTTTTTTTTTTTTTTTTTTTTTTTTTT",
"TTTTTTTTTTTTTTTTTTTTTTTTTTTTTTTTTTTTTTTTTTTTTTTTTTTTTTTTTTTTTTTTTTTTTT"
};
