/* XPM */
static char *_b55c47c8e0b4acbda91aac766c61b31DmH3HRKs0v6hjZvf[] = {
/* columns rows colors chars-per-pixel */
"68 68 27 1 ",
"  c #090B0B",
". c #0E0E13",
"X c #151515",
"o c gray13",
"O c #272727",
"+ c #313131",
"@ c gray23",
"# c #464646",
"$ c gray29",
"% c #555555",
"& c DimGray",
"* c #717171",
"= c #797979",
"- c gray49",
"; c none",
": c none",
"> c gray56",
", c #979797",
"< c gray61",
"1 c #A5A5A5",
"2 c #AEAEAE",
"3 c #B7B7B7",
"4 c #C5C5C5",
"5 c gray81",
"6 c gray85",
"7 c #E2E2E2",
"8 c #FBFBFB",
/* pixels */
";;;;;;;;;;;;;;;;;;::::::::::::::::::::::::::::::::::::::::::;;;;;;;;",
";;;;;;;;;;;;;;;;;;::::::::::::::::::::::::::::::::::::::::::;;;;;;;;",
";;;;;;;;;;;;;;;;::::::::::::::::::::::::::::::::::::::::::::::::::::",
";;;;;;;;;;;;::;;::::::::::::::::::::::::::::::::::::::::::::::::::::",
";;;;;;;;;;;;::::::::::::::::::::::::::::::::::::::::::::::::::::::::",
";;;;;;;;;;;;::::::::::::::::::::::::::::::::::::::::::::::::::::::::",
";;;;;;;;;;;;::::::::::::::::::::::::::::::::::::::::::::::::::::::::",
";;;;;;;;;;;;::::::::::::::::::::::::::::::::::::::::::::::::::::::::",
";;;;;;;;;;;;::::::::::::::::::::::::::::::::::::::::::::::::::::::::",
";;;;;;;;;;;;::::::::::::::::::::::::::::::::::::::::::::::::::::::::",
";;;;;;;;;;;;::::::::::::::::::::::::::::::::::::::::::::::::::::::::",
";;;;;;;;;;;;::::::::::::::::::::::::::::::::::::::::::::::::::::::::",
";;;;;;;;;;;:::::::::::::::::::::::::::::::::::::::::::::::::::::::::",
"::::::::::::::::::::::::::::::::::::::::::::::::::::::::::::::::::::",
"::::::::::::::::::::::::::::::::::::::::::::::::::::::::::::::::::::",
"::::::::::::::::::::::::::::::::::::::::::::::::::::::::::::::::::::",
"::::::::::::::::::::::::::::::::::::::::::::::::::::::::::::::::::::",
"::::::::::::::::::::::::::::::::::::::::::::::::::::::::::::::::::::",
"::::::::::::::::::::::::::::::::::::::::::::::::::::::::::::::::::::",
"::::::::::::::::::::::::::::::::::::::::::::::::::::::::::::::::::::",
"::::::::::::::::::::::::::::::::::::::::::::::::::::::::::::::::::::",
"::::::::::::::::::::::::::::::::::::::::::::::::::::::::::::::::::::",
"::::::::::::::::::::::::::::::::::::::::::::::::::::::::::::::::::::",
"::::::::::::::::::::::::::::::::::::::::::::::::::::::::::::::::::::",
"::::::::::::::::::::::::::::::::::::::::::::::::::::::::::::::::::::",
"::::::::::::::::::::::::::::::::::::::::::::::::::::::::::::::::::::",
"::::::::::::::::::::::::::::::::::::::::::::::::::::::::::::::::::::",
"::::::::::::::::::::::::::::::::::::::::::::::::::::::::::::::::::::",
"::::::::::::::::::::::::::::::::::::::::::::::::::::::::::::::::::::",
"::::::::::::::::::::::::::::::::::::::::::::::::::::::::::::::::::::",
"::::::::::::::::::::::::::::::::::::::::::::::::::::::::::::::::::::",
"::::::::::::::::::::::::::::::::::::::::::::::::::::::::::::::::::::",
"::::::::::::::::::::::::::::::::::::::::::::::::::::::::::::::::::::",
"::::::::::::::::::::::::::::::::::::::::::::::::::::::::::::::::::::",
"::::::::::::::::::::::::::::::::::::::::::::::::::::::::::::::::::::",
"::::::::::::::::::::::::::::::::::::::::::::::::::::::::::::::::::::",
"::::::::::::::::::::::::::::::::::::::::::::::::::::::::::::::::::::",
"::::::::::::::::::::::::::::::::::::::::::::::::::::::::::::::::::::",
"::::::::::::::::::::::::::::::::::::::::::::::::::::::::::::::::::::",
"::::::::::::::::::::::::::::::::::::::::::::::::::::::::::::::::::::",
"::::::::::::::::::::::::::::::::::::::::::::::::::::::::::::::::::::",
"::::::::::::::::::::::::::::::::::::::::::::::::::::::::::::::::::::",
"::::::::::::::::::::::::::::::::::::::::::::::::::::::::::::::::::::",
"::::::::::::::::::::::::::::::::::::::::::::::::::::::::::::::::::::",
"::::::::::::::::::::::::::::::::::::::::::::::::::::::::::::::::::::",
"::::::::::::::::::::::::::::::::::::::::::::::::::::::::::::::::::::",
"::::::::::::::::::::::::::::::::::::::::::::::::::::::::::::::::::::",
"::::::::::::::::::::::::::::::::::::::::::::::::::::::::::::::::::::",
":::::::::::::::::::::::::::::%4,-1777777::::::::::::::::::::::::::::",
"::::::::::::::::::::::::::::,@..X@=$%&@%6:::::::::::::::::::::::::::",
":::::::::::::::::::::::::::% .Xo+,88365,#677::::::::::::::::::::::::",
"::::::::::::::::::::::::::  .oo%#3867876,$5777::::::::::::::::::::::",
"::::::::::::::::::::::::@#.+,@ooo-3777<%o.+4473:::::::::::::::::::::",
":::::::::::::::::::::::++o$=%#O...#77<o..O&<-131::::::::::::::::::::",
"::::::::::::::::::::::@+X.$34881+..#=o..245777773:::::::::::::::::::",
":::::::::::::::::::::OoXXo>8688664.oo..O1<134675&&::::::::::::::::::",
"::::::::::::::::::::o..Xoo#8666666#....o&*==>+.8847:::::::::::::::::",
"::::::::::::::::::::X...XXX*835663$....X+#$+.+86664,..::::::::::::::",
"::::::::::::::::::::: ....XO66624<OO=# .oooX*866865:..::::::::::::::",
";;;;;;;;;::::::::::::  ....X@=663&O$$@X...oX>66886<X.X::::::::::::::",
";;;;;;;;;:::::::::::::   ..XXXX>2@oOXX......*46666$....    ..:::::::",
";;;::::::::::::::::::::    ...XX#o......X.::#16662o         ....::::",
";;;::::::::::::::::::::::   ....o....XXXX:::X,4>>= ::::+o   ::::::::",
";;;::::::::::::::::::::::::    .....  ::::::.$<<-@:..XXXO:::::::::::",
";;;::::::::::::::::::::::::::  :::::::::::::..XX.........:::::::::::",
";;;::::::::::::::::::::::::::::::::::::::::: ....   ...  :::::::::::",
";;;:::::::::::::::::::::::::::::::::::::::::            ::::::::::::",
";;;:::::::::::::::::::::::::::::::::::::::::          ::::::::::::::"
};
