/* XPM */
static char *dc171bb1efa1421acce959549da4fed5pGB3xCUE20HkJC3J[] = {
/* columns rows colors chars-per-pixel */
"68 68 28 1 ",
"  c #090B0B",
". c #0E0E13",
"X c #151515",
"o c #1E1E1E",
"O c #272727",
"+ c #313131",
"@ c gray23",
"# c #464646",
"$ c gray29",
"% c #555555",
"& c #5D5D5D",
"* c gray38",
"= c #717171",
"- c #797979",
"; c gray49",
": c none",
"> c none",
", c gray56",
"< c #979797",
"1 c gray61",
"2 c #A5A5A5",
"3 c #AEAEAE",
"4 c #B7B7B7",
"5 c #C5C5C5",
"6 c gray81",
"7 c gray85",
"8 c #E2E2E2",
"9 c #FBFBFB",
/* pixels */
"::::::::::::::::::>>>>>>>>>>>>>>>>>>>>>>>>>>>>>>>>>>>>>>>>>>::::::::",
"::::::::::::::::::>>>>>>>>>>>>>>>>>>>>>>>>>>>>>>>>>>>>>>>>>>::::::::",
"::::::::::::::::>>>>>>>>>>>>>>>>>>>>>>>>>>>>>>>>>>>>>>>>>>>>>>>>>>>>",
"::::::::::::>>::>>>>>>>>>>>>>>>>>>>>>>>>>>>>>>>>>>>>>>>>>>>>>>>>>>>>",
"::::::::::::>>>>>>>>>>>>>>>>>>>>>>>>>>>>>>>>>>>>>>>>>>>>>>>>>>>>>>>>",
"::::::::::::>>>>>>>>>>>>>>>>>>>>>>>>>>>>>>>>>>>>>>>>>>>>>>>>>>>>>>>>",
"::::::::::::>>>>>>>>>>>>>>>>>>>>>>>>>>>>>>>>>>>>>>>>>>>>>>>>>>>>>>>>",
"::::::::::::>>>>>>>>>>>>>>>>>>>>>>>>>>>>>>>>>>>>>>>>>>>>>>>>>>>>>>>>",
"::::::::::::>>>>>>>>>>>>>>>>>>>>>>>>>>>>>>>>>>>>>>>>>>>>>>>>>>>>>>>>",
"::::::::::::>>>>>>>>>>>>>>>>>>>>>>>>>>>>>>>>>>>>>>>>>>>>>>>>>>>>>>>>",
"::::::::::::>>>>>>>>>>>>>>>>>>>>>>>>>>>>>>>>>>>>>>>>>>>>>>>>>>>>>>>>",
"::::::::::::>>>>>>>>>>>>>>>>>>>>>>>>>>>>>>>>>>>>>>>>>>>>>>>>>>>>>>>>",
":::::::::::>>>>>>>>>>>>>>>>>>>>>>>>>>>>>>>>>>>>>>>>>>>>>>>>>>>>>>>>>",
">>>>>>>>>>>>>>>>>>>>>>>>>>>>>>>>>>>>>>>>>>>>>>>>>>>>>>>>>>>>>>>>>>>>",
">>>>>>>>>>>>>>>>>>>>>>>>>>>>>>>>>>>>>>>>>>>>>>>>>>>>>>>>>>>>>>>>>>>>",
">>>>>>>>>>>>>>>>>>>>>>>>>>>>>>>>>>>>>>>>>>>>>>>>>>>>>>>>>>>>>>>>>>>>",
">>>>>>>>>>>>>>>>>>>>>>>>>>>>>>>>>>>>>>>>>>>>>>>>>>>>>>>>>>>>>>>>>>>>",
">>>>>>>>>>>>>>>>>>>>>>>>>>>>>>>>>>>>>>>>>>>>>>>>>>>>>>>>>>>>>>>>>>>>",
">>>>>>>>>>>>>>>>>>>>>>>>>>>>>>>>>>>>>>>>>>>>>>>>>>>>>>>>>>>>>>>>>>>>",
">>>>>>>>>>>>>>>>>>>>>>>>>>>>>>>>>>>>>>>>>>>>>>>>>>>>>>>>>>>>>>>>>>>>",
">>>>>>>>>>>>>>>>>>>>>>>>>>>>>>>>>>>>>>>>>>>>>>>>>>>>>>>>>>>>>>>>>>>>",
">>>>>>>>>>>>>>>>>>>>>>>>>>>>>>>>>>>>>>>>>>>>>>>>>>>>>>>>>>>>>>>>>>>>",
">>>>>>>>>>>>>>>>>>>>>>>>>>>>>>>>>>>>>>>>>>>>>>>>>>>>>>>>>>>>>>>>>>>>",
">>>>>>>>>>>>>>>>>>>>>>>>>>>>>>>>>>>>>>>>>>>>>>>>>>>>>>>>>>>>>>>>>>>>",
">>>>>>>>>>>>>>>>>>>>>>>>>>>>>>>>>>>>>>>>>>>>>>>>>>>>>>>>>>>>>>>>>>>>",
">>>>>>>>>>>>>>>>>>>>>>>>>>>>>>>>>>>>>>>>>>>>>>>>>>>>>>>>>>>>>>>>>>>>",
">>>>>>>>>>>>>>>>>>>>>>>>>>>>>>>>>>>>>>>>>>>>>>>>>>>>>>>>>>>>>>>>>>>>",
">>>>>>>>>>>>>>>>>>>>>>>>>>>>>>>>>>>>>>>>>>>>>>>>>>>>>>>>>>>>>>>>>>>>",
">>>>>>>>>>>>>>>>>>>>>>>>>>>>>>>>>>>>>>>O+>>>>>>>>>>>>>>>>>>>>>>>>>>>",
">>>>>>>>>>>>>>>>>.>>>>>>>>>>>>>>>>>>>>..o.>>>>>>>>>>>>>>>>>>>>>>>>>>",
">>>>>>>>>>>>>>>>  .>>>>>>>>>>>>>>>>>>>    >>>>>>>>>>>>>>>>>>>>>>>>>>",
">>>>>>>>>>>>>>>& .>..>>>>>>>>>>>>>>>>>    >>>>>>>>>>>>>>>>>>>>>>>>>>",
">>>>>>>>>>>>>>>$ ...>>>>>>>>>>>>>>>>>>. .++@o>>>>>>>>>>>>>>>>>>>>>>>",
">>>>>>>>>>>>>>>. ..>>>>>>>>>>>>>>>>>>>. .O.  >>>>>>>>>>>>>>>>>>>>>>>",
">>>>>>>>>>>>>>>.  %>>>>>>>>>>>>>>>>>>    >>>>>>>>>>>>>>>>>>>>>>>>>>>",
">>>>>>>>>>>>>>>.O$<>>>>>>>>>>>>>>>>>>  ..>>>>>>>>>>>>>>>>>>>>>>>>>>>",
">>>>>>>>>>>>>>>O%;1>>>>>>>>>=*3,18>>>>  . >>>>>>>>>>>>>>>>>>>>>>>>>>",
">>>>>>>>>>>>>>>X%12>>>>>>>>+=O-15,-,>   ..%>>>>>>>>>>>>>>>>>>>>>>>>>",
">>>>>>>>>>>>>>>o$,14>>>>>>%;7=   .@48;  ...>>>>>>>>>>>>>>>>>>>>>>>>>",
":::::::::::>>>>O$,15>>>>>>#$@O@=188888#o...@>>>>>>>>>>>>>>>>>>>>>>>>",
":::::::::::>>>>.&,15>>>>>>#3888888888887# .+>>>>>>>>>>>>>>>>>>>>>>>>",
":::::::::::>>>>.$-157>>>>@37774;-=$+#&184.o*&>>>>>>>>>>>>>>>>>>>>>>>",
":::::::::::>>>> #=-;#66>>$14,&=57781O+o$5OO#;&>>>>>>>>>>>>>>>>>>>>>>",
":::::::::::>>>>>>   %,35*%-#-418888&oXo@@#oO$-@>>>>>>>>>>>>>>>>>>>>>",
":::::::::::>>>>>>>.o+@*=@@@*564,271@@#@+O#Xo+&%>>>>>>>>>>>>>>>>>>>>>",
":::::::::::>>>>>>>>XXoO+..=431;3888,%%$.+1&X>>>>>>>>>>>>>>>>>>>>>>>>",
":::::::::::>>>>>>>>.$463*21&.. .$5883+. .+2&>>>>>>>>>>>>>>>>>>>>>>>>",
":::::::::::>>>.XX>>>4898668885*X @682...;34<>>>>>>>>>>>>>>>>>>>>>>>>",
":::::::::::>> ..X.>$49998-588888+.+*O.o*889884>>>>>>>>>>>>>>>>>>>>>>",
":::::::::::>> .....@189888578788O.....%45889988>>>>>>>>>>>>>>>>>>>>>",
":::::::::::>>  ....o<88887-;111<......@;<3788987>>>>>>>>>>>>>>>>>>>>",
":::::::::>>>> ......##%87,##$&=@......o#*<258888,>>>>>>>>>>>>>>>>>>>",
":::::::::>>>>>    ..X@$;-+o@@@$X...+o .O+&,145$#3->>>>>>>>>>>>>>>>>>",
":::::::::>>>>>>>   ....#@>.Xo+#  .O+O..XXo@$=69968>>>>>>>>>>>>>>>>>>",
":::::::::>>>>>>>>     ..>>>>XoX..oooo......@689965>>>>>>>>>>>>>>>>>>",
":::::::::>>>>>>>>>>    .>>>>>>....X....  ..,889981>>>>>>>>>>>>>>>>>>",
":::::::::>>>>>>>>>>>  >>>>>>>>>>>>>>>>>>>>>288998%>>>>>>>>>>>>>>>>>>",
":::::::::>>>>>>>>>>>>>>>>>>>>>>>>>>>>>>>>>o188987#>>>>>>>>>>>>>>>>>>",
":::::::::>>>>>>>>>>>>>>>>>>>>>>>>>>>>>>>>>.;78986>>>>>>>>>>>>>>>>>>>",
":::::::::>>>>>>>>>>>>>>>>>>>>>>>>>>>>>>>>>.%58986>>>>>>>>>>>>>>>>>>>",
":::::::::>>>>>>>>>>>>>>>>>>>>>>>>>>>>>>>>>>+2898,>>>>>>>>>>>>>>>>>>>",
":::>>>>>>>>>>>>>>>>>>>>>>>>>>>>>>>>>>>>>>>>X<888=>>>#@O@>>>>>>>>>>>>",
":::>>>>>>>>>>>>>>>>>>>>>>>>>>>>>>>>>>>>>>>>><833;>o......>>>>>>>>>>>",
":::>>>>>>>>>>>>>>>>>>>>>>>>>>>>>>>>>>>>>>>>>-,-3&X...... >>>>>>>>>>>",
":::>>>>>>>>>>>>>>>>>>>>>>>>>>>>>>>>>>>>>>>>>**#o.       >>>>>>>>>>>>",
":::>>>>>>>>>>>>>>>>>>>>>>>>>>>>>>>>>>>>>>>>>.....      >>>>>>>>>>>>>",
":::>>>>>>>>>>>>>>>>>>>>>>>>>>>>>>>>>>>>>>>>>  .       >>>>>>>>>>>>>>",
":::>>>>>>>>>>>>>>>>>>>>>>>>>>>>>>>>>>>>>>>>>     >>>>>>>>>>>>>>>>>>>"
};
