/* XPM */
static char *_081fc0310554ff6fed28acafaaf7261Vnhf3MjHsAiHqcGB[] = {
/* columns rows colors chars-per-pixel */
"68 68 28 1 ",
"  c #090B0B",
". c #0E0E13",
"X c #151515",
"o c #1E1E1E",
"O c #272727",
"+ c #313131",
"@ c gray23",
"# c #464646",
"$ c #515151",
"% c #555555",
"& c #5D5D5D",
"* c gray38",
"= c #717171",
"- c #797979",
"; c gray49",
": c none",
"> c none",
", c gray56",
"< c #979797",
"1 c gray61",
"2 c #A5A5A5",
"3 c #AEAEAE",
"4 c #B7B7B7",
"5 c #C5C5C5",
"6 c gray81",
"7 c gray85",
"8 c #E2E2E2",
"9 c #FBFBFB",
/* pixels */
"::::::::::::::::::>>>>>>>>>>>>>>>>>>>>>>>>>>>>>>>>>>>>>>>>>>::::::::",
"::::::::::::::::::>>>>>>>>>>>>>>>>>>>>>>>>>>>>>>>>>>>>>>>>>>::::::::",
"::::::::::::::::>>>>>>>>>>>>>>>>>>>>>>>>>>>>>>>>>>>>>>>>>>>>>>>>>>>>",
"::::::::::::>>::>>>>>>>>>>>>>>>>>>>>>>>>>>>>>>>>>>>>>>>>>>>>>>>>>>>>",
"::::::::::::>>>>>>>>>>>>>>>>>>>>>>>>>>>>>>>>>>>>>>>>>>>>>>>>>>>>>>>>",
"::::::::::::>>>>>>>>>>>>>>>>>>>>>>>>>>>>>>>>>>>>>>>>>>>>>>>>>>>>>>>>",
"::::::::::::>>>>>>>>>>>>>>>>>>>>>>>>>>>>>>>>>>>>>>>>>>>>>>>>>>>>>>>>",
"::::::::::::>>>>>>>>>>>>>>>>>>>>>>>>>>>>>>>>>>>>>>>>>>>>>>>>>>>>>>>>",
"::::::::::::>>>>>>>>>>>>>>>>>>>>>>>>>>>>>>>>>>>>>>>>>>>>>>>>>>>>>>>>",
"::::::::::::>>>>>>>>>>>>>>>>>>>>>>>>>>>>>>>>>>>>>>>>>>>>>>>>>>>>>>>>",
"::::::::::::>>>>>>>>>>>>>>>>>>>>>>>>>>>>>>>>>>>>>>>>>>>>>>>>>>>>>>>>",
"::::::::::::>>>>>>>>>>>>>>>>>>>>>>>>>>>>>>>>>>>>>>>>>>>>>>>>>>>>>>>>",
":::::::::::>>>>>>>>>>>>>>>>>>>>>>>>>>>>>>>>>>>>>>>>>>>>>>>>>>>>>>>>>",
">>>>>>>>>>>>>>>>>>>>>>>>>>>>>>>>>>>>..>>>>>>>>>>>>>>>>>>>>>>>>>>>>>>",
">>>>>>>>>>>>>>>>>>>>>>>>>>>>>>>>>>>>.X. >>>>>>>>>>>>>>>>>>>>>>>>>>>>",
">>>>>>>>>>>>>>>>>>>>>>>>>>>>>>>>>>>>.. >>>>>>>>>>>>>>>>>>>>>>>>>>>>>",
">>>>>>>>>>>>>>>>>> >>>>>>>>>>>>>>>>>   >>>>>>>>>>>>>>>>>>>>>>>>>>>>>",
">>>>>>>>>>>>>>>> .. >>>>>>>>>>>>>>>>   >>>>>>>>>>>>>>>>>>>>>>>>>>>>>",
">>>>>>>>>>>>>>>o ...>>>>>>>>>>>>>>>>   >>>>>>>>>>>>>>>>>>>>>>>>>>>>>",
">>>>>>>>>>>>>>>$ ..>. >>>>>>>>>>>>>>  >>>>>>>>>>>>>>>>>>>>>>>>>>>>>>",
">>>>>>>>>>>>>>>*  .. >>>>>>>>>>>>>>>  .oXoX>>>>>>>>>>>>>>>>>>>>>>>>>",
">>>>>>>>>>>>>>>o    >>>>>>>>>>>>>>>>       >>>>>>>>>>>>>>>>>>>>>>>>>",
">>>>>>>>>>>>>>>X  @>>>>>>>O$4,$+>>>> .>>>>>>>>>>>>>>>>>>>>>>>>>>>>>>",
">>>>>>>>>>>>>> oOO%>>>>>>o*-766<+>>>   >>>>>>>>>>>>>>>>>>>>>>>>>>>>>",
">>>>>>>>>>>>>>.+#*=>>>>>.$,2,8-$8#>  ..>>>>>>>>>>>>>>>>>>>>>>>>>>>>>",
">>>>>>>>>>>>>>.+$,<>>>>>o-&,.<&o&5> ...@>>>>>>>>>>>>>>>>>>>>>>>>>>>>",
">>>>>>>>>>>>>>.+#-1>>>>>+&O&o$-;-$<@...&>>>>>>>>>>>>>>>>>>>>>>>>>>>>",
">>>>>>>>>>>>>>o+$-2>>>>>o&=;O ...X##.. *>>>>>>>>>>>>>>>>>>>>>>>>>>>>",
">>>>>>>>>>>>>>O#==1>>>>.Xo.    .+#<4>  +=>>>>>>>>>>>>>>>>>>>>>>>>>>>",
">>>>>>>>>>>>>>O#-,,>>>>.XXo#=<6788888$.@1>>>>>>>>>>>>>>>>>>>>>>>>>>>",
">>>>>>>>>>>>>>.&;-;,=>>+-455777888=788+@=,>>>>>>>>>>>>>>>>>>>>>>>>>>",
">>>>>>>>>>>>>>>.oX.&,26*<55677785<+O68<O#-,>>>>>>>>>>>>>>>>>>>>>>>>>",
">>>>>>>>>>>>>>>>.X++$-;@<4552==$oooo@55O+%;&>>>>>>>>>>>>>>>>>>>>>>>>",
">>>>>>>>>>>>>>>>>oooO#@#<43&-11@OooOoO,@O@*->>>>>>>>>>>>>>>>>>>>>>>>",
">>>>>>>>>>>>>>>>>XoooX.O;,$58883##+$#@oooO@*>>>>>>>>>>>>>>>>>>>>>>>>",
">>>>>>>>>>>>>>>>>>Xo#o XO@188<8886188215.ooo>>>>>>>>>>>>>>>>>>>>>>>>",
">>>>>>>>>>>>>>>>>>>X#  ..#1885=1678,<8561>>>>>>>>>>>>>>>>>>>>>>>>>>>",
">>>>>>>>>>>>>>>>>>>>>...*&;6,,58899887o=53>>>>>>>>>>>>>>>>>>>>>>>>>>",
">>>>>>>>>>>>>>>>>>>>>>>>%2<%..@388897O .25>>>>>>>>>>>>>>>>>>>>>>>>>>",
":::::::::::>>>>>>>>>#>>,55;*@..X1888&..*o%->>>>>>>>>>>>>>>>>>>>>>>>>",
":::::::::::>>>>>>>>25534888888# O285o.@87852>>>>>>>>>>>>>>>>>>>>>>>>",
":::::::::::>>>>>>>*189875888888# o%@..&899973>>>>>>>>>>>>>>>>>>>>>>>",
":::::::::::>>>>>>>$18998,388867+.....#88899982>>>>>>>>>>>>>>>>>>>>>>",
":::::::::::>>>>>>>O1899882211<,......%24888997>>>>>>>>>>>>>>>>>>>>>>",
":::::::::::>>>>>>>O-89988,#$%%O..... O*14888998>>>>>>>>>>>>>>>>>>>>>",
":::::::::::>>>>>>>.-89988,++++    .. .+*1488889<>>>>>>>>>>>>>>>>>>>>",
":::::::::::>>>>>>>.-89986@.OOO  >>>o..XO*1488888>>>>>>>>>>>>>>>>>>>>",
":::::::::::>> ..O>o&8988<@>>>>>>>>>>>>..O%<4881@+>>>>>>>>>>>>>>>>>>>",
":::::::::::>> ....X*8888<>>>>>>>>>>>>>>..o$<3##22>>>>>>>>>>>>>>>>>>>",
":::::::::::>>    ..#4886>>>>>>>>>>>>>>>>..o+-5538,>>>>>>>>>>>>>>>>>>",
":::::::::::>>      .*#+;>>>>>>>>>>>>>>>>>..=78835,>>>>>>>>>>>>>>>>>>",
":::::::::>>>>>     .O341>>>>>>>>>>>>>>>>>>.288835>>>>>>>>>>>>>>>>>>>",
":::::::::>>>>>>    .Xo$4>>>>>>>>>>>>>>>>>>+288983>>>>>>>>>>>>>>>>>>>",
":::::::::>>>>>>>>   .  X>>>>>>>>>>>>>>>>>>+288985>>>>>>>>>>>>>>>>>>>",
":::::::::>>>>>>>>>      >>>>>>>>>>>>>>>>>>+178985>>>>>>>>>>>>>>>>>>>",
":::::::::>>>>>>>>>>    >>>>>>>>>>>>>>>>>>>O,58985>>>>>>>>>>>>>>>>>>>",
":::::::::>>>>>>>>>>>>>>>>>>>>>>>>>>>>>>>>>.=48984>>>>>>>>>>>>>>>>>>>",
":::::::::>>>>>>>>>>>>>>>>>>>>>>>>>>>>>>>>>>#18981>>>>>>>>>>>>>>>>>>>",
":::::::::>>>>>>>>>>>>>>>>>>>>>>>>>>>>>>>>>>o,798,>>>>>>>>>>>>>>>>>>>",
":::::::::>>>>>>>>>>>>>>>>>>>>>>>>>>>>>>>>>>.*688,>>>>>>>>>>>>>>>>>>>",
":::::::::>>>>>>>>>>>>>>>>>>>>>>>>>>>>>>>>>>>$588,>>>>*=>>>>>>>>>>>>>",
":::>>>>>>>>>>>>>>>>>>>>>>>>>>>>>>>>>>>>>>>>>+5883>>@....>>>>>>>>>>>>",
":::>>>>>>>>>>>>>>>>>>>>>>>>>>>>>>>>>>>>>>>>>@4131%..     >>>>>>>>>>>",
":::>>>>>>>>>>>>>>>>>>>>>>>>>>>>>>>>>>>>>>>>>O=;<*X      >>>>>>>>>>>>",
":::>>>>>>>>>>>>>>>>>>>>>>>>>>>>>>>>>>>>>>>>>>,-#.      >>>>>>>>>>>>>",
":::>>>>>>>>>>>>>>>>>>>>>>>>>>>>>>>>>>>>>>>>>>X..     >>>>>>>>>>>>>>>",
":::>>>>>>>>>>>>>>>>>>>>>>>>>>>>>>>>>>>>>>>>>>      >>>>>>>>>>>>>>>>>",
":::>>>>>>>>>>>>>>>>>>>>>>>>>>>>>>>>>>>>>>>>>>>   >>>>>>>>>>>>>>>>>>>"
};
