/* XPM */
static char *_843adb9a5644280e049ff7fc1f4b24cG93JDkUnS0dlRyrt[] = {
/* columns rows colors chars-per-pixel */
"68 68 30 1 ",
"  c #090B0B",
". c #0E0E13",
"X c #151515",
"o c #1E1E1E",
"O c #272727",
"+ c #313131",
"@ c gray23",
"# c #464646",
"$ c #515151",
"% c #555555",
"& c #5D5D5D",
"* c gray38",
"= c DimGray",
"- c #717171",
"; c #797979",
": c gray49",
"> c none",
", c none",
"< c gray56",
"1 c #979797",
"2 c gray61",
"3 c #A5A5A5",
"4 c #AEAEAE",
"5 c #B7B7B7",
"6 c #C1C1C1",
"7 c #C5C5C5",
"8 c gray81",
"9 c gray85",
"0 c #E2E2E2",
"q c #FBFBFB",
/* pixels */
">>>>>>>>>>>>>>>>>>,,,,,,,,,,,,,,,,,,,,,,,,,,,,,,,,,,,,,,,,,,>>>>>>>>",
">>>>>>>>>>>>>>>>>>,,,,,,,,,,,,,,,,,,,,,,,,,,,,,,,,,,,,,,,,,,>>>>>>>>",
">>>>>>>>>>>>>>>>>>,,,,,,,,,,,,,,,,,,,,,,,,,,,,,,,,,,,,,,,,,,,,,,,,,,",
">>>>>>>>>>>>,,>>,,,,,,,,,,,,,,,,,,,,,,,,,,,,,,,,,,,,,,,,,,,,,,,,,,,,",
">>>>>>>>>>>>,,,,,,,,,,,,,,,,,,,,,,,,,,,,,,,,,,,,,,,,,,,,,,,,,,,,,,,,",
">>>>>>>>>>>>,,,,,,,,,,,,,,,,,,,,,,,,,,,,,,,,,,,,,,,,,,,,,,,,,,,,,,,,",
">>>>>>>>>>>>,,,,,,,,,,,,,,,,,,,,,,oX,,,,,,,,,,,,,,,,,,,,,,,,,,,,,,,,",
">>>>>>>>>>>>,,,,,,,,,,,,,,,,,,,,,.XX ,,,,,,,,,,,,,,,,,,,,,,,,,,,,,,,",
">>>>>>>>>>>>,,,,,,,,,,,,,,,,,,,,, .. ,,,,,,,,,,,,,,,,,,,,,,,,,,,,,,,",
">>>>>>>>>>>>,,,,,,,,,,,,,,,,,,,,,    ,,,,,,,,,,,,,,,,,,,,,,,,,,,,,,,",
">>>>>>>>>>>>,,,,,,,,,,,,,,,,,,,,,    ,,,,,,,,,,,,,,,,,,,,,,,,,,,,,,,",
">>>>>>>>>>>>,,,,,, .,,,,o;90qq0-,    ,,,,,,,,,,,,,,,,,,,,,,,,,,,,,,,",
">>>>>>>>>>>>,,,,,   .,,o12-=31-;#,  ..,,.,,,,,,,,,,,,,,,,,,,,,,,,,,,",
",,,,,,,,,,,,,,,,oo.. .,oOO&908$+O,  XoXX.,,,,,,,,,,,,,,,,,,,,,,,,,,,",
",,,,,,,,,,,,,,,,.$....,..#1;$5542,    ,,,,,,,,,,,,,,,,,,,,,,,,,,,,,,",
",,,,,,,,,,,,,,,,.= ,,,,.$2;$05370< . ,,,,,,,,,,,,,,,,,,,,,,,,,,,,,,,",
",,,,,,,,,,,,,,,,ooX,,,,.%<<1-10074  .,,,,,,,,,,,,,,,,,,,,,,,,,,,,,,,",
",,,,,,,,,,,,,,,.Xo.,,,,o@:23@O1-@o ..,,,,,,,,,,,,,,,,,,,,,,,,,,,,,,,",
",,,,,,,,,,,,,,,.O##,,,,$;2X+..&$#O...,,,,,,,,,,,,,,,,,,,,,,,,,,,,,,,",
",,,,,,,,,,,,,,,o+##,,,.oO#&-@.ooo....,,,,,,,,,,,,,,,,,,,,,,,,,,,,,,,",
",,,,,,,,,,,,,, o+@$,,,,XX.  ..Xo#-o  @$,,,,,,,,,,,,,,,,,,,,,,,,,,,,,",
",,,,,,,,,,,,,,.O+@#,,,XooO$:<499000$ o287,,,,,,,,,,,,,,,,,,,,,,,,,,,",
",,,,,,,,,,,,,,.o+#$=<-$:480000000007OO<237,,,,,,,,,,,,,,,,,,,,,,,,,,",
",,,,,,,,,,,,,,.o+@$:15#30909000000007O%<1;<,,,,,,,,,,,,,,,,,,,,,,,,,",
",,,,,,,,,,,,,,,.oO+%#&X$<45500002%000=+$:<;,,,,,,,,,,,,,,,,,,,,,,,,,",
",,,,,,,,,,,,,,,,.XOoooX#-3470007OO#004OO$<-,,,,,,,,,,,,,,,,,,,,,,,,,",
",,,,,,,,,,,,,,,,.ooX. X#:348000-oo#00-oo+&<,,,,,,,,,,,,,,,,,,,,,,,,,",
",,,,,,,,,,,,,,,,,,OOX .#;37895%ooo@;+ooXO+@,,,,,,,,,,,,,,,,,,,,,,,,,",
",,,,,,,,,,,,,,,,,,,,...+-277-+OOOooooOo,,,,,,,,,,,,,,,,,,,,,,,,,,,,,",
",,,,,,,,,,,,,,,,,,,,,,,o%1-=%##$$$$$#OOX,,,,,,,,,,,,,,,,,,,,,,,,,,,,",
",,,,,,,,,,,,,,,,,,,,,,,.##=-@@@#$$#&;%+O,,,,,,,,,,,,,,,,,,,,,,,,,,,,",
",,,,,,,,,,,,,,,,,,,,,,,.o@1#@+-#$=100519,,,,,,,,,,,,,,,,,,,,,,,,,,,,",
",,,,,,,,,,,,,,,,,,,,,,,.4%&&=5;;<002<88404,,,,,,,,,,,,,,,,,,,,,,,,,,",
",,,,,,,,,,,,,,,,,,,,,,,,22;8;@170qq000+@09,,,,,,,,,,,,,,,,,,,,,,,,,,",
",,,,,,,,,,,,,,,,,,,,,,,,=578% o<000q0-  10,,,,,,,,,,,,,,,,,,,,,,,,,,",
",,,,,,,,,,,,,,,,,,,,,,,,.:2=$+ .10000oo2%54,,,,,,,,,,,,,,,,,,,,,,,,,",
",,,,,,,,,,,,,,,,,,,,,,,,397400- O5002.;0<#2,,,,,,,,,,,,,,,,,,,,,,,,,",
",,,,,,,,,,,,,,,,,,,,,,#00qqqqq0+ &48$.20008<,,,,,,,,,,,,,,,,,,,,,,,,",
",,,,,,,,,,,,,,,,,,,,@=<700000005..++..100q00,,,,,,,,,,,,,,,,,,,,,,,,",
">>>>>>>>>>>>,,,,,,,@;:=;;000095:. . .o790qq00,,,,,,,,,,,,,,,,,,,,,,,",
">>>>>>>>>>>>,,,,,,,@%000730081-O..   -5700qq03,,,,,,,,,,,,,,,,,,,,,,",
">>>>>>>>>>>>,,,,,,,&&00002<<&$+ .,,. @-2700qq0,,,,,,,,,,,,,,,,,,,,,,",
">>>>>>>>>>>>,,,,,,,.#70q00;++O.,,,,,..O=370qqq3,,,,,,,,,,,,,,,,,,,,,",
">>>>>>>>>>>>,,,,,,,,#50q004OO,,,,,,,, X@;380qq0,,,,,,,,,,,,,,,,,,,,,",
">>>>>>>>>>>>,,,,,,,,@30q008,,,,,,,,,,,.o@:490qq:,,,,,,,,,,,,,,,,,,,,",
">>>>>>>>>>>>,,,,,,,,o<0q005,,,,,,,,,,,,.o#<500q9,,,,,,,,,,,,,,,,,,,,",
">>>>>>>>>>>>,,,,,,,,X<0q002,,,,,,,,,,,,,.o$17000,,,,,,,,,,,,,,,,,,,,",
">>>>>>>>>>>>,,,,,,,,.=0q00&,,,,,,,,,,,,,,.O&25-..,,,,,,,,,,,,,,,,,,,",
">>>>>>>>>>>>,,,,,,,, =0q05,,,,,,,,,,,,,,,,.+&o#0q,,,,,,,,,,,,,,,,,,,",
">>>>>>>>>>>>,,,,,,,,,#0q05,,,,,,,,,,,,,,,,,.@=;07#,,,,,,,,,,,,,,,,,,",
">>>>>>>>>>>>,,,,,,,,,#000<,,,,,,,,,,,,,,,,,#65;;2,,,,,,,,,,,,,,,,,,,",
">>>>>>>>>,,,,,,,,,,,,#000<,,,,,,,,,,,,,,,,,399;;2,,,,,,,,,,,,,,,,,,,",
">>>>>>>>>,,,,,,,X..#,#%<9,,,,,,,,,,,,,,,,,,399<<<,,,,,,,,,,,,,,,,,,,",
">>>>>>>>>,,,,,,,     o&=%=,,,,,,,,,,,,,,,,X39633<,,,,,,,,,,,,,,,,,,,",
">>>>>>>>>,,,,,,,      $807,,,,,,,,,,,,,,,,.36254<,,,,,,,,,,,,,,,,,,,",
">>>>>>>>>,,,,,,,       %85,,,,,,,,,,,,,,,,.*<<44<,,,,,,,,,,,,,,,,,,,",
">>>>>>>>>,,,,,,,,,     .o&,,,,,,,,,,,,,,,,,O%<331,,,,,,,,,,,,,,,,,,,",
">>>>>>>>>,,,,,,,,,,,      ,,,,,,,,,,,,,,,,,.#;221,,,,,,,,,,,,,,,,,,,",
">>>>>>>>>,,,,,,,,,,,,     ,,,,,,,,,,,,,,,,,,+=21:,,,,,,,,,,,,,,,,,,,",
">>>>>>>>>,,,,,,,,,,,,,,,,,,,,,,,,,,,,,,,,,,,X&22-,,,,,,,,,,,,,,,,,,,",
">>>>>>>>>,,,,,,,,,,,,,,,,,,,,,,,,,,,,,,,,,,,.&27;,,,,,,,,,,,,,,,,,,,",
">>>>>>>>>,,,,,,,,,,,,,,,,,,,,,,,,,,,,,,,,,,,,&374,,,,,,,,,,,,,,,,,,,",
">>>>>>>>>,,,,,,,,,,,,,,,,,,,,,,,,,,,,,,,,,,,,=508,,,,,,,,,,,,,,,,,,,",
">>>>>>>>>,,,,,,,,,,,,,,,,,,,,,,,,,,,,,,,,,,,,=22431,,74,,,,,,,,,,,,,",
">>>>>>>>>,,,,,,,,,,,,,,,,,,,,,,,,,,,,,,,,,,,,+%--$@@O.. ,,,,,,,,,,,,",
">>>>>>>>>,,,,,,,,,,,,,,,,,,,,,,,,,,,,,,,,,,,,#;=@.      ,,,,,,,,,,,,",
">>>>>>>>>,,,,,,,,,,,,,,,,,,,,,,,,,,,,,,,,,,,,XO.    ,,,,,,,,,,,,,,,,",
">>>>>>>>>,,,,,,,,,,,,,,,,,,,,,,,,,,,,,,,,,,,,     ,,,,,,,,,,,,,,,,,,"
};
