/* XPM */
static char *aedd203bfbd4482acbd7ef326b296c41XoWMty622Su4Il0l[] = {
/* columns rows colors chars-per-pixel */
"4 7 56 1 ",
"  c #202020",
". c #2C2C2C",
"X c none",
"o c gray22",
"O c #00FF00",
"+ c #4C0000",
"@ c #580000",
"# c #640000",
"$ c #700000",
"% c #7C0000",
"& c #543C1C",
"* c #585400",
"= c #706C00",
"- c #744C28",
"; c #400040",
": c #480048",
"> c #500050",
", c #580058",
"< c #600064",
"1 c #6C0070",
"2 c gray25",
"3 c #484848",
"4 c gray33",
"5 c #646464",
"6 c gray44",
"7 c #7C7C7C",
"8 c #880000",
"9 c #980000",
"0 c #A40000",
"q c #B00000",
"w c #BC0000",
"e c #C80000",
"r c #D40000",
"t c #E00000",
"y c #EC0000",
"u c #FC0000",
"i c #FC2020",
"p c #B45400",
"a c #CC6000",
"s c #FC7800",
"d c #A86840",
"f c #848400",
"g c #9C9C00",
"h c #FC8820",
"j c #CCC400",
"k c #E4D800",
"l c #FCF400",
"z c #E88C58",
"x c #840084",
"c c #9C009C",
"v c gray55",
"b c #989898",
"n c gray66",
"m c #B4B4B4",
"M c #C0C0C0",
"N c #D0D0D0",
/* pixels */
"XXXX",
"XOXX",
"XOXX",
"XOXX",
"XOXX",
"XOXX",
"XXXX"
};
