/* XPM */
static char *result[] = {
/* columns rows colors chars-per-pixel */
"68 68 40 1 ",
"  c #090B0B",
". c #0E0E13",
"X c #151515",
"o c #131318",
"O c #181818",
"+ c #1E1E1E",
"@ c gray13",
"# c #272727",
"$ c #2A2A2A",
"% c #313131",
"& c #343434",
"* c gray23",
"= c #3F3F3F",
"- c #010051",
"; c #464646",
": c gray29",
"> c #43495D",
", c #515151",
"< c #555555",
"1 c #5D5D5D",
"2 c gray38",
"3 c DimGray",
"4 c #717171",
"5 c #797979",
"6 c gray49",
"7 c none",
"8 c none",
"9 c #868686",
"0 c gray56",
"q c #979797",
"w c gray61",
"e c #A5A5A5",
"r c #AEAEAE",
"t c #B7B7B7",
"y c #C1C1C1",
"u c #C5C5C5",
"i c gray81",
"p c gray85",
"a c #E2E2E2",
"s c #FBFBFB",
/* pixels */
"77777777777777777777777777777888888888888777777777777777777777777777",
"77777777777777777888888888888888888888888888888887777777777777777777",
"88888888888888888888888888888888%12*88888888888887777777777777777777",
"88888888888888888888888888888;wpaasssi888888888888777777777777777777",
"8888888888888888888888888888*5qrspuussa88888888888777777777777777777",
"8888888888888888888888888888%#29e924rai88888888888777777777777777777",
"888888888888888888888888888.X#:5wtpaaaaw8888888888777777777777777777",
"888888888888888888888888888 #1w49wuaaapt8888888888777777777777777777",
"888888888888888888888888888.#+:6wriassie8888888888777777777777777777",
"888888888888888888888888888.%2urpaaasssa9888888888777777777777777777",
"888888888888888888888888888.15tqeuaaaaaai888888888777777777777777777",
"888888888888888888888888888%#+*#%##%*;::*888888888777777777777777777",
"88888888888888888888888888.+.+.*+.     88888888888777777777777777777",
"888888888888888888888888888+5iaraaiuueqwua9;<88888888888888888888888",
"88888888888888888888888888%eaaarraaaaaasssa29t8888888888888888888888",
"8888888888888888888888888X9riaaaraewaqqeppiu9pw888888888888888888888",
"8888888888888888888888888;9wtuurwie6aauipiiu99w888888888888888888888",
"888888888888888888888888.149weq59ur4auuuiiptw14888888888888888888888",
"888888888888888888888888%14699425ee1rqwuprwre<<888888888888888888888",
"888888888888888888888888:146952%<ww1wuqruwwwe::888888888888888888888",
"88888888888888888888888+12566<;+,qw<12444244<:;888888888888888888888",
"888888888888888888888888+%%%#. %=9e4;*******%+8888888888888888888888",
"88888888888888888888888.+#%*# X#=4951222<:;*%88888888888888888888888",
"8888888888888888888888.##*::X.#&;4999999651;%88888888888888888888888",
"88888888888888888888888;<21*+@@%<22222221<<*%88888888888888888888888",
"8888888888888888888888#.#;;+X@$++%%%****%#X+X88888888888888888888888",
"8888888888888888888888.   .XXXXo+++##$$$##@+=88888888888888888888888",
"8888888888888888888888......+O@#&:;<1rapptrr3>8888888888888888888888",
"8888888888888888888888.#.  ;%$*;114<@5iyyq962:8888888888888888888888",
"8888888888888888888888888 .5:%1900q9*#*%%%%#O88888888888888888888888",
"88888888888888888888888888.52*40eer0=&@@@@@OO88888888888888888888888",
"88888888888888888888888888.42;6wrtuye63;:%$$-88888888888888888888888",
"88888888888888888888888888++#=5wttiaptw941;;.88888888888888888888888",
"88888888888888888888888888*  o@:1tpapureq0,&.88888888888888888888888",
"88888888888888888888888888*  ....#*349tre3=@%88888888888888888888888",
"88888888888888888888888888<      .o#%::=+O  %88888888888888888888888",
"88888888888888888888888888:8          .....X888888888888888888888888",
"888888888888888888888888888..+*69qrrr*  .  X888888888888888888888888",
"888888888888888888888888888.X26wtuppu3.  . 8888888888888888888888888",
"888888888888888888888888888 #;19etiap0#  # 8888888777777777777777777",
"8888888888888888888888888888.#19etiaai####88888888777777777777777777",
"8888888888888888888888888888.#14qtiaai####88888888777777777777777777",
"88888888888888888888888888888.*4qeuaau<%#888888888777777777777777777",
"88888888888888888888888888888.+;5qripp9#8888888888777777777777777777",
"888888888888888888888888888888.#<6wuppu.8888888888777777777777777777",
"888888888888888888888888888888.X%29rppu88888888888777777777777777777",
"88888888888888888888888888888...+;5wipp98888888888777777777777777777",
"88888888888888888888888888888 .+.#1quapu8888888888777777777777777777",
"888888888888888888888888888888....*4e0648888888888777777777777777777",
"888888888888888888888888888888X+..+:*XXX%888888888777777777777777777",
"88888888888888888888888888888.X#%%1+XXX5w888888888777777777777777777",
"88888888888888888888888888888.+##%:*1etaap88888888777777777777777777",
"88888888888888888888888888888.++#%#,;qiaaaa8888888777777777777777777",
"88888888888888888888888888888.++###8X2waaaa8888888777777777777777777",
"88888888888888888888888888888X+#+++8.%4epapr888888777777777777777777",
"88888888888888888888888888888X+#++888.;6taui888888777777777777777777",
"88888888888888888888888888888X#%#.888 +:qiur888888777777777777777777",
"8888888888888888888888888888.+#%#88888.%4rau888888777777777777777777",
"88888888888888888888888..888X#%%8888888.;qpu888888777777777777777777",
"8888888888888888888888 .X..X#%**88888888#4uat88888777777777777777777",
"88888888888888888888888 .X..+%%+88888888.:eap88888777777777777777777",
"8888888888888888888888888 ..+%%8888888888#9iaw8888777777777777777777",
"88888888888888888888888888 .###8888888888+4eu68888777777777777777777",
"888888888888888888888888888 .. 888888888#**5ww8888777777777777777777",
"88888888888888888888888888888888888888##62;2qw1888777777777777777777",
"888888888888888888888888888888888888:5541::<56<888777777777777777777",
"88888888888888888888888888888888888 .X+XXXX+#+X888777777777777777777",
"888888888888888888888888888888888888888888    8888777777777777777777"
};
