/* XPM */
static char *result[] = {
/* columns rows colors chars-per-pixel */
"68 68 38 1 ",
"  c #090B0B",
". c #0E0E13",
"X c #151515",
"o c #131318",
"O c #181818",
"+ c #1E1E1E",
"@ c gray13",
"# c #272727",
"$ c #2A2A2A",
"% c #313131",
"& c #343434",
"* c gray23",
"= c #3F3F3F",
"- c #464646",
"; c gray29",
": c #515151",
"> c #555555",
", c #5D5D5D",
"< c gray38",
"1 c DimGray",
"2 c #717171",
"3 c #797979",
"4 c gray49",
"5 c none",
"6 c none",
"7 c #868686",
"8 c gray56",
"9 c #979797",
"0 c gray61",
"q c #A5A5A5",
"w c #AEAEAE",
"e c #B7B7B7",
"r c #C1C1C1",
"t c #C5C5C5",
"y c gray81",
"u c gray85",
"i c #E2E2E2",
"p c #FBFBFB",
/* pixels */
"55555555555555555566666666666666666666666666666655555555555555555555",
"55555555555555555666666666666666%***66666666666665555555555555555555",
"66666666666666666666666666666-0piippiw666666666665555555555555555555",
"6666666666666666666666666666*39euiptiii66666666666555555555555555555",
"666666666666666666666666666.%#,7q0120iy66666666666555555555555555555",
"666666666666666666666666666.X#;30euiiii06666666666555555555555555555",
"666666666666666666666666666 %,w370tiiiue6666666666555555555555555555",
"666666666666666666666666666.#+>40wuppuyq6666666666555555555555555555",
"666666666666666666666666666.%,uwipppiiii4666666666555555555555555555",
"666666666666666666666666666.,2e9qtiiiiiiy666666666555555555555555555",
"666666666666666666666666666##+*%%#%%**;;*666666666555555555555555555",
"66666666666666666666666666.+.XX#%..    66666666666555555555555555555",
"66666666666666666666666666 .,qiiupittq77ee,>666666555555555555555555",
"6666666666666666666666666664tppwippiiiipppi;e36666666666666666666666",
"66666666666666666666666666>0ppii7ii3yw990yye7u6666666666666666666666",
"6666666666666666666666666+29iiyt<eu7qiytitte994666666666666666666666",
"6666666666666666666666666*2i0qq7-0t04twwyyeew11666666666666666666666",
"666666666666666666666666.;147972;3w03t7wtw00q1-666666666666666666666",
"666666666666666666666666%1277721-2q02tw0eq9701%666666666666666666666",
"666666666666666666666666-13773;#;1q0;1121111;;6666666666666666666666",
"666666666666666666666666.+%#%X o%200;*******#66666666666666666666666",
"666666666666666666666 . X+%**..+%3791,,>,;-*%66666666666666666666666",
"66666666666666666666666.*-;;%.X@*277777743>*+66666666666666666666666",
"66666666666666666666666->12,+OO#&>121111,>;*666666666666666666666666",
"6666666666666666666666%.X%;%XX$##%%%****%#+X666666666666666666666666",
"6666666666666666666666+.   +ooXo+++##$$$##@++66666666666666666666666",
"6666666666666666666666XX....XO@#&;->,wiuueww1*6666666666666666666666",
"66666666666666666666666+6 6$#$*-,,2>@3yrr974<%6666666666666666666666",
"66666666666666666666666666.=%%,78897*#*%%%%#O66666666666666666666666",
"66666666666666666666666666.=%*28qqw8=&@@@@@OO66666666666666666666666",
"66666666666666666666666666 %#%40wetrq41-;%$$.66666666666666666666666",
"66666666666666666666666666+X@%30eeyiue072,--.66666666666666666666666",
"66666666666666666666666666#  o@;,euiutwq98:&.66666666666666666666666",
"66666666666666666666666666-  ....&,wreewq1-O*66666666666666666666666",
"666666666666666666666666663 .    .X&,,,;+.  *66666666666666666666666",
"6666666666666666666666666 7%#+            .X666666666666666666666666",
"666666666666666666666666666+*13,*;%+       X666666666666666666666666",
"666666666666666666666666666.%170qew02+.  ..6666666666666666666666666",
"666666666666666666666666666.+;390etw7#%**%.6666666666666666666666666",
"666666666666666666666666666..*140wtw7***%%.6666666555555555555555555",
"6666666666666666666666666666.#;27qtw0***%%66666666555555555555555555",
"6666666666666666666666666666.#;27qtw0***%%66666666555555555555555555",
"6666666666666666666666666666.#;27qtw0***%666666666555555555555555555",
"6666666666666666666666666666 X*130eq9**%%666666666555555555555555555",
"66666666666666666666666666666.#;27wq9-*%6666666666555555555555555555",
"66666666666666666666666666666.+-17wq9-%#6666666666555555555555555555",
"666666666666666666666666666666.%17w07>*66666666666555555555555555555",
"666666666666666666666666666666.#;4weqq+;6666666666555555555555555555",
"6666666666666666666666666666666+-2-##-,7w666666666555555555555555555",
"6666666666666666666666666666666.*#...#7eiw66666666555555555555555555",
"6666666666666666666666666666666X......wiiu66666666555555555555555555",
"6666666666666666666666666666666.*70yiyqiiit6666666555555555555555555",
"66666666666666666666666666666666*7tiiieqiii6666666555555555555555555",
"66666666666666666666666666666666+2qyiyy,eii6666666555555555555555555",
"66666666666666666666666666666666.;7wuee%2yiu666666555555555555555555",
"66666666666666666666666666666666.%19ew0X+7iit66666555555555555555555",
"666666666666666666666666666666666+;30046 -quw26666555555555555555555",
"666666666666666666666666666666666.*174166X10ty6666555555555555555555",
"666666666666666666666666666666666.%,77-666.1ty7666555555555555555555",
"6666666666666666666666666666666666#,706666.-0ew666555555555555555555",
"6666666666666666666666666666666666+,00666+.X*;%666555555555555555555",
"6666666666666666666666666666666666+1ww6--#.    666555555555555555555",
"6666666666666666666666666666666666%4ei9.   6666666555555555555555555",
"6666666666666666666666666666666666;377%66666666666555555555555555555",
"6666666666666666666666666666666663->39366666666666555555555555555555",
"6666666666666666666666666666647731;>49366666666666555555555555555555",
"6666666666666666666666666666.+%*%%%%;;*66666666666555555555555555555",
"66666666666666666666666666666       .. 66666666666555555555555555555"
};
