/* XPM */
static char *result[] = {
/* columns rows colors chars-per-pixel */
"68 68 39 1 ",
"  c #090B0B",
". c #0E0E13",
"X c #151515",
"o c #131318",
"O c #181818",
"+ c #1E1E1E",
"@ c gray13",
"# c #272727",
"$ c #2A2A2A",
"% c #313131",
"& c #343434",
"* c gray23",
"= c #3F3F3F",
"- c #010051",
"; c #464646",
": c gray29",
"> c #515151",
", c #555555",
"< c #5D5D5D",
"1 c gray38",
"2 c DimGray",
"3 c #717171",
"4 c #797979",
"5 c gray49",
"6 c none",
"7 c none",
"8 c #868686",
"9 c gray56",
"0 c #979797",
"q c gray61",
"w c #A5A5A5",
"e c #AEAEAE",
"r c #B7B7B7",
"t c #C1C1C1",
"y c #C5C5C5",
"u c gray81",
"i c gray85",
"p c #E2E2E2",
"a c #FBFBFB",
/* pixels */
"66666666666666666667777777777777777777777777777766666666666666666666",
"66666666666666666777777777777777777777777777777776666666666666666666",
"7777777777777777777777777777777%>>*777777777777776666666666666666666",
"7777777777777777777777777777;qapaaaae7777777777777666666666666666666",
"777777777777777777777777777*40eipyyppp777777777777666666666666666666",
"77777777777777777777777777.%#<8w823wpu777777777777666666666666666666",
"77777777777777777777777777.X#>4qrippppq77777777777666666666666666666",
"77777777777777777777777777 %,q38qypppir77777777777666666666666666666",
"77777777777777777777777777.%+>5qaaaaiuw77777777777666666666666666666",
"77777777777777777777777777.%<urpaappppp57777777777666666666666666666",
"77777777777777777777777777.<4r0wyppppppy7777777777666666666666666666",
"77777777777777777777777777#+X*%%#%%**;>*7777777777666666666666666666",
"7777777777777777777777777.+..X#*+.    777777777777666666666666666666",
"7777777777777777777777777 .>qpppaauyr88ww><7777777777777777777777777",
"77777777777777777777777777,yaaprpppppppaaa>e>77777777777777777777777",
"7777777777777777777777777*qyaapy8pqwu00quur8i77777777777777777777777",
"777777777777777777777777.2ypyuue<pw5piruiyr0q27777777777777777777777",
"777777777777777777777777#2pwwe04=ur3yeyyyrrw2>7777777777777777777777",
"777777777777777777777777>3580832<re2e8queqqw2%7777777777777777777777",
"77777777777777777777777+2388042*9ww2qrqreq0q<77777777777777777777777",
"77777777777777777777777%24805>*%8we>>232222>;77777777777777777777777",
"77777777777777777777777.++##+  ;4qw2******%#777777777777777777777777",
"77777777777777777777.. X+%**X.#<3803<<,>>;*#777777777777777777777777",
"7777777777777777777777.*><<;.+$=288888853>*7777777777777777777777777",
"7777777777777777777777%,23<###&=,232222<,;*7777777777777777777777777",
"777777777777777777777<..%;*X#%%+%%%****%#+X7777777777777777777777777",
"77777777777777777777 +.   +XXXo+++##$$$##@+=.77777777777777777777777",
"777777777777777777777X...7.OO@#&:;,<epiiree2u77777777777777777777777",
"7777777777777777777777+X77%#$*;<<3,@4utt0851:77777777777777777777777",
"7777777777777777777777777O*&%<89908*#*%%%%#O777777777777777777777777",
"7777777777777777777777777O$$*39wwe9=&@@@@@OO777777777777777777777777",
"7777777777777777777777777O$%;5qerytw52;:%$$-777777777777777777777777",
"7777777777777777777777777 X@=50wrupirq83<;;.777777777777777777777777",
"7777777777777777777777777%  o@:2wrpiyew09>&.777777777777777777777777",
"777777777777777777777777.> .....&<qewrew2;O7777777777777777777777777",
"777777777777777777777777#4%.    .X&<<<:+.  7777777777777777777777777",
"777777777777777777777777><#.X            XX7777777777777777777777777",
"77777777777777777777777777#*>#        XX.XX7777777777777777777777777",
"77777777777777777777777777%;,<;*X  XXX%*.+37777777777777777777777777",
"7777777777777777777777777.#;><<<>*XX+%**8re7777777666666666666666666",
"7777777777777777777777777.#;>,,<>*X+#%*4uae7777777666666666666666666",
"7777777777777777777777777.+*;>,,;*.+%*2yaae7777777666666666666666666",
"7777777777777777777777777.+*;;>>;#.+#;0yaae7777777666666666666666666",
"7777777777777777777777777.+%*;>>>#.X#2qyauq7777777666666666666666666",
"7777777777777777777777777.+%*;>>>77X#2qyuuq7777777666666666666666666",
"7777777777777777777777777.+%*;;;;77.%30rue07777777666666666666666666",
"7777777777777777777777777.+%*;;;777.%<8eue57777777666666666666666666",
"7777777777777777777777777.++#%*%7777+,5eie87777777666666666666666666",
"7777777777777777777777777.  ,0uy8777.>4wirw7777777666666666666666666",
"7777777777777777777777777##*8ipaau87;<3<<>>7777777666666666666666666",
"77777777777777777777777777.#,qupaap8#;%...+7777777666666666666666666",
"77777777777777777777777777..#>0upapu7.>qeae*777777666666666666666666",
"777777777777777777777777777 .+>8uppi8.2rpaau*77777666666666666666666",
"77777777777777777777777777777.X;8upay7*0ypppr77777666666666666666666",
"777777777777777777777777777777 .;8ppi8.,qypai77777666666666666666666",
"77777777777777777777777777777777.*8ppi%%4wiaq77777666666666666666666",
"777777777777777777777777777777777.*0ppu*;8rye77777666666666666666666",
"7777777777777777777777777777777777.;wiu2#2wue77777666666666666666666",
"77777777777777777777777777777777777.,5upw>0ue*7777666666666666666666",
"777777777777777777777777777777777777*2qii55yy*7777666666666666666666",
"777777777777777777777777777777777777,,33,%>yi57777666666666666666666",
"777777777777777777777777777777777772<*+.. ;rpp7777666666666666666666",
"7777777777777777777777777777777777<<#    72rp47777666666666666666666",
"777777777777777777777777777777777%%.  7777*4qq7777666666666666666666",
"77777777777777777777777777777777.    77777.,wr8777666666666666666666",
"77777777777777777777777777777777    7777<+.;8q8777666666666666666666",
"77777777777777777777777777777777777777#*%...##X777666666666666666666",
"77777777777777777777777777777777777777    7  77777666666666666666666"
};
