/* XPM */
static char *result[] = {
/* columns rows colors chars-per-pixel */
"68 68 39 1 ",
"  c #090B0B",
". c #0E0E13",
"X c #151515",
"o c #131318",
"O c #16181E",
"+ c #181818",
"@ c #1E1E1E",
"# c gray13",
"$ c #272727",
"% c #2A2A2A",
"& c #313131",
"* c #343434",
"= c gray23",
"- c #3F3F3F",
"; c #464646",
": c gray29",
"> c #515151",
", c #555555",
"< c #5D5D5D",
"1 c gray38",
"2 c DimGray",
"3 c #717171",
"4 c #797979",
"5 c gray49",
"6 c none",
"7 c none",
"8 c #868686",
"9 c gray56",
"0 c #979797",
"q c gray61",
"w c #A5A5A5",
"e c #AEAEAE",
"r c #B7B7B7",
"t c #C1C1C1",
"y c #C5C5C5",
"u c gray81",
"i c gray85",
"p c #E2E2E2",
"a c #FBFBFB",
/* pixels */
"66666667777777777777777777777777777777777777777777666666666666666666",
"6666666777777777777777777777777<39e537777777777777666666666666666666",
"777777777777777777777777777774upppaaap977777777777666666666666666666",
"7777777777777777777777777777;0yaappaayi77777777777666666666666666666",
"777777777777777777777777777.$;,<23402;r47777777777666666666666666666",
"777777777777777777777777777..:;.@@@q32ie7777777777666666666666666666",
"777777777777777777777777777 $rq,;=95epyw7777777777666666666666666666",
"777777777777777777777777777.@4uq9r92q99y7777777777666666666666666666",
"777777777777777777777777777+:4;4uy00upppu777777777666666666666666666",
"77777777777777777777777777o@4yurprippppyy,77777777666666666666666666",
"77777777777777777777777777#$.:erpppi93=;&777777777666666666666666666",
"77777777777777777777777777$...&.:y9=. X#:777777777666666666666666666",
"777777777777777777777777777.X..X@$X.@:92>ppp077777666666666666666666",
"777777777777777777777777777.o@&X#*:<99q%0ppaaa<777777777777777777777",
"77777777777777777777777777.##2:*-29rpp4@3upaaap777777777777777777777",
"7777777777777777777777777.$$%2;:29wpur;.3eppaap477777777777777777777",
"7777777777777777777777777#:#;0599qwtte=X3wppppi477777777777777777777",
"777777777777777777777777.,=&200weeewur*$2wppaau<77777777777777777777",
"777777777777777777777777X;@$592qq0q00y$#@:wppay;77777777777777777777",
"777777777777777777777777.##=::&==&2we2-X$w5<4wy777777777777777777777",
"777777777 77777777777777@@@@@=&&==:w8<,$<yppw:7777777777777777777777",
"777777777@@.......77X@XX.....@&&=;:43-=-3yppy57777777777777777777777",
"777777777 ...     XXXX.@X@@$@@$@&=24:=;=5yppu47777777777777777777777",
"77777777......   ... ..XXX@X...XX$49ryyrr539q27777777777777777777777",
"777777777777...7    @$ ..@3uy:.,wrpppppppppX.77777777777777777777777",
"777777777777777..   .$@@.$piiu&,pppppppppyy& 77777777777777777777777",
"77777777777777777X@X..X.  9eww&$uuw9qq0942,@=&7777777777777777777777",
"777777777777777777777777  @<3,&&:;;34==::=<;,y7777777777777777777777",
"77777777777777777777777777.@;:@@=;&@$&$@$=;&$77777777777777777777777",
"77777777777777777777777777$$;:@@@@@@$&&$=:;&777777777777777777777777",
"77777777777777777777777777&&X@X@@@$$;:;@$&:3777777777777777777777777",
"77777777777777777777777777@@..@@@$@$442  X9w777777777777777777777777",
"77777777777777777777777777@@ .X@$$.:ppr ..qq,77777777777777777777777",
"77777777777777777777777777@@ .@$@@ :ppr@..=9:77777777777777777777777",
"77777777777777777777777777&@X..@@@.5pppp4..&@77777777777777777777777",
"777777777777777777777777777.@X.@@@@&::qpi2  777777777777777777777777",
"777777777777777777777777777.@@XX@.&$$=wiyq. 777777777777777777777777",
"7777777777777777777777777777@@@X.@::39uye5@7777777777777777777777777",
"7777777777777777777777777777.@@..&5wayurq2@7777777777777777777777777",
"7777777777777777777777777777.@X..=9tpyyw9:77777777666666666666666666",
"77777777777777777777777777777@X..;0iart03=77777777666666666666666666",
"77777777777777777777777777777....:0aarr5<$77777777666666666666666666",
"77777777777777777777777777777....<waatq3;777777777666666666666666666",
"777777777777777777777777777777..X,wapt92$777777777666666666666666666",
"777777777777777777777777777777..@2yyre5:7777777777666666666666666666",
"7777777777777777777777777777777.@iprt93&7777777777666666666666666666",
"7777777777777777777777777777777 @3ywq9277777777777666666666666666666",
"7777777777777777777777777777777.@=>4,#O:;777777777666666666666666666",
"7777777777777777777777777777777@pw<O..;:,077777777666666666666666666",
"77777777777777777777777777777773wwu02O&:9w97777777666666666666666666",
"77777777777777777777777777777773ww9iaa<=<599777777666666666666666666",
"77777777777777777777777777777777905854>$&:40777777666666666666666666",
"77777777777777777777777777777777:8qrrw2@@&:9e77777666666666666666666",
"77777777777777777777777777777777>qqyyw2@@&:9e77777666666666666666666",
"777777777777777777777777777777771qqre0= @$&2ep7777666666666666666666",
"7777777777777777777777777777777719qeq3777X$;0uq777666666666666666666",
"7777777777777777777777777777777719qq9:7777@;32:577666666666666666666",
"7777777777777777777777777777777739q02@7777.&&:<;@7666666666666666666",
"7777777777777777777777777777777730q9;77777:q95&.77666666666666666666",
"777777777777777777777777777777779ww477777=qyw=7777666666666666666666",
"7777777777777777777777777777777$qrw377777qyy9.7777666666666666666666",
"77777777777777777777777777777773upr<77774wq2@77777666666666666666666",
"7777777777777777777777777777777qppy,7777@&@ 777777666666666666666666",
"7777777777777777777777777777777rpy9777777777777777666666666666666666",
"777777777777777777777777777777aape5777777777777777666666666666666666",
"7777777777777777777777777777iappy51$77777777777777666666666666666666",
"77777777777777777777777777;qrre9>@. 77777777777777666666666666666666",
"77777777777777777777777777 ....  77777777777777777666666666666666666"
};
