/* XPM */
static char *result[] = {
/* columns rows colors chars-per-pixel */
"68 68 40 1 ",
"  c black",
". c gray2",
"X c #090B0B",
"o c #0E0E13",
"O c #151515",
"+ c #131318",
"@ c #181818",
"# c #1E1E1E",
"$ c gray13",
"% c #272727",
"& c #2A2A2A",
"* c #313131",
"= c #343434",
"- c gray23",
"; c #3F3F3F",
": c #464646",
"> c gray29",
", c #515151",
"< c #555555",
"1 c #5D5D5D",
"2 c gray38",
"3 c DimGray",
"4 c #717171",
"5 c #797979",
"6 c gray49",
"7 c none",
"8 c none",
"9 c #868686",
"0 c gray56",
"q c #979797",
"w c gray61",
"e c #A5A5A5",
"r c #AEAEAE",
"t c #B7B7B7",
"y c #C1C1C1",
"u c #C5C5C5",
"i c gray81",
"p c gray85",
"a c #E2E2E2",
"s c #FBFBFB",
/* pixels */
"77777788888888888888888888888888888888888888888888888887777777777777",
"777777888888888888888888888888,wriauw,888888888888888887777777777777",
"8888888888888888888888888888%wpaaasssat88888888888888887777777777777",
"8888888888888888888888888888,qtssaassri88888888888888887777777777777",
"888888888888888888888888888o#%<2--:2*<u08888888888888887777777777777",
"888888888888888888888888888X%5*oO#4ietie8888888888888887777777777777",
"888888888888888888888888888X1tq,:4w1iiew8888888888888887777777777777",
"888888888888888888888888888o%2uw0w55t0ui8888888888888887777777777777",
"888888888888888888888888888ow6<5tw0uaaaaa888888888888887777777777777",
"888888888888888888888888888#0uupuiaaaatew-88888888888887777777777777",
"88888888888888888888888888#Oo10waaa0:*#%8888888888888887777777777777",
"88888888888888888888888888#oXoOX50:oX%,:,,88888888888887777777777777",
"888888888888888888888888888XXOOO#OO*-5*2aaaaw88888888887777777777777",
"888888888888888888888888888O##*O$;39y5o2aasssa8888888888888888888888",
"888888888888888888888888888O-,:;,4raa*o2uasssaw888888888888888888888",
"88888888888888888888888888$%;4,44eeaioo2eaaasat888888888888888888888",
"88888888888888888888888888*-1q6weeeyy=#2eassapw888888888888888888888",
"8888888888888888888888888o=<120wwqtwt%$2rassau2888888888888888888888",
"8888888888888888888888888*O:2:2560er3;O#:taaat:888888888888888888888",
"8888888888888888888888888ooO-%##%5e91<%055<2we8888888888888888888888",
"88888888.8888888888o88ooOooO%%###,54,>;wuap0*88888888888888888888888",
"88888888OooXooooXoOOoOOooOOoO%#%%:53>:-euaat488888888888888888888888",
"88888888 XXXXXXXoooooOOoO###OO#%::0352:eiapr<88888888888888888888888",
"8888888.XooooXXoooXXooooo*#ooooo16ruaaat2:0q888888888888888888888888",
"8888888888888XXXXXXo#oo*uaa6O0aaaaaaaaaau-oo888888888888888888888888",
"88888888888888oooXXo##X%tttr*2aaauuaieueq%o8888888888888888888888888",
"8888888888888888888ooOXX2000#*00065422<,,*#*-,8888888888888888888888",
"8888888888888888888888XXo*:*-#,,,::**:,,*:--ta8888888888888888888888",
"88888888888888888888888888%*-:O%*#O#%***:,:%888888888888888888888888",
"88888888888888888888888888#%*%######%**-,,<<888888888888888888888888",
"888888888888888888888888888%##O####%-:-:,,6q888888888888888888888888",
"88888888888888888888888888,Oo#O#%##*:,*oO-ur888888888888888888888888",
"88888888888888888888888888:OXOO###O,00,Xo#te888888888888888888888888",
"88888888888888888888888888OOoO##%#o2iiqoooqw<88888888888888888888888",
"8888888888888888888888888%OO#o#%##X-iiwooo*6:88888888888888888888888",
"8888888888888888888888888oOo#Oo##Oo-iiuoooX#888888888888888888888888",
"888888888888888888888888888o#Oo###oO%#,t5#XX888888888888888888888888",
"888888888888888888888888888o%##O##o#**5tre,8888888888888888888888888",
"888888888888888888888888888#%##%%Oo%-<0wyw0:888888888888888888888888",
"888888888888888888888888888####%%Oo*226qte0,888888888887777777777777",
"888888888888888888888888888%%#%*%Oo#<250eq0,888888888887777777777777",
"888888888888888888888888888%*#%*%#oO,<250e6,888888888887777777777777",
"888888888888888888888888888%-*-*%#oo,,125q4:888888888887777777777777",
"888888888888888888888888888O*,1:%#oo::<22q4:888888888887777777777777",
"888888888888888888888888888O<0rq:#o8-,,1293-888888888887777777777777",
"888888888888888888888888888#60rw:#88O::<296*888888888887777777777777",
"888888888888888888888888888#40rw:#88O:-,269*888888888887777777777777",
"888888888888888888888888888weaau2#888--,2501888888888887777777777777",
"88888888888888888888888888o*%-05;@888@$@%=&-aa8888888887777777777777",
"888888888888888888888888888,<<:++X888o++@#&wpap888888887777777777777",
"888888888888888888888888888,0rpp288888o#-%-40wrr88888887777777777777",
"888888888888888888888888888,qrpiu88888Xo%%%*:15048888887777777777777",
"88888888888888888888888888o20euue88888888o##%*:168888887777777777777",
"88888888888888888888888888O40wtr08888888888O#%%-2q888887777777777777",
"88888888888888888888888888O40wrw588888888888XO%*:6u88887777777777777",
"88888888888888888888888888O40ww0:8888888888888o%*1eu8887777777777777",
"88888888888888888888888888X20wq2888888888888888o*:qeq887777777777777",
"8888888888888888888888888882qw0:8888888888888888%qtt0:87777777777777",
"8888888888888888888888888886ww588888888888888888,wur5o87777777777777",
"88888888888888888888888888#qre5888888888888888886eur-887777777777777",
"88888888888888888888888888,tpt288888888888888885ruseO887777777777777",
"88888888888888888888888888raai28888888888888888essw:X887777777777777",
"8888888888888888888888888oO*40,888888888888888%56,#X8887777777777777",
"8888888888888888888888888ww5,28888888888888888XooX888887777777777777",
"888888888888888888888888iauw0068888888888888888888888887777777777777",
"8888888888888888888888paauq41<-8888888888888888888888887777777777777",
"888888888888888888882ere5:OoXXX8888888888888888888888887777777777777",
"8888888888888888888XXoooX8888888888888888888888888888887777777777777"
};
