/* XPM */
static char *result[] = {
/* columns rows colors chars-per-pixel */
"68 68 39 1 ",
"  c #090B0B",
". c #0E0E13",
"X c #151515",
"o c #131318",
"O c #16181E",
"+ c #181818",
"@ c #1E1E1E",
"# c gray13",
"$ c #272727",
"% c #2A2A2A",
"& c #313131",
"* c #343434",
"= c gray23",
"- c #3F3F3F",
"; c #010051",
": c #464646",
"> c gray29",
", c #515151",
"< c #555555",
"1 c #5D5D5D",
"2 c gray38",
"3 c DimGray",
"4 c #717171",
"5 c #797979",
"6 c gray49",
"7 c none",
"8 c none",
"9 c #868686",
"0 c gray56",
"q c #979797",
"w c gray61",
"e c #A5A5A5",
"r c #AEAEAE",
"t c #B7B7B7",
"y c #C5C5C5",
"u c gray81",
"i c gray85",
"p c #E2E2E2",
"a c #FBFBFB",
/* pixels */
"77777777888888888888888888888888888888888888888888888888888887777777",
"77777777888888888888888888888888888888888888888888888888888887777777",
"88888888888888888888888888888888888888888888888888888888888887777777",
"888888888888888888888888888888&4wrrr68888888888888888888888887777777",
"8888888888888888888888888888$waapaaaapr88888888888888888888887777777",
"888888888888888888888888888.<qtuttpaaaq<8888888888888888888887777777",
"888888888888888888888888888X$=<<:,0ppp568888888888888888888887777777",
"888888888888888888888888888...&00wyipppi8888888888888888888887777777",
"888888888888888888888888888@.$41tryuipiy4888888888888888888887777777",
"88888888888888888888888888X$@::,t0wiaapi6888888888888888888887777777",
"88888888888888888888888888$&:,:qppiuppppp888888888888888888887777777",
"88888888888888888888888888::415wrpr5ypite188888888888888888887777777",
"88888888888888888888888888@:wt6==$@@$$@@@888888888888888888887777777",
"88888888888888888888888888 X,3:88 @& 4,88888888888888888888888888888",
"888888888888888888888888888 X@88.,&.wppppy88888888888888888888888888",
"8888888888888888888888888888888.<@ 3ipaaapp<888888888888888888888888",
"8888888888888888888888888888888<4 X0uppaapir888888888888888888888888",
"888888888888888888888888888888=e= $qypapapww388888888888888888888888",
"88888888888888888888888888888$ey. :wyaapie3y088888888888888888888888",
"8888888888888888888888888888X1er .4eyaapt6,yr88888888888888888888888",
"8888888888888888888888888888$=,4..4tuipuw13tr88888888888888888888888",
"8888888888888888888888888888@:,1=$@=4wrq4,0=888888888888888888888888",
"88888888888888888888....8888.&,<<3403:&&&148888888888888888888888888",
"8888888888..   ..... ....888.@:,34wtyw<::3<8888888888888888888888888",
"8888888888     .X.X.......X8.@=:<5etyw0:,4:8888888888888888888888888",
"888888888        .....  ...@=3qr5$,qtw3@::@8888888888888888888888888",
"888888888888       @<0&@4wyyytrw0$ ..1+&&888888888888888888888888888",
"88888888888888  .  =331,q60634<<:@  X*#,*88=$88888888888888888888888",
"8888888888888888888@==:@=&=:==&$$@.$*,,3&*=4,&8888888888888888888888",
"8888888888888888888 .X& .XX.@$@@$&:*<<661*1wy48888888888888888888888",
"8888888888888888888888888888&X@@@$=2qwwry>&&888888888888888888888888",
"8888888888888888888888888888&.@@@&35wryuyu48888888888888888888888888",
"8888888888888888888888888888X.X$@&50euipiu6-888888888888888888888888",
"8888888888888888888888888888.X$&$.=6wryyiuy:888888888888888888888888",
"88888888888888888888888888888@$==.  2eyuyyr3888888888888888888888888",
"88888888888888888888888888888$=,&= .&4wreew,888888888888888888888888",
"888888888888888888888888888885qe:y:...:251-X888888888888888888888888",
"8888888888888888888888888888&3w00re3..     X888888888888888888888888",
"88888888888888888888888888888.@1wwwq@.    XX888888888888888888888888",
"88888888888888888888888888888@&6qwq63.    &$888888888888888887777777",
"8888888888888888888888888888@&3000643:@ XX,:888888888888888887777777",
"8888888888888888888888888888%3560543<:@+@*3e-88888888888888887777777",
"888888888888888888888888888%1345454<>-$+&>0p988888888888888887777777",
"8888888888888888888888888881133443<>-$X#=<rup-8888888888888887777777",
"88888888888888888888888888$<34332,:-$X@*>3yuu98888888888888887777777",
"88888888888888888888888888,14443<-*$XX$&=5uuuu-888888888888887777777",
"8888888888888888888888888$,34332,=@Xo@@$&4ruuu9888888888888887777777",
"8888888888888888888888888&@,,32,-#+888X@$,6tuupw88888888888887777777",
"888888888888888888888888&0. X@-:##88888X@&<0tr,O88888888888887777777",
"888888888888888888888888$5<.   .#8888888$=16,o..<8888888888887777777",
"888888888888888888888888@&1qyp@.;88888888&&,@.&4w4,88888888887777777",
"888888888888888888888888@@:0tppe@888888888X.o4wttttq8888888887777777",
"8888888888888888888888888$=4wyyte888888888.X$,4wttut,888888887777777",
"8888888888888888888888888@&30eew088888888888@@=4wtuu0888888887777777",
"8888888888888888888888888$$<5005,888888888888X@&1qtyu888888887777777",
"8888888888888888888888888@$,3554,8888888888888X@&10ru088888887777777",
"8888888888888888888888888@$,35548888888888888888@&1wyy88888887777777",
"8888888888888888888888888X$,343188888888888888888@&4ryt8888887777777",
"88888888888888888888888888$,3438888888888888888888@&qyyr888887777777",
"88888888888888888888888888&1455888888888888888888888&yyy188887777777",
"88888888888888888888888888=4003888888888888888888888&&yet88887777777",
"8888888888888888888888888=3qew8888888888888888888888::&3w08887777777",
"8888888888888888888888888qwyur08888888888888888888:w<=,<658887777777",
"88888888888888888:3qypppiur00<888888888888888888::tw61=$@. 887777777",
"8888888888888888 X=59eytrew548888888888888888885qq5:@    88887777777",
"888888888888888888  X$=:,455388888888888888888 ...    88888887777777",
"88888888888888888888888  .@$@888888888888888888888888888888887777777",
"888888888888888888888888888  888888888888888888888888888888887777777"
};
