/* XPM */
static char *result[] = {
/* columns rows colors chars-per-pixel */
"68 68 37 1 ",
"  c #090B0B",
". c #0E0E13",
"X c #151515",
"o c #131318",
"O c #181818",
"+ c #1E1E1E",
"@ c gray13",
"# c #272727",
"$ c #2A2A2A",
"% c #313131",
"& c #343434",
"* c gray23",
"= c #3F3F3F",
"- c #464646",
"; c gray29",
": c #515151",
"> c #555555",
", c #5D5D5D",
"< c gray38",
"1 c DimGray",
"2 c #717171",
"3 c #797979",
"4 c gray49",
"5 c none",
"6 c none",
"7 c #868686",
"8 c gray56",
"9 c #979797",
"0 c gray61",
"q c #A5A5A5",
"w c #AEAEAE",
"e c #B7B7B7",
"r c #C5C5C5",
"t c gray81",
"y c gray85",
"u c #E2E2E2",
"i c #FBFBFB",
/* pixels */
"55555555666666666666666666666666666666666666666666666666666665555555",
"55555555666666666666666666666666666666666666666666666666666665555555",
"6666666666666666666666666666666%,222-6666666666666666666666665555555",
"6666666666666666666666666666+3yuuiiiuu266666666666666666666665555555",
"6666666666666666666666666666>0iiyuuiiue>6666666666666666666665555555",
"666666666666666666666666666+*<43:>ruur-,6666666666666666666665555555",
"666666666666666666666666666 ..%>>2tyuuuu6666666666666666666665555555",
"666666666666666666666666666..+299ruyyuyr,666666666666666666665555555",
"66666666666666666666666666X++:*302ryiiir2666666666666666666665555555",
"66666666666666666666666666.+%:*9uuriiuuur666666666666666666665555555",
"66666666666666666666666666-->-3wtuweuuuur<66666666666666666665555555",
"66666666666666666666666666#:00,---#%-*%--+66666666666666666665555555",
"66666666666666666666666666.#23-X. X*:#+66666666666666666666665555555",
"666666666666666666666666666.##.6#-+:tuuuq666666666666666666666666666",
"66666666666666666666666666666666%.-tuiiiuu66666666666666666666666666",
"66666666666666666666666666666662X.4tuiiiuuw9666666666666666666666666",
"666666666666666666666666666666,< #9ruuuuuw9r666666666666666666666666",
"66666666666666666666666666666-w*.-0eiiuuw2wr666666666666666666666666",
"6666666666666666666666666666.00+.<qriiye4:wr-66666666666666666666666",
"6666666666666666666666666666+:2++4wryyr0,*er:66666666666666666666666",
"666666666666666666666.666666%*-*.#<9yyw7::7*666666666666666666666666",
"666666666666.     .......666X*-:-::**##.*7,6666666666666666666666666",
"666666666666.  ...........66.%-><0wq4-*$23:6666666666666666666666666",
"66666666666    ..........X+6.#*:30wr03:=42-6666666666666666666666666",
"6666666666666    6 .+*  ..#*,20--9rw9,*>2:+6666666666666666666666666",
"66666666666666     *<2*<erweqq0,  +*2-$%#666666666666666666666666666",
"6666666666666666 ..%-,*77<,,<::%...+:@=*$6*#666666666666666666666666",
"6666666666666666666.#*#%%%%%###+..+-@%;>;*2:%66666666666666666666666",
"66666666666666666666..66.....XXX%#*&>>44,20r266666666666666666666666",
"6666666666666666666666666666XX+++%*<900wr<*6666666666666666666666666",
"6666666666666666666666666666+X+#+;130wrtr726666666666666666666666666",
"6666666666666666666666666666+.#%+:38qtuuut4&666666666666666666666666",
"6666666666666666666666666666.X+%+%*40wrrytr;666666666666666666666666",
"66666666666666666666666666666+#-%+  <qrtrrw1666666666666666666666666",
"66666666666666666666666666666+#7-+ .%20wqq1-666666666666666666666666",
"66666666666666666666666666666*<w4#O...-<3,:+666666666666666666666666",
"6666666666666666666666666666637r7,9+..    .6666666666666666666666666",
"66666666666666666666666666666.%:,770+..   66666666666666666666666666",
"666666666666666666666666666666#-,3777%.  o66666666666666666666666666",
"66666666666666666666666666666+#,237774:#%@66666666666666666665555555",
"66666666666666666666666666666+*<237773<<*$66666666666666666665555555",
"66666666666666666666666666666*-,233432,;%*66666666666666666665555555",
"66666666666666666666666666666-->23332,,%*:66666666666666666665555555",
"6666666666666666666666666666%*->2222<,%#::#6666666666666666665555555",
"6666666666666666666666666666#%:>2222<*#%::<6666666666666666665555555",
"6666666666666666666666666666#>:,22<<=@%::<46666666666666666665555555",
"6666666666666666666666666666##%<22<*.O*:<046666666666666666665555555",
"6666666666666666666666666666   #-%#+o%:<qe76666666666666666665555555",
"666666666666666666666666666#2     *777-9eew6666666666666666665555555",
"666666666666666666666666666@,3>O&70tuiie32<6666666666666666665555555",
"6666666666666666666666666666@.::<,8tuiiuyXX6666666666666666665555555",
"66666666666666666666666666666.++-:30ryuuiy7w666666666666666665555555",
"6666666666666666666666666666666.#+#-20tyiir7766666666666666665555555",
"666666666666666666666666666666666.++#:4wtyyy766666666666666665555555",
"66666666666666666666666666666666666X++%,0ryyr76666666666666665555555",
"6666666666666666666666666666666666666.+#-7ryyr6666666666666665555555",
"666666666666666666666666666666666666666.+*4tyr7666666666666665555555",
"6666666666666666666666666666666666666666.+%3ryr666666666666665555555",
"6666666666666666666666666666666666666666 .+*7q0r66666666666665555555",
"66666666666666666666666666666666666666666.+-990qw6666666666665555555",
"666666666666666666666666666666666666666666#7qq04%.666666666665555555",
"666666666666666666666666666666666666666666,0w0<+ 6666666666665555555",
"6666666666666666666666666666666666666666629q4:q366666666666665555555",
"6666666666666666666666666666666666666666232-+*7066666666666665555555",
"666666666666666666666666666666666666666#*#X++%-766666666666665555555",
"6666666666666666666666666666666666666XXXX++XXXX+.6666666666665555555",
"666666666666666666666666666666666666..X...  6  666666666666665555555",
"666666666666666666666666666666666666   66666666666666666666665555555"
};
