/* XPM */
static char *result[] = {
/* columns rows colors chars-per-pixel */
"68 68 39 1 ",
"  c black",
". c gray2",
"X c #090B0B",
"o c #0E0E13",
"O c #151515",
"+ c #181818",
"@ c #1E1E1E",
"# c gray13",
"$ c #272727",
"% c #21242E",
"& c #2A2A2A",
"* c #313131",
"= c #343434",
"- c gray23",
"; c #3F3F3F",
": c #464646",
"> c gray29",
", c #515151",
"< c #555555",
"1 c #5D5D5D",
"2 c gray38",
"3 c DimGray",
"4 c #717171",
"5 c #797979",
"6 c gray49",
"7 c none",
"8 c none",
"9 c gray56",
"0 c #979797",
"q c gray61",
"w c #A5A5A5",
"e c #AEAEAE",
"r c #B7B7B7",
"t c #C1C1C1",
"y c #C5C5C5",
"u c gray81",
"i c gray85",
"p c #E2E2E2",
"a c #FBFBFB",
/* pixels */
"77777777888888888888888888888888888888888888888887777777777777777777",
"7777777788888888888888888888888*,444:8888888888887777777777777777777",
"8888888888888888888888888888O5ipppaaap488888888888888888777777777777",
"8888888888888888888888888888<qyaappaaar,8888888888888888777777777777",
"888888888888888888888888888@-266,<yppp:18888888888888888777777777777",
"888888888888888888888888888Xoo*<<4yipppp8888888888888888777777777777",
"888888888888888888888888888oo@49erpippiy1888888888888888777777777777",
"88888888888888888888888888O@O,-5w2ruaapy4888888888888888777777777777",
"88888888888888888888888888o@-,-0ppyappppy888888888888888777777777777",
"88888888888888888888888888::<:5eupeeppppy288888888888888777777777777",
"88888888888888888888888888$,qq1,,,*-:-*::@88888888888888777777777777",
"88888888888888888888888888o$45:@oX@::$@88888888888888888777777777777",
"888888888888888888888888888o$$88-:@4pppp9888888888888888777777777777",
"88888888888888888888888888888888$X4ppaaapp88888888888888888888888888",
"8888888888888888888888888888888<X@qpppaaaie9888888888888888888888888",
"8888888888888888888888888888885-X:qyppppi0we888888888888888888888888",
"888888888888888888888888888882eoo2wyaapuq<iy888888888888888888888888",
"8888888888888888888888888888*wqX@6eyaauw4,ur888888888888888888888888",
"8888888888888888888888888888@,2X-0ryuur9,6yr888888888888888888888888",
"8888888888888888888888888888$-:@O:9uiyq2,q9*888888888888888888888888",
"8888888888888. X888X8oooo888@-:<-,:-*$@@49,8888888888888888888888888",
"888888888888. .ooooooooooo88o*:,5qqq2--&55,8888888888888888888888888",
"888888888888   oooooooooooO8o*-<9eye91,$<2-8888888888888888888888888",
"8888888888888  XXXXX@@XXXo$-15q*2eyw9,=>-,@8888888888888888888888888",
"888888888888888XXXX-24@6rreewq9*XX*12:$*$888888888888888888888888888",
"8888888888888888Xoo*:2-662<<,::OooX-,@+>;8-$888888888888888888888888",
"8888888888888888888o@,$****$$$@Ooo@@+-32:-4,*88888888888888888888888",
"88888888888888888888oo8ooooooOO@**-=<<6611qy488888888888888888888888",
"8888888888888888888888888888Oo@@$*-20qqe04-%888888888888888888888888",
"8888888888888888888888888888@o@@@*,5qeyuy0#8888888888888888888888888",
"8888888888888888888888888888Oo$*@:9wwruuue4#888888888888888888888888",
"8888888888888888888888888888oO@*@*-$rypppi0,888888888888888888888888",
"88888888888888888888888888888O@<,XXo6euuuyr3888888888888888888888888",
"88888888888888888888888888888O$99Xooo5eeew6<888888888888888888888888",
"88888888888888888888888888888O:09Xoooo-22,;;888888888888888888888888",
"8888888888888888888888888888X$109XoooooXXXX@888888888888888888888888",
"88888888888888888888888888888o$$,:Oo:oooXXo@888888888888888888888888",
"888888888888888888888888888888o@-264re5:,*o8888888888888888888888888",
"888888888888888888888888888888o@$,40epprew88888888888888888888888888",
"88888888888888888888888888888oo@@-29epapew88888888888888887777777777",
"88888888888888888888888888888oo$@*,5wepaiw88888888888888887777777777",
"88888888888888888888888888888ooOO$:20qepiq88888888888888887777777777",
"88888888888888888888888888888ooo@@*,5qqet088888888888888887777777777",
"88888888888888888888888888888Ooo@@$-29qqe088888888888888887777777777",
"88888888888888888888888888888OOoOO@-,50qe088888888888888887777777777",
"88888888888888888888888888888O@oo@@*,49qq088888888888888887777777777",
"8888888888888888888888888888OO@@oOO$:29qqq88888888888888887777777777",
"8888888888888888888888888888o@@@Oo@@-<6qq588888888888888887777777777",
"88888888888888888888888888888Xo$@oOO$,50q,88888888888888887777777777",
"88888888888888888888888888888o@@@OoO$,2,oo88888888888888887777777777",
"888888888888888888888888888888oO@oo2:@@ooo88888888888888887777777777",
"88888888888888888888888888888888oOoo<:9epy48888888888888887777777777",
"888888888888888888888888888888888Xoo$:5eppp4888888888888887777777777",
"88888888888888888888888888888888888XO@,9yiiy888888888888887777777777",
"8888888888888888888888888888888888888@*2qrrw588888888888887777777777",
"8888888888888888888888888888888888888O@,5qq9r88888888888887777777777",
"8888888888888888888888888888888888888o@-2996e08888888888887777777777",
"88888888888888888888888888888888888888O*<5669e8888888888887777777777",
"88888888888888888888888888888888888888o$,46610w888888888887777777777",
"888888888888888888888888888888888888888@,599,24888888888887777777777",
"888888888888888888888888888888888888888$,9qqOoXX88888888887777777777",
"8888888888888888888888888888888888888oo$2qrr888888888888887777777777",
"888888888888888888888888888888888888oXo29riy888888888888887777777777",
"88888888888888888888888888888888888888899qq5888888888888887777777777",
"88888888888888888888888888888888888882yr9599888888888888887777777777",
"8888888888888888888888888888888888yuuuyw0996888888888888887777777777",
"8888888888888888888888888888888@19qqq02<::-*888888888888887777777777",
"8888888888888888888888888888888XXXooooXXXXXX888888888888887777777777"
};
