/* XPM */
static char *_0c5a506d1b74664fe73cd25459bc705Eh6M1oouqjRpUYsP[] = {
/* columns rows colors chars-per-pixel */
"82 82 93 2 ",
"   c #000001",
".  c #1B1B1B",
"X  c #3F2F17",
"o  c #232323",
"O  c #272727",
"+  c #2F2F2F",
"@  c #373737",
"#  c gray23",
"$  c #430000",
"%  c #470000",
"&  c #4F0000",
"*  c #530707",
"=  c #5B0000",
"-  c #5B0707",
";  c #5F0707",
":  c #670000",
">  c #670B0B",
",  c #6B0F0F",
"<  c #730000",
"1  c #7F0000",
"2  c #731313",
"3  c #771717",
"4  c #7F1B1B",
"5  c #4B371B",
"6  c #732B00",
"7  c #000047",
"8  c #000053",
"9  c #00006B",
"0  c #434343",
"q  c gray28",
"w  c gray31",
"e  c gray34",
"r  c #5B5B5B",
"t  c gray39",
"y  c gray42",
"u  c #6F6F6F",
"i  c #777777",
"p  c gray50",
"a  c #8B0000",
"s  c #9B0000",
"d  c #831F1F",
"f  c #A70000",
"g  c #B30000",
"h  c #BF0000",
"j  c #8B2323",
"k  c #8F2B2B",
"l  c #972F2F",
"z  c #9B3333",
"x  c #A33B3B",
"c  c #A73F3F",
"v  c #CB0000",
"b  c #D70000",
"n  c #E30000",
"m  c #EF0000",
"M  c red",
"N  c #FF1F1F",
"B  c #FF3F3F",
"V  c #AF4300",
"C  c #AF4747",
"Z  c #B34F4F",
"A  c #BB5757",
"S  c #BF5B5B",
"D  c #FF5F5F",
"F  c #C76363",
"G  c #CB6B6B",
"H  c #D37373",
"J  c #DB7B7B",
"K  c #FF7B7B",
"L  c #000083",
"P  c #00009B",
"I  c #0000B3",
"U  c #0000CB",
"Y  c #0000E3",
"T  c blue",
"R  c #1B1BFF",
"E  c #5353FF",
"W  c black",
"Q  c #838383",
"!  c #8B8B8B",
"~  c #939393",
"^  c #979797",
"/  c #9F9F9F",
"(  c #A7A7A7",
")  c gray67",
"_  c gray70",
"`  c gray75",
"'  c #DF8787",
"]  c #EB9797",
"[  c gray78",
"{  c #CBCBCB",
"}  c LightGray",
"|  c gray86",
" . c #DFDFDF",
/* pixels */
"W W W W W W W W W W W W W W W W W W W W W W W W W W W W W W W W W W W W W W W W W W W W W W W W W W W W W W W W W W W W W W W W W W W W W W W W W W W W W W W W W W ",
"W W W W W W W W W W W W W W W W W W W W W W W W W W W W W W W W W W W W W W W W W W W W W W W W W W W W W W W W W W W W W W W W W W W W W W W W W W W W W W W W W W ",
"W W W W W W W W W W W W W W W W W W W W W W W W W W W W W W W W W W W W W W W W W W W W W W W W W W W W W W W W W W W W W W W W W W W W W W W W W W W W W W W W W W ",
"W W W W W W W W W W W W W W W W W W W W W W W W W W W W W W W W W W W W W W W W W W W W W W W W W W W W W W W W W W W W W W W W W W W W W W W W W W W W W W W W W W ",
"W W W W W W W W W W W W W W W W W W W W W W W W W W W r W W W W W W W W W W W W W W W W W W W W W W W W W r W W W W W W W W W W W W W W W W W W W W W W W W W W W W ",
"W W W W W W W W W W W W W W W W W W W W W W W W W W r y W W W W W W W W W W W W W W W W W W W W W W W W W y r W W W W W W W W W W W W W W W W W W W W W W W W W W W ",
"W W W W W W W W W W W W W W W W W W W W W W W W W W y i W W W W W W W W W W W W W W W W W W W W W W W W W i y W W W W W W W W W W W W W W W W W W W W W W W W W W W ",
"W W W W W W W W W W W W W W W W W W W W W W W W W u i ! W W W W W W W W W W W W W W W W W W W W W W W W W ! i u W W W W W W W W W W W W W W W W W W W W W W W W W W ",
"W W W W W W W W W W W W W W W e t W W W W W W W W u Q ^ W W W W W W W W W W W W W W W W W W W W W W W W W ^ Q u W W W W W W W W t e W W W W W W W W W W W W W W W W ",
"W W W W W W W W W W W W W W W e t W W W W W W W W u ^ ) i W W W W W W W W W W W W W W W W W W W W W W W i ) ^ u W W W W W W W W t e W W W W W W W W W W W W W W W W ",
"W W W W W W W W W W W W W W W e y y W W W W W W W t ! ) p W W W W W W W W W W W W W W W W W W W W W W W p ) ! t W W W W W W W y t w W W W W W W W W W W W W W W W W ",
"W W W W W W W W W W W W W W W e t u i W W W W W W r Q ( ~ i W W W W W W W W W W W W W W W W W W W W W i ~ ( Q r W W W W W W i u e q W W W W W W W W W W W W W W W W ",
"W W W W W W W W W W W W W W W e r t i u W W W W W w u ^ / p i W W W W W W 1 g g g g g 1 W W W W W W i p / ^ u w W W W W W u i t w 0 W W W W W W W W W W W W W W W W ",
"W W W W W W W W W W W W W W W W e r i Q u W W W W 0 y p ~ ^ p i W 1 s s g b M M m m b g g s s 1 W i p ^ ~ p y 0 W W W W u Q i r w W W W W W W W W W W W W W W W W W ",
"W W W W W W W W W W W W W W W W 0 q t i ! u W W W 0 t p ~ s s s g g g g M m g v b v g v v g g g g s s s ~ p t 0 W W W u ! i t w 0 W W W W W W W W W W W W W W W W W ",
"W W W W W W W W W W W W W W W W 0 q e u Q ! u W W # r 1 1 s g h h f v n n h b B B n b h h n v f h h g s 1 1 r # W W u ! Q u e q 0 W W W W W W W W W W W W W W W W W ",
"W W W W W W W W W W W W W W W W W q q r i ! / ! W # 1 1 1 s v v v g v n b v B K D N b v g n v g v v v s 1 1 1 # W ! / ! i r w q W W W W W W W W W W W W W W W W W W ",
"W W W W W W W W W W W W W W W W W 0 q e y i ~ / / p v n M m m n b g v n v b D D D B N b f n v g b n m m M n v p / / ~ Q y e q 0 W W W W W W W W W W W W W W W W W W ",
"W W W W W W W W W W W W W W W W W W # q w y p ~ ( ( ` ` ~ i M M b g v n h b B B D B M b f n v g b M M i ~ ` ` ( ( ~ p y w q # W W W W W W W W W W W W W W W W W W W ",
"W W W W W W W W W W W W W W W W W W @ # q e y p ~ ( [ | ` ` i M n f h m g b m N B M m b v m h f n D i ` ` | [ ( ~ p y e q # @ W W W W W W W W W W W W W W W W W W W ",
"W W W W W W W W W W W W W W W W W W h @ # q e y i ~ ( `  .` i n n f f M M v h n M n h v M M f f n K i `  .` ( ~ i y e q # @ h W W W W W W W W W W W W W W W W W W W ",
"W W W W W W W W W e y ! ! p W W W h h v @ # q e y u i ^ ( _ i m n f h b M b g h n h g b M b h f n K i _ ( ^ i u y e q # @ v h h W W W p ! ! y W W W W W W W W W W W ",
"W W W W W W W W W W r e u ! ( ( W b g h g @ # q e y y u Q ! i M b f v f b M g h n h g M b f v f b M i ! Q u y y e q # @ g h g b W ( ( ! u e r e W W W W W W W W W W ",
"W W W W W W W W W W W r e t p ^ ) ~ p t b g @ # q q e t u i h n h g s h f M v g h g v M f h s g h n h i u t e q q # @ g b t p ~ ) ^ p t e r W W W W W W W W W W W W ",
"W W W W W W W W W W W W W e e t ! ^ ~ Q t m f g @ # w e r h b h f v n h h v m g g g m v h n v v f h b h r e w # @ 1 1 m t Q ~ ^ ! t e e W W W W W W W W W W W W W W ",
"W W W W W W W W W W W W W W W w e u Q i t m 1 s f v h v v v g f s n M n h s m g g g m s n M n g s f g v v v f s a 1 1 m t i Q u e w W W W W W W W W W W W W W W W W ",
"W W W W W W W W W W W W W W h h # w e t e b b g s s a a a s f g h v n b v g v n f n v g v n v f f g f s a < = = = < a b e t e w # h h W W W W W W W W W W W W W W W ",
"W W W W W W W W W W W W W f g m b f # # f n v f 1 a s g h g h v n m m b h s a g v g a s h h f h n v h g h g s < = 1 g v f # # f v m g f W W W W W W W W W W W W W W ",
"W W W W W W W W W W W W W f g m h b n v n b g f < a s g h g h v n m m b h s a g v g a s h h f h n v h g h g s < = = : v n m m v h m g f W W W W W W W W W W W W W W ",
"W W W W W W W W W W W W g f f b m v s 1 s g g < : < s g h g h v M M m b h f 1 < s < 1 f s f v n m n h g h g s a < = : < a b b m m b f f g W W W W W W W W W W W W W ",
"W W W W W W W W W W W W g h g f g s s g s f s : : : : 1 a s g h v M m b h f a < : < a s f v n M m h g s a 1 - - = 1 s 1 1 < s g g s g h g W W W W W W W W W W W W W ",
"W W W W W W W W W W W s g h n f 1 1 s g b M b < : : , 2 3 a a s f m M b h f a < : < a f h n M m v s a a 3 - - - - a g f a a < 1 1 f n h g s W W W W W W W W W W W W ",
"W W W W W W W W W W W s 1 s g s v m s h b m g a d , 2 2 3 , 4 4 a g M b h f a < : < a f h n M g f 4 4 ; ; ; ; 9 - T s g f a = m a a g s 1 s W W W W W W W W W W W W ",
"W W W W W W W W W W W 6 : < 1 a g b a g g f a 1 4 l 4 4 4 3 , - > a v M h f a < : < a f h M v a a , ; ; , 3 , ; - 1 a s f a = b g a 1 < : 6 W W W W W W W W W W W W ",
"W W W W W W W W W W W 1 = = < < a f < a a d 1 4 k d 4 3 3 3 ; - % * s m n v f a < a f v n n s 1 * - - , I 3 , ; T 4 1 a a a < f a < < = = 1 W W W W W W W W W W W W ",
"W W W W W W W W W W h a 1 = = : : : : 3 1 k l z Z j 4 2 2 2 > > - % d g M n h v a v h n M g d % & - 9 > , , T 4 ; 4 4 4 j 3 : : : : = = 1 s h W W W W W W W W W W W ",
"W W W W W W W W W W n v s 1 < = = : d l x C H l x c k 3 4 > , 3 - % d g M n h v a v h n M g d % & > 3 I > k P 4 T 4 j z j 4 , : = = : 1 s v n W W W W W W W W W W W ",
"W W W W W W W W W h b b g s < & = = 3 d l Z S z Z c x k > 3 3 d 2 - * a h v g v a v g v h a * & ; , 9 4 4 P j I l L z Z x j 3 = = & < s g b h W W W W W W W W W W W ",
"W W W W W W W W W g v h f a : : : 3 3 d j Z c z Z A x l j d d Z x x d - s f g s a s g f > 3 d L 3 4 k T P U T j 4 4 c Z l j j - : : : a f h v h W W W W W W W W W W ",
"W W W W W W W W W f g f a 1 a 1 : , , 3 d l j k c C z j c Z H ] G G C x 3 1 1 < = < 1 , 3 d k x L 3 > 9 U L 4 4 U 2 j l j d , - : 1 a 1 a f g g W W W W W W W W W W ",
"W W W W W W W W W f g f a 1 s a : , , 3 d l j k c C z j c Z H ] G G A C x 1 1 < = < 1 , d k x C j > P 9 9 P U 4 4 2 j l j d , - : 1 a 1 a f g f W W W W W W W W W W ",
"W W W W W W W W W 1 f a < a f s : , , , 3 l j k c C z A Z H ] J S C G ' G c j z , z j c H H S L j > P L 9 - U U j 2 > j d 3 - 5 : s f a < a f f W W W W W W W W W W ",
"W W W W W W W W W : 1 : a f s a : X ~ y 6 , 2 4 z Z z S H ] H Z C l z G ' G C x , x C ' S Z c x k L > > U 4 Z Z U > & , 6 y ~ X : 1 s f a : 1 1 W W W W W W W W W W ",
"W W W W W W W W W 6 : : < a 1 : & . t w t y , 2 d j x S A A c H ' C l z A A A l j l z j k z C G ' k 4 4 k S U j d - , k t w t . : : 1 a < : : : W W W W W W W W W W ",
"W W W W W W W W W a a s 1 : : = & . 0 # ~ / y , 3 j l z l c A F H ' C C S C l j l j j C S S C c L F A C l z Z j 3 , y y ~ # 0 . & = : : 1 s a 6 W W W W W W W W W W ",
"W W W W W W W W W s s g s : 1 1 - $   X t i i e , , , j 4 x C A F C C S ' F C x F x C F ' F ' ' Z c C x 4 j , , , e i / t X   $ & 1 1 1 s g s a W W W W W W W W W W ",
"W W W W W W W W W s h h h 1 g r { % $   0 t i e , ( r , , j z c A C F H A C A k G k A C A H L H A c z j , , r ( l e i i 0   $ $ - r g 1 h h h s W W W W W W W W W W ",
"W W W W W W W W W s f h n s s v ^ % % % o 7 e w + ! Q w w , 3 4 j x k x x c C l c l C c x x k x j 4 3 , w w Q ! + w e t o % > > { y g s n h f s W W W W W W W W W W ",
"W W W W W W W W W W f g v f v g y 6 4 > % @ 7 7 7 e u w ( w d , 4 4 j d d k l x l x l k d d j 4 4 , d w ( w u e 7 7 0 0 % > 4 6 ^ h v f v g f s W W W W W W W W W W ",
"W W W W W W W W W W h f f v n g v s 6 w w p - % 8 O @ + t L u ) w e / r k j l Z G Z l j k r / e % % % P L + @ O 8 % - > w w 6 s h v n v f f h W W W W W W W W W W W ",
"W W W W W W W W W W V a s g m N b N g w t p - % 8 O @ + t & i / ! r I U Y T R q i q + R T U I r ! % % 7 7 O @ O 8 % - p t w s h b N m m s a V W W W W W W W W W W W ",
"W W W W W W W W W W W v f s a s h n N N v v s s h v a a < f r i / i 0 s u ( ~ a a a ~ ( u s 0 i / i r d 4 2 , > > , 4 g v N b h h s a f h v W W W W W W W W W W W W ",
"W W W W W W W W W W W v g f 1 3 1 s b n n N h h v h h s s f 1 r i t s f t ~ u h b h u ~ t f s t i r 1 f g s s f g h v N b h h h f a v h g v W W W W W W W W W W W W ",
"W W W W W W W W W W W W f a 3 k a 1 s h h v n b v g g v N E 1 : : 1 f v f s h n n n h s f v f 1 : : 1 g v v g h v N N v s 1 h g f v g g f W W W W W W W W W W W W W ",
"W W W W W W W W W W W W g 3 z x c s 1 1 a f v N n n b T m N b h R h v n m n N N b b N B N N v h g h b m D B b n n N v f 1 a 1 n v g g s g W W W W W W W W W W W W W ",
"W W W W W W W W W W W W s s l z x c s a 1 a f v N m N n b m E B N N N R D B N m v v m B B D D D K D B B D B N N N v f 1 a z < v f s a s s W W W W W W W W W W W W W ",
"W W W W W W W W W W W W s 1 d l z x a 1 1 f a f v v b g h T s s B R B D B N N n h h n M N N B B D D K D B m b v v f 1 a z k < f s a < 1 s W W W W W W W W W W W W W ",
"W W W W W W W W W W W W s 1 d l z x a 1 1 f a f v v b T h m E R P s B D B N N n h h n M N N B B D D K D B m b v v f 1 a z k < f s a < 1 s W W W W W W W W W W W W W ",
"W W W W W W W W W W W W a : W d l a 1 1 1 f a f v v b g h U L Y P P f R N m n b g g b n m N N N N N N m n n b v v f 1 a z k < f a 1 W : a W W W W W W W W W W W W W ",
"W W W W W W W W W W W W W 1 g g 1 1 v b m h s a a s g g h v U s P < s n b b n b g g b b b v b b n n n v h g g f a j l k m b v s < g g 1 W W W W W W W W W W W W W W ",
"W W W W W W W W W W W W W W 1 < s v v v v m h a a 1 1 U f g h v U v h g f v b b s s g v f g h v v v h g f a 1 1 a j h m v v v v s < 1 W W W W W W W W W W W W W W W ",
"W W W W W W W W W W W W W W W W s g / } g v m g f v v g a s U g h g s a s f g g a a s f s a s g h g f s a g v v f g m v g } / g s W W W W W W W W W W W W W W W W W ",
"W W W W W W W W W W W W W W W W W p ^ Q r v m g v m h s 1 a s f g s a g a h f s a a f h a g a s g f s a 1 s h m v g m v r Q ^ p W W W W W W W W W W W W W W W W W W ",
"W W W W W W W W W W W W W W W W W u i t w v m g m h s s s g s g a < v M g 1 s s a s s 1 g M v < a g s g s s s h m g m v w t i u W W W W W W W W W W W W W W W W W W ",
"W W W W W W W W W W W W W W W W W u i t w v m g m h s s s g s g a < v M g 1 s s a s s 1 g M v < a g s g s s s h m g m v w t i u W W W W W W W W W W W W W W W W W W ",
"W W W W W W W W W W W W W W W W W t y w # v g a h s < W a a < h g g M v W a 1 s a s 1 a W v M g g h < a a W < s h a g v # w y t W W W W W W W W W W W W W W W W W W ",
"W W W W W W W W W W W W W W W W W w r # W & : : h g < < 1 < 1 1 h b h W a < 1 a a a 1 < a W h b h 1 1 < 1 < < g s : : & W # r w W W W W W W W W W W W W W W W W W W ",
"W W W W W W W W W W W W W W W W W w r W W W W W W h s 1 < W W < s : W s < = 1 1 1 1 1 = < s W : s < W W < 1 s s W W W W W W r w W W W W W W W W W W W W W W W W W W ",
"W W W W W W W W W W W W W W W W W W W W W W W W W W g 1 1 v W W < s 1 < = : : < : < < : = < 1 s < W W v 1 1 s W W W W W W W W W W W W W W W W W W W W W W W W W W W ",
"W W W W W W W W W W W W W W W W W W W W W W W W W W W W : 1 g v h 1 = & : < < : W W < < : & = 1 h v g 1 : s W W W W W W W W W W W W W W W W W W W W W W W W W W W W ",
"W W W W W W W W W W W W W W W W W W W W W W W W W W W W W W : : : = & W W W W W W W W W W W & = : : : s W W W W W W W W W W W W W W W W W W W W W W W W W W W W W W ",
"W W W W W W W W W W W W W W W W W W W W W W W W W W W W W W W W W W W W W W W W W W W W W W W W W W W W W W W W W W W W W W W W W W W W W W W W W W W W W W W W W W ",
"W W W W W W W W W W W W W W W W W W W W W W W W W W W W W W W W W W W W W W W W W W W W W W W W W W W W W W W W W W W W W W W W W W W W W W W W W W W W W W W W W W ",
"W W W W W W W W W W W W W W W W W W W W W W W W W W W W W W W W W W W W W W W W W W W W W W W W W W W W W W W W W W W W W W W W W W W W W W W W W W W W W W W W W W ",
"W W W W W W W W W W W W W W W W W W W W W W W W W W W W W W W W W W W W W W W W W W W W W W W W W W W W W W W W W W W W W W W W W W W W W W W W W W W W W W W W W W ",
"W W W W W W W W W W W W W W W W W W W W W W W W W W W W W W W W W W W W W W W W W W W W W W W W W W W W W W W W W W W W W W W W W W W W W W W W W W W W W W W W W W ",
"W W W W W W W W W W W W W W W W W W W W W W W W W W W W W W W W W W W W W W W W W W W W W W W W W W W W W W W W W W W W W W W W W W W W W W W W W W W W W W W W W W ",
"W W W W W W W W W W W W W W W W W W W W W W W W W W W W W W W W W W W W W W W W W W W W W W W W W W W W W W W W W W W W W W W W W W W W W W W W W W W W W W W W W W ",
"W W W W W W W W W W W W W W W W W W W W W W W W W W W W W W W W W W W W W W W W W W W W W W W W W W W W W W W W W W W W W W W W W W W W W W W W W W W W W W W W W W ",
"W W W W W W W W W W W W W W W W W W W W W W W W W W W W W W W W W W W W W W W W W W W W W W W W W W W W W W W W W W W W W W W W W W W W W W W W W W W W W W W W W W ",
"W W W W W W W W W W W W W W W W W W W W W W W W W W W W W W W W W W W W W W W W W W W W W W W W W W W W W W W W W W W W W W W W W W W W W W W W W W W W W W W W W W ",
"W W W W W W W W W W W W W W W W W W W W W W W W W W W W W W W W W W W W W W W W W W W W W W W W W W W W W W W W W W W W W W W W W W W W W W W W W W W W W W W W W W "
};
