/* XPM */
static char *f6a8241616d7470ac604a9a7af5262beSv6dN41bQgP8H7al[] = {
/* columns rows colors chars-per-pixel */
"82 82 92 1 ",
"  c #1B1B1B",
". c #3F2F17",
"X c #000023",
"o c #2F2F2F",
"O c #373737",
"+ c gray23",
"@ c #430000",
"# c #470000",
"$ c #4F0000",
"% c #530707",
"& c #5B0000",
"* c #5B0707",
"= c #5F0707",
"- c #670000",
"; c #670B0B",
": c #6B0F0F",
"> c #730000",
", c #7F0000",
"< c #731313",
"1 c #771717",
"2 c #7F1B1B",
"3 c #43331B",
"4 c #4B371B",
"5 c #732B00",
"6 c #000047",
"7 c #000053",
"8 c #00006B",
"9 c #434343",
"0 c gray28",
"q c gray31",
"w c gray34",
"e c #5B5B5B",
"r c gray39",
"t c gray42",
"y c #6F6F6F",
"u c #777777",
"i c gray50",
"p c #8B0000",
"a c #9B0000",
"s c #831F1F",
"d c #A70000",
"f c #B30000",
"g c #BF0000",
"h c #8B2323",
"j c #8F2B2B",
"k c #972F2F",
"l c #9B3333",
"z c #A33B3B",
"x c #A73F3F",
"c c #CB0000",
"v c #D70000",
"b c #E30000",
"n c #EF0000",
"m c red",
"M c #FF1F1F",
"N c #FF3F3F",
"B c #AF4300",
"V c #AF4747",
"C c #B34F4F",
"Z c #BB5757",
"A c #BF5B5B",
"S c #FF5F5F",
"D c #C76363",
"F c #CB6B6B",
"G c #D37373",
"H c #DB7B7B",
"J c #FF7B7B",
"K c #000083",
"L c #00009B",
"P c #0000B3",
"I c #0000CB",
"U c #0000E3",
"Y c blue",
"T c #1B1BFF",
"R c #3737FF",
"E c #5353FF",
"W c black",
"Q c #838383",
"! c #8B8B8B",
"~ c #939393",
"^ c #979797",
"/ c #9F9F9F",
"( c #A7A7A7",
") c gray67",
"_ c gray70",
"` c gray75",
"' c #DF8787",
"] c #EB9797",
"[ c gray78",
"{ c LightGray",
"} c gray86",
"| c #DFDFDF",
/* pixels */
"WWWWWWWWWWWWWWWWWWWWWWWWWWWWWWWWWWWWWWWWWWWWWWWWWWWWWWWWWWWWWWWWWWWWWWWWWWWWWWWWWW",
"WWWWWWWWWWWWWWWWWWWWWWWWWWWWWWWWWWWWWWWWWWWWWWWWWWWWWWWWWWWWWWWWWWWWWWWWWWWWWWWWWW",
"WWWWWWWWWWWWWWWWWWWWWWWWWWWWWWWWWWWWWWWWWWWWWWWWWWWWWWWWWWWWWWWWWWWWWWWWWWWWWWWWWW",
"WWWWWWWWWWWWWWWWWWWWWWWWWWWWWWWWWWWWWWWWWWWWWWWWWWWWWWWWWWWWWWWWWWWWWWWWWWWWWWWWWW",
"WWWWWWWWWWWWWWWWWWWWWWWWWWWWWWWWWWWWWWWWWWWWWWWWWWWWWWWWWWWWWWWWWWWWWWWWWWWWWWWWWW",
"WWWWWWWWWWWWWWWWWWWWWWWWWWWeWWWWWWWWWWWWWWWWWWWWWWWWWeWWWWWWWWWWWWWWWWWWWWWWWWWWWW",
"WWWWWWWWWWWWWWWWWWWWWWWWWWetWWWWWWWWWWWWWWWWWWWWWWWWWteWWWWWWWWWWWWWWWWWWWWWWWWWWW",
"WWWWWWWWWWWWWWWWWWWWWWWWWWtuWWWWWWWWWWWWWWWWWWWWWWWWWutWWWWWWWWWWWWWWWWWWWWWWWWWWW",
"WWWWWWWWWWWWWWWWWWWWWWWWWyu!WWWWWWWWWWWWWWWWWWWWWWWWW!uyWWWWWWWWWWWWWWWWWWWWWWWWWW",
"WWWWWWWWWWWWWWWwrWWWWWWWWyQ^WWWWWWWWWWWWWWWWWWWWWWWWW^QyWWWWWWWWrwWWWWWWWWWWWWWWWW",
"WWWWWWWWWWWWWWWwrWWWWWWWWy^)uWWWWWWWWWWWWWWWWWWWWWWWu)^yWWWWWWWWrwWWWWWWWWWWWWWWWW",
"WWWWWWWWWWWWWWWwttWWWWWWWr!)iWWWWWWWWWWWWWWWWWWWWWWWi)!rWWWWWWWtrqWWWWWWWWWWWWWWWW",
"WWWWWWWWWWWWWWWwryuWWWWWWeQ(~uWWWWWWWWWWWWWWWWWWWWWu~(QeWWWWWWuyw0WWWWWWWWWWWWWWWW",
"WWWWWWWWWWWWWWWweruyWWWWWqy^/iuWWWWWW,fffff,WWWWWWui/^yqWWWWWyurq9WWWWWWWWWWWWWWWW",
"WWWWWWWWWWWWWWWWweuQyWWWW9ti~^iuW,aafvmmnnvffaa,Wui^~it9WWWWyQueqWWWWWWWWWWWWWWWWW",
"WWWWWWWWWWWWWWWW90ru!yWWW9ri~aaaffffmnfcvcfccffffaaa~ir9WWWy!urq9WWWWWWWWWWWWWWWWW",
"WWWWWWWWWWWWWWWW90wyQ!yWW+e,,afggdcbbgvNNbvggbcdggfa,,e+WWy!Qyw09WWWWWWWWWWWWWWWWW",
"WWWWWWWWWWWWWWWWW00eu!/!W+,,,acccfcbvcNJSMvcfbcfccca,,,+3!/!ueq0WWWWWWWWWWWWWWWWWW",
"WWWWWWWWWWWWWWWWW90wtu~//icbmnnbvfcbcvSSSNMvdbcfvbnnmbci//~Qtw09WWWWWWWWWWWWWWWWWW",
"WWWWWWWWWWWWWWWWWW+0qti~((``~ummvfcbgvNNSNmvdbcfvmmu~``((~itq0+WWWWWWWWWWWWWWWWWWW",
"WWWWWWWWWWWWWWWWWWO+0wti~([}``umbdgnfvnMNmnvcngdbSu``}[(~itw0+OWWWWWWWWWWWWWWWWWWW",
"WWWWWWWWWWWWWWWWWWgO+0wtu~(`|`ubbddmmcgbmbgcmmddbJu`|`(~utw0+OgWWWWWWWWwWWWWWWWWWW",
"WWWWWWWWWwt!!iWWWggcO+0wtyu^(_unbdgvmvfgbgfvmvgdbJu_(^uytw0+OcggWWWi!!tWWWWWWWWWWW",
"WWWWWWWWWWewy!((WvfgfO+0wttyQ!umvdcdvmfgbgfmvdcdvmu!Qyttw0+OfgfvW((!yweWWWWWWWWWWW",
"WWWWWWWWWWWewri^)~irvfO+00wryugbgfagdmcfgfcmdgafgbguyrw00+Ofvri~)^irweWWWWWWWWWWWW",
"WWWWWWWWWWWWWwwr!^~QrndfO+qwegvgdcbggcnfffncgbccdgvgewq+O,,nrQ~^!rwwWWWWWWWWWWWWWW",
"WWWWWWWWWWWWWWWqwyQurn,adcgcccfdabmbganfffnabmbfadfcccdap,,nruQywqW3WWWWWWWWWWWWWW",
"WWWWWWWWWWWWWWgg+qwrwvvfaapppadfcbbbcfcbdbcfcbcddfdap>&&&>pvwrwq+gg3WWWWWWWWWWWWWW",
"WWWWWWWWWWWWWdfnvd++dbcd,pafgfgcbnnvgapfcfpaggdgbvvcgfa>&,fcd++dcnfdWWWWWWWWWWWWWW",
"WWWWWWWWWWWWWdfngvbcbvfd>pafgfgcbnnvgapfcfpaggdgbvvcgfa>&&-cbnncgnfdWWWWWWWWWWWWWW",
"WWWWWWWWWWWWfddvnca,aff>->afgfgcmmnvgd,>a>,dadcbnbgfgfap>&->pvvnnvddfWWWWWWWWWWWWW",
"WWWWWWWWWWWWfgfdfaafada----,pafgcmnvgdp>->padcbmngfap,**&,a8,>affafgfWWWWWWWWWWWWW",
"WWWWWWWWWWWafgbd,,afvmv>--:<1ppadnmvgdp>->pdgbmncapp1****TfdpK>,,dbgfaWWWWWWWWWWWW",
"WWWWWWWWWWWa,afacnagvnfps:<<1:22pfmvgdp>->pdgbmfd22==I=**8Rfdp&dppfa,aWWWWWWWWWWWW",
"WWWWWWWWWWW5->,pfvpffdp,2k2221:*;pcmgdp>->pdgmcpp:=L:1;8RIpKdp&vgp,>-5WWWWWWWWWWWW",
"WWWWWWWWWWW,&&>>pd>pps,2js2111=*#%anbcdp>pdcbba,%**:<ITT%I-ppp>pp>>&&,WWWWWWWWWWWW",
"WWWWWWWWWWgp,&&----1,jklCh2<<<;;*#sfmbgcpcgbmfs#$*L1TKREK%%K------&&,agWWWWWWWWWWW",
"WWWWWWWWWWbca,>&&-skzVGkzxj12;:1*#;jgbgcpcgbgj;#LL:IRE8I:2Klh2:-&&-,acbgWWWWWWWWWW",
"WWWWWWWWWgvvfa>$&&1skCAlCxzj;11s<*%;sffcpcffs;%$=:LEK8IKkKlCzh1&&$>afvgfWWWWWWWWWW",
"WWWWWWWWWfcgdp---11shCxlCZzkhssCzz;*;1sapa1;$*;LzLKETIKh22xCkhh*---pdgcdWWWWWWWWWW",
"WWWWWWWWWdfdp,p,-::1skhjxVlhxCG]FFV;*$L$&$$L;TKzLPP77TKKK<hkhs:*-,p,pdfdWWWWWWWWWW",
"WWWWWWWWWdfdp,ap-::1skhjxVlhxCG]FFZVz,,;&;,:sjKTE777KKTx2Thkhs:*-,p,pdf,WWWWWWWWWW",
"WWWWWWWWW,dp>pda-:::1khjxVlZCG]HAVF'Fxhl:LhTGL7E7PKP7TKKK<;hT1*4-adp>pd-WWWWWWWWWW",
"WWWWWWWWW-,-pdap-.~t5:<2lClAG]GCVklF'FLz:zV'T7Tz7KPKPPCCl;$:5t~.-,adp-,5WWWWWWWWWW",
"WWWWWWWWW5-->p,-$ rqrt:<shzAZZxG'VklZZZkhkLT7PVK'PAVPAVhs*:jrqr&--,aa--pWWWWWWWWWW",
"WWWWWWWWWppa,--&$&9+~/t:1hklkxZDG'VVAVkhkhhLALVxGDZVklCh1:tt~+$&$&--,apaWWWWWWWWWW",
"WWWWWWWWWaafa-,,,>&&ruuw:::h2zVZDVVA'DVzLzVL'D''PxVz2P:::wu/r$&@$,,,afaaWWWWWWWWWW",
"WWWWWWWWWaggg,fff,>&9ruw:(e::hlxZVDGZVLjFjZVZGDGZxlh::e(kwuu$&@@*&f,gggaWWWWWWWWWW",
"WWWWWWWWWadgbaacfa,>&&wqo!Qqq:12hzjzzxVkxkVxzzjzh21:qqQ!oqw$&#;-&&fabgdWWWWWWWWWWW",
"WWWWWWWWWWdfcdcfffaa>-&&6wyq(qs:22hssjkLkzkjssh22:s,(qyw$$&&>---&gcdcfdWWWWWWWWWWW",
"WWWWWWWWWWgddcbfcfbbffa&-&Oor6y)qw/ejhkCFCkhje/wq)y,XoO&&&ap,>>agcbaddgWWWWWWWWWWW",
"WWWWWWWWWWBpafnMvMccbKvcfaaaabbbbccggaaLu0oLX66e!--aaaaafgddp,agvMa>apBWWWWWWWWWWW",
"WWWWWWWWWWWcdapagbMMccbKddcgKfgbbbgdp>L&ppLnNNLbbbbbbvvggfffpaaggapdgcWWWWWWWWWWWW",
"WWWWWWWWWWWcfd,1,avbbMggKdd>KKMvvnMvgpL&aLcSLNNNnnnmNvvvcvbnvgggdpcgfcWWWWWWWWWWWW",
"WWWWWWWWWWWWdp1jP,aggcbvc>>K>$>>,cvScg&LIfLJSNmNmmNmmbbvbNMca,gfdcffdWWWWWWWWWWWWW",
"WWWWWWWWWWWWf1lzxa,,pdPMK@@8$LK&L>adg>LYIgMSJSNMNMmNnbNNNMcd,p,bcffafWWWWWWWWWWWWW",
"WWWWWWWWWWWWaaklzxap,Pd>@KPYIILL@&>a>&Y-IcLNNSSSJSNNSNMMMcd,pl>cdapaaWWWWWWWWWWWWW",
"WWWWWWWWWWWWa,sklzp,,dfP@PPTYILK$@>PLYYILLbmMMNNSSJSNnvccd,plj>dap>,aWWWWWWWWWWWWW",
"WWWWWWWWWWWWa,sklzp,,Kfv>KIEEYLLPUYIL$LLggLmMMNNSSJSNnvcfa,plj>dap>,aWWWWWWWWWWWWW",
"WWWWWWWWWWWWp-Wskp,,,dpcc>K&@788@--P,PbLffvLvcvvbMMnbbvfd,,plj>dp,W-pWWWWWWWWWWWWW",
"WWWWWWWWWWWWW,ff,,cvngafKbbca,&&,agfPcvvaafcdLgccbbcgffdphkjnvca>ff,WWWWWWWWWWWWWW",
"WWWWWWWWWWWWWW,>accccngpff,pdfgccfapadfPpLadapafgcgfdp,,phgncccca>,WWWWWWWWWWWWWWW",
"WWWWWWWWWWWWWWWWaf/{fcnfdccfpadfgaPfpgdappdgpfpaffdapfccdfncf{/faWWWWWWWWWWWWWWWWW",
"WWWWWWWWWWWWWWWWWi^Qecnfcnga,padf>cmf,aapaa,fmc>pdap,agncfnceQ^iWWWWWWWWWWWWWWWWWW",
"WWWWWWWWWWWWWWWWWyurqcnfngaaafafp>cmf,aapaa,fmc>pfafaaagnfncqruyWWWWWWWWWWWWWWWWWW",
"WWWWWWWWWWWWWWWWWyurqcnfngaaafafp>cmf,aapaa,fmc>pfafaaagnfncqruyWWWWWWWWWWWWWWWWWW",
"WWWWWWWWWWWWWWWWWrtq+cfpga>Wpp>gffmcWp,apa,pWcmffg>ppW>agpfc+qtrWWWWWWWWWWWWWWWWWW",
"WWWWWWWWWWWWWWWWWqe+W$--gf>>,>,,gvgWp>,ppp,>pWgvg,,>,>>fa--$W+eqWWWWWWWWWWWWWWWWWW",
"WWWWWWWWWWWWWWWWWqeWWWWWWga,>WW>a-Wa>&,,,,,&>aW-a>W3>,aaWWWWWWeqWWWWWWWWWWWWWWWWWW",
"WWWWWWWWWWWWWWWWWWWWWWWWWWf,,cWW>a,>&-->->>-&>,a>WWc,,aWWWWWWWWWWWWWWWWWWWWWWWWWWW",
"WWWWWWWWWWWWWWWWWWWWWWWWWWWW-,fcg,&$->>-WW>>-$&,gcf,-aWWWWWWWWWWWWWWWWWWWWWWWWWWWW",
"WWWWWWWWWWWWWWWWWWWWWWWWWWWWWW---&$WWWWWWWWWWW$&---aWWWWWWWWWWWWWWWWWWWWWWWWWWWWWW",
"WWWWWWWWWWWWWWWWWWWWWWWWWWWWWWWWWWWWWWWWWWWWWWWWWWWWWWWWWWWWWWWWWWWWWWWWWWWWWWWWWW",
"WWWWWWWWWWWWWWWWWWWWWWWWWWWWWWWWWWWWWWWWWWWWWWWWWWWWWWWWWWWWWWWWWWWWWWWWWWWWWWWWWW",
"WWWWWWWWWWWWWWWWWWWWWWWWWWWWWWWWWWWWWWWWWWWWWWWWWWWWWWWWWWWWWWWWWWWWWWWWWWWWWWWWWW",
"WWWWWWWWWWWWWWWWWWWWWWWWWWWWWWWWWWWWWWWWWWWWWWWWWWWWWWWWWWWWWWWWWWWWWWWWWWWWWWWWWW",
"WWWWWWWWWWWWWWWWWWWWWWWWWWWWWWWWWWWWWWWWWWWWWWWWWWWWWWWWWWWWWWWWWWWWWWWWWWWWWWWWWW",
"WWWWWWWWWWWWWWWWWWWWWWWWWWWWWWWWWWWWWWWWWWWWWWWWWWWWWWWWWWWWWWWWWWWWWWWWWWWWWWWWWW",
"WWWWWWWWWWWWWWWWWWWWWWWWWWWWWWWWWWWWWWWWWWWWWWWWWWWWWWWWWWWWWWWWWWWWWWWWWWWWWWWWWW",
"WWWWWWWWWWWWWWWWWWWWWWWWWWWWWWWWWWWWWWWWWWWWWWWWWWWWWWWWWWWWWWWWWWWWWWWWWWWWWWWWWW",
"WWWWWWWWWWWWWWWWWWWWWWWWWWWWWWWWWWWWWWWWWWWWWWWWWWWWWWWWWWWWWWWWWWWWWWWWWWWWWWWWWW",
"WWWWWWWWWWWWWWWWWWWWWWWWWWWWWWWWWWWWWWWWWWWWWWWWWWWWWWWWWWWWWWWWWWWWWWWWWWWWWWWWWW"
};
