/* XPM */
static char *b37863867405454e94a9683dafcfff34hpWcuRmWPE4fkoHB[] = {
/* columns rows colors chars-per-pixel */
"82 82 117 2 ",
"   c black",
".  c #0B1707",
"X  c #1B1B1B",
"o  c #13230B",
"O  c #17330F",
"+  c #3F2F17",
"@  c #000023",
"#  c #232323",
"$  c #272727",
"%  c #2F2F2F",
"&  c #373F27",
"*  c #373737",
"=  c gray23",
"-  c #430000",
";  c #470000",
":  c #4F0000",
">  c #530707",
",  c #5B0000",
"<  c #5B0707",
"1  c #5F0707",
"2  c #670000",
"3  c #670B0B",
"4  c #6B0F0F",
"5  c #730000",
"6  c #7F0000",
"7  c #731313",
"8  c #771717",
"9  c #7F1B1B",
"0  c #43331B",
"q  c #4B371B",
"w  c #732B00",
"e  c #4F3B23",
"r  c #1F4317",
"t  c #27531B",
"y  c #3F472B",
"u  c #2F6323",
"i  c #37732B",
"p  c #5B472B",
"a  c #675333",
"s  c #775F3F",
"d  c #000047",
"f  c #000053",
"g  c #00006B",
"h  c #434343",
"j  c gray28",
"k  c gray31",
"l  c gray34",
"z  c #5B5B5B",
"x  c gray39",
"c  c gray42",
"v  c #6F6F6F",
"b  c #777777",
"n  c gray50",
"m  c #8B0000",
"M  c #9B0000",
"N  c #831F1F",
"B  c #A70000",
"V  c #B30000",
"C  c #BF0000",
"Z  c #8B2323",
"A  c #8F2B2B",
"S  c #972F2F",
"D  c #9B3333",
"F  c #A33B3B",
"G  c #A73F3F",
"H  c #CB0000",
"J  c #D70000",
"K  c #E30000",
"L  c #EF0000",
"P  c red",
"I  c #FF1F1F",
"U  c #FF3F3F",
"Y  c #AF4300",
"T  c #AF4747",
"R  c #B34F4F",
"E  c #BB5757",
"W  c #BF5B5B",
"Q  c #836B4B",
"!  c #FF5F5F",
"~  c #C76363",
"^  c #CB6B6B",
"/  c #D37373",
"(  c #DB7B7B",
")  c #FF7B7B",
"_  c #3F832F",
"`  c #439337",
"'  c #4B9F3F",
"]  c #53AF47",
"[  c #5BBF4F",
"{  c #5FCF57",
"}  c #6FEF67",
"|  c #9F8363",
" . c #000083",
".. c #00009B",
"X. c #0000B3",
"o. c #0000CB",
"O. c #0000E3",
"+. c blue",
"@. c #1B1BFF",
"#. c #3737FF",
"$. c #5353FF",
"%. c black",
"&. c #838383",
"*. c #8B8B8B",
"=. c #939393",
"-. c #979797",
";. c #9F9F9F",
":. c #A7A7A7",
">. c gray67",
",. c gray70",
"<. c gray75",
"1. c #DF8787",
"2. c #EB9797",
"3. c gray78",
"4. c LightGray",
"5. c gray86",
"6. c #DFDFDF",
/* pixels */
"%.%.%.%.%.%.%.%.%.%.%.%.%.%.%.%.%.%.%.%.%.%.%.%.%.%.%.%.%.%.%.%.%.%.%.%.%.%.%.%.%.%.%.%.%.%.%.%.%.%.%.%.%.%.%.%.%.%.%.%.%.%.%.%.%.%.%.%.%.%.%.%.%.%.%.%.%.%.%.%.%.%.",
"%.%.%.%.%.%.%.%.%.%.%.%.%.%.%.%.%.%.%.%.%.%.%.%.%.%.%.%.%.%.%.%.%.%.%.%.%.%.%.%.%.%.%.%.%.%.%.%.%.%.%.%.%.%.%.%.%.%.%.%.%.%.%.%.%.%.%.%.%.%.%.%.%.%.%.%.%.%.%.%.%.%.",
"%.%.%.%.%.%.%.%.%.%.%.%.%.%.%.%.%.%.%.%.%.%.%.%.%.%.%.%.%.%.%.%.%.%.%.%.%.%.%.%.%.%.%.%.%.%.%.%.%.%.%.%.%.%.%.%.%.%.%.%.%.%.%.%.%.%.%.%.%.%.%.%.%.%.%.%.%.%.%.%.%.%.",
"%.%.%.%.%.%.%.%.%.%.%.%.%.%.%.%.%.%.%.%.%.%.%.%.%.%.%.%.%.%.%.%.%.%.%.%.%.%.%.%.%.%.%.%.%.%.%.%.%.%.%.%.%.%.%.%.%.%.%.%.%.%.%.%.%.%.%.%.%.%.%.%.%.%.%.%.%.%.%.%.%.%.",
"%.%.%.%.%.%.%.%.%.%.%.%.%.%.%.%.%.%.%.%.%.%.%.%.%.%.%.%.%.%.%.%.%.%.%.%.%.%.%.%.%.%.%.%.%.%.%.%.%.%.%.%.%.%.%.%.%.%.%.%.%.%.%.%.%.%.%.%.%.%.%.%.%.%.%.%.%.%.%.%.%.%.",
"%.%.%.%.%.%.%.%.%.%.%.%.%.%.%.%.%.%.%.%.%.%.%.%.%.%.%.%.%.%.%.%.%.%.%.%.%.%.%.%.%.%.%.%.%.%.%.%.%.%.%.%.%.%.%.%.%.%.%.%.%.%.%.v %.%.%.%.%.%.%.%.%.%.%.%.%.%.%.%.%.%.",
"%.%.%.%.%.%.%.%.%.%.%.%.%.%.%.%.%.%.%.%.%.%.%.%.%.%.%.%.%.%.%.%.%.%.%.%.%.%.%.%.%.%.%.%.%.%.%.%.%.%.%.%.%.%.%.%.%.%.%.%.%.%.%.%.%.%.%.%.c %.%.%.%.%.%.%.%.%.%.%.%.%.",
"%.%.%.%.%.%.%.%.%.%.%.%.%.%.%.%.%.%.%.%.%.%.%.%.%.%.%.%.%.%.%.%.%.%.%.%.%.%.%.%.%.%.%.%.%.%.%.%.%.%.%.%.%.%.%.%.%.%.%.%.%.%.%.%.x %.%.%.x %.%.%.%.%.%.%.%.%.%.%.%.%.",
"%.%.%.%.%.%.%.%.%.%.%.%.%.%.%.%.%.%.%.%.%.%.%.%.%.%.%.%.%.%.%.%.%.%.%.%.%.%.%.%.%.%.%.%.%.%.%.%.%.%.%.%.%.%.%.%.%.%.%.%.%.%.%.%.%.%.%.%.%.%.%.%.%.%.%.%.%.%.%.%.%.%.",
"%.%.%.%.%.%.%.%.%.%.%.%.%.%.%.%.%.%.%.%.%.%.%.%.%.%.%.z %.%.%.%.%.%.%.%.%.%.%.%.%.%.%.%.%.%.%.%.%.%.%.%.%.z %.%.%.%.%.%.%.%.%.%.b %.%.%.%.%.%.%.%.%.%.%.%.%.%.%.%.%.",
"%.%.%.%.%.%.%.%.%.%.%.%.%.%.%.%.%.%.%.%.%.%.%.%.%.%.z c %.%.%.%.%.%.%.%.%.%.%.%.%.%.%.%.%.%.%.%.%.%.%.%.%.c z %.%.%.%.%.%.%.%.%.%.l h %.%.%.%.%.%.%.%.%.%.%.%.%.%.%.",
"%.%.%.%.%.%.%.%.%.%.%.%.%.%.%.%.%.%.%.%.%.%.%.%.%.%.c b %.%.%.%.%.%.%.%.%.%.%.%.%.%.%.%.%.%.%.%.%.%.%.%.%.b c %.%.%.%.%.%.%.%.%.k %.%.%.%.%.%.%.%.%.%.%.%.%.%.%.%.%.",
"%.%.%.%.%.%.%.%.%.%.%.%.%.%.%.%.%.%.%.%.%.%.%.%.%.v b *.%.%.%.%.%.%.%.%.%.%.%.%.%.%.%.%.%.%.%.%.%.%.%.%.%.*.b v %.%.%.%.%.%.%.%.b l %.%.%.%.%.%.%.%.%.%.%.%.%.%.%.%.",
"%.%.%.%.%.%.%.%.%.%.%.%.%.%.%.l x %.%.%.%.%.%.%.%.v &.-.%.%.%.%.%.%.%.%.%.%.%.%.%.%.%.%.%.%.%.%.%.%.%.%.%.-.&.v %.%.%.%.%.%.%.%.j v %.%.%.%.%.%.%.%.%.%.%.%.%.%.%.%.",
"%.%.%.%.%.%.%.%.%.%.%.%.%.%.%.l x %.%.%.%.%.%.%.%.v -.>.b %.%.%.%.%.%.%.%.%.%.%.%.%.%.%.%.%.%.%.%.%.%.%.b >.-.v %.%.%.%.%.%.%.%.%.*.&.x %.%.%.%.%.%.%.%.%.%.%.%.%.%.",
"%.%.%.%.%.%.%.%.%.%.%.%.%.%.%.l c c %.%.%.%.%.%.%.x *.>.n %.%.%.%.%.%.%.%.%.%.%.%.%.%.%.%.%.%.%.%.%.%.%.n >.*.x %.%.%.%.%.%.%.%.%.*.%.%.%.%.%.%.%.%.%.%.%.%.%.%.%.%.",
"%.%.%.%.%.%.%.%.%.%.%.%.%.%.%.l x v b %.%.%.%.%.%.z &.:.=.b %.%.%.%.%.%.%.%.%.%.%.%.%.%.%.%.%.%.%.%.%.b =.:.&.z %.%.%.%.%.%.v v v b %.%.%.%.%.%.%.%.%.%.%.%.%.%.%.%.",
"%.%.%.%.%.%.%.%.%.%.%.%.%.%.%.l z x b v %.%.%.%.%.k v -.;.n b %.%.%.%.%.%.6 V V V V V 6 %.%.%.%.%.%.b n ;.-.v k %.%.%.%.%.%.*.&.b %.%.%.%.%.%.%.%.%.%.%.%.%.%.%.%.%.",
"%.%.%.%.%.%.%.%.%.%.%.%.%.%.%.%.l z b &.v %.%.%.%.h c n =.-.n b %.6 M M V J P P L L J V V M M 6 %.b n -.=.n c h %.%.%.%.%.*.x z k %.%.%.%.%.%.%.%.%.%.%.%.%.%.%.%.%.",
"%.%.%.%.%.%.%.%.%.%.%.%.%.%.%.%.h j x b *.v %.%.%.h x n =.M M M V V V V P L V H J H V H H V V V V M M M =.n x h %.%.%.v *.&.v k h %.%.%.%.%.%.%.%.%.%.%.%.%.%.%.%.%.",
"%.%.%.%.%.%.%.%.%.%.%.%.%.%.%.%.h j l v &.*.v %.%.= z 6 6 M V C C B H K K C J U U K J C C K H B C C V M 6 6 z = %.%.v ;.*.b k j h %.%.%.%.%.%.%.%.%.%.%.%.%.%.%.%.%.",
"%.%.%.%.%.%.%.%.%.%.%.%.%.%.%.%.%.j j z b *.;.*.%.= 6 6 6 M H H H V H K J H U ) ! I J H V K H V H H H M 6 6 6 = %.*.;.*.b z = h %.%.%.%.%.%.%.%.%.%.v %.%.%.%.%.%.%.",
"%.%.%.%.%.%.%.%.%.%.%.%.%.%.%.%.%.h j l c b =.;.;.n H K P L L K J V H K H J ! ! ! U I J B K H V J K L L P K H n ;.;.=.&.c j j = %.%.%.%.%.%.%.%.*.c %.*.%.%.%.%.%.%.",
"%.%.%.%.%.%.%.%.%.%.%.%.%.%.%.%.%.%.= j k c n =.:.:.<.<.=.b P P J V H K C J U U ! U P J B K H V J P P b =.<.<.:.:.=.n c k * * %.%.%.%.%.%.%.%.x *.%.l %.%.%.%.%.%.%.",
"%.%.%.%.%.%.%.%.%.%.%.%.%.%.%.%.%.%.* = j l c n =.:.3.5.<.<.b P K B C L V J L I U P L J H L C B K ! b <.<.5.3.:.=.n c l = * H %.%.%.%.%.%.%.%.l %.n z %.%.%.%.%.%.%.",
"%.%.%.%.%.%.%.%.%.%.%.%.%.%.%.%.%.%.C * = j l c b =.:.<.6.<.b K K B B P P H C K P K C H P P B B K ) b <.6.<.:.=.b c l j * V C %.%.%.%.:.*.%.%.%.%.%.l %.%.%.%.%.%.%.",
"%.%.%.%.%.%.%.%.%.l c *.*.n %.%.%.C C H * = j l c v b -.:.,.b L K B C J P J V C K C V J P J C B K ) b ,.:.-.b c l l j = J C C C %.%.-.*.n %.*.l *.%.%.%.%.%.%.%.%.%.",
"%.%.%.%.%.%.%.%.%.%.z l v *.:.:.%.J V C V * = j l c c v &.*.b P J B H B J P V C K C V P B C H B J P b *.&.v c = j j = V L x V J %.>.*.n x *.%.*.%.x %.%.%.%.%.%.%.%.",
"%.%.%.%.%.%.%.%.%.%.%.z l x n -.>.=.n x J V * = j j l x v b C K C V M C B P H V C V H P C P M V C K C b v x k H B 6 6 6 L x n =.-.l x l l %.%.l %.z %.%.%.%.%.%.%.%.",
"%.%.%.%.%.%.%.%.%.%.%.%.%.l l x *.-.=.&.x L B V * = k l z C J C B H K C C H L V V V L H K H K H B C J C z l , M * 5 m V x &.=.v l k l %.%.%.%.%.%.%.%.%.%.%.%.%.%.%.",
"%.%.%.%.%.%.%.%.%.%.%.%.%.%.%.k l v &.b x L 6 M B H C H H H V B M K P K C M L V V V L M K C B V M B V H H 5 V M , 5 , 6 , b &.= = k %.%.%.%.%.%.%.%.%.%.%.%.%.%.%.%.",
"%.%.%.%.%.%.%.%.%.%.%.%.%.%.C C = k l x l J J V m M m V C M B V H K K K H V H K B K H V H B C B B V B M m C V , , 5 , , H x = m B C C %.%.%.%.%.%.%.%.%.%.%.%.%.%.%.",
"%.%.%.%.%.%.%.%.%.%.%.%.%.B V L J B = = B K H B M V M V C V C H K L L J C m V V H V m M C C H C K J J H C V M 5 M m < 6 H K B J H L V B %.%.%.%.%.%.%.%.%.%.%.%.%.%.",
"%.%.%.%.%.%.%.%.%.%.%.%.%.B V L C J K H K J V B 5 5 2 m M V C H K L L J J C 2 M H V m M C K P K K J J H C M m < < < < 2 g V #.H C L V B %.%.%.%.%.%.%.%.%.%.%.%.%.%.",
"%.%.%.%.%.%.%.%.%.%.%.%.V B B J M V M 6 M V V 5 2 7 8 6 m m C H P P L J P J 5 2 5 5 6 B M B P L L K C V 8 6 < < 1 @.M 5 o.m 5 L L J B B V %.%.%.%.%.%.%.%.%.%.%.%.%.",
"%.%.%.%.%.%.%.%.%.%.%.%.V C V B 6 C V J M B M 2 2 2 4 8 4 8 V C H P L J C B m 5 m 5 m M B H V B L C V m 9 1 o.8 3 g < g #.V M V V M V m C %.%.%.%.%.%.%.%.%.%.%.%.%.",
"%.%.%.%.%.%.%.%.%.%.%.M V C K B 6 M J L m P J 5 2 2 7 9 7 4 9 M B L P L H B H 5 2 m m B C K P m H M m ..1 o.4 @ @.$.@.o.m  .5 6 6 m B C M M %.%.%.%.%.%.%.%.%.%.%.%.",
"%.%.%.%.%.%.%.%.%.%.%.M 6 M V M H L M V 6 V A m N 4 7 8 1 @ @ 9 m V P P C K 3 V 5 H B B C K 6 > m 9 1 @ @ @ @. . .@.#.> B m , B J 5 2 V 6 M %.%.%.%.%.%.%.%.%.%.%.%.",
"%.%.%.%.%.%.%.%.%.%.%.w 2 5 6 m V J m V B 6 R 9 N S 9 9 8 0 @ 3 m V < N K C B K m B P K C P H ; : 4 @ @ 4 @ o.$.#.> 2  .B m , D 2 4 m 5 2 w 6 %.%.%.%.%.%.%.%.%.%.%.",
"%.%.%.%.%.%.%.%.%.%.%.6 , , 5 5 m B 5 m m N 9 Z 9 8 9 8 @ @ 0 @ M ; 0 @ A > m < m m K A V K M @ @ 0 0 @ @ o.#.$.#. .> m m  .m R 2 m 5 , 2 , M %.%.%.%.%.%.%.%.%.%.%.",
"%.%.%.%.%.%.%.%.%.%.C m : 2 2 2 R 2 2 F T A S D G 3 7 9 7 3 0 0 0 0 0 @ N H V H m H C C 3 3 N ; 0 0 0 ..@ $. .@  .> >  .9 D  .Z 2 2 , , 5 , M %.%.%.%.%.%.%.%.%.%.%.",
"%.%.%.%.%.%.%.%.%.%.K H 2 8 8 N Z S W D D / R S F A N 8 0 @ @ @ 0 @ p p p s s H H V C K @ O @ @ 0 p 0 0 @ @ @ p a  .9 9 S F 9 2 , < , : 6 H K %.%.%.%.%.%.%.%.%.%.%.",
"%.%.%.%.%.%.%.%.%.C J J V 5 , 4 N G A Z R R D G F A Z @ @ 0 0 @ @ p | | Q s 8 M V 3 : N @ O 0 O e p a 0 0 @.a a  .@ @  .R Z 8 S , N 2 M V J C %.%.%.%.%.%.%.%.%.%.%.",
"%.%.%.%.%.%.%.%.%.V H C B m 2 2 8 N N S G D T E F S G N N @ 0 @ p | Q s p e N M m 8 @ < @.O 0 o O p a p a a p & @ @.9 G S @.Z S Z 4 2 2 2 B H %.%.%.%.%.%.%.%.%.%.%.",
"%.%.%.%.%.%.%.%.%.B V B m 6 m 6 2 4 4 N Z Z E G / R Z 2.R @ @ p Q s p e : i t : , : : ....@ 0 O o e a a a p 0 & @. .9  .7 7 Z Z 4 < 2 6 m 6 m m %.%.%.%.%.%.%.%.%.%.",
"%.%.%.%.%.%.%.%.%.B V B m 6 M m 2 4 4 S 7 Z G G W E / ( / ^ @ s | p e D i 4 N ` @.6 3 A & @ 0 0 o 0 e a Q a & O O O  . .@.Z Z N < 6 < m 2 M m V %.%.%.%.%.%.%.%.%.%.",
"%.%.%.%.%.%.%.%.%.6 B m 5 m B M 2 4 4 w 7 9 D Z D D / 2.~ @ T Q Q e ` i t Z ` / @  .@ ..f X.o 0 O o 0 e a Q Q r O O  .7 3 Z @.4 8 c =.q 2 B 5 m %.%.%.%.%.%.%.%.%.%.",
"%.%.%.%.%.%.%.%.%.2 6 2 m B M m 2 + =.c c 4 8 Z R F W G 2./ T Q s ` @ i ' ` @ @.f @ @ @ & @ & o 0 0 o 0 e s Q Q p p D 3 @ : 4 x w x + 6 M B M m %.%.%.%.%.%.%.%.%.%.",
"%.%.%.%.%.%.%.%.%.w 2 2 5 m 6 2 : X x k x c l N S D F E ~ @ p | p u u u ' ` @ ..T f X.&  .O.O.o 0 0 o o f Q s a s s N N 4 @ < c =.X 2 2 6 M 6 2 %.%.%.%.%.%.%.%.%.%.",
"%.%.%.%.%.%.%.%.%.m m M 6 2 2 , : X h = =.;.4 :.4 4 k S @ @ s i _ [ [ ' [ [ i f @.@.W  .X.O.X.@ 0 0 W 0 s Q a 0 0 0 4 4 4 < x A + k h X , 2 M m %.%.%.%.%.%.%.%.%.%.",
"%.%.%.%.%.%.%.%.%.M M M 2 H 6 6 < ; H h x b b l *.4 Z E @ p t ` { { [ [ [ ` t Z ..T T 1.o.X.O.0 & G 0 Q Q a @ @ f @ l l ;.;.c =   - : 6 2 M M M %.%.%.%.%.%.%.%.%.%.",
"%.%.%.%.%.%.%.%.%.M C C V H V ; V ; V l B x b % v &.z 4 @ @ t _ { } r o ] _ t T @ ..T G E o.@ & y y Q a @ p p ..p 0 @ @ b h - - < < : V 6 C C M %.%.%.%.%.%.%.%.%.%.",
"%.%.%.%.%.%.%.%.%.M B C B M V V 9 2 V V  .d M k l % k k @ @ O u _ i o o u u r ..R 1.F G / @ O.@ y a a p X.X.X.X.g g ....0 l b b # 2 V M K C B M %.%.%.%.%.%.%.%.%.%.",
"%.%.%.%.%.%.%.%.%.%.B V H I V V K 3 K B  .2 B d $ * M T E @ . r u i i u u u r E ....R F ~ O./ 9 y a d g o.O.O.O.O.X.X.X.h h 5 x 2   3 < C B H %.%.%.%.%.%.%.%.%.%.%.",
"%.%.%.%.%.%.%.%.%.%.C B B K J I I V K J K B 5 H M C p @ @ V . O t u _ _ u r r @ @ S N ~ F F / 9 d l g X.@.#.$.#.@.X.g m 6 5 5 M 2 ; C 2 H M B %.%.%.%.%.%.%.%.%.%.%.",
"%.%.%.%.%.%.%.%.%.%.Y m M V L C J H K H  .5 5 5  .@ @ p @ @ 0 . . . . . . . C ..^ A % A ..A N Z ..z X.X.X.@.@.@.M X.....M B m 6 M C J M M m Y %.%.%.%.%.%.%.%.%.%.%.",
"%.%.%.%.%.%.%.%.%.%.%.H B M m M K I C H I H C  .M p e e e 0 @ 0 0 . . . - 5 6 b m Z M m @ ..N Z U K X.....@.@.+.C V V V B V m M M C C I m 5 %.%.%.%.%.%.%.%.%.%.%.%.",
"%.%.%.%.%.%.%.%.%.%.%.H V B 6 8 6 M K H I  .- @ @ s Q e @ X.X.X.X.- - - 5 ..! 5 , , ..V o.z ;.K U U X.K P O.O.O.J H ..L ..C C C B m H M C B %.%.%.%.%.%.%.%.%.%.%.%.",
"%.%.%.%.%.%.%.%.%.%.%.%.B m 8 A 6 C K 5 C H X.: p Q X.e 0 0 @ @ 0 @ ......6 C C C , ....o.d U ) ) ! ..L K o.o.o.J C J H M 6 C V B H V V B %.%.%.%.%.%.%.%.%.%.%.%.%.",
"%.%.%.%.%.%.%.%.%.%.%.%.V D X.M M 6 B m J X.- @.s X.X.X.0 X..... . .- - 6 6 , , B 5 +.+.o.H L ! ! U P U U X.X.X.U J K U ..m 6 K H V V M V %.%.%.%.%.%.%.%.%.%.%.%.%.",
"%.%.%.%.%.%.%.%.%.%.%.%.F F G M 6 6 m B 6 B  .+.Q X.e X.X.X.X..... . .- , 5 H M , +...I K ! ! ! ) ! U U U ..X...I H I B I 6 5 H B M m M M %.%.%.%.%.%.%.%.%.%.%.%.%.",
"%.%.%.%.%.%.%.%.%.%.%.%.S G D F m 6 6 V -  . .O.@.o.o.@.+.O.O.X.X...X.X.+.X.M ..5 +., ..I ..U U ! ! ) U L  .X. .H B 6 m H 6 m 5 M m 5 6 M %.%.%.%.%.%.%.%.%.%.%.%.%.",
"%.%.%.%.%.%.%.%.%.%.%.%.%.6 N S D m V X.X. .X.O. .X.+.#.#.@.+.O.O.o.o.@ 5 o.: ....+.+.+.C U ! U ! ! ) U !  .X. .V M 6 m D D A D B m 5 6 M %.%.%.%.%.%.%.%.%.%.%.%.%.",
"%.%.%.%.%.%.%.%.%.%.%.%.%.2 %.S 6  .X.B X.m @.H  . .X.+.#.#.#.O.O.o.:  .o.2 K : ..C J ..o.I U J J I I ! U d .. .B 6 6 m D A 5 A B 6 %.2 m %.%.%.%.%.%.%.%.%.%.%.%.%.",
"%.%.%.%.%.%.%.%.%.%.%.%.%.V 6 F 6 J J L 5 M H 5  .O.....X.O.+.+.O.o.....f O.o.J ....V H ..U ..I ..I H L ! d ..g m Z S A L J H M 5 V V 6 %.%.%.%.%.%.%.%.%.%.%.%.%.%.",
"%.%.%.%.%.%.%.%.%.%.%.%.%.%.m H 6 H 6 C C V K , , V O...X.g O.O...g ..g 2 X.2 J m V V B B ..M P V H J C K d ..g m Z C L H H H H M 5 6 %.%.%.%.%.%.%.%.%.%.%.%.%.%.%.",
"%.%.%.%.%.%.%.%.%.%.%.%.%.%.%.;.H H V L m V  .5 B H ...... .o.o.g ..X...f C 6 X.X.m M M 2 P m M V V C H H d ..g ..V L H V 4.;.V M %.%.%.%.%.%.%.%.%.%.%.%.%.%.%.%.%.",
"%.%.%.%.%.%.%.%.%.%.%.%.%.%.%.%.n 4.-.H  .L V V H C  .X.5 m X.X.- g X.H V V V 6 B X...M M m H 5 m B M m H d ..g ..V L H z &.-.n %.%.%.%.%.%.%.%.%.%.%.%.%.%.%.%.%.%.",
"%.%.%.%.%.%.%.%.%.%.%.%.%.%.%.%.%.v &.H L H L V L H  .....6 ....- ....f H m M X.M M m m C P H 5 m V M V K d ..g ..V L H k x b v %.%.%.%.%.%.%.%.%.%.%.%.%.%.%.%.%.%.",
"%.%.%.%.%.%.%.%.%.%.%.%.%.%.%.%.%.b z k k H L V C V  . .M 2 ....- 5 - ....P V m H m M M M V H 5 m V M V M d ..g ..V L H k x b v %.%.%.%.%.%.%.%.%.%.%.%.%.%.%.%.%.%.",
"%.%.%.%.%.%.%.%.%.%.%.%.%.%.%.%.v x x k = H V m M 6 ......- .. .V V H - - P m V C B 6 M M 6 H V V C 5 m m d ..g ..m V H = k c x %.%.%.%.%.%.%.%.%.%.%.%.%.%.%.%.%.%.",
"%.%.%.%.%.%.%.%.%.%.%.%.%.%.%.%.b c z = %.: 2 2 C M  . .6 .... .C J C P f %.6 m 6 M m 5 m m 6 P C 6 6 5 6 d ..g ..2 2 : %.= z k %.%.%.%.%.%.%.%.%.%.%.%.%.%.%.%.%.%.",
"%.%.%.%.%.%.%.%.%.%.%.%.%.%.%.x k k z %.%.%.%.%.M 5  . ....... .M 2 %.M H 5 6 6 6 m M 6 5 M %.%.J 5 %.%.5 d ..g ..%.%.%.%.%.z k %.%.%.%.%.%.%.%.%.%.%.%.%.%.%.%.%.%.",
"%.%.%.%.%.%.%.%.%.%.%.%.%.%.%.%.%.%.%.%.%.%.%.C V C ......H .. .5 M 6 5 5 %.m 5 2 5 m , , 5 6 %.2 %.%.H 2 d ..g ..%.%.%.%.%.%.%.%.%.%.%.%.%.%.%.%.%.%.%.%.%.%.%.%.%.",
"%.%.%.%.%.%.%.%.%.%.%.%.%.%.%.%.%.%.%.%.%.%.%.%.%.%...%...6 .. .C 6 , : 2 , 2 2 %.%.5 6 6 : , 6 C H V 6 2 d ..g ..%.%.%.%.%.%.%.%.%.%.%.%.%.%.%.%.%.%.%.%.%.%.%.%.%.",
"%.%.%.%.%.%.%.%.%.%.%.%.%.%.%.%.%.%.%.%.%.%.%.%.%.%. .%...%... .2 , : %.%.5 , 2 %.%.%.5 2 2 : , 2 2 2 M %.d ..g ..%.%.%.%.%.%.%.%.%.%.%.%.%.%.%.%.%.%.%.%.%.%.%.%.%.",
"%.%.%.%.%.%.%.%.%.%.%.%.%.%.%.%.%.%.%.%.%.%.%.%.%.%.%.%...%... .%.%.%.%.%.%.%.%.%.%.%.%.%.%.%.%.%.%.%.%.%.d ..g ..%.%.%.%.%.%.%.%.%.%.%.%.%.%.%.%.%.%.%.%.%.%.%.%.%.",
"%.%.%.%.%.%.%.%.%.%.%.%.%.%.%.%.%.%.%.%.%.%.%.%.%.%. .%.%.%... .%.%.%.%.%.%.%.%.%.%.%.%.%.%.%.%.%.%.%.%.%.d ..g %.%.%.%.%.%.%.%.%.%.%.%.%.%.%.%.%.%.%.%.%.%.%.%.%.%.",
"%.%.%.%.%.%.%.%.%.%.%.%.%.%.%.%.%.%.%.%.%.%.%.%.%.%.%.%...%... .%.%.%.%.%.%.%.%.%.%.%.%.%.%.%.%.%.%.%.%.%.d ..g %.%.%.%.%.%.%.%.%.%.%.%.%.%.%.%.%.%.%.%.%.%.%.%.%.%.",
"%.%.%.%.%.%.%.%.%.%.%.%.%.%.%.%.%.%.%.%.%.%.%.%.%.%.%.%.%.%... .%.%.%.%.%.%.%.%.%.%.%.%.%.%.%.%.%.%.%.%.%.d ..g %.%.%.%.%.%.%.%.%.%.%.%.%.%.%.%.%.%.%.%.%.%.%.%.%.%.",
"%.%.%.%.%.%.%.%.%.%.%.%.%.%.%.%.%.%.%.%.%.%.%.%.%.%.%.%.%.%... .%.%.%.%.%.%.%.%.%.%.%.%.%.%.%.%.%.%.%.%.%.d ..g %.%.%.%.%.%.%.%.%.%.%.%.%.%.%.%.%.%.%.%.%.%.%.%.%.%.",
"%.%.%.%.%.%.%.%.%.%.%.%.%.%.%.%.%.%.%.%.%.%.%.%.%.%.%.%...%... .%.%.%.%.%.%.%.%.%.%.%.%.%.%.%.%.%.%.%.%.%.d ..g %.%.%.%.%.%.%.%.%.%.%.%.%.%.%.%.%.%.%.%.%.%.%.%.%.%."
};
