/* XPM */
static char *_a3a24b9f2d542b2c5d82cdaa11e35f9NKz9RfvJd88mitLP[] = {
/* columns rows colors chars-per-pixel */
"82 82 96 2 ",
"   c #000001",
".  c #1B1B1B",
"X  c #3F2F17",
"o  c #00003B",
"O  c #232323",
"+  c #272727",
"@  c #2F2F2F",
"#  c #373737",
"$  c gray23",
"%  c #430000",
"&  c #470000",
"*  c #4F0000",
"=  c #5B0000",
"-  c #5B0707",
";  c #670000",
":  c #670B0B",
">  c #6B0F0F",
",  c #730000",
"<  c #7F0000",
"1  c #731313",
"2  c #771717",
"3  c #7F1B1B",
"4  c #4B371B",
"5  c #533F1F",
"6  c #732B00",
"7  c #1F4317",
"8  c #2F6323",
"9  c #000047",
"0  c #000053",
"q  c #00006B",
"w  c #434343",
"e  c gray28",
"r  c gray31",
"t  c gray34",
"y  c #5B5B5B",
"u  c gray39",
"i  c gray42",
"p  c #6F6F6F",
"a  c #777777",
"s  c gray50",
"d  c #8B0000",
"f  c #9B0000",
"g  c #831F1F",
"h  c #A70000",
"j  c #B30000",
"k  c #BF0000",
"l  c #8B2323",
"z  c #8F2B2B",
"x  c #972F2F",
"c  c #9B3333",
"v  c #A33B3B",
"b  c #A73F3F",
"n  c #CB0000",
"m  c #D70000",
"M  c #E30000",
"N  c #EF0000",
"B  c red",
"V  c #FF1F1F",
"C  c #FF3F3F",
"Z  c #874307",
"A  c #AF7B1F",
"S  c #AF4747",
"D  c #B34F4F",
"F  c #BB5757",
"G  c #BF5B5B",
"H  c #FF5F5F",
"J  c #C76363",
"K  c #CB6B6B",
"L  c #D37373",
"P  c #C39B2F",
"I  c #D7BB43",
"U  c #000083",
"Y  c #00009B",
"T  c #0000B3",
"R  c #0000CB",
"E  c #0000E3",
"W  c black",
"Q  c #838383",
"!  c #8B8B8B",
"~  c #939393",
"^  c #979797",
"/  c #9F9F9F",
"(  c #A7A7A7",
")  c gray67",
"_  c gray70",
"`  c #B7B7B7",
"'  c gray75",
"]  c #DF8787",
"[  c #E78F8F",
"{  c #EB9797",
"}  c #F7ABAB",
"|  c gray78",
" . c #CBCBCB",
".. c LightGray",
"X. c gray86",
"o. c #DFDFDF",
/* pixels */
"W W W W W W W W W W W W W W W W W W W W W W W W W W W W W W W W W W W W W W W W W W W W W W W W W W W W W W W W W W W W W W W W W W W W W W W W W W W W W W W W W W ",
"W W W W W W W W W W W W W W W W W W W W W W W W W W W W W W W W W W W W W W W W W W W W W W W W W W W W W W W W W W W W W W W W W W W W W W W W W W W W W W W W W W ",
"W W W W W W W W W W W W W W W W W W W W W W W W W W W W W W W W W W W W W W W W W W W W W W W W W W W W W W W W W W W W W W W W W W W W W W W W W W W W W W W W W W ",
"W W W W W W W W W W W W W W W W W W W W W W W W W W W W W W W W W W W W W W W W W W W W W W W W W W W W W W W W W W W W W W W W W W W W W W W W W W W W W W W W W W ",
"W W W W W W W W W W W W W W W W W W W W W W W W W W W W W W W W W W W W W W W W W W W W W W W W W W W W W W W W W W W W W W W W W W W W W W W W W W W W W W W W W W ",
"W W W W W W W W W W W W W W W W W W W W W W W W W W W W W W W W W W W W W W W W W W W W W W W W W W W W W W W W W W W W W W W W W W W W W W W W W W W W W W W W W W ",
"W W W W W W W W W W W W W W W W W W W W W W W W W W W W W W W W W W W W W W W W W W W W W W W W W W W W W W W W W W W W W W W W W W W W W W W W W W W W W W W W W W ",
"W W W W W W W W W W W W W W W W W W W W W W W W W W W W W W W W W W W W W W W W W W W W W W W W W W W W W W W W W W W W W W W W W W W W W W W W W W W W W W W W W W ",
"W W W W W W W W W W W W W W u W W W W W W W W W W W W y W W W W W W W W W W W W W W W W W W W W W W W W W y W W W W W W W W W W W W u W W W W W W W W W W W W W W W ",
"W W W W W W W W W W W W W W u i W W W W W W W W W W y i W W W W W W W W W W W W W W W W W W W W W W W W W i y W W W W W W W W W W i u W W W W W W W W W W W W W W W ",
"W W W W W W W W W W W W W W i i W W W W W W W W W W i a W W W W W W W W W W W W W W W W W W W W W W W W W a i W W W W W W W W W W i i W W W W W W W W W W W W W W W ",
"W W W W W W W W W W W W W W u p a W W W W W W W W p a ! W W W W W W W W W W W W W W W W W W W W W W W W W ! a p W W W W W W W W a p u W W W W W W W W W W W W W W W ",
"W W W W W W W W W W W W W W W u a W W W W W W W W p Q ^ W W W W W W W W W W W W W W W W W W W W W W W W W ^ Q p W W W W W W W W a u W W W W W W W W W W W W W W W W ",
"W W W W W W W W W W W W W W W y a Q W W W W W W W p ^ ) W W W W W W W W W W W W W W W W W W W W W W W W W ) ^ p W W W W W W W Q a y W W W W W W W W W W W W W W W W ",
"W W W W W W W W W W W W W W W y u a ! W W W W W W u ! ) s W W W W W W W W W W W W W W W W W W W W W W W s ) ! u W W W W W W ! a u y W W W W W W W W W W W W W W W W ",
"W W W W W W W W W W W W W W W W y p Q ! W W W W W y Q ( ~ W W W W W W W W W W W W W W W W W W W W W W W ~ ( Q y W W W W W ! Q p y W W W W W W W W W W W W W W W W W ",
"W W W W W W W W W W W W W W W W t u a Q ! W W W W r p ^ / s W W W W W W W j m N N N m j W W W W W W W s / ^ p r W W W W ! Q a u t W W W W W W W W W W W W W W W W W ",
"W W W W W W W W W W W W W W W W W r i s ! ~ s W W w r s ~ ^ s W W W W j n n n m N m n n n j W W W W s ^ ~ s r w W W s ~ ! s i r W W W W W W W W W W W W W W W W W W ",
"W W W W W W W W W W W W W W W W W e t i s ! ~ ~ W $ 4 5 < f h h h h n M k j m B C B m j k M n h h h h f < 5 4 $ W ~ ~ ! s i t e W W W W W W W W W W W W W W W W W W ",
"W W W W W W W W W W W W W W W W W W r t i s ~ / / s < < f k m m m f n M M m B C H C B m M M n f m m m k f < < s / / ~ s i t r W W W W W W W W W W W W W W W W W W W ",
"W W W W W W W W W W W W W W W W W W e r y i s / ( ( ' s j j k m M j k N B m M B H B M m B N k j M m k j j s ' ( ( / s i y r e W W W W W W W W W W W W W W W W W W W ",
"W W W W W W W W W ! Q W W W W W W W W e t u i s ) ' | X.' f h k m n h k m B k M B M k B m k h n m k h f ' X.| ' ) s i u t e W W W W W W W W Q ! W W W W W W W W W W ",
"W W W W W W W W W W Q Q a W W W W W W W e y u i a ~ _ ' o.' f M k M k h j k j k M k j k j h k M k M f ' o.' _ ~ a i u y e W W W W W W W a Q Q W W W W W W W W W W W ",
"W W W W W W W W W W W s ~ ! a W W W k n f e y i i p a ^ ( _ h N k h n d h n n j k j n n h d n h k N h _ ( ^ a p i i y e f n k W W W a ! ~ s W W W W W W W W W W W W ",
"W W W W W W W W W W W W p ! ( ~ s p j k j f e u p i i p Q ! j B k h f d h n N j j j N n h d f h k B j ! Q p i i p u e f j k j p s ~ ( ! p W W W W W W W W W W W W W ",
"W W W W W W W W W W W W W u s ^ ) ~ s u m j f e t u p u p a k M k j n k k h n M h M n h k k n j k M k a p u p u t e f j m u s ~ ) ^ s u W W W W W W W W W W W W W W ",
"W W W W W W W W W W W W W W t u ! ^ ~ Q u k h j n e r t y k m k h n M n k j h j n j h j k n M n h k m k y t r e n j h k u Q ~ ^ ! u t W W W W W W W W W W W W W W W ",
"W W W W W W W W W W W W W W W r t p Q a u N < f h n k n n n j h f j n m n f < h f h < f n m n j f h j n n n k n h f < N u a Q p t r W W W W W W W W W W W W W W W W ",
"W W W W W W W W W W W W W W k k $ r t u N m f < f f d d d f h j k n k k h d , ; h ; , d h k k n k j h f d d d f f < f m N u t r $ k k W W W W W W W W W W W W W W W ",
"W W W W W W W W W W W W W h j N k h j n M j n h < d f j j j k n M N N m k h d , ; , d h k m N N M n k j j j f d < h n j M n j h k N j h W W W W W W W W W W W W W W ",
"W W W W W W W W W W W W W h h m N n f < f j k m f l d < d f j k n M M N M h h d , d h h M N M M n k j f d < d l f m k j f < f n N m h h W W W W W W W W W W W W W W ",
"W W W W W W W W W W W W j k j h j f k k f h f < l g > 1 2 d d f h j n n m M f d d d f M m n n j h f d d 2 1 > g l < f h f k k f j h j k j W W W W W W W W W W W W W ",
"W W W W W W W W W W W W j k M h < < h j m B m h l > 1 1 2 z 3 3 d d j j k n j d d d j m n n h d d 3 3 z 2 1 1 > l h m B m j h < < h M k j W W W W W W W W W W W W W ",
"W W W W W W W W W W W f < f j f n N f k m N j g l x l z z b b z 1 < g k m M k n d n k M m k f < 1 z b b z z l x l g j N m k f N n f j f < f W W W W W W W W W W W W ",
"W W W W W W W W W W W 6 ; , < d j m d j j h g x v v 3 l g x x x 3 , < j k n j n d n j n k j < , 3 x x x g l 3 v v x g h j j d m j d < , ; 6 W W W W W W W W W W W W ",
"W W W W W W W W W W W < ; ; , , d h , d d g v v D b z 3 l b b b g : z , f h j f d f j h f , z : g b b b l 3 z b D v v g d d , h d , , = = < W W W W W W W W W W W W ",
"W W W W W W W W W W W d < ; ; ; < d ; l x S G L D F F z 3 l z z 3 3 , > > < < , = , < , , > , 3 3 z z l 3 z F F L G S x l 2 ; d < ; = = < d W W W W W W W W W W W W ",
"W W W W W W W W W W k M k f , ; ; ; 2 v S L G F L D b c z 3 2 2 2 2 g > 7 8 7 I A I 7 8 7 > g 2 2 2 l 3 z c b D F G L S v x 2 ; ; ; , f k M k W W W W W W W W W W W ",
"W W W W W W W W W W M B n j d , * ; g x D G S D F L K F b c z 3 l x x g > 7 7 A P A 7 7 > g x x c 3 z c b F K L D S G D x x g ; = = d j n B M W W W W W W W W W W W ",
"W W W W W W W W W k M n k h d ; = = > l D b c D D J L L L K b l x S D G F S x x 3 x x S F v x x v x S K L L L J D c b D l 6 > = = * , h k n M k W W W W W W W W W W ",
"W W W W W W W W W j n k h d l l 1 = = > x l z b D F G L F S l x v D F F L F S x l x S F L F F D v v v S K L G F b z l x > > = = ; ; ; d h k n j W W W W W W W W W W ",
"W W W W W W W W W h j h d l b c l 4 u 6 > 1 3 c b S F D F x v D G K K G [ ] J F x F J ] [ G K G D v l S F D F S c 3 1 > 6 6 u 4 ; < d < d h j h W W W W W W W W W W ",
"W W W W W W W W W < h d l v D b 3 X ~ u z > g 2 c D D v x v S F J ] ] J ] { L S J S L { ] J ] ] J F S l c v x g 2 : : - u i ~ X ; f h d , d h < W W W W W W W W W W ",
"W W W W W W W W W ; < < x D b z ; . u ~ i > 1 > l x c x 3 l c b F L G ] J ] { z } z { ] J ] G L F b c 2 x 1 : - * * * i ~ r u . ; < f h d ; < ; W W W W W W W W W W ",
"W W W W W W W W W 6 ; 1 c x 3 ; O . w u / i > : : - * - > > 2 3 l v J L D F ] z K z ] F D L J v l 3 2 2 1 : : * * * i / u $ w . * ; < d , ; ; 6 W W W W W W W W W W ",
"W W W W W W W W W d , , 1 1 ; d O .   0 a a t @ ( y * * * - g x 3 3 z v v D G x b x G D v v z 3 3 x g 2 > > y ( @ t a a 0 X   % * = ; ; = ; , d W W W W W W W W W W ",
"W W W W W W W W W , , , d < d h O O . 0 0 0 0 9 ! Q g p * * - 2 x x x g g z x v x v x z g g x x x 2 g # p g Q ! 9 0 0 0 0   % % - < < ; ; ; ; , W W W W W W W W W W ",
"W W W W W W W W W f d d n h j y  .+ O . 0 0 0 9 t p r ( Y - : : 2 y y c x 3 3 x x x 3 3 l c y y 2 2 2 U ( r p t 9 0 0 0 0 & : :  .y j < h d d f W W W W W W W W W W ",
"W W W W W W W W W W h k M j f i ^ 6 O O O 0 0 0 # q t Q Y # Y Y Y i / y z l x D K D x l z y / i R T Y U Q q t # 0 0 0 0 & : 3 6 ^ i f f M k h W W W W W W W W W W W ",
"W W W W W W W W W W h j n h n i i 4 * + + # 0 0 q q q q Y T T Y Y t a e T i / r a r / i T e a t R T R Y Y U q q 0 9 0 # : 3 1 4 i i n h n j h W W W W W W W W W W W ",
"W W W W W W W W W W k h h n M j < f 6 * * + + q q q 0 Y T Y T R Y @ e $ E e t y ( y t e T $ e @ R R T T Y Y q q q 9 & : 3 1 6 f < j M n h h k W W W W W W W W W W W ",
"W W W W W W W W W W W d f N N V m k u 6 u s + o q q q q Y T Y R Y Y T R E T Y e a e R T T R T R R T T R Y T q q 0 & - s u 6 u k m V N N f d W W W W W W W W W W W W ",
"W W W W W W W W W W W j f n k m N a ) u s ..Z * 9 0 0 U U R T R Y R R R T Y T R R R R T R R R T R R R Y Y Y q - 2 l Z ..s u ) a N m k n f j W W W W W W W W W W W W ",
"W W W W W W W W W W W W h f f k M f ! e p / u , * * 0 Y T R T R Y R R R Y T R R R R R R T R R R T T T T U - 2 l l , u / p e ! f M k f f h W W W W W W W W W W W W W ",
"W W W W W W W W W W W W k h d f k M f d y p d d 6 , * U Y T R Y Y R R T Y R R R R R R R T R R R R T T Y : 2 l , 6 d d p y d f M k f d h W W W W W W W W W W W W W W ",
"W W W W W W W W W W W W W h j j n h d f k m h M d d ; %   T T T T T Y Y T T T T T T T T T T T T T T T Y = , d ; h M n j f f d h n j j h W W W W W W W W W W W W W W ",
"W W W W W W W W W W W W W j f j j n j k h h d h d d d ; %   Y Y Y Y Y Y Y Y Y Y Y Y Y Y Y Y Y Y Y Y Y ; ; ; ; d h h h d < k j n j j f j W W W W W W W W W W W W W W ",
"W W W W W W W W W W W W W f < d f h M h k h p h d 6 , l 2 :   w | w U U U U U U U U U U U U U w | w ; : 2 l , 6 d d p z z < M h f d < f W W W W W W W W W W W W W W ",
"W W W W W W W W W W W W f < ; , d f n h k k h h f f d , l 2 ; s ` s w q q q q q q q q q q q w s ` s > 2 l , d f f f d c , , n f d , ; < f W W W W W W W W W W W W W ",
"W W W W W W W W W W W W d ; W W < d h , h m V M h u h f d l 2 a / ! y 4 0 t p 0 0 0 p t 0 4 y ! / a 2 l d f h u h M V m k , h d < W W ; d W W W W W W W W W W W W W ",
"W W W W W W W W W W W W < f n W W < d < < f n M V j u ! h f d i ~ ^ a w 4 u ~ u $ u ~ u 4 w a ^ ~ i d f h ! u j V M n f < < d < W W n f < W W W W W W W W W W W W W ",
"W W W W W W W W W W W W W < j n j , < n m N h n V M n j u ! h y a / a w f p ( ~ d ~ ( p f w a / a y h ! u j n M V n h N m n < , j n j < W W W W W W W W W W W W W W ",
"W W W W W W W W W W W W W W < , , ; n u y j N k n V M m n j h < y a u f h u ~ p k p ~ u h f u a y < h j n m M V n k N j y u n ; , , < W W W W W W W W W W W W W W W ",
"W W W W W W W W W W W W W W W W W W p / ..y j N j h N V V N h < ; ; < h n h f k M k f h n h < ; ; < h N V V N h j N j y ../ p W W W W W W W W W W W W W W W W W W W ",
"W W W W W W W W W W W W W W W W W W s ^ Q y d N j n N m M m N h < ; h n M N M M M M M N M n h ; < h N m M m N n j N d y Q ^ s W W W W W W W W W W W W W W W W W W W ",
"W W W W W W W W W W W W W W W W W W p a u r < N j N k f f k n N h h n M N M n k h k n M N M n h h N n k f f k N j N < r u a p W W W W W W W W W W W W W W W W W W W ",
"W W W W W W W W W W W W W W W W W W r y $ $ n j d m f , W d d , N N M k j h f < f < f h j k M N N , d d W , f m d j n $ $ y r W W W W W W W W W W W W W W W W W W W ",
"W W W W W W W W W W W W W W W W W W r y W W * ; ; k j , , < , < < k m k W d , < d < , d W k m k < < , < , , j k ; ; * W W y r W W W W W W W W W W W W W W W W W W W ",
"W W W W W W W W W W W W W W W W W W W W W W W W W W k f < , W W , f W W f , = < j < = , f W W f , W W , < f k W W W W W W W W W W W W W W W W W W W W W W W W W W W ",
"W W W W W W W W W W W W W W W W W W W W W W W W W W W j < < n W W , f < , = W j n j W = , < f , W W n < < j W W W W W W W W W W W W W W W W W W W W W W W W W W W W ",
"W W W W W W W W W W W W W W W W W W W W W W W W W W W W W ; < j n k < = = W W n ; n W W = = < k n j < ; W W W W W W W W W W W W W W W W W W W W W W W W W W W W W W ",
"W W W W W W W W W W W W W W W W W W W W W W W W W W W W W W W ; ; ; = * ; h n ; W ; n h ; * = ; ; ; W W W W W W W W W W W W W W W W W W W W W W W W W W W W W W W W ",
"W W W W W W W W W W W W W W W W W W W W W W W W W W W W W W W W W W W W ; ; ; W W W ; ; ; W W W W W W W W W W W W W W W W W W W W W W W W W W W W W W W W W W W W W ",
"W W W W W W W W W W W W W W W W W W W W W W W W W W W W W W W W W W W W W W W W W W W W W W W W W W W W W W W W W W W W W W W W W W W W W W W W W W W W W W W W W W ",
"W W W W W W W W W W W W W W W W W W W W W W W W W W W W W W W W W W W W W W W W W W W W W W W W W W W W W W W W W W W W W W W W W W W W W W W W W W W W W W W W W W ",
"W W W W W W W W W W W W W W W W W W W W W W W W W W W W W W W W W W W W W W W W W W W W W W W W W W W W W W W W W W W W W W W W W W W W W W W W W W W W W W W W W W ",
"W W W W W W W W W W W W W W W W W W W W W W W W W W W W W W W W W W W W W W W W W W W W W W W W W W W W W W W W W W W W W W W W W W W W W W W W W W W W W W W W W W ",
"W W W W W W W W W W W W W W W W W W W W W W W W W W W W W W W W W W W W W W W W W W W W W W W W W W W W W W W W W W W W W W W W W W W W W W W W W W W W W W W W W W ",
"W W W W W W W W W W W W W W W W W W W W W W W W W W W W W W W W W W W W W W W W W W W W W W W W W W W W W W W W W W W W W W W W W W W W W W W W W W W W W W W W W W ",
"W W W W W W W W W W W W W W W W W W W W W W W W W W W W W W W W W W W W W W W W W W W W W W W W W W W W W W W W W W W W W W W W W W W W W W W W W W W W W W W W W W ",
"W W W W W W W W W W W W W W W W W W W W W W W W W W W W W W W W W W W W W W W W W W W W W W W W W W W W W W W W W W W W W W W W W W W W W W W W W W W W W W W W W W ",
"W W W W W W W W W W W W W W W W W W W W W W W W W W W W W W W W W W W W W W W W W W W W W W W W W W W W W W W W W W W W W W W W W W W W W W W W W W W W W W W W W W "
};
