/* XPM */
static char *_e5aa084adf443acce4732ee4aac8ffbUMG7S3vgpTMwPNcF[] = {
/* columns rows colors chars-per-pixel */
"82 82 97 2 ",
"   c #000001",
".  c #000023",
"X  c #00002F",
"o  c #00003B",
"O  c #232323",
"+  c #272727",
"@  c #2F2F2F",
"#  c #373737",
"$  c gray23",
"%  c #430000",
"&  c #470000",
"*  c #4F0000",
"=  c #5B0000",
"-  c #670000",
";  c #670B0B",
":  c #6B0F0F",
">  c #730000",
",  c #7F0000",
"<  c #731313",
"1  c #771717",
"2  c #7F1B1B",
"3  c #4B371B",
"4  c #732B00",
"5  c #000047",
"6  c #000053",
"7  c #00006B",
"8  c #434343",
"9  c gray28",
"0  c gray31",
"q  c gray34",
"w  c #5B5B5B",
"e  c gray39",
"r  c gray42",
"t  c #6F6F6F",
"y  c #777777",
"u  c gray50",
"i  c #8B0000",
"p  c #9B0000",
"a  c #831F1F",
"s  c #A70000",
"d  c #B30000",
"f  c #BF0000",
"g  c #8B2323",
"h  c #8F2B2B",
"j  c #972F2F",
"k  c #9B3333",
"l  c #A33B3B",
"z  c #A73F3F",
"x  c #CB0000",
"c  c #D70000",
"v  c #E30000",
"b  c #EF0000",
"n  c red",
"m  c #FF1F1F",
"M  c #874307",
"N  c #9B5B13",
"B  c #AF4300",
"V  c #AF7B1F",
"C  c #AF4747",
"Z  c #B34F4F",
"A  c #BB5757",
"S  c #BF5B5B",
"D  c #C76363",
"F  c #CB6B6B",
"G  c #D37373",
"H  c #DB7B7B",
"J  c #C39B2F",
"K  c #D7BB43",
"L  c #EBDB57",
"P  c #FFFF73",
"I  c #000083",
"U  c #00009B",
"Y  c #0000B3",
"T  c #0000CB",
"R  c #0000E3",
"E  c blue",
"W  c #1B1BFF",
"Q  c #3737FF",
"!  c #5353FF",
"~  c #7373FF",
"^  c black",
"/  c #838383",
"(  c #8B8B8B",
")  c #939393",
"_  c #979797",
"`  c #9F9F9F",
"'  c #A7A7A7",
"]  c gray67",
"[  c gray70",
"{  c #B7B7B7",
"}  c gray75",
"|  c #DF8787",
" . c #E78F8F",
".. c #CBCBCB",
"X. c LightGray",
"o. c gray86",
"O. c #DFDFDF",
/* pixels */
"^ ^ ^ ^ ^ ^ ^ ^ ^ ^ ^ ^ ^ ^ ^ ^ ^ ^ ^ ^ ^ ^ ^ ^ ^ ^ ^ ^ ^ ^ ^ ^ ^ ^ ^ ^ ^ ^ ^ ^ ^ ^ ^ ^ ^ ^ ^ ^ ^ ^ ^ ^ ^ ^ ^ ^ ^ ^ ^ ^ ^ ^ ^ ^ ^ ^ ^ ^ ^ ^ ^ ^ ^ ^ ^ ^ ^ ^ ^ ^ ^ ^ ",
"^ ^ ^ ^ ^ ^ ^ ^ ^ ^ ^ ^ ^ ^ ^ ^ ^ ^ ^ ^ ^ ^ ^ ^ ^ ^ ^ ^ ^ ^ ^ ^ ^ ^ ^ ^ ^ ^ ^ ^ ^ ^ ^ ^ ^ ^ ^ ^ ^ ^ ^ ^ ^ ^ ^ ^ ^ ^ ^ ^ ^ ^ ^ ^ ^ ^ ^ ^ ^ ^ ^ ^ ^ ^ ^ ^ ^ ^ ^ ^ ^ ^ ",
"^ ^ ^ ^ ^ ^ ^ ^ ^ ^ ^ ^ ^ ^ ^ ^ ^ ^ ^ ^ ^ ^ ^ ^ ^ ^ ^ ^ ^ ^ ^ ^ ^ ^ ^ ^ ^ ^ ^ ^ ^ ^ ^ ^ ^ ^ ^ ^ ^ ^ ^ ^ ^ ^ ^ ^ ^ ^ ^ ^ ^ ^ ^ ^ ^ ^ ^ ^ ^ ^ ^ ^ ^ ^ ^ ^ ^ ^ ^ ^ ^ ^ ",
"^ ^ ^ ^ ^ ^ ^ ^ ^ ^ ^ ^ ^ ^ ^ ^ ^ ^ ^ ^ ^ ^ ^ ^ ^ ^ ^ ^ ^ ^ ^ ^ ^ ^ ^ ^ ^ ^ ^ ^ ^ ^ ^ ^ ^ ^ ^ ^ ^ ^ ^ ^ ^ ^ ^ ^ ^ ^ ^ ^ ^ ^ ^ ^ ^ ^ ^ ^ ^ ^ ^ ^ ^ ^ ^ ^ ^ ^ ^ ^ ^ ^ ",
"^ ^ ^ ^ ^ ^ ^ ^ ^ ^ ^ ^ ^ ^ ^ ^ ^ ^ ^ ^ ^ ^ ^ ^ ^ ^ ^ ^ ^ ^ ^ ^ ^ ^ ^ ^ ^ ^ ^ ^ ^ ^ ^ ^ ^ ^ ^ ^ ^ ^ ^ ^ ^ ^ ^ ^ ^ ^ ^ ^ ^ ^ ^ ^ ^ ^ ^ ^ ^ ^ ^ ^ ^ ^ ^ ^ ^ ^ ^ ^ ^ ^ ",
"^ ^ ^ ^ ^ ^ ^ ^ ^ ^ ^ ^ ^ ^ ^ ^ ^ ^ ^ ^ ^ ^ ^ ^ ^ ^ ^ ^ ^ ^ ^ ^ ^ ^ ^ ^ ^ ^ ^ ^ ^ ^ ^ ^ ^ ^ ^ ^ ^ ^ ^ ^ ^ ^ ^ ^ ^ ^ ^ ^ ^ ^ ^ ^ ^ ^ ^ ^ ^ ^ ^ ^ ^ ^ ^ ^ ^ ^ ^ ^ ^ ^ ",
"^ ^ ^ ^ ^ ^ ^ ^ ^ ^ ^ ^ ^ ^ ^ ^ ^ ^ ^ ^ ^ ^ ^ ^ ^ ^ ^ ^ ^ ^ ^ ^ ^ ^ ^ ^ ^ ^ ^ ^ ^ ^ ^ ^ ^ ^ ^ ^ ^ ^ ^ ^ ^ ^ ^ ^ ^ ^ ^ ^ ^ ^ ^ ^ ^ ^ ^ ^ ^ ^ ^ ^ ^ ^ ^ ^ ^ ^ ^ ^ ^ ^ ",
"^ ^ ^ ^ ^ ^ ^ ^ ^ ^ ^ ^ ^ ^ ^ ^ ^ ^ ^ t t ^ ^ ^ ^ ^ ^ ^ ^ ^ ^ ^ ^ ^ ^ ^ ^ ^ ^ ^ ^ ^ ^ ^ ^ ^ ^ ^ ^ ^ ^ ^ ^ ^ ^ ^ ^ ^ ^ ^ t t ^ ^ ^ ^ ^ ^ ^ ^ ^ ^ ^ ^ ^ ^ ^ ^ ^ ^ ^ ^ ",
"^ ^ ^ ^ ^ ^ ^ ^ ^ ^ ^ ^ ^ ^ ^ ^ ^ ^ ^ e y ^ ^ ^ ^ ^ ^ ^ ^ ^ ^ ^ ^ ^ ^ ^ ^ ^ ^ ^ ^ ^ ^ ^ ^ ^ ^ ^ ^ ^ ^ ^ ^ ^ ^ ^ ^ ^ ^ ^ y e ^ ^ ^ ^ ^ ^ ^ ^ ^ ^ ^ ^ ^ ^ ^ ^ ^ ^ ^ ^ ",
"^ ^ ^ ^ ^ ^ ^ ^ ^ ^ ^ ^ ^ ^ ^ ^ ^ ^ ^ e y ^ ^ ^ ^ ^ ^ ^ ^ ^ ^ ^ ^ ^ ^ ^ ^ ^ ^ ^ ^ ^ ^ ^ ^ ^ ^ ^ ^ ^ ^ ^ ^ ^ ^ ^ ^ ^ ^ ^ y e ^ ^ ^ ^ ^ ^ ^ ^ ^ ^ ^ ^ ^ ^ ^ ^ ^ ^ ^ ^ ",
"^ ^ ^ ^ ^ ^ ^ ^ ^ ^ ^ ^ ^ ^ ^ ^ ^ ^ ^ e y ^ ^ ^ ^ ^ ^ ^ ^ ^ ^ ^ ^ ^ ^ ^ ^ ^ ^ ^ ^ ^ ^ ^ ^ ^ ^ ^ ^ ^ ^ ^ ^ ^ ^ ^ ^ ^ ^ ^ y e ^ ^ ^ ^ ^ ^ ^ ^ ^ ^ ^ ^ ^ ^ ^ ^ ^ ^ ^ ^ ",
"^ ^ ^ ^ ^ ^ ^ ^ ^ ^ ^ ^ ^ ^ ^ ^ ^ ^ ^ w y / ^ ^ ^ ^ ^ ^ ^ ^ ^ ^ ^ ^ ^ ^ ^ ^ ^ ^ ^ ^ ^ ^ ^ ^ ^ ^ ^ ^ ^ ^ ^ ^ ^ ^ ^ ^ ^ / y w ^ ^ ^ ^ ^ ^ ^ ^ ^ ^ ^ ^ ^ ^ ^ ^ ^ ^ ^ ^ ",
"^ ^ ^ ^ ^ ^ ^ ^ ^ ^ ^ ^ ^ ^ ^ ^ ^ ^ ^ w t / ( ^ ^ ^ ^ ^ ^ ^ ^ ^ ^ ^ ^ ^ ^ ^ ^ ^ ^ ^ ^ ^ ^ ^ ^ ^ ^ ^ ^ ^ ^ ^ ^ ^ ^ ^ ( / t w ^ ^ ^ ^ ^ ^ ^ ^ ^ ^ ^ ^ ^ ^ ^ ^ ^ ^ ^ ^ ",
"^ ^ ^ ^ ^ ^ ^ ^ ^ ^ ^ ^ ^ ^ ^ ^ ^ ^ ^ w e / ( ^ ^ ^ ^ ^ ^ ^ ^ ^ ^ ^ ^ ^ ^ ^ ^ ^ ^ ^ ^ ^ ^ ^ ^ ^ ^ ^ ^ ^ ^ ^ ^ ^ ^ ^ ( / e w ^ ^ ^ ^ ^ ^ ^ ^ ^ ^ ^ ^ ^ ^ ^ ^ ^ ^ ^ ^ ",
"^ ^ ^ ^ ^ ^ ^ ^ ^ ^ ^ ^ ^ ^ ^ ^ ^ ^ ^ q e y / ( ^ ^ ^ ^ y ^ ^ ^ ^ ^ ^ ^ ^ ^ ^ ^ ^ ^ ^ ^ ^ ^ ^ ^ ^ ^ ^ ^ y ^ ^ ^ ^ ( / y e q ^ ^ ^ ^ ^ ^ ^ ^ ^ ^ ^ ^ ^ ^ ^ ^ ^ ^ ^ ^ ",
"^ ^ ^ ^ ^ ^ ^ ^ ^ ^ ^ ^ ^ ^ ^ ^ ^ ^ ^ 9 0 r u ( ) u ^ y ( ^ ^ ^ ^ ^ ^ ^ ^ ^ ^ ^ ^ ^ ^ ^ ^ ^ ^ ^ ^ ^ ^ ^ ( y ^ u ) ( u r 0 9 ^ ^ ^ ^ ^ ^ ^ ^ ^ ^ ^ ^ ^ ^ ^ ^ ^ ^ ^ ^ ",
"^ ^ ^ ^ ^ ^ ^ ^ ^ ^ ^ ^ ^ ^ ^ ^ ^ ^ ^ ^ 9 q r u ( ) ) w w ^ ^ ^ ^ ^ ^ ^ ^ ^ ^ ^ ^ ^ ^ ^ ^ ^ ^ ^ ^ ^ ^ w w w ) ) ( u r q 9 ^ ^ ^ ^ ^ ^ ^ ^ ^ ^ ^ ^ ^ ^ ^ ^ ^ ^ ^ ^ ^ ",
"^ ^ ^ ^ ^ ^ ^ ^ ^ ^ ^ ^ ^ ^ ^ ^ ^ ^ ^ ^ 9 0 q r u ) ` ` u w ^ ^ ^ ^ p p s c x c n c x c s p p ^ ^ ^ w w u ` ` ) u r q 0 9 ^ ^ ^ ^ ^ ^ ^ ^ ^ ^ ^ ^ ^ ^ ^ ^ ^ ^ ^ ^ ^ ",
"^ ^ ^ ^ ^ ^ ^ ^ ^ ^ ^ ^ ^ ^ ^ ^ ^ ^ ^ ^ 9 9 0 w r u ` ' o.} p f v f i i p c d f c f d c p i i i v f p } o.' ` u r w 0 9 9 ^ ^ ^ ^ ^ ^ ^ ^ ^ ^ ^ ^ ^ ^ ^ ^ ^ ^ ^ ^ ^ ",
"^ ^ ^ ^ ^ ^ ^ ^ ^ ^ ^ ^ ^ ^ t ` ^ ^ ^ ^ ^ 9 9 q e r u ] } O.} s b f s i i s x d d d x s i p s f b s } O.} ] u r e q 9 9 ^ ^ ^ ^ ^ ` t ^ ^ ^ ^ ^ ^ ^ ^ ^ ^ ^ ^ ^ ^ ^ ",
"^ ^ ^ ^ ^ ^ ^ ^ ^ ^ ^ ^ ^ ^ e t ` ^ ^ ^ ^ ^ 9 w r r t y _ ' [ d n f s p i s x b d b x s i p s f n d [ ' _ y t r r w 9 ^ ^ ^ ^ ^ ` t e ^ ^ ^ ^ ^ ^ ^ ^ ^ ^ ^ ^ ^ ^ ^ ",
"^ ^ ^ ^ ^ ^ ^ ^ ^ ^ ^ ^ ^ ^ ^ e t ` t ^ ^ ^ p 9 e t r r t / ( f v f d x f f p s b s p f f x d f v f ( / t r r t e 9 p ^ ^ ^ t ` t e ^ ^ ^ ^ ^ ^ ^ ^ ^ ^ ^ ^ ^ ^ ^ ^ ",
"^ ^ ^ ^ ^ ^ ^ ^ ^ ^ ^ ^ ^ ^ ^ e e u ` u e c d p 9 q e t e t d c f s x v x f d i p i d f x v s s f c d t e t e q 9 p d c e u ` u e e ^ ^ ^ ^ ^ ^ ^ ^ ^ ^ ^ ^ ^ ^ ^ ^ ",
"^ ^ ^ ^ ^ ^ ^ ^ ^ ^ ^ ^ ^ ^ ^ ^ e e u ) / e f s d x 9 0 q d f d s p s x c x p , > , p x c s x x s d f d q 0 9 x d s f e / ) u e e ^ ^ ^ ^ ^ ^ ^ ^ ^ ^ ^ ^ ^ ^ ^ ^ ^ ",
"^ ^ ^ ^ ^ ^ ^ ^ ^ ^ ^ ^ ^ ^ ^ ^ 0 q e u y e b , p s x f x d s s d f x s s s , > - > , s s x b b d s s d x f x s p , b e y u e q 0 ^ ^ ^ ^ ^ ^ ^ ^ ^ ^ ^ ^ ^ ^ ^ ^ ^ ",
"^ ^ ^ ^ ^ ^ ^ ^ ^ ^ ^ ^ ^ ^ ^ ^ ^ $ 0 q e b c p , p p i i i p f x v b b x f s , > , s d x b b v x f p i i i p p , p c b e q 0 $ ^ ^ ^ ^ ^ ^ ^ ^ ^ ^ ^ ^ ^ ^ ^ ^ ^ ^ ",
"^ ^ ^ ^ ^ ^ ^ ^ ^ ^ ^ ^ ^ ^ ^ ^ ^ f s d x v d x s , i p d d d f x v v b v x s i > p d x b b m b b f d i > < i , s x d v x d s f ^ ^ ^ ^ ^ ^ ^ ^ ^ ^ ^ ^ ^ ^ ^ ^ ^ ^ ",
"^ ^ ^ ^ ^ ^ ^ ^ ^ ^ ^ ^ ^ ^ ^ ^ b x p , p d f c p g i , i p d d v m n v v c d s i s d b b n m b c d p < : : i g p c f d p , p x b ^ ^ ^ ^ ^ ^ ^ ^ ^ ^ ^ ^ ^ ^ ^ ^ ^ ",
"^ ^ ^ ^ ^ ^ ^ ^ ^ ^ ^ ^ ^ ^ ^ s d p f f p s p , g a : < 1 i i p d b m m c d d f i f d x m m b c d p < : 1 < : a g , p s p f f p d s ^ ^ ^ ^ ^ ^ ^ ^ ^ ^ ^ ^ ^ ^ ^ ^ ",
"^ ^ ^ ^ ^ ^ ^ ^ ^ ^ ^ ^ ^ ^ v s , , s d c n c s g : < g g h 2 2 p d x f f d c c i c x d d x c d p : 2 h h g < : g s c n c d s , , s v ^ ^ ^ ^ ^ ^ ^ ^ ^ ^ ^ ^ ^ ^ ^ ",
"^ ^ ^ ^ ^ ^ ^ ^ ^ ^ ^ ^ ^ ^ d p x b p f c b d a g j g z h Z z 2 < p d m m c c M N M c v v c d p < 2 k Z h z g j g a d b c f p b x p d ^ ^ ^ ^ ^ ^ ^ ^ ^ ^ ^ ^ ^ ^ ^ ",
"^ ^ ^ ^ ^ ^ ^ ^ ^ ^ ^ ^ ^ ^ , i d c i d d s a j l l 2 g 2 2 2 2 2 > h 4 M M N N N N N M M 4 h > 2 2 2 2 a g 2 l l j a s d d i c d i , ^ ^ ^ ^ ^ ^ ^ ^ ^ ^ ^ ^ ^ ^ ^ ",
"^ ^ ^ ^ ^ ^ ^ ^ ^ ^ ^ ^ ^ ^ > > i s > i i a l l Z z h 2 g Z D Z a ; h N V J K K K K K J V N h ; a Z D Z g 2 h z Z l l a i i > s i > > ^ ^ ^ ^ ^ ^ ^ ^ ^ ^ ^ ^ ^ ^ ^ ",
"^ ^ ^ ^ ^ ^ ^ ^ ^ ^ ^ ^ ^ ^ = - , i - 1 g C j z Z A A h 2 g h l j 2 M V J L P L K L P L J V M 2 j l h g 2 h A A Z z j C g 1 - i , = = = ^ ^ ^ ^ ^ ^ ^ ^ ^ ^ ^ ^ ^ ^ ",
"^ ^ ^ ^ ^ ^ ^ ^ ^ ^ ^ ^ ^ p > - - - 1 j C j C S G Z z k h 2 l z Z j M V J K P K J K P K J V M j Z z l 2 h k z Z G S C j C j 1 - - = > p f ^ ^ ^ ^ ^ ^ ^ ^ ^ ^ ^ ^ ^ ",
"^ ^ ^ ^ ^ ^ ^ ^ ^ ^ ^ ^ x d i = = - a j l C G S A G F A z k Z A F A l N V J K L K L K J V N l A F A Z k z A F G A S G C l j a - = = i d x ^ ^ ^ ^ ^ ^ ^ ^ ^ ^ ^ ^ ^ ",
"^ ^ ^ ^ ^ ^ ^ ^ ^ ^ ^ ^ d f v s , , s = : j g z A G A z C A H  . .| F D Z Z N V J V N Z Z D F |  . .H A C z A G A z k j 2 - s , , s v f d ^ ^ ^ ^ ^ ^ ^ ^ ^ ^ ^ ^ ^ ",
"^ ^ ^ ^ ^ ^ ^ ^ ^ ^ ^ p , p d p x b p = 4 : < k k Z z l D | | H F D S F |  .D N h N D  .| F S D F H | | D l z Z k 2 < 2 4 - p b x p d p , p ^ ^ ^ ^ ^ ^ ^ ^ ^ ^ ^ ^ ",
"^ ^ ^ ^ ^ ^ ^ ^ ^ ^ ^ 4 - > , i d c i - e h : a h z l Z G F F C l C Z S F G | z k z | G F S Z C l C F F G Z l z h a 2 h e > i c d i , > - 4 ^ ^ ^ ^ ^ ^ ^ ^ ^ ^ ^ ^ ",
"^ ^ ^ ^ ^ ^ ^ ^ ^ ^ ^ , = = > > i s > , 8 e y q j ' w 2 2 C A A A G S | D | S h S h S | D | S G A z A A C 2 w ' j q y e 8 - > s i > > = = , ^ ^ ^ ^ ^ ^ ^ ^ ^ ^ ^ ^ ",
"^ ^ ^ ^ ^ ^ ^ ^ ^ ^ ^ i , = = - , - - , # 8 q 0 @ ( / a t : 1 2 g l D G Z A Z h A h Z A Z G D l g 2 j k t a / ( @ 0 q 8 # , - i , - = = , i ^ ^ ^ ^ ^ ^ ^ ^ ^ ^ ^ ^ ",
"^ ^ ^ ^ ^ ^ ^ ^ ^ ^ f v f p > - - - 1 j 4 # 8 5 5 q t 0 ' t a j 2 2 h l l Z z j z j z Z l l h 2 2 j a t ' 0 t q 5 5 8 # 4 j 1 - - - > p f v f ^ ^ ^ ^ ^ ^ ^ ^ ^ ^ ^ ",
"^ ^ ^ ^ ^ ^ ^ ^ ^ ^ v n x d i = = - a j 4 -   5   # q q / t a 1 a 2 g a a h j l j l j h a a g 2 a 1 a t / q q #   5   - 4 j a - = = i d x n v ^ ^ ^ ^ ^ ^ ^ ^ ^ ^ ^ ",
"^ ^ ^ ^ ^ ^ ^ ^ ^ f v x f s > * = = : 4 -     6   + # @ e q 3 6 3 w w k g 2 2 j j j 2 2 g k w w 3 7 3 q e @ # +   7   7 - 4 : = = * > s f x v f ^ ^ ^ ^ ^ ^ ^ ^ ^ ^ ",
"^ ^ ^ ^ ^ ^ ^ ^ ^ d x f s i - - - = = :       6     7 O 9 # 6 7 I r ` w h g j Z F Z j g h w ` r 7   I # 9 O 7   6 7 6 6   : = = - - - i s f x d ^ ^ ^ ^ ^ ^ ^ ^ ^ ^ ",
"^ ^ ^ ^ ^ ^ ^ ^ ^ s d s i , i , - 3 e >       6 I I I     6 6 7 I q y 9   r ` 0 y 0 ` r   9 y q 7   7 I I I I   7 6       4 e 3 - , i , i s d s ^ ^ ^ ^ ^ ^ ^ ^ ^ ^ ",
"^ ^ ^ ^ ^ ^ ^ ^ ^ p i i s , d p d w ..;   6 I I   I 7 6 6     7 U $ q $   9 q w ' w q 9   $ q $ 6 6 U 7   7 6     7     & * ..w i p s , s i i p ^ ^ ^ ^ ^ ^ ^ ^ ^ ^ ",
"^ ^ ^ ^ ^ ^ ^ ^ ^ p s f v p f p p r _ > % 6       I 6         I T I 7 X o 5 T 9 y 9 @ 5 o T . .     Y U 7 I   6     6 & * * _ r i p f , v f s p ^ ^ ^ ^ ^ ^ ^ ^ ^ ^ ",
"^ ^ ^ ^ ^ ^ ^ ^ ^ ^ s d x s f p p r r > %         7   6       U Y 7 X o 5 6 T I I I 7 6 5 o T . .   7 Y U I 6   6   6 & * * r r i d f p x d s ^ ^ ^ ^ ^ ^ ^ ^ ^ ^ ^ ",
"^ ^ ^ ^ ^ ^ ^ ^ ^ ^ f s s x v d d d p , %       I 6   6       Y 7 X o 5 6 T I U Y U I 7 6 5 T X . . 6 7 Y 6   6   6   * - * , i p d v p s s f ^ ^ ^ ^ ^ ^ ^ ^ ^ ^ ^ ",
"^ ^ ^ ^ ^ ^ ^ ^ ^ ^ f s s x v s v f s , %       I 6   6       Y 7 X o 5 6 T I U Y U I 7 6 5 T X . . 6 7 Y 6   6   6   * - * , p f f v s s s f ^ ^ ^ ^ ^ ^ ^ ^ ^ ^ ^ ",
"^ ^ ^ ^ ^ ^ ^ ^ ^ ^ B i p x m f b m f p > %     7     6     6 I X o 5 6 7 T U Y T Y U I 7 T 5 o X . 6 . U     6   6   * , , p c b c b s p i B ^ ^ ^ ^ ^ ^ ^ ^ ^ ^ ^ ",
"^ ^ ^ ^ ^ ^ ^ ^ ^ ^ B i p x x f x b f p > %     7     6     6 I X o 5 6 7 T U Y T Y U I 7 T 5 o X . 6 . U     6   6   * , p f c b c x d p i B ^ ^ ^ ^ ^ ^ ^ ^ ^ ^ ^ ",
"^ ^ ^ ^ ^ ^ ^ ^ ^ ^ ^ d p x f c f c f p > % * U 7     6   6 I 6 o 5 6 7 I U T T R T Y U T 7 6 5 o X 6   7     7     * * p , f c f c f p p d ^ ^ ^ ^ ^ ^ ^ ^ ^ ^ ^ ^ ",
"^ ^ ^ ^ ^ ^ ^ ^ ^ ^ ^ d s p p f v c f e 4 e q U     6   I I X o 5 6 7 I U Y T ! E R T Y T T 7 6 5 o X I 6     I   * u e 4 e f c v f p p s d ^ ^ ^ ^ ^ ^ ^ ^ ^ ^ ^ ^ ",
"^ ^ ^ ^ ^ ^ ^ ^ ^ ^ ^ x f s i p f b y ] e u X.q     6 U   X o 5 6 7 I U Y T R E ! E R T Y E T 7 6 5 o I 6   I   * q X.u e ] y b f p i s f x ^ ^ ^ ^ ^ ^ ^ ^ ^ ^ ^ ^ ",
"^ ^ ^ ^ ^ ^ ^ ^ ^ ^ ^ ^ d f x i s v p ( 9 t ` e I U T 6 X o 5 6 7 I U Y T R E Q ! Q E R T Y E I 7 6 5 o T 6 U   = e ` t 9 ( p v s i x f d ^ ^ ^ ^ ^ ^ ^ ^ ^ ^ ^ ^ ^ ",
"^ ^ ^ ^ ^ ^ ^ ^ ^ ^ ^ ^ s d d x s f v p i w t - = T U X o 5 6 6 I U Y T R E Q ! ~ ! Q E R T E U I 7 5 o I T   = i i t w i d v f s x d d s ^ ^ ^ ^ ^ ^ ^ ^ ^ ^ ^ ^ ^ ",
"^ ^ ^ ^ ^ ^ ^ ^ ^ ^ ^ ^ x f s p i s f c f p i p - * I . X o 5 6 7 I U Y T R W ! ! Q E R T E T I 7 6 5 o X U = i d f d d m c f s i p s f x ^ ^ ^ ^ ^ ^ ^ ^ ^ ^ ^ ^ ^ ",
"^ ^ ^ ^ ^ ^ ^ ^ ^ ^ ^ ^ x f p , i s f c m f i p - = * . X o 5 6 7 I U Y T R W ! ! Q E R T E T I 7 6 5 o X U = i d f d d m c f s i , p f x ^ ^ ^ ^ ^ ^ ^ ^ ^ ^ ^ ^ ^ ",
"^ ^ ^ ^ ^ ^ ^ ^ ^ ^ ^ ^ ^ p , - > k k p f c m f s - %   . X o 5 6 7 I U Y E ! E Q E R T Y E Y 7 6 R Y 7 7 = > d f v m c f s k k > , , p ^ ^ ^ ^ ^ ^ ^ ^ ^ ^ ^ ^ ^ ^ ",
"^ ^ ^ ^ ^ ^ ^ ^ ^ ^ ^ ^ ^ s d d x s i p s f c f i i - %   . X o 5 6 7 I U ! T R E R T Y U I T Y Q o X 7 = > p p d f m c f p i s x d d s ^ ^ ^ ^ ^ ^ ^ ^ ^ ^ ^ ^ ^ ^ ",
"^ ^ ^ ^ ^ ^ ^ ^ ^ ^ ^ ^ ^ d p d d x d f , p s p i i i - %   . X o 5 6 7 I E Y T R T Y U I 7 T Y Q U . - > > i i p d x f p p p x d d p d ^ ^ ^ ^ ^ ^ ^ ^ ^ ^ ^ ^ ^ ^ ",
"^ ^ ^ ^ ^ ^ ^ ^ ^ ^ ^ ^ ^ p , i p s v , h h t q i 4 > g 1 ;   8 t 8 @ 6 E I U Y T Y U I 7 Y @ 8 t 8 - ; 1 g > 4 i p p h h , v s p i , p ^ ^ ^ ^ ^ ^ ^ ^ ^ ^ ^ ^ ^ ^ ",
"^ ^ ^ ^ ^ ^ ^ ^ ^ ^ ^ ^ ^ , - > i p x > > k i p p p i > g 1 - t { u 8 5 E 7 I U Y U I 7 U Y 8 u { u : 1 g > i p p p i k > > x p i > - , ^ ^ ^ ^ ^ ^ ^ ^ ^ ^ ^ ^ ^ ^ ",
"^ ^ ^ ^ ^ ^ ^ ^ ^ ^ ^ ^ ^ - f ^ , i s > f c m v s e q p i g 1 y ` ( w 3 5 7 7 I U I 7 7 U 3 w ( ` y 1 g i p q e s v m c f > s i , ^ , - ^ ^ ^ ^ ^ ^ ^ ^ ^ ^ ^ ^ ^ ^ ",
"^ ^ ^ ^ ^ ^ ^ ^ ^ ^ ^ ^ ^ i , f ^ , i , , p x v m d e ( q p i r ) _ y 8 3 e ) 6 6 6 ) e 3 8 y _ ) r i p q ( e d m v x p , , i , ^ d , - ^ ^ ^ ^ ^ ^ ^ ^ ^ ^ ^ ^ ^ ^ ",
"^ ^ ^ ^ ^ ^ ^ ^ ^ ^ ^ ^ ^ ^ , , d > , d c c x x m v x d e ( s w y ` y 8 p t ' ) i ) ' t p 8 y ` y w s ( e d x v m x x x c d , > d , - ^ ^ ^ ^ ^ ^ ^ ^ ^ ^ ^ ^ ^ ^ ^ ",
"^ ^ ^ ^ ^ ^ ^ ^ ^ ^ ^ ^ ^ ^ ^ i > , d c b b v x x m v c x d s , w y e p s e ) t f t ) e s p e y w , s d x c v m x x v b b c d - > - ^ ^ ^ ^ ^ ^ ^ ^ ^ ^ ^ ^ ^ ^ ^ ^ ",
"^ ^ ^ ^ ^ ^ ^ ^ ^ ^ ^ ^ ^ ^ ^ ^ - d e w d b b v d s b m m b s , - - , s x s p f v f p s x s , - - , s b m m b s d v b b d w e ^ ^ ^ ^ ^ ^ ^ ^ ^ ^ ^ ^ ^ ^ ^ ^ ^ ^ ^ ",
"^ ^ ^ ^ ^ ^ ^ ^ ^ ^ ^ ^ ^ ^ ^ ^ ^ t ` X.w d b b d x b c v c b s , - s x v b v v v v v b v x s - , s b c v c b x d b b d w X.` ^ ^ ^ ^ ^ ^ ^ ^ ^ ^ ^ ^ ^ ^ ^ ^ ^ ^ ^ ",
"^ ^ ^ ^ ^ ^ ^ ^ ^ ^ ^ ^ ^ ^ ^ ^ ^ u _ / w i b b d b f p p f x b s s x v x d c v c v c d x v x s s b x f p p f b d b b i w / _ ^ ^ ^ ^ ^ ^ ^ ^ ^ ^ ^ ^ ^ ^ ^ ^ ^ ^ ^ ",
"^ ^ ^ ^ ^ ^ ^ ^ ^ ^ ^ ^ ^ ^ ^ ^ ^ e y e 0 , b d i c p > ^ i i > b b v f d s s , p , s s d f v b b > i i ^ > p c i d b , 0 e y ^ ^ ^ ^ ^ ^ ^ ^ ^ ^ ^ ^ ^ ^ ^ ^ ^ ^ ^ ",
"^ ^ ^ ^ ^ ^ ^ ^ ^ ^ ^ ^ ^ ^ ^ ^ ^ e e ^ ^ d d - - f d > > , > , , f c f ^ i > , p , > i ^ f c x , , > , > > d f - - d x ^ e e ^ ^ ^ ^ ^ ^ ^ ^ ^ ^ ^ ^ ^ ^ ^ ^ ^ ^ ^ ",
"^ ^ ^ ^ ^ ^ ^ ^ ^ ^ ^ ^ ^ ^ ^ ^ ^ ^ ^ ^ ^ ^ ^ ^ ^ ^ ^ d , , x ^ ^ > x , > = ^ d p d ^ = > , x > ^ ^ x , , d ^ ^ ^ ^ ^ ^ ^ ^ ^ ^ ^ ^ ^ ^ ^ ^ ^ ^ ^ ^ ^ ^ ^ ^ ^ ^ ^ ^ ",
"^ ^ ^ ^ ^ ^ ^ ^ ^ ^ ^ ^ ^ ^ ^ ^ ^ ^ ^ ^ ^ ^ ^ ^ ^ ^ ^ ^ ^ - , d x f , = = ^ ^ x - x ^ ^ = = , f x d , - ^ ^ ^ ^ ^ ^ ^ ^ ^ ^ ^ ^ ^ ^ ^ ^ ^ ^ ^ ^ ^ ^ ^ ^ ^ ^ ^ ^ ^ ^ ",
"^ ^ ^ ^ ^ ^ ^ ^ ^ ^ ^ ^ ^ ^ ^ ^ ^ ^ ^ ^ ^ ^ ^ ^ ^ ^ ^ ^ ^ ^ ^ - - - = * - s x - ^ - x s - * = - - - ^ ^ ^ ^ ^ ^ ^ ^ ^ ^ ^ ^ ^ ^ ^ ^ ^ ^ ^ ^ ^ ^ ^ ^ ^ ^ ^ ^ ^ ^ ^ ^ ",
"^ ^ ^ ^ ^ ^ ^ ^ ^ ^ ^ ^ ^ ^ ^ ^ ^ ^ ^ ^ ^ ^ ^ ^ ^ ^ ^ ^ ^ ^ ^ ^ ^ ^ ^ ^ - - - ^ ^ ^ - - - ^ ^ ^ ^ ^ ^ ^ ^ ^ ^ ^ ^ ^ ^ ^ ^ ^ ^ ^ ^ ^ ^ ^ ^ ^ ^ ^ ^ ^ ^ ^ ^ ^ ^ ^ ^ ^ ",
"^ ^ ^ ^ ^ ^ ^ ^ ^ ^ ^ ^ ^ ^ ^ ^ ^ ^ ^ ^ ^ ^ ^ ^ ^ ^ ^ ^ ^ ^ ^ ^ ^ ^ ^ ^ ^ ^ ^ ^ ^ ^ ^ ^ ^ ^ ^ ^ ^ ^ ^ ^ ^ ^ ^ ^ ^ ^ ^ ^ ^ ^ ^ ^ ^ ^ ^ ^ ^ ^ ^ ^ ^ ^ ^ ^ ^ ^ ^ ^ ^ ^ ",
"^ ^ ^ ^ ^ ^ ^ ^ ^ ^ ^ ^ ^ ^ ^ ^ ^ ^ ^ ^ ^ ^ ^ ^ ^ ^ ^ ^ ^ ^ ^ ^ ^ ^ ^ ^ ^ ^ ^ ^ ^ ^ ^ ^ ^ ^ ^ ^ ^ ^ ^ ^ ^ ^ ^ ^ ^ ^ ^ ^ ^ ^ ^ ^ ^ ^ ^ ^ ^ ^ ^ ^ ^ ^ ^ ^ ^ ^ ^ ^ ^ ^ ",
"^ ^ ^ ^ ^ ^ ^ ^ ^ ^ ^ ^ ^ ^ ^ ^ ^ ^ ^ ^ ^ ^ ^ ^ ^ ^ ^ ^ ^ ^ ^ ^ ^ ^ ^ ^ ^ ^ ^ ^ ^ ^ ^ ^ ^ ^ ^ ^ ^ ^ ^ ^ ^ ^ ^ ^ ^ ^ ^ ^ ^ ^ ^ ^ ^ ^ ^ ^ ^ ^ ^ ^ ^ ^ ^ ^ ^ ^ ^ ^ ^ ^ ",
"^ ^ ^ ^ ^ ^ ^ ^ ^ ^ ^ ^ ^ ^ ^ ^ ^ ^ ^ ^ ^ ^ ^ ^ ^ ^ ^ ^ ^ ^ ^ ^ ^ ^ ^ ^ ^ ^ ^ ^ ^ ^ ^ ^ ^ ^ ^ ^ ^ ^ ^ ^ ^ ^ ^ ^ ^ ^ ^ ^ ^ ^ ^ ^ ^ ^ ^ ^ ^ ^ ^ ^ ^ ^ ^ ^ ^ ^ ^ ^ ^ ^ "
};
