/* XPM */
static char *c18ff02e40da44b7c619e6766cabececbFMmogQEOqrTnEKO[] = {
/* columns rows colors chars-per-pixel */
"82 82 128 2 ",
"   c black",
".  c #170F07",
"X  c #0B1707",
"o  c #1F170B",
"O  c #13230B",
"+  c #17330F",
"@  c #2B230F",
"#  c #332B13",
"$  c #3F2F17",
"%  c #000023",
"&  c #00002F",
"*  c #00003B",
"=  c #232323",
"-  c gray23",
";  c #430000",
":  c #470000",
">  c #4F0000",
",  c #530707",
"<  c #5B0000",
"1  c #5B0707",
"2  c #5F0707",
"3  c #670000",
"4  c #670B0B",
"5  c #6B0F0F",
"6  c #730000",
"7  c #7F0000",
"8  c #731313",
"9  c #771717",
"0  c #7F1B1B",
"q  c #43331B",
"w  c #4B371B",
"e  c #533F1F",
"r  c #732B00",
"t  c #4F3B23",
"y  c #1F4317",
"u  c #27531B",
"i  c #2F6323",
"p  c #37732B",
"a  c #5F4323",
"s  c #5B472B",
"d  c #6B4727",
"f  c #774F2B",
"g  c #7F532F",
"h  c #675333",
"j  c #775F3F",
"k  c #000047",
"l  c #000053",
"z  c #00006B",
"x  c #434343",
"c  c gray28",
"v  c gray31",
"b  c gray34",
"n  c #5B5B5B",
"m  c gray39",
"M  c gray42",
"N  c #6F6F6F",
"B  c #777777",
"V  c gray50",
"C  c #8B0000",
"Z  c #9B0000",
"A  c #831F1F",
"S  c #A70000",
"D  c #B30000",
"F  c #BF0000",
"G  c #8B2323",
"H  c #8F2B2B",
"J  c #972F2F",
"K  c #9B3333",
"L  c #A33B3B",
"P  c #A73F3F",
"I  c #CB0000",
"U  c #D70000",
"Y  c #E30000",
"T  c #EF0000",
"R  c red",
"E  c #FF1F1F",
"W  c #FF3F3F",
"Q  c #875733",
"!  c #8F5F37",
"~  c #9B633B",
"^  c #A36B3F",
"/  c #AF4747",
"(  c #B34F4F",
")  c #BF5B5B",
"_  c #836B4B",
"`  c #AB6F43",
"'  c #B37347",
"]  c #BF7B4B",
"[  c #FF5F5F",
"{  c #CB7F4F",
"}  c #CB6B6B",
"|  c #D37373",
" . c #DB7B7B",
".. c #FF7B7B",
"X. c #3F832F",
"o. c #439337",
"O. c #4B9F3F",
"+. c #53AF47",
"@. c #5FCF57",
"#. c #6FEF67",
"$. c #9F8363",
"%. c #CF8353",
"&. c #D78B5B",
"*. c #DF9363",
"=. c #E79B6B",
"-. c #EFA373",
";. c #F7AB7B",
":. c #000083",
">. c #00009B",
",. c #0000B3",
"<. c #0000CB",
"1. c #0000E3",
"2. c blue",
"3. c #1B1BFF",
"4. c #3737FF",
"5. c #5353FF",
"6. c #000000",
"7. c #838383",
"8. c #8B8B8B",
"9. c #939393",
"0. c #979797",
"q. c #9F9F9F",
"w. c #A7A7A7",
"e. c gray67",
"r. c gray70",
"t. c gray75",
"y. c gray86",
"u. c #DFDFDF",
/* pixels */
"6.6.6.6.6.6.6.6.6.6.6.6.6.6.6.6.6.6.6.6.6.6.6.6.6.6.6.6.6.6.6.6.6.6.6.6.6.6.6.6.6.6.6.6.6.6.6.6.6.6.6.6.6.6.6.6.6.6.6.6.6.6.6.6.6.6.6.6.6.6.6.6.6.6.6.6.6.6.6.6.6.6.",
"6.6.6.6.6.6.6.6.6.6.6.6.6.6.6.6.6.6.6.6.6.6.6.6.6.6.6.6.6.6.6.6.6.6.6.6.6.6.6.6.6.6.6.6.6.6.6.6.6.6.6.6.6.6.6.6.6.6.6.6.6.6.6.6.6.6.6.6.6.6.6.6.6.6.6.6.6.6.6.6.6.6.",
"6.6.6.6.6.6.6.6.6.6.6.6.6.6.6.6.6.6.6.6.6.6.6.6.6.6.6.6.6.6.6.6.6.6.6.6.6.6.6.6.6.6.6.6.6.6.6.6.6.6.6.6.6.6.6.6.6.6.6.6.6.6.6.6.6.6.6.6.6.6.6.6.6.6.6.6.6.6.6.6.6.6.",
"6.6.6.6.6.6.6.6.6.6.6.6.6.6.6.6.6.6.6.6.6.6.6.6.6.6.6.6.6.6.6.6.6.6.6.6.6.6.6.6.6.6.6.6.6.6.6.6.6.6.6.6.6.6.6.6.6.6.6.6.6.6.6.6.6.6.6.6.6.6.6.6.6.6.6.6.6.6.6.6.6.6.",
"6.6.6.6.6.6.6.6.6.6.6.6.6.6.6.6.6.6.6.6.6.6.6.6.6.6.6.6.6.6.6.6.6.6.6.6.6.6.6.6.6.6.6.6.6.6.6.6.6.6.6.6.6.6.6.6.6.6.6.6.6.6.6.6.6.6.6.6.6.6.6.6.6.6.6.6.6.6.6.6.6.6.",
"6.6.6.6.6.6.6.6.6.6.6.6.6.6.6.6.6.6.6.6.6.6.6.6.6.6.6.6.6.6.6.6.6.6.6.6.6.6.6.6.6.6.6.6.6.6.6.6.6.6.6.6.6.6.6.6.6.6.6.6.6.6.6.6.6.6.6.6.6.6.6.6.6.6.6.6.6.6.6.6.6.6.",
"6.6.6.6.6.6.6.6.6.6.6.6.6.6.6.6.6.6.6.6.6.6.6.6.6.6.6.6.6.6.6.6.6.6.6.6.6.6.6.6.6.6.6.6.6.6.6.6.6.6.6.6.6.6.6.6.6.6.6.6.6.6.6.6.6.6.6.6.6.6.6.6.6.6.6.6.6.6.6.6.6.6.",
"6.6.6.6.6.6.6.6.6.6.6.6.6.6.6.6.6.6.6.6.6.6.6.6.6.6.6.6.6.6.6.6.6.6.6.6.6.6.6.6.6.6.6.6.6.6.6.6.6.6.6.6.6.6.6.6.6.6.6.6.6.6.6.6.6.6.6.6.6.6.6.6.6.6.6.6.6.6.6.6.6.6.",
"6.6.6.6.6.6.6.6.6.6.6.6.6.6.6.6.6.6.6.6.6.6.6.6.6.6.6.6.6.6.6.6.6.6.6.6.6.6.6.6.6.6.6.6.6.6.6.6.6.6.6.6.6.6.6.6.6.6.6.6.6.6.6.6.6.6.6.6.6.6.6.6.6.6.6.6.6.6.6.6.6.6.",
"6.6.6.6.6.6.6.6.6.6.6.6.6.6.6.6.6.6.6.6.6.6.6.6.6.6.6.6.6.6.6.6.6.6.6.6.6.6.6.6.6.6.6.6.6.6.6.6.6.6.6.6.6.6.6.6.6.6.6.6.6.6.6.6.6.6.6.6.6.6.6.6.6.6.6.6.6.6.6.6.6.6.",
"6.6.6.6.6.6.6.6.6.6.6.6.6.6.6.6.6.6.6.6.6.6.6.6.6.6.6.6.6.6.6.6.6.6.6.6.6.6.6.6.6.6.6.6.6.6.6.6.6.6.6.6.6.6.6.6.6.6.6.6.6.6.6.6.6.6.6.6.6.6.6.6.6.6.6.6.6.6.6.6.6.6.",
"6.6.6.6.6.6.6.6.6.6.6.6.6.6.6.6.6.6.6.6.6.6.6.6.6.6.6.6.6.6.6.6.6.6.6.6.6.6.6.6.6.6.6.6.6.6.6.6.6.6.6.6.6.6.6.6.6.6.6.6.6.6.6.6.6.6.6.6.6.6.6.6.6.6.6.6.6.6.6.6.6.6.",
"6.6.6.6.6.6.6.6.6.6.6.6.6.6.6.6.6.6.6.6.6.6.6.6.6.6.6.6.6.6.6.6.6.6.6.6.6.6.6.6.6.6.6.6.6.6.6.6.6.6.6.6.6.6.6.6.6.6.6.6.6.6.6.6.6.6.6.6.6.6.6.6.6.6.6.6.6.6.6.6.6.6.",
"6.6.6.6.6.6.6.6.6.6.6.6.6.6.6.6.6.6.6.6.6.6.6.6.6.6.6.6.6.6.6.6.6.6.6.6.6.6.6.6.6.6.6.6.6.6.6.6.6.6.6.6.6.6.6.6.6.6.6.6.6.6.6.6.6.6.6.6.6.6.6.6.6.6.6.6.6.6.6.6.6.6.",
"6.6.6.6.6.6.6.6.6.6.6.6.6.6.6.6.6.6.6.6.6.6.6.6.6.6.6.6.6.6.6.6.6.6.6.6.6.6.6.6.6.6.6.6.6.6.6.6.6.6.6.6.6.6.6.6.6.6.6.6.6.6.6.6.6.6.6.6.6.6.6.6.6.6.6.6.6.6.6.6.6.6.",
"6.6.6.6.6.6.6.6.6.6.6.6.6.6.6.6.6.6.6.6.6.6.6.6.6.6.6.6.6.6.6.6.6.6.6.6.6.6.6.6.6.6.6.6.6.6.6.6.6.6.6.6.6.6.6.6.6.6.6.6.6.6.6.6.6.6.6.6.6.6.6.6.6.6.6.6.6.6.6.6.6.6.",
"6.6.6.6.6.6.6.6.6.6.6.6.6.6.6.6.6.6.6.6.6.6.6.6.6.6.6.6.6.6.6.6.6.6.6.6.6.6.6.6.6.6.6.6.6.6.6.6.6.6.6.6.6.6.6.6.6.6.6.6.6.6.6.6.6.6.6.6.6.6.6.6.6.6.6.6.6.6.6.6.6.6.",
"6.6.6.6.6.6.6.6.6.6.6.6.6.6.6.6.6.6.6.6.6.6.6.6.6.6.6.6.6.6.6.6.6.6.6.6.6.6.6.6.6.6.6.6.6.6.6.6.6.6.6.6.6.6.6.6.6.6.6.6.6.6.6.6.6.6.6.6.6.6.6.6.6.6.6.6.6.6.6.6.6.6.",
"6.6.6.6.6.6.6.6.6.6.6.6.6.6.6.6.6.6.6.6.6.6.6.6.6.6.6.6.6.6.6.6.6.6.6.6.6.6.6.6.6.6.6.6.6.6.6.6.6.6.6.6.6.6.6.6.6.6.6.6.6.6.6.6.6.6.6.6.6.6.6.6.6.6.6.6.6.6.6.6.6.6.",
"6.6.6.6.6.6.6.6.6.6.6.6.6.6.6.6.6.6.6.6.6.6.6.6.6.6.6.6.6.6.6.6.6.6.6.6.6.6.6.6.6.6.6.6.6.6.6.6.6.6.6.6.6.6.6.6.6.6.6.6.6.6.6.6.6.6.6.6.6.6.6.6.6.6.6.6.6.6.6.6.6.6.",
"6.6.6.6.6.6.6.6.6.6.6.6.6.6.6.6.6.6.6.6.6.6.6.6.6.6.6.6.6.6.6.6.6.6.6.6.6.6.6.6.6.6.6.6.6.6.6.6.6.6.6.6.6.6.6.6.6.6.6.6.6.6.6.6.6.6.6.6.6.6.6.6.6.6.6.6.6.6.6.6.6.6.",
"6.6.6.6.6.6.6.6.6.6.6.6.6.6.6.6.6.6.6.6.6.6.6.6.6.6.6.6.6.6.6.6.6.6.6.6.6.6.6.6.6.6.6.6.6.6.6.6.6.6.6.6.6.6.6.6.6.6.6.6.6.6.6.6.6.6.6.6.6.6.6.6.6.6.6.6.6.6.6.6.6.6.",
"6.6.6.6.6.6.6.6.6.6.6.6.6.6.6.6.6.6.6.6.6.6.6.6.6.6.6.6.6.6.6.6.6.6.6.6.6.6.6.6.6.6.6.6.6.6.6.6.6.6.6.6.6.6.6.6.6.6.6.6.6.6.6.6.6.6.6.6.6.6.6.6.6.6.6.6.6.6.6.6.6.6.",
"6.6.6.6.6.6.6.6.6.6.6.6.6.6.6.6.6.6.6.6.6.6.6.6.6.6.6.6.6.6.6.6.6.6.6.6.6.6.6.6.6.6.6.6.6.6.6.6.6.6.6.6.6.6.6.6.6.6.6.6.6.6.6.6.6.6.6.6.6.6.6.6.6.6.6.6.6.6.6.6.6.6.",
"6.6.6.6.6.6.6.6.6.6.6.6.6.6.6.6.6.6.6.6.6.6.6.6.6.6.6.6.6.6.6.6.6.6.6.6.6.6.6.6.6.6.6.6.6.6.6.6.6.6.6.6.6.6.6.6.6.6.6.6.6.6.6.6.6.6.6.6.6.6.6.6.6.6.6.6.6.6.6.6.6.6.",
"6.6.6.6.6.6.6.6.6.6.6.6.6.6.6.6.6.6.6.6.6.6.6.6.6.6.6.6.6.6.6.6.6.6.6.6.6.6.6.6.6.6.6.6.6.6.6.6.6.6.6.6.6.6.6.6.6.6.6.6.6.6.6.6.6.6.6.6.6.6.6.6.6.6.6.6.6.6.6.6.6.6.",
"6.6.6.6.6.6.6.6.6.6.6.6.6.6.6.6.6.6.6.6.6.6.6.6.6.6.6.6.6.6.6.6.6.6.6.6.6.6.6.6.6.6.6.6.6.6.6.6.6.6.6.6.6.6.6.6.6.6.6.6.6.6.6.6.6.6.6.6.6.6.6.6.6.6.6.6.6.6.6.6.6.6.",
"6.6.6.6.6.6.6.6.6.6.6.6.6.6.6.6.6.6.6.6.6.6.6.6.6.6.6.6.6.6.6.6.6.6.6.6.6.6.6.6.6.6.6.6.6.6.6.6.6.6.6.6.6.6.6.6.6.6.6.6.6.6.6.6.6.6.6.6.6.6.6.6.6.6.6.6.6.6.6.6.6.6.",
"6.6.6.6.6.6.6.6.6.6.6.6.6.6.6.6.6.6.6.6.6.6.6.6.6.6.6.6.6.6.6.6.6.6.6.6.6.6.6.6.6.6.6.6.6.6.6.6.6.6.6.6.6.6.6.6.6.6.6.6.6.6.6.6.6.6.6.6.6.6.6.6.6.6.6.6.6.6.6.6.6.6.",
"6.6.6.6.6.6.6.6.6.6.6.6.6.6.6.6.6.6.6.6.6.6.6.6.6.6.6.6.6.6.6.6.6.6.6.6.6.6.6.6.6.6.6.6.6.6.6.6.6.6.6.6.6.6.6.6.6.6.6.6.6.6.6.6.6.6.6.6.6.6.6.6.6.6.6.6.6.6.6.6.6.6.",
"6.6.6.6.6.6.6.6.6.6.6.6.6.6.6.6.6.6.6.6.6.6.6.6.6.6.6.6.6.6.6.6.6.6.6.6.6.6.6.6.6.6.6.6.6.6.6.6.6.6.6.6.6.6.6.6.6.6.6.6.6.6.6.6.6.6.6.6.6.6.6.6.6.6.6.6.6.6.6.6.6.6.",
"6.6.6.6.6.6.6.6.6.6.6.6.6.6.6.6.6.6.6.6.6.6.6.6.6.6.6.6.6.6.6.6.6.6.6.6.6.6.6.6.6.6.6.6.6.6.6.6.6.6.6.6.6.6.6.6.6.6.6.6.6.6.6.6.6.6.6.6.6.6.6.6.6.6.6.6.6.6.6.6.6.6.",
"6.6.6.6.6.6.6.6.6.6.6.6.6.6.6.6.6.6.6.6.6.6.6.6.6.6.6.6.6.6.6.6.6.6.6.6.6.6.6.6.6.6.6.6.6.6.6.6.6.6.6.6.6.6.6.6.6.6.6.6.6.6.6.6.6.6.6.6.6.6.6.6.6.6.6.6.6.6.6.6.6.6.",
"6.6.6.6.6.6.6.6.6.6.6.6.6.6.6.6.6.6.6.6.N N 6.6.6.6.6.6.6.6.6.6.6.6.6.6.6.6.6.6.6.6.6.6.6.6.6.6.6.6.6.6.6.6.6.6.6.6.6.6.6.6.6.6.6.6.6.6.6.6.6.6.6.6.6.6.6.6.6.6.6.6.",
"6.6.6.6.6.6.6.6.6.6.6.6.6.6.6.6.6.6.6.6.m B 6.6.6.6.6.6.6.6.6.6.6.6.6.6.6.6.6.6.6.6.6.6.6.6.6.6.6.6.6.6.6.6.6.6.6.6.6.6.6.6.6.6.6.6.6.6.6.6.6.6.6.6.6.6.6.6.6.6.6.6.",
"6.6.6.6.6.6.6.6.6.6.6.6.6.6.6.6.6.6.6.6.m B 6.6.6.6.6.6.6.6.6.6.6.6.6.6.6.6.6.6.6.6.6.6.6.6.6.6.6.6.6.6.6.6.6.6.6.6.6.6.6.6.6.6.6.6.6.6.6.6.6.6.6.6.6.6.6.6.6.6.6.6.",
"6.6.6.6.6.6.6.6.6.6.6.6.6.6.6.6.6.6.6.6.m B 6.6.6.6.6.6.6.6.6.6.6.6.6.6.6.6.6.6.6.6.6.6.6.6.6.6.6.6.6.6.6.6.6.6.6.6.6.6.6.6.6.6.6.6.6.6.6.6.6.6.6.6.6.6.6.6.6.6.6.6.",
"6.6.6.6.6.6.6.6.6.6.6.6.6.6.6.6.6.6.6.6.n B 7.6.6.6.6.6.6.6.6.6.6.6.6.6.6.6.6.6.6.6.6.6.6.6.6.6.6.6.6.6.6.6.6.6.6.6.6.6.6.6.6.6.6.6.6.6.6.6.6.6.6.6.6.6.6.6.6.6.6.6.",
"6.6.6.6.6.6.6.6.6.6.6.6.6.6.6.6.6.6.6.6.n N 7.8.6.6.6.6.6.n 6.6.6.6.6.6.6.6.6.6.6.6.6.6.6.6.6.6.6.6.6.6.6.6.6.6.6.6.6.6.6.6.6.6.6.6.6.6.6.6.6.6.6.6.6.6.6.6.6.6.6.6.",
"6.6.6.6.6.6.6.6.6.6.6.6.6.6.6.6.6.6.6.6.n m 7.8.6.6.6.6.n M 6.6.6.6.6.6.6.6.6.6.6.6.6.6.6.6.6.6.6.6.6.6.6.6.6.6.6.6.6.6.6.6.6.6.6.6.6.6.6.6.6.6.6.6.6.6.6.6.6.6.6.6.",
"6.6.6.6.6.6.6.6.6.6.6.6.6.6.6.6.6.6.6.6.b m B 7.8.6.6.6.M B 6.6.6.6.6.6.6.6.6.6.6.6.6.6.6.6.6.6.6.6.6.6.6.6.6.6.6.6.8.0.q.7.6.6.6.6.6.6.6.6.6.6.6.6.6.6.6.6.6.6.6.6.",
"6.6.6.6.6.6.6.6.6.6.6.6.6.6.6.6.6.6.6.6.c v M V 8.9.V N B 8.6.6.6.6.6.6.6.6.6.6.6.6.6.6.6.6.6.6.6.6.6.6.6.6.6.6.V 9.8.V 0.q.7.6.6.6.6.6.6.6.6.6.6.6.6.6.6.6.6.6.6.6.",
"6.6.6.6.6.6.6.6.6.6.6.6.6.6.6.6.6.6.6.6.6.c b M V 8.9.9.n V 8.6.6.6.6.6.I Y Y U R W R I Z Z I 6.6.6.6.6.6.6.6.9.9.8.V M V B B 6.6.6.6.6.6.6.6.6.6.6.6.6.6.6.6.6.6.6.",
"6.6.6.6.6.6.6.6.6.6.6.6.6.6.6.6.6.6.6.6.6.c v b M V 9.q.q.V D D F U T D F T R U Y R I S S Z Z C Z D I Y Y V q.q.9.V M b v c x 6.6.6.6.6.6.6.6.6.6.6.6.6.6.6.6.6.6.6.",
"6.6.6.6.6.6.6.6.6.6.6.6.6.6.6.6.6.6.6.6.6.c c v n M V q.w.y.t.Z Z Y F W F S U Y D F D F D S C C D I Y Z t.y.w.q.V M n v c c 6.6.6.6.6.6.6.6.6.6.6.6.6.6.6.6.6.6.6.6.",
"6.6.6.6.6.6.6.6.6.6.6.6.6.6.6.N q.6.6.6.6.6.c c b m M V e.t.u.t.S T F I U Z S I I D I I S C Z F U T S t.u.t.e.V M m b c c 6.6.6.6.6.6.6.6.6.6.6.6.6.6.6.6.6.6.6.6.6.",
"6.6.6.6.6.6.6.6.6.6.6.6.6.6.6.m N q.6.6.6.6.Z c n M M N B 0.w.r.D R F S Z C Z I T D T I S C S Y Y R D r.w.0.B N M M n c 6.6.6.6.6.6.6.6.6.6.6.6.6.6.6.6.6.6.6.6.6.6.",
"6.6.6.6.6.6.6.6.6.6.6.6.6.6.6.6.m N q.N 6.F D Z c m N M M N 7.8.F Y F D I F F Z I Y I Z F F C D U Y F 8.7.N M M N m c Z D 6.6.N q.q.6.6.6.6.6.6.6.6.6.6.6.6.6.6.6.6.",
"6.6.6.6.6.6.6.6.6.6.6.6.6.6.6.6.m m V q.V m U D Z c b m N m N B U F S I Y E U D C D C D F I D C F U U B N m N m b c Z D U m V q.9.q.N 6.6.6.6.6.6.6.6.6.6.6.6.6.6.6.",
"6.6.6.6.6.6.6.6.6.6.6.6.6.6.6.6.6.m m V 9.7.m T S D I c v b n F D S Z D I U I Z 6 3 6 Z I U S C C D F < n b v c < 7 S F m 7.9.V m m 6.6.6.6.6.6.6.6.6.6.6.6.6.6.6.6.",
"6.6.6.6.6.6.6.6.6.6.6.6.6.6.6.6.6.v b m V B m T 7 Z S I F I I I S D I Y I D S C < < < C S S U T I Z Z 3 < < < < 3 C 7 T m B V m b v 6.6.6.6.6.6.6.6.6.6.6.6.6.6.6.6.",
"6.6.6.6.6.6.6.6.6.6.6.6.6.6.6.6.6.6.- v b m T Y Z 7 Z Z C C C Z S I T R R U D S 6 < 6 S D U F T Y I F 7 3 3 3 3 6 7 Z U < m b v - 6.6.6.6.6.6.6.6.6.6.6.6.6.6.6.6.6.",
"6.6.6.6.6.6.6.6.6.6.6.6.6.6.6.6.6.T F S D I Y U I S 7 C Z D D S S F F F I Y I S C 6 Z D U T T D T U F C 7 6 6 6 7 S I D 3 < < < F T 6.6.6.6.6.6.6.6.6.6.6.6.6.6.6.6.",
"6.6.6.6.6.6.6.6.6.6.6.6.6.6.6.6.U T I Z 7 S F I U F G C 5 4 5 7 Z S D D F I Y F Z C U U Z F D Z U F D C 8 , 5 ~ -.-.=.~ 7 6 6 7 I T U 6.6.6.6.6.6.6.6.6.6.6.6.6.6.6.",
"6.6.6.6.6.6.6.6.6.6.6.6.6.6.6.D S D Z F F Z S S S G 5 2 4 8 9 3 7 Z D S S D F I S < < Z Y S C 7 C S Z 8 , : ~ %.' %.-.-.~ 7 7 C S F Y D 6.6.6.6.6.6.6.6.6.6.6.6.6.6.",
"6.6.6.6.6.6.6.6.6.6.6.6.6.6.6.Y S 7 7 S D U F Z 7 5 4 9 0 G H A 3 7 C S S S D F Z q q < > 6 7 7 6 6 5 , : ~ ` ! f f ` %.%.~ C C 7 7 F Y F 6.6.6.6.6.6.6.6.6.6.6.6.6.",
"6.6.6.6.6.6.6.6.6.6.6.6.6.6.Z D Z I T Z F U S Z 7 4 8 G H H ( P H 7 D Y W E U D 7 q t q < 6 U F S 8 > : ~ ` Q w J G a ` %.` ! Z T I Z D S F 6.6.6.6.6.6.6.6.6.6.6.6.",
"6.6.6.6.6.6.6.6.6.6.6.6.6.D F Y S 7 Z U F S Z 7 5 5 3 8 0 8 5 0 S F T W W U S C < s h s > 3 3 < > > : ~ ` g w O @ @ e ` ~ g d > > 3 C S Z Z 6.6.6.6.6.6.6.6.6.6.6.6.",
"6.6.6.6.6.6.6.6.6.6.6.6.6.7 Z D Z I T D D 7 C 3 9 A 9 8 9 2 > > C D Y R U F C 6 q s h s t ; ; ; > : a ~ f w X @ @ @ f ~ Q a w > Z Z 7 7 C 7 Z 6.6.6.6.6.6.6.6.6.6.6.",
"6.6.6.6.6.6.6.6.6.6.6.6.r 3 6 7 C D S C C 7 3 9 0 A J 0 2 @ q > 4 Z 6 1 6 C 6 < s t q ; q q q ; : : w a w l l z z f ` Q a w > < Y I D 6 3 3 6 6.6.6.6.6.6.6.6.6.6.6.",
"6.6.6.6.6.6.6.6.6.6.6.6.7 < < 6 6 C 6 6 3 3 H K G 0 9 0 Q Q f q > 6 : > > H , q q C } H > q > l >.3 3 3 z l z >.f ~ Q a w > < C I T R F < > > Z 6.6.6.6.6.6.6.6.6.6.",
"6.6.6.6.6.6.6.6.6.6.6.F C > 3 3 3 3 3 3 H / H J K P 9 2 o @ @ q q q q q ^ A < l :.C Z C / q & G W Y Z Z ,.<.<.4.5.5.1.l > > 6 D I T T E D < 7 Z 6.6.6.6.6.6.6.6.6.6.",
"6.6.6.6.6.6.6.6.6.6.I Y I 3 9 9 3 3 H ) K K | L 9 2 w     $   $   #   s s s j z :.>.1.<.4.2.<.1.2.W T Y 5.W D 1.4.5.4.>.l > 6 Z D I Y U U 6 I Y F 6.6.6.6.6.6.6.6.6.",
"6.6.6.6.6.6.6.6.6.I F U U D 6 < 3 A P H G ( ( 9 @ @ $ ' ;.^ e q # . s $.$._ j >.>.< >.4.4.3.W ....2.R T 5.2.Y D 1.4.4.<.>.:.3 7 Z D I D Z C S F F 6.6.6.6.6.6.6.6.6.",
"6.6.6.6.6.6.6.I I U D I <.,.:.z 3 9 A A J P 9 @ @ Q &.;.^ e O # w s $._ j s t < S 6 2.2.3.3.3.2.[ W 2.W 5.Y 2.Z 2.1.1.2.,.>.3 3 C C Z Z C 7 6 S S 6.6.6.6.6.6.6.6.6.",
"6.6.6.6.6.6.6.I U 1.,.3.,.l 7 C :.3 5 5 A G 2 @ f *.*.^ e # # @ s _ j s t > I Z < 2.>.>.3.[ [ [ 2.2.Z ,.4.W 2.2.2.Z 2.,.Z :.>.<.,.>.C C 6 < 7 6 C 6.6.6.6.6.6.6.6.6.",
"6.6.6.6.6.6.U I z >.,.<.3.,.:.l z > 2 2 2 2 2 $ &.-.^ e # O O Q &.s e %. .>.Z >.6 4.< >.>.3.2.Z [ [ 2.Z 3.T 1.<.<.,.>.:.<.:.:.z Z z z > > < Z 7 3 6.6.6.6.6.6.6.6.6.",
"6.6.6.6.6.7 > l ,.S 2.3.3.3.,.:.l > > > > o O $ *.! e X O a f *.*.t ` %.6 <.> >.>.<.2.<.F W Z 2.2.Z ..,.1.T 1.<.,.>.:.:.3 3 3 < l z ,.<.z l z >.3 7 3 6.6.6.6.6.6.6.",
"6.6.6.6.Z Z 3 z S D 2.D 3.3.3.5.5.z l > > o O $ ` ! o < + e *.' %.0 ; :.<.z Y > >.F U >.<.E Z 2.1.2.2.[ <.Y 1.D S :.3 7 :.I <.7 l l l z 3 >.1.2.>.Z 7 < 6.6.6.6.6.6.",
"6.6.6.6.D Z :.7 S ,.,.F 2.D S 3.:.U 3.D b .   @ ! g 3 < < f ' Q ] q   ,.l 1.<.U >.>.D I >.W >.l >.E I >.,.<.,.S D 7 7 I 1.U z >.7 6 l C D <.z 7 ,.:.3 6 6.6.6.6.6.6.",
"6.6.6.6.Z :.z 7 :.9 ,.,.S S ,.<.9 I 1.F F ,.% o ! g < 3 3 f ~ a ' q ; z 3 ,.3 U C D D S S >.Z R D <.1.<.>.,.U F Z 7 6 z z 6 Z 6 < >.z C D D <.7 D z 6 C 6.6.6.6.6.6.",
"6.6.6.6.z z l 7 S :.:.9 9 9 ,.9 :.1.3.1.:.,.:.# ! g < < 3 f ~ @ ~ l ,.Z l F 7 ,.,.C Z Z 3 l C Z D D F z >.3 F D 6 6 z :.7 7 F 6 ; % & 6 C D I :.Z l 3 6 6.6.6.6.6.6.",
"6.6.6.6.l z z z z ,.,.z 9 ,.,.9 :.,.>.<.:.T D w ! g ; < < f ~ @ ~ z l I D D D 7 S ,.>.Z Z C <.6 C S :.z 7 C U Z l l z l 6 7 3 < % % % 3 7 Z D >.7 l 7 > 6.6.6.6.6.6.",
"6.6.6.6.l :.z l z z z 3 3 ,.:.9 i i i I 1.<.1.$ ~ g ; ; ; f ~ @ ~ k l l I C Z ,.Z Z C C F R <.6 C :.l 7 Y 7 7 z 7 6 6 > l l l % & z z :.; 3 3 l 3 l > ; 6.6.6.6.6.6.",
"6.6.6.,.,.,.:.z l l z ,.,.,.u X.O.O.O.o.p <.1.= ` f ; ; ; a ~   Q U F R l R 7 C 7 Z C z >.D <.6 C l l D Z Z z 7 Z 3 > l l l z z :.:.:.:.:.; ; l 3 l ; 6.6.6.6.6.6.6.",
"6.6.,.,.,.,.,.:.:.z l l l y o.@.@.+.O.o.X.u ,.! %.a z ; ; w %.e e z <.Z I 6 7 7 7 C Z 7 Z :.z z k k k C C z l 3 3 > l z :.:.:.>.>.>.>.>.>.>.>.,.>.>.6.6.6.6.6.6.6.6.",
"6.,.,.,.,.,.,.>.>.>.:.:.:.u O.#.@.+.X.X.i u l *.! z ,.,.z O ~ ' @ Z :.6 6 z :.z 3 z :.< < C 7 l * * * < < l > > > z :.:.>.>.,.,.,.,.<.<.,.,.,.,.>.6.6.6.6.6.6.6.6.6.",
"6.>.>.>.,.y u u y ,.>.>.>.u p o.y X p i u y z ` &.{ { { { ` Q f   7 l l 3 l z 3 7 C 6 < < < l l l z z z z z z z :.,.,.<.<.1.1.<.<.<.,.,.,.,.>.>.6.6.6.6.6.6.6.6.6.6.",
"6.6.6.6.>.>.>.>.u X.X.i ,.+ + y X X y y + O z d d d d d d d d w   z z z z z z z ; ; ; ; l z z z z :.:.,.,.,.,.,.,.<.<.<.,.,.,.,.,.>.>.>.>.>.6.6.6.6.6.6.6.6.6.6.6.6.",
"6.6.6.6.6.6.6.6.6.u u X.i y O + y + p u O y u y :.:.:.:.:.:.:.:.:.:.:.:.:.:.>.>.>.>.>.>.>.,.,.,.,.,.,.<.<.<.<.<.<.,.>.>.>.>.>.>.>.6.6.6.6.6.6.6.6.6.6.6.6.6.6.6.6.6.",
"6.6.6.6.6.6.6.6.6.6.6.u u X X O O O O O O O O u y >.>.>.>.>.>.>.,.,.,.>.>.>.6.6.6.6.6.6.6.>.>.>.>.,.,.,.,.,.,.>.>.>.6.6.6.6.6.6.6.6.6.6.6.6.6.6.6.6.6.6.6.6.6.6.6.6.",
"6.6.6.6.6.6.6.6.6.6.6.6.6.6.6.6.6.6.6.6.6.6.6.O u u y >.>.>.>.,.6.6.6.6.6.6.6.6.6.6.6.6.6.6.6.6.6.>.>.>.>.>.>.6.6.6.6.6.6.6.6.6.6.6.6.6.6.6.6.6.6.6.6.6.6.6.6.6.6.6."
};
