/* XPM */
static char *d9504fb60cc245a8971305f65a2f8ab63AYzYA6Ru8ji7uJs[] = {
/* columns rows colors chars-per-pixel */
"82 82 105 2 ",
"   c black",
".  c #1B1B1B",
"X  c #13230B",
"o  c #17330F",
"O  c #3F2F17",
"+  c #000023",
"@  c #232323",
"#  c #272727",
"$  c #2F2F2F",
"%  c #373F27",
"&  c #373737",
"*  c gray23",
"=  c #430000",
"-  c #470000",
";  c #4F0000",
":  c #530707",
">  c #5B0000",
",  c #5B0707",
"<  c #5F0707",
"1  c #670000",
"2  c #670B0B",
"3  c #6B0F0F",
"4  c #730000",
"5  c #7F0000",
"6  c #731313",
"7  c #771717",
"8  c #7F1B1B",
"9  c #43331B",
"0  c #4B371B",
"q  c #732B00",
"w  c #4F3B23",
"e  c #1F4317",
"r  c #3F472B",
"t  c #5B472B",
"y  c #675333",
"u  c #775F3F",
"i  c #000047",
"p  c #000053",
"a  c #00006B",
"s  c #434343",
"d  c gray28",
"f  c gray31",
"g  c gray34",
"h  c #5B5B5B",
"j  c gray39",
"k  c gray42",
"l  c #6F6F6F",
"z  c #777777",
"x  c gray50",
"c  c #8B0000",
"v  c #9B0000",
"b  c #831F1F",
"n  c #A70000",
"m  c #B30000",
"M  c #BF0000",
"N  c #8B2323",
"B  c #8F2B2B",
"V  c #972F2F",
"C  c #9B3333",
"Z  c #A33B3B",
"A  c #A73F3F",
"S  c #CB0000",
"D  c #D70000",
"F  c #E30000",
"G  c #EF0000",
"H  c red",
"J  c #FF1F1F",
"K  c #FF3F3F",
"L  c #AF4300",
"P  c #AF4747",
"I  c #B34F4F",
"U  c #BB5757",
"Y  c #BF5B5B",
"T  c #836B4B",
"R  c #FF5F5F",
"E  c #C76363",
"W  c #CB6B6B",
"Q  c #D37373",
"!  c #DB7B7B",
"~  c #FF7B7B",
"^  c #000083",
"/  c #00009B",
"(  c #0000B3",
")  c #0000CB",
"_  c #0000E3",
"`  c blue",
"'  c #1B1BFF",
"]  c #3737FF",
"[  c #5353FF",
"{  c black",
"}  c #838383",
"|  c #8B8B8B",
" . c #939393",
".. c #979797",
"X. c #9F9F9F",
"o. c #A7A7A7",
"O. c gray67",
"+. c gray70",
"@. c gray75",
"#. c #DF8787",
"$. c #EB9797",
"%. c gray78",
"&. c LightGray",
"*. c gray86",
"=. c #DFDFDF",
/* pixels */
"{ { { { { { { { { { { { { { { { { { { { { { { { { { { { { { { { { { { { { { { { { { { { { { { { { { { { { { { { { { { { { { { { { { { { { { { { { { { { { { { { { { ",
"{ { { { { { { { { { { { { { { { { { { { { { { { { { { { { { { { { { { { { { { { { { { { { { { { { { { { { { { { { { { { { { { { { { { { { { { { { { { { { { { { { { ",
"{ { { { { { { { { { { { { { { { { { { { { { { { { { { { { { { { { { { { { { { { { { { { { { { { { { { { { { { { { { { { { { { { { { { { { { { { { { { { { { { { { { ",
"{ { { { { { { { { { { { { { { { { { { { { { { { { { { { { { { { { { { { { { { { { { { { { { { { { { { { { { { { { { { { { { { { { { { { { { { { { { { { { { { { { { ",
"{ { { { { { { { { { { { { { { { { { { { { { { { { { { { { { { { { { { { { { { { { { { { { { { { { { { { { { { { { { { { { { { { { { { { { { { { { { { { { { { { { { ",
"{ { { { { { { { { { { { { { { { { { { { { { { { { { { { { { { { { { { { { { { { { { { { { { { { { { { { { { { { { { { { { { { { { { { { { { { { { { { { { { { { { { ",
"{ { { { { { { { { { { { { { { { { { { { { { { { { { { { { { { { { { { { { { { { { { { { { { { { { { { { { { { { { { { { { { { { { { { { { { { { { { { { { { { { { { ",
"{ { { { { { { { { { { { { { { { { { { { { { { { { { { { { { { { { { { { { { { { { { { { { { { { { { { { { { { { { { { { { { { { { { { { { { { { { { { { { { { { { { ",
"{ { { { { { { { { { { { { { { { { { { { { { { { { { { h { { { { { { { { { { { { { { { { { { { { { { { { { h { { { { { { { { { { { { { { { { { { { { { { { { { { { { ",
"{ { { { { { { { { { { { { { { { { { { { { { { { { { h k { { { { { { { { { { { { { { { { { { { { { { { { { k h { { { { { { { { { { { { { { { { { { { { { { { { { { { ",
"{ { { { { { { { { { { { { { { { { { { { { { { { { { k z { { { { { { { { { { { { { { { { { { { { { { { { { z k { { { { { { { { { { { { { { { { { { { { { { { { { { { ",
"{ { { { { { { { { { { { { { { { { { { { { { { { { l z | { { { { { { { { { { { { { { { { { { { { { { { { { | z l { { { { { { { { { { { { { { { { { { { { { { { { { { ",
"{ { { { { { { { { { { { { { { g j { { { { { { { { l } ..{ { { { { { { { { { { { { { { { { { { { { { { { { ..} l { { { { { { { { j g { { { { { { { { { { { { { { { { ",
"{ { { { { { { { { { { { { { { g j { { { { { { { { l ..O.z { { { { { { { { { { { { { { { { { { { { { { { z O...l { { { { { { { { j g { { { { { { { { { { { { { { { { ",
"{ { { { { { { { { { { { { { { g k k { { { { { { { j | O.x { { { { { { { { { { { { { { { { { { { { { { { x O.| j { { { { { { { k j f { { { { { { { { { { { { { { { { ",
"{ { { { { { { { { { { { { { { g j l z { { { { { { h } o. .z { { { { { { { { { { { { { { { { { { { { { z  .o.} h { { { { { { z l g d { { { { { { { { { { { { { { { { ",
"{ { { { { { { { { { { { { { { g h j z l { { { { { f l ..X.x z { { { { { { 5 m m m m m 5 { { { { { { z x X...l f { { { { { l z j f s { { { { { { { { { { { { { { { { ",
"{ { { { { { { { { { { { { { { { g h z } l { { { { s k x  ...x z { 5 v v m D H H G G D m m v v 5 { z x .. .x k s { { { { l } z h f { { { { { { { { { { { { { { { { { ",
"{ { { { { { { { { { { { { { { { s d j z | l { { { s j x  .v v v m m m m H G m S D S m S S m m m m v v v  .x j s { { { l | z j f s { { { { { { { { { { { { { { { { { ",
"{ { { { { { { { { { { { { { { { s d g l } | l { { * h 5 5 v m M M n S F F M D K K F D M M F S n M M m v 5 5 h * { { l | } l g d s { { { { { { { { { { { { { { { { { ",
"{ { { { { { { { { { { { { { { { { d d h z | X.| { * 5 5 5 v S S S m S F D S K ~ R J D S m F S m S S S v 5 5 5 * { | X.| z h f d { { { { { { { { { { { { { { { { { { ",
"{ { { { { { { { { { { { { { { { { s d g k z  .X.X.x S F H G G F D m S F S D R R R K J D n F S m D F G G H F S x X.X. .} k g d s { { { { { { { { { { { { { { { { { { ",
"{ { { { { { { { { { { { { { { { { { * d f k x  .o.o.@.@. .z H H D m S F M D K K R K H D n F S m D H H z  .@.@.o.o. .x k f d * { { { { { { { { { { { { { { { { { { { ",
"{ { { { { { { { { { { { { { { { { { & * d g k x  .o.%.*.@.@.z H F n M G m D G J K H G D S G M n F R z @.@.*.%.o. .x k g d * & { { { { { { { { { { { { { { { { { { { ",
"{ { { { { { { { { { { { { { { { { { M & * d g k z  .o.@.=.@.z F F n n H H S M F H F M S H H n n F ~ z @.=.@.o. .z k g d * & M { { { { { { { { { { { { { { { { { { { ",
"{ { { { { { { { { g k | | x { { { M M S & * d g k l z ..o.+.z G F n M D H D m M F M m D H D M n F ~ z +.o...z k g g d * & S M M { { { x | | { { { { { { { { { { { { ",
"{ { { { { { { { { { h g l | o.o.{ D m M m & * d g k k l } | z H D n S n D H m M F M m H n M S n D H z | } l k * d d * & m M m D { o.o.| l g { { { { { { { { { { { { ",
"{ { { { { { { { { { { h g j x ..O. .x j D m & * d d g j l z M F M m v M n H S m M m S H M H v m M F M z l j f S n * & m D j x  .O...x j g h { { { { { { { { { { { { ",
"{ { { { { { { { { { { { { g g j | .. .} j G n m & * f g h M D M n S F M M S G m m m G S F S F S n M D M h g > v & 5 5 G j }  ...| j g g { { { { { { { { { { { { { { ",
"{ { { { { { { { { { { { { { { f g l } z j G 5 v n S M S S S m n v F H F M v G m m m G v F M n m v n m S S 4 m v c 5 5 G j z } l g f { { { { k g { { { { { { { { { { ",
"{ { { { { { { { { { { { { { M M * f g j g D D m v v c c c v n m S F F F S m S F n F S m S n M n n m n v c M m > > 4 c m S j g f * M M { { { h { { { { { { { { { { { ",
"{ { { { { { { { { { { { { n m G D n * * n F S n 5 c v m M m M S F G G D M c m m S m c v M M S M F D D S M m v 4 > 5 > > S * * n S G m n { { { { { { { { { { { { { { ",
"{ { { { { { { { { { { { { n m G M D F S F D m n 4 c v m M m M S F G G D M 5 1 v S m c v M F H F F D D S M v c 4 > 4 > 1 F c D S M G m n { { { { { { { { { { { { { { ",
"{ { { { { { { { { { { { m n n D G S v 5 v m m 4 1 4 v m M m M S H H G D M n 4 1 4 4 5 n v n H G G F M m 7 5 v c , , 5 4 a n 4 G G D n n m { { { { { { { { { { { { { ",
"{ { { { { { { { { { { { m M m n m v v m v n v 1 1 1 1 5 c v m M S H G D M n c 4 c 4 c v n S m n G M m c 8 < , , , , v m ] c v m m v m M m { { { { { { { { { { { { { ",
"{ { { { { { { { { { { v m M F n 5 5 v m D H D 4 1 1 3 6 7 c c v n G H D M n c 4 1 c c n M F H c S v c / < , < 7 2 ' a ) m ^ 4 5 5 n F M m v { { { { { { { { { { { { ",
"{ { { { { { { { { { { v 5 v m v S G v M D G m c b 3 6 6 7 3 8 8 c m H D M n c 4 4 S n n M F 5 : c 8 < + + ) ) a , ' ] c n c > n c c m v 5 v { { { { { { { { { { { { ",
"{ { { { { { { { { { { q 1 4 5 c m D c m m n c 5 8 V 8 8 8 7 3 2 c G S H M n c 4 1 n H F M H S - ; 3 + + 3 + ' ^ ' [ ) ^ n c > D 1 M c 4 1 q { { { { { { { { { { { { ",
"{ { { { { { { { { { { 5 > > 4 4 c n 4 c c b 5 8 B b 8 7 7 7 < - v m H F M S n c 4 c F B m F v + + 9 9 + + ) ] [ ] : 1 c c c 1 4 3 c 4 > > 5 { { { { { { { { { { { { ",
"{ { { { { { { { { { M c 5 > > 1 1 1 1 7 5 B V C I N 8 6 6 6 2 2 , b M F m M c S c S M M 2 2 b - 9 9 9 / + [ ^ + ^ : : ^ ^ C N 1 1 1 > > 5 v M { { { { { { { { { { { ",
"{ { { { { { { { { { F S v 5 4 > > 1 b V Z P Q V Z A B 7 8 2 3 7 , - 2 B F S c S S m M F + o + + 9 t 9 9 + + + t y ^ 8 8 ^ I 8 1 > > 1 5 v S F { { { { { { { { { { { ",
"{ { { { { { { { { M D D m v 4 ; > > 7 b V I Y C I A Z B 2 7 7 b 6 , : 2 b m S v m 2 ; b + o 9 o w t y 9 9 ' y y ^ + V C Z N 7 > > ; 4 v m D M M { { { { { { { { { { ",
"{ { { { { { { { { m S M n c 1 1 1 7 7 b N I A C I U Z V N b b I Z Z 2 , 2 7 b v c 7 + , ' o 9 X o t y t y y t % + 8 A I V N N , 3 1 1 1 1 n S m { { { { { { { { { { ",
"{ { { { { { { { { n m n c 5 c 5 1 3 3 7 b V N B A P C N A I Q $.W W P 2 , ; / ; > ; ; / / + 9 o X w y y y t 9 % ' ^ 8 6 N V N b 3 , 1 5 c c m n { { { { { { { { { { ",
"{ { { { { { { { { n m n c 5 v c 1 3 3 7 b V N A C N A I Q $.W W U P Z A 5 3 5 2 > 5 2 B % + 9 9 X 9 w y T y % o o o ^ ' N V N b , 5 c 5 c n m n { { { { { { { { { { ",
"{ { { { { { { { { 5 n c 4 c n v 1 3 3 3 7 V N A C U I Q $.! Q I W #.W C N 2 N 3 b Q ^ / p ( X 9 o X 9 w y T T e o o ^ 6 2 N ' 7 , 0 1 v n c 4 c { { { { { { { { { { ",
"{ { { { { { { { { 1 5 1 c n v c 1 O  .k q 3 6 8 C I C Y Q $.E P P V C W W 3 #.' ' p ' + + + % X 9 9 X 9 w u T T t t C 2 ; 3 q k  .O 1 5 v n c 1 { { { { { { { { { { ",
"{ { { { { { { { { q 1 1 4 c 5 1 ; . j f j k 3 6 b N Z Y U U Q #.#.V #.V / / N / P p + ( + % #.X 9 9 X X p T u y u u b + 3 j j . 1 1 5 v v 1 1 q { { { { { { { { { { ",
"{ { { { { { { { { c c v 5 1 1 > ; . s *  .X.k 3 7 N V C V A E A P U U V E / N p ' ' Y / + ^ A + 9 9 Y 9 u T y 9 9 9 3 , k B  .f s . > 1 5 v c c { { { { { { { { { { ",
"{ { { { { { { { { v v m v 1 5 5 , =   s j z z g 3 3 3 N Z U 7 8 P P P #.U Z N N / / P #.P E #.9 % A 9 T T y + + p + g X.j k O *   = ; 5 1 v v v { { { { { { { { { { ",
"{ { { { { { { { { v M M M 5 m m m - - , g j z g 3 o.h 3 f o.f i U P Y Z P / W Z P U + P U Q + % r r T y + t t t t 9 + + z s = = , , ; m 5 M M v { { { { { { { { { { ",
"{ { { { { { { { { v n M n m v S m - - 1 S m i f $ | } f N C O.3 N Z b / A V V B A I Z A Z E #.+ r y y t t w 9 9 9 f 9 g z z @   1 , m v F M n v { { { { { { { { { { ",
"{ { { { { { { { { { n m S J m S m m 8 2 m n n 1 i g l f U b 1 X.8 Q / / B B V V / / I B b Z Q 8 r y t w 9 + p + + i s s 4 j 1 - 2 1 M n S m n { { { { { { { { { { { ",
"{ { { { { { { { { { M n n F D J J m F F m D ^ n v # & $ P m M g N / F h B N 5 + + W V N B Z N g f 9 w 9 + + _ / _ - v c 5 4 4 v 1 M S v n n M { { { { { { { { { { { ",
"{ { { { { { { { { { L c v m G M D S F S F ^ ^ 4 n S v v v ^ ; / D > + i = i M / z d $ B b X.i h | 1 1 v v / / _ _ M n n c 5 v M D J v 4 v c L { { { { { { { { { { { ",
"{ { { { { { { { { { { S n v c v F J M S J S F M 4 4 4 M ^ a a a / > = > = 5 4 > c c / / h K / F K F G F F D ( _ / m m m c v v M M v c n M S { { { { { { { { { { { { ",
"{ { { { { { { { { { { S m n 5 7 5 v F S F J M S = ^ ; ^ / a a ^ > = = 4 R c / > v / + m i G K K H K H G K D _ _ / D F G D M M M n c S M m S { { { { { { { { { { { { ",
"{ { { { { { { { { { { { n c 7 B ( 5 v M n 4 ( ^ = ` a ( ` ( ^ / ) = / 5 S M M > / / ) R S ~ ~ R K K K H H F _ / / K J S v 5 M m n S m m n { { { { { { { { { { { { { ",
"{ { { { { { { { { { { { m 7 C Z A v 5 5 c ( = ^ ' ^ ` ] ] ( _ ^ / ) = > v n 4 4 ` ` ) ) R / K R R K H K G F / _ / J S n 5 c 5 F S m m v m { { { { { { { { { { { { { ",
"{ { { { { { { { { { { v V C Z A v 5 c n 5 ( n ( ^ ( ] ] ] ` ( ( / ^ / = 4 v / > > ` / J F K R R ~ R K K R K / _ J S n 5 c C 4 S n v c v v { { { { { { { { { { { { { ",
"{ { { { { { { { { { { 5 b V C Z c 5 5 ^ m ( = ( ' ' _ ] ] ] ] / / ; ( 4 ` ( / ` ` ` / / J J K K R R ~ R K G D / S n 5 c C B 4 n v c 4 5 v { { { { { { { { { { { { { ",
"{ { { { { { { { { { { { v 5 b V C Z c 5 m D 4 ^ ) ^ ^ _ _ ] ] / ] ( p _ 1 ) ; / ` / M 1 / J K K R R ~ R K G D / m v 5 c C B 4 n v c 4 5 v { { { { { { { { { { { { { ",
"{ { { { { { { { { { { { c 1 { b V c 5 5 5 n c S 4 > _ _ _ ) ) a / / 1 ( 1 ) F ; / M D ) / H D J D J J G F F D / n 5 5 c C B 4 n c 5 { 1 c { { { { { { { { { { { { { ",
"{ { { { { { { { { { { { { 5 m m 5 5 S D G v S F ^ > ) = _ ) ^ / a a a M 5 ( D D / / m S n H / S D S F S M m m / c N V B G D S v 4 m m 5 { { { { { { { { { { { { { { ",
"{ { { { { { { { { { { { { { 5 4 v S S M M m ^ m 4 m 5 c ( a ( a p p m p m 5 ( ( c m m n v c v m M M F S m c 5 / c N M G S S S S v 4 5 { { { { { { { { { { { { { { { ",
"{ { { { { { { { { { { { { { { v X.S m G S c G m n S S > = ^ > = = p ( v v ( m v c / v v c m c v m m S n v m S / n m G S m &.X.m v { { { { { { { { { { { { { { { { { ",
"{ { { { { { { { { { { { { { { { x &...} h S G m S M c > 4 c 5 4 = = p S m c c n c v c v M H S 4 c n v c 5 v M / S m G S h } ..x { { { { { { { { { { { { { { { { { { ",
"{ { { { { { { { { { { { { { { { { l z j f S G m G m v 5 v 5 4 > = = = p S m M S v v v v n m S 4 c m v m v v v / G m G S f j z l { { { { { { { { { { { { { { { { { { ",
"{ { { { { { { { { { { { { { { { { l z j f S G m M v v v v 1 = = = 4 S p H H m v n c v 5 5 m S 4 c m v m v v v / G m G S f j z l { { { { { { { { { { { { { { { { { { ",
"{ { { { { { { { { { { { { { { { { j k f * S m c M v 4 { c = = M m m H S { H c 5 v c 5 c { S H m m M 4 c c { 4 / M c m S * f k j { { { { { { { { { { { { { { { { { { ",
"{ { { { { { { { { { { { { { { { { f h * { ; 1 1 M m 4 4 5 4 > 5 M D M { c 4 5 c c c 5 4 c { M D M 5 5 4 5 4 4 m v 1 1 ; { * h f { { { { { { { { { { { { { { { { { { ",
"{ { { { { { { { { { { { { { { { { f h { { { { { { M v 5 4 { { > v 1 { v 4 > 5 5 5 5 5 > 4 v { 1 v 4 { { 4 5 v v { { { { { { h f { { { { { { { { { { { { { { { { { { ",
"{ { { { { { { { { { { { { { { { { { { { { { { { { { m 5 5 S { { 4 v 5 4 > 1 1 4 1 4 4 1 > 4 5 v 4 { { S 5 5 v { { { { { { { { { { { { { { { { { { { { { { { { { { { ",
"{ { { { { { { { { { { { { { { { { { { { { { { { { { { { 1 5 m S M 5 > ; 1 4 4 1 { { 4 4 1 ; > 5 M S m 5 1 v { { { { { { { { { { { { { { { { { { { { { { { { { { { { ",
"{ { { { { { { { { { { { { { { { { { { { { { { { { { { { { { 1 1 1 > ; { { { { { { { { { { { ; > 1 1 1 v { { { { { { { { { { { { { { { { { { { { { { { { { { { { { { ",
"{ { { { { { { { { { { { { { { { { { { { { { { { { { { { { { { { { { { { { { { { { { { { { { { { { { { { { { { { { { { { { { { { { { { { { { { { { { { { { { { { { { ",
"{ { { { { { { { { { { { { { { { { { { { { { { { { { { { { { { { { { { { { { { { { { { { { { { { { { { { { { { { { { { { { { { { { { { { { { { { { { { { { { { { { { ",
"{ { { { { { { { { { { { { { { { { { { { { { { { { { { { { { { { { { { { { { { { { { { { { { { { { { { { { { { { { { { { { { { { { { { { { { { { { { { { { { { { { { ",
"{ { { { { { { { { { { { { { { { { { { { { { { { { { { { { { { { { { { { { { { { { { { { { { { { { { { { { { { { { { { { { { { { { { { { { { { { { { { { { { { { { { ",
"{ { { { { { { { { { { { { { { { { { { { { { { { { { { { { { { { { { { { { { { { { { { { { { { { { { { { { { { { { { { { { { { { { { { { { { { { { { { { { { { { { { ",
"{ { { { { { { { { { { { { { { { { { { { { { { { { { { { { { { { { { { { { { { { { { { { { { { { { { { { { { { { { { { { { { { { { { { { { { { { { { { { { { { { { { ",
"{ { { { { { { { { { { { { { { { { { { { { { { { { { { { { { { { { { { { { { { { { { { { { { { { { { { { { { { { { { { { { { { { { { { { { { { { { { { { { { { { { { "
};
