/* XPM */
static char *e8c5df669faf4bfe94c95d32cfb2a516HBRjIlLOQih1miq1[] = {
/* columns rows colors chars-per-pixel */
"65 65 27 1 ",
"  c #0F1700",
". c #171F07",
"X c #1F170B",
"o c #131313",
"O c #1B1B1B",
"+ c #13230B",
"@ c #2B230F",
"# c #232B0F",
"$ c #332B13",
"% c #2F371F",
"& c #232323",
"* c #272727",
"= c #373F27",
"- c #3F472B",
"; c #474F33",
": c #574333",
"> c #53573B",
", c gray31",
"< c #6F5743",
"1 c #5B6347",
"2 c #676B4F",
"3 c #6F7357",
"4 c #7B7F63",
"5 c #9F876F",
"6 c #A78F77",
"7 c none",
"8 c #B79F87",
/* pixels */
"77777777777777777777777777777777777777777777777777777777777777777",
"77777777777777777777777777777777777777777777777777777777777777777",
"77777777777777777777777777777777777777777777777777777777777777777",
"77777777777777777777777777777777777777777777777777777777777777777",
"77777777777777777777777777777777777777777777777777777777777777777",
"77777777777777777777777777777777777777777777777777777777777777777",
"77777777777777777777777777777777777777777777777777777777777777777",
"77777777777777777777777777777777777777777777777777777777777777777",
"77777777777777777777777777777777777777777777777777777777777777777",
"77777777777777777777777777777777777777777777777777777777777777777",
"77777777777777777777777777777777777777777777777777777777777777777",
"77777777777777777777777777777777777777777777777777777777777777777",
"77777777777777777777777777777777777777777777777777777777777777777",
"77777777777777777777777777777777777777777777777777777777777777777",
"77777777777777777777777777777777777777777777777777777777777777777",
"77777777777777777777777777777777777777777777777777777777777777777",
"77777777777777777777777777777777777777777777777777777777777777777",
"77777777777777777777777777777777777777777777777777777777777777777",
"77777777777777777777777777777777777777777777777777777777777777777",
"77777777777777777777777777777777777777777777777777777777777777777",
"77777777777777777777777777777777777777777777777777777777777777777",
"77777777777777777777777777777777777777777777777777777777777777777",
"77777777777777777777777777777777777777777777777777777777777777777",
"77777777777777777777777777777777777777777777777777777777777777777",
"77777777777777777777777777777777777777777777777777777777777777777",
"7777777777777777%--;;>>1111111111111111111>>;---%7777777777777777",
"777777777777777.=>>>1122233323333333332322111>--= 777777777777777",
"777777777777777..#%-==;>12334468886634211>-%=%#.. 777777777777777",
"7777777777777777 +#%%=-;>22>1223422111132;-=%#+. 7777777777777777",
"77777777777777777   +#%%=--=-;>11>>-;-;;-%##+  X77777777777777777",
"777777777777777777 +#.+++####%%%%%%%%####+++#+X777777777777777777",
"777777777777777777 ##+#%%%%%%%=---==%%%%%##+%#.777777777777777777",
"7777777777777777777 +.####%=--;;>;---=%%%....+7777777777777777777",
"77777777777777777777   .####%%=-;-=%%####.   77777777777777777777",
"777777777777777777777....###%#%%%%%#%###....777777777777777777777",
"77777777777777777777##%.%;>>-%->1>-%->>;%.%##77777777777777777777",
"77777777777777777777#%%#-1>;>->232>->;>1-#%%#77777777777777777777",
"77777777777777777777#=%%--=>1;1;>;1;1>=--%%=#77777777777777777777",
"77777777777777777777..%=%;>2--2>->2--2>;%=%..77777777777777777777",
"77777777777777777777#%%.>#.%>1#%2%#1>%.#>.%%#77777777777777777777",
"77777777777777777777#.#=#;>2;241%142;2>;#=#.#77777777777777777777",
"777777777777777777777..#=-%%-%#;1;#%-%%--#..777777777777777777777",
"77777777777777777777..#%%#....%;>;%..#%==%%#.77777777777777777777",
"77777777777777777777..#X.#%=;11232>11;;=%##..77777777777777777777",
"77777777777777777777...&OOo$13468641>-==%##..77777777777777777777",
"77777777777777777777..X*&$$=;32341;-=>--=##..77777777777777777777",
"77777777777777777777...%#$=;;;>232-#=---=#...77777777777777777777",
"77777777777777777777...#%=-41-;133;==%%%%#...77777777777777777777",
"77777777777777777777....#-311=-121-=>-### ...77777777777777777777",
"77777777777777777777....%;1>;=%>1>%##... ##..77777777777777777777",
"77777777777777777777..#=;:=-==%>112=#.  .#..X77777777777777777777",
"77777777777777777777..#%%=%%%-;122>;=%.  %#..77777777777777777777",
"7777777777777777777.##.@%%=%=112331>,;%##%%##.7777777777777777777",
"7777777777777777777.%%%%%-=%-123332<,1;=;===%#7777777777777777777",
"7777777777777777777.#%--;>>%;1134311111>1;-%#.7777777777777777777",
"777777777777777777###..%=;->23568653321-;%#.###777777777777777777",
"77777777777777777##%%..##%#==-;>1>1;;;-%####%%##77777777777777777",
"77777777777777777##=--%%-=#.#%-;===#%%=%--%--=##77777777777777777",
"77777777777777777.%%=%=>31;-=->252>;;>;13>=%=%%.77777777777777777",
"77777777777777777. %-%;->;-1-;11211;-1-;>-;%-% .77777777777777777",
"77777777777777777#%-.=-=->2-%-2>->2-%-2>-=-=.-%#77777777777777777",
"77777777777777777##.-%#-%.%>%;#%1%#>%>%.%-#%-.##77777777777777777",
"777777777777777777#%-=-#;->1-1>1%1>1-1>-;#-=-%#777777777777777777",
"7777777777777777777%%.#=-%%-#%#;>;#%#-%%--%.%%7777777777777777777",
"7777777777777777777777#==%.  .#===#   .%==#7777777777777777777777"
};
