/* XPM */
static char *_65393abada44602a2708d7578edad52OViRnLF5mf1Cp5lL[] = {
/* columns rows colors chars-per-pixel */
"65 65 19 1 ",
"  c #430000",
". c #4F0000",
"X c #5B0000",
"o c #730000",
"O c #7F0000",
"+ c #8B0000",
"@ c #9B0000",
"# c #B30000",
"$ c #BF0000",
"% c #CB0000",
"& c #D70000",
"* c #E30000",
"= c #EF0000",
"- c red",
"; c #FF1F1F",
": c #FF3F3F",
"> c #FF5F5F",
", c #FF7B7B",
"< c none",
/* pixels */
"<<<<<<<<<<<<<<<<<<<<<<<<<<<<<<<<<<<<<<<<<<<<<<<<<<<<<<<<<<<<<<<<<",
"<<<<<<<<<<<<<<<<<<<<<<<<<<<<<<<<<<<<<<<<<<<<<<<<<<<<<<<<<<<<<<<<<",
"<<<<<<<<<<<<<<<<<<<<<<<<<<<<<<<<<<<<<<<<<<<<<<<<<<<<<<<<<<<<<<<<<",
"<<<<<<<<<<<<<<<<<<<<<<<<<<<<<<<<<<<<<<<<<<<<<<<<<<<<<<<<<<<<<<<<<",
"<<<<<<<<<<<<<<<<<<<<<<<<<<<<<<<<<<<<<<<<<<<<<<<<<<<<<<<<<<<<<<<<<",
"<<<<<<<<<<<<<<<<<<<<<<<<<<<<<<<<<<<<<<<<<<<<<<<<<<<<<<<<<<<<<<<<<",
"<<<<<<<<<<<<<<<<<<<<<<<<<<<<<<<<<<<<<<<<<<<<<<<<<<<<<<<<<<<<<<<<<",
"<<<<<<<<<<<<<<<<<<<<<<<<<<<<<<<<<<<<<<<<<<<<<<<<<<<<<<<<<<<<<<<<<",
"<<<<<<<<<<<<<<<<<<<<<<<<<<<<<<<<<<<<<<<<<<<<<<<<<<<<<<<<<<<<<<<<<",
"<<<<<<<<<<<<<<<<<<<<<<<<<<<<<<<<<<<<<<<<<<<<<<<<<<<<<<<<<<<<<<<<<",
"<<<<<<<<<<<<<<<<<<<<<<<<<<<<<<<<<<<<<<<<<<<<<<<<<<<<<<<<<<<<<<<<<",
"<<<<<<<<<<<<<<<<<<<<<<<<<<<<<<<<<<<<<<<<<<<<<<<<<<<<<<<<<<<<<<<<<",
"<<<<<<<<<<<<<<<<<<<<<<<<<<<<<<<<<<<<<<<<<<<<<<<<<<<<<<<<<<<<<<<<<",
"<<<<<<<<<<<<<<<<<<<<<<<<<<<<<<<<<<<<<<<<<<<<<<<<<<<<<<<<<<<<<<<<<",
"<<<<<<<<<<<<<<<<<<<<<<<<<<<<<<<<<<<<<<<<<<<<<<<<<<<<<<<<<<<<<<<<<",
"<<<<<<<<<<<<<<<<<<<<<<<<<<<<<<<<<<<<<<<<<<<<<<<<<<<<<<<<<<<<<<<<<",
"<<<<<<<<<<<<<<<<<<<<<<<<<<<<<<<<<<<<<<<<<<<<<<<<<<<<<<<<<<<<<<<<<",
"<<<<<<<<<<<<<<<<<<<<<<<<<<<<<<<<<<<<<<<<<<<<<<<<<<<<<<<<<<<<<<<<<",
"<<<<<<<<<<<<<<<<<<<<<<<<<<<<<<<<<<<<<<<<<<<<<<<<<<<<<<<<<<<<<<<<<",
"<<<<<<<<<<<<<<<<<<<<<<<<<<<<<<<<<<<<<<<<<<<<<<<<<<<<<<<<<<<<<<<<<",
"<<<<<<<<<<<<<<<<<<<<<<<<<<<<<<<<<<<<<<<<<<<<<<<<<<<<<<<<<<<<<<<<<",
"<<<<<<<<<<<<<<<<<<<<<<<<<<<<<<<<<<<<<<<<<<<<<<<<<<<<<<<<<<<<<<<<<",
"<<<<<<<<<<<<<<<<<<<<<<<<<<<<<<<<<<<<<<<<<<<<<<<<<<<<<<<<<<<<<<<<<",
"<<<<<<<<<<<<<<<<<<<<<<<<<<<<<<<<<<<<<<<<<<<<<<<<<<<<<<<<<<<<<<<<<",
"<<<<<<<<<<<<<<<<<<<<<<<<<<<<<<<<<<<<<<<<<<<<<<<<<<<<<<<<<<<<<<<<<",
"<<<<<<<<<<<<<<<<+##$&&*********************&$###+<<<<<<<<<<<<<<<<",
"<<<<<<<<<<<<<<<X@$&&**;;;:::;::>>>::::;:;;***&##@ <<<<<<<<<<<<<<<",
"<<<<<<<<<<<<<<<XXo+#@@$&*;::>:>>,>>::>;**&#+@+oXX <<<<<<<<<<<<<<<",
"<<<<<<<<<<<<<<<< Xo++@#$&;;&*;;::;;****:;$#@+oXX <<<<<<<<<<<<<<<<",
"<<<<<<<<<<<<<<<<<   Xo++@##@#$&**&&#$#$$#+ooX   <<<<<<<<<<<<<<<<<",
"<<<<<<<<<<<<<<<<<< XoXXXXoooo++++++++ooooXXXoX <<<<<<<<<<<<<<<<<<",
"<<<<<<<<<<<<<<<<<< ooXo+++++++@###@@+++++ooX+oX<<<<<<<<<<<<<<<<<<",
"<<<<<<<<<<<<<<<<<<< XXoooo+@##%%*%###@+++XXXXX<<<<<<<<<<<<<<<<<<<",
"<<<<<<<<<<<<<<<<<<<<   Xoooo++@#%#@++ooooX   <<<<<<<<<<<<<<<<<<<<",
"<<<<<<<<<<<<<<<<<<<<<XXXXooo+o+++++o+oooXXXX<<<<<<<<<<<<<<<<<<<<<",
"<<<<<<<<<<<<<<<<<<<<oo+X+%**#+#*;*#+#**%+X+oo<<<<<<<<<<<<<<<<<<<<",
"<<<<<<<<<<<<<<<<<<<<o++o#;&$&#&;:;&#&$&*#o++o<<<<<<<<<<<<<<<<<<<<",
"<<<<<<<<<<<<<<<<<<<<o@++##@&*$*$&$*$*&@##++@o<<<<<<<<<<<<<<<<<<<<",
"<<<<<<<<<<<<<<<<<<<<XX+#+%&;##;&#&;##;&$+#+XX<<<<<<<<<<<<<<<<<<<<",
"<<<<<<<<<<<<<<<<<<<<o++X*oX+&*o+;+o*&+Xo*X++o<<<<<<<<<<<<<<<<<<<<",
"<<<<<<<<<<<<<<<<<<<<oXo#o%#-$-;*+*;-$-#$o#oXo<<<<<<<<<<<<<<<<<<<<",
"<<<<<<<<<<<<<<<<<<<<<XXo@#++#+o$*$o+#++##oXX<<<<<<<<<<<<<<<<<<<<<",
"<<<<<<<<<<<<<<<<<<<<XXo++oXXXX+$&$+XXo+@@++oX<<<<<<<<<<<<<<<<<<<<",
"<<<<<<<<<<<<<<<<<<<<XXo XO@%-=;;:;;;;*%@+ooXX<<<<<<<<<<<<<<<<<<<<",
"<<<<<<<<<<<<<<<<<<<<XXX   Xo=;:>,>:-*#@@+ooXX<<<<<<<<<<<<<<<<<<<<",
"<<<<<<<<<<<<<<<<<<<<XX .   @%=*;:;%#@*##@ooXX<<<<<<<<<<<<<<<<<<<<",
"<<<<<<<<<<<<<<<<<<<<XXX+o @%%%$*;-#o@###@oXXX<<<<<<<<<<<<<<<<<<<<",
"<<<<<<<<<<<<<<<<<<<<XXXo+@#>;#%-;*%@@++++oXXX<<<<<<<<<<<<<<<<<<<<",
"<<<<<<<<<<<<<<<<<<<<XXXXo#:;;@#&=-#@*#ooo XXX<<<<<<<<<<<<<<<<<<<<",
"<<<<<<<<<<<<<<<<<<<<XXXX+%;*%@+$&*+ooXXX ooXX<<<<<<<<<<<<<<<<<<<<",
"<<<<<<<<<<<<<<<<<<<<XXo@%+@#@@+*;%%@oX  XoXX <<<<<<<<<<<<<<<<<<<<",
"<<<<<<<<<<<<<<<<<<<<XXo++@+++#%-*%#%@+X  +oXX<<<<<<<<<<<<<<<<<<<<",
"<<<<<<<<<<<<<<<<<<<XooX ++@+@$&*;-;*@%+oo++ooX<<<<<<<<<<<<<<<<<<<",
"<<<<<<<<<<<<<<<<<<<X+++++#@+#**;;;;%@;%@%@@@+o<<<<<<<<<<<<<<<<<<<",
"<<<<<<<<<<<<<<<<<<<Xo+##%**+%;;:>:;;%;;*;%#+oX<<<<<<<<<<<<<<<<<<<",
"<<<<<<<<<<<<<<<<<<XooXX+@%#*:::>,>::::;#%+oXooo<<<<<<<<<<<<<<<<<<",
"<<<<<<<<<<<<<<<<<Xoo+XXoo+o@@#%*;*;%%%#+oooo++oo<<<<<<<<<<<<<<<<<",
"<<<<<<<<<<<<<<<<<oo@@#++#@oXo+#%@@@o++@+##+#@@oo<<<<<<<<<<<<<<<<<",
"<<<<<<<<<<<<<<<<<X++#+@*;;%#@#*:>:*%%*%;;*@+#++X<<<<<<<<<<<<<<<<<",
"<<<<<<<<<<<<<<<<<X +#+%#*%#;#%;;:;;%#;#%*#%+#+ X<<<<<<<<<<<<<<<<<",
"<<<<<<<<<<<<<<<<<o+# @#@#*;#+#;*#*;#+#;*#@#@ #+o<<<<<<<<<<<<<<<<<",
"<<<<<<<<<<<<<<<<<ooX*+o#+X+*+%o+;+o*+*+X+#o+*Xoo<<<<<<<<<<<<<<<<<",
"<<<<<<<<<<<<<<<<<<o+o@#o%#*;#;*;+;*;#;*#%o#@o+o<<<<<<<<<<<<<<<<<<",
"<<<<<<<<<<<<<<<<<<<+oXo@#++#o+o%*%o+o#++##+Xo+<<<<<<<<<<<<<<<<<<<",
"<<<<<<<<<<<<<<<<<<<<<<o@@+X  Xo@@@o   X+@@o<<<<<<<<<<<<<<<<<<<<<<"
};
