/* XPM */
static char *result[] = {
/* columns rows colors chars-per-pixel */
"62 62 42 1 ",
"  c black",
". c #202020",
"X c #2C2C2C",
"o c gray22",
"O c #404000",
"+ c #585400",
"@ c #706C00",
"# c #004040",
"$ c #005858",
"% c #006C6C",
"& c #007070",
"* c #007474",
"= c #007878",
"- c #007C7C",
"; c #484848",
": c gray33",
"> c #646464",
", c gray44",
"< c #7C7C7C",
"1 c #848400",
"2 c #9C9C00",
"3 c #B4AC00",
"4 c #CCC400",
"5 c #E4D800",
"6 c #FCF400",
"7 c #008484",
"8 c #008C8C",
"9 c #009898",
"0 c #00A4A4",
"q c #20B0B0",
"w c #20B4B4",
"e c #48C0C0",
"r c #74C8C8",
"t c gray55",
"y c #989898",
"u c gray66",
"i c #B4B4B4",
"p c #9CDCDC",
"a c #B8E8E8",
"s c #C0C0C0",
"d c #D0D0D0",
"f c #D8F4F4",
/* pixels */
"-=============================================================",
"q998*&q88888*&q98888*&q88888*&q88888*&q88888*&q88888*&q888888=",
"qqqq-#&qqqqq-#&qqqqq-#&qqqqq-#&wweeq-#&eeeqq-#&qqqqq-#&q98898=",
"qqqq=-8qqqqq=-8qqqqq=-8qqqqq=-8werpq=-8eeqqq=-8qqqqq=-8988898=",
"qqqq7$$$$$$$$$$$$$$$$$$$$$$$$$$$$$$$$$$$$$$$$$$$$$$$$$$$$8998=",
"qqqqq-=&&&&&&&&&&&&&&&&&&&&&&&&&&&&&&&&&&&&&&&&&&&&&&&&&$8998=",
"97aqpq8888888888888888888888888888888888888888888888888&$97a8=",
"-&7qae00000000000000000qqqqwwwwwewewewewwwwqqq000009998&$-&78=",
"=-8qar000000000000000qqqqqwwwwwewewewewwwwqqq0000099998&$=-88=",
"00qqar0000000000000qqqqqwwwwewewewewewwwwqqq00000909998&$9008=",
"qqqqar00000000000qqqqqwwwwwewewewewewwwwqqq0q0009099888&$9008=",
"qqqqar00000000qqqqqqwwwwewewewewewewwwwqqq0q00090998888&$90q8=",
"qqqqar000000qqqqqqwwwwwewewewewewewwwwqqq0q000909999888&$00q8=",
"qqqqar0000qqqqqqwwwwwwewewewewewewwwwqqq0q0009099998888&$0qq8=",
"97aqar00qqqqqqqwwwwwwewewewewewewwwwqqq0q00090999988888&$97a8=",
"-&7qarqqqqqqqwwwwwewewewewewewewwwwqqqqq000009999888788&$-&78=",
"=-8qarqqqqqwwwwwwewewewewewewewwwwqwqqq0000099998888788&$=-88=",
"00qqarqqqwwwwwwwewewewewewewewwwwqwqqq00000909989887888&$00q8=",
"qqqqarqwwwwwwwwewewewewewewewwwwqwqqq000009099898887888&$0qq8=",
"qqqqarwwwwwwwwewewewewewewewewwqwqqq0000090998988888888&$0qq8=",
"qqqqarwwwwwewewewewewewewewewwqwqqq0q000909999888878888&$qqq8=",
"qqqqarwwwwewewewewewewewewewwqwqqq0q0000099998888788888&$qqq8=",
"97aqarwwwewewewewewewewewewwqwqqq0q00000999989887888898&$97a8=",
"-&7qarwwewewewewewewewewewwqwqqq0q000009999898878888888&$-&78=",
"=-8qarwewewewewewewewewewwqwqqq0q0000099998988787888898&$=-88=",
"00qqarewewewewewewewewewwqwqqqqq00000909989887878888988&$0008=",
"qqqqarweweweweudddddddssqwqqqqq000009099898878788888898&$q008=",
"qqwwareweweweq<>,,<<tyuswqqqqq0000090999988887878888988&$0098=",
"qwwwarwe356eq-X>ou,<:dyiqqqqq00000909999898878788889898&$0978=",
"wwwware=+16w0-X>>>,,<<tiqqqq0q0009099998988787878888998&$08-8=",
"97awar7*O15r8-X>>>>,,<<iqqq0q00000999989887878788889898&$8=e8=",
"-&7waq78O15e8-X>>>>>,,<uqq0q000009999898878787878898998&$-%=8=",
"=-8ea97pO15e8-X:;1446,,uq0q0000099998988887878788889998&$=-88=",
"00err97rO14e8-X;X@  4>,u0q00000909989888878787888898998&$--98=",
"errpw97rO14e8-XoX@  4>>uq000009099898988787878788989998&$-898=",
"rrppq97rO14e8-XXX+XX4>>u0000090999989887878787888899998&$7808=",
"rppaq97eO13e8-XXX++@1>>u0000909999898878787878888989998&$7808=",
"paaaq97eO13e8-XXXXXXX>>y0009099998988787878788889899998&$89q8=",
"rwafq97eO12e8-XXXXXX;>>y0090999989888878787878888999998&$8-p8=",
"q-waq978*O@w8-Xoo;;:>>>y0009999898888787878788889899998&$-&-8=",
"qqraw97==7ww8-Xo.,:>Xt>t0090998988887878787888898999908&$=-88=",
"rrapw9777www8-XXo:::>>>t0909989898878787878888889999998&$7908=",
"fappw978wwwq8-XXXXXXXXX>9099998988787878787888898999908&$8908=",
"apprw99wwwwq8----------90999989888878787878888989999098&$90q8=",
"pprrw9wwwwqq8888888888009999898888787878788889899999908&$90q8=",
"preeeqwwwqqqqqqq0q0000099998988887878787888888989999098&$00q8=",
"97aeawwwqqqqqqq0q00000999989888878787878788889899999908&$97a8=",
"-&7eaewqqqqqqq0q000009999898888787878787888898999999008&$-&78=",
"=-8earqqqqqqq0q0q00090998989887878787878888889899990908&$=-88=",
"00eearqqqqqq0q0q000909989898888787878788888898999999008&$00q8=",
"eeewarqqqqq0q0q0009099998988887878787878888989999990908&$00q8=",
"eewwarqqqq0q0q00090999989888878787878788888898999999008&$00q8=",
"wwwwarqqq0q0q0q0909999898888787878787888888989999990008&$00q8=",
"wwwwarqq0q0q0q00099998988887878787878888889899999909008&$0qq8=",
"97awarqqq0q0q000999989888878887878787888898989999990008&$97a8=",
"-&7warqq0q0q0009999898888888878787878888889899999909000=$-&78=",
"=-8qarrrrrrrrrrrrrrrrrreeewwq0000qweeeeeeeeeeeewwwwwwww-$=-88=",
"00qqaaaaaaaaaaaaaaaaaaapppprreeerrpppppppppppppppprrrre8-00q8=",
"qqqqqqqqqqqqq000099999999877-----78899999900qqqqqqqqqqqqqqqq8=",
"qqqq97aqqqqq97a099999&w9877-=&9--7899&w9990q97aqqqqq97aqqqqq8=",
"qqqq-&7qqqqq-&799999-#&877--&#$-7789-#&9900q-&7qqqqq-&7qqqqq8=",
"qqqq=-8qqqqq=-899999=-8877--&&=77899=-8990qq=-8qqqqq=-8qqqqq8="
};
