/* XPM */
static char *result[] = {
/* columns rows colors chars-per-pixel */
"124 124 15 1 ",
"  c #232323",
". c gray28",
"X c gray39",
"o c gray42",
"O c #6F6F6F",
"+ c #777777",
"@ c #838383",
"# c #939393",
"$ c #A7A7A7",
"% c gray67",
"& c #B7B7B7",
"* c #CBCBCB",
"= c #DFDFDF",
"- c #EFEFEF",
"; c white",
/* pixels */
"+++++++++++++O+O++++++++++++++++++O+++++++++++++++++++++++O++++++++++++++++OOOOOOO+O+++++++OOOOOOO+O++++++O+++++++++++++++++",
"OOOOOOOOOOOOO+OOOOOOOOOOOOOOOOOOOOOOOOOOOOOOOOOOOOOOOOOOOOOOOOOOOOOOOOOOOOO++O++OO++OOOOOOO++O++OO++OOOOOOOOOOOOOOOOOOOOOOOO",
"++++oo####++O+++++++++O++++++O+++++++++O++++++O++++++O+++++++++O++++++O++++++O++++++++O++++++O+++++++++++++++++O+++oo####+++",
"O+O..+#&&&#++OO+O+O++OO++OO+++O+O+++O+++O+O+++O+++O+++O+++++++++++++++++++++++++++++++++++++++++++++++++O+++O+++OO..+#&&&#+O",
"+++  X#=;=o++++++++++++++++++++++++++++++++++++++++++++++++++++++++++++++++++++++++++++++++++++++++++++++++++++++X  X#=;=o++",
"+++  .+$*$X++++++++++++++++++++++++++++++++++++++++++++++++++++++++++++++++++++++++++++++++++++++++++++++++++++++.  .+$*$X++",
"+++   .++o.++++++++++++++++++++++++++++++++++++++++++++++++++++++++++++++++++++++++++++++++++++++++++++++++++++++.   .++o.++",
"+++.     .X++++++++++++++++++++++++++++++++++++++++++++++++++++++++++++++++++++++++++++++++++++++++++++++++++++++..     .X++",
"+++..   .X+++++++++++++++++++++++++++++++++++++++++++++++++++++++++++++++++++++++++++++++++++++++++++++++++++++++X..   .X+++",
"+++o....X+++++++++++++++++++++++++++++++++++++++++++++++++++++++++++++++++++++++++++++++++++++++++++++++++++++++++o....X++++",
"+++++#+o+#+#+++++++++++++++++++++++#+++#+++#+++#+#+++#+++#+#+###+++#+###+##+++++++#++++++#++#+++++#++++++#++#++#++++#+o+#+#+",
"+++++++++++++#++++++++++++++++++++++++++++++++++++++++++++++++++++++++++++++++#+++#++##++#++#+++++#++##++#++#+++++++++++++++",
"#++#####+###+++++#####+#######################+#######################+################################################+####",
"+###++##+##+#+@+OOOO+OO++OOOOO++OOOOO++OOOOO+OO++OOOOO++OOOOO++OOOOO+OO++OOO++OO++O++O+++O++OO+#+#+##+###+##++##++#++##+##++",
"+++##########++oo                                                                                            .o#############",
"########$####+o$...............................................................................................########$####",
"####$$$#$#$###*%$@@@@@@@@@@@@@@@@@@@@@@@@@@@@@@@@@@@@@@@@@@@@@@@@@@@@@@@@@@@@@@@@@@@@@@@@@@@@@@@@@@@@@@@@@@@O. $$$#$$$#$#$##",
"$##$$#$#####$$-*%$#########$######$######$#########$######$######$###########$$$$$#$$$$$$#$$$$$$$$$#$$$$$#$$@. $$$$$#$######",
"##$$oo####$$$#-=%$$$$$$$$$$$$$$$$$$$$$$$$$$$$$$$$$$$$$$$$$$$$$$$$$$$$$$$$$$#$$##$$#$$##$$#$$##$##$$#$$#$$#$$@. ###$oo+###$$$",
"#$$..+#&&&##$#-=%#####$#######################$#######################$$#####################$$#$$$###$#####@. #$$X.+#&&&###",
"$$#  X#=;=o$#$-=%#$$#$$$#$$#$$$#$$$$$#$$$#$$$$$$$$$$$$$$$$$$$$$$$$$$$$$$$$$$##$$##$##$$##$##$#$$$##&$#$$#$##@. $$o  X#=;=o$$",
"$$#  .+$*$X$#$-=%#############$$$#$#$###$#$$$$$$$$$$$$$$$$$$$$$$$$$$$$$$$$$$$$$$$$$$$$$$$$$$$$$$$$$&$$$$$$$$@. $@o  .+$*$X$$",
"$$$   .++o.$$$-=%$$$$$$$$$$$$$$&$$$&$$$$$$$$$&$&$&&&$$$&$&$&$&$$$&$$$&$&&&&$$$$$&$$$&$$&$$$$$$&$$$$$$&$$&$$$@. $@o   .++o.$&",
"$&$.     .o$$$-=&$$$$$$$$$$$$$$$$$$$$$$$$$$$$$$$$$$$$$$$$$$$$$$$$$$$$$$$$$$$$$$$&$$$&$$&$$&&$$&$$&&$$&$$&$$&@. $$@.     .o$$",
"$$$o.   .o&&$$-=&&&&&&&&&&&&&&&&&&$&&&&&&&&&&&&&&&&&&&&&&&$&&&&&&&&&&&&&&&&&&&&&&&&&&&&&&&&&&&&&&&&&&&&&&&&&#. &&@o.   .o&&&",
"&$$@oooo@&$$$&-=&$&&$$&$$&&$$&$$&&$&&$$&$$&&$$&$$&&$$&$$&&$&&$$&$$&&$$&$$&&&&$&&$$&&$&&&&&$&&&$&&&&&&&&&$$&&#. &&%@oooo@&$$&",
"&$$%@@@%&&&&$&-=&&&&&&&&&&&&&&&&&&&&&&&&&&&&&&&&&&&&&&&&&&&&&&&&&&&&&&&&&&&&&$&&&&&&&&&&&&&&&&$&&&&&&&&&&&&*$. &&&%@@@%&&&&&",
"&&&&&&&&&&&&&&-=&&$&&$$&&$$&&&$&$&&&$&&&$&$&*&$&*&$&&&$&&&*&&&&&&&&&*&&&*&&&&&&&&&&&&&&&&&&&&&&&&&&&&&&&&&&&$. &&&&&&&&&&&&&",
"&&&**&***&**&&-=&&&&&&&&&&&&&&&&&&&&&&&&&&&&***&*&*&*&*&*&*&*&&&*&*&*******&&**&**&**&***&**&***&**&***&**&*$. *&&**&***&**&",
"*&*&&&&&&&&&*&-=&&&&&&*&&&&&&*&&&&&&&&&*&&&&&&*&&&&&&*&&&&&&&&&*&&&&&&*&&&&&&&&&&&&&&&&&&&&&&&&&&&&&&&&&&&&&#. &&&&&&&&&&&&&",
"*&&*&**&**&&&*-=&&**&&*&&**&&*&&**&**&&*&&**&&*&&**&&*&&**&**&&*&&**&&*&&****&**&&*&&**&**&&**&**&&**&**&&*&#. &***&**&**&&*",
"*******&&&**&*-=*&&&&&&&&&&&&&&&&&&&&&&&&&&&&&&&&&&&&&&&&&&&&&&&&&&&&&&&&&&&&&&&&&*&&&&&&&&&&&***&&**&&&****$. *******&&&***",
"&&&***&****&&*-=**&&**&**&&**&*********&***********************************&&*&&*&&&*&&*&&**&**&***&&****&**$. ******&****&*",
"&************&--*&&&&&&&&&&&&&*&***&*&*&*&******************************************************************$. *************",
"****$o####****--********************************************************************************************$. ****$o###$***",
"***$.+#&&+#***--=*******************************************************************************************$. ***$.+#&&+#**",
"***  X#=;=o=**-;=******************************************************************************=***===**==**%. **$  X#=;=o=*",
"***  .+$*$X***-;=**************=*****=***=***=*=***=***=**=**==**=**==*==************************==**=*****=*. ==#  .+$*$X**",
"***   .++o.=**-;=************=***=*=*===*=*=***===*=*=**===================*======*======*=========*======*=*. ==#   .++o.=*",
"===.     .@==*-;=**=**=**=***=**=***=**=***=**=**=***=**=***=**=***=**=**=*==*==*===*==*===*=====*===*======*. ==#.     .@==",
"=**#.   .+--*=;;-============================================================*==*===*==*===*===-=*=-=*======*. ==&#.   .+---",
"===&####$=====;;-=*********=**===*=*=***===========-======-======-==========================================*. ===&####$====",
"====&&&=--=-==;;-==============-=============-=-===-===-==-==--==-==--=--===--==--=--==--=--==-==--=--==--=-=. ---=&&&=--=--",
"=--===--==---=;;-=============================================================================-===========--=. ---===--==---",
"===;------;-==;;-=--=---=--=--==--=--==--=---------=---=--------------------==--==-==--==-==-===-==-==--=--==. ===;------;--",
"--==-===-====-;;-=========================-=---=-=-=-=------------------------------------------------------=. ---;------;--",
";;---;;--;--;;;;;----------------------------;-;-;;;---;-;-;-;--;;--;;-;;;;;;;;;;;;;;;;;;;;;;;;;;;;;;;;;;;;;;. ;;;;;;;;;;;;;",
";;;;;;;;;-;;;;;;;;--;;-;;--;;-;;-;;;-;;-;;--;;-;;--;;-;;-;;;-;;-;;--;;-;;----;--;---;--;--;;--;--;;--;--;-;;;. ;;;--;;;;-;;;",
";--;;;;;;;;;--;;;;;;;;;;;;;;;;;;;;-;;;;;;;;;;;;;;;;;;;;;;;;;;;;;;;;;;;;;;;;;;;;;;;;;;;;;;;;;;;;;;;;;;;;;;;;;;. ;;;;;;;;;;;;;",
";;;;;;;;;;;;;;;;;-;;--;--;;--;--;;-;;--;--;;;-;-;;;-;;;-;;;;;;;;;;;;;;;;;;;;;;;;;;;;;;;;;;;;;;;;;;;;;;;;;;;;;. ;;;;;;;;;;;;;",
";;;;*o####;;;;;;;;;;;;;;;;;;;;;;;;;;;;;;;;;;;;;;;;;;;;;;;;;;;;;;;;;;;;;;;;;;;;;;;;;;;;;;;;;;;;;;;;;;;;;;;;;;;. ;;;;*o####;;;",
";;;$.+#&&&&;;;;;;;;;;;;;;;;;;;;;;;;;;;;;;;;;;;;;;;;;;;;;;;;;;;;;;;;;;;;;;;;;;;;;;;;;;;;;;;;;;;;;;;;;;;;;;;;;;. ;;;#.+#&&&&;;",
";;;  X#=;=o;;;;;;;;;;;;;;;;;;;;;;;;;;;;;;;;;;;;;;;;;;;;;;;;;;;;;;;;;;;;;;;;;;;;;;;;;;;;;;;;;;;;;;;;;;;;;;;;;-. ;;;  X#=;=o;;",
";;;  .+$*$X;;;;;;;;;;;;;;;;;;;;;;;;;;;;;;;;;;;;;;;;;;;;;;;;;;;;;;;;;;;;;;;;;;;;;;;;;;;;;;;;;;;;;;;;;;;;;;;;;;. ;;=  .+$*$X;;",
";;;   .++o.;;;;;;;;;;;;;;;;;;;;;;;;;;;;;;;;;;;;;;;;;;;;;;;;;;;;;;;;;;;;;;;;;;;;;;;;;;;;;;;;;;;;;;;;;;;;;;;;;-. ;;*   .++o.;;",
";;;.     .$;;;;;;;;;;;;;;;;;;;;;;;;;;;;;;;;;;;;;;;;;;;;;;;;;;;;;;;;;;;;;;;;;;;;;;;;;;;;;;;;;;;;;;;;;;;;;;;;;;. ;;&.     .$;;",
";;;$.   .#;;;;;;;;;;;;;;;;;;;;;;;;;;;;;;;;;;;;;;;;;;;;;;;;;;;;;;;;;;;;;;;;;;;;;;;;;;;;;;;;;;;;;;;;;;;;;;;;;;;. ;;*$.   .#;;;",
";;;=$#$$*=;;;;;;;;;;;;;;;;;;;;;;;;;;;;;;;;;;;;;;;;;;;;;;;;;;;;;;;;;;;;;;;;;;;;;;;;;;;;;;;;;;;;;;;;;;;;;;;;;;;. ;;-=$#$$*=;;;",
";;;-****=;;;;;;;;;;;;;;;;;;;;;;;;;;;;;;;;;;;;;;;;;;;;;;;;;;;;;;;;;;;;;;;;;;;;;;;;;;;;;;;;;;;;;;;;;;;;;;;;;;;;. ;;;-****=;;;;",
";;;;;;;;;;;;;;;;;;;;;;;;;;;;;;;;;;;;;;;;;;;;;;;;;;;;;;;;;;;;;;;;;;;;;;;;;;;;;;;;;;;;;;;;;;;;;;;;;;;;;;;;;;;;-. ;;;;;;;;;;;;;",
";;;;;;;;;;;;;;;;;;;;;;;;;;;;;;;;;;;;;;;;;;;;;;;;;;;;;;;;;;;;;;;;;;;;;;;;;;;;;;;;;;;;;;;;;;;;;;;;;;;;;;;;;;;;-. ;;;;;;;;;;;;;",
";;;-;;;;;--;;;;;;;;;;;;;;;;;;;;;;;;;;;;;;;;;;;;;;;;;;;;;;;;;;;;;;;;;;;;;;;;;;;;;;;;;;;;;;;;;;;;;;;;;;;;;;;;;;. ;;;-;;;;;--;;",
";;;-;;;;;;;;;;;;;;;;;;;;;;;;;;;;;;;;;;;;;;;;;;;;;;;;;;;;;;;;;;;;;;;;;;;;;;;;;;;;;;;;;;;;;;;;;;;;;;;;;;;;;;;;;. ;;;-;;;;;;;;;",
";;;;;-;;-;;-;;;;;;;-;;;-;-;-;;;;;;;;;;;;;;;;-;;;-;-;-;-;;;--;--;---;--;--;---;--;---;-;-;;;-;;-;;--;;-;;-;;;;. -;;;;-;;-;;--",
";--;;---------;;;;;;;;;;;;;;;;;;;;;;;;;;;;;;;;;;;;;;;;;;;;;;;;;;;;;;;;;;;;;;;;;;;;;;;;;-;;;-;--;;--;;--;-;--=. ---;;---;;---",
";;;=--==-===--;;;-----------------;------------------------------------------------------------------------==. ====--==-====",
"-;;=#o####=---;;;--;-=-;-=-=--;;--;---;-----;-=-;-=-=-;-=--==--==-==--=--==-==--==-==-----------------------=. ---=#o####=--",
"---@.+#&&&#=--;;;--=-=-===-=----------------=-=-===-===---==================================================*. ===+.+#&&&#==",
"===  X#=;=o===;;---=---=--=---==--=--==--=--=---=--=--==--=--==--=--=---=--=--==--=--=-==-==--==-==-==--====*. ===  X#=;=o==",
"---  .+$*$X*=-;;-========================================================================-======-==-========*. ==%  .+$*$X*=",
"===   .++o.===;;----===---=--=--=---=--=-----===---=-=-=====*===-===-=*======*==*===*=======================*. ==%   .++o.==",
"==-.     .+*==;;-===========================================*=====*===*==**==*==*===*=*=***=**=**==**=**=****. =*%.     .+**",
"*==%.   .+=*=*;;-=================*=======================*=======================*======================**=%. ==%%.   .+***",
"===%@@oo@=**==;;-==**=***=***=**==*==**=**==**=***=*****=***=*****=***=***************=**=**==*==**==*==****%. ***%@@oo@****",
"=***%%%*******;;-===*=*===*==================*=*===*=*=***=***=*=***=*=*************************************$. ****%%%******",
"=*=***********;;=*******************************************************************************************$. *************",
"**=***********;-=*******************************************************************************************$. *************",
"**************;-=*******************************************************************************************$. *************",
"**************--=*****************************************&***&*&***&**&&**&&*&&**&&*&**********************$. *************",
"***&&&&&&&&&**-=******************************************&*&&&*&&&***&&&&&&&&&&&&&&&&&&&&&&&&&&&&&&&&&&&&&&#. &&&&&&&&&&&&&",
"&&&**&&*&&**&&-=*&&**&**&&***&**&***&**&**&&**&**&&**&**&***&**&**&&**&**&&**&**&&**&*&*&&**&&*&&**&&*&&**&&$. &&&**&&*&&**&",
"&**&&&&*&&&&**-=*&&&&&&&&&&&&&&&&&&&&&&&&&&&&&&&&&&&&&&&&&&&&&&&&&&&&&&&&&&&&&&&&&&&&&&*&&&&&&*&&&&&&*&&&&&&$. &&&&&&&*&&&&&",
"&&&$+o####**&&-=***&***&**&*******&******&**&***&**&******&******&**&***&**&***&**&**********&***&&&*&&&***&$. ***&oo####***",
"**&X.+#&&&#$&*-=*&*&*&*&*&&&**&&&*&*&&&*&&&*&*&*&*&&&*&&&&&&&&&&&&&&&&&&&&&&&&&&&&&&&&*&&*&&*&&&*&&&&&&&&$*&$. &**X.+#&&&#$*",
"&&&  X#=;=o&&&-=*&&&*&*&&&*&******&***&&&*&&&*&*&&&*&&&*&&&&&&&&&&&&&&&&&&&&&$&&&&&&&&&&&&&&&&&&&&&&&&&&&&&&#. &&&  X#=;=o&&",
"&&&  .+$*$X&&&-=*&&&&&&&$&&&&&&&&&&&&&&&&&&&&&&&&$&&&$&&&$&$&&&$&&&$&&&&&$$&&$&&&$&$$&$&&$&&$$&$$&&$$&$$&&&&@. $$@  .+$*$X&&",
"&$$   .++o.&&$-=&&&&&&&&&&&&&&&&&&&&&&&&&&&&&&&&&&&&&&&&&&&&&&&&&&&&&&&&&&&&&&&&&&&&&&&&&$&&&&&&&&&&&&&&&$&&@. &&@   .++o.&&",
"&&&.     ..&&&-=%$&$$&$$&$$$$&$$&$$$&$$&$$$&$$&$$&$$$&$$&$$$&$$&$$$&$$&$$&&$$&$$&$$$$$$$$$$$$$$$$$$$$$$$$$$$@. $$@.     .+&$",
"&$$o.   ..$&$$-=%$&$$&$$&$$$$&$$&$$$&$$&$$$&$$&$$&$$$&$$&$$$&$$&$$$&$$&$$$$$$&$$&$$$$$&$&&&$$$$&$$$&&$$$&&&$@. &$@o.   .X$&$",
"&&&@oooo@$$$$&-=%$$$$$$$$$$$$$$$$$&$$$$$$$$$$$$$$$$$$$$$$$$$$$$$$$$$$$$$$$$$$$$$$$$$$$$$$$$$$$$$$$$$$$$$$$$$@. $$$@oooo@$$$$",
"$$$$@@@@$$&$$$-=%$$&$$$&$$$$$$&$$$&$$$&$$$$$&$$$&$$$$$&$$$$$#$$$#$#$&$##$##$##$$##$##$$$$$$$$$$$$$$$$$$$$$$$@. $$$$@@@@$$&$$",
"$$&###$$$$$$$$-=%$$$$$$$$$$$$$$$$$$$$$$$$$$$$$$$$$$$$$$$$$#$$$###$$$#$###################$###############$##@. ######$$$$$$$",
"###$$$#$$$#$##-=%$$#$$$#$$#$$$##$$#$$##$$#$$#$$$#$$#$$##$$#$$##$$#$$##$$#$$#$$##$$#$$#$$$$$$$$$$$$$$$#$$$$$$@. $$$$$$#$$$#$$",
"$$$#$$#$$$#$#$-=%$$#$$$#$$#$$$$$$$#$$$$$$#$$#$$$#$$#$$$$$$#$$$$$$#$$$$$$#$$#$$$$$$#$$####$######$##$$####$##@. #$$#$$#$$$#$$",
"$##$$$$$#$$$##-=%$$$$#$$$$$$$#$$#$$$#$$#$$$$$$#$$$$$$#$$#$$$#$$#$$$#$$#$$$$$$#$$#$$$##$$$$$$$$$#$$$$##$$$$$$@. #$$$$$$$#$$$$",
"$$$$###$#$##$$-=%###$#$###$#$#$$#$#$#$###$###$#$###$###$###############################$###$##$########$###$@. ###$###$#$###",
"$####$$$#$$$##-=$#$$$#$$$###$$$$#$#$###$###$$$#$$$###$$$#########+################+###############+#########@. $####$$$#$$$#",
"#######+######-=$###+########################+###############+###+###+#+###+##++##+##+#++#++##++##+##+#++#+++. #######+#####",
"####oo######++-=$###########################################################################################+. ####oo#######",
"##+X.+#&&&#+##-=$++#+++#++#+++##++#++#+++#++#+++#++#+++#++#++##++#++#+++#++#+++#++#++#+++++++++#++#++#++++++O. +++..+#&&&#++",
"+++  X#=;=o+#+-=$++#+++#++#+++++++#++#+++#++#+++#++#+++#++#++++++#++#+++#++#+++#++#++####+##+++#++#++####+#+O. +++  X#=;=o++",
"++X  .+$*$X+##-=$++++#+++++++#++#+++++++++++++#+++++++++++++#+++++++++++++++++++++++++++++++++++++++++++++++O. +++  .+$*$X++",
"++X   .++o.+++-=$#+++#+++#+++#++#+++#+++++#+++#+++#+++++#+++#++++++++++++++++++++++++++++++++++++++++++++++++. +++   .++o.+#",
"+++.     ..+++-=$+++++++++++++++++++++++++++++++++++++++++++++++++++++++++++++++++++++++++++++++++++++++++++O. +++.     ..++",
"+++o.   ..++++-=$+++++++++++++++++++++++++++++++++++++++++++++++++++++++++++++++++++++++++++++++++++++++++++O. +++o.   ..+++",
"++++oo..o+++++-=$+++++++++++++++++++++++++++++++++++++++++++++++++++++++++++++++++++++++++++++++++++++++++++O. ++++oo..o++++",
"+++++oo+++++++-=$+++++++++++++++++++++++++++++++++++++++++++++++++++++++++++++++++++++++++++++++++++++++++++O. +++++oo++++++",
"++++++o+++++++-=$++++++++++++++++++++++++++++++++++++++++++++++++++++++++++++++++++++++++++++++++++++++++++++. ++++++o++++++",
"++++++++++++++--$@@@@@@@@@@@@@@@@@@@@@@@@@@@@@@@@@@@@@@@@@@@@@@@@@@@@@@@@@@@@@@@@@@@@@@@@@@@@@@@@@@@@@@@@@@@+..+++++++++++++",
"+++++++++++O++#=;-**%%%%%%%%%%%%%%%%%%%%%%%%%%%%%%%%%%%%%%%%%%%%%%%%%%%%%%%%%%%%%%%%%%%%%%%%%%%%%%%%%%%%%%%%@.X+++++++++++O+",
"OOOOOOOOOOOOOOO#&*--****************************************************************************************@XOOOOOOOOOOOOOO",
"OO+O++OO+OO+++OO++OO++O+++OOO+OO+OOO+OO+OO++OO+OO++OO+OO+OOO+OO+OOO+OO+OO++OO+OOOOO+OO+OO++OO+OO++OOO+OO+OOO+OO+OOO++OO+OO++",
"OO+OOOOO+OOOOOOOOOOOOOOOO+OOO+OO+OOO+OO+OOOOOO+OOOOOO+OO+OOO+OO+OOO+OO+OOOOOO+O+OOO+OO+OOOOOO+OOO+OOO+OO+OOO+OO+OOOOOOO+OOOO",
"OOOOOO+OOO+OOO+O+O++OOO++OO+OOOOOO+OOOOOOOOO+OOO+OOOOOOOOOOOOOOOOOOOOOOOOOOOOOOOOOOOOOOOOOOOOOO++OO+OOOOOO+OOOOOOOOOO+OOO+OO",
"+OOOoo####+OOO+O+OOOOOOOOOO+OO+OOO+OOO+OOOOO+OOO+OOOOO+OOOOOXOOOXOXO+OXXOXXOXOOOXOXO+OXXOXXOXOOOOOO+OO+OOO+OOO+OOOOoX####+OO",
"OOO..+#&&&#OOOOOOOOOOOOOOOOOOOOOOOOOOOOOOOOOOOOOOOOOOOOOOOOOOOOOOOOOOOOOOOOOOOOOOOOOOOOOOOOOOOOOOOOOOOOOOOOOOOOOOOX.+#&&&#OO",
"XXO  X#=;=oOOOXXXOOXOXXOOOOXOOXXOOXOOXXOOXOOXXOXXOOXOOXXOOXOOXXOOXOOXXOOXOOOOXXOOXOOXXOOXOOXOXXOOOOXOOXXOOXOOXXOOO  X#=;=oOO",
"OOO  .+$*$XOOOOOOOOXOOOOOOOXOOOOOOXOOOOOOXOOOOOOOOOXOOOOOOXOOOOOOXOOOOOOXOXOOOOOOXOOOOOOXOOXOOOOOOOXOOOOOOXOOOOOO.  .+$*$XOO",
"OOO   .++o.OOOOOOOOOOXOXXOOOOOOOOOOOOOOOOOOOOOOOOOOOOOOOOOOOOOOOOOOOOOOOOOOOOOOOOOOOOOOOOOOOOXOXXOOOOOOOOOOOOOOOO.   .++o.OO",
"OOO.     ..OOOOOOOOOOOOOOOOOOOOOOOOOOOOOOOOOOOOOOOOOOOOOOOOOOOOOOOOOOOOOOOOOOOOOOOOOOOOOOOOOOOOOOOOOOOOOOOOOOOOOO..     ..OO",
"XXX..   ..XXXXXXXXXOXXXXXXXOXXXXXXOXXXXXXOXXXXXXXXXOXXXXXXOXXXXXXOXXXXXXXXOXXXXXXOXXXXXXXXXOXXXXXXXOXXXXXXOXXXXXXX..   ..XXX",
"OOOO.....OOOOOOOOOOOOOOOOOOOOOOOOOOOOOOOOOOOOOOOOOOOOOOOOOOOOOOOOOOOOOOOOOOOOOOOOOOOOOOOOOOOOOOOOOOOOOOOOOOOOOOOOOO.....OOOO",
"XXXXXXOOOOOOXXOOOOOOOOOOOXXXXXXXXXOOOXXOOXXXOOOOOOOOOOOOOOOOOOOOOOOOOOOOOOOOOOOOOOOOOOOOOXXXXXXXXXXXXXXXXXOOOXXOOOXXXOOOOOOO",
"OOOOOOOOOOO+OOOOO++OO+OOOOOOOOOOOOO+OOO+OOOOOOOOO++OO+OOOOO++OO++OOOO+OOOOO++OO++OOOOOOOO+OOOOOOOOOOOOOOOOO+OOO+OOOOOOOOOO++"
};
