/* XPM */
static char *_5b05170497a4874e436ddaad6837d2bOpSn7aqJ5J9Od9Bd[] = {
/* columns rows colors chars-per-pixel */
"58 53 44 1 ",
"  c #000001",
". c #170F07",
"X c #131313",
"o c #17330F",
"O c #232323",
"+ c #2F2F2F",
"@ c #373F27",
"# c #430000",
"$ c #470000",
"% c #4F0000",
"& c #530707",
"* c #5B0000",
"= c #5B0707",
"- c #5F0707",
"; c #670000",
": c #670B0B",
"> c #6B0F0F",
", c #730000",
"< c #7F0000",
"1 c #731313",
"2 c #771717",
"3 c #7F1B1B",
"4 c #3F472B",
"5 c #474F33",
"6 c #53573B",
"7 c #5B6347",
"8 c #676B4F",
"9 c #7B7F63",
"0 c #8B0000",
"q c #9B0000",
"w c #831F1F",
"e c #A70000",
"r c #B30000",
"t c #BF0000",
"y c #8B2323",
"u c #972F2F",
"i c #A33B3B",
"p c #CB0000",
"a c #D70000",
"s c #E30000",
"d c #EF0000",
"f c red",
"g c #9F876F",
"h c black",
/* pixels */
"hhhhhhhhhhhhhhhhhhhh####**#;;;h;hhhhhhhhhhhhhhhhhhhhhhhhhh",
"hhhhhhhhhhhhhh*h<0<;<00q<0e*#%*,;0;##hhhhhhhhhhhhhhhhhhhhh",
"hhhhhhhhhhhh,,qq00;;,;*$#*<,**%*;*<0;##hhhhhhhhhhhhhhhhhhh",
"hhhhhhhhhhh$*,<qee0<0q<,*;,*####$%***#$###hhhhhhhhhhhhhhhh",
"hhhhhhhhh;h#**,;<qqrtreq<00<<<<***%%%*;#$##hhhhhhhhhhhhhhh",
"hhhhhhhh#;*hh%**<qetpptreeettre<qe0,;<<#$*,%#;#hhhhhhhhhhh",
"hhhhhhh#%;#h#$#*<,qtpadstpppeq<<qrtr0,e,%#%$%*###hhhhhhhhh",
"hhhhhh##e;**#h%;<;qepdddftprq,;;;,0qrq00;#%$%<0$%#hhhhhhhh",
"hhhhhhh#;;*##h;q0qeqqtapreeq<,0;**%%<;<q*$%;#;0qq0*hhhhhhh",
"hhhhhh%%%*#;,*;00eq,,qte0<<;*%;e<,,$#;<<;%%,%#,0qe0hhhhhhh",
"hhhhh%%%#%*0<*;;0q<;*qe0<<q<,$##%*;*%$%,;%%<;##,qeq#hhhhhh",
"hhh%%h%h%*<0<*;*<<;$*q0<0eq**<<,*%*00<<#;*#;;h#%<q0%#hhhhh",
"hhhh*%%h%,<<,*$*<;*$*q0<eq*$%****##%000#%%#**#h#;,,%#hhhhh",
"h%%%q;$#,0q0<%%,<;**,<qeq<,,;,,#####%;*;#h#%$$h#%<,*##hhhh",
"hh,%#,;,,rtr0,*<<;,0<,,*,#$#<q<##hh#h##0#$###hh%%%;<%#hhhh",
"hh%%h0<,<rtr0<;0,,<q,*;,###$$%##h#hhhh#%#####hhhh%;0*#hhhh",
"hhh%h;q,<rtq<,;q,,<<,$,$##hh#####h#h#hh#*;%##hhhh%*0,*hhhh",
"hhh%%<0;<ttq*;*q0<<<0*,%#hhh##hhhhh#hhh#;<*%##%h#%%;<*hhhh",
"hhh#%,<;;rtq<;*qe0eeq,,;hhh###hhhhh##hh#,<*;;;#%#%;%,,hhhh",
"h%%%%*;;*qr00;*qeeeeq,<,hhh%0$hhhhh#hh#*0<*;<;<%%,0#*,hhhh",
"hh*%%h$$%;<<;%%<qepte<00#hh#0qq#hhhh#h#,<,;0<<eq;0q####hhh",
"hh%0%hhh#*<<;%%<<qrte00q##h#;,,##hhhhh$<0;,0;qtrqq0#h##hhh",
"hh%0;%#hh%<0<;%<0<qeeq0q*#hh###hhh#hh#*0,;,,;qtrqq,$hh#hhh",
"hhh*;%<#h**,**h;<qq0<<<q,%h#hhhhhhhhh#,<;;;;qqeqq<,*#h##hh",
"%h%h#%;#*,**;$##*<<,;**0q*hh####hhhhh##<;%%,e0,,0;%,$%##hh",
"hh%h##%#*<;%<%#h##%%##$;<,%hhh##hhhhh#;#%%;0e,$*q,#0;#h#hh",
"hhh######0<;#$hhhh#hhhh%#%%;#%*#hhh####;0qepe*#%<<*0,#hhhh",
"h#h##h#h%qq<%$h$hhh##h%**#h;%%,;%###*,,rpdret;$,qe<**###hh",
"h#hh#####<q0;#h$,$#%0h#;,*hhh%<0<%%;qerdape,q*%<er<#$h##hh",
"hh#*##%*%000,%#h******%#;%#hh#*;;<q0e<qqetq,;;<0ee,#hh#;hh",
"hh#%#h*<,q0<*%##$*;;<000;%hhh##%#;;;;;,qq0<;*<<qqq*#hh#;hh",
"#%;%##<000<<,**#%%$;0q0q<%#h#*0;<;;##*,**;**,<<<0<%hh#;<hh",
".##h#;,*<<,<<,*%*#$%<0<;;;<;*%%%%*;,;#####$,,;,0,;#h%$,<hh",
"hh##,0,;0,%*,***h%###*%#%%,<<,,<0<<;;%#;<%%;%,e0,%#h#$;hhh",
"hh##0<;,,%%%**%%h#h########*;<<00,****%#%%%;qre<;#hh#hhhhh",
"hhh,,#%<<%*%%;%hhh#h#######,,;,,;***;*%%%#;<00*%%h%hh#hhhh",
"hhh$$#<qq%##hhhhhh##;,######;;;*%;;,,;**%##0<#%%h#%####hhh",
"hhh##;qq<##hh##hh#h#;0;;###%*;,,;,00,<,%#*<*##hh#%%<$##hhh",
"h##%;;<*##hh##hh#####*%###%**<0qqqrrrq,%,*%#hhh##%,,%hhh#h",
"h;q%;;%#hhhhhh#h####h*,%%#%#%;,0qeerq,%*<<*#####$;,#hhhh#h",
"#0<%;;%h#hhhh#####;%#*,,,,**,,**;,;;*%%,**##*$$#*;*#hhh#hh",
"%;*#;;%hhhhhh#####<;#,000,,,0,%##%##%**%%$$$,%$$;;%#hh###h",
"%;%#*<*#hh#h#####%0,,0qq<*%%%%##%%;%%*%#$,;;<#%;<*;hh#hh#h",
"#%%*#*;*##hhhh$##%*,0000,;%########### X$#%0<%<q,,*h#*.##h",
"##hq;%%##*0rrq<#$h%*<<,;;,;##6#4@oO  ###*0e0,;*;;$#hh%,hhh",
"h#h**%#;;<re<q-###%;,;%#$*,##;>#;2####%*0q0,#$$,;%###;%hhh",
"h#h##$$%;0r<-0r*;*,,;%###%*#=3,3<2%4#%*;00<*$h*,;#h;;,#h#h",
"h,###$-:<2,*,,;*;*;%%##4##$#.&,qqtppe0,<,<<*$$%*$h*<,%h#hh",
"hh*;,&>002,;,;;%%####*###+XXX %-e0wi1330,0<*$###h$,,*#hhhh",
"hh####&;22;,;%;*hhh%,*###87765%#0&#:;uyu3e*##h#hh*%%hhhhhh",
"hhhh#$$%2:*%**;#%%;,<9##9####*<*%#%*;<,;;%*##*#hh##h#hhhhh",
"hhhhh%hhh<,;%##%;*%;%#####g#:;;,;#4%%%:3**#-;#hhhhhhhhhhhh",
"hhhhhhhhhh1hh##%%*%#h6666+OO*:;XX    h*-%%hhhhhhhhhhhhhhhh"
};
