/* XPM */
static char *_5de8f980d794a6cdea3d09ceaab4a4fvFfKgVEjvs3rIJpN[] = {
/* columns rows colors chars-per-pixel */
"58 56 119 2 ",
"   c #000001",
".  c #070707",
"X  c #0B0B0B",
"o  c #170F07",
"O  c #0B1707",
"+  c #1F170B",
"@  c #131313",
"#  c #1B1B1B",
"$  c #13230B",
"%  c #17330F",
"&  c #2B230F",
"*  c #332B13",
"=  c #3F2F17",
"-  c #232323",
";  c #272727",
":  c #2F2F2F",
">  c #373F27",
",  c #373737",
"<  c gray23",
"1  c #430000",
"2  c #470000",
"3  c #4F0000",
"4  c #530707",
"5  c #5B0000",
"6  c #5B0707",
"7  c #5F0707",
"8  c #670000",
"9  c #670B0B",
"0  c #6B0F0F",
"q  c #730000",
"w  c #7F0000",
"e  c #731313",
"r  c #771717",
"t  c #7F1B1B",
"y  c #43331B",
"u  c #4B371B",
"i  c #533F1F",
"p  c #4F3B23",
"a  c #533F2F",
"s  c #1F4317",
"d  c #3F472B",
"f  c #5F4323",
"g  c #474F33",
"h  c #574333",
"j  c #5F4B37",
"k  c #53573B",
"l  c #6B4727",
"z  c #774F2B",
"x  c #7F532F",
"c  c #675333",
"v  c #67533F",
"b  c #434343",
"n  c gray28",
"m  c #4B4B4B",
"M  c gray31",
"N  c gray34",
"B  c #6F5743",
"V  c #775F4B",
"C  c #5B6347",
"Z  c #676B4F",
"A  c #7B634F",
"S  c #6F7357",
"D  c gray39",
"F  c gray42",
"G  c #6F6F6F",
"H  c #7B7F63",
"J  c #777777",
"K  c gray50",
"L  c #8B0000",
"P  c #9B0000",
"I  c #831F1F",
"U  c #A70000",
"Y  c #B30000",
"T  c #BF0000",
"R  c #8B2323",
"E  c #8F2B2B",
"W  c #972F2F",
"Q  c #9B3333",
"!  c #A33B3B",
"~  c #A73F3F",
"^  c #CB0000",
"/  c #D70000",
"(  c #E30000",
")  c #EF0000",
"_  c red",
"`  c #FF1F1F",
"'  c #FF3F3F",
"]  c #AF4300",
"[  c #875733",
"{  c #8F5F37",
"}  c #9B633B",
"|  c #CB5707",
" . c #D75F0B",
".. c #FF7F1B",
"X. c #AF4747",
"o. c #836B57",
"O. c #8F7753",
"+. c #8B735B",
"@. c #937B63",
"#. c #9B7F6B",
"$. c #FF5F5F",
"%. c #FF7B7B",
"&. c #9F8363",
"*. c #9F876F",
"=. c #A78F77",
"-. c #AF977F",
";. c #FFB37B",
":. c black",
">. c #838383",
",. c #939393",
"<. c #979797",
"1. c #B79F87",
"2. c #BFA78F",
"3. c #A7A7A7",
"4. c gray67",
"5. c gray70",
"6. c #B7B7B7",
"7. c gray75",
"8. c gray78",
/* pixels */
":.:.:.:.:.:.:.:.:.:.:.:.:.:.:.:.:.:.:.:.:.:.:.:.:.:.:.:.:.:.:.:.:.:.:.:.:.:.:.:.:.:.:.:.:.:.:.:.:.:.:.:.:.:.:.:.:.:.",
":.:.:.:.:.:.:.:.:.:.:.:.:.:.:.:.:.:.:.:.:.:.:.:.:.:.:.:.:.:.:.:.:.:.:.:.:.:.:.:.:.:.:.:.:.:.:.:.:.:.:.:.:.:.:.:.:.:.",
":.:.:.:.:.:.:.:.:.:.:.:.:.:.:.:.:.:.:.:.:.:.:.:.:.:.:.:.:.:.:.:.:.:.:.:.:.:.:.:.:.:.:.:.:.:.:.:.:.:.:.:.:.:.:.:.:.:.",
":.:.:.:.:.:.:.:.:.:.:.:.:.:.:.:.:.:.:.:.:.:.:.:.:.:.:.:.:.:.:.:.:.:.:.:.:.:.:.:.:.:.:.:.:.:.:.:.:.:.:.:.:.:.:.:.:.:.",
":.:.:.:.:.:.:.:.:.:.:.:.:.:.:.:.:.:.:.:.:.:.:.:.:.:.:.:.:.:.:.:.:.:.:.:.:.:.:.:.:.:.:.:.:.:.:.:.:.:.:.:.:.:.:.:.:.:.",
":.:.:.:.:.:.:.:.:.:.:.:.:.:.:.:.:.:.:.:.:.:.:.:.:.:.:.:.:.:.:.:.:.:.:.:.:.:.:.:.:.:.:.:.:.:.:.:.:.:.:.:.:.:.:.:.:.:.",
":.:.:.:.:.:.:.:.:.:.:.:.:.:.:.:.:.:.:.:.:.:.:.:.:.:.:.:.:.:.:.:.:.:.:.:.:.:.:.:.:.:.:.:.:.:.:.:.:.:.:.:.:.:.:.:.:.:.",
":.:.:.:.:.:.:.:.:.:.:.:.:.:.:.:.:.:.:.:.:.:.:.:.:.:.:.:.:.:.:.:.:.:.:.:.:.:.:.:.:.:.:.:.:.:.:.:.:.:.:.:.:.:.:.:.:.:.",
":.:.:.:.:.:.:.:.:.:.:.:.:.:.:.:.:.:.:.:.:.:.:.:.:.:.:.:.:.:.:.:.:.:.:.:.:.:.:.:.:.:.:.:.:.:.:.:.:.:.:.:.:.:.:.:.:.:.",
":.:.:.:.:.:.:.:.:.:.:.:.:.:.:.:.:.:.:.:.:.:.:.:.:.:.:.:.:.:.:.:.:.:.:.:.:.:.:.:.:.:.:.:.:.:.:.:.:.:.:.:.:.:.:.:.:.:.",
":.:.:.:.:.:.:.:.:.:.:.:.:.:.:.:.:.:.:.:.:.:.:.:.:.:.:.:.:.:.:.:.:.:.:.:.:.:.:.:.:.:.:.:.:.:.:.:.:.:.:.:.:.:.:.:.:.:.",
":.:.:.:.:.:.:.:.:.:.:.:.:.:.:.:.:.:.:.:.:.:.:.:.:.:.:.:.:.:.:.:.:.:.:.:.:.:.:.:.:.:.:.:.:.:.:.:.:.:.:.:.:.:.:.:.:.:.",
":.:.:.:.:.:.:.:.:.:.:.:.:.:.:.:.:.:.:.:.:.:.:.:.:.:.:.:.:.:.:.:.:.:.:.:.:.:.:.:.:.:.:.:.:.:.:.:.:.:.:.:.:.:.:.:.:.:.",
":.:.:.:.:.:.:.:.:.:.:.:.:.:.:.:.:.:.:.:.:.:.:.:.:.:.:.:.:.:.:.:.:.:.:.:.:.:.:.:.:.:.:.:.:.:.:.:.:.:.:.:.:.:.:.:.:.:.",
":.:.:.:.:.:.:.:.:.:.:.:.:.:.:.:.:.:.:.:.:.:.:.:.:.:.:.:.:.:.:.:.:.:.:.:.:.:.:.:.:.:.:.:.:.:.:.:.:.:.:.:.:.:.:.:.:.:.",
":.:.:.:.:.:.:.:.:.:.:.:.:.:.:.:.:.:.:.:.:.:.:.:.:.:.:.:.:.:.:.:.:.:.:.:.:.:.:.:.:.:.:.:.:.:.:.:.:.:.:.:.:.:.:.:.:.:.",
":.:.:.:.:.:.:.:.:.:.:.:.:.:.:.:.:.:.:.:.:.:.:.:.:.:.:.:.:.:.:.:.:.:.:.:.:.:.:.:.:.:.:.:.:.:.:.:.:.:.:.:.:.:.:.:.:.:.",
":.:.:.:.:.:.:.:.:.:.:.:.:.:.:.:.:.:.:.:.:.:.:.:.:.:.:.:.:.:.:.:.:.:.:.:.:.:.:.:.:.:.:.:.:.:.:.:.:.:.:.:.:.:.:.:.:.:.",
":.:.:.:.:.:.:.:.:.:.:.:.:.:.:.:.:.:.:.:.:.:.:.:.:.:.:.:.:.:.:.:.:.:.:.:.:.:.:.:.:.:.:.:.:.:.:.:.:.:.:.:.:.:.:.:.:.:.",
":.:.:.:.:.:.:.:.:.:.:.:.:.:.:.:.:.:.:.:.:.:.:.:.:.:.:.:.:.:.:.:.:.:.:.:.:.:.:.:.:.:.:.:.:.:.:.:.:.:.:.:.:.:.:.:.:.:.",
":.:.:.:.:.:.:.:.:.:.:.:.:.:.:.:.:.:.:.=.H =.H H H H S Z Z C C J J 6.6.:.:.:.:.:.:.:.:.:.:.:.:.:.:.:.:.:.:.:.:.:.:.:.",
":.:.:.:.:.:.:.:.:.:.:.:.:.:.S S =.H H S ! ! Q Q W T T T T T T T T T Y 6.6.<.K S :.:.:.:.:.:.:.:.:.:.:.:.:.:.:.:.:.:.",
":.:.:.:.:.:.:.:.:.:.:.:.:.:.C C > $ E Q ' $.%.X.~ Q Q Q R ) ) / T T I Y Y W E x :.:.:.:.:.:.:.:.:.:.:.:.:.:.:.:.:.:.",
":.:.:.:.:.:.:.:.:.:.:.:.S <.M O w Y ' _ $.%.} A B z x z x R U ) / T P f l p p u = v h : a :.:.:.:.:.:.:.:.:.:.:.:.:.",
":.:.:.:.:.:.:.:.:.:.:.:.5.8.K o.1 Y ^ _ ' %.k k > > h > h f I t ) Y 0 y p > * > # #   @ a :.:.:.:.:.:.:.:.:.:.:.:.:.",
":.:.:.:.:.:.:.:.:.:.:.:.6.<.H +.x 1 T ^ _ $.H S C k k k k h f E t L L y > ; - @   @ # # # :.:.:.:.:.:.:.:.:.:.:.:.:.",
":.:.:.:.:.:.:.:.:.:.:.6.H H =.A I 1 ^ ' $.H H S C Z C Z C v l t t ^ 1 p p d > > - @ @ @ # :.:.:.:.:.:.:.:.:.:.:.:.:.",
":.:.:.:.:.:.:.:.:.:.:.6.H =.*.O.1 P ' ' %.-.*.*.*.*.*.*.+.C v r r ( @ 1 a h g > - % @ @ # :.:.:.:.:.:.:.:.:.:.:.:.:.",
":.:.:.:.:.:.:.:.:.:.:.7.1.-.=.! 1 ^ ' $.%.&.H +.S S S S Z C h 0 0 L U 1 r = - @ @ $   @ # :.:.:.:.:.:.:.:.:.:.:.:.:.",
":.:.:.:.:.:.:.:.:.:.:.3.<.*.@.1 ^ _ $.%.$.H S S C k k C k k g y y 4 q ( 1 w + @ @ @     - # :.:.:.:.:.:.:.:.:.:.:.:.",
":.:.:.:.:.:.:.:.:.:.>.S +.A 1 1 _ $.U d d d d g d : g d : : - : - + 1 5 1 1 1 + @ @ @ @ # :.:.:.:.:.:.:.:.:.:.:.:.:.",
":.:.:.:.:.:.:.:.:.:.>.S Z j 1 ^ _ %.U o.C g > > $ @ > $ @   #   # o o o 4 ..1 4 + @ @ : :.:.:.:.:.:.:.:.:.:.:.:.:.:.",
":.:.:.:.:.:.:.:.:.:.,.Z C 1 1 ^ _ ' $.U S S C t k k t k k k d k d > % 1 > 7 ..1 - @ # , :.:.:.:.:.:.:.:.:.:.:.:.:.:.",
":.:.:.:.:.:.:.:.:.3.Z Z 1 1 _ _ $.U *.H H  ./ R l l R l l a d a d > s 1 : > r ;.4 & # : :.:.:.:.:.:.:.:.:.:.:.:.:.:.",
":.:.:.:.:.:.:.:.:.Z Z 1 1 ^ _ $.R { o.} W ;. ./ R R / R R l d l d = * - : : t ..| 6 - < :.:.:.:.:.:.:.:.:.:.:.:.:.:.",
":.:.:.:.:.:.:.:.Z S O 1 1 R $.' O B { } R ;.^ k ^ k k ^ k g d g d 1 & * p y P  .] 9 * : a :.:.:.:.:.:.:.:.:.:.:.:.:.",
":.:.:.:.:.:.:.:.:.Z G y r 1 E ' ' ( H H S R [ B [ B B [ B C k C k p u p f t ] L @   1 > - # :.:.:.:.:.:.:.:.:.:.:.:.",
":.:.:.:.:.:.:.:.:.:.Z G v o.v j R U ( ( ( f A o.A o.o.A o.S Z S Z C Z C v w R - @   T > d d , :.:.:.:.:.:.:.:.:.:.:.",
":.:.:.:.:.:.:.:.:.:.:.k G 4.#.B U ( ( ( T j C C C C C C C k k k k k h h a w } C k d 4 1 d # , :.:.:.:.:.:.:.:.:.:.:.",
":.:.:.:.:.:.:.:.:.:.:.:.C S o.j R U U U U f C C C C C C C C k k k k k h h E w k d % % 9 +   - +.:.:.:.:.:.:.:.:.:.:.",
":.:.:.:.:.:.:.:.:.:.:.:.:.k o.B f U U O O j C C C C C C C k k k k k h h a E w k d % L q + # , :.:.:.:.:.:.:.:.:.:.:.",
":.:.:.:.:.:.:.:.:.:.:.:.:.J @.C k d O O d d > > : : > : : : - : - - 1 - - = w e @ L 1   - # b +.:.:.:.:.:.:.:.:.:.:.",
":.:.:.:.:.:.:.:.:.:.:.:.>.J @.@.@.#.Z Z d : - : @ @ @ @ @ @ &     # @ # @ o o ) w 4 * # @ # :.:.:.:.:.:.:.:.:.:.:.:.",
":.:.:.:.:.:.:.:.:.:.:.<.J J @.@.@.*.*.#.S S Z C h k k h k k E k k > # # @ X o w / 7 * : , V :.:.:.:.:.:.:.:.:.:.:.:.",
":.:.:.:.:.:.:.:.:.:.<.>.+.*.*.*.@.@.*.#.#.S S Z C k C k X.' ~ f f * - @ + 1 9 / 7 * : b :.:.:.:.:.:.:.:.:.:.:.:.:.:.",
":.:.:.:.:.:.:.:.:.<.>.+.@.*.*.*.*.*.*.*.*.H S S C X.C X.' ' ' W W * - 4 5 T L 6 + # ; , :.:.:.:.:.:.:.:.:.:.:.:.:.:.",
":.:.:.:.:.:.:.:.:.3.>.#.@.@.@.*.*.*.*.*.*.*.H H S Z S Z [ ` ~ f f = = 5 9 9 4 o     @ # , :.:.:.:.:.:.:.:.:.:.:.:.:.",
":.:.:.:.:.:.:.:.:.:.3.>.c p 2 2 p c *.*.*.*.H H S S C S C k X.d > > r P r * - # @ @ @ # , :.:.:.:.:.:.:.:.:.:.:.:.:.",
":.:.:.:.:.:.:.:.:.:.F 3.>.c c 9 9 2 2 c -.-.*.*.@.*.*.*.*.*.A H S Z T P I p > : # @ @ # b +.:.:.:.:.:.:.:.:.:.:.:.:.",
":.:.:.:.:.:.:.:.:.:.:.F F 3.>.V j 9 R 2 2 c H H A S S S C C k k C k T t y : - $   @ ; , :.:.:.:.:.:.:.:.:.:.:.:.:.:.",
":.:.:.:.:.:.:.:.:.:.:.,.,.F Z k = = r ( R 2 2 c d d d d > : : - - - L 9 + # @     @ - : :.:.:.:.:.:.:.:.:.:.:.:.:.:.",
":.:.:.:.:.:.:.:.:.:.:.:.3.,.H S k > = 9 ( ` ' 2 2 k : @ @ @ @         + o   @ X . @ # : :.:.:.:.:.:.:.:.:.:.:.:.:.:.",
":.:.:.:.:.:.:.:.:.:.:.:.H >.,.H +.j y 3 U ( ' ' %.2 Z C C k g d > % - . . X X X @ # : :.:.:.:.:.:.:.:.:.:.:.:.:.:.:.",
":.:.:.:.:.:.:.:.:.:.:.:.:.@.@.B @.@.B j l t ` ` ' 2 S Z C C k g d > % - X X @ @ > , :.:.:.:.:.:.:.:.:.:.:.:.:.:.:.:.",
":.:.:.:.:.:.:.:.:.:.:.:.:.:.:.@.+.O.Q @.+.O.Q Q Q =.*.*.H S S S C C C = * @   - - :.:.:.:.:.:.:.:.:.:.:.:.:.:.:.:.:.",
":.:.:.:.:.:.:.:.:.:.:.:.:.:.:.:.:.:.k k k k k k k k k k : - - @ @ @ @       - :.:.:.:.:.:.:.:.:.:.:.:.:.:.:.:.:.:.:."
};
