/* XPM */
static char *_6740d54088840bef773bbd7fcf9ffa3wa4hi9en6oJDQdur[] = {
/* columns rows colors chars-per-pixel */
"58 56 64 1 ",
"  c #000001",
". c #070707",
"X c #0B0B0B",
"o c #0B1707",
"O c #131313",
"+ c #1B1B1B",
"@ c #13230B",
"# c #17330F",
"$ c #232323",
"% c #272727",
"& c #2F2F2F",
"* c #373F27",
"= c #373737",
"- c gray23",
"; c #1F4317",
": c #27531B",
"> c #3F472B",
", c #2F6323",
"< c #37732B",
"1 c #474F33",
"2 c #5F4B37",
"3 c #53573B",
"4 c #434343",
"5 c gray28",
"6 c gray34",
"7 c #5B5B5B",
"8 c #775F4B",
"9 c #5B6347",
"0 c #676B4F",
"q c #7B634F",
"w c #6F7357",
"e c gray39",
"r c gray42",
"t c #6F6F6F",
"y c #7B7F63",
"u c #777777",
"i c gray50",
"p c #8B735B",
"a c #937B63",
"s c #9B7F6B",
"d c #3F832F",
"f c #4B9F3F",
"g c #53AF47",
"h c #5BBF4F",
"j c #5FCF57",
"k c #6FEF67",
"l c #77FF6F",
"z c #9F8363",
"x c #9F876F",
"c c #A78F77",
"v c #AF977F",
"b c black",
"n c #838383",
"m c #8B8B8B",
"M c #939393",
"N c #979797",
"B c #9F9F9F",
"V c #B79F87",
"C c #BFA78F",
"Z c #A7A7A7",
"A c gray67",
"S c gray70",
"D c #B7B7B7",
"F c gray75",
/* pixels */
"bbbbbbbbbbbbbbbbbbbbbbbbbbbbbbbbbbbbbbbbbbbbbbbbbbbbbbbbbb",
"bbbbbbbbbbbbbbbbbbbbbbbbbbbbbbbbbbbbbbbbbbbbbbbbbbbbbbbbbb",
"bbbbbbbbbbbbbbbbbbbbbbbbbbbbbbbbbbbbbbbbbbbbbbbbbbbbbbbbbb",
"bbbbbbbbbbbbbbbbbbbbbbbbbbbbbbbbbbbbbbbbbbbbbbbbbbbbbbbbbb",
"bbbbbbbbbbbbbbbbbbbbbbbbbbbbbbbbbbbbbbbbbbbbbbbbbbbbbbbbbb",
"bbbbbbbbbbbbbbbbbbbbbbbbbbbbbbbbbbbbbbbbbbbbbbbbbbbbbbbbbb",
"bbbbbbbbbbbbbbbbbbbbbbbbbbbbbbbbbbbbbbbbbbbbbbbbbbbbbbbbbb",
"bbbbbbbbbbbbbbbbbbbbbbbbbbbbbbbbbbbbbbbbbbbbbbbbbbbbbbbbbb",
"bbbbbbbbbbbbbbbbbbbbbbbbbbbbbbbbbbbbbbbbbbbbbbbbbbbbbbbbbb",
"bbbbbbbbbbbbbbbbbbbbbbbbbbbbbbbbbbbbbbbbbbbbbbbbbbbbbbbbbb",
"bbbbbbbbbbbbbbbbbbbbbbbbbbbbbbbbbbbbbbbbbbbbbbbbbbbbbbbbbb",
"bbbbbbbbbbbbbbbbbbbbbbbbbbbbbbbbbbbbbbbbbbbbbbbbbbbbbbbbbb",
"bbbbbbbbbbbbbbbbbbbbbbbbbbbbbbbbbbbbbbbbbbbbbbbbbbbbbbbbbb",
"bbbbbbbbbbbbbbbbbbbbbbbbbbbbbbbbbbbbbbbbbbbbbbbbbbbbbbbbbb",
"bbbbbbbbbbbbbbbbbbbbbbbbbbbbbbbbbbbbbbbbbbbbbbbbbbbbbbbbbb",
"bbbbbbbbbbbbbbbbbbbbbbbbbbbbbbbbbbbbbbbbbbbbbbbbbbbbbbbbbb",
"bbbbbbbbbbbbbbbbbbbbbbbbbbbbbbbbbbbbbbbbbbbbbbbbbbbbbbbbbb",
"bbbbbbbbbbbbbbbbbbbbbbbbbbbbbbbbbbbbbbbbbbbbbbbbbbbbbbbbbb",
"bbbbbbbbbbbbbbbbbbbbbbbbbbbbbbbbbbbbbbbbbbbbbbbbbbbbbbbbbb",
"bbbbbbbbbbbbbbbbbbbbbbbbbbbbbbbbbbbbbbbbbbbbbbbbbbbbbbbbbb",
"bbbbbbbbbbbbbbbbbbbbbbbbbbbbbbbbbbbbbbbbbbbbbbbbbbbbbbbbbb",
"bbbbbbbbbbbbbbbbbbbbbbbbbbbbbbbbbbbbbbbbbbbbbbbbbbbbbbbbbb",
"bbbbbbbbbbbbbbbbbbbbbbbbbbbbbbbbbbbbbbbbbbbbbbbbbbbbbbbbbb",
"bbbbbbbbbbbbbbbbbbbbbbbbbbbbbbbbbbbbbbbbbbbbbbbbbbbbbbbbbb",
"bbbbbbbbbbbbbbbbbbb0a9900999wwnmBZAmnibbbbbbbbbbbbbbbbbbbb",
"bbbbbbbbbbbbbbbbbiZ9*:,fhf<9<ff<w0eumAu1bbbbbbbbbbbbbbbbbb",
"bbbbbbbbbbbbbbbbbDFt,<ghjhhjjklkhgfdui-+bbbbbbbbbbbbbbbbbb",
"bbbbbbbbbbbbbbbbbDmNZvaaaaa0ree336e75+ +bbbbbbbbbbbbbbbbbb",
"bbbbbbbbbbbbbbbbbDy00099>>>>555-==++ O+=bbbbbbbbbbbbbbbbbb",
"bbbbbbbbbbbbbbbbbFxscxyw03311>*#$O O+++&bbbbbbbbbbbbbbbbbb",
"bbbbbbbbbbbbbbbbbDVvVvxyyww0933*-%@@OO+$bbbbbbbbbbbbbbbbbb",
"bbbbbbbbbbbbbbbbbBMBSNcaaayyww0991*@XO+=bbbbbbbbbbbbbbbbbb",
"bbbbbbbbbbbbbbbbbmwyp00999311>1>*&@o +$-bbbbbbbbbbbbbbbbbb",
"bbbbbbbbbbbbbbbbbBw0821>>*%$+OOOXXOXX+&=bbbbbbbbbbbbbbbbbb",
"bbbbbbbbbbbbbbbbbZyycp031*%%+@OoX OOOO+=bbbbbbbbbbbbbbbbbb",
"bbbbbbbbbbbbbbbbbZyyCxww09331>*#$O   O+-bbbbbbbbbbbbbbbbbb",
"bbbbbbbbbbbbbbbbbZyyCxyyw0931>*#$O   O+=bbbbbbbbbbbbbbbbbb",
"bbbbbbbbbbbbbbbbbAyyvxyyw0931>*#$O   X+=bbbbbbbbbbbbbbbbbb",
"bbbbbbbbbbbbbbbbbDxscxyyw0931>*#$O   .O&bbbbbbbbbbbbbbbbbb",
"bbbbbbbbbbbbbbbbbDVvvcxyypw0933*-%@oO@ $bbbbbbbbbbbbbbbbbb",
"bbbbbbbbbbbbbbbbbBMZZvcaaayyww0991*@XXX&bbbbbbbbbbbbbbbbbb",
"bbbbbbbbbbbbbbbbbmwyp00999311>1>*&@o XX&bbbbbbbbbbbbbbbbbb",
"bbbbbbbbbbbbbbbbbBwq83>*=&%$+OOOXXOXX+$$bbbbbbbbbbbbbbbbbb",
"bbbbbbbbbbbbbbbbbZyacp31-&%%+@OoX OOOO+=bbbbbbbbbbbbbbbbbb",
"bbbbbbbbbbbbbbbbbZyaCxww09331>*#$O   O+=bbbbbbbbbbbbbbbbbb",
"bbbbbbbbbbbbbbbbbZyaCxyww0931>*#$O   O+=bbbbbbbbbbbbbbbbbb",
"bbbbbbbbbbbbbbbbbDszvxyyw0931>*#$O   O+&bbbbbbbbbbbbbbbbbb",
"bbbbbbbbbbbbbbbbbDvcVcyyypw0933*-%@oOO@$bbbbbbbbbbbbbbbbbb",
"bbbbbbbbbbbbbbbbbBcvZcsaaayyww0991*@XO+&bbbbbbbbbbbbbbbbbb",
"bbbbbbbbbbbbbbbbbmwyp00999311>1>*&@o O$=bbbbbbbbbbbbbbbbbb",
"bbbbbbbbbbbbbbbbbBw0821>*&%$+OOOXXOX O$&bbbbbbbbbbbbbbbbbb",
"bbbbbbbbbbbbbbbbbZyyca934&&%+@OoX OO O+&bbbbbbbbbbbbbbbbbb",
"bbbbbbbbbbbbbbbbbZsyvxyw09931>*#$O   O+=bbbbbbbbbbbbbbbbbb",
"bbbbbbbbbbbbbbbbbMxyccyyp009311*&$   OX&bbbbbbbbbbbbbbbbbb",
"bbbbbbbbbbbbbbbbbwyppypqq6311>>*%$XXX+ $bbbbbbbbbbbbbbbbbb",
"bbbbbbbbbbbbbbbbbbb3333&$$$OOOO      $bbbbbbbbbbbbbbbbbbbb"
};
