/* XPM */
static char *_c76572bf4a942188938d54ab92820a9C8op76f3H9GAZBGD[] = {
/* columns rows colors chars-per-pixel */
"70 70 13 1 ",
"  c None",
". c #200000",
"X c #380000",
"o c #480800",
"O c #601000",
"+ c #781808",
"@ c #882808",
"# c #A03010",
"$ c #B84018",
"% c #C85820",
"& c #D07038",
"* c #F88850",
"= c #D0C098",
/* pixels */
"                                                                      ",
"                                                                      ",
"                                                                      ",
"                                                                      ",
"                                                                      ",
"                                                                      ",
"                                                                      ",
"                                                                      ",
"                                                                      ",
"                                                                      ",
"                                                                      ",
"                                                                      ",
"                                                                      ",
"                                                                      ",
"                                                                      ",
"                                                                      ",
"                                                                      ",
"                         ..              o                            ",
"                          o     ...      X                            ",
"                         X.o.. X ..    ooX                            ",
"                          oXo.oX .oXoo oO                             ",
"                          XoooXX .X . XoOo                            ",
"                      o  .XXoOooXX.X. oOo.                            ",
"                       ..XXXOOOoXXXooOO+oX.XX .                       ",
"                        .XXoO++OOXO+@+++oXoXOoo                       ",
"                       .XOOoO@@@OOOO@@@@OXOOOO o                      ",
"                      XXOOOoX@@@OOOO###ooXXXo o .                     ",
"                    .   OooOO###@#@@@@O+OOOooX .    X .               ",
"                    .oXoo.XO@$$@@$$%@@OO@@+Xo oooooOO.                ",
"                    oXXooXX@@+#$$$%%$$+OO+O@OO@@OOOX.                 ",
"                   .X.XXoOOO#@@$%*%&%%@+O@+@++oOOoX.                  ",
"                     oX X.++@#$%*$&%#$@%#O++Oooo..                    ",
"                    .X o. @@#@$%&**$#%%####@O.o.Xo                    ",
"                   oXXOOo OO@O$%&==**%$##$#+OXXoXX                    ",
"                 ..X.OOoXOO#@##$&*==*%###@OooO o o..                  ",
"                   XXOOOo@####%%**===*$O@+@O+O+OXXX                   ",
"                    OOo.o@####%%@$***%#%##@OOo .X                     ",
"                   ..oooOO@O#%#$$$%@*%%##OOOOOoo.                     ",
"                  .ooooO@O@O@@@#$&%%&%$@@+oOoOXXo                     ",
"                 oOOO@oOOoOOOOo#%%%#$@#+@+ooooOOOX                    ",
"                ..XXXooo .O@#OOO@@#$@@#$++oo.XX.O                     ",
"               ... .X   XoO@@OO@@@#@###@O@Oo. .Xo                     ",
"                      Xo XXXXOO#$OOOO@#+Ooo.XX                        ",
"                     oX .OOXo@@O@@OXOO@+oooo..                        ",
"                      XXXoOOo@O@O@oOOOO+Ooo.X                         ",
"                      XXo.X.oO@OOXXXOOOOOXXX X                        ",
"                          . XOO.X ..XXoOoXX  ..                       ",
"                           .OoX..Xo.OXXoooX                           ",
"                            Xo X Xo. .X.XXX                           ",
"                            oX  . . XX o.X.                           ",
"                           .X     X...   .X.                          ",
"                                          .                           ",
"                                                                      ",
"                                                                      ",
"                                                                      ",
"                                                                      ",
"                                                                      ",
"                                                                      ",
"                                                                      ",
"                                                                      ",
"                                                                      ",
"                                                                      ",
"                                                                      ",
"                                                                      ",
"                                                                      ",
"                                                                      ",
"                                                                      ",
"                                                                      ",
"                                                                      ",
"                                                                      "
};
