/* XPM */
static char *_e2e253e2efa495a8e2b53604833e9d2LvkOpRrIjpiTMwJg[] = {
/* columns rows colors chars-per-pixel */
"70 70 13 1 ",
"  c None",
". c #200000",
"X c #380000",
"o c #480800",
"O c #601000",
"+ c #781808",
"@ c #882808",
"# c #A03010",
"$ c #B84018",
"% c #C85820",
"& c #D07038",
"* c #F88850",
"= c #D0C098",
/* pixels */
"                                                                      ",
"                                                                      ",
"                                                                      ",
"                                                                      ",
"                                                                      ",
"                                                                      ",
"                                                                      ",
"                                                                      ",
"                                                                      ",
"                                                                      ",
"                                                                      ",
"                                                                      ",
"                                                                      ",
"                                                                      ",
"                                                                      ",
"                                                                      ",
"                                                                      ",
"                                  o                                   ",
"                                  X                                   ",
"                            Xo    o.                                  ",
"                          .o X o .oX  X.XX                            ",
"                    ..    .. Xo  .oXX XoXXo     ..                    ",
"                    .X....X XXX .o+oooXX. X    Xo                     ",
"                      Xo.oXo.X.oOO++oXX.Xo   ooOX                     ",
"                     XXooooooXoo@++@Oo.oO.  ooOO                      ",
"                      .ooOOoOoX@O#@@OO+OXXo++oo                       ",
"                      .XoO+OOOOOO$#OO@@OO+@Ooo X                      ",
"                   XX XXoO+@+OOO@@+OOOO+@+OOo.Xo                      ",
"                    ..XXooO@##+$$@@@OO+OOOOoXX.oX                     ",
"                     X.Xooo####$$%%$@@#O+#OX.Xo XX                    ",
"                    o..oo++#$##%%%$%##$#$@OXo.XXX                     ",
"                     . XoO++#%%*%&$@%$$#$+oOOO X                      ",
"                      .X.o++@$%*#%%$&%$$#OO +o.XX                     ",
"                   XXXooooO@#$$&=*=*&%$O++#. .XXX                     ",
"                   XXXXX.+++$+$%&=*==*$O$@OOOo o o                    ",
"                   X.OO XX@++@#%*&===&$$$+OOOooXo.                    ",
"                    XOOOX +O#@#%%&*&%*%$#@OoXoX  X                    ",
"                     XOOOOo+$#$$%@$&%*%%#@+OoX X                      ",
"                    XXX.oXO@$#$##%%%%%@#$@@OOX Xo                     ",
"                    X .oXXO##O$@@%%&$$#@$#oooXXo                      ",
"                   XXXXX oO+OO#OO##$$$@##@oooXX .                     ",
"                     o.XoOOO@@OOOOOO@OOo@@OOoXX..o                    ",
"                      X.oO#+OO@@OO$$OOOOOO@OXX                        ",
"                      Xoo#oO.o@@#o#$OOoOOOOOoXX                       ",
"                     oOOO...OOXXo#O@@OoXooOoOXX                       ",
"                    XOXo   XXX.XoO@OOo..X.Xo.XX.                      ",
"                    OX   .X ..oooOOOX XX .X.XX.X.                     ",
"                   ..     o Xoo..oO.  Xo...    ..                     ",
"                           oX o  Xo. o X X.                           ",
"                                  O    Xo.                            ",
"                                 .X                                   ",
"                                  X                                   ",
"                                                                      ",
"                                                                      ",
"                                                                      ",
"                                                                      ",
"                                                                      ",
"                                                                      ",
"                                                                      ",
"                                                                      ",
"                                                                      ",
"                                                                      ",
"                                                                      ",
"                                                                      ",
"                                                                      ",
"                                                                      ",
"                                                                      ",
"                                                                      ",
"                                                                      ",
"                                                                      "
};
