/* XPM */
static char *_892dde02f01428ee176a104cf72a68fjtNBqM57fb9ot0yQ[] = {
/* columns rows colors chars-per-pixel */
"70 70 13 1 ",
"  c None",
". c #200000",
"X c #380000",
"o c #480800",
"O c #601000",
"+ c #781808",
"@ c #882808",
"# c #A03010",
"$ c #B84018",
"% c #C85820",
"& c #D07038",
"* c #F88850",
"= c #D0C098",
/* pixels */
"                                                                      ",
"                                                                      ",
"                                                                      ",
"                                                                      ",
"                                                                      ",
"                                                                      ",
"                                                                      ",
"                                                                      ",
"                                                                      ",
"                                                                      ",
"                                                                      ",
"                                                                      ",
"                                                                      ",
"                                                                      ",
"                                                                      ",
"                                                                      ",
"                                                                      ",
"                                                                      ",
"                                                                      ",
"                    .       .    .o o    X                            ",
"                     .o     XX  .XXX  .  X                            ",
"                      .+O..XX XoXXXX...o..  X XX                      ",
"                      XXOo.X.XO .oXoX .XX...Xo.                       ",
"                       XOoX.ooOOo XoOXXXXoXooXo                       ",
"                        oOoo.XoOXX.OXoOoooXooX.                       ",
"                      .  +OOXXXO .@OXO+ooOOOoXX.                      ",
"                     oX  o@OOOOo+@OOO@Ooo++OoX...                     ",
"                    o. X.X@O@@@@O++@@+##@@OooX. X.                    ",
"                    XX.oOXO@O#$##+$###$$#+OOoX.. o                    ",
"                     oX.oOO+OO###++$$%#@#OOOO.XoXX                    ",
"                    oXoX.+@+@####$$@%$@@@OOOX Xo                      ",
"                     .XXoO@O@$$%$$$%&&$$#OOOoo. X                     ",
"                     XooOOOOO@#%%*&=&%%$$@O@+oo                       ",
"                  ..XoOO@@OO@%%@&&==&&%&$@$@+OOX.                     ",
"                .XXooOO@O##O$%%#*===*$$%$O##++OOoooX                  ",
"                     XOo@@$@$&%&&==&&@%%@OO+@+OoX.                    ",
"                      oO+@O@$$%%&==*%%##OOOOOoo.                      ",
"                    o  XOOOO$$%**&*%%$#@OO@+oXXX                      ",
"                     oX.ooOO@##%%###$$$$#O@OXXXXX                     ",
"                   Xoo.XXoOO#@#%$$+@@##Oo@OOo.Xo                      ",
"                   o ...oOO@#$$##$$O##$#O@OXOo oo                     ",
"                    .  XoOO@@$$++@#@O###@@@Xoo  X                     ",
"                   .X.XXoo+@OO+++OO@OoO@OOOo  oX                      ",
"                      .XoOOOoo+OoOOX OXXXOOO  .                       ",
"                      X.oOXoooOoXOO.oOo.OOo@o                         ",
"                      .ooXXXXXXXXoX oO.oOOXooo                        ",
"                     .XXX..X.X  OO o. o.XX oOX.                       ",
"                     .o .   ..o. OOXXo. XXX OOo                       ",
"                     .     X .o  o o. oXX   .XoX                      ",
"                           o    o o.   .      .                       ",
"                                                                      ",
"                                                                      ",
"                                                                      ",
"                                                                      ",
"                                                                      ",
"                                                                      ",
"                                                                      ",
"                                                                      ",
"                                                                      ",
"                                                                      ",
"                                                                      ",
"                                                                      ",
"                                                                      ",
"                                                                      ",
"                                                                      ",
"                                                                      ",
"                                                                      ",
"                                                                      ",
"                                                                      ",
"                                                                      "
};
