/* XPM */
static char *_e8035a9930f4ec2aef4b84907781a97VQuRNwP1gjUypmfs[] = {
/* columns rows colors chars-per-pixel */
"114 103 65 1 ",
"  c #000001",
". c #070707",
"X c #0B0B0B",
"o c #1F170B",
"O c #131313",
"+ c #1B1B1B",
"@ c #13230B",
"# c #2B230F",
"$ c #332B13",
"% c #232323",
"& c #272727",
"* c #2F2F2F",
"= c #373F27",
"- c #373737",
"; c gray23",
": c #43331B",
"> c #533F2F",
", c #3F472B",
"< c #5F4B37",
"1 c #53573B",
"2 c #434343",
"3 c gray28",
"4 c #4B4B4B",
"5 c gray31",
"6 c gray34",
"7 c #5B5B5B",
"8 c #6F5743",
"9 c #775F4B",
"0 c #5B6347",
"q c #676B4F",
"w c #7B634F",
"e c #6F7357",
"r c gray39",
"t c gray42",
"y c #6F6F6F",
"u c #7B7F63",
"i c #777777",
"p c gray50",
"a c #836B57",
"s c #8B735B",
"d c #937B63",
"f c #9B7F6B",
"g c #AF977F",
"h c none",
"j c #838383",
"k c #8B8B8B",
"l c #939393",
"z c #979797",
"x c #9F9F9F",
"c c #B79F87",
"v c #BFA78F",
"b c #A7A7A7",
"n c gray67",
"m c gray70",
"M c #B7B7B7",
"N c gray75",
"B c gray78",
"V c #CBCBCB",
"C c LightGray",
"Z c gray86",
"A c #DFDFDF",
"S c #FFDBDB",
"D c #C7C7FF",
"F c #E7E7E7",
"G c #EFEFEF",
/* pixels */
"hhhhhhhhhhhhhhhhhhhhhhhhhhhhhhhhhhhhhhhhhhhhhhhhhhhhhhhhhhhhhhhhhhhhhhhhhhhhhhhhhhhhhhhhhhhhhhhhhhhhhhhhhhhhhhhhhh",
"hhhhhhhhhhhhhhhhhhhhhhhhhhhhhhhhhhhhhhhhhhhhhhhhhhhhhhhhhhhhhhhhhhhhhhhhhhhhhhhhhhhhhhhhhhhhhhhhhhhhhhhhhhhhhhhhhh",
"hhhhhhhhhhhhhhhhhhhhhhhhhhhhhhhhhhhhhhhhhhhhhhhhhhhhhhhhhhhhhhhhhhhhhhhhhhhhhhhhhhhhhhhhhhhhhhhhhhhhhhhhhhhhhhhhhh",
"hhhhhhhhhhhhhhhhhhhhhhhhhhhhhhhhhhhhhhhhhhhhhhhhhhhhhhhhhhhhhhhhhhhhhhhhhhhhhhhhhhhhhhhhhhhhhhhhhhhhhhhhhhhhhhhhhh",
"hhhhhhhhhhhhhhhhhhhhhhhhhhhhhhhhhhhhhhhhhhhhhhhhhhhhhhhhhhhhhhhhhhhhhhhhhhhhhhhhhhhhhhhhhhhhhhhhhhhhhhhhhhhhhhhhhh",
"hhhhhhhhhhhhhhhhhhhhhhhhhhhhhhhhhhhhhhhhhhhhhhhhhhhhhhhhhhhhhhhhhhhhhhhhhhhhhhhhhhhhhhhhhhhhhhhhhhhhhhhhhhhhhhhhhh",
"hhhhhhhhhhhhhhhhhhhhhhhhhhhhhhhhhhhhhhhhhhhhhhhhhhhhhhhhhhhhhhhhhhhhhhhhhhhhhhhhhhhhhhhhhhhhhhhhhhhhhhhhhhhhhhhhhh",
"hhhhhhhhhhhhhhhhhhhhhhhhhhhhhhhhhhhhhhhhhhhhhhhhhhhhhhhhhhhhhhhhhhhhhhhhhhhhhhhhhhhhhhhhhhhhhhhhhhhhhhhhhhhhhhhhhh",
"hhhhhhhhhhhhhhhhhhhhhhhhhhhhhhhhhhhhhhhhhhhhhhhhhhhhhhhhhhhhhhhhhhhhhhhhhhhhhhhhhhhhhhhhhhhhhhhhhhhhhhhhhhhhhhhhhh",
"hhhhhhhhhhhhhhhhhhhhhhhhhhhhhhhhhhhhhhhhhhhhhhhhhhhhhhhhhhhhhhhhhhhhhhhhhhhhhhhhhhhhhhhhhhhhhhhhhhhhhhhhhhhhhhhhhh",
"hhhhhhhhhhhhhhhhhhhhhhhhhhhhhhhhhhhhhhhhhhhhhhhhhhhhhhhhhhhhhhhhhhhhhhhhhhhhhhhhhhhhhhhhhhhhhhhhhhhhhhhhhhhhhhhhhh",
"hhhhhhhhhhhhhhhhhhhhhhhhhhhhhhhhhhhhhhhhhhhhhhhhhhhhhhhhhhhhhhhhhhhhhhhhhhhhhhhhhhhhhhhhhhhhhhhhhhhhhhhhhhhhhhhhhh",
"hhhhhhhhhhhhhhhhhhhhhhhhhhhhhhhhhhhhhhhhhhhhhhhhhhhhhhhhhhhhhhhhhhhhhhhhhhhhhhhhhhhhhhhhhhhhhhhhhhhhhhhhhhhhhhhhhh",
"hhhhhhhhhhhhhhhhhhhhhhhhhhhhhhhhhhhhhhhhhhhhhhhhhhhhhhhhhhhhhhhhhhhhhhhhhhhhhhhhhhhhhhhhhhhhhhhhhhhhhhhhhhhhhhhhhh",
"hhhhhhhhhhhhhhhhhhhhhhhhhhhhhhhhhhhhhhhhhhhhhhhhhhhhhhhhhhhhhhhhhhhhhhhhhhhhhhhhhhhhhhhhhhhhhhhhhhhhhhhhhhhhhhhhhh",
"hhhhhhhhhhhhhhhhhhhhhhhhhhhhhhhhhhhhhhhhhhhhhhhhhhhhhhhhhhhhhhhhhhhhhhhhhhhhhhhhhhhhhhhhhhhhhhhhhhhhhhhhhhhhhhhhhh",
"hhhhhhhhhhhhhhhhhhhhhhhhhhhhhhhhhhhhhhhhhhhhhhhhhhhhhhhhhhhhhhhhhhhhhhhhhhhhhhhhhhhhhhhhhhhhhhhhhhhhhhhhhhhhhhhhhh",
"hhhhhhhhhhhhhhhhhhhhhhhhhhhhhhhhhhhhhhhhhhhhhhhhhhhhhhhhhhhhhhhhhhhhhhhhhhhhhhhhhhhhhhhhhhhhhhhhhhhhhhhhhhhhhhhhhh",
"hhhhhhhhhhhhhhhhhhhhhhhhhhhhhhhhhhhhhhhhhhhhhhhhhhhhhhhhhhhhhhhhhhhhhhhhhhhhhhhhhhhhhhhhhhhhhhhhhhhhhhhhhhhhhhhhhh",
"hhhhhhhhhhhhhhhhhhhhhhhhhhhhhhhhhhhhhhhhhhhhhhhhhhhhhhhhhhhhhhhhhhhhhhhhhhhhhhhhhhhhhhhhhhhhhhhhhhhhhhhhhhhhhhhhhh",
"hhhhhhhhhhhhhhhhhhhhhhhhhhhhhhhhhhhhhhhhhhhhhhhhhhhhhhilZGGZlihhhhhhhhhhhhhhhhhhhhhhhhhhhhhhhhhhhhhhhhhhhhhhhhhhhh",
"hhhhhhhhhhhhhhhhhhhhhhhhhhhhhhhhhhhhhhhhhhhhhhhhhhhhtknZFGGFZnkthhhhhhhhhhhhhhhhhhhhhhhhhhhhhhhhhhhhhhhhhhhhhhhhhh",
"hhhhhhhhhhhhhhhhhhhhhhhhhhhhhhhhhhhhhhhhhhhhhhhhhh5rpzMCFGGFCMzpr5hhhhhhhhhhhhhhhhhhhhhhhhhhhhhhhhhhhhhhhhhhhhhhhh",
"hhhhhhhhhhhhhhhhhhhhhhhhhhhhhhhhhhhhhhhhhhhhhhhhh2ryjzbCFFFFCbzjyr2hhhhhhhhhhhhhhhhhhhhhhhhhhhhhhhhhhhhhhhhhhhhhhh",
"hhhhhhhhhhhhhhhhhhhhhhhhhhhhhhhhhhhhhhhhhhhhhhhh27rypzmCCFFCCmzpyr72hhhhhhhhhhhhhhhhhhhhhhhhhhhhhhhhhhhhhhhhhhhhhh",
"hhhhhhhhhhhhhhhhhhhhhhhhhhhhhhhhhhhhhhhhhhhhhhh66666666677rrttyyiir5;hhhhhhhhhhhhhhhhhhhhhhhhhhhhhhhhhhhhhhhhhhhhh",
"hhhhhhhhhhhhhhhhhhhhhhhhhhhhhhhhhhhhhhhhhhhhy6666666606rrtyyyypplllkjhhhhhhhhhhhhhhhhhhhhhhhhhhhhhhhhhhhhhhhhhhhhh",
"hhhhhhhhhhhhhhhhhhhhhhhhhhhhhhhhhhilZGGZjiyttrrrrrrtipzxxnnxzkpjllllkjpiilZGGZlihhhhhhhhhhhhhhhhhhhhhhhhhhhhhhhhhh",
"hhhhhhhhhhhhhhhhhhhhhhhhhhhhhhhhtknZjiytttrrrrrkmCGGGGGGGGGGGGGFFNbkjpiytyplGFZnkthhhhhhhhhhhhhhhhhhhhhhhhhhhhhhhh",
"hhhhhhhhhhhhhhhhhhhhhhhhhhhhhh;rpzyrrtttrrplmAGGACVVMMMMMBBBBCCAGGGGFVnliiiiilCMzpr;hhhhhhhhhhhhhhhhhhhhhhhhhhhhhh",
"hhhhhhhhhhhhhhhhhhhhhhhhhhhhh2ryrrtttrrkMCFVMzkklllxMMBBZFFZBNNnnxzMBAGGAVkkiiiijjyr2hhhhhhhhhhhhhhhhhhhhhhhhhhhhh",
"hhhhhhhhhhhhhhhhhhhhhhhhhhhh27rrrrrrpbZBbkkppijkkllzmNBCFFGFCVCMMnnxxzkxMZFFVziiiiir72hhhhhhhhhhhhhhhhhhhhhhhhhhhh",
"hhhhhhhhhhhhhhhhhhhhhhhhhhh;rtyyrruvNnzkjpppjjpikkllzxmVVZZZVMMnmmnnxxxxllxMCGZMiiiii5;hhhhhhhhhhhhhhhhhhhhhhhhhhh",
"hhhhhhhhhhhhhhhhhhhhhhhhhh-5yyrpmNnzzzlkjpiijiiipiyiitpplBnzzlllzzxxxnbzzxxbmMCFFmpiiii-hhhhhhhhhhhhhhhhhhhhhhhhhh",
"hhhhhhhhhhhhhhhhhhhhhhhhh77r7ynVbbbbbzlpppiiyiyryrr166igBGGZlitttjlbbxxbxxxnmMNNNCANpiyi-hhhhhhhhhhhhhhhhhhhhhhhhh",
"hhhhhhhhhhhhhhhhhhhhhhhh7r76kxxzbmbbbzkpiiiiiitr752*5yzBFGGFZnkt45ylzzxxzxxbMNBBBCBBBziyiihhhhhhhhhhhhhhhhhhhhhhhh",
"hhhhhhhhhhhhhhhhhhhhhhh7r0uzlkzxbmbnxzkiiiiiyt775$$2rpzVAGGFCMzpr;-tzxxzzxbnNBBCCVCBNCNkiyihhhhhhhhhhhhhhhhhhhhhhh",
"hhhhhhhhhhhhhhhhhhhhhh7rrlklkkkzxmmnbxkiiityt7r2%*25yjzBAFFFCbzjyr2*txlzzbnnNVVCVCVCBmmMlpyihhhhhhhhhhhhhhhhhhhhhh",
"hhhhhhhhhhhhhhhhhhhhh55ylpppkjkzxmmnbxpiiitt7r2%%;46yjzMCFFCCmzpyr72&rxzlxnmMBVCCCCBNmbmVnltrhhhhhhhhhhhhhhhhhhhhh",
"hhhhhhhhhhhhhhhhhhhh36iiiiipjjkzbmmbxlitttt762&%*245tjklnBCMxbzjyrr5;*ibkxbnmNVCVCBNnxxbmmbpt5hhhhhhhhhhhhhhhhhhhh",
"hhhhhhhhhhhhhhhhhhh,5ypiiiiipjlzbbmxlptrr7r62*%&*246yppyiillklzjyrr63-3zzkxxnNCZFZMbbxbmmbbnkr7hhhhhhhhhhhhhhhhhhh",
"hhhhhhhhhhhhhhhhhh16ipitttyippkzxmxlliitr6322%%&*247tyyiyyljjjjjtrr533-rnkxxmCZFGGCmzmnmxzzbMl6yhhhhhhhhhhhhhhhhhh",
"hhhhhhhhhhhhhhhhh55ipiirrrrrttipzxlkkit774;;-%***247tyttttkkpiiiir76533-ilknmZZGGGCmzNMnzzxxbml7yhhhhhhhhhhhhhhhhh",
"hhhhhhhhhhhhhhhh75iiyyr66661674rppjirr752***-****257ttttrtjpiiyiir765552,ikmmVVFFFCmlCNxzxxbxnMlryhhhhhhhhhhhhhhhh",
"hhhhhhhhhhhhhhhh5iittr6512,*257inZZnir52*%**--**;25rrrtttykkjiiiirr6555523r7izzMMCMpkjzjjxbmbznbkryhhhhhhhhhhhhhhh",
"hhhhhhhhhhhhhhh5ryyrr73-**&*3rizmCFMki52**r5***&;47rtttttyjjpiiiiyrr55r5325pikbNZZMiiirrypjxmbzxnjihhhhhhhhhhhhhhh",
"hhhhhhhhhhhhhh61irrr54-&%%*4ryjnBZZNlir-&&e6****25rrrrrrrriiiiiiiiyr6664256piiMGGGFlzjr33rrknmzlxmjihhhhhhhhhhhhhh",
"hhhhhhhhhhhhhh,yrrr54-&%%*25rpjMCZZMzir*%&7;;;&-27rrrrrtrripiiiiiiir6653476pplCFGGGnbzpr2&3izxzzkbljihhhhhhhhhhhhh",
"hhhhhhhhhhhhh25yrr65-&+&*237tplmZFZMli7;OO2*-2**4rttttttrtiiiiiiiiirr554666plzCFGGGmMzkir4*2tijkkkzbihhhhhhhhhhhhh",
"hhhhhhhhhhhhh5yr6652*+%=2557tilmCFZMkyr& O5,*2$-5rerrrrrrriiiiiiiiyyr73660rpbxCGGGGVMbzittr&3tpkkjpljhhhhhhhhhhhhh",
"hhhhhhhhhhhh37r65522%%*24567tilnVVVnkir%XOe,,1*-6tyrrrrrrripiiyiiiiit756rrtpmxCGGGGZMbzpiit4*37ipkpijphhhhhhhhhhhh",
"hhhhhhhhhhhh3r55534*&&;457t7rrizMMMnjpr%OOl225*27yyttttrrtippiiiiiiiy757tiipmxNGGGGZMbljiie63*3riiiiiihhhhhhhhhhhh",
"hhhhhhhhhhh45555632&%*35ryyrrrrjbNmxki7%X%n224*4ryttttttttijpiiiiiiiy657tpipvvNFGGFCxlzdiiyr5;*7ryiiithhhhhhhhhhhh",
"hhhhhhhhhhh;6553453&&;4ryytrrrrixMmxjir% &n;45*4tetrytyyyipkjiiiiiipyr6ryiiyxbMZGFZNzjjiiiiy62*2rryiiythhhhhhhhhhh",
"hhhhhhhhhhh;6553252&*25iiyrrrrryjxxljj7%.-b27r7inxmVCNAVNCAAACNVNMbljy7tyyyyxvMCCCCmkippipip55;*5ryyty7hhhhhhhhhhh",
"hhhhhhhhhh,2534334;*-5riiyrttttypzxlpi7;;iblxzzzzyyiitrrrrrrrrtppzmMnxmnjjitxxvNNNMzjippppjjrt3*4ryyyi6hhhhhhhhhhh",
"hhhhhhhhhh*5552324;*2rriyttttttttklkiiiklierrtznVCAGGGGGGGGGGGGGFADCxjkujznkkpkmMMxkpiipipjkir7;2rtytytihhhhhhhhhh",
"hhhhhhhhhh;6535222;-rityyyrtrrrtyiiipirrizMAZBmzurq323344454310ukbMCAGGGVMkyykzzzxlkpiiiiipkitr337ttttrrhhhhhhhhhh",
"hhhhhhhhhh,552432;*2upryyerrrrtttiytpxCAVzr6>-::$,,257tpjkzpir903>->>>6jbVFACzttijldpiiiiijjpjt447tyyyi7hhhhhhhhhh",
"hhhhhhhhh625524522*6lyryytrrryttrpnZVmy3-$=*****-;25rypxMCZVnziyr634;;;-*-3agVFVxtyiiiiiiijkuji557rtyyi5hhhhhhhhhh",
"hhhhhhhhh35522244**lzrtytrttt5rzNCz6---***&*****-25rijbBCFGCCMxkpr73;;;*;;---,1fcCNj6euiiiplkikt56rrtti5hhhhhhhhhh",
"hhhhhhhhh3322223,$-mz6tyrrr5yxMz3--$***&&&&&***-247tklnMCFFFCMmzjyr63--*****-*-&-6jzMzt7yiiklizi56rrrrr7ihhhhhhhhh",
"hhhhhhhhh24322222*5Mu6rr55ellr*,***&&&&&%&%%***;47tyippbBCFBbxlkkitr52;--*-****&*-*2tznk77tjkixi56rrrttrihhhhhhhhh",
"hhhhhhhhh25322232%ymy0057jj72**&&&&&%%%*&&$*-25677rrtrrrijjjjjiiiittr74;---****&*****27kxj77iizkr57rtyyrihhhhhhhhh",
"hhhhhhhhh2332224*%li526ip5***&%%&&&%**&-367r7rrrrrrr7rrttyyiiiiiiiyyyyytr52;-***&&***--26pje66jki667rtyrihhhhhhhhh",
"hhhhhhhhh5322;;,$,i726yr***&&&&%&%&&-3rtrrrrrrrrrrrrrrrrrryiiiiyiyyyyyyiiiir62**&********47ki77ik7456rtrihhhhhhhhh",
"hhhhhhhhh43;;;;21555rr3-**&&&%%%&*3rryrrrrrrrr0rrrrrrrrrrryiiyyyyyyyytyyiiiiiir63-******--;7yir6ir35667rihhhhhhhhh",
"hhhhhhhhh4;;;--5525r3***&&&&&&*4r67rtrrr9000r66665552332222433<<689rrrrtyyiiiiiiitr2-*&***-;;6tr67335666hhhhhhhhhh",
"hhhhhhhhh0;;--26555=***&%%&&2kz755rrrrrr665222222223222222222233;;;;222150reyttiiiiit4;******25rr7233565hhhhhhhhhh",
"hhhhhhhhhi;--25565****&&%%24bGGk2rrrr0522;22222334446rrttrrrr666643322222-225rttytytiyy52****--26r622555hhhhhhhhhh",
"hhhhhhhhhh--24552**%$%%*265&5FGb&662222;;2236ijzmNCAGGGGGGGGGGGGACVMzjt53;-**,,16rttttttt6,**-*-;6r7225rhhhhhhhhhh",
"hhhhhhhhhh--5552**%&*%2yyr4>+yCi%*;;-2336pMCFGGGFFFFFFGGGGGGGGGGGGGGGGGABlr3--**-36rrttyyyy5***-;;37722yhhhhhhhhhh",
"hhhhhhhhhh-2532*%*&&*5eer00r2242;;;;5rzCAFFACVMMMmmMVVFFGGGGGFAAZCVCCAGGGGGCby2-*--*,6ryiiyyr5-***;3773ahhhhhhhhhh",
"hhhhhhhhhj-43****&*5yrrrrr53323224tnCCCVNMnnxbzzzlzxxMxMCFGFZNmNNMMNNMMMMVCZAFCbi;;-**-5ryyyyy62**--3575hhhhhhhhhh",
"hhhhhhhhh333-*-*&;rytttr52;3224ymBCVNNmmmmnxzlkpjiyreikMAGGGFMljppjzzznMMmmmmMBCFVj6-&***3ryyyii6;**;4777hhhhhhhhh",
"hhhhhhhh6-3;&*&*5ytttt542;;;5jmNCNMMmnnxxxxzlkiir777tkmCFGGGGFMnkr6rizbMmmMMMMMMMMCVz6**$$-1riiiyt6--;365rhhhhhhhh",
"hhhhhhhe*==&&&*5trttr423325iMVCBBNMmmxxxzlzlkir5325rizMVFGGGGFBmxpt44rjxMmmmmmMmMMMNVBb6*&**;4tiyit6;;;3557hhhhhhh",
"hhhhhhh*-;*&&*6rrtr444433yxMVNNNNNNmnbzlzlljir6-;47ykznVVVVVCBNMblit4;rlMMmmnnnmmmMMMBBNi3&*&&3riiii5;;;353hhhhhhh",
"hhhhhh5&**&%*57rrr425436imNBCVCVBMmmxxzzlzjit7;*25ryjzllpppppllxzkit74>rxmmbnnnnnmNNNNMVMz7&%*&36iiir5;;;32rhhhhhh",
"hhhhhh*;-*%*rr5r644646izbMNCZCCBNMmbxblzzjit6=*;45ryii636777776rppiyr74>txmbnnnnmMNVVVBNMNmi3&&**5yiyyr--;;5hhhhhh",
"hhhhh522*&-yy0634566rpbMmBVCFZZVBNmnbzzkkpyr2*2215rr744577rrrr756rrrr6543rbbnnnnmMNVCCCBNMmbzy;&&*2ryii7;--4rhhhhh",
"hhhhh*2*&2iiy535446ilxbnNBCZFFZCBBnnbzlppir5-;234675336rr7yyytrr66rr776526jMmbmMBVCZFFFFCVMmnnj3&&**6yyp6;*-3jhhhh",
"hhhh5*;&&ipy624456ilzxbnMBZFFFFZCNMmbzjpyy753222555246r7rrypiyttr657767676rxNmMBCCZFGGGFFCNMnxxzr&&&*5eipr3;;rhhhh",
"hhhh%;&&yki72535tilkllzmMVZFFFFFCNMnzjiit775432255225rrr7typiiyttr657665577yxMMBCZFGGGGGFCVmmnnnby*%&*3rijr;;>hhhh",
"hhh5%**yzp6;335tpjjpijlxznVZFFZCNMnzkitt776622;233257rrrrrypiyiprr65576467rrymmMVZFGGGGGFFCNmnxzxly2&**1ryy3-;ihhh",
"hhh&*&ybk7-335rpjiittttrttlzMBnxlzjiitr775552,=22257rrrrrrypittyytr7554457tr6yxxmVFFGGGGFAVMnbxllzzk2%%*1r073-4hhh",
"hhh%&3nxi;-;4ikiyt7433457ibBAFBMlir67546433522;22477rrrrrryiiitryttr744457tt66jbxMAFFGGGFCNnbxllljjli=&&-3r653;hhh",
"hhiO&lby=&--tpir51*$*26ykbBAFGFCmli7;2254;2522;245777r77rryyiyttyttrr34357ttr5rzmbmbNVFVmzlkjjpjiijjpi3&&-3ymM3rhh",
"hh1OrBi;%&;rpy75;&%%25tkzMCAGGGCVnlr2*&45;;422;24577rrrrrryyiyyyyyrr053347ttrr47zzzMZGGGFCzii77rrtiippy;&&*5ZGz&hh",
"hh&&Mn2+&&6ii02*%%&257ijxNCAGGGCBbky5*&252;222;3457rrr77rryiiytyyeyrr71346rtr77tbMmZFGGGGFMzky72566rippt&%&*kGzXhh",
"hhOiCi@++;ii62*%%%;467tplmCFGGFAMbke1*%252232;;2467r7rrrrryiiiyttttrr76336rr77yjbMNZGGGGGZNnzkt62;47tuui5&&%-03#hh",
"hhoCN-++&7ir2*%%&*22456rixCFFGFCNbkt4%+252232;22566rrrrrrryyiytyyrrtrrr533777yipzMBZGGGGGZMxlpyr5;;*5riiy5&%%2r;hh",
"hh4Fr@++4yr2*%@%*;-***247ibCFFFCMbkt2%+273352-34577r0rr000yiittyytttrrr54457ttiplMBZFGGGFZMzjuyrr52**57tjl2&*;tphh",
"h6zn&O+;tr3=&+%*---;333337pnCFCBmzjr*Oo3r3552;2457rrrrrrrryiiytttttrrrr65467tyypzMNZFFGGZCbkiyrrrr52&27jzir*&&6khh",
"htM3OO*6y52*%%&-*-35665555tjMCCNbli7&O%5r3352;3667rrr7rr0rytiitytyyttrr73357ttyikMMVFFFFCMkir75455552237iir5*%;ihh",
"hzlOO%4r63;&%%**-4667666567txBBMxli4&OtyplxbvvNBNBBBBVNMBBBMNVBBBBNBNvvbxlpytyyykmMMCFFZNxi77655322463&23rr72%*7hh",
"hB5 O-7632*&&*&*50666666666rpm75rypxmMmMxzkpytrttjlxnMBCAAACBMnxljttrtypkzxMmMmxpyr57NCVxir7rrrrr5222;*&22465&&;ih",
"hM%XO;732**%%**25r67566655rrryzmmFBrrrrrrrrrwjkzbnmMNNNCCCCCNNNMmnbzkjjiiwwrrrrrBFmmzyrrrr77ttttrrtr;-;*&;2552%%6h",
"hiOO%43=2,$o%*256665565rttjbVZMnikp3rrrttilzxmMNBBVBBNNBBBBBBNBBVBBNMmxzlittrrr3pkinMZVbjttkttrrrryi5;;*&*2354&&2h",
"h; +*72***%%*,555776r7rllxAVir55t>rrrrry5yZMzzzzzzzzzzzzzzzzzzzzzzzzzzzMZy5yrrrrr>t55riVAxllr7trrrrrr5;;&&-235*%;h",
"h+X+;3***-&&-6r555r3yli757f5kbk;y>rrtpp4>ryrrttyysyytyyyiiiyyytyysyyttrryr>4pptrr>y;kbk5f757ily3r77r6562*&-;34;%&r",
"rOO&;;****&&2rrrji7yrr77r8rrrlSMAznMMb8ryyiiippppppppppppppppppppppppiiiiyyrpbMMnzAMSlrrr7r77rrysit77555***;233*%6",
"2O+*;*****%&3r4ipr6rrrrry47VAVmMktrtplppppppppppppppppppppppppppppppppppppppppptrtkMmVAV74yrrrrr7rpi4r6442-*;23-&4"
};
