/* XPM */
static char *_3dfd0cec3ba45d4bd92b674e525be45sepv6PhIua6lPpxJ[] = {
/* columns rows colors chars-per-pixel */
"114 103 60 1 ",
"  c #000001",
". c #0B0B0B",
"X c #1F170B",
"o c #131313",
"O c #1B1B1B",
"+ c #13230B",
"@ c #332B13",
"# c #232323",
"$ c #272727",
"% c #2F2F2F",
"& c #373F27",
"* c #373737",
"= c gray23",
"- c #533F2F",
"; c #3F472B",
": c #53573B",
"> c #67533F",
", c #434343",
"< c gray28",
"1 c #4B4B4B",
"2 c gray31",
"3 c gray34",
"4 c #5B5B5B",
"5 c #6F5743",
"6 c #775F4B",
"7 c #5B6347",
"8 c #6F7357",
"9 c gray39",
"0 c gray42",
"q c #6F6F6F",
"w c #7B7F63",
"e c #777777",
"r c gray50",
"t c #836B57",
"y c #8B735B",
"u c #937B63",
"i c #9B7F6B",
"p c #9F876F",
"a c #AF977F",
"s c none",
"d c #838383",
"f c #8B8B8B",
"g c #939393",
"h c #979797",
"j c #9F9F9F",
"k c #BFA78F",
"l c #A7A7A7",
"z c gray67",
"x c gray70",
"c c #B7B7B7",
"v c gray75",
"b c gray78",
"n c #CBCBCB",
"m c LightGray",
"M c gray86",
"N c #DFDFDF",
"B c #FFDBDB",
"V c #FFEBDB",
"C c #E7E7E7",
"Z c #EFEFEF",
/* pixels */
"ssssssssssssssssssssssssssssssssssssssssssssssssssssssssssssssssssssssssssssssssssssssssssssssssssssssssssssssssss",
"ssssssssssssssssssssssssssssssssssssssssssssssssssssssssssssssssssssssssssssssssssssssssssssssssssssssssssssssssss",
"ssssssssssssssssssssssssssssssssssssssssssssssssssssssssssssssssssssssssssssssssssssssssssssssssssssssssssssssssss",
"ssssssssssssssssssssssssssssssssssssssssssssssssssssssssssssssssssssssssssssssssssssssssssssssssssssssssssssssssss",
"ssssssssssssssssssssssssssssssssssssssssssssssssssssssssssssssssssssssssssssssssssssssssssssssssssssssssssssssssss",
"ssssssssssssssssssssssssssssssssssssssssssssssssssssssssssssssssssssssssssssssssssssssssssssssssssssssssssssssssss",
"ssssssssssssssssssssssssssssssssssssssssssssssssssssssssssssssssssssssssssssssssssssssssssssssssssssssssssssssssss",
"ssssssssssssssssssssssssssssssssssssssssssssssssssssssssssssssssssssssssssssssssssssssssssssssssssssssssssssssssss",
"ssssssssssssssssssssssssssssssssssssssssssssssssssssssssssssssssssssssssssssssssssssssssssssssssssssssssssssssssss",
"ssssssssssssssssssssssssssssssssssssssssssssssssssssssssssssssssssssssssssssssssssssssssssssssssssssssssssssssssss",
"ssssssssssssssssssssssssssssssssssssssssssssssssssssssssssssssssssssssssssssssssssssssssssssssssssssssssssssssssss",
"ssssssssssssssssssssssssssssssssssssssssssssssssssssssssssssssssssssssssssssssssssssssssssssssssssssssssssssssssss",
"ssssssssssssssssssssssssssssssssssssssssssssssssssssssssssssssssssssssssssssssssssssssssssssssssssssssssssssssssss",
"ssssssssssssssssssssssssssssssssssssssssssssssssssssssssssssssssssssssssssssssssssssssssssssssssssssssssssssssssss",
"ssssssssssssssssssssssssssssssssssssssssssssssssssssssssssssssssssssssssssssssssssssssssssssssssssssssssssssssssss",
"ssssssssssssssssssssssssssssssssssssssssssssssssssssssssssssssssssssssssssssssssssssssssssssssssssssssssssssssssss",
"ssssssssssssssssssssssssssssssssssssssssssssssssssssssssssssssssssssssssssssssssssssssssssssssssssssssssssssssssss",
"ssssssssssssssssssssssssssssssssssssssssssssssssssssssssssssssssssssssssssssssssssssssssssssssssssssssssssssssssss",
"ssssssssssssssssssssssssssssssssssssssssssssssssssssssssssssssssssssssssssssssssssssssssssssssssssssssssssssssssss",
"ssssssssssssssssssssssssssssssssssssssssssssssssssssssssssssssssssssssssssssssssssssssssssssssssssssssssssssssssss",
"ssssssssssssssssssssssssssssssssssssssssssssssssssssssssssssssssssssssssssssssssssssssssssssssssssssssssssssssssss",
"ssssssssssssssssssssssssssssssssssssssssssssssssssssssssssssssssssssssssssssssssssssssssssssssssssssssssssssssssss",
"sssssssssssssssssssssssssssssssssssssssssss0gbMbg93<<sssssssssss<<4qhnZNnhssssssssssssssssssssssssssssssssssssssss",
"sssssssssssssssssssssssssssssssssssssssss0ehcCCmxr41<2<sssssss<<*19dznCZmcjessssssssssssssssssssssssssssssssssssss",
"sssssssssssssssssssssssssssssssssssssss19eflbCCmzh0<<,<<sssss<*%*20hcmCCmxzhq2ssssssssssssssssssssssssssssssssssss",
"ssssssssssssssssssssssssssssssssssssss,40dfjvBCmxh02,,*<<sss<*%%,4ehcnCCmvzhr03sssssssssssssssssssssssssssssssssss",
"sssssssssssssssssssssssssssssssssssss,29edgjclre9390qqqqqqqeerrrrreqerhlnclhrq41ssssssssssssssssssssssssssssssssss",
"sssssssssssssssssssssssssssssssssssss149qee9999909edhjcnmmmmmmmcxjrreee099qere03ssssssssssssssssssssssssssssssssss",
"ssssssssssssssssssssssssssssssssssss,20099q99rjbMZZCMnbcccccxvnmCZZZCmclrqe09932<sssssssssssssssssssssssssssssssss",
"ssssssssssssssssssssssssssssssssssse000090zmmZmncljhhhhhhhhhhhhhhjllxmCZZmnhee090essssssssssssssssssssssssssssssss",
"ssssssssssssssssssssssssssssssssse0009dbMmvvjlzlzzhgffffrrrrrdfgghjjlxbbMMNZZmhqqqq0ssssssssssssssssssssssssssssss",
"ssssssssssssssssssssssssssssssse0000hnnzzjjxxvcllhffddddeeeeerrddfjllvbmbcvxMMNNce0990ssssssssssssssssssssssssssss",
"ssssssssssssssssssssssssssssse000qzbjhhhlllxnmnxlhffeeeqqqqqqqedrfjlzvnmmvvbccznmCle0990ssssssssssssssssssssssssss",
"ssssssssssssssssssssssssssss0009dhfdddghhhlcmBvxjhfreeqqqqqqqqqeerfjlxbmmvxxcxjjhlnnz0000sssssssssssssssssssssssss",
"sssssssssssssssssssssssssss000dgeeqeeeeeedgjvvzlhgreqq000qqqqqq000efghcmncxzhffhffegxxjr000sssssssssssssssssssssss",
"sssssssssssssssssssssssss909eld0q99994444949dgdde0000000999900009440ergxxhrre400eeeeejccjqq0ssssssssssssssssssssss",
"ssssssssssssssssssssssss449dq99494341,=%=40gbMbg932234999999999322<4qhnZNnhe422340eeqqejzje90sssssssssssssssssssss",
"sssssssssssssssssssssss24qeq4443421,%#%10ehcCCmxr41<234434e44322<*19dznCZmcje4,,<399900ergzd99ssssssssssssssssssss",
"ssssssssssssssssssssss,4dd94444311,$#$19eflbCCmzh0<<,<2223e32<<*%*20hcmCCmxzhq2*%,23900qeefhe04sssssssssssssssssss",
"sssssssssssssssssssss,2qq93312321,##%,40dfjvBCmxh02,,*<2229,=**%%,4ehcnCCmvzhr03*%,14490qerfhd93ssssssssssssssssss",
"ssssssssssssssssssss22q093341122,##%,29edgjcnnvlf92,,**,<,3******<4ehxbCCnclhrq41%$=24490erdfjr33sssssssssssssssss",
"sssssssssssssssssss2<0e93232121<$#%=149qedgjvbclfq2,;****10%#$%==14qglcmmxjhfre03,%#,3490erdffhe43ssssssssssssssss",
"ssssssssssssssssss2<9994432212,%#$*,29900erglvvjd021,*$%=qh=$#%==240fhzczjgdreq92<,%%2399erfgggge24sssssssssssssss",
"sssssssssssssssss2<3q999443232*##%*,390000erhxcjd93<,%$#-eh,%$@=*240rhhgfrdeqqq442,=#<299erhggggfe2sssssssssssssss",
"sssssssssssssssss2409944943<<2%%$*<39000e0eeggjhd93<;%#O,49=%$%*=240ddrrreeqq00994<,%<190edgggggdg94ssssssssssssss",
"ssssssssssssssss24994449093<1=$%%=29eq000q0qdgffe93<;%##=49=##%%=140eeqqereqq0000412=*,0ergggffdrdd94sssssssssssss",
"ssssssssssssssss,9994499093<,%$%=,9req0qq00effdre93:;,$#=qr;##,*=139qq0qddeq0eee002<,*<0rghlhfddrree4sssssssssssss",
"sssssssssssssss<499449000932,$#**<qrqqq0000qfrrre04<,7@X=dl*##<=*1390000edreeqqeeq41<**rgjzjhddrreee04ssssssssssss",
"sssssssssssssss2994499900932,#%==3deeqq0000edrree93<,9%o,hx<##2=,2999999ereeqqqerr921=$gjxzjgdeeeeeed3ssssssssssss",
"ssssssssssssss,8q44999999932<#%,*9eeeq00000edeeee93129$X<cc<##2,,2990900efeqqqqqed93<<$jczjgreqeeeeed02sssssssssss",
"ssssssssssssss1q943944999422,#%,,9ree0q0000ereeee97224$#<cc<##2,,2990000rdeqqqqqerr4<<$zzjgdeeeeeeeeer3sssssssssss",
"sssssssssssss,49429q99499411=#%,2eeqqq00000edeq0009149$$1vc1$$3,,3999900eeeqqqqqqer91<=jggdreeeeeeeeedesssssssssss",
"sssssssssssss,99449424332421=%,29qeqqqq0000eeeete89390,=4cz2,<9<,3999099edeqqqqqqer01<<ereq0qqqqqqeeeer4ssssssssss",
"sssssssssssss1994492343<,,<1%%,49eeeqqq0900eueeeewggzvxnvmMnmnnxzggeq099edeeqqqqqedq2<<9q4499000000eeee9ssssssssss",
"ssssssssssss,399344321,%*<,<,*<90ee0000099qeerddfee88w8wrdrerrrdfghxclhhdreeeeqqeere4<3dq91<=<33990eree9ssssssssss",
"ssssssssssss,9972333<%%%$%,22,290eeq000q9qq9440rhvmmZZZZZZZZZZZZmnvxgqqeefhhdeeeerre913lr04<**<1300rrree9sssssssss",
"ssssssssssss19923391*$##%%,49=9q9e009994<9ejvmnvzjgyt522-2-244uudlcnmCVnhe00errrrere014vge042*$*290rfrre9sssssssss",
"sssssssssss3409339<*$oO%,,289*88399223erddd9:,$*%=**=%=*=**,,,,,%****,:egvmche99erdee32mche901%$%39effre9sssssssss",
"sssssssssss3909444=$O$**<14e03922:29eq9,;*%*%%%$$##$$$$$$$$$$$$$$%=%%*****<3ecbhr40qr9<bcjd092,$#,9qefreqsssssssss",
"sssssssssss3909941#O#%*,1400411249931=%%%%$%$#$#%$%$$$$$$$$$$#$%$%%#$%%%%*===-2rhlje499gllge042,$$3qqrrrqsssssssss",
"sssssssssss399942=##%%,<494311493,*%*%%%%%%$$$%###$#########%%####%$$%$$%=*<,=,<<:rhd939egge092<,#=90erre9ssssssss",
"sssssssssss499932$#%,,23222292,%%*=*,,<21<=*%$####$$$%%%%%%%%%$$%#%%%%%,<299323<<<<>9eee33qeq03222*30erre9ssssssss",
"sssssssssss90009<$%,<3322222;%@%%*<<240rghr41,,124499993zvz3eeeeq941,<20fzxlhfe0411<,<2egr940q9333*=0eeed9ssssssss",
"sssssssssss0eee0<%,241<qh9=*%%%*,<2499rfhlhq99900q099112NZC4149eeeeee00ehvmclhfee9311,=14ehf23q0442*4erderssssssss",
"sssssssssss0rdeq<<32<20q1**$%**,<124990e9q9999000000932=ZZZ2449qqe0qeqeqqrgrgfree0941,===14fhe3004402eedfqssssssss",
"sssssssssssq0re0222<77:%%%#$%*=,11499990000900004999441$hNl,490eeqqeqqqqeeeeqee0094431===*=10rf4400g;2ede9ssssssss",
"sssssssssssq8e0932<99,%#%%#$@,=1490090909099994322,<<===,31,,,,22440qqeqqeqe00qq009441<,%%%==1ef929q22qee0ssssssss",
"ssssssssssseqq93,292%%$#$##%,249000000099431<,,=%==,,,,<121,,,,,,,,,-234999qq00qe000041,%%%=%=1qr92q440q0qssssssss",
"sssssssssssr0q4123=@#$$###%399009000941<,,==*,,,=,,,23999909933<,<,,,,=,,,<390000q00e002,=**%*=<4q0499099essssssss",
"sssssssssssg94<34=$$###$*4000000992,;%%;&&==<3ehlbmCCZZZZZZZZZZNMblf942<,,=,==<399999qqqq4=*$%%%*2q049qe9essssssss",
"sssssssssssh<121%%#####290000991,,%%%&==19dcMCZZZZZCmmmbbbmmmCCCZZZZZZMbhq3<=====<369888qee3**%%%,1904409sssssssss",
"sssssssssss9<2<$#$##$200900942=%%***,4ecCCZZCCCMnbzljhghgjjhhjlzxcvnNCZZZZZvr9<**%%%<400qqee02%$%%*<39449sssssssss",
"sssssssssse=2,$#$##*9qq9993,*%%%%=9dvMCCCCCCCCCnbzjhhgghhhhjhhhjlxcbnmNCZZZZZZbd4=%%%$,39e0eew9*$$%*,4011sssssssss",
"ssssssssse*1=$$##$3999092=*====2ecmmmMCCCCZCCCMczjhhhddfggffghghhzzccnNCCZZCCCCCCce<%%%@%:9t8eeq3%%$*<42,sssssssss",
"sssssssse,=&%###%909992,=====4fzxccccnmMCCZCCMbcljhhffdddfffffffhjllxbmNCZZZCMMMMmCmf<$$$%%1qeeee4%#%%=441ssssssss",
"ssssssss,,,%$##,99009===,=<4fhhhgdfdupgvmmMmvxjjhhhhfdrdddfddffffggfhjzcMMCCMbcczjxcnmh2$$$$=29tee9,$%*1211sssssss",
"sssssssf%,%###<99991=,<<<0rgdr00924114qhvxjgrrrdfddfderddfddeffdeeqqqqrhcMCMxhdeedddjlxcg3$$$$,78te01$%*,4,essssss",
"sssssss,&%$O$29392,=<<14dffe942,*%*19dhcmMmche9340qeerrrfrreerre04439egcMZZZmche9440edfhzxh<$##@<0qe02%%,241ssssss",
"sssssse%%$#%9e92,=<<<9ddrq941,%%%<3qdjvMCCCMcld911400eeereeeee092,19qglmCZZCMnzhr92,19qrfhgld,##$,900q2%%=314sssss",
"ssssss%%##$9de3,,<113ehq993,*@#%,20efzcMCZZMvzge92<1990eeee09492=,49dhxnCCZCMvzhd041=140eeehcl,###%389q4%*=11sssss",
"ssssse#$#$3fe9==<<<30e0922,%##%,2990qravMCCMvxfeq3<=<330ee04321,,29qrjznMMMmxhfdrq04<*=40qeergr&+X#%29qe1$%2=9ssss",
"sssss@###9hd9,===<994422<<,$#$&,21----2qzMCmcjfe0921,,140q93<,,22390rgxcncjr944449992,%=3490qerr9#+#%20ee3*,<<ssss",
"sssseO$#9jg9%=<,2909222<=*$#%%;&&&,,<,,,4rzvjgre0442,=*10q4<,=113390egjxhe443332213241=$=344900ef9#O#%2eee2$,=ssss",
"ssss=O#2lhe*%=<<344221<,*$#$%,%%,,22222234qaade09443<=$=901*%,111449qdhj9440q000921<221=$=2399990e3%##$2ere1==4sss",
"ssss#o*jxe%$%*<323221<,=%##%&&%,33322234999edde09331<*%=4q2$%%122249eee9240eeee0994,,11,%%,3999909q9%##%3ed0=*<sss",
"ssseo$dge*$$*=1322<1,<,%@#$%**,2277332499090qeq93331<%$,301%#%1222399993490eqqe99992<,<<=%=14900990q4$O#%3dd4%*sss",
"sss= qvd%O$%,2333331<,=%$#@%%,2293334444000900004431,%#,3q3%#$<221290923400eeq0qq0992,,,,**<4999q99997%+#%3fd3$9ss",
"sss$$mg<O#$=23222221<<%$$$%%,224994444440999999992::,$$,9e3%#$,1<1349344440eeqqq999893,<,===3990q099892$O#%9he*=ss",
"sse rMrO+O$13<<243212,%#%%%=144444444449000999099321,$$10f4%#%,,<2293334490q00000000941<1<==399eee099991##$,rg4$ss",
"ssqomr#oO$=4331334411,=$%%$<404444433449000099999421<%$1dh9$#%,,,1222233440000q000q99041====29edfeq09794=##%2ff$es",
"ss*4n*oo$,2211244443<*%%%%%2999494443449000099444423<$$3ej9%#%11,22223434400qq00009q9992,,,=29rhhreq99994=$$%9h13s",
"ss1cdooO*21111134992:%#%%%&29993344444499999993533131$$3fj9%$*11<12223344400eeeqq0000003=,,,3egljfee004493&#%<dr3s",
"ssfb$oo$<11,<<2433992%#%%%<4994443434339999999943332<$#3da9%$%<<<,1223333340000qq0q00093<==14ejxjgre0944341$$$9d9s",
"ssxeooo*1<,<,<2429903%#%*,24944443333349099009994322,$#3ra3%$%11,,12233433990009009000091=,,4fxxxggre943993&#$,rrs",
"ssz, o#12,,,,,<324900%$%*<34444444222444099999944421,$$2rp5%#%,<,,<2223333990009999000q92,,19gcczjgre044232,$#%0gs",
"ss0oo#,2,=,,,,<234900<$%,13444332232230qrgjlkkvbvbbbbnvcbbbcvnbbbbvbvkkljgrq00990000qqq931130rjjjhgre0944392*#$<es",
"ss$ o$2,,,,,,,,2244901%%<24449429qrjxcxcjhfrq090eeerrrrrrrrrerreeee090qrfhjcxcxjrq92400943290erfffde00043224,$#$0s",
"seo #,2,,,,,,,<,22242,%*24999qhxxCb99999000000qqqqqqqqqqqqqqqqqqqqqqq99999999999bCxxhq99944900999ee0qq0442222*##<s",
"sq o#22,,,,,,,,,==,,<**900dlnMczefr<99900eghjxcvbbnbbvvxjjjxvvbbnbbvcxjhge00999<rfezcMnld004099999q0999432333,$#=s",
"s,.o%2<,,,,,,%%%%%,2949ggjNne9220-99999q2qMchfeddddrqqdfffffdqqrddddefhcMq2q99999-0229enNjgg944434444942222222%#%e",
"s#o#<21,,,,*$##$%,9<qge424i2flf=q-990rr1-9q9900qqqqq0qqqeeeqqq0qqqqq0099q9-1rr099-q=flf2i424egq<93322343112222,$$9",
"qoo$3<<,,=%$oO$9deyq995595999gBcNhzccl59qqeeerrrrrrrrrrrrrrrrrrrrrrrreeeeqq95lcczhNcBg999595599qy44<2124211222<%%2",
"9o#*<<,<*%#OO91er9999999q14nNnxcf090rgrrrrrrrrrrrrrrrrrrrrrrrrrrrrrrrrrrrrrrrrr090fcxnNn41q9999939re44113211231%%<"
};
