/* XPM */
static char *_2a5af45088e4ba1ca77947c5614b2a3VQtCiwDNxhUclhKW[] = {
/* columns rows colors chars-per-pixel */
"64 64 66 1 ",
"  c #000001",
". c #0B0B0B",
"X c #131313",
"o c #1B1B1B",
"O c #232323",
"+ c #272727",
"@ c #2F2F2F",
"# c gray23",
"$ c #430000",
"% c #4F0000",
"& c #5B0707",
"* c #5F0707",
"= c #670B0B",
"- c #6B0F0F",
"; c #731313",
": c #7F1B1B",
"> c #732B00",
", c #1F4317",
"< c #27531B",
"1 c #2F6323",
"2 c #37732B",
"3 c #774F2B",
"4 c #434343",
"5 c gray28",
"6 c gray34",
"7 c #6F5743",
"8 c #7B634F",
"9 c #831F1F",
"0 c #8B2323",
"q c #8F2B2B",
"w c #972F2F",
"e c #9B3333",
"r c #A33B3B",
"t c #A73F3F",
"y c #CB0000",
"u c red",
"i c #FF1F1F",
"p c #FF3F3F",
"a c #874307",
"s c #9B5B13",
"d c #AF7B1F",
"f c #AF4747",
"g c #B34F4F",
"h c #BB5757",
"j c #BF5B5B",
"k c #836B57",
"l c #FF5F5F",
"z c #C76363",
"x c #DB7B7B",
"c c #FF7B7B",
"v c #3F832F",
"b c #439337",
"n c #4B9F3F",
"m c #53AF47",
"M c #5BBF4F",
"N c #5FCF57",
"B c #67DF5F",
"V c #C39B2F",
"C c #FF9F43",
"Z c #D7BB43",
"A c #EBDB57",
"S c #FFE74B",
"D c #000000",
"F c #FF9B9B",
"G c #FFBBBB",
"H c #FFDBDB",
/* pixels */
"DDDDDDDDDDDDDDDDDDDDDDDDDDDDDDDDDDDDDDDDDDDDDDDDDDDDDDDDDDDDDDDD",
"DDDDDDDDDDDDDDDDDDDDDDDDDDDDDDDDDDDDDDDDDDDDDDDDDDDDDDDDDDDDDDDD",
"DDDDDDDDDDDDDDDDDDDDDDDDDDDDDDDDDDDDDDDDDDDDDDDDDDDDDDDDDDDDDDDD",
"DDDDDDDDDDDDDDDDDDDDDDDDDDDDDDDDDDDDDDDDDDDDDDDDDDDDDDDDDDDDDDDD",
"DDDDDDDDDDDDDDD<DDDDDDDDDDDDDDDDDDDDDDDDDDDDDDDDDDDDDDDDDDDDDDDD",
"DDDDDDDDDDDDDDDvDDDDDDDDDDDDDDDDDDDDDDDDDDDDDDDDDDDDDDDDDDDDDDDD",
"DDDDDDDDDDDDDDDbDDDDDDDDDDDDDDDDDDDDDDDDDDDDDDDDDDDDDDDDDDDDDDDD",
"DDDDDDDDD<vvbv1b<DDDDDDDDDDDDDDDDDDDDDDDDDDDDDDDDDDDDDDDDDDDDDDD",
"DDDDDDDDDDD,2bvbv<DDDDDDDDDDDDDDDDDDDDDDDDDDDDDDDDDDDDDDDDDDDDDD",
"DDDDDDDDDDDD,2bbbv1DDDDDDDDDDDDDDDDDDDDDDDDDDDDDDDDDDDDDDDDDDDDD",
"DDDDDDDDDDDDD<vbbbv2,DDDDD,1vbvv1,DDDDDDDDDDDDDDDDDDDDDDDDDDDDDD",
"DDDDDDDDDDDDDD2bbv2111,DD<2bbmnbbv221,DDDDDDDDDDDDDDDDDDDDDDDDDD",
"DDDDDDDDDDDDDD,bv<111vbvvbnnnmnbbvv221<,DDDDDDDDDDDDDDDDDDDDDDDD",
"DDDDDDDDDDDDDDDv2DDD<bnnnnnnnbv<DD,12211<,DDDDDDDDDDDDDDDDDDDDDD",
"DDDDDDDDDDDDDDD21,D,vbnnnnnbb1<DDDDD,121112,DDDDDDDDDDDDDDDDDDDD",
"DDDDDDDDDDDDDDD112<vvnbv2vnnnbb<DDDDDD,<21v2<DDDDDDDDDDDDDDDDDDD",
"DDDDDDDDDDDDDDD,12vvbv<DD,vnmmmb,DDDDDDD<22vv<DDDDDDDDDDDDDDDDDD",
"DDDDDDDDDDDDDDDDvvvbv<DDDD1bnmmnv1,DDDDDD<2vnv,DDDDDDDDDDDDDDDDD",
"DDDDDDDDDDDDDDDDvbbv<DDDDDD1vnmmnv2,DDDDDD<vnbvDDDDDDDDDDDDDDDDD",
"DDDDDDDDDDDDDDD<bbv<DDDDDDDD,2bbbvvv1,DDDDD1bmn<DDDDDDDDDDDDDDDD",
"DDDDDDDDDDDDDD,2bbvDDDDDDDDDDDDD,1vv22<,DDD<vmmv,DDDDDDDDDDDDDDD",
"DDDDDDDDDDDDDD1vbbbDDDDDDD-:90-DDD,1211221,D1mmn2DDDDDDDDDDDDDDD",
"DDDDDDDDDDDDDDvbbbnDDDD-00qrtfeq0-D,<122vv2<,nmmbDDDDDDDDDDDDDDD",
"DDDDDDDDDDDDD,vbnnn,DD-0qettghjhgf0;DD,1vvvbvnMmn,DDDDDDDDDDDDDD",
"DDDDDDDDDDDDD1bnmmn1DDq0:-=-*&&-0thf:;DD,1vnnmmmm1DDDDDDDDDDDDDD",
"DDDDDDDDDDDDDvbmnMmb-q:;=%>a>$$$$>:fhq:DDD,2bmmmmv,DDDDDDDDDDDDD",
"DDDDDDDDDDDDDbbm2MNm,0-&%fsda$$$$>a;qhfe:DDD<nmmmn2,DDDDDDDDDDDD",
"DDDDDDDDDDDDDbnM,MNm1f:&fxVAZa$>1Nns3:-qr;DDD2nmmnvv1,DDDDDDDDDD",
"DDDDDDDDDDDDDnMN2MNMv9-pcFVZAVasdVZVFrw-;q*DD<vmmb22v2,DDDDDDDDD",
"DDDDDDDDDDDDDnMNvmBMnf0:pcGVZZVdVZVFHzlww*0DDD2mn22vv1,DDDDDDDDD",
"DDDDDDDDDDDDDnMNbnBMm99e:ucFddddddcGFcilysrDDD<bv2v2<DDDDDDDDDDD",
"DDDDDDDDDDDDDbmNm2NNmq;9ef:uuipipppiuupqftqDD<2vv21,DDDDDDDDDDDD",
"DDDDDDDDDDDDD2nmN,MNmD:;qqfflppplplqeft9--D,1vvv2<,DDDDDDDDDDDDD",
"DDDDDDDDDDDDD,bmN1mMnDDD;99qqettfffteq9=D,<122vv1DDDDDDDDDDDDDDD",
"DDDDDDDDDDDDDD2nmvvMnDDDD-;:9900009:;-D,11111<22<DDDDDDDDDDDDDDD",
"DDDDDDDDDDDDDD,vmn1mbDDDDDDDDDDDDDDD,122211<,121<DDDDDDDDDDDDDDD",
"DDDDDDDDDDDDDDD,nmbmb,DDDDDDDDDDDD,1vbv11<,D,<1<DDDDDDDDDDDDDDDD",
"DDDDDDDDDDDDDDDD2mmmn1DDDDDDDDD,1vnnbv2<,DDD,<<,DDDDDDDDDDDDDDDD",
"DDDDDDDDDDDDDDDD,vmmmvDDDDDDD,2vnnnbv1,DDDD,<<,DDDDDDDDDDDDDDDDD",
"DDDDDDDDDDDDDDDDD1bmmb,DDDD,2bbnnbbv<DDDDD,<<<DDDDDDDDDDDDDDDDDD",
"DDDDDDDDDDDDDDDDDD1nmn1DDD1vnmmnnv1,DDDD,21<<,DDDDDDDDDDDDDDDDDD",
"DDDDDDDDDDDDDDDDDDDnmnv<D,2nmnnv1,DDDDD,2v1<,DDDDDDDDDDDDDDDDDDD",
"DDDDDDDDDDDDDDDDDDDvmnbvbbbbnb2,DDD,1vbbv21,DDDDDDDDDDDDDDDDDDDD",
"DDDDDDDDDDDDDDDDDD1bnbbbvvbbnnnnbbbbbbnn22,DDDDDDDDDDDDDDDDDDDDD",
"DDDDDDDDDDDDDDDDD,vbbbvv<2vbnmmnnnnnnbv2,DDDDDDDDDDDDDDDDDDDDDDD",
"DDDDDDDDDDDDDDDDDvbbvv1,D,12vbbbbvv21,DDDDDDDDDDDDDDDDDDDDDDDDDD",
"DDDDDDDDDDDDDDDD,bvv2,DDDDDDDDDDDDDDDDDDDDDDDDDDDDDDDDDDDDDDDDDD",
"DDDDDDDDDDDDDDD,2v1,DDDDDDDDDDDDDDDDDDDDDDDDDDDDDDDDDDDDDDDDDDDD",
"DDDDDDDDDDDDDDDDDDDDDDDDDDDDDDDDDDDDDDDDDDDDDDDDDDDDDDDDDDDDDDDD",
"DDDDDDDDDDDDDDDDDDDDDDDDDDDDDDDDDDDDDDDDDDDDDDDDDDDDDDDDDDDDDDDD",
"DDDDDDDDDDDDDDDDDDDDDDDDDDDDDDDDDDDDDDDDDDDDDDDDDDDDDDDDDDDDDDDD",
"DDDDDDDDDDDDDDDDDDDDDDDDDDDDDDDDDDDDDDDDDDDDDDDDDDDDDDDDDDDDDDDD",
"DDDDDDDDDDDDDDDDDDDDDDDDDDDDDDDSDDDDDDDDDDDDDDDDDDDDDDDDDDDDDDDD",
"DDDDDDDDDDDDDDDDDDDDDDDDDDDDDDDSDDDDDDDDDDDDDDDDDDDDDDDDDDDDDDDD",
"DDDDDDDDDDDDDDDDDDDDDDDDDDDDDDkC8DDDDDDDDDDDDDDDDDDDDDDDDDDDDDDD",
"DDDDDDDDDDDDDDDDDDDDDDDDDDDDDO787#DDDDDDDDDDDDDDDDDDDDDDDDDDDDDD",
"DDDDDDDDDDDDDDDDDDDDDDDDDDDDD #65ODDDDDDDDDDDDDDDDDDDDDDDDDDDDDD",
"DDDDDDDDDDDDDDDDDDDDDDDDDDDDD O#+ DDDDDDDDDDDDDDDDDDDDDDDDDDDDDD",
"DDDDDDDDDDDDDDDDDDDDDDDDDDDDD O#O DDDDDDDDDDDDDDDDDDDDDDDDDDDDDD",
"DDDDDDDDDDDDDDDDDDDDDDDDDDDDD o@X DDDDDDDDDDDDDDDDDDDDDDDDDDDDDD",
"DDDDDDDDDDDDDDDDDDDDDDDDDDDDD X+X DDDDDDDDDDDDDDDDDDDDDDDDDDDDDD",
"DDDDDDDDDDDDDDDDDDDDDDDDDD... XoX ..DDDDDDDDDDDDDDDDDDDDDDDDDDDD",
"DDDDDDDDDDDDDDDDDDDDDDD.ooooXoOOOoXooo.DDDDDDDDDDDDDDDDDDDDDDDDD",
"DDDDDDDDDDDDDDDDDDDDDDDDD.oO@@44@@Oo.DDDDDDDDDDDDDDDDDDDDDDDDDDD"
};
