/* XPM */
static char *f9687941d5c1419e86e62d71c66beafbIxYsZVPPI1BwsSmU[] = {
/* columns rows colors chars-per-pixel */
"64 64 68 1 ",
"  c #000001",
". c #0B0B0B",
"X c #131313",
"o c #1B1B1B",
"O c #3F2F17",
"+ c #232323",
"@ c #272727",
"# c #2F2F2F",
"$ c gray23",
"% c #430000",
"& c #4F0000",
"* c #5B0707",
"= c #5F0707",
"- c #670B0B",
"; c #6B0F0F",
": c #731313",
"> c #7F1B1B",
", c #732B00",
"< c #1F4317",
"1 c #27531B",
"2 c #2F6323",
"3 c #37732B",
"4 c #434343",
"5 c gray28",
"6 c gray34",
"7 c #6F5743",
"8 c #7B634F",
"9 c #831F1F",
"0 c #8B2323",
"q c #8F2B2B",
"w c #972F2F",
"e c #9B3333",
"r c #A33B3B",
"t c #A73F3F",
"y c #CB0000",
"u c red",
"i c #FF1F1F",
"p c #FF3F3F",
"a c #874307",
"s c #9B5B13",
"d c #AF7B1F",
"f c #8F5F37",
"g c #AF4747",
"h c #B34F4F",
"j c #BB5757",
"k c #BF5B5B",
"l c #836B57",
"z c #FF5F5F",
"x c #C76363",
"c c #DB7B7B",
"v c #FF7B7B",
"b c #3F832F",
"n c #439337",
"m c #4B9F3F",
"M c #53AF47",
"N c #5BBF4F",
"B c #C39B2F",
"V c #D78B5B",
"C c #FF9F43",
"Z c #D7BB43",
"A c #EFA373",
"S c #F7AB7B",
"D c #EBDB57",
"F c #FFE74B",
"G c #000000",
"H c #FF9B9B",
"J c #FFBBBB",
"K c #FFDBDB",
/* pixels */
"GGGGGGGGGGGGGGGGGGGGGGGGGGGGGGGGGGGGGGGGGGGGGGGGGGGGGGGGGGGGGGGG",
"GGGGGGGGGGGGGGGGGGGGGGGGGGGGGGGGGGGGGGGGGGGGGGGGGGGGGGGGGGGGGGGG",
"GGGGGGGGGGGGGGGGGGGGGGGGGGGGGGGGGGGGGGGGGGGGGGGGGGGGGGGGGGGGGGGG",
"GGGGGGGGGGGGGGGGGGGGGGGGGGGGGGGGGGGGGGGGGGGGGGGGGGGGGGGGGGGGGGGG",
"GGGGGGGGGGGGGGGGGGGGGGGGGGGGGGGGGGGGGGGGGGGGGGGGGGGGGGGGGGGGGGGG",
"GGGGGGGGGGGGGGG1GGGGGGGGGGGGGGGGGGGGGGGGGGGGGGGGGGGGGGGGGGGGGGGG",
"GGGGGGGGGGGGGGGnGGGGGGGGGGGGGGGGGGGGGGGGGGGGGGGGGGGGGGGGGGGGGGGG",
"GGGGGGGGG1bnnb2b2GGGGGGGGGGGGGGGGGGGGGGGGGGGGGGGGGGGGGGGGGGGGGGG",
"GGGGGGGGGG<3nnbbb<GGGGGGGGGGGGGGGGGGGGGGGGGGGGGGGGGGGGGGGGGGGGGG",
"GGGGGGGGGGGG<3bbb31<GGGGGGGGGGGGGGGGGGGGGGGGGGGGGGGGGGGGGGGGGGGG",
"GGGGGGGGGGGGG<2bbb321<GGG<2bnmmmmnbb2<GGGGGGGGGGGGGGGGGGGGGGGGGG",
"GGGGGGGGGGGGGG1bbb31132<2bnnmMMMmmnbb3<GGGGGGGGGGGGGGGGGGGGGGGGG",
"GGGGGGGGGGGGGGG3b21<2333bnnmMMMMMmmnbb32<GGGGGGGGGGGGGGGGGGGGGGG",
"GGGGGGGGGGGGGGG33GGG13bbnnmmmmnnnnnnbbbb32<GGGGGGGGGGGGGGGGGGGGG",
"GGGGGGGGGGGGGGG32GG133bbnmmm3<GGGGGG<23bbb3<GGGGGGGGGGGGGGGGGGGG",
"GGGGGGGGGGGGGGG<1G133bbbnmMmmnb2<GGGGG<2bnnb2GGGGGGGGGGGGGGGGGGG",
"GGGGGGGGGGGGGGG<1133bb2<bnnMMmmnb2GGGGGG2nnmb2GGGGGGGGGGGGGGGGGG",
"GGGGGGGGGGGGGGG<123bb1GG<3bnmMMmmn2GGGGGG2nmmb<GGGGGGGGGGGGGGGGG",
"GGGGGGGGGGGGGGG123bb1GGGGG<3nmmMMmb2<GGGGG2nmn3GGGGGGGGGGGGGGGGG",
"GGGGGGGGGGGGGGG123b2GGGGGGGG<3nmmMnbb2<GGG<bnmn<GGGGGGGGGGGGGGGG",
"GGGGGGGGGGGGGGG23b3<GGGGGGGGGG<3nmnnb3b2<GG<bmn3GGGGGGGGGGGGGGGG",
"GGGGGGGGGGGGGG<33b3GGGGGGG;>90;GG<3bbb3bb2<G2nmn<GGGGGGGGGGGGGGG",
"GGGGGGGGGGGGGG23bbbGGGG;00qrtgeq0;G<23bbnbb2<3mn2GGGGGGGGGGGGGGG",
"GGGGGGGGGGGGGG3bbbbGGG;0qetthjkjhg0:GG<2bnmnb2mmb<GGGGGGGGGGGGGG",
"GGGGGGGGGGGGGG3bbnbGGGq0>;-;=**;0tjg>:GG<3nmmmmmn2GGGGGGGGGGGGGG",
"GGGGGGGGGGGGGG3b3nnG;q>:-&O,aa,%%&>gjq>GGG<3nmmmmb<GGGGGGGGGGGGG",
"GGGGGGGGGGGGGGbn<bmGq0;*&gfsdda%<3,:qjge>GGG<3nmnnb2<GGGGGGGGGGG",
"GGGGGGGGGGGGGGbnG3m1gg>*gcAdBDB,2Mbds>;qr:GGGG2mbbnnb2<GGGGGGGGG",
"GGGGGGGGGGGGGGbmG<Mb19;pvHKJdZDd,sdZdrw;:q=GGGGnb12bnnb<GGGGGGGG",
"GGGGGGGGGGGGGGnmGGMn3g0>pvHJVdZBddZBdxzww=0GGGG332bnnb<GGGGGGGGG",
"GGGGGGGGGGGGGGnm<GMMm19e>uvvHSddddddSvizysrGGG1233nb3<GGGGGGGGGG",
"GGGGGGGGGGGGGGnm3GMNM3:9eg>uuipipppiuupqgtqGG<2223b2<GGGGGGGGGGG",
"GGGGGGGGGGGGGGnmbGMNMb>:qqggzpppzpzqegt9;;GG<<12232GGGGGGGGGGGGG",
"GGGGGGGGGGGGGGnmM<nNMnGG:99qqettgggteq9-GG<<<1121<GGGGGGGGGGGGGG",
"GGGGGGGGGGGGGGbmN3bNMnGGG;:>9900009>:;GG<<<<1111<GGGGGGGGGGGGGGG",
"GGGGGGGGGGGGGGbmMnnMMnGGGGGGGGGGGGGGG<232<1GG111GGGGGGGGGGGGGGGG",
"GGGGGGGGGGGGGG2nMMMMmnGGGGGGGGGGGG<2333221GG<<<<GGGGGGGGGGGGGGGG",
"GGGGGGGGGGGGGG<bMMMMmbGGGGGGGGGG<23bb321<GGG<<<GGGGGGGGGGGGGGGGG",
"GGGGGGGGGGGGGGG2nMMMmbGGGGGGGG<23bbb31<GGGG<<<<GGGGGGGGGGGGGGGGG",
"GGGGGGGGGGGGGGG<bmMMmbGGGGG<2bnnnb32<GGGGG<2<<GGGGGGGGGGGGGGGGGG",
"GGGGGGGGGGGGGGGG1bmMmn1GG<2bnmmnb2<GGGGG<231<GGGGGGGGGGGGGGGGGGG",
"GGGGGGGGGGGGGGGGG1bmmm312bnmmnbb<GGGGG<23331GGGGGGGGGGGGGGGGGGGG",
"GGGGGGGGGGGGGGGGGG1bmnnnnnnnnb2<GGGGG<3bb32<GGGGGGGGGGGGGGGGGGGG",
"GGGGGGGGGGGGGGGGGGG2nnbbbnnnb2GGGG<2bbnbb2<GGGGGGGGGGGGGGGGGGGGG",
"GGGGGGGGGGGGGGGGGG2bnbb33bnnnnmnnnnnnbb32<GGGGGGGGGGGGGGGGGGGGGG",
"GGGGGGGGGGGGGGGGG<bnb2<GG<23bnnmnbb32<GGGGGGGGGGGGGGGGGGGGGGGGGG",
"GGGGGGGGGGGGGGGG2bb2<GGGGGGGGGGGGGGGGGGGGGGGGGGGGGGGGGGGGGGGGGGG",
"GGGGGGGGGGGGGGG<32<GGGGGGGGGGGGGGGGGGGGGGGGGGGGGGGGGGGGGGGGGGGGG",
"GGGGGGGGGGGGGGGGGGGGGGGGGGGGGGGGGGGGGGGGGGGGGGGGGGGGGGGGGGGGGGGG",
"GGGGGGGGGGGGGGGGGGGGGGGGGGGGGGGGGGGGGGGGGGGGGGGGGGGGGGGGGGGGGGGG",
"GGGGGGGGGGGGGGGGGGGGGGGGGGGGGGGGGGGGGGGGGGGGGGGGGGGGGGGGGGGGGGGG",
"GGGGGGGGGGGGGGGGGGGGGGGGGGGGGGGGGGGGGGGGGGGGGGGGGGGGGGGGGGGGGGGG",
"GGGGGGGGGGGGGGGGGGGGGGGGGGGGGGGCGGGGGGGGGGGGGGGGGGGGGGGGGGGGGGGG",
"GGGGGGGGGGGGGGGGGGGGGGGGGGGGGGGFGGGGGGGGGGGGGGGGGGGGGGGGGGGGGGGG",
"GGGGGGGGGGGGGGGGGGGGGGGGGGGGGGlF8GGGGGGGGGGGGGGGGGGGGGGGGGGGGGGG",
"GGGGGGGGGGGGGGGGGGGGGGGGGGGGG+787$GGGGGGGGGGGGGGGGGGGGGGGGGGGGGG",
"GGGGGGGGGGGGGGGGGGGGGGGGGGGGG $65+GGGGGGGGGGGGGGGGGGGGGGGGGGGGGG",
"GGGGGGGGGGGGGGGGGGGGGGGGGGGGG +$@ GGGGGGGGGGGGGGGGGGGGGGGGGGGGGG",
"GGGGGGGGGGGGGGGGGGGGGGGGGGGGG +$+ GGGGGGGGGGGGGGGGGGGGGGGGGGGGGG",
"GGGGGGGGGGGGGGGGGGGGGGGGGGGGG o#X GGGGGGGGGGGGGGGGGGGGGGGGGGGGGG",
"GGGGGGGGGGGGGGGGGGGGGGGGGGGGG X@X GGGGGGGGGGGGGGGGGGGGGGGGGGGGGG",
"GGGGGGGGGGGGGGGGGGGGGGGGGG... XoX ..GGGGGGGGGGGGGGGGGGGGGGGGGGGG",
"GGGGGGGGGGGGGGGGGGGGGGG.ooooXo+++oXooo.GGGGGGGGGGGGGGGGGGGGGGGGG",
"GGGGGGGGGGGGGGGGGGGGGGGGG.o+##44##+o.GGGGGGGGGGGGGGGGGGGGGGGGGGG"
};
