/* XPM */
static char *_0cecbd2b1bc49ced8ca56fd5f10d88cdK55mHajlutk4BqX[] = {
/* columns rows colors chars-per-pixel */
"64 64 85 1 ",
"  c #000001",
". c #070707",
"X c #0B0B0B",
"o c #170F07",
"O c #1F170B",
"+ c #131313",
"@ c #1B1B1B",
"# c #2F1B0B",
"$ c #372313",
"% c #332B13",
"& c #3F2F17",
"* c #3F2B1B",
"= c #232323",
"- c #272727",
"; c #2F2F2F",
": c #373F27",
"> c gray23",
", c #430000",
"< c #4F0000",
"1 c #5B0707",
"2 c #5F0707",
"3 c #670B0B",
"4 c #6B0F0F",
"5 c #731313",
"6 c #7F1B1B",
"7 c #432F1B",
"8 c #4B371B",
"9 c #533F1F",
"0 c #732B00",
"q c #533F2F",
"w c #1F4317",
"e c #27531B",
"r c #3F472B",
"t c #2F6323",
"y c #37732B",
"u c #5F4323",
"i c #53573B",
"p c #434343",
"a c gray28",
"s c gray34",
"d c #6F5743",
"f c #7B634F",
"g c #831F1F",
"h c #8B2323",
"j c #8F2B2B",
"k c #972F2F",
"l c #9B3333",
"z c #A33B3B",
"x c #A73F3F",
"c c #CB0000",
"v c red",
"b c #FF1F1F",
"n c #FF3F3F",
"m c #874307",
"M c #9B5B13",
"N c #AF7B1F",
"B c #AF4747",
"V c #B34F4F",
"C c #BB5757",
"Z c #BF5B5B",
"A c #836B57",
"S c #FF5F5F",
"D c #C76363",
"F c #DB7B7B",
"G c #FF7B7B",
"H c #3F832F",
"J c #439337",
"K c #4B9F3F",
"L c #53AF47",
"P c #5FCF57",
"I c #C39B2F",
"U c #FF9F43",
"Y c #D7BB43",
"T c #EBDB57",
"R c #FFE74B",
"E c blue",
"W c #3737FF",
"Q c #5353FF",
"! c #7373FF",
"~ c #000000",
"^ c #FF9B9B",
"/ c #FFBBBB",
"( c #8F8FFF",
") c #C7C7FF",
"_ c #E7E7FF",
/* pixels */
"~~~~~~~~~~~~~~~~~~~~~~~~~~~~~~~~~~~~~~~~~~~~~~~~~~~~~~~~~~~~~~~~",
"~~~~~~~~~~~~~~~~~~~~~~~~~~~~~~~~~~~~~~~~~~~~~~~~~~~~~~~~~~~~~~~~",
"~~~~~~~~~~~~~~~~~~~~~~~~~~~~~~~~~~~~~~~~~~~~~~~~~~~~~~~~~~~~~~~~",
"~~~~~~~~~~~~~~~~~~~~~~~~~~~~~~~~~~~~~~~~~~~~~~~~~~~~~~~~~~~~~~~~",
"~~~~~~~~~~~~~~~w~~~~~~~~~~~~~~~~~~~~~~~~~~~~~~~~~~~~~~~~~~~~~~~~",
"~~~~~~~~~~~~~~~t~~~~~~~~~~~~~~~~~~~~~~~~~~~~~~~~~~~~~~~~~~~~~~~~",
"~~~~~~~~~wtyw~~H~~~~~~~~~~~~~~~~~~~~~~~~~~~~~~~~~~~~~~~~~~~~~~~~",
"~~~~~~~~~~tKKyeH~~~~~~~~~~~~~~~~~~~~~~~~~~~~~~~~~~~~~~~~~~~~~~~~",
"~~~~~~~~~~~tJKJHew~~~~~~~~~~~~~~~~~~~~~~~~~~~~~~~~~~~~~~~~~~~~~~",
"~~~~~~~~~~~~wtJHytw~~~~~~~~~~~~~~~~~~~~~~~~~~~~~~~~~~~~~~~~~~~~~",
"~~~~~~~~~~~~~~tHyytw~~~~~~wtHJJHyyew~~~~~~~~~~~~~~~~~~~~~~~~~~~~",
"~~~~~~~~~~~~~~wHyeteew~~~eyJJKKJHyyytw~~~~~~~~~~~~~~~~~~~~~~~~~~",
"~~~~~~~~~~~~~~~yt~wettytHJKKKKKKJHyyytew~~~~~~~~~~~~~~~~~~~~~~~~",
"~~~~~~~~~~~~~~~te~~wwyHKKKKJHJJHHyyyyyttew~~~~~~~~~~~~~~~~~~~~~~",
"~~~~~~~~~~~~~~~we~~wtyHKKKJtw~~~~~~~weytyyye~~~~~~~~~~~~~~~~~~~~",
"~~~~~~~~~~~~~~~~w~wttHJHJKKKJye~~~~~~~weyyHHe~~~~~~~~~~~~~~~~~~~",
"~~~~~~~~~~~~~~~~wwwtyw~wtHKKKKJHe~~~~~~~wyHJHw~~~~~~~~~~~~~~~~~~",
"~~~~~~~~~~~~~~~~wetyw~~~~wyJKKKJHew~~~~~~wyJKH~~~~~~~~~~~~~~~~~~",
"~~~~~~~~~~~~~~~~wetw~~~~~~~wyJKKKHyw~~~~~~wHKJw~~~~~~~~~~~~~~~~~",
"~~~~~~~~~~~~~~~wwtw~~~~~~~~~~~wyJJJHtw~~~~~wHKy~~~~~~~~~~~~~~~~~",
"~~~~~~~~~~~~~~~wete~~~~~~~~~~~~~wtHHHyew~~~~tKJw~~~~~~~~~~~~~~~~",
"~~~~~~~~~~~~~~~wtyt~~~~~~~46gh4~~~weytttw~~~wJKyw~~~~~~~~~~~~~~~",
"~~~~~~~~~~~~~~wetyt~~~~4hhjzxBljh5~~weyHHHHtwHKJtw~~~~~~~~~~~~~~",
"~~~~~~~~~~~~~~etyHy~~~4hjlxxVCZCVBh5~~~wtHJHHHKKJt~~~~~~~~~~~~~~",
"~~~~~~~~~~~~~~ytHHH~~~jh64342114hxCB65~~~wtJKKKLKHw~~~~~~~~~~~~~",
"~~~~~~~~~~~~~~yHyJJ~4j653<0mm0,,<<6BCj6~~~wtJKLLLKtw~~~~~~~~~~~~",
"~~~~~~~~~~~~~~yHtHKwjh41<BMNNm,,,<m5jCBl6~~~tKLLLKJHtw~~~~~~~~~~",
"~~~~~~~~~~~~~~HHetKlBB61BFNITIm,tPKMM64jz5~~~tKLKJKKJHtw~~~~~~~~",
"~~~~~~~~~~~~~~HH~wKHjg4nG/^NYTImMNIYNzk45j2~~~tKKwtJKKJHw~~~~~~~",
"~~~~~~~~~~~~~~HK~~KJVBh6nG/^NYYINIYI^DSkk2h~~~wJKtJKKJHtw~~~~~~~",
"~~~~~~~~~~~~~~JKw~KKjggl6vG^^NNNNNN^/GbScMz~~~tJJJKJHyew~~~~~~~~",
"~~~~~~~~~~~~~~JKt~KLyj5glB6vvbnbnnnbvvnjBxj~wtHHJJHyew~~~~~~~~~~",
"~~~~~~~~~~~~~~JKJwKLJ~65jjBBSnnnSnSjlBxg44weyyyHHHew~~~~~~~~~~~~",
"~~~~~~~~~~~~~~HKKtJLK~~~5ggjjlxxBBBxljg3wettyyyyew~~~~~~~~~~~~~~",
"~~~~~~~~~~~~~~tKKJHLK~~~~456gghhhhg654weytttywyyw~~~~~~~~~~~~~~~",
"~~~~~~~~~~~~~~wHKKtLK~~~~~~~~~~~~~~~wtyyyttwwtyt~~~~~~~~~~~~~~~~",
"~~~~~~~~~~~~~~~tKKyKK~~~~~~~~~~~~~wtHHyyyew~wtyw~~~~~~~~~~~~~~~~",
"~~~~~~~~~~~~~~~wJKKKK~~~~~~~~~~wetHJHHyew~~wtte~~~~~~~~~~~~~~~~~",
"~~~~~~~~~~~~~~~~tJKKK~~~~~~~~wtHJKJHHtw~~~wyttw~~~~~~~~~~~~~~~~~",
"~~~~~~~~~~~~~~~~wtJKK~~~~~~~eHJJKJHtw~~~~wyyyw~~~~~~~~~~~~~~~~~~",
"~~~~~~~~~~~~~~~~~wtJKyw~~~wtHJJJHtw~~~~~wHHHt~~~~~~~~~~~~~~~~~~~",
"~~~~~~~~~~~~~~~~~~~tJJytwtHHJJHtww~~~~wwHJJyw~~~~~~~~~~~~~~~~~~~",
"~~~~~~~~~~~~~~~~~~~wJHHHHHHJtw~~~~~~wwHHJHHw~~~~~~~~~~~~~~~~~~~~",
"~~~~~~~~~~~~~~~~~~~eHHHHHHHHJHHHHHHHJJKJHHw~~~~~~~~~~~~~~~~~~~~~",
"~~~~~~~~~~~~~~~~~~eHHHHyeyHHHHJKKKKKKJJHtw~~~~~~~~~~~~~~~~~~~~~~",
"~~~~~~~~~~~~~~~~~tHHHyew~wtyHHJKKJJHHytw~~~~~~~~~~~~~~~~~~~~~~~~",
"~~~~~~~~~~~~~~~~tyHyew~~~~~~~~~~~~~~~~~~~~~~~~~~~~~~~~~~~~~~~~~~",
"~~~~~~~~~~~~~~~wytew~~~~~~~~~~~~~~~~~~~~~~~~~~~~~~~~~~~~~~~~~~~~",
"~~~~~~~~~~~~~~~~~~~~~~~~~~~~~~~~~~~~~~~~~~~~~~~~~~~~~~~~~~~~~~~~",
"~~~~~~~~~~~~~~~~~~~~~~~~~~~~~~~~~~~~~~~~~~~~~~~~~~~~~~~~~~~~~~~~",
"~~~~~~~~~~~~~~~~~~~~~~~~~~~~~~~~~~~~~~~~~~~~~~~~~~~~~~~~~~~~~~~~",
"~~~~~~~~~~~~~~~~~~~~~~~~~~~~~~~~~~~~~~~~~~~~~~~~~~~~~~~~~~~~~~~~",
"~~~~~~~~~~~~~~~~~~~~~~~~~~~~~~~~~~~~~~~~~~~~~~~~~~~~~~~~~~~~~~~~",
"~~~~~~~~~~~~~~~~~~~~~~~~~~~~~~~U~~~~~~~~~~~~~~~~~~~~~~~~~~~~~~~~",
"~~~~~~~~~~~~~~~~~~~~~~~~~~~~~~ARf~~~~~~~~~~~~~~~~~~~~~~~~~~~~~~~",
"~~~~~~~~~~~~~~~~~~~~~~~~~~~~~=dfd>~~~~~~~~~~~~~~~~~~~~~~~~~~~~~~",
"~~~~~~~~~~~~~~~~~~~~~~~~~~~~~ >sa=~~~~~~~~~~~~~~~~~~~~~~~~~~~~~~",
"~~~~~~~~~~~~~~~~~~~~~~~~~~~~~ =>- ~~~~~~~~~~~~~~~~~~~~~~~~~~~~~~",
"~~~~~~~~~~~~~~~~~~~~~~~~~~~~~ =>= ~~~~~~~~~~~~~~~~~~~~~~~~~~~~~~",
"~~~~~~~~~~~~~~~~~~~~~~~~~~~~~ @;+ ~~~~~~~~~~~~~~~~~~~~~~~~~~~~~~",
"~~~~~~~~~~~~~~~~~~~~~~~~~~~~~ +-+ ~~~~~~~~~~~~~~~~~~~~~~~~~~~~~~",
"~~~~~~~~~~~~~~~~~~~~~~~~~~XXX +@+ XX~~~~~~~~~~~~~~~~~~~~~~~~~~~~",
"~~~~~~~~~~~~~~~~~~~~~~~X@@@@+@===@+@@@X~~~~~~~~~~~~~~~~~~~~~~~~~",
"~~~~~~~~~~~~~~~~~~~~~~~~~X@=;;pp;;=@X~~~~~~~~~~~~~~~~~~~~~~~~~~~"
};
