/* XPM */
static char *e0e128187bb94a2dd42634d10e9367fbqxGoYga9My82fnjP[] = {
/* columns rows colors chars-per-pixel */
"73 97 82 1 ",
"  c None",
". c black",
"X c #080000",
"o c gray3",
"O c #100000",
"+ c #100800",
"@ c #180800",
"# c #180808",
"$ c #181008",
"% c #101010",
"& c #181818",
"* c #200800",
"= c #200808",
"- c #201008",
"; c #281008",
": c #281808",
"> c #301008",
", c #301808",
"< c #381808",
"1 c #302008",
"2 c #382008",
"3 c #302010",
"4 c #382010",
"5 c #382810",
"6 c #202020",
"7 c gray19",
"8 c gray22",
"9 c #402010",
"0 c #482010",
"q c #402810",
"w c #482810",
"e c #402818",
"r c #482818",
"t c #483010",
"y c #483018",
"u c #483818",
"i c #503010",
"p c #503810",
"a c #503018",
"s c #503818",
"d c #583818",
"f c #483820",
"g c #483028",
"h c #503820",
"j c #584018",
"k c #604018",
"l c #684818",
"z c #584020",
"x c #504028",
"c c #584028",
"v c #584828",
"b c #604020",
"n c #604820",
"m c #684820",
"M c #604028",
"N c #604828",
"B c #684828",
"V c #704828",
"C c #685028",
"Z c #705028",
"A c #604830",
"S c #685030",
"D c #685038",
"F c #705030",
"G c #705830",
"H c #705838",
"J c #785838",
"K c gray25",
"L c #484848",
"P c #505050",
"I c #585858",
"U c #786040",
"Y c #786048",
"T c #786848",
"R c #585860",
"E c #686868",
"W c gray44",
"Q c gray47",
"! c #806848",
"~ c #806850",
"^ c #808078",
"/ c #888888",
/* pixels */
"                                                                         ",
"                                    8                                    ",
"                                   L6%                                   ",
"                                   L6%                                   ",
"                                   P6%                                   ",
"                                  %66%.                                  ",
"                                 &6766&&                                 ",
"                                &6II8K6%6                                ",
"                               6&KWRLPK%&%                               ",
"                              666KEIKK7&&%%                              ",
"                             6666KERLL8%&&%%                             ",
"                            6&666KWRKL8%&&&%%                            ",
"                            &666&KQEPP7%6&&%%                            ",
"                            &666&KQEPP7%66&%%                            ",
"                            &6666KQEPP7%666&%                            ",
"                            &&&6&LQELP7%666&%                            ",
"                            &&&6&L^ELP8%666&%                            ",
"                            &666&LQEPR7%66&%%                            ",
"                            6666&P^EIR8&6&&%%                            ",
"                            6666&LQRPP6%&&&%%                            ",
"                            666666PRRR6%&&&%%                            ",
"                            &66666P^/^K6&&&%%                            ",
"                            &6666KW//^I8&6&%%                            ",
"                            &&&66KE//^I86&6&%                            ",
"                            &&&66KW///R8&%6&%                            ",
"                            &&&668R^/^P7&%&%%                            ",
"                            &&&666LEWEK66%&&%                            ",
"                            &&668PWQQQEK6&&%%                            ",
"                            &&66KE/////I86&%%                            ",
"                            6667KW////^RK6&%%                            ",
"                            6667LQ/////EK6&%%                            ",
"                            &668LQ/////EL6&%%                            ",
"                            &&68P^/////WL6&%%                            ",
"                            6667LEQQWWQE86&%%                            ",
"                           %&&6&%o..oo%&&%%%o                            ",
"                          R8888766678867888778                           ",
"                         QWPPLLLPPPIIPPPPPPLL86                          ",
"                         EP&&&&&&&&&&&&&&&&%686                          ",
"                        88&.................o76%                         ",
"                        8&.ooooooooooooooo%oo77%                         ",
"                        6%oo%%%oooooooooooo.o66o                         ",
"                        6KEL6%%%%%%%%%&&&&&%%6&o                         ",
"                       %6R^/8&&&&666777788KK8KK66                        ",
"                       66&&&66666666666678KKKPRK6                        ",
"                       66&%&&&6&o......o%%&&66KK&o                       ",
"                       &66&&&&&.o8RRPK&.o&&&66686o                       ",
"                       876&&%%%&R/////W6o%&66666&o                       ",
"                       688%&%%%8RL7778LK&%&66666%o                       ",
"                       %6P6%%%%6666676%%%%&6&&66oo                       ",
"                       o%LP.o%%o6KLKPL&.o%%%o&&%%6                       ",
"                       o.6P8..o%7PK88K6...oo&6%.%6                       ",
"                       o%o8Q8%..%66666%...o&6%.%6.                       ",
"                        %%%W^E7o........o%&&%..&6                        ",
"                        o%&7L^/P6%ooo..o%%ooooo%%                        ",
"                         %%8LPWR76&o...ooooooooo                         ",
"                         %%6888666&ooooooooooooo                         ",
"                         %%%%&%o.......ooooooooo                         ",
"                         o&68KK86%oooo%&6&%ooooo                         ",
"                    3NH3o%%&6666&%ooooo%%%oooooo                         ",
"                   eyU~g3oooo.oo.......ooooooooo                         ",
"                  fyN!Yx=.%%%%%%......o%%ooooo..                         ",
"                 ffxS~S4@.%&666&o.....o%%%oooooo                         ",
"                 hcNN~S,@+o%%&&%..ooo.oo%oooooo.                         ",
"                hBNNSTA4;$o%%o%%.o%6%.o%%oo&&o.o                         ",
"              SSSFSNSUS4=$&68LK6o.%&%.o66%&66&%o                         ",
"            tzSSFFSSFHFy#o68PWR7o......&666&%&%.o@                       ",
"           zzNFFFFSFFFSy#Xoo%&%o........%%%ooo...::                      ",
"          djBFSFFSSFFFFh-............oooooooo...o5q*                     ",
"         sNFDSBBNBBSSSFN5OX......oooooooo......o&eyq4qq3                 ",
"        NFYYHHSnblBSSBSSz3OX......ooo.oo......o%3NSDAvxDse               ",
"       yFYUHHUHGFSFFSBBSSf;OX..........o.....o%:sGJJHHGGScs              ",
"      4sSNBBSFFGGHHFCBNNSNq=@X..............o$3aSGVmBBBkmNz              ",
"     :qshdkbjkbnmZFFCBnNSSf:#OX...........o$3qsNZGZVBBbbksds             ",
"    -;qshsdzjknNBVSCBnnNNFN5-@+O..XX.X.oO$:4ysdjFJGFBbjjbdtz             ",
"    -:9tsssdkmnBSSFCnbNNnCFc3--**@+O@#-&:4qyussMGUGBBnjpddtc             ",
"    ;44qissdkkkkbBCmmnNNNNFHzq:;;,:;:5qqrttyssszFJGSNbdttiqs             ",
"   ;,qqqtssdbmnnBVCCnnNNNNBFShe5eeeeeytyttttttidBJGBnjstq43s             ",
"   ;3yqqissdnSSSFFFFSNbnNnBSSfeeeyyyyytttttttttinFSNjdsyq4,s             ",
"   ;3yyqtidznBSSSBBFFSBnmmBBFz44qyyttttttttttttinBbjditq4,1q             ",
"  -;4uy4qiszbmnnBBBCZFFFFFJUYAq9tttttttttttttttdkkkdstq4,;1q             ",
"  -,qye4qsssjbbmBBSFFFGGHJGU!Uy0ttttttttttttttqsbbddstq1;>4q             ",
" @-14qyqqissjzMBBBBSFCBBSVmZU!b9ritttttttttttqqibBkstq4,>,19             ",
" ;:34ystqtpdbbNNNnmBBBBmBBmmG~H49yyttttttttttqqtjbzitq4<>,:1             ",
" ;354esyqtszvNNBBBBBBBVVBBBbV!Ts9009qqtttttttqqsjdsiqq1;;;;,             ",
" ,,311yfqttzzznnBSNSBBBBBBBbmJ!Hswq4499qqtwr00wzbditq4,---;,             ",
" ,,,,,rzyqtsddznBSBBCFBBBBBBbmJYFFHNzyqq9000ruzbbjitq4:*=;;:             ",
" ,33,,qfyqtidbnNBSFFFGFFZVmBBnZ!JFY~!UGSzzyszMnbzdstq4:*=--;             ",
" @-33,qhyqtsdbNSSFFFSSCCBmbddjbUUmCJGJUYYUHGFFmkdsiqq1=#**::             ",
" +@4t45sfyszbNASBbkmmmmmmCSBNmkBGBnFZZVCFFGFBNbddstq4,@@*=>              ",
"  *;yr4ycytssszjkmSFGJJU!~~~~!UJUGBZZCBBBmmnbkjdstqq4:+O##               ",
"  --3yqyze4qqpznSUYYUHHFHUUUUY!YYYGCZBBBBBbbbjdsitq44;@+                 ",
"  --:5eqsteuNHHUUHFFFCndiaasjnBBBGGSCBBnmBnnbzzsstq4,;*-                 ",
"   ;;3eqzNADHSNccaaadbkdawrwqwwwtjnnbBnnmnnnbzssiqq,;,-@                 ",
"    ;:eyzAAcyq9<2000qtdmkdzdywwwsdkkdbBBnbnnbssstq,;:1-@                 ",
"    #-4szyyq49wyyazzasnmbbVVBbdbFFBBnjmnbbbzjdstq4>;::-*                 ",
"    @;tjsyysNNnSGGUUUUUHJHHGUGBJ!THGFbbBbzjsssttq4:;:>#O                 ",
"  ;=,zFNfe,qzSFHUJUJJJGGHHJUUZVJUHGZZnddbzjssttq42:-;=@+                 "
};
