/* XPM */
static char *a35ee2d70c404effe80fe4746f7efcd57zW2sQCNC4ocGV4t[] = {
/* columns rows colors chars-per-pixel */
"73 97 73 1 ",
"  c None",
". c black",
"X c #080000",
"o c gray3",
"O c #100000",
"+ c #100800",
"@ c #180800",
"# c #180808",
"$ c #101010",
"% c #181818",
"& c #200800",
"* c #200808",
"= c #201008",
"- c #281008",
"; c #281808",
": c #301008",
"> c #301808",
", c #382008",
"< c #302010",
"1 c #382010",
"2 c #382810",
"3 c #202020",
"4 c #282828",
"5 c gray19",
"6 c gray22",
"7 c #402010",
"8 c #482010",
"9 c #402810",
"0 c #482810",
"q c #402818",
"w c #482818",
"e c #483010",
"r c #483018",
"t c #503010",
"y c #503018",
"u c #503818",
"i c #583818",
"p c #483820",
"a c #503820",
"s c #584018",
"d c #604018",
"f c #584020",
"g c #584028",
"h c #604020",
"j c #604820",
"k c #684820",
"l c #604828",
"z c #684828",
"x c #704828",
"c c #685028",
"v c #705028",
"b c #604830",
"n c #685030",
"m c #685038",
"M c #705030",
"N c #705830",
"B c #705838",
"V c #785838",
"C c gray25",
"Z c #484848",
"A c #505050",
"S c #585858",
"D c #786040",
"F c #786048",
"G c #786848",
"H c #585860",
"J c #686868",
"K c gray44",
"L c gray47",
"P c #806848",
"I c #806850",
"U c #808078",
"Y c #888888",
/* pixels */
"                                    6                                    ",
"                                   A4$                                   ",
"                                   A4$                                   ",
"                                   S5%                                   ",
"                                  o.%%o                                  ",
"                                 33Z544%                                 ",
"                                33AKZAZ%3                                ",
"                               333HJZZ6%%$                               ",
"                              3333SJZZ6$%%$                              ",
"                             3%333HKZZ6$%%%$                             ",
"                             %3333HLAA6$3%%$                             ",
"                             %3333HLAA6$33%$                             ",
"                             %%333HLAA6$333$                             ",
"                             %%%33JLZA6$333%                             ",
"                             %%333JLAS6$33%$                             ",
"                             %3333JLAJ6$3%%$                             ",
"                             33333KLAH6$%%%$                             ",
"                             33333CJAH4$3%%$                             ",
"                             %33%36JYYC3%%%$                             ",
"                             %3334AYYYH6%3%$                             ",
"                             %%%34AUYYH6%%3%                             ",
"                             %%%34AUYYJ6%%%$                             ",
"                             %%%34CKUUA5%%%$                             ",
"                             %%%346HJJZ43$%$                             ",
"                             %%34ZLYYYYA63%$                             ",
"                             %345ZLYYYYS63%$                             ",
"                             3346SYYYYYJC4%$                             ",
"                             %346SYYYYYJC4$$                             ",
"                             %%46HYYYYYKC4$$                             ",
"                             3346SKLLKLJ63%$                             ",
"                            $%%3%o....o%%%$$                             ",
"                           SZCC6666CZZ66CCC66                            ",
"                          KHCCCCZZZZZZZZCCCCZ5                           ",
"                          Z%................45                           ",
"                         6%.oooo.........oo.%6%                          ",
"                         3..ooooooooooooooo.36$                          ",
"                         46Z3$$$$$$$o$$$$ooo$3o                          ",
"                        $ZUY6$%%%%34444456666634                         ",
"                        333%%3333433333456CCZHA4                         ",
"                        3%$$%%%3%o.....o$$%%35Z3o                        ",
"                        343%%%%$.3HKJA4.o%%33463o                        ",
"                        65%$%$$$5UYYYYU6$%%3344%o                        ",
"                        3Z3o$$$$6C3%%%46%$%3333$o                        ",
"                        $6Aoo$$$$36CZZ$.o%%%$%%o$                        ",
"                        o$AC..$$$CA66C4..$oo$3o$4                        ",
"                        oo%KJ%..o466653o..o%3oo%o                        ",
"                         $o5LUA$...oo...o$%%$.$4                         ",
"                         o$35AUU6$ooo..o$$oooo$$                         ",
"                          $%6ZSLA43o...oooooooo                          ",
"                          %$356643%$ooooooooooo                          ",
"                          $$$$%$o......oooooooo                          ",
"                          o%46ZZ63$ooo$%3%$oooo                          ",
"                      qPBOooo$$$$oooo..oooooooo                          ",
"                     qfIG4.$ooo$o......o$$oooo.                          ",
"                    ppmIg<.$$%%%$o....o$$ooooo.                          ",
"                   pagnIa&Oo$%3%$....ooo$$$oooo                          ",
"                   lllnGa-=oo$o$o.o%$oo$$oo%o..                          ",
"                 nnMnlnDf-=%35C6%.o%%oo33o%4%$o                          ",
"               elnMMnnMBl;+%5ZKH4o.....$334$%%oo@                        ",
"              ffnMMMnMMMl>X.oo$$........$$$oo...;;                       ",
"             sjMnMMnnMMMnqO..........ooooo.o..Xo29&                      ",
"            fBBmzkjkznnnMg=X...o..oooooo......o%qyqrq<                   ",
"           lDFDVBnjkzMnznnp=X.........oo.....o$1nDDBmBBp                 ",
"          rMBMMBVVVBBMczlnbq#O..............o$>fNMvcczjnf                ",
"         1ufshhhkzxMNMczllna;#XX...........$;qfcNxkzzhdffu               ",
"        -9uauifshjjxnczjjlnn2=+OX..X....X$;1riscNNMzdshstu               ",
"        -1euuuidjlnnMcjjllzMg<==#@+OO@@$;,qruufMDNzzhiisef               ",
"        119tuuidddhzckkjljlnBf1---;--<19weeruufnVNnjhueu9u               ",
"       -999euushkjjxccjjlllzMnaq2qqqqrereeeeeeuzVNzjsu99;u               ",
"       -q99tuuslMnMMMMnjhjjzznpqqqrrrreeeeeeeeehMnjsir99:r               ",
"       ;rr9etsfjznnzzMMnzjkzzNf119reeeeeeeeeeeehjdiue91>>9               ",
"      =>rr19tufhhhzzzcvNNNNVDPm99eeeeeeeeeeeeeudddiue9>->9               ",
"     @-19q99uuuffjzznMMMMMNvMFFy8eeeeeeeeeeee9ehjiuu91;:,9               ",
"     =;19ue9tuiffllzkzczzzzkkVIl,reeeeeeeeeee9eszhte9,:>;,               ",
"     -<12ur9euflljzjzzzzxxzzkxID98009eeeeeeee9essut99>:;->               ",
"     ><1>rp9euffljzclnzzzzzzhkDPl07,,78reeew88uhite91-==->               ",
"     >>>>9fr9euishznzzcnzzzzzhkDDnMluw777888wufhste91=&=-;               ",
"     ><>;9pr9etshjlnMMMNMMcxzzjMPMVIPDNlfurufjhfiue9,=&==-               ",
"     @;2>1ar9euilnnMMMncczkkiishFVkNNVDFFDBNMzdiut99;#&&-;               ",
"     +=99<uarufjlbzhdkkzxkvMMnzhcNhcvvkzcvMnjjsiue91-+&&:                ",
"      *<r7rgreruuidzMBVDDPIIIIIFDFNcvczzzkhhdsiue991=O+#                 ",
"      =-qr9uq19ujnMDFDVMnlnnMNBDDDDcvzzzzzhjfsute91>&@                   ",
"       -;q9uuplBDBBljhkzit000tiiiscnzczjkjjjffuu99>:-=                   ",
"        -29fnmnfr89000eidhiuy0000tidikkzjjjjfiue91-;>@                   ",
"        =<ufar9,7890rr0rdkikkhitsjjkhskjhhhfsuu91:-;;=                   ",
"        #,iuwrufsjnMBDBBBNNMMVMjVPDMNhhzffsuuue91;-;-@                   ",
"      **9llaq,rlMBDVDVVVNVDVDFMxDDBMMzishfiuue91,;=-&+                   ",
"     9efDDp-O..;kzMNMMMMMccxNMhMBMMvzkjttsiue91,>-##@                    ",
"   *0hVPn<O..@O;ncMMVDDFPPFDDMxNMcMcczzjuuuye91>;*+                      ",
"  -rxDID,OOoX+-ujfjhy0ryrfNPFlMMzkkkkffffuee991>;@                       ",
"  rMDPFn=@@..=uzsszcjflgr,-9sdvMnhkjhhfiuuw991>>-                        ",
"  qVBDMjr;;<fMDDDGFPFFFFFDg<-sMnMzzljhfhfffr1,>,-                        ",
"  >DPIMthmDIIFDVDBMMcxxcccDBwsMnnzzjjjjjsue9>;,,-                        ",
"   rnBnjlMMclxvxxzkkkzzxxkkMjzNBzzzjjjjjlfy1;--;#                        ",
"   O->uidzzzkkzxxcMNNNNMNMMckzNBzhjlhjfffut,::;=+                        ",
"     rffzcMNMcNDVNVNNNNNMMMzzcMzkhsdjfffuu9>---=                         ",
"    qhlmBDDDDDFFFFFFFFGIPPPFDBMhiuuihfifue9>===                          "
};
