/* XPM */
static char *_de6d1a2efe647cad428760b962bd7bcGsJH415HKczCEDYb[] = {
/* columns rows colors chars-per-pixel */
"73 97 76 1 ",
"  c None",
". c black",
"X c #080000",
"o c gray3",
"O c #100000",
"+ c #100800",
"@ c #180800",
"# c #180808",
"$ c #101010",
"% c #181818",
"& c #200808",
"* c #201008",
"= c #281008",
"- c #281808",
"; c #301008",
": c #301808",
"> c #381808",
", c #302008",
"< c #382008",
"1 c #302010",
"2 c #382010",
"3 c #382810",
"4 c #202020",
"5 c #282828",
"6 c gray19",
"7 c gray22",
"8 c #402010",
"9 c #482010",
"0 c #402810",
"q c #482810",
"w c #402818",
"e c #482818",
"r c #483010",
"t c #483018",
"y c #483818",
"u c #503010",
"i c #503810",
"p c #503018",
"a c #503818",
"s c #583818",
"d c #483820",
"f c #503820",
"g c #584018",
"h c #604018",
"j c #684818",
"k c #584020",
"l c #584028",
"z c #584828",
"x c #604020",
"c c #604820",
"v c #684820",
"b c #604828",
"n c #684828",
"m c #704828",
"M c #685028",
"N c #705028",
"B c #604830",
"V c #685030",
"C c #705030",
"Z c #705830",
"A c #705838",
"S c #785838",
"D c gray25",
"F c #484848",
"G c #505050",
"H c #585858",
"J c #786040",
"K c #786048",
"L c #786848",
"P c #585860",
"I c #686868",
"U c gray47",
"Y c #806848",
"T c #806850",
"R c #808078",
"E c #888888",
/* pixels */
"                                                                         ",
"                                                                         ",
"                                                                         ",
"                                                                         ",
"                                                                         ",
"                                                                         ",
"                                                                         ",
"                                                                         ",
"                                                                         ",
"                                                                         ",
"                                    D                                    ",
"                                   57%                                   ",
"                                   45%                                   ",
"                                 $$$4%oo                                 ",
"                                $%%%$$$oo                                ",
"                               $%47DDFD%oo                               ",
"                               %$4D6DD6%oo                               ",
"                              %%$4D67774ooo                              ",
"                              %%$%DDF7D4ooo                              ",
"                              %%%$o7F4ooooo                              ",
"                              %%%$4PRF4%ooo                              ",
"                              %%%$$IEP5%$oo                              ",
"                              %%$%5IEP4$ooo                              ",
"                              %%7GRERIG64%$                              ",
"                             o$57FIRIHD744%o                             ",
"                            .o%5DGIRUHD754%$o                            ",
"                            oo%5DHIEEIG75%$oo                            ",
"                            .o47FGPIPFD64%$o.                            ",
"                            $7DFPPPHHHHHGGGG7                            ",
"                            454%$$%%%%%%%445F4                           ",
"                           7%$$$oooooooooooo%44                          ",
"                          DDoo$$$$$$$$$$$$$oo47                          ",
"                          4%.oo$$ooooooo$$$$$o5                          ",
"                          47$$$%%$%$$%%%$$$$$o%                          ",
"                          47555556777777777DDGD%                         ",
"                         $%%444444$oo$o%45567FF44                        ",
"                         %%%%%%%%o%GUID$o%%%%46%.                        ",
"                         44%%%%%$DIEERUH4$44445%$                        ",
"                         5%$%%$$$D755654%$%4444$$                        ",
"                         444o$%$$o677D7..%4%$44o$                        ",
"                         D%76oo%$$77664oo$%$%5$o$                        ",
"                         7o$GD..$o4544$o.o.%64ooo                        ",
"                         6oo$PRD.........$454$oo.                        ",
"                          $$$5REI$o.....$44%$$oo                         ",
"                          o$%5GEED%$oo.o$$$$$$oo                         ",
"                          .o$47UR7$$oo..$$$$$$oo                         ",
"                          %o$$47D%$$ooo.ooooo$o.                         ",
"                          4$$4GRP54$ooo$4%4$o$o.                         ",
"                           $$$%55%$o.oo$%$%$o$o                          ",
"                           o$$$47o....o4%$%$ooo                          ",
"                           o$%4DF$oo..o5%$%$ooo                          ",
"                           o$%7PD$o...o5%%%$.$o                          ",
"                   ddfff1*oo$%4F7.o%%$o4%$$4$oo                          ",
"                 wlCAVkke-@..$4IG$$774$45%%4$.o                          ",
"                anVVbbk1@@o4D46IFo.o...$454$%4o                          ",
"               bvbbbbCAw..oo54$o........o$$$55o                          ",
"               ixkcxnMJb+.o.o.ooo.....ooooo.....                         ",
"               hghhshnAJeX.o4o.ooo..oo$o..+*=:21*                        ",
"              nCCmnnncVVb2.o4o........o.+=2000VJClt                      ",
"             ZSSZZCZZCVbld-**.XOX..XX+*-280080nSSZZba                    ",
"           VAACbnnnnMbxxbba:=*@*@O..X*,000000rnNNmxvnbt                  ",
"          lkkksassshhaiiasa<==&#&@X@:00800008umNMNnhshxd                 ",
"         1taruiaasshhuuuuuu0===@##=rr08800888aNNNMmnsuabt                ",
"         2raaiiuasshhsaaaasr*####=0r000008008sMmMvhhsu0sk                ",
"         20iaaiisshhnnncvgxa==<2020008880088tcmvjhhhau8uV                ",
"         :0iiagshnnnMMMCZCSV0<0ra0,0888882<uMmmvjhhhar<tb                ",
"         :2uakagcbnnnvNCCCZZb0<<<8:;,::::8amNvvjvxhsu0;0a                ",
"         28uaaagxhvcnnMMmvvvCMktekf;>>8rabNvvvjjhhhau0=00                ",
"         08riaassghxxxxhvjjhhnCCCJYVlbCSSCmvvvvxhsaur2;8<                ",
"        1t<0auiissshhhhxhhhjvnnMnnSYSZZZNMvnjjjhhhau0::<:                ",
"        10<0ruiaghhhxcccvvxjhhhssssmCcMnmvvvjhjhhhau8::<*                ",
"        28:8ruaagsxxccxcccmvvvvvNCCNSnMmvjnvvxhhssiu2=;;                 ",
"       -20,20rruiaghhhhjvmZJKTYYYYYJSCmMxhxvxxhhsau0<=:-                 ",
"      #,=ww:0rruiaghxnCZACbxklxxxhhxxvvMxhhhhhssaur0:=<=                 ",
"      *,*1e:800uuigbCCVbcjhuq8>9uauqpjhvjhhhhhssuur0;==                  ",
"      =:*-t1200rixBblautuushssspqqqqahhsjhhhhhsaur08;==                  ",
"      &==&e0:80axbf08>qq>8tjhhvNnssnNvnhhhhhhhsuur0,==                   ",
"      #&=#wa=<ukp0>99tsxbnNCCCNZJnSYJZNnhvxgssair0,===                   ",
"      =@**&d0tkr89txnCZSJJSSZZCSMjZZCNmNvhhhhaiur8;===                   ",
"      -=@=@1aa0rabnVVCNCZJJJJJJJnNMvvmmmmsassaur02=&=*                   ",
"      *w-*&0ar2--2kxhvncgllkkbVZNNMvjvvvvvgssar00:=#&                    ",
"       t1#ext-X..Xrhhhhsqqq0=@X@qjvnnvhjhhxsau002;&@                     ",
"        ,xbeO..*2knnCCZZJYJLJlt1lZMbxcbnxhhsurr8,=@@                     ",
"       0NA1..*unVJJYYYTTTTTKTYTLLJVAbgvnncxai008:&OO                     ",
"     0hSKt@:dBYLLLKJVVbktq8:=*@afYYYhCxxchaau0<8==:@                     ",
"    dcZJCtabYKJVbkat8>;&#@O...#&@8sYYNhbgsyue2;2=:0*                     ",
"   *bJKCkbAAzat2:;&&&&###########=0ZYCgzhyue0;=;=:<                      ",
"   -fYVkhbke3==&@##====333ee88=#=00YYZhhu<002;=&&:=                      ",
"   00fpake:=&@O=:33eyssscmvvvvvNvhSYJSvg0<33,=@@#=@                      ",
"    t:t03=###--3eysshhMZSJYYTYYYYYYYKnhx0&:3:&O#@@                       ",
"  tttd33###--33eyshxMJJTJCjjlxxxhhxasaaasO<,==:@                         ",
" tddt3-###-:<3eyrgbJJNhhsyq8:=*@@*=;gu0aae:,@=#                          ",
" td33-##==<3eerixBbfte>;&#@O........@23-aa,=O&                           ",
" +-O##===<3ee0axbf03&#XXX.............@-:aa8:                            ",
"  X##==<<3ee<ukpe>;##..................X:=a2                             ",
" &=###2<<3e0tky89>##.....................#+a                             ",
" =:<2==<<<1aa0r8;;#.......................=a                             "
};
