/* XPM */
static char *result[] = {
/* columns rows colors chars-per-pixel */
"68 68 33 1 ",
"  c #090B0B",
". c #0E0E13",
"X c #151515",
"o c #181818",
"O c #1E1E1E",
"+ c gray13",
"@ c #272727",
"# c #2A2A2A",
"$ c #313131",
"% c #343434",
"& c gray23",
"* c #3F3F3F",
"= c #464646",
"- c #515151",
"; c #555555",
": c #5D5D5D",
"> c gray38",
", c #717171",
"< c #797979",
"1 c gray49",
"2 c none",
"3 c none",
"4 c #868686",
"5 c #979797",
"6 c gray61",
"7 c #A5A5A5",
"8 c #AEAEAE",
"9 c #B7B7B7",
"0 c #C5C5C5",
"q c gray81",
"w c gray85",
"e c #E2E2E2",
"r c #FBFBFB",
/* pixels */
"22222222222222222222333333333333333333333333333332222222222222222222",
"22222222222222222222333333333333333333333333333332222222222222222222",
"333333333333333332223333333333333&&333333333333332222222222222222222",
"3333333333333333322333333333331eeerrr8333333333332222222222222222222",
"33333333333333333223333333333=6qreerre933333333332222222222222222222",
"33333333333333333223333333333$@&0ee0,;833333333332222222222222222222",
"3333333333333333322333333333 &49weeeew833333333332222222222222222222",
"3333333333333333322333333333X$,69qweeq6:3333333332222222222222222222",
"3333333333333333322333333333.&,580qeeq8>3333333332222222222222222222",
"3333333333333333322333333333;49reerrrre93333333332222222222222222222",
"333333333333333332233333333,-170eeeerrr00333333332222222222222222222",
"333333333333333332233333333@O@O@&&=-=$;=;333333332222222222222222222",
"3333333333333333322333333333..        .@3333333332222222222222222222",
"333333333333333332233333:708e99009800eee0ew8;33333333333333333333333",
"3333333333333333322333@5re:8eeeeeeeeerrre4err83333333333333333333333",
"333333333333333332233O,696-<5656789000eew:eere5333333333333333333333",
"333333333333333332233$><<=$;<9099ewqwweew>40qr9333333333333333333333",
"33333333333333333223.$-;-@$=>8798wwqqwweq1&,477>33333333333333333333",
"33333333333333333223.@&--.@&:5,67997860e06&->14<33333333333333333333",
"33333333333333333223.@&=& O$-86479857<8087==;,1133333333333333333333",
"33333333333333333333X$&=&OO$$;>>>,,<<<<476$&->1<33333333333333333333",
"333333333333333333333XO$@XO@O@@$$&==--=>64&XO$==33333333333333333333",
"33333333333333333333 X$$$XXO@$&=-:>,<<><4<$X@$&$33333333333333333333",
"33333333333333333333.O@$$.XO$=:,,<4455441>&O@&=$33333333333333333333",
"33333333333333333333.O@&$.XX$&=-;:>>,,>>>:$.@&->33333333333333333333",
"333333333333333333333O@$O.XXOOO@@$$$$$$$$&X..O@@33333333333333333333",
"333333333333333333333   ...Xo+:,546544>&#$X..  @33333333333333333333",
"333333333333333333333......X&4eeeerreeeq7;33..O333333333333333333333",
"3333333333333333333333333.o@<7744445087eq9-3333333333333333333333333",
"3333333333333333322333333Xo#=@@O@@@@@@>eq8>3333333333333333333333333",
"3333333333333333322333333o+%@OOOO@@@@$6w08>3333333333333333333333333",
"3333333333333333322333333oo#O@$&&&==->7ee<=3333333333333333333333333",
"3333333333333333322333333Oo#4156678890qeq,*3333333333333333333333333",
"3333333333333333322333333..o&>,<44566661-#+3333333333333333333333333",
"3333333333333333322333333.   O&=--;:::%  .+3333333333333333333333333",
"3333333333333333322333333.    o+####@+. ..O3333333333333333333333333",
"3333333333333333322333333.      o+O+o..&-163333333333333333333333333",
"3333333333333333322333333.X..   .   X;598843333333333333333333333333",
"3333333333333333322333333.XXO$@OO..O=>799713333333333333333333333333",
"3333333333333333322333333.XXO&=$OX3$:>7986<3333332222222222222222222",
"3333333333333333322333333..X@$==@.3$;>6885-3333332222222222222222222",
"3333333333333333322333333..X@$&=@.3$;>5874$3333332222222222222222222",
"3333333333333333322333333..XO$&&O33@;<786,-3333332222222222222222222",
"33333333333333333223333333.XO==$O33O;1886,$3333332222222222222222222",
"33333333333333333223333333.XO;>$O33O;4986-$3333332222222222222222222",
"33333333333333333223333333.XO==$O33O;1886,33333332222222222222222222",
"33333333333333333223333333.XO$$$O33O;4986-33333332222222222222222222",
"333333333333333332233333333O$we7$33O:5006&33333332222222222222222222",
"333333333333333332233333333;0rre033&:;$$;&33333332222222222222222222",
"333333333333333332233333333<0rrew33OOOOO&,33333332222222222222222222",
"333333333333333332233333333>8erew33O<0ee0&33333332222222222222222222",
"333333333333333332233333333-7eee933=7erre<33333332222222222222222222",
"333333333333333332233333333O6ere633-6qrre533333332222222222222222222",
"333333333333333332233333333.4ere-33-47eeq433333332222222222222222222",
"333333333333333332233333333.4ere-33-47eeq433333332222222222222222222",
"3333333333333333322333333333<eew333$<5qq9>33333332222222222222222222",
"3333333333333333322333333333,8we333X>4007=33333332222222222222222222",
"3333333333333333322333333333,66w333.;1095@33333332222222222222222222",
"3333333333333333322333333333<weq3333=4984333333332222222222222222222",
"333333333333333332233333333.4qeq3333@409>333333332222222222222222222",
"333333333333333332233333333.&&=:3333O190;333333332222222222222222222",
"333333333333333332233333333. ...3333X1qq-333333332222222222222222222",
"33333333333333333223333333.    O3333@6ee,333333332222222222222222222",
"33333333333333333223333333     .3333@-O>:333333332222222222222222222",
"33333333333333333223333333      3333$<55=333333332222222222222222222",
"333333333333333332233333333   333333&477<333333332222222222222222222",
"333333333333333332233333333333333333@>44>:33333332222222222222222222",
"333333333333333332233333333333333333......33333332222222222222222222"
};
