/* XPM */
static char *result[] = {
/* columns rows colors chars-per-pixel */
"68 68 36 1 ",
"  c #090B0B",
". c #0E0E13",
"X c #151515",
"o c #131318",
"O c #181818",
"+ c #1E1E1E",
"@ c gray13",
"# c #272727",
"$ c #2A2A2A",
"% c #313131",
"& c gray23",
"* c #3F3F3F",
"= c #464646",
"- c gray29",
"; c #515151",
": c #555555",
"> c #5D5D5D",
", c gray38",
"< c DimGray",
"1 c #717171",
"2 c #797979",
"3 c gray49",
"4 c none",
"5 c none",
"6 c #868686",
"7 c gray56",
"8 c #979797",
"9 c gray61",
"0 c #A5A5A5",
"q c #AEAEAE",
"w c #B7B7B7",
"e c #C5C5C5",
"r c gray81",
"t c gray85",
"y c #E2E2E2",
"u c #FBFBFB",
/* pixels */
"44444444444444444444444555555555555555554444444444444444444444444444",
"44444444444444444444555555555555555555555555555554444444444444444444",
"555555555555555554445555555555555&&555555555555554444444444444444444",
"55555555555555555445555555555X3yyuuuy9555555555554444444444444444444",
"55555555555555555445555555555-9euyyuuu055555555554444444444444444444",
"55555555555555555445555555555%#&qyye<:055555555554444444444444444444",
"5555555555555555544555555555.&7etyyyytq55555555554444444444444444444",
"5555555555555555544555555555#%19wryyur9-5555555554444444444444444444",
"5555555555555555544555555555+&18qeryur0>5555555554444444444444444444",
"5555555555555555544555555555:7wtuyuuuuuw5555555554444444444444444444",
"5555555555555555544555555553-30eyyyyyyyee555555554444444444444444444",
"555555555555555554455555555#+#+#&==-=%-&-555555554444444444444444444",
"5555555555555555544555555555..        .55555555554444444444444444444",
"555555555555555554455555:1#+0r881,,188rr=0rq-55555555555555555555555",
"5555555555555555544555#7ty9<yyyyyyyyuuuur1yuu95555555555555555555555",
"555555555555555554455X1uuw><3r80wererreyy70yuu8555555555555555555555",
"555555555555555554455%<331#<>rtwqtyyywyty3>wrte555555555555555555555",
"55555555555555555445.%->:&#<>eqqqqtty9yyy0=1790>55555555555555555555",
"55555555555555555445.#=--++--w790weqe7erte--<27<55555555555555555555",
"55555555555555555445X%=--.+&-0q19we0q80ee0=--<2255555555555555555555",
"55555555555555555555+%===++&%:><1122332299==-<2255555555555555555555",
"55555555555555555555.X+&%+X%###%%&=---=-77=X#%==55555555555555555555",
"55555555555555555555.+%%%XX#%%&-><1222<<72%X#%%+55555555555555555555",
"55555555555555555555.+%%%.X+%->1237788773<#+#&&%55555555555555555555",
"55555555555555555555.#&&%.X+#=--:><<11<<<:+X#&-&55555555555555555555",
"55555555555555555555 +%%X..X+++##%&&&%%%%&..X###55555555555555555555",
"55555555555555555555    +..X++-<7900971-->X..  X55555555555555555555",
"555555555555555555555...X..X%yyyyyyuuuurq-5..+#555555555555555555555",
"55555555555555555555555...O%20q73337qe9er2=5555555555555555555555555",
"5555555555555555544555555o@&=#######%%-ee9,5555555555555555555555555",
"5555555555555555544555555X$%#++++####%8te6-5555555555555555555555555",
"5555555555555555544555555O$=#%-<<78737ryy1*5555555555555555555555555",
"5555555555555555544555555o@%&<70qqwerryyq;*5555555555555555555555555",
"5555555555555555544555555.@$2790qqeerree7*%5555555555555555555555555",
"5555555555555555544555555..+&<1377899993&OX5555555555555555555555555",
"5555555555555555544555555.   +&=--:>-%#   +5555555555555555555555555",
"5555555555555555544555555.    X+##%###....%5555555555555555555555555",
"5555555555555555544555555.   .........%<3995555555555555555555555555",
"5555555555555555544555555.X..   .X.X#28eeq85555555555555555555555555",
"5555555555555555544555555.XX+%%++5.+:2qtuq75555554444444444444444444",
"5555555555555555544555555.XX+&=%+5.%<2quu025555554444444444444444444",
"5555555555555555544555555..X#%==%55&<20ut9:5555554444444444444444444",
"5555555555555555544555555..X#%&=#55%>19tq7%5555554444444444444444444",
"55555555555555555445555555.X+%&&+55%>3qw02%5555554444444444444444444",
"55555555555555555445555555.X#&&%+55+>7ew02%5555554444444444444444444",
"55555555555555555445555555.X#&&%+55+>7ew0255555554444444444444444444",
"55555555555555555445555555.X+&&#+55+<8ee0:55555554444444444444444444",
"555555555555555554455555555.+==#X55X<1tr9&55555554444444444444444444",
"555555555555555554455555555.+::+.55+2tyyr&55555554444444444444444444",
"555555555555555554455555555 +%%X.55&wyuuy955555554444444444444444444",
"555555555555555554455555555.%<3>+55=qyuuy955555554444444444444444444",
"555555555555555554455555555&<882-55=0yyuyq55555554444444444444444444",
"555555555555555554455555555%:23<=55#8yyyy755555554444444444444444444",
"555555555555555554455555555%::3<=55#8yyyy755555554444444444444444444",
"555555555555555554455555555+&-:-%55.2yyut-55555554444444444444444444",
"555555555555555554455555555.+%&%+555>eyuw555555554444444444444444444",
"555555555555555554455555555.++##X555%qyyq555555554444444444444444444",
"555555555555555554455555555 ..++.555+qyy7555555554444444444444444444",
"5555555555555555544555555555..++5555#1=37555555554444444444444444444",
"5555555555555555544555555555.X##5555+8y0<555555554444444444444444444",
"5555555555555555544555555555.+&&5555&wyy3555555554444444444444444444",
"5555555555555555544555555555X%--5555=7898555555554444444444444444444",
"5555555555555555544555555555+%%&5555....+555555554444444444444444444",
"55555555555555555445555555 .#%==5555     &55555554444444444444444444",
"55555555555555555445555555  +=:=55555    .55555554444444444444444444",
"5555555555555555544555555555.X+X55555      5555554444444444444444444",
"55555555555555555445555555555  555555      5555554444444444444444444",
"55555555555555555445555555555555555555   555555554444444444444444444"
};
