/* XPM */
static char *result[] = {
/* columns rows colors chars-per-pixel */
"68 68 35 1 ",
"  c #090B0B",
". c #0E0E13",
"X c #151515",
"o c #181818",
"O c #1E1E1E",
"+ c gray13",
"@ c #272727",
"# c #2A2A2A",
"$ c #313131",
"% c gray23",
"& c #3F3F3F",
"* c #464646",
"= c gray29",
"- c #515151",
"; c #555555",
": c #5D5D5D",
"> c gray38",
", c DimGray",
"< c #717171",
"1 c #797979",
"2 c gray49",
"3 c none",
"4 c none",
"5 c #868686",
"6 c gray56",
"7 c #979797",
"8 c gray61",
"9 c #A5A5A5",
"0 c #AEAEAE",
"q c #B7B7B7",
"w c #C5C5C5",
"e c gray81",
"r c gray85",
"t c #E2E2E2",
"y c #FBFBFB",
/* pixels */
"33333333333333333333333444444444444444443333333333333333333333333333",
"33333333333333333333333444444444444444443333333333333333333333333333",
"44444444444444444333333444444444444444443333333333333333333333333333",
"4444444444444444433444444444444%<<<<*4444444444443333333333333333333",
"44444444444444444334444444444+8tttyytt=44444444443333333333333333333",
"44444444444444444334444444444*<8yttyywe44444444443333333333333333333",
"44444444444444444334444444444@*:rttw71944444444443333333333333333333",
"44444444444444444334444444444%5qrtttttq44444444443333333333333333333",
"4444444444444444433444444444.$,7qwrttw854444444443333333333333333333",
"4444444444444444433444444444.*18qwryytw:4444444443333333333333333333",
"444444444444444443344444444$,8wyttyyyytr=444444443333333333333333333",
"444444444444444443344444444,%,58wttttrw9w444444443333333333333333333",
"444444444444444443344444444.X+X.+@@$++$$$444444443333333333333333333",
"44444444444444444334444444444......X+%=,,444444444444444444444444444",
"44444444444444444334444@7w,wtw77<>><77ttewte144444444444444444444444",
"4444444444444444433444*9e8;qtttttttyyyyt0qtyyw4444444444444444444444",
"444444444444444443344@178$:<q890qetttttt8,tyyt0444444444444444444444",
"444444444444444443344%;,:+==qq88wewwwwtt0%5qeeq%44444444444444444444",
"44444444444444444334.@***.*=89q00wwwqwrer,=<7t9,44444444444444444444",
"44444444444444444334.@%*@ $%8225908927wqw7%=<57544444444444444444444",
"44444444444444444444.@%*+.@$9878qq8w89qq09@*:15544444444444444444444",
"44444444444444444444.@$%$.@+$%%%%**===;598+$=<5544444444444444444444",
"444444444444444444444X+@@.X++@$$$$%**=:772@X+@%%44444444444444444444",
"444444444444444444444X+@$.X+@$*==::,11155<@X@$%%44444444444444444444",
"444444444444444444444X+$$.X+$*:,,<1255552,+.@%=,44444444444444444444",
"444444444444444444444X+*@..X@$%%***=======$@@%,,44444444444444444444",
"444444444444444444444.X@X..XX+@@$$%%%%$$%%XX..X 44444444444444444444",
"444444444444444444444   ...X+;590qww001,,,.... X44444444444444444444",
"444444444444444444444.....Xo<tttttttyyte0=444.++44444444444444444444",
"4444444444444444433444444.+$,1<,:;::1<5te1*4444444444444444444444444",
"4444444444444444433444444X+$$+@@@@@@@$1rw8>4444444444444444444444444",
"4444444444444444433444444o#$++++++@@@*9rw5=4444444444444444444444444",
"4444444444444444433444444.%#$=<5557888ttt<&4444444444444444444444444",
"4444444444444444433444444.#$:5788990qwrt0-&4444444444444444444444444",
"4444444444444444433444444.+$<57880qwwwq06&$4444444444444444444444444",
"4444444444444444433444444...@;,<1255775;%oX4444444444444444444444444",
"4444444444444444433444444.   X@%***=$$@   +4444444444444444444444444",
"4444444444444444433444444.$$  . O$@@OX    $4444444444444444444444444",
"4444444444444444433444444.$%=$.    ...X$:<:4444444444444444444444444",
"4444444444444444433444444X$=508$+X.X+$*:<<;4444443333333333333333333",
"4444444444444444433444444.%=<qw1%44X@%=:<,%4444443333333333333333333",
"4444444444444444433444444.$=1qw0:44X$%*,,;@4444443333333333333333333",
"4444444444444444433444444.@*5qwq544X$%*,,;@4444443333333333333333333",
"4444444444444444433444444.@*5qwq544X$%*::=@4444443333333333333333333",
"44444444444444444334444444+*1qwq744X$*=;:*@4444443333333333333333333",
"44444444444444444334444444.%;qwq744.@*=;:$44444443333333333333333333",
"44444444444444444334444444.%,qwq844.$*;,:@44444443333333333333333333",
"44444444444444444334444444.$;8wq544.$*,<:@44444443333333333333333333",
"44444444444444444334444444.$<qt0244.$*,<:@44444443333333333333333333",
"444444444444444443344444444$160;>44.@*51=$44444443333333333333333333",
"444444444444444443344444444>7ty0;44..$*%+$44444443333333333333333333",
"444444444444444443344444444<wtyy044+%:189444444443333333333333333333",
"44444444444444444334444444.1qtyyr44$<5weq=44444443333333333333333333",
"44444444444444444334444444 ,0tttq44$:7qq9;44444443333333333333333333",
"44444444444444444334444444 *9ttt844+*<785%44444443333333333333333333",
"444444444444444443344444444+8ttt*44.@=,1,@44444443333333333333333333",
"444444444444444443344444444+8ttt*44.@=,1,@44444443333333333333333333",
"444444444444444443344444444.5tte444.+$=:=444444443333333333333333333",
"44444444444444444334444444445qtt4444X+*=%444444443333333333333333333",
"4444444444444444433444444444280e4444X+*=@444444443333333333333333333",
"444444444444444443344444444.8tte4444.@=;4444444443333333333333333333",
"444444444444444443344444444X8ete4444.@,<4444444443333333333333333333",
"444444444444444443344444444.@X$%4444X=554444444443333333333333333333",
"444444444444444443344444444.    4444+*1<4444444443333333333333333333",
"44444444444444444334444444.    .4444+@%=4444444443333333333333333333",
"44444444444444444334444444     44444=<55,444444443333333333333333333",
"44444444444444444334444444      4444X$%%+.44444443333333333333333333",
"44444444444444444334444444     44444     444444443333333333333333333"
};
