/* XPM */
static char *result[] = {
/* columns rows colors chars-per-pixel */
"68 68 37 1 ",
"  c #090B0B",
". c #0E0E13",
"X c #151515",
"o c #131318",
"O c #181818",
"+ c #1E1E1E",
"@ c gray13",
"# c #272727",
"$ c #2A2A2A",
"% c #313131",
"& c #343434",
"* c gray23",
"= c #3F3F3F",
"- c #464646",
"; c gray29",
": c #515151",
"> c #555555",
", c #5D5D5D",
"< c gray38",
"1 c DimGray",
"2 c #717171",
"3 c #797979",
"4 c gray49",
"5 c none",
"6 c none",
"7 c #868686",
"8 c gray56",
"9 c #979797",
"0 c gray61",
"q c #A5A5A5",
"w c #AEAEAE",
"e c #B7B7B7",
"r c #C5C5C5",
"t c gray81",
"y c gray85",
"u c #E2E2E2",
"i c #FBFBFB",
/* pixels */
"55555555555555555555555555555666666666666555555555555555555555555555",
"55555555555555555666666666666666666666666666666665555555555555555555",
"666666666666666666666666666666666**666666666666665555555555555555555",
"6666666666666666666666666666663yuuiiuw666666666666555555555555555555",
"66666666666666666666666666666-0tiuuiiur66666666666555555555555555555",
"66666666666666666666666666666%#*ruue2>w66666666666555555555555555555",
"6666666666666666666666666666 *7eyuuuuyw66666666666555555555555555555",
"6666666666666666666666666666X%20etyuut026666666666555555555555555555",
"6666666666666666666666666666.*19wrtiitw26666666666555555555555555555",
"6666666666666666666666666666:7wiuuiiiiue6666666666555555555555555555",
"6666666666666666666666666663:4qruuuuuuurr666666666555555555555555555",
"666666666666666666666666666++#+#**-:-*:*:666666666555555555555555555",
"6666666666666666666666666666..        +%6666666666555555555555555555",
"666666666666666666666666,79tee992<<299uueuy0666666666666666666666666",
"6666666666666666666666#0yq-ruuuuuuuuiiiuryuii96666666666666666666666",
"666666666666666666666+30q*,4re97900weeuu90uiiu4666666666666666666666",
"666666666666666666666*121+:1rrwqttrwqwuu9:qtuir666666666666666666666",
"66666666666666666666.%---.-10q09wrr99qtyr->40wq>66666666666666666666",
"66666666666666666666.#**# *,9299qw9739err4-:279366666666666666666666",
"66666666666666666666.#**+.#:0927wq7019wew9%-137766666666666666666666",
"66666666666666666666.#**%.+%:>1111122330q0+*>27766666666666666666666",
"666666666666666666666X+##.X+++##%%%*--,097XX#%::66666666666666666666",
"666666666666666666666X+##.X+#%*--:::113772#.#%**66666666666666666666",
"666666666666666666666X+%..X+#*>11234777741+.#%-,66666666666666666666",
"666666666666666666666X+*#..X%*-::>,112111,++#*1266666666666666666666",
"666666666666666666666.+%+..X+++###%%%%%%%-+XX+%X+6666666666666666666",
"666666666666666666666    ...X%>1234773::>>...   66666666666666666666",
"666666666666666666666.......,uuuuuuuiiurw;66..+#66666666666666666666",
"66666666666666666666666...O&4eq73347rwqyt3-6666666666666666666666666",
"6666666666666666666666666oO**##%####%%1yr0<6666666666666666666666666",
"6666666666666666666666666O@-+++++####*0yr7;6666666666666666666666666",
"6666666666666666666666666O$*#%>1112343uuu2=6666666666666666666666666",
"6666666666666666666666666+@*:270wwertruuw:=6666666666666666666666666",
"6666666666666666666666666.O,370qwerrttre8=%6666666666666666666666666",
"6666666666666666666666666..+*12377900004*OX6666666666666666666666666",
"6666666666666666666666666    +*-::>,,>-.  X6666666666666666666666666",
"6666666666666666666666666..+% ...%%%%#.   +6666666666666666666666666",
"6666666666666666666666666+-10y2......    .*6666666666666666666666666",
"6666666666666666666666666#:2quuw%+..    .%*6666666666666666666666666",
"6666666666666666666666666#:30uuy3#..XX.#**%6666666555555555555555555",
"6666666666666666666666666.-3wuiue#6.X+##%*+6666666555555555555555555",
"6666666666666666666666666.*2wuiue#6.X++#%%+6666666555555555555555555",
"6666666666666666666666666.*2wuiue66.X++#%%+6666666555555555555555555",
"6666666666666666666666666 #19uuuw66.XX+#%#66666666555555555555555555",
"6666666666666666666666666 +,7uuuq66.X+##%+66666666555555555555555555",
"66666666666666666666666666X>9uuuq66.X+#%%+66666666555555555555555555",
"66666666666666666666666666.:7yuw066XX+#%%#66666666555555555555555555",
"66666666666666666666666666 -7uuq766.X+%%##66666666555555555555555555",
"66666666666666666666666666 X-112,66..X#*3666666666555555555555555555",
"666666666666666666666666666.%0w1%66.+%10q666666666555555555555555555",
"666666666666666666666666666:euuuu66X#-0q9*66666666555555555555555555",
"6666666666666666666666666664wiiuy66X+:473#66666666555555555555555555",
"66666666666666666666666666X30iiuy66.+*>1:#66666666555555555555555555",
"66666666666666666666666666.17yuue66.X#*-*666666666555555555555555555",
"66666666666666666666666666.17yiue66.X#*-*666666666555555555555555555",
"66666666666666666666666666.:7ruy0666X+#*+666666666555555555555555555",
"666666666666666666666666666*4rtr9666.+%%6666666666555555555555555555",
"666666666666666666666666666+2rtr,666.+%*6666666666555555555555555555",
"666666666666666666666666666.1qyw6666.+:,0666666666555555555555555555",
"666666666666666666666666666.1wuq6666.%239666666666555555555555555555",
"66666666666666666666666666661uur6666.#--:+66666666555555555555555555",
"66666666666666666666666666663uuy6666.+#*#666666666555555555555555555",
"666666666666666666666666666670we6666.+#%6666666666555555555555555555",
"666666666666666666666666666.2qe06666 ...6666666666555555555555555555",
"666666666666666666666666666.1900666666666666666666555555555555555555",
"66666666666666666666666666XX:477666666666666666666555555555555555555",
"66666666666666666666666666 .+%*%666666666666666666555555555555555555",
"666666666666666666666666666     666666666666666666555555555555555555"
};
