/* XPM */
static char *result[] = {
/* columns rows colors chars-per-pixel */
"68 68 40 1 ",
"  c #090B0B",
". c #0E0E13",
"X c #151515",
"o c #131318",
"O c #181818",
"+ c #1E1E1E",
"@ c gray13",
"# c #272727",
"$ c #2A2A2A",
"% c #2B313B",
"& c #313131",
"* c #343434",
"= c gray23",
"- c #3F3F3F",
"; c #010051",
": c #464646",
"> c gray29",
", c #515151",
"< c #555555",
"1 c #5D5D5D",
"2 c gray38",
"3 c DimGray",
"4 c #717171",
"5 c #797979",
"6 c gray49",
"7 c none",
"8 c none",
"9 c #868686",
"0 c gray56",
"q c #979797",
"w c gray61",
"e c #A5A5A5",
"r c #AEAEAE",
"t c #B7B7B7",
"y c #C1C1C1",
"u c #C5C5C5",
"i c gray81",
"p c gray85",
"a c #E2E2E2",
"s c #FBFBFB",
/* pixels */
"77777777777777777777777777777888888888888777777777777777777777777777",
"77777777777777777778888888888888888888888888888887777777777777777777",
"88888888888888888778888888888888888888888888888887777777777777777777",
"888888888888888887788888888888#6raai9=888888888888777777777777777777",
"88888888888888888778888888888@qiaaassaq88888888888777777777777777777",
"8888888888888888877888888888;#6auaaassa38888888888777777777777777777",
"8888888888888888877888888888.X@#,,1,55:=8888888888777777777777777777",
"8888888888888888877888888888.....#5:X@@=8888888888777777777777777777",
"8888888888888888877888888888..&=,4aw4--9X888888888777777777777777777",
"8888888888888888877888888888OX156&@,itw<X888888888777777777777777777",
"888888888888888887788888888#:@,3:<iu4ur9t888888888777777777777777777",
"888888888888888887788888888&53,9w34taiuap,88888888777777777777777777",
"8888888888888888877888888888@9t34,.:ttaa,888888888777777777777777777",
"888888888888888887788888888XX@,@#@..&#34=888888888888888888888888888",
"88888888888888888778888<pa35=##&&@.X:#::taaw888888888888888888888888",
"88888888888888888888889ssau1,1>@#$$#>63w,russ68888888888888888888888",
"888888888888888888888<ssaa61<33311<133ua44isss3888888888888888888888",
"88888888888888888888=4saau13eww96360wiaaq,uaasi888888888888888888888",
"88888888888888888888&5aaaw,4ttaaaaassssat>9asaa888888888888888888888",
"88888888888888888888:9psu:@4tpaaasssssssa92assa588888888888888888888",
"8888888888888888888831346#@@6aaattttaaatt0=@:1uu88888888888888888888",
"88888888888888888888X:ear:&#&,343wewqqq99:-3uaq=88888888888888888888",
"88888888888888888888@3iaw###=<3346&.XX=w3-=3tap588888888888888888888",
"88888888888888888888:5ua@@..@#@&..X.XX&<:=$3eaae88888888888888888888",
"88888888888888888888:,w3...&&&<&&#..@@X.@=@&&4qi88888888888888888888",
"88888888888888888888#395X..... .....XX....@4ssuq88888888888888888888",
"88888888888888888888@&=@X....  ... ...#iw9sssaai=8888888888888888888",
"88888888888888888888........    ooO...&pirtpirw588888888888888888888",
"888888888888888888888........XX=>oo....wew3541,&88888888888888888888",
"88888888888888888888888888=o.+=31Oo#.. &3,=@@88888888888888888888888",
"88888888888888888888888888##,+&>:#+@XX@@@@@8888888888888888888888888",
"8888888888888888888888888:+#&+&<:#+&&#@@@@@8888888888888888888888888",
"888888888888888888888888X=1=11=$$#-#&=&@&,:@888888888888888888888888",
"888888888888888888888888+=3##&@@@#=&&=@.@,,@888888888888888888888888",
"888888888888888888888888#=:# @#@@#=::@@@@,3,888888888888888888888888",
"888888888888888888888888&&:*# X#@&::&@&@@qi,888888888888888888888888",
"888888888888888888888888.X#*=# X#&::@&::#qw,888888888888888888888888",
"8888888888888888888888888XX*=:# X&:&@=:u=&,8888888888888888888888888",
"8888888888888888888888888.X**=:@.#&@&&<at558888888888888888888888888",
"8888888888888888888888888.X&*==@@X8@#=iaaae8888888777777777777777777",
"8888888888888888877888888.X$*==#@X8@#1asaiq8888888777777777777777777",
"8888888888888888877888888XX@*=*&@X8=,wasat98888888777777777777777777",
"8888888888888888877888888XX@&**&@X8=5quspe<8888888777777777777777777",
"88888888888888888778888888o@&**#@;8=5wisuw&8888888777777777777777777",
"88888888888888888778888888X@#&&@@88&4wpsu988888888777777777777777777",
"88888888888888888778888888.@@&$@X88@4wppt688888888777777777777777777",
"88888888888888888778888888.X@#$@X88@4eapr188888888777777777777777777",
"88888888888888888778888888.X@@@X.88.O+s<O*88888888777777777777777777",
"88888888888888888778888888.X$$#..88.Xsqq=X88888888777777777777777777",
"88888888888888888778888888.XOO@..o8.*rtt1X88888888777777777777777777",
"88888888888888888778888888..X@...X8#=9wqe*88888888777777777777777777",
"88888888888888888778888888..XX..@X8@@,449*88888888777777777777777777",
"888888888888888887788888888.XX.X@X8#=39aa<88888888777777777777777777",
"888888888888888887788888888.X..@@X8#:4ess,88888888777777777777777777",
"888888888888888887788888888.X..@X88#:4raa,88888888777777777777777777",
"888888888888888887788888888 .X@@o88@:3ea9&88888888777777777777777777",
"8888888888888888877888888888.X@@X88X=3yu5888888888777777777777777777",
"8888888888888888877888888888.X@#X88.&3yu5888888888777777777777777777",
"8888888888888888877888888888.X#&X88.&3ae,888888888777777777777777777",
"8888888888888888877888888888.@&&8888#<ae*888888888777777777777777777",
"8888888888888888877888888888@&&#8888#3se=888888888777777777777777777",
"888888888888888887788888888@#&&@8888#6sw=888888888777777777777777777",
"888888888888888887788888888##&&X8888,wau=888888888777777777777777777",
"88888888888888888778888888.@&&&@8888,9pa*888888888777777777777777777",
"88888888888888888778888888 ..XX88888.3up3=88888888777777777777777777",
"888888888888888887788888888888888888@:5qq3%8888888777777777777777777",
"888888888888888887788888888888888888. .. .o8888888777777777777777777",
"888888888888888887788888888888888888     ;88888888777777777777777777"
};
