/* XPM */
static char *result[] = {
/* columns rows colors chars-per-pixel */
"68 68 41 1 ",
"  c #090B0B",
". c #0E0E13",
"X c #151515",
"o c #131318",
"O c #16181E",
"+ c #181818",
"@ c #1E1E1E",
"# c gray13",
"$ c #272727",
"% c #2A2A2A",
"& c #313131",
"* c #343434",
"= c gray23",
"- c #3F3F3F",
"; c #010051",
": c #383B4D",
"> c #464646",
", c gray29",
"< c #515151",
"1 c #555555",
"2 c #5D5D5D",
"3 c gray38",
"4 c DimGray",
"5 c #717171",
"6 c #797979",
"7 c gray49",
"8 c none",
"9 c none",
"0 c #868686",
"q c gray56",
"w c #979797",
"e c gray61",
"r c #A5A5A5",
"t c #AEAEAE",
"y c #B7B7B7",
"u c #C1C1C1",
"i c #C5C5C5",
"p c gray81",
"a c gray85",
"s c #E2E2E2",
"d c #FBFBFB",
/* pixels */
"88888888888888888888888888888999999999999888888888888888888888888888",
"88888888888888888999999999999999999999999999999998888888888888888888",
"999999999999999999999999999999915ttq5=999999999998888888888888888888",
"99999999999999999999999999999$rsssddssw99999999999888888888888888888",
"99999999999999999999999999999>sysssddsd69999999999888888888888888888",
"9999999999999999999999999999.$=,2566667=9999999999888888888888888888",
"9999999999999999999999999999.X...=6$@X#&9999999999888888888888888888",
"9999999999999999999999999999.X$$=2i6,>1e9999999999888888888888888888",
"9999999999999999999999999999.$22411idye>9999999999888888888888888888",
"999999999999999999999999999:#$q1&6t5iddq4999999999888888888888888888",
"999999999999999999999999999=4=>w5qdsstpss<99999999888888888888888888",
"999999999999999999999999999.1tq55#$iyysi,999999999888888888888888888",
"9999999999999999999999999999X6.X#..>.#i19999999999888888888888888888",
"9999999999999999999999994u5,&XXX#..$XX=4ppuq999999999999999999999999",
"9999999999999999999999&tipe,=2,#$%%$,74e2uyssw9999999999999999999999",
"999999999999999999999#wiyy7,2444221244it1wupssq999999999999999999999",
"999999999999999999999,ritq<2tee0747qepsy72upsss999999999999999999999",
"99999999999999999999#5yay5,5ippppassssspt,qusss499999999999999999999",
"99999999999999999999&qipq,*qipssssssssssu52utase99999999999999999999",
"99999999999999999999=24=&X,upssssttsssssq1&&wtsi99999999999999999999",
"99999999999999999999X4ay6#X,7qqrewwyiiiwq,#7rw1q99999999999999999999",
"99999999999999999999&qpw1##=>,1$&>==wwww4*&qsst>99999999999999999999",
"99999999999999999999$>>=&X#=##$..#$$4qee1%=5sss,99999999999999999999",
"999999999999999999 .#.......XX.##X#X##=6**&4sss599999999999999999999",
"999999999999999999  .........  ..X#.....,,5yirq499999999999999999999",
"999999999999999999.XX......... ....=w,>6assssss599999999999999999999",
"9999999999999999999.....    .X.# ..sssrisssspye=99999999999999999999",
"99999999999999999999..XX....X&&....5iir&rerq74,999999999999999999999",
"9999999999999999999999999#X#XX=... .qq7=75==&#X999999999999999999999",
"999999999999999999999999;.#>@=4=...X&&,=#####99999999999999999999999",
"9999999999999999999999999#&,@&,>$$$&&$#####>999999999999999999999999",
"999999999999999999999999@=6,@&1>$$$$===@$$=>999999999999999999999999",
"999999999999999999999999$1e&2=%%$$&&&=$@=>>>999999999999999999999999",
"999999999999999999999999$47&&#X#&&>>>&+o&>>9999999999999999999999999",
"999999999999999999999999%4-&&###$&>>>@X@&qr9999999999999999999999999",
"999999999999999999999999&3-&&&&#$&>>$X$$#ee9999999999999999999999999",
"999999999999999999999999 .X$=22=#&>=X$$&->@9999999999999999999999999",
"999999999999999999999999 X#$254>#$&$#$&->>@9999999999999999999999999",
"999999999999999999999999 X@&0441>#X.$$&,>,@9999999999999999999999999",
"9999999999999999999999999X@>q071>#.X#$=,>,@9999999888888888888888888",
"9999999999999999999999999X@7rt54>=.X#$=>>,@9999999888888888888888888",
"9999999999999999999999999.@qtpy7>-9X##&>>>@9999999888888888888888888",
"9999999999999999999999999.$qidsr2#9X##&=>=@9999999888888888888888888",
"9999999999999999999999999.=tpdsp6#9.X#$=>&o9999999888888888888888888",
"9999999999999999999999999.1tpdsa-O9.X#$&=%o9999999888888888888888888",
"9999999999999999999999999;2sdddd%99.X#$&=@.9999999888888888888888888",
"9999999999999999999999999r5pydst#99.X#$&&+.9999999888888888888888888",
"999999999999999999999999964etiat#99.X#$$&X99999999888888888888888888",
"99999999999999999999999999o>X&###99..@$&#.99999999888888888888888888",
"99999999999999999999999999.$4wq7&99..X....99999999888888888888888888",
"999999999999999999999999999,7ir7999.X.&5o.99999999888888888888888888",
"99999999999999999999999999X1qip7799.#&#=6999999999888888888888888888",
"99999999999999999999999999#2qip0099XX##==999999999888888888888888888",
"99999999999999999999999999#1qiir099XX##&&999999999888888888888888888",
"99999999999999999999999999X,qiuwq99.X##&$999999999888888888888888888",
"99999999999999999999999999.>7iu0099.X$#&X999999999888888888888888888",
"99999999999999999999999999.=6yu71999X$=&9999999999888888888888888888",
"999999999999999999999999999&2ey79999X&=$9999999999888888888888888888",
"999999999999999999999999999X4ur79999X&==9999999999888888888888888888",
"999999999999999999999999999.4uq79999X&,q9999999999888888888888888888",
"999999999999999999999999999.5u779999#&yu9999999999888888888888888888",
"999999999999999999999999999#qu709999.7uu,999999999888888888888888888",
"999999999999999999999999999&rq7r9999#tsss,99999999888888888888888888",
"999999999999999999999999999qyp7&9999.6ypr=99999999888888888888888888",
"99999999999999999999999999....$19999  X#. 99999999888888888888888888",
"9999999999999999999999999      2999999999999999999888888888888888888",
"99999999999999999999999999     X999999999999999999888888888888888888",
"999999999999999999999999999     999999999999999999888888888888888888"
};
