/* XPM */
static char *result[] = {
/* columns rows colors chars-per-pixel */
"68 68 40 1 ",
"  c #090B0B",
". c #0E0E13",
"X c #151515",
"o c #131318",
"O c #181818",
"+ c #1E1E1E",
"@ c gray13",
"# c #272727",
"$ c #21242E",
"% c #2A2A2A",
"& c #313131",
"* c #343434",
"= c gray23",
"- c #3F3F3F",
"; c #3B4255",
": c #464646",
"> c gray29",
", c #515151",
"< c #555555",
"1 c #5D5D5D",
"2 c gray38",
"3 c DimGray",
"4 c #717171",
"5 c #797979",
"6 c gray49",
"7 c none",
"8 c none",
"9 c #868686",
"0 c gray56",
"q c #979797",
"w c gray61",
"e c #A5A5A5",
"r c #AEAEAE",
"t c #B7B7B7",
"y c #C1C1C1",
"u c #C5C5C5",
"i c gray81",
"p c gray85",
"a c #E2E2E2",
"s c #FBFBFB",
/* pixels */
"77777777777777777777777777777888888888888777777777777777777777777777",
"77777777777777777778888888888888888888888888888887777777777777777777",
"8888888888888888877888888888888:4rrw4=888888888887777777777777777777",
"88888888888888888778888888888@qpappssaq88888888888777777777777777777",
"88888888888888888778888888888&9aiappssp18888888888777777777777777777",
"8888888888888888877888888888.@=:<355554<8888888888777777777777777777",
"8888888888888888877888888888.....@4=@@@#8888888888777777777777777777",
"8888888888888888877888888888.X=#-5a91==98888888888777777777777777777",
"8888888888888888877888888888.X345:=qite:8888888888777777777777777777",
"888888888888888887788888888:#@56=,u94pt65888888888777777777777777777",
"888888888888888887788888888=6,:6w4wiauuaa=88888888777777777777777777",
"888888888888888887788888888.=wt59,X,paaa3888888888777777777777777777",
"88888888888888888778888888888:3.&X.@&.r98888888888777777777777777777",
"888888888888888887788888931##@#=&X X=&:<air1888888888888888888888888",
"88888888888888888778884uau3::1>@#%%#>636,wuaa,8888888888888888888888",
"888888888888888888888:eaau1,133311<133ui24uaaa8888888888888888888888",
"88888888888888888888#5taar>13ww96360wiaar>eaaai888888888888888888888",
"88888888888888888888=5taa6:6euuaaaaaaaaay23uaaa888888888888888888888",
"88888888888888888888:9uap:#euuaaaaaaaaaay6-qyaa688888888888888888888",
"888888888888888888883431:@@&iaaaaiiiaaaaq>@>qaau88888888888888888888",
"88888888888888888888@=taw=#@:rutiueqtaaa4*%4ar1188888888888888888888",
"88888888888888888888#4tq38&#:<1,13.XXX9q1&&3aap388888888888888888888",
"88888888888888888888=64@X....X#.XX..XX,3>@,0taaq88888888888888888888",
"88888888888888888888,31..#&#   ... X@X.X&%>6waau88888888888888888888",
"88888888888888888888=33@.... .... ..X...@*4tutt988888888888888888888",
"88888888888888888888&=#@#...   ..  ..Xer4taaaaaa88888888888888888888",
"88888888888888888888........   X@.....ipi9apite688888888888888888888",
"88888888888888888888 ....8.@@XX=>.... 3re39943<&88888888888888888888",
"8888888888888888888888888#XX#+=31#o.. X41:,,@#@888888888888888888888",
"8888888888888888888888888:@=3+&>:#&XX@@#@@@.888888888888888888888888",
"8888888888888888888888888&:<1+&<:###:=&#=,=:888888888888888888888888",
"888888888888888888888888X=3=@1=%%##=&=#O&,,:888888888888888888888888",
"888888888888888888888888@=1@@X@@@#=,:=@X@,3:888888888888888888888888",
"888888888888888888888888@=1=@X@@@&:,:=@@@qu8888888888888888888888888",
"888888888888888888888888#=3== X@#&:::%+##eu8888888888888888888888888",
"8888888888888888888888888.@=5&.X#&::*+*:@#:8888888888888888888888888",
"888888888888888888888888 X@&31:X@&:-+*,u<:38888888888888888888888888",
"888888888888888888888888 X@&=::#X#&##&9aa658888888888888888888888888",
"8888888888888888888888888.@@&::&@OX@#3rssuq8888888888888888888888888",
"8888888888888888888888888.@@&=:=@O.@#3assu98888888777777777777777777",
"8888888888888888877888888.X@&=::=8X@:3pssr48888888777777777777777777",
"8888888888888888877888888.X@&=::=8X@:5issw48888888777777777777777777",
"8888888888888888877888888.X@#=::&8X@15usi9:8888888777777777777777777",
"8888888888888888877888888 X@#=::#88#15usy6:8888888777777777777777777",
"8888888888888888877888888 XX#&:=@88#,6rsr5&8888888777777777777777777",
"8888888888888888877888888 XX@&=&@88@,5eaq3&8888888777777777777777777",
"8888888888888888877888888 XX@&=#@88X&5req:&8888888777777777777777777",
"88888888888888888778888888.X@#&@X88.#60w9:$8888888777777777777777777",
"88888888888888888778888888..OXO.@88.#&<<6:+8888888777777777777777777",
"88888888888888888778888888....o.X88..-sae.O8888888777777777777777777",
"88888888888888888778888888 XXXXX.888.aurio.8888888777777777777777777",
"888888888888888887788888888.++X..888=4ee5:$8888888777777777777777777",
"888888888888888887788888888..@@..88@:5w554$8888888777777777777777777",
"8888888888888888877888888888.@X.o88@29ite4$8888888777777777777777777",
"8888888888888888877888888888.XX@o88@9eysw1$8888888777777777777777777",
"8888888888888888877888888888.XX@o88@99ysw1$8888888777777777777777777",
"8888888888888888877888888888..@#o88X-9tsq:$8888888777777777777777777",
"8888888888888888877888888888.X@#o88X*3ra9=88888888777777777777777777",
"8888888888888888877888888888@@@@o888&2qa4=88888888777777777777777777",
"888888888888888887788888888X@&@@8888#,0e4&88888888777777777777777777",
"888888888888888887788888888X%&%@8888+:0e4$88888888777777777777777777",
"88888888888888888778888888.@&&&@8888X-9e:$88888888777777777777777777",
"88888888888888888778888888 X#&&.8888O222:888888888777777777777777777",
"888888888888888887788888888 X@.888884299,888888888777777777777777777",
"888888888888888887788888888888888888:9tu,888888888777777777777777777",
"888888888888888887788888888888888888@ritr;88888888777777777777777777",
"888888888888888887788888888888888888#ruape88888888777777777777777777",
"888888888888888887788888888888888888.&=,,=88888888777777777777777777"
};
