/* XPM */
static char *result[] = {
/* columns rows colors chars-per-pixel */
"68 68 39 1 ",
"  c black",
". c gray2",
"X c #090B0B",
"o c #0E0E13",
"O c #151515",
"+ c #181818",
"@ c #1E1E1E",
"# c gray13",
"$ c #272727",
"% c #21242E",
"& c #2A2A2A",
"* c #313131",
"= c #343434",
"- c gray23",
"; c #3F3F3F",
": c #464646",
"> c gray29",
", c #515151",
"< c #555555",
"1 c #5D5D5D",
"2 c gray38",
"3 c DimGray",
"4 c #717171",
"5 c #797979",
"6 c gray49",
"7 c none",
"8 c none",
"9 c gray56",
"0 c #979797",
"q c gray61",
"w c #A5A5A5",
"e c #AEAEAE",
"r c #B7B7B7",
"t c #C1C1C1",
"y c #C5C5C5",
"u c gray81",
"i c gray85",
"p c #E2E2E2",
"a c #FBFBFB",
/* pixels */
"77777777777777777778888888888888888888888888888888888888888877777777",
"7777777777777777777888888888888:444,*8888888888888888888888877777777",
"777777777777888888888888888884paaapppi5O8888888888888888888888888888",
"7777777777778888888888888888,raaappaayq<8888888888888888888888888888",
"77777777777788888888888888881:pppy<,662-@888888888888888888888888888",
"7777777777778888888888888888ppppiy4<<*ooX888888888888888888888888888",
"7777777777778888888888888881yippipre94@oo888888888888888888888888888",
"7777777777778888888888888884ypaaur2w5-,O@O88888888888888888888888888",
"777777777777888888888888888yppppaypp0-,-@o88888888888888888888888888",
"777777777777888888888888882yppppeepue5:<::88888888888888888888888888",
"77777777777788888888888888@::*-:-*,,,1qq,$88888888888888888888888888",
"77777777777788888888888888888@$::@Xo@:54$o88888888888888888888888888",
"7777777777778888888888888889pppp4@:-88$$o888888888888888888888888888",
"88888888888888888888888888ppaaapp4X$88888888888888888888888888888888",
"8888888888888888888888889eiaaapppq@X<8888888888888888888888888888888",
"888888888888888888888888ew0ippppyq:X-5888888888888888888888888888888",
"888888888888888888888888yi<qupaayw2ooe288888888888888888888888888888",
"888888888888888888888888ru,4wuaaye6@Xqw*8888888888888888888888888888",
"888888888888888888888888ry6,9ruuyr0-X2,@8888888888888888888888888888",
"888888888888888888888888*9q,2qyiu9:O@:-$8888888888888888888888888888",
"8888888888888888888888888,94@@$*-:,-<:-@888oooo8X888X .8888888888888",
"8888888888888888888888888,55&--2qqq5,:*o88ooooooooooo. .888888888888",
"8888888888888888888888888-2<$,19eye9<-*o8Oooooooooooo   888888888888",
"8888888888888888888888888@,->=,9wye2*q51-$oXXX@@XXXXX  8888888888888",
"888888888888888888888888888$*$:21*XX*9qweerr6@42-XXXX888888888888888",
"888888888888888888888888$-8;>+@,-XooO::,<<266-2:*ooX8888888888888888",
"88888888888888888888888*,4-:23-+@@ooO@$$$****$,@o8888888888888888888",
"888888888888888888888884yq1166<<=-**@OOoooooo8oo88888888888888888888",
"888888888888888888888888%-40eqq02-*$@@oO8888888888888888888888888888",
"8888888888888888888888888#0yuyeq5,*@@@o@8888888888888888888888888888",
"888888888888888888888888#4euuurww9:@*$oO8888888888888888888888888888",
"888888888888888888888888,0ipppyr$-*@*@Oo8888888888888888888888888888",
"8888888888888888888888883ryuuue6oXX,<@O88888888888888888888888888888",
"888888888888888888888888<6weee5oooX99$O88888888888888888888888888888",
"888888888888888888888888;;,22-ooooX90:O88888888888888888888888888888",
"888888888888888888888888@XXXXoooooX901$X8888888888888888888888888888",
"888888888888888888888888@oXXooo:oO:,$$o88888888888888888888888888888",
"8888888888888888888888888o*,:5er462-@o888888888888888888888888888888",
"88888888888888888888888888werppe04,$@o888888888888888888888888888888",
"77777777778888888888888888wepape92-@@oo88888888888888888888888888888",
"77777777778888888888888888wiapew5,*@$oo88888888888888888888888888888",
"77777777778888888888888888qipeq02:$OOoo88888888888888888888888888888",
"777777777788888888888888880teqq5,*@@ooo88888888888888888888888888888",
"777777777788888888888888880eqq92-$@@ooO88888888888888888888888888888",
"777777777788888888888888880eq05,-@OOoOO88888888888888888888888888888",
"777777777788888888888888880qq94,*@@oo@O88888888888888888888888888888",
"77777777778888888888888888qqq92:$OOo@@OO8888888888888888888888888888",
"777777777788888888888888885qq6<-@@oO@@@o8888888888888888888888888888",
"77777777778888888888888888,q05,$OOo@$oX88888888888888888888888888888",
"77777777778888888888888888oo,2,$OoO@@@o88888888888888888888888888888",
"77777777778888888888888888ooo@@:2oo@Oo888888888888888888888888888888",
"77777777778888888888888884ype9:<ooOo88888888888888888888888888888888",
"7777777777888888888888884pppe5:$ooX888888888888888888888888888888888",
"777777777788888888888888yiiy9,@OX88888888888888888888888888888888888",
"777777777788888888888885wrrq2*@8888888888888888888888888888888888888",
"77777777778888888888888r9qq5,@O8888888888888888888888888888888888888",
"77777777778888888888880e6992-@o8888888888888888888888888888888888888",
"7777777777888888888888e9665<*O88888888888888888888888888888888888888",
"777777777788888888888w01664,$o88888888888888888888888888888888888888",
"77777777778888888888842,995,@888888888888888888888888888888888888888",
"77777777778888888888XXoOqq9,$888888888888888888888888888888888888888",
"777777777788888888888888rrq2$oo8888888888888888888888888888888888888",
"777777777788888888888888yir92oXo888888888888888888888888888888888888",
"7777777777888888888888885qq99888888888888888888888888888888888888888",
"7777777777888888888888889959ry28888888888888888888888888888888888888",
"7777777777888888888888886990wyuuuy8888888888888888888888888888888888",
"777777777788888888888888*-::<20qqq91@8888888888888888888888888888888",
"777777777788888888888888XXXXXXooooXXX8888888888888888888888888888888"
};
