/* XPM */
static char *result[] = {
/* columns rows colors chars-per-pixel */
"68 68 35 1 ",
"  c #090B0B",
". c #0E0E13",
"X c #151515",
"o c #16181E",
"O c #1E1E1E",
"+ c gray13",
"@ c #272727",
"# c #2A2A2A",
"$ c #313131",
"% c #343434",
"& c gray23",
"* c #464646",
"= c gray29",
"- c #515151",
"; c #555555",
": c #5D5D5D",
"> c gray38",
", c DimGray",
"< c #717171",
"1 c #797979",
"2 c gray49",
"3 c none",
"4 c none",
"5 c #868686",
"6 c gray56",
"7 c #979797",
"8 c gray61",
"9 c #A5A5A5",
"0 c #AEAEAE",
"q c #B7B7B7",
"w c #C5C5C5",
"e c gray81",
"r c gray85",
"t c #E2E2E2",
"y c #FBFBFB",
/* pixels */
"33333333333333444444444444444444444444444444444444443333333333333333",
"33333333333333444444444444444444444444444444444444443333333333333333",
"33333333344444444444444444444444444444444444444444444444444444444444",
"333333333444444444444444444444420008<&444444444444444444444444444444",
"333333333444444444444444444440tyyytttr8@4444444444444444444444444444",
"3333333334444444444444444444:7yyytq0yy7;.444444444444444444444444444",
"333333333444444444444444444462rtte-*-;*@X444444444444444444444444444",
"3333333334444444444444444444rtttet862*.. 444444444444444444444444444",
"333333333444444444444444444>wrttew967;&X.444444444444444444444444444",
"3333333334444444444444444441ryyytq>92&*@O.44444444444444444444444444",
"333333333444444444444444444rtttty9tt0***@O44444444444444444444444444",
"33333333344444444444444444:9qett81t081-:**44444444444444444444444444",
"333333333444444444444444444OOOO@OO@$&>08-O44444444444444444444444444",
"44444444444444444444444444444-;>;$$4.$:;O 44444444444444444444444444",
"4444444444444444444444444448ttttr*.*44OO 444444444444444444444444444",
"444444444444444444444444*6ettyyytq$X$4444444444444444444444444444444",
"4444444444444444444444446q9tyyyytw>.$$444444444444444444444444444444",
"4444444444444444444444449w<9ttyyeq6O.6$44444444444444444444444444444",
"44444444444444444444444-8e7>9eryy06& :844444444444444444444444444444",
"44444444444444444444444;8w8-20eyy08>.&7-4444444444444444444444444444",
"44444444444444444444444-8q0;;7qeww91.$*@.444444444444444444444444444",
"4444444444444444444444444;86*>8q86-O.*&@.444444444444444444444444444",
"4444444444444444444444444*26-.@$&&--**&O4444....44444444444444444444",
"4444444444444444444444444*<6<%&-1986:*$.44..  ......... 444444444444",
"4444444444444444444444444&:26$-<8q08<*$.4XO......X...   444444444444",
"4444444444444444444444444X$->%*:600<$-71;$X   XX..      444444444444",
"444444444444444444444444444$$O$->O.  ;<779906@1>$    444444444444444",
"444444444444444444444444@&4##OO$-O   @$**--><&<&$   4444444444444444",
"44444444444444444444444$-<&*>,&O+OO.XOOO@@@@@.*OX4444444444444444444",
"44444444444444444444444<w8::22;;%&$@@XX...... ..44444444444444444444",
"444444444444444444444444o&>7w887>&$@O@XO4444444444444444444444444444",
"444444444444444444444444+:5www081-*OOOXX4444444444444444444444444444",
"444444444444444444444444+5erete911>@@O.X4444444444444444444444444444",
"44444444444444444444444+:wrrtrw1&& O&OX.4444444444444444444444444444",
"44444444444444444444444+,qweew0&.. ;1@X44444444444444444444444444444",
"44444444444444444444444+:89008;... ;7*X44444444444444444444444444444",
"444444444444444444444444+=;>>O ...$;7;O44444444444444444444444444444",
"444444444444444444444444X.    ..$$>;6:$44444444444444444444444444444",
"4444444444444444444444444.. ..@162>*OX444444444444444444444444444444",
"33333333344444444444444444.6<0qq7>:$O.444444444444444444444444444444",
"3333333334444444444444444490ryyr6:*@O.444444444444444444444444444444",
"333333333444444444444444449qtyy8<-&OO.444444444444444444444444444444",
"333333333444444444444444448qyt06:-$XO.444444444444444444444444444444",
"333333333444444444444444448qq87<:&OXO.444444444444444444444444444444",
"3333333334444444444444444478877<-$OO..444444444444444444444444444444",
"3333333334444444444444444478872;&OXO..444444444444444444444444444444",
"333333333444444444444444447886<-$OX..X444444444444444444444444444444",
"333333333444444444444444442886>*@XO..X444444444444444444444444444444",
"33333333344444444444444444-282:&OO..XX444444444444444444444444444444",
"3333333334444444444444444-  ---$OO.XOX.44444444444444444444444444444",
"3333333334444444444444wtt8-     O.XX.4444444444444444444444444444444",
"333333333444444444448ttttt8- -$X. ..OX.44444444444444444444444444444",
"3333333334444444444qttttr06-@X.4 O@OOX.44444444444444444444444444444",
"333333333444444444wttte92;&@O@.OO@@OOX.44444444444444444444444444444",
"333333333444444440ttw91-$OOO.44OO@@@OXX44444444444444444444444444444",
"3333333334444444rtr02-$OO.44444XO@@@OXX44444444444444444444444444444",
"333333333444444rtr8>$OOX44444444OO@OOXX44444444444444444444444444444",
"3333333334444rttr7-@O.4444444444OOOOOOX44444444444444444444444444444",
"3333333334444tte2&O.4444444444444OOO@$X44444444444444444444444444444",
"33333333344ww786&X444444444444444XO@*-$44444444444444444444444444444",
"3333333334>0887>@44444444444444444O&>>-44444444444444444444444444444",
"3333333334.*6897-44444444444444444O-66>44444444444444444444444444444",
"33333333344 X2991444444444444444444<qq864444444444444444444444444444",
"3333333334444.196;444444444444444446wr9-4444444444444444444444444444",
"33333333344444.-622444444444444444442-O@1444444444444444444444444444",
"333333333444444 O&;-44444444444444467>->7944444444444444444444444444",
"33333333344444444  .444444444444444->-->170q084444444444444444444444",
"33333333344444444444444444444444444...  .O@$@OX 44444444444444444444"
};
