/* XPM */
static char *result[] = {
/* columns rows colors chars-per-pixel */
"68 68 37 1 ",
"  c #090B0B",
". c #0E0E13",
"X c #151515",
"o c #131318",
"O c #181818",
"+ c #1E1E1E",
"@ c gray13",
"# c #272727",
"$ c #2A2A2A",
"% c #313131",
"& c #343434",
"* c gray23",
"= c #3F3F3F",
"- c #464646",
"; c gray29",
": c #515151",
"> c #555555",
", c #5D5D5D",
"< c gray38",
"1 c DimGray",
"2 c #717171",
"3 c #797979",
"4 c gray49",
"5 c none",
"6 c none",
"7 c #868686",
"8 c gray56",
"9 c #979797",
"0 c gray61",
"q c #A5A5A5",
"w c #AEAEAE",
"e c #B7B7B7",
"r c #C5C5C5",
"t c gray81",
"y c gray85",
"u c #E2E2E2",
"i c #FBFBFB",
/* pixels */
"55555556666666666666666666666666666666666666666666666666666655555555",
"55555556666666666666666666666666666666666666666666666666666655555555",
"5555555666666666666666666666666-222,%6666666666666666666666666666666",
"555555566666666666666666666662uuiiiuuy3+6666666666666666666666666666",
"5555555666666666666666666666>euiiuuyii0>6666666666666666666666666666",
"5555555666666666666666666666,-ruur>:34<*+666666666666666666666666666",
"5555555666666666666666666666uuuuyt2>>%.. 666666666666666666666666666",
"555555566666666666666666666,ryuyyur992+..666666666666666666666666666",
"5555555666666666666666666662riiiyr203*:++X66666666666666666666666666",
"555555566666666666666666666ruuuiiruu9*:%+.66666666666666666666666666",
"55555556666666666666666666<ruuuuewutw3->--66666666666666666666666666",
"55555556666666666666666666+--%*-%#---,00:#66666666666666666666666666",
"55555556666666666666666666666+#:*X .X-32#.66666666666666666666666666",
"666666666666666666666666666quuut:+-#6.##.666666666666666666666666666",
"66666666666666666666666666uuiiiut-.%66666666666666666666666666666666",
"6666666666666666666666669wuuiiiut4.X26666666666666666666666666666666",
"666666666666666666666666r9wuuuuur9# <,666666666666666666666666666666",
"666666666666666666666666rw2wuuiie0-.*w-66666666666666666666666666666",
"66666666666666666666666-rw:4eyiirq<.+00.6666666666666666666666666666",
"66666666666666666666666:re*,0ryyrw4++2:+6666666666666666666666666666",
"666666666666666666666666*7::7wyy9<#.*-*%666666.666666666666666666666",
"6666666666666666666666666,7*.##**::-:-*X666.......     .666666666666",
"6666666666666666666666666:32$*-4qw0<>-%.66...........  .666666666666",
"6666666666666666666666666-24=:30rw03:*#.6+X..........    66666666666",
"6666666666666666666666666+:2>*,9wr9--02,*#..  *+. 6    6666666666666",
"666666666666666666666666666#%$-2*+  ,0qqewre<*2<*     66666666666666",
"666666666666666666666666#*6$*=@:+...%::<,,<77*,-%.. 6666666666666666",
"66666666666666666666666%:2*;>;%@-+..+###%%%%%#*#.6666666666666666666",
"666666666666666666666662r02,44>>&*#%XXX.....66..66666666666666666666",
"6666666666666666666666666*<rw009<*%+++XX6666666666666666666666666666",
"666666666666666666666666627rtrw031;+#+X+6666666666666666666666666666",
"666666666666666666666666&4tuuutq83:+%#.+6666666666666666666666666666",
"666666666666666666666666;rtyrrw04*%+%+X.6666666666666666666666666666",
"6666666666666666666666661wrrtrq<  +%-#+66666666666666666666666666666",
"666666666666666666666666-1qqw02%. +-7#+66666666666666666666666666666",
"666666666666666666666666+:,3<-...O#4w<*66666666666666666666666666666",
"6666666666666666666666666.    ..+9,7r7366666666666666666666666666666",
"66666666666666666666666666   ..+077,:%.66666666666666666666666666666",
"66666666666666666666666666o  .%7773,-#666666666666666666666666666666",
"55555556666666666666666666@%#:477732,#+66666666666666666666666666666",
"55555556666666666666666666$*<<377732<*+66666666666666666666666666666",
"55555556666666666666666666*%;,234332,-*66666666666666666666666666666",
"55555556666666666666666666:*%,,23332>--66666666666666666666666666666",
"5555555666666666666666666#::#%,<2222>-*%6666666666666666666666666666",
"5555555666666666666666666<::%#*<2222>:%#6666666666666666666666666666",
"55555556666666666666666664<::%@=<<22,:>#6666666666666666666666666666",
"555555566666666666666666640<:*O.*<22<%##6666666666666666666666666666",
"55555556666666666666666667eq<:%o+#%-#   6666666666666666666666666666",
"5555555666666666666666666wee9-777*     2#666666666666666666666666666",
"5555555666666666666666666<23eiiut07&O>3,@666666666666666666666666666",
"5555555666666666666666666XXyuiiut8,<::.@6666666666666666666666666666",
"555555566666666666666666w7yiuuyr03:-++.66666666666666666666666666666",
"5555555666666666666666677riiyt02-#+#.6666666666666666666666666666666",
"555555566666666666666667yyytw4:#++.666666666666666666666666666666666",
"55555556666666666666667ryyr0,%++X66666666666666666666666666666666666",
"5555555666666666666666ryyr7-#+.6666666666666666666666666666666666666",
"5555555666666666666667ryt4*+.666666666666666666666666666666666666666",
"555555566666666666666ryr3%+.6666666666666666666666666666666666666666",
"55555556666666666666r0q7*+. 6666666666666666666666666666666666666666",
"5555555666666666666wq099-+.66666666666666666666666666666666666666666",
"555555566666666666.%40qq7#666666666666666666666666666666666666666666",
"5555555666666666666 +<0w0,666666666666666666666666666666666666666666",
"555555566666666666663q:4q9266666666666666666666666666666666666666666",
"5555555666666666666607*+-2326666666666666666666666666666666666666666",
"555555566666666666667-%++X#*#666666666666666666666666666666666666666",
"5555555666666666666.+XXXX++XXXX6666666666666666666666666666666666666",
"555555566666666666666  6  ...X..666666666666666666666666666666666666",
"55555556666666666666666666666   666666666666666666666666666666666666"
};
