/* XPM */
static char *aedd203bfbd4482acbd7ef326b296c41XoWMty622Su4Il0l[] = {
/* columns rows colors chars-per-pixel */
"13 13 3 1 ",
"X c #000100",
"O c #00FF00",
"o c #0000FF",
/* pixels */
"ooooooooooooo",
"oXXXXXXXXXXXo",
"oXXXOOOOOXXXo",
"oXXXOXXXXXXXo",
"oXXXOXXXXXXXo",
"oXXXOXXXXXXXo",
"oXXXOOOOXXXXo",
"oXXXOXXXXXXXo",
"oXXXOXXXXXXXo",
"oXXXOXXXXXXXo",
"oXXXOOOOOXXXo",
"oXXXXXXXXXXXo",
"ooooooooooooo"
};
