/* XPM */
static char *aedd203bfbd4482acbd7ef326b296c41XoWMty622Su4Il0l[] = {
/* columns rows colors chars-per-pixel */
"13 13 3 1 ",
"X c #001000",
"O c #00FF00",
". c #FFAAAA",
/* pixels */
".............",
".XXXXXXXXXXX.",
".XXXXOOOXXXX.",
".XXXOXXXOXXX.",
".XXXOXXXXXXX.",
".XXXOXXXXXXX.",
".XXXXOOOXXXX.",
".XXXXXXXOXXX.",
".XXXXXXXOXXX.",
".XXXOXXXOXXX.",
".XXXXOOOXXXX.",
".XXXXXXXXXXX.",
"............."
};
