/* XPM */
static char *aedd203bfbd4482acbd7ef326b296c41XoWMty622Su4Il0l[] = {
/* columns rows colors chars-per-pixel */
"13 13 3 1 ",
"X c #000001",
"O c #00FF00",
"o c #FFFF00",
/* pixels */
"ooooooooooooo",
"oXXXXXXXXXXXo",
"oXXXOXXXOXXXo",
"oXXXOXXXOXXXo",
"oXXXOXXXOXXXo",
"oXXXOXXXOXXXo",
"oXXXOXXXOXXXo",
"oXXXOXXXOXXXo",
"oXXXOXOXOXXXo",
"oXXXOXOXOXXXo",
"oXXXXOXOXXXXo",
"oXXXXXXXXXXXo",
"ooooooooooooo"
};
