/* XPM */
static char *aedd203bfbd4482acbd7ef326b296c41XoWMty622Su4Il0l[] = {
/* columns rows colors chars-per-pixel */
"13 13 3 1 ",
"X c #000001",
"o c #00FF00",
"O c #FF0000",
/* pixels */
"OOOOOOOOOOOOO",
"OXXXXXXXXXXXO",
"OXXXoXXXoXXXO",
"OXXXoXXXoXXXO",
"OXXXooXXoXXXO",
"OXXXooXXoXXXO",
"OXXXoXoXoXXXO",
"OXXXoXXooXXXO",
"OXXXoXXooXXXO",
"OXXXoXXXoXXXO",
"OXXXoXXXoXXXO",
"OXXXXXXXXXXXO",
"OOOOOOOOOOOOO"
};
